<?xml version="1.0" encoding="utf-8"?>
<!-- Generator: Adobe Illustrator 24.2.3, SVG Export Plug-In . SVG Version: 6.00 Build 0)  -->
<svg version="1.1" id="Layer_1" xmlns="http://www.w3.org/2000/svg" xmlns:xlink="http://www.w3.org/1999/xlink" x="0px" y="0px"
	 viewBox="0 0 160 90" style="enable-background:new 0 0 160 90;" xml:space="preserve">
<style type="text/css">
	.st0{fill:#FFFFFF;}
</style>
<g>
	<path class="st0" d="M0,47.9c0.3-1.4,1.1-2.4,1.9-3.5c2.3-3.3,4.6-6.6,6.9-10c0.7-1.1,1.6-1.9,2.7-2.5c0.9-0.5,1.9-1.1,2.9-1.6
		c-0.8,1.2-0.6,2.7-0.8,4c-0.4,2.6-0.7,5.3-1,7.9c-0.1,1.3-0.1,2.6-0.1,3.8c0.1,1.8,1.1,3,2.8,3.7c0.3,0.1,0.6,0.2,1,0.3
		c-1.5,0.3-2.8,0.5-4.2,0.7c-2.1,0.3-4.2,0.7-6.3,1c-0.3,0-0.6,0-0.8-0.1c-1.1-0.4-2.2-0.9-3.4-1.2c-0.8-0.3-1.4-0.7-1.7-1.6v-0.9H0
		z"/>
	<path class="st0" d="M83.9,60.2c-0.7-0.1-1.4-0.2-2-0.4c-0.5-0.1-1-0.3-1.4-0.6c-2.3-1.4-2.4-4.3-0.3-5.9c1.3-1,2.7-1.4,4.2-1.7
		c2.8-0.6,5.6-0.8,8.5-1c0.5,0,0.6-0.1,0.6-0.6c0.1-1.9-0.8-3-2.6-3.6c-1.8-0.6-3.7-0.7-5.7-0.5c-1.6,0.1-3.1,0.5-4.6,1.1
		c-0.2,0.1-0.3,0.1-0.5,0.2c0-0.5,0-0.9,0-1.3c0-0.1,0.1-0.3,0.2-0.3c3.5-0.9,7.1-1.4,10.7-0.4c0.6,0.2,1.1,0.4,1.7,0.7
		c1.4,0.8,2.1,2.1,2.1,3.7c0,2.5,0,5,0,7.6c0,0.3-0.1,0.4-0.4,0.6c-2.4,1.4-5,2.2-7.8,2.4c-0.1,0-0.2,0.1-0.3,0.1L83.9,60.2
		L83.9,60.2z M93.5,51.8c-0.1,0-0.2,0-0.3,0c-2.9,0.2-5.9,0.4-8.7,1.1c-1.2,0.3-2.4,0.6-3.4,1.4c-1.4,1.1-1.4,2.9,0.1,3.8
		c0.5,0.3,1,0.5,1.5,0.7c2.1,0.6,4.3,0.3,6.4-0.1c1.4-0.3,2.7-0.7,4-1.5c0.2-0.1,0.4-0.3,0.4-0.5C93.5,55,93.5,53.4,93.5,51.8"/>
	<path class="st0" d="M23.6,59.3c0.3-0.2,0.5-0.3,0.8-0.5c1.2-0.7,2-1.7,2.2-3.2c0.4-2.8,0.9-5.7,1.4-8.5c0.2-1.5-0.3-2.7-1.6-3.4
		c-1.7-0.8-3.4-1.5-5.1-2.2c-2.3-1-4.5-1.9-6.8-2.8c-0.3-0.1-0.4-0.3-0.4-0.6c0.3-2.1,0.5-4.2,0.8-6.3c0.1-0.9,0.9-1.7,1.8-1.9
		c0.8-0.2,1.6-0.1,2.4,0.2c4.2,1.7,8.3,3.3,12.5,4.9c0.5,0.2,1,0.3,1.5,0.5c1.5,0.5,2.6,1.6,3.2,3c0.2,0.3,0.2,0.7,0.2,1.1
		c-0.1,1.8-0.1,3.5-0.3,5.2c-0.1,0.7-0.4,1.5-0.8,2.1C33.2,50,31,53,28.8,56C27,58.3,26.3,58.7,23.6,59.3"/>
	<path class="st0" d="M6.8,52.4c6.7-1,13.2-2.1,19.8-3.1c-0.1,0.8-0.2,1.5-0.3,2.2c-0.2,1.4-0.5,2.7-0.8,4.1
		c-0.1,0.4-0.3,0.8-0.6,1.1c-1.1,1.6-2.7,2-4.5,1.7c-0.3-0.1-0.7-0.2-1-0.3c-4-1.8-8-3.6-12-5.4C7.3,52.6,7.1,52.6,6.8,52.4"/>
	<path class="st0" d="M141.9,50.4c0.3-2.3-0.5-3.6-2.7-4.2c-3.1-0.9-6.2-0.7-9.3,0.3c-0.4,0.1-0.9,0.3-1.4,0.5c0-0.5,0-0.9,0-1.4
		c0-0.1,0.1-0.2,0.2-0.3c3.4-0.9,6.9-1.4,10.4-0.5c0.6,0.2,1.3,0.4,1.9,0.8c1.4,0.8,2.2,2.1,2.2,3.8c0,2.5,0,5.1,0,7.6
		c0,0.2-0.2,0.4-0.3,0.5c-3.4,2-7.1,2.8-11.1,2.4c-1-0.1-2-0.3-2.8-0.8c-2.3-1.4-2.5-4.4-0.4-6c1.2-0.9,2.7-1.3,4.2-1.7
		c2.7-0.6,5.5-0.8,8.3-1C141.4,50.5,141.7,50.4,141.9,50.4 M142,51.7c-0.1,0-0.2,0-0.2,0c-3,0.2-5.9,0.4-8.8,1.1
		c-1.2,0.3-2.3,0.6-3.3,1.3c-1.5,1.1-1.5,3,0.1,4c0.4,0.3,0.9,0.5,1.4,0.6c1.9,0.5,3.9,0.4,5.8,0c1.6-0.3,3.1-0.8,4.5-1.6
		c0.3-0.2,0.4-0.4,0.4-0.7c0-0.6,0-1.3,0-1.9v-2.8H142z"/>
	<path class="st0" d="M57.5,45c-2.5,2.3-4.9,4.6-7.4,6.9c1,0.3,2,0.4,2.9,0.7c1.4,0.4,2.8,1.1,3.9,2.1c1.6,1.4,2.4,3.1,2.6,5.2h-1.3
		c-0.1-0.5-0.2-1.1-0.4-1.6c-0.7-1.9-2.1-3.1-3.8-3.9c-1.7-0.8-3.5-1.2-5.4-1.3c-1.1,0-2.1,0-3.2,0V60H44V44.7h1.3v7.1
		c1,0,1.9,0,2.7,0c0.1,0,0.3-0.1,0.4-0.2c2.2-2.1,4.4-4.1,6.7-6.2c0.4-0.3,0.7-0.5,1.2-0.5c0.4,0,0.8,0,1.2,0
		C57.4,44.9,57.5,44.9,57.5,45"/>
	<path class="st0" d="M77.2,44.9c-0.6,1.1-1.1,2.2-1.6,3.2c-1.9,3.8-3.8,7.6-5.7,11.4c-0.1,0.3-0.3,0.4-0.7,0.4
		c-0.5,0-1.2,0.2-1.5-0.1c-0.4-0.2-0.5-0.9-0.8-1.3c-2.2-4.3-4.3-8.7-6.5-13c-0.1-0.2-0.2-0.4-0.3-0.6c0.5,0,0.9,0,1.3,0
		c0.1,0,0.3,0.2,0.4,0.4c1.8,3.6,3.6,7.2,5.4,10.7c0.5,0.9,0.9,1.9,1.4,2.9c0.6-1.2,1.2-2.4,1.8-3.5c1.7-3.3,3.3-6.6,4.9-9.9
		c0.2-0.5,0.5-0.7,1.1-0.6C76.6,44.9,76.8,44.9,77.2,44.9"/>
	<path class="st0" d="M114.2,39.7h1.4v4.9h5.6v1.3h-5.5c0,0.2,0,0.4,0,0.6c0,2.7,0,5.4,0,8.1c0,0.6,0.1,1.1,0.1,1.7
		c0.1,1,0.7,1.7,1.7,2c0.9,0.2,1.8,0.3,2.6,0.4c1.3,0.1,2.6,0,3.9,0v1.2c0,0,0,0.1-0.1,0.1c-2,0-4,0-5.9-0.2
		c-2.6-0.3-3.6-1.6-3.7-4.2c0-1.5,0-3.1,0-4.6c0-3.5,0-7,0-10.5L114.2,39.7L114.2,39.7z"/>
	<path class="st0" d="M146.9,44.9h1.3c0,0.2,0,0.5,0,0.7c0,3.2,0,6.5,0,9.7c0,2.2,0.9,3.1,3.1,3.2c2,0.1,4,0.1,6,0.1
		c0.9,0,1.7,0,2.6,0v1.3c-0.1,0-0.2,0-0.4,0c-2.4,0-4.9,0-7.3,0c-0.7,0-1.4-0.1-2.1-0.2c-2.3-0.4-3.4-1.7-3.4-4.2
		c0-3.4,0-6.9,0-10.3C146.9,45.1,146.9,45,146.9,44.9"/>
	<path class="st0" d="M101.1,59.9c-0.3,0-0.6,0-0.9,0c-0.1,0-0.3,0-0.4,0c0-0.2,0-0.3,0-0.5c0-3.4,0-6.7,0-10.1
		c0-0.4,0.1-0.6,0.4-0.8c1.9-1.9,4.1-3.4,6.8-3.8c1.2-0.2,2.4-0.1,3.6-0.1c0.3,0,0.4,0.1,0.4,0.5c0,0.3,0,0.6,0,0.9
		c-0.5-0.1-0.9-0.2-1.3-0.2c-3.4-0.3-6.1,1-8.3,3.6c-0.1,0.1-0.2,0.4-0.2,0.6c0,3.1,0,6.2,0,9.3L101.1,59.9L101.1,59.9z"/>
</g>
</svg>
