<?xml version="1.0" encoding="utf-8"?>
<!-- Generator: Adobe Illustrator 24.2.3, SVG Export Plug-In . SVG Version: 6.00 Build 0)  -->
<svg version="1.1" id="Layer_1" xmlns="http://www.w3.org/2000/svg" xmlns:xlink="http://www.w3.org/1999/xlink" x="0px" y="0px"
	 viewBox="0 0 200 150" style="enable-background:new 0 0 200 150;" xml:space="preserve">
<style type="text/css">
	.st0{fill:#FFFFFF;}
</style>
<g>
	<path class="st0" d="M101.2,41.7c4.5,0,7.7,5,5.9,9.1c-1.2,2.6-4.2,3.8-6.9,2.7c-3.1-1.2-4.9-4.4-4.2-7.6
		C96.5,43.4,98.5,41.7,101.2,41.7"/>
	<path class="st0" d="M100,96.7c-0.5,0.8-1,1.5-1.5,2.3c-1.3,2.1-2.5,4.3-3.8,6.4c-1.4,2.2-3.1,4.2-5.1,5.8
		c-5.3,4.3-11.2,3.2-15.7-0.9c-2.4-2.2-3.4-5.2-4.4-8.1c-0.4-1.1-0.7-2.3-1.1-3.4c-0.5-1.1-0.9-1.3-1.9-0.5c-1.6,1.3-3.1,2.7-4.6,4
		c-4.5,4.1-9.5,7.6-15.3,9.8c-5.7,2.1-11.6,2.5-17.6,1.3c-4.7-0.9-8.2-3.5-10.8-7.5c-1.8-2.8-3.2-5.7-4.1-8.9
		c-0.4-1.3-1-2.1-2.5-2.3c-2.6-0.4-5.2-1-7.8-1.5c-2.4-0.5-3.9-2.6-3.9-5s1.7-4.5,4.1-4.8c1.1-0.1,2.3,0.2,3.4,0.4
		c1.3,0.2,2.7,0.5,4,0.7c1.5,0.2,1.7,0,2-1.4c0.7-3.1,1.7-6,3.4-8.6c4.6-7.1,11-11.5,19.3-12.7c3.5-0.5,6.9-0.4,10.4,0.5
		c5.3,1.4,8.2,6,8.8,10.5c1.2,9-3.8,17.6-14.2,20.8c-4.1,1.3-8.2,1.7-12.5,1.9c-1,0-1.9,0.1-2.9,0.1c-1.4,0.1-1.8,0.7-1.1,1.9
		c1.2,2.2,2.9,4,5.2,5.2c3,1.5,6.1,1.6,9.3,1c5.6-1,10.5-3.6,14.9-7.2c3-2.5,5.8-5.3,8.7-7.9c1.7-1.6,2.1-3.5,1.8-5.7
		c-0.7-4.1-1.4-8.2-1.9-12.4c-0.8-6.6-1.3-13.3,0.1-19.9c0.7-3.3,1.8-6.4,3.6-9.2c5.3-8.3,16.3-6,20,0.1c2.2,3.7,3.2,7.6,2.8,11.9
		c-1,11.4-4.5,21.9-10.8,31.5c-0.5,0.8-1,1.5-1.5,2.2c-0.8,1.1-1.1,2.2-0.7,3.5c0.9,3.2,1.8,6.3,2.8,9.4c0.3,0.9,0.9,1.8,1.6,2.5
		c1.1,1.2,2.4,1.3,3.6,0.1c1.1-1.1,2.2-2.2,3.1-3.5c4.6-6.7,8.2-13.9,10-22c0.7-3.2,0.9-6.4,0.6-9.7c-0.1-0.9,0-1.9,0.2-2.9
		c0.3-1.5,1.3-2.4,2.8-2.8c1.9-0.4,3.5,0,4.8,1.4c1.1,1.2,1.7,2.7,1.8,4.3c0.5,5.9,0.9,11.7,1.5,17.6c0.3,3.5,0.4,7.1,1.5,10.5
		c0.8,2.3,1.8,4.5,3.5,6.3c2,2.1,4.4,3.1,7.3,3.2c2.5,0.1,4.9-0.1,7.2-1.2s3.6-2.9,3.6-5.6c0-1.3-0.5-2.3-1.4-3.1
		c-1.3-1.1-2.8-2.1-4.3-3.1c-2.4-1.6-5-3-7.3-4.9c-6.1-5-6.1-12.6-0.2-17.9c3.6-3.2,7.9-4.9,12.4-6c7.4-1.7,14.8-2,22.4-1.7
		c5.6,0.2,11.1,0.8,16.5,2.5c2.4,0.7,4.8,1.7,7,2.8c4.9,2.3,8.3,6.1,9.7,11.5c0.5,1.8,0.6,1.8,2.5,1.9c2.2,0.2,4.4,0.4,6.6,0.8
		c2.8,0.5,4.5,3.2,3.9,6.1c-0.5,2.6-3.1,4.2-5.8,3.7c-1.5-0.3-3-0.4-4.5-0.5c-1.2-0.1-1.5,0.3-1.8,1.4c-2,10.1-7.9,16.9-17.3,20.8
		c-3.3,1.3-6.8,1.5-10.3,1.4c-1.6,0-3.3-0.2-4.8-0.5c-4.7-0.9-7.5-3.7-8.5-8.3c-1.4-6.3-0.4-12.1,3.7-17.2c2.9-3.5,6.9-5.4,11.3-6.5
		c4-1,8.1-1.4,12.2-1.4c0.6,0,1.1,0,1.7-0.2c0.4-0.1,0.9-0.3,1-0.6c0.1-0.3-0.2-0.9-0.5-1.1c-1.5-1.1-3-2.2-4.6-3
		c-3.5-1.7-7.2-2.6-11-2.9c-4.7-0.4-9.5-0.7-14.2-0.7c-5.7,0-11.3,0.6-16.7,2.7c-1.1,0.4-2.2,1-3.2,1.6c-1.5,1-1.7,2.4-0.6,3.8
		c0.6,0.8,1.4,1.4,2.2,1.9c1.9,1.2,4,2.1,5.9,3.2c5.7,3.3,8.3,8.4,7.6,14.8c-0.5,5.6-3.6,9.7-8.7,12c-9.5,4.2-18.3,2.8-26.4-3.7
		c-2.7-2.2-4.3-5.1-5.2-8.5c-0.2-0.9-0.6-1.8-0.9-2.7C100.3,96.8,100.2,96.7,100,96.7 M25,85.6c0.6,0,1.1-0.1,1.7-0.1
		c3.7-0.1,7.4-0.3,11-1.3c4-1,6.8-3.3,8.1-7.3c0.7-2.1,0.1-3.9-1.8-4.8c-1.1-0.5-2.4-1-3.7-1c-7.1-0.2-14.9,5.5-16.9,12.3
		C22.9,85.1,23.3,85.6,25,85.6 M161.2,104c3-0.1,6.2-0.9,9.2-2.6c3.5-2,5.9-5,7.3-8.8c0.7-1.9,0.1-2.6-1.8-2.6c-1.6,0-3.2,0-4.8,0.2
		c-2.9,0.4-5.7,0.7-8.5,1.4c-3.4,0.9-5.9,3-6.6,6.7C155.3,101.9,157.1,104.1,161.2,104 M72.9,74.2c0.1,0,0.3,0,0.4,0.1
		c0.3-0.5,0.7-1,0.9-1.5c0.9-2.1,1.8-4.2,2.5-6.4c1.7-5.1,2.9-10.3,3-15.6c0-1.7-0.1-3.4-1.2-4.9c-0.9-1.3-2.2-1.6-3.6-0.8
		c-1.2,0.7-2,1.7-2.3,3c-0.5,2-0.9,4.1-0.9,6.2c0,4.3,0.1,8.7,0.3,13C72.2,69.6,72.6,71.9,72.9,74.2"/>
</g>
</svg>
