<?xml version="1.0" encoding="utf-8"?>
<!-- Generator: Adobe Illustrator 24.2.3, SVG Export Plug-In . SVG Version: 6.00 Build 0)  -->
<svg version="1.1" id="Layer_1" xmlns="http://www.w3.org/2000/svg" xmlns:xlink="http://www.w3.org/1999/xlink" x="0px" y="0px"
	 viewBox="0 0 160 90" style="enable-background:new 0 0 160 90;" xml:space="preserve">
<style type="text/css">
	.st0{fill:#FFFFFF;}
</style>
<g>
	<path class="st0" d="M13.6,64.6c0,0.1,0,0.2,0.1,0.3c0.2-0.2,0.5-0.4,0.8-0.5c0.1-0.5,0.6-0.8,1.1-0.8h0.1
		c-0.4,0.1-0.8,0.4-0.9,0.9c-0.3,0.1-0.5,0.3-0.5,0.6c0,0.1,0,0.3,0.1,0.4c0.2-0.3,0.5-0.4,0.9-0.5c0.1-0.5,0.5-0.9,1-0.9
		c-0.4,0.2-0.8,0.6-0.8,1.1c0,0.2,0,0.4,0.1,0.5c0.1-0.3,0.3-0.5,0.6-0.5c0.1,0,0.2,0,0.2,0c0.1,0,0.2,0.1,0.3,0.1
		c0.5,0,0.9-0.4,0.9-0.9c0-0.1,0-0.2,0-0.3c0.2,0.1,0.4,0.3,0.4,0.5c0,0.1,0,0.2-0.1,0.3c0.1,0,0.1,0,0.2,0c0.6,0,1.1-0.4,1.1-1
		c0.3-0.2,0.5-0.4,0.8-0.6l0.2,0.8c0,0.1,0,0.1,0,0.2c0,0,0,0.1-0.1,0.1l0.6-0.7l0.1-0.1c0,0,0-0.1,0-0.2l-0.2-0.9
		c0-0.1,0-0.1,0-0.2c0,0,0-0.1,0.1-0.1l0.5-0.5l-0.1,0.1c0,0,0,0.1,0,0.2l0.2,0.9c0,0.1,0,0.1,0,0.2c0,0,0,0.1-0.1,0.1l0.6-0.6
		l0.1-0.1c0,0,0-0.1,0-0.2l-0.2-0.9c0-0.1,0-0.1,0-0.2c0,0,0-0.1,0.1-0.1l0.5-0.5l-0.1,0.1c0,0,0,0.1,0,0.2l0.2,0.9
		c0,0.1,0,0.1,0,0.2c0,0,0,0.1-0.1,0.1l0.6-0.6l0.1-0.1c0,0,0-0.1,0-0.2l0-0.5c-0.1-0.5,0.4-1.1,0.8-1.2c0.1-0.1,0.1-0.2,0.1-0.3
		c0-0.5-0.6-0.9-1.4-0.9c-0.4,0-0.7,0.1-1,0.3c0.1,0.3,0.1,0.6-0.9,0.7c-0.8,0.1-1.5,0.3-2,0.7c-0.8,0.7-0.7,1.6-1.2,1.9
		c0.2,0,0.5,0,0.7,0s0.3-0.1,0.5-0.2c-0.1,0.2-0.3,0.3-0.5,0.4c-0.1,0.3-0.4,0.6-0.8,0.8c-0.2,0.1-0.5,0.1-0.7,0l-0.9-0.3
		c-0.1,0-0.2-0.1-0.4-0.1c-0.7,0-1.3,0.5-1.3,1.2C13.8,63.9,13.6,64.2,13.6,64.6 M22.8,27.6c0.5-0.5,1.2-1,1.8-1.3
		c0-0.1,0-0.2,0-0.2l0,0c-2.9,0.5-5.4,1.9-7.7,1.9c-0.6,0-1.2-0.3-1.2-0.7c0-0.1,0-0.2,0-0.2c0-0.2,0.2-0.3,0.3-0.3
		c0.2,0,0.4,0.2,0.4,0.4c0,0.1,0,0.2-0.1,0.2c0.1,0,0.1,0,0.2,0c0.2,0,0.4,0,0.5-0.1c0.3-0.1,0.4-0.3,0.4-0.6c0-0.3-0.3-0.6-0.6-0.6
		c0,0,0,0-0.1,0c0.1,0,0.2-0.1,0.3-0.1c0.4,0,0.7,0.3,0.7,0.7c0,0,0,0,0,0.1c1,0,2.2-1,2.4-1.3c-0.3,0.1-0.7,0.1-1,0.1
		c-0.4,0-0.8-0.1-1.2-0.1c-0.5-0.1-1-0.2-1.4-0.2c-1.2,0-2.3,0.8-2.3,1.8c0,0.8,0.7,1.6,1.6,1.7C18.1,29.4,20.7,28.1,22.8,27.6
		 M10.6,30.6c0.1-0.3,0.1-0.6,0.1-0.9L10.4,30c-0.1-0.1-0.1-0.2-0.1-0.3c0-0.1-0.1-0.1-0.1-0.1s0,0-0.1,0H10H9.9H9.8
		c0,0-0.1,0-0.1,0.1S9.6,29.8,9.6,30l-0.3-0.3c0,0.3,0,0.6,0.1,0.9c0.2,0,0.4-0.1,0.6-0.1C10.2,30.5,10.4,30.6,10.6,30.6 M10.7,31.4
		c0-0.3-0.4-0.5-0.7-0.5c-0.4,0-0.8,0.1-0.7,0.5c0,0.4,0.4,0.2,0.7,0.2S10.7,31.8,10.7,31.4 M11.8,28.9c-0.1,0-0.1,0.1-0.1,0.1
		c0,0.4-0.2,0.6-0.5,0.7c0,0.4-0.1,0.7-0.2,1.1c0.3,0.7,0.1,1.1-0.2,1.2c-0.2,0.1-0.6,0-0.8,0c-0.3,0-0.6,0.1-0.8,0
		c-0.3-0.1-0.5-0.6-0.2-1.2c-0.1-0.4-0.2-0.7-0.2-1.1c-0.3-0.1-0.4-0.3-0.5-0.7c0-0.1,0-0.1-0.1-0.1c-1-0.3-1.1-1.6-0.6-1.9
		c0,0.6-0.1,1.4,1.1,1.5c0,0.7,0.3,0.9,0.6,0.9c0.2,0,0.4-0.1,0.5-0.1c0.2-0.1,0.1-0.3,0-0.3c-0.2-0.1-0.2-0.3-0.2-0.5
		c0,0,0-0.1,0.1-0.1H10h0.4c0,0,0,0,0.1,0.1c0,0.2,0,0.4-0.2,0.5c-0.1,0.1-0.2,0.2,0,0.3c0.1,0,0.2,0.1,0.5,0.1s0.6-0.2,0.6-0.9
		c1.2-0.1,1.1-0.9,1.1-1.5C12.9,27.4,12.8,28.6,11.8,28.9 M12.1,26.7c0,0.3-0.2,0.6-0.5,0.6h-0.2c0.1,0.1,0.1,0.2,0.1,0.3
		c0,0.2-0.2,0.4-0.4,0.4s-0.4-0.2-0.4-0.4c0-0.1,0-0.2,0.1-0.3h-0.2c-0.1,0-0.1,0-0.2,0.1c0-0.1,0-0.3,0-0.3c0-0.1,0.1-0.2,0.2-0.2
		h1C11.8,26.9,12,26.8,12.1,26.7 M12,26.2h-0.4c-0.2,0-0.3-0.1-0.4-0.2l-0.4-0.5c-0.1-0.1-0.1-0.1-0.2-0.2H11c0.1,0,0.2,0.1,0.3,0.2
		l0.4,0.6C11.8,26.1,11.8,26.2,12,26.2 M10.1,25.3l0.5,0.7c0.1,0.1,0.2,0.2,0.3,0.2h-0.5c-0.2,0-0.3-0.1-0.4-0.2l-0.4-0.6
		c-0.2-0.2-0.2-0.3-0.4-0.4h0.5C9.8,25,10,25.2,10.1,25.3 M8.9,25.4L9.3,26c0.1,0.1,0.1,0.2,0.2,0.2H9.2c-0.2,0-0.3-0.1-0.4-0.2
		l-0.4-0.5c-0.1-0.1-0.1-0.1-0.2-0.2h0.4C8.7,25.3,8.8,25.3,8.9,25.4 M8.6,27.3H8.4c-0.2,0-0.5-0.3-0.5-0.6c0.1,0.2,0.3,0.2,0.5,0.2
		h1c0.1,0,0.2,0.1,0.2,0.2s0,0.2,0,0.3c0-0.1-0.1-0.1-0.2-0.1H9.2c0.1,0.1,0.1,0.2,0.1,0.3c0,0.2-0.2,0.4-0.4,0.4s-0.4-0.2-0.4-0.4
		C8.5,27.5,8.5,27.4,8.6,27.3 M7.3,32.3L7.4,32v-0.1v-0.1l0.3,0.6v0.1c0,0.1,0,0.1,0,0.1v0.1c-0.2,0.4-0.4,1.2-0.2,1.6
		c-0.5-0.2-0.7-0.6-0.6-1c-1-0.9-1.2-1.8-0.5-2.6l0.4-0.4l0.1-0.1c0,0,0-0.1,0-0.2L7,30.7c0,0.1,0,0.1,0,0.2c0,0,0,0.1-0.1,0.1
		l-0.1,0.1c-0.4,0.4-0.3,1,0.3,1.5C7.2,32.5,7.2,32.4,7.3,32.3 M31,34.8c0-0.1,0.1-0.2,0.1-0.3c0-0.4-0.3-0.8-0.8-0.8h-0.8
		c-0.1,0-0.1,0-0.1,0l-0.1-0.1L28.8,33l0.1,0.1H29h1c0.1,0,0.1,0,0.1,0l0.1,0.1l-0.5-0.7l-0.1-0.1h-0.1h-1c-0.1,0-0.1,0-0.1,0
		l-0.1-0.1l-0.4-0.7l0.1,0.1h0.1h1c0.1,0,0.1,0,0.1,0l0.1,0.1L29,31.3l-0.1-0.1h-0.1H28c-0.1,0-0.1,0-0.1,0l-0.1-0.1l-0.6-0.8
		c1.1-0.1,2-0.7,2.2-1.6c0.2-1.1-0.8-2.1-2.4-2.4c-0.3,0-0.5-0.3-0.5-0.5s0.1-0.4,0.4-0.5c-0.2-0.1-0.4-0.1-0.5-0.1
		c-0.7,0-1.2,0.5-1.2,1.1c0,0.1,0,0.2,0.1,0.3c-0.8,0.3-1.5,0.9-2,1.6c0.6-0.2,1.2-0.2,1.8-0.2v-0.1c0-0.5,0.4-0.8,0.8-0.8l0,0
		c-0.3,0.1-0.5,0.4-0.5,0.6s0.2,0.4,0.4,0.4c0.1,0,0.2,0,0.3-0.1c0-0.1,0-0.1,0-0.2c0-0.3,0.3-0.6,0.6-0.6h0.1
		c-0.2,0.1-0.4,0.3-0.4,0.6c0,0.4,0.3,0.7,0.7,0.7h0.1v-0.1c0-0.3,0.2-0.5,0.5-0.5s0.5,0.2,0.5,0.5c0,0.6-0.6,0.6-1.1,0.5
		c-1.3-0.4-2.6-0.6-3.8-0.4c-1.6,0.2-4.1,1.3-6.9,1.2c-0.6,0-1.3-0.1-1.9-0.3c0.1,0.1,0.1,0.2,0.2,0.2c0.3,0.4,0.4,0.8,0.1,1.4
		c0-0.6-0.5-1.1-0.9-1.4c-0.2-0.1-0.2-0.2-0.2-0.4l0.1-0.7c0,0.1,0,0.1,0,0.2c0,0,0,0.1,0.1,0.1l0.3,0.3c0.1-0.7-0.1-1.4-0.5-2
		c0.2-0.5,0.2-1,0.1-1.5c0,0.4-0.2,0.5-0.4,0.7c-0.3,0.2-0.4,0.6-0.2,0.8c-0.3-0.1-0.7-0.7-0.4-1c0.2-0.3,0.9-0.2,1-0.7
		c-0.4-0.1-0.9,0-1,0c-0.3-0.3-0.6-0.4-1-0.4c-0.3-0.3-0.8-0.4-1.3-0.4C10,24.5,9.6,24.7,9.2,25c-0.4,0-0.8,0.1-1,0.4
		c-0.1,0-0.6-0.1-1,0c0.1,0.6,0.7,0.4,1,0.7c0.2,0.3-0.2,0.8-0.4,1C7.4,26.6,7.4,26.2,7,26c-0.2-0.1-0.4-0.3-0.4-0.7
		c-0.1,0.5-0.1,1,0.1,1.5c-0.4,0.6-0.6,1.3-0.5,2l0.3-0.3l0.1-0.1c0,0,0-0.1,0-0.2l0.1,0.7c0,0.2,0,0.3-0.2,0.4
		c-0.4,0.3-0.9,0.8-0.9,1.4c-0.2-0.5-0.1-1,0.1-1.4c-0.8-0.4-1.4-1.1-1.5-1.3c-0.2-0.3-0.2-0.6,0-1c0.4-0.6,0.5-1.2,0-1.7v-0.1
		c0-0.4-0.3-0.7-0.7-0.8c0.1,0.1,0.1,0.2,0.1,0.4c0,0.2-0.1,0.3-0.1,0.4c0.1,0.1,0.1,0.2,0.1,0.4c0,0.2-0.1,0.3-0.2,0.4
		c0-0.1,0-0.1,0-0.2c0-0.4-0.3-0.8-0.6-0.9c-0.1-0.3-0.3-0.5-0.6-0.5c-0.2,0-0.3,0.1-0.5,0.2c0.2,0,0.4,0.2,0.5,0.5
		c-0.1,0.1-0.2,0.2-0.3,0.4l0,0c0.4,0,0.8,0.3,0.8,0.8v0.1c0-0.2-0.1-0.3-0.2-0.5c-0.2-0.2-0.6-0.3-0.9-0.2
		c-0.1-0.1-0.3-0.2-0.5-0.2s-0.4,0.1-0.5,0.3c0.2,0,0.4,0.1,0.6,0.3c-0.3,0.4-0.3,1,0,1.3c0.2,0.2,0.6,0.3,0.9,0.2c0,0,0,0,0.1,0
		s0.2,0.1,0.2,0.2S2.3,28,2.2,28H2.1c-0.1-0.1-0.2-0.1-0.3-0.1c-0.2,0-0.4,0.2-0.4,0.4c0,0,0,0,0,0.1H1.3c-0.1,0-0.2,0-0.3-0.1
		c0,0,0,0.1,0,0.2c0,0.3,0.2,0.6,0.6,0.6c0.1,0.3,0.5,0.6,0.9,0.6c0.2,0,0.4-0.1,0.5-0.2c0.1,0,0.1-0.1,0.2-0.1
		c0.2,0,0.4,0.2,0.4,0.4c0,0.2-0.1,0.4-0.3,0.4L3,30.3c-0.1,0-0.1,0-0.2,0c0,0-0.1,0-0.1-0.1l0.7,0.7L3.5,31c0,0,0.1,0,0.2,0L4,31
		c0.1,0,0.1,0,0.2,0c0,0,0.1,0,0.1,0.1l0.5,0.5l-0.1-0.1c0,0-0.1,0-0.2,0l-0.6,0.1c-0.1,0-0.1,0-0.2,0c0,0-0.1,0-0.1-0.1l0.7,0.6
		l0.1,0.1c0,0,0.1,0,0.2,0l0.6-0.1c0.1,0,0.1,0,0.2,0c0,0,0.1,0,0.1,0.1L6,32.7l-0.1-0.1c0,0-0.1,0-0.2,0l-0.6,0.1
		c-0.1,0-0.1,0-0.2,0c0,0-0.1,0-0.1-0.1l0.7,0.6l0.1,0.1c0,0,0.1,0,0.2,0l0.7-0.2c-0.7,0.4-1.5,0.8-2.2,1.4c-0.5,0.3-1,0.4-1.6,0.1
		c-0.3-0.1-0.7-0.1-0.9-0.1c-0.3,0-0.5,0.2-0.7,0.5c0.1,0,0.2,0,0.4,0c0.3,0,0.5,0.1,0.7,0.3c-0.3-0.1-0.6-0.1-0.9,0
		c-0.6,0.2-0.9,0.8-0.8,1.3c-0.3,0-0.5,0.3-0.5,0.5c0,0.2,0.1,0.3,0.2,0.4C0.3,37.2,0.5,37,0.8,37c0.1,0.1,0.3,0.1,0.4,0.2
		c0-0.1,0.1-0.1,0.2-0.2v-0.1c0-0.5,0.4-1,1-1h0.1c-0.4,0.1-0.8,0.5-0.8,1c0,0.1,0,0.1,0,0.2c-0.2,0.1-0.4,0.3-0.4,0.6
		c0,0.2,0.1,0.3,0.1,0.4c0.2-0.3,0.5-0.6,0.9-0.6c0.1,0,0.3,0.1,0.5,0.1c0.1,0,0.2,0,0.3,0C3,37.5,3,37.3,3,37.2
		c0-0.4,0.3-0.8,0.8-0.8h0.1c-0.4,0.2-0.6,0.5-0.6,0.8c0.1,0.2,0.3,0.4,0.5,0.4c0,0.2,0,0.3-0.1,0.5c0.4,0,0.7-0.2,0.8-0.5
		c0.4-0.2,0.7-0.5,0.6-0.8c0-0.1-0.1-0.2-0.2-0.3l0,0c0-0.2,0.2-0.4,0.4-0.4c0.2,0,0.4,0.2,0.4,0.4c0,0.1,0,0.2-0.1,0.3h0.8
		c0.1,0,0.1,0,0.1,0l0.1-0.1l0.5-0.8c0,0,0-0.1,0.1-0.1h0.1H8H7.9c0,0-0.1,0-0.1,0.1l-0.5,0.8l-0.1,0.1H7.1h1c0.1,0,0.1,0,0.1,0
		l0.1-0.1l0.6-0.9c-0.4-0.2-0.6-0.6-0.6-1.2c0-0.3,0.2-0.7,0.2-1v-0.1c0-0.1,0-0.1,0-0.2c0,0,0-0.1-0.1-0.1L9,33.5l0.1,0.1
		c0,0,0,0.1,0,0.2v0.1c0,0.2-0.3,0.7,0.2,1.1l0.1,0.1l0.4,0.2V34h0.5v1.4c0,0.1,0,0.1,0,0.1l0.1,0.1l0.5,0.3H11c0.1,0,0.1,0,0.2,0
		l0.9-0.4c0,0-0.1,0-0.2,0c-0.1,0-0.1,0-0.1,0l-1-0.6c0.5-0.4,0.2-0.9,0.2-1.1v-0.1c0-0.1,0-0.1,0-0.2c0,0,0-0.1,0.1-0.1l0.5-0.5
		L11.5,33c0,0,0,0.1,0,0.2v0.1c0,0.4,0.4,1,0.1,1.4l0.9,0.6h0.1c0.1,0,0.1,0,0.2,0l0.9-0.4h-0.1c-0.1,0-0.1,0-0.1,0l-1-0.6
		c0.2-0.4,0-1.2-0.2-1.6v-0.1v-0.1v-0.1l0.3-0.6v0.1c0,0.1,0,0.1,0,0.1l0.1,0.2c0.1,0.1,0.1,0.2,0.2,0.3c0.6-0.5,0.7-1,0.3-1.4
		L13.1,31L13,30.9c0,0,0-0.1,0-0.2l0.2-0.7c0,0.1,0,0.1,0,0.2c0,0,0,0.1,0.1,0.1l0.4,0.4c0.7,0.8,0.3,1.8-0.5,2.5
		c0,0.1,0.1,0.4,0.1,0.6l1.1,0.7h0.1c0,0,0.1,0,0.2,0l0.8-0.3h-0.1c-0.2,0-0.4-0.2-0.4-0.4s0.1-0.3,0.3-0.4c3-0.9,5.8-3.3,7.6-3.3
		c0.9,0,1.6,0.5,1.6,1.2c0,0.1,0,0.2-0.1,0.3c-0.4,1.1,0.2,2.1,1.7,2.5c0.2,0.1,0.4,0.3,0.4,0.5c0,0.1,0,0.1,0,0.1h0.1
		c0.4,0,0.8-0.2,1-0.5c0.3,0,0.5,0,0.8,0c0,0.1,0.1,0.1,0.1,0.2c0.1,0.3,0,0.6-0.2,0.7c-0.3,0.1-0.8,0-1.1,0c-0.6,0-1.1,0.5-1.1,1.1
		v0.1c-0.2,0.1-0.3,0.3-0.3,0.6c0,0.1,0,0.2,0.1,0.3c0.2-0.2,0.4-0.4,0.7-0.5c0-0.5,0.5-1,1-1c0.1,0,0.2,0,0.2,0
		c-0.6,0.1-1,0.5-1,1.1v0.1c-0.1,0.1-0.1,0.2-0.1,0.3s0.1,0.3,0.2,0.4c0.1-0.2,0.4-0.4,0.7-0.6c0.2-0.1,0.4-0.1,0.6-0.1
		c0-0.1,0-0.2,0-0.3c0-0.5,0.4-0.9,0.9-0.9h0.1c-0.3,0-0.6,0.3-0.6,0.7c0,0.2,0.1,0.4,0.3,0.6l0,0c0,0.2,0.1,0.4,0.2,0.5
		c0.1-0.3,0.3-0.6,0.7-0.6c0.3,0,0.5,0,0.7-0.1c0.3-0.1,0.5-0.4,0.5-0.7c0-0.2-0.1-0.4-0.3-0.6c0.1-0.4,0.1-1-0.1-1.5h0.1
		C30.7,34.6,30.9,34.7,31,34.8 M15.6,41.2c0-0.1,0-0.2,0-0.2c0-0.2,0.2-0.3,0.3-0.3c0.2,0,0.4,0.2,0.4,0.4c0,0.1,0,0.2-0.1,0.2
		c0.1,0,0.1,0,0.2,0c0.2,0,0.4,0,0.5-0.1c0.3-0.1,0.4-0.3,0.4-0.6S17,40,16.7,40c0,0,0,0-0.1,0c0.1,0,0.2-0.1,0.3-0.1
		c0.4,0,0.7,0.3,0.7,0.7c0,0,0,0,0,0.1c1,0,2.2-1,2.4-1.3c-0.3,0.1-0.7,0.1-1,0.1c-0.4,0-0.8-0.1-1.2-0.1c-0.5-0.1-1-0.2-1.4-0.2
		c-1.2,0-2.3,0.8-2.3,1.8c0,0.8,0.7,1.6,1.6,1.7c2.2,0.4,4.7-0.8,6.9-1.3c0.5-0.5,1.2-1,1.8-1.3c0-0.1,0-0.2,0-0.2l0,0
		c-2.9,0.5-5.4,1.9-7.7,1.9C16.2,41.8,15.7,41.6,15.6,41.2 M15.6,35.9h0.1c-0.4,0.1-0.8,0.4-0.9,0.9c-0.3,0.1-0.5,0.3-0.5,0.6
		c0,0.1,0,0.3,0.1,0.4c0.2-0.3,0.5-0.4,0.9-0.5c0.1-0.5,0.5-0.9,1-0.9c-0.4,0.2-0.8,0.6-0.8,1.1c0,0.2,0,0.4,0.1,0.5
		c0.1-0.3,0.3-0.5,0.6-0.5c0.1,0,0.2,0,0.2,0c0.1,0,0.2,0.1,0.3,0.1c0.5,0,0.9-0.4,0.9-0.9c0-0.1,0-0.2,0-0.3
		c0.2,0.1,0.4,0.3,0.4,0.5c0,0.1,0,0.2-0.1,0.3c0.1,0,0.1,0,0.2,0c0.6,0,1.1-0.4,1.1-1c0.3-0.2,0.5-0.4,0.8-0.6l0.2,0.8
		c0,0.1,0,0.1,0,0.2c0,0,0,0.1-0.1,0.1l0.6-0.7l0.1-0.1c0,0,0-0.1,0-0.2l-0.2-0.9c0-0.1,0-0.1,0-0.2c0,0,0-0.1,0.1-0.1l0.5-0.5
		l-0.1,0.1c0,0,0,0.1,0,0.2l0.2,0.9c0,0.1,0,0.1,0,0.2c0,0,0,0.1-0.1,0.1l0.6-0.6l0.1-0.1c0,0,0-0.1,0-0.2l-0.2-0.9
		c0-0.1,0-0.1,0-0.2c0,0,0-0.1,0.1-0.1l0.5-0.5L22.2,33c0,0,0,0.1,0,0.2l0.2,0.9c0,0.1,0,0.1,0,0.2c0,0,0,0.1-0.1,0.1l0.6-0.6
		l0.1-0.1c0,0,0-0.1,0-0.2l0-0.4c-0.1-0.5,0.4-1.1,0.8-1.2c0.1-0.1,0.1-0.2,0.1-0.3c0-0.5-0.6-0.9-1.4-0.9c-0.4,0-0.7,0.1-1,0.3
		c0.1,0.3,0.1,0.6-0.9,0.7c-0.8,0.1-1.5,0.3-2,0.7c-0.8,0.7-0.7,1.6-1.2,1.9c0.2,0,0.5,0,0.7,0s0.3-0.1,0.5-0.2
		c-0.1,0.2-0.3,0.3-0.5,0.4c-0.1,0.3-0.4,0.6-0.8,0.8c-0.2,0.1-0.5,0.1-0.7,0L15.7,35c-0.1,0-0.2-0.1-0.4-0.1
		c-0.7,0-1.3,0.5-1.3,1.2c-0.3,0-0.6,0.3-0.6,0.7c0,0.1,0,0.2,0.1,0.3c0.2-0.2,0.5-0.4,0.8-0.5C14.6,36.3,15.1,35.9,15.6,35.9
		 M10.6,44.4c0.1-0.3,0.1-0.6,0.1-0.9l-0.3,0.3c-0.1-0.1-0.1-0.2-0.1-0.3s-0.1-0.1-0.1-0.1s0,0-0.1,0H10H9.9H9.8c0,0-0.1,0-0.1,0.1
		s-0.1,0.1-0.1,0.3l-0.3-0.3c0,0.3,0,0.6,0.1,0.9c0.2,0,0.4-0.1,0.6-0.1C10.2,44.4,10.4,44.4,10.6,44.4 M10.7,45.3
		c0-0.3-0.4-0.5-0.7-0.5c-0.4,0-0.8,0.1-0.7,0.5c0,0.4,0.4,0.2,0.7,0.2S10.7,45.7,10.7,45.3 M11.8,42.8c-0.1,0-0.1,0.1-0.1,0.1
		c0,0.4-0.2,0.6-0.5,0.7c0,0.4-0.1,0.7-0.2,1.1c0.3,0.7,0.1,1.1-0.2,1.2c-0.2,0.1-0.6,0-0.8,0c-0.3,0-0.6,0.1-0.8,0
		c-0.3-0.1-0.5-0.6-0.2-1.2c-0.1-0.4-0.2-0.7-0.2-1.1c-0.3-0.1-0.4-0.3-0.5-0.7c0-0.1,0-0.1-0.1-0.1c-1-0.3-1.1-1.6-0.6-1.9
		c0,0.6-0.1,1.4,1.1,1.5c0,0.7,0.3,0.9,0.6,0.9c0.2,0,0.4-0.1,0.5-0.1c0.2-0.1,0.1-0.3,0-0.3c-0.2-0.1-0.2-0.3-0.2-0.5
		c0,0,0-0.1,0.1-0.1H10h0.4c0,0,0,0,0.1,0.1c0,0.2,0,0.4-0.2,0.5c-0.1,0.1-0.2,0.2,0,0.3c0.1,0,0.2,0.1,0.5,0.1s0.6-0.2,0.6-0.9
		c1.2-0.1,1.1-0.9,1.1-1.5C12.9,41.2,12.8,42.5,11.8,42.8 M12.1,40.5c0,0.3-0.2,0.6-0.5,0.6h-0.2c0.1,0.1,0.1,0.2,0.1,0.3
		c0,0.2-0.2,0.4-0.4,0.4s-0.4-0.2-0.4-0.4c0-0.1,0-0.2,0.1-0.3h-0.2c-0.1,0-0.1,0-0.2,0.1c0-0.1,0-0.3,0-0.3c0-0.1,0.1-0.2,0.2-0.2
		h1C11.8,40.7,12,40.7,12.1,40.5 M12,40h-0.4c-0.2,0-0.3-0.1-0.4-0.2l-0.4-0.5c-0.1-0.1-0.1-0.1-0.2-0.2H11c0.1,0,0.2,0.1,0.3,0.2
		l0.4,0.6C11.8,39.9,11.8,40,12,40 M10.1,39.1l0.5,0.7c0.1,0.1,0.2,0.2,0.3,0.2h-0.5c-0.2,0-0.3-0.1-0.4-0.2l-0.4-0.6
		c-0.2-0.2-0.2-0.3-0.4-0.4h0.5C9.8,38.9,10,39,10.1,39.1 M8.9,39.3l0.4,0.6c0.1,0,0.1,0.1,0.2,0.1H9.2c-0.2,0-0.3-0.1-0.4-0.2
		l-0.4-0.5c-0.1-0.1-0.1-0.1-0.2-0.2h0.4C8.7,39.1,8.8,39.1,8.9,39.3 M8.6,41.1H8.4c-0.2,0-0.5-0.3-0.5-0.6c0.1,0.2,0.3,0.2,0.5,0.2
		h1c0.1,0,0.2,0.1,0.2,0.2c0,0.1,0,0.2,0,0.3c0-0.1-0.1-0.1-0.2-0.1H9.2c0.1,0.1,0.1,0.2,0.1,0.3c0,0.2-0.2,0.4-0.4,0.4
		s-0.4-0.2-0.4-0.4C8.5,41.3,8.5,41.2,8.6,41.1 M7.3,46.1l0.1-0.2v-0.1v-0.1l0.3,0.6v0.1v0.1v0.1c-0.2,0.4-0.4,1.2-0.2,1.6
		c-0.5-0.2-0.7-0.6-0.6-1c-1-0.9-1.2-1.8-0.5-2.6l0.4-0.4l0.1-0.1c0,0,0-0.1,0-0.2L7,44.5c0,0.1,0,0.1,0,0.2c0,0,0,0.1-0.1,0.1
		l-0.1,0.1c-0.4,0.4-0.3,1,0.3,1.5C7.2,46.3,7.2,46.2,7.3,46.1 M31,48.7c0-0.1,0.1-0.2,0.1-0.3c0-0.4-0.3-0.8-0.8-0.8h-0.8
		c-0.1,0-0.1,0-0.1,0l-0.1-0.1l-0.4-0.6L29,47h0.1h1c0.1,0,0.1,0,0.1,0l0.1,0.1l-0.5-0.7l-0.1-0.1h-0.1h-1c-0.1,0-0.1,0-0.1,0
		l-0.1-0.1L28,45.5l0.1,0.1h0.1h1c0.1,0,0.1,0,0.1,0l0.1,0.1L29,45.1L28.9,45h-0.1H28c-0.1,0-0.1,0-0.1,0l-0.1-0.1L27.1,44
		c1.1-0.1,2-0.7,2.2-1.6c0.2-1.1-0.8-2.1-2.4-2.4c-0.3,0-0.5-0.3-0.5-0.5s0.1-0.4,0.4-0.5c-0.2-0.1-0.4-0.1-0.5-0.1
		c-0.7,0-1.2,0.5-1.2,1.1c0,0.1,0,0.2,0.1,0.3c-0.8,0.3-1.5,0.9-2,1.6c0.6-0.2,1.2-0.2,1.8-0.2v-0.1c0-0.5,0.4-0.8,0.8-0.8l0,0
		c-0.3,0.1-0.5,0.4-0.5,0.6c0,0.2,0.2,0.4,0.4,0.4c0.1,0,0.2,0,0.3-0.1c0-0.1,0-0.1,0-0.2c0-0.3,0.3-0.6,0.6-0.6h0.1
		c-0.2,0.1-0.4,0.3-0.4,0.6c0,0.4,0.3,0.7,0.7,0.7h0.1v-0.1c0-0.3,0.2-0.5,0.5-0.5s0.5,0.2,0.5,0.5c0,0.6-0.6,0.6-1.1,0.5
		c-1.3-0.4-2.6-0.6-3.8-0.4c-1.6,0.2-4.1,1.3-6.9,1.2c-0.6,0-1.3-0.1-1.9-0.3c0.1,0.1,0.1,0.2,0.2,0.2c0.3,0.4,0.4,0.8,0.1,1.4
		c0-0.6-0.5-1.1-0.9-1.4c-0.2-0.1-0.2-0.2-0.2-0.4l0.1-0.7c0,0.1,0,0.1,0,0.2c0,0,0,0.1,0.1,0.1l0.3,0.3c0.1-0.7-0.1-1.4-0.5-2
		c0.2-0.5,0.2-1,0.1-1.5c0,0.4-0.2,0.5-0.4,0.7c-0.3,0.2-0.4,0.6-0.2,0.8c-0.3-0.1-0.7-0.7-0.4-1c0.2-0.3,0.9-0.2,1-0.7
		c-0.4-0.1-0.9,0-1,0c-0.3-0.3-0.6-0.4-1-0.4c-0.3-0.3-0.8-0.4-1.3-0.4c-0.5-0.1-0.9,0.1-1.3,0.4c-0.4,0-0.8,0.1-1,0.4
		c-0.1,0-0.6-0.1-1,0c0.1,0.6,0.7,0.4,1,0.7c0.2,0.3-0.2,0.8-0.4,1c0.2-0.2,0.1-0.6-0.2-0.8c-0.2-0.1-0.4-0.3-0.4-0.7
		c-0.1,0.5-0.1,1,0.1,1.5c-0.4,0.6-0.6,1.3-0.5,2L7,42.5l0.1-0.1c0,0,0-0.1,0-0.2l0.1,0.7c0,0.2,0,0.3-0.2,0.4
		c-0.4,0.3-0.9,0.8-0.9,1.4c-0.2-0.5-0.1-1,0.1-1.4c-0.8-0.4-1.4-1.1-1.5-1.3c-0.2-0.3-0.2-0.6,0-1c0.4-0.6,0.5-1.2,0-1.7v-0.1
		c0-0.4-0.3-0.7-0.7-0.8c0.1,0.1,0.1,0.2,0.1,0.4S4,39.1,4,39.2c0.1,0.1,0.1,0.2,0.1,0.4S4,39.9,3.9,40c0-0.1,0-0.1,0-0.2
		c0-0.4-0.3-0.8-0.6-0.9c-0.1-0.3-0.3-0.5-0.6-0.5c-0.2,0-0.3,0.1-0.5,0.2c0.2,0,0.4,0.2,0.5,0.5c-0.1,0.1-0.2,0.2-0.3,0.4l0,0
		c0.4,0,0.8,0.3,0.8,0.8v0.1c0-0.2-0.1-0.3-0.2-0.5c-0.2-0.2-0.6-0.3-0.9-0.2c-0.1-0.1-0.3-0.2-0.5-0.2s-0.4,0.1-0.5,0.3
		c0.2,0,0.4,0.1,0.6,0.3c-0.3,0.4-0.3,1,0,1.3c0.2,0.2,0.6,0.3,0.9,0.2c0,0,0,0,0.1,0s0.2,0.1,0.2,0.2c0,0.1-0.1,0.2-0.2,0.2H2.6
		c-0.8,0-0.9,0-1,0c-0.2,0-0.4,0.2-0.4,0.4c0,0,0,0,0,0.1H1.1c-0.1,0-0.2,0-0.3-0.1c0,0,0,0.1,0,0.2c0,0.3,0.2,0.6,0.6,0.6
		c0.1,0.3,0.5,0.6,0.9,0.6c0.2,0,0.4-0.1,0.5-0.2c0.1,0,0.1-0.1,0.2-0.1c0.2,0,0.4,0.2,0.4,0.4s-0.1,0.4-0.3,0.4l-0.3,0.1
		c-0.1,0-0.1,0-0.2,0c0,0-0.1,0-0.1-0.1L3.2,45l0.1,0.1c0,0,0.1,0,0.2,0L4,44.9c0.1,0,0.1,0,0.2,0c0,0,0.1,0,0.1,0.1l0.5,0.5
		l-0.1-0.1c0,0-0.1,0-0.2,0l-0.6,0.1c-0.1,0-0.1,0-0.2,0c0,0-0.1,0-0.1-0.1L4.3,46l0.1,0.1c0,0,0.1,0,0.2,0L5.2,46
		c0.1,0,0.1,0,0.2,0c0,0,0.1,0,0.1,0.1L6,46.6l-0.1-0.1c0,0-0.1,0-0.2,0l-0.6,0.1c-0.1,0-0.1,0-0.2,0c0,0-0.1,0-0.1-0.1l0.7,0.6
		l0.1,0.1c0,0,0.1,0,0.2,0L6.5,47c-0.7,0.4-1.5,0.8-2.2,1.4c-0.5,0.3-1,0.4-1.6,0.1c-0.3-0.1-0.7-0.1-0.9-0.1
		c-0.3,0-0.5,0.2-0.7,0.5c0.1,0,0.2-0.1,0.4-0.1c0.3,0,0.5,0.1,0.7,0.3c-0.3-0.1-0.6-0.1-0.9,0c-0.6,0.2-0.9,0.8-0.8,1.3
		C0.2,50.5,0,50.7,0,50.9s0.1,0.3,0.2,0.4c0.1-0.3,0.3-0.5,0.6-0.5C0.9,51,1,51,1.1,51.1c0-0.1,0.1-0.1,0.2-0.2v-0.1
		c0-0.5,0.4-1,1-1h0.1c-0.4,0.1-0.8,0.5-0.8,1c0,0.1,0,0.1,0,0.2c-0.2,0.1-0.4,0.3-0.4,0.6c0,0.2,0.1,0.3,0.1,0.4
		c0.2-0.3,0.5-0.6,0.9-0.6c0.1,0,0.3,0.1,0.5,0.1c0.1,0,0.2,0,0.3,0c-0.1-0.1-0.1-0.3-0.1-0.4c0-0.4,0.3-0.8,0.8-0.8h0.1
		c-0.4,0.2-0.6,0.5-0.6,0.8c0.1,0.2,0.3,0.4,0.5,0.4c0,0.2,0,0.3-0.1,0.5c0.4,0,0.7-0.2,0.8-0.5C4.8,51.3,5.1,51,5,50.7
		c0-0.1-0.1-0.2-0.2-0.3l0,0C4.8,50.2,5,50,5.2,50c0.2,0,0.4,0.2,0.4,0.4c0,0.1,0,0.2-0.1,0.3h0.8c0.1,0,0.1,0,0.1,0l0.1-0.1L7,49.8
		c0,0,0-0.1,0.1-0.1h0.1H8H7.9c0,0-0.1,0-0.1,0.1l-0.5,0.8l-0.1,0.1H7.1h1c0.1,0,0.1,0,0.1,0l0.1-0.1l0.6-0.9
		c-0.4-0.2-0.6-0.6-0.6-1.2c0-0.3,0.2-0.7,0.2-1v-0.1c0-0.1,0-0.1,0-0.2c0,0,0-0.1-0.1-0.1L9,47.3l0.1,0.1c0,0,0,0.1,0,0.2v0.1
		c0,0.2-0.3,0.7,0.2,1.1l0.1,0.1l0.4,0.2v-1.3h0.5v1.4c0,0.1,0,0.1,0,0.1l0.1,0.1l0.5,0.3H11c0.1,0,0.1,0,0.2,0l0.9-0.4
		c0,0-0.1,0-0.2,0c-0.1,0-0.1,0-0.1,0l-1-0.6c0.5-0.4,0.2-0.9,0.2-1.1v-0.1c0-0.1,0-0.1,0-0.2c0,0,0-0.1,0.1-0.1l0.5-0.5l-0.1,0.1
		c0,0,0,0.1,0,0.2v0.1c0,0.4,0.4,1,0.1,1.4l0.9,0.6h0.1c0.1,0,0.1,0,0.2,0l0.9-0.4h-0.1c-0.1,0-0.1,0-0.1,0l-1-0.6
		c0.2-0.4,0-1.2-0.2-1.6v-0.1v-0.1c0-0.1,0-0.1,0-0.1l0.3-0.6v0.1v0.1l0.1,0.2c0.1,0.1,0.1,0.2,0.2,0.3c0.6-0.5,0.7-1,0.3-1.4
		l-0.1-0.1L13,44.7c0,0,0-0.1,0-0.2l0.2-0.7c0,0.1,0,0.1,0,0.2c0,0,0,0.1,0.1,0.1l0.4,0.4c0.7,0.8,0.3,1.8-0.5,2.5
		c0,0.1,0.1,0.4,0.1,0.6l1.1,0.7h0.1c0,0,0.1,0,0.2,0l0.8-0.3h-0.1c-0.2,0-0.4-0.2-0.4-0.4s0.1-0.3,0.3-0.4c3-0.9,5.8-3.3,7.6-3.3
		c0.9,0,1.6,0.5,1.6,1.2c0,0.1,0,0.2-0.1,0.3c-0.4,1.1,0.2,2.1,1.7,2.5c0.2,0.1,0.4,0.3,0.4,0.5c0,0.1,0,0.1,0,0.1h0.1
		c0.4,0,0.8-0.2,1-0.5c0.3,0,0.5,0,0.8,0c0,0.1,0.1,0.1,0.1,0.2c0.1,0.3,0,0.6-0.2,0.7c-0.3,0.1-0.8,0-1.1,0c-0.6,0-1.1,0.5-1.1,1.1
		v0.1c-0.2,0.1-0.3,0.3-0.3,0.6c0,0.1,0,0.2,0.1,0.3c0.2-0.2,0.4-0.4,0.7-0.5c0-0.5,0.5-1,1-1c0.1,0,0.2,0,0.2,0
		c-0.6,0.1-1,0.5-1,1.1v0.1c-0.1,0.1-0.1,0.2-0.1,0.3s0.1,0.3,0.2,0.4c0.1-0.2,0.4-0.4,0.7-0.6c0.2-0.1,0.4-0.1,0.6-0.1
		c0-0.1,0-0.2,0-0.3c0-0.5,0.4-0.9,0.9-0.9h0.1c-0.3,0-0.6,0.3-0.6,0.7c0,0.2,0.1,0.4,0.3,0.6l0,0c0,0.2,0.1,0.4,0.2,0.5
		c0.1-0.3,0.3-0.6,0.7-0.6c0.3,0,0.5,0,0.7-0.1c0.3-0.1,0.5-0.4,0.5-0.7c0-0.2-0.1-0.4-0.3-0.6c0.1-0.4,0.1-1-0.1-1.5h0.1
		C30.7,48.4,30.9,48.5,31,48.7 M15.6,55c0-0.1,0-0.2,0-0.2c0-0.2,0.2-0.3,0.3-0.3c0.2,0,0.4,0.2,0.4,0.4c0,0.1,0,0.2-0.1,0.2
		c0.1,0,0.1,0,0.2,0c0.2,0,0.4,0,0.5-0.1c0.3-0.1,0.4-0.3,0.4-0.6s-0.3-0.6-0.6-0.6c0,0,0,0-0.1,0c0.1,0,0.2-0.1,0.3-0.1
		c0.4,0,0.7,0.3,0.7,0.7c0,0,0,0,0,0.1c1,0,2.2-1,2.4-1.3c-0.3,0.1-0.7,0.1-1,0.1c-0.4,0-0.8,0-1.2-0.1c-0.5-0.1-1-0.2-1.4-0.2
		c-1.2,0-2.3,0.8-2.3,1.8c0,0.8,0.7,1.6,1.6,1.7c2.2,0.4,4.7-0.8,6.9-1.3c0.5-0.5,1.2-1,1.8-1.3c0-0.1,0-0.2,0-0.2l0,0
		c-2.9,0.5-5.4,1.9-7.7,1.9C16.2,55.7,15.7,55.4,15.6,55 M15.6,49.8h0.1c-0.4,0.1-0.8,0.4-0.9,0.9c-0.3,0.1-0.5,0.3-0.5,0.6
		c0,0.1,0,0.3,0.1,0.4c0.2-0.3,0.5-0.4,0.9-0.5c0.1-0.5,0.5-0.9,1-0.9c-0.4,0.2-0.8,0.6-0.8,1.1c0,0.2,0,0.4,0.1,0.5
		c0.1-0.3,0.3-0.5,0.6-0.5c0.1,0,0.2,0,0.2,0c0.1,0,0.2,0.1,0.3,0.1c0.5,0,0.9-0.4,0.9-0.9c0-0.1,0-0.2,0-0.3
		c0.2,0.1,0.4,0.3,0.4,0.5c0,0.1,0,0.2-0.1,0.3c0.1,0,0.1,0,0.2,0c0.6,0,1.1-0.4,1.1-1c0.3-0.2,0.5-0.4,0.8-0.6l0.2,0.8
		c0,0.1,0,0.1,0,0.2c0,0,0,0.1-0.1,0.1l0.6-0.7l0.1-0.1c0,0,0-0.1,0-0.2l-0.2-0.9c0-0.1,0-0.1,0-0.2c0,0,0-0.1,0.1-0.1l0.5-0.5
		L21.1,48c0,0,0,0.1,0,0.2l0.2,0.9c0,0.1,0,0.1,0,0.2c0,0,0,0.1-0.1,0.1l0.6-0.6l0.1-0.1c0,0,0-0.1,0-0.2l-0.2-0.9
		c0-0.1,0-0.1,0-0.2c0,0,0-0.1,0.1-0.1l0.5-0.5l-0.1,0.1c0,0,0,0.1,0,0.2l0.2,0.9c0,0.1,0,0.1,0,0.2c0,0,0,0.1-0.1,0.1l0.6-0.6
		l0.1-0.1c0,0,0-0.1,0-0.2l0-0.5c-0.1-0.5,0.4-1.1,0.8-1.2c0.1-0.1,0.1-0.2,0.1-0.3c0-0.5-0.6-0.9-1.4-0.9c-0.4,0-0.7,0.1-1,0.3
		c0.1,0.3,0.1,0.6-0.9,0.7c-0.8,0.1-1.5,0.3-2,0.7c-0.8,0.7-0.7,1.6-1.2,1.9c0.2,0,0.5,0,0.7,0s0.3-0.1,0.5-0.2
		c-0.1,0.2-0.3,0.3-0.5,0.4c-0.1,0.3-0.4,0.6-0.8,0.8c-0.2,0.1-0.5,0.1-0.7,0l-0.9-0.3c-0.1,0-0.2,0-0.4,0c-0.7,0-1.3,0.5-1.3,1.2
		c-0.3,0-0.6,0.3-0.6,0.7c0,0.1,0,0.2,0.1,0.3c0.2-0.2,0.5-0.4,0.8-0.5C14.6,50.1,15.1,49.8,15.6,49.8 M10.6,58.3
		c0.1-0.3,0.1-0.6,0.1-0.9l-0.3,0.3c-0.1-0.1-0.1-0.2-0.1-0.3s-0.1-0.1-0.1-0.1s0,0-0.1,0H10H9.9H9.8c0,0-0.1,0-0.1,0.1
		s-0.1,0.1-0.1,0.3l-0.3-0.3c0,0.3,0,0.6,0.1,0.9c0.2,0,0.4-0.1,0.6-0.1C10.2,58.2,10.4,58.2,10.6,58.3 M10.7,59.1
		c0-0.3-0.4-0.5-0.7-0.5c-0.4,0-0.8,0.1-0.7,0.5c0,0.4,0.4,0.2,0.7,0.2S10.7,59.5,10.7,59.1 M11.8,56.6c-0.1,0-0.1,0.1-0.1,0.1
		c0,0.4-0.2,0.6-0.5,0.7c0,0.4-0.1,0.7-0.2,1.1c0.3,0.7,0.1,1.1-0.2,1.2c-0.2,0.1-0.6,0-0.8,0c-0.3,0-0.6,0.1-0.8,0
		c-0.3-0.1-0.5-0.6-0.2-1.2c-0.1-0.4-0.2-0.7-0.2-1.1c-0.3-0.1-0.4-0.3-0.5-0.7c0-0.1,0-0.1-0.1-0.1c-1-0.3-1.1-1.6-0.6-1.9
		c0,0.6-0.1,1.4,1.1,1.5C8.7,56.8,9,57,9.3,57c0.2,0,0.4-0.1,0.5-0.1c0.2-0.1,0.1-0.3,0-0.3c-0.2-0.1-0.2-0.3-0.2-0.5
		c0,0,0-0.1,0.1-0.1H10h0.4c0,0,0,0,0.1,0.1c0,0.2,0,0.4-0.2,0.5c-0.1,0.1-0.2,0.2,0,0.3c0.1,0,0.2,0.1,0.5,0.1s0.6-0.2,0.6-0.9
		c1.2-0.1,1.1-0.9,1.1-1.5C12.9,55,12.8,56.3,11.8,56.6 M12.1,54.3c0,0.3-0.2,0.6-0.5,0.6h-0.2c0.1,0.1,0.1,0.2,0.1,0.3
		c0,0.2-0.2,0.4-0.4,0.4s-0.4-0.2-0.4-0.4c0-0.1,0-0.2,0.1-0.3h-0.2c-0.1,0-0.1,0-0.2,0.1c0-0.1,0-0.3,0-0.3c0-0.1,0.1-0.2,0.2-0.2
		h1C11.8,54.6,12,54.5,12.1,54.3 M12,53.9h-0.4c-0.2,0-0.3-0.1-0.4-0.2l-0.4-0.5c-0.1-0.1-0.1-0.1-0.2-0.2H11c0.1,0,0.2,0.1,0.3,0.2
		l0.4,0.6C11.8,53.8,11.8,53.8,12,53.9 M10.1,53l0.5,0.7c0.1,0.1,0.2,0.2,0.3,0.2h-0.5c-0.2,0-0.3-0.1-0.4-0.2l-0.4-0.6
		c-0.2-0.2-0.2-0.3-0.4-0.4h0.5C9.8,52.7,10,52.8,10.1,53 M8.9,53.1l0.4,0.6c0.1,0.1,0.1,0.2,0.2,0.2H9.2c-0.2,0-0.3-0.1-0.4-0.2
		l-0.4-0.5C8.3,53,8.2,53,8.1,52.9h0.4C8.7,52.9,8.8,53,8.9,53.1 M8.6,55H8.4c-0.2,0-0.5-0.3-0.5-0.6c0.1,0.2,0.3,0.2,0.5,0.2h1
		c0.1,0,0.2,0.1,0.2,0.2c0,0.1,0,0.2,0,0.3C9.6,55,9.5,55,9.4,55H9.2c0.1,0.1,0.1,0.2,0.1,0.3c0,0.2-0.2,0.4-0.4,0.4
		s-0.4-0.2-0.4-0.4C8.5,55.1,8.5,55,8.6,55 M7.3,59.9l0.1-0.2v-0.1v-0.1L7.8,60v0.1c0,0.1,0,0.1,0,0.1v0.1c-0.2,0.4-0.4,1.2-0.2,1.6
		c-0.5-0.2-0.7-0.6-0.6-1c-1-0.9-1.2-1.8-0.5-2.6L6.8,58l0.1-0.1c0,0,0-0.1,0-0.2L7,58.4c0,0.1,0,0.1,0,0.2c0,0,0,0.1-0.1,0.1
		l-0.1,0.1c-0.4,0.4-0.3,1,0.3,1.5C7.2,60.1,7.2,60.1,7.3,59.9 M31,62.5c0-0.1,0.1-0.2,0.1-0.3c0-0.4-0.3-0.8-0.8-0.8h-0.8
		c-0.1,0-0.1,0-0.1,0l-0.1-0.1l-0.4-0.6l0.1,0.1h0.1h1c0.1,0,0.1,0,0.1,0l0.1,0.1l-0.5-0.7l-0.1-0.1h-0.1h-1c-0.1,0-0.1,0-0.1,0
		L28.4,60L28,59.3l0.1,0.1h0.1h1c0.1,0,0.1,0,0.1,0l0.1,0.1L29,58.9l-0.1-0.1h-0.1H28c-0.1,0-0.1,0-0.1,0l-0.1-0.1l-0.6-0.8
		c1.1-0.1,2-0.7,2.2-1.6c0.2-1.1-0.8-2.1-2.4-2.4c-0.3,0-0.5-0.3-0.5-0.5s0.1-0.4,0.4-0.5c-0.2-0.1-0.4-0.1-0.5-0.1
		c-0.7,0-1.2,0.5-1.2,1.1c0,0.1,0,0.2,0.1,0.3c-0.8,0.3-1.5,0.9-2,1.6c0.6-0.2,1.2-0.2,1.8-0.2v-0.1c0-0.5,0.4-0.8,0.8-0.8l0,0
		c-0.3,0.1-0.5,0.4-0.5,0.6c0,0.2,0.2,0.4,0.4,0.4c0.1,0,0.2,0,0.3-0.1c0-0.1,0-0.1,0-0.2c0-0.3,0.3-0.6,0.6-0.6h0.1
		c-0.2,0.1-0.4,0.3-0.4,0.6c0,0.4,0.3,0.7,0.7,0.7h0.1V56c0-0.3,0.2-0.5,0.5-0.5s0.5,0.2,0.5,0.5c0,0.6-0.6,0.6-1.1,0.5
		c-1.3-0.4-2.6-0.6-3.8-0.4c-1.6,0.2-4.1,1.3-6.9,1.2c-0.6,0-1.3-0.1-1.9-0.3c0.1,0.1,0.1,0.2,0.2,0.2c0.3,0.4,0.4,0.8,0.1,1.4
		c0-0.6-0.5-1.1-0.9-1.4c-0.2-0.1-0.2-0.2-0.2-0.4l0.1-0.7c0,0.1,0,0.1,0,0.2c0,0,0,0.1,0.1,0.1l0.3,0.3c0.1-0.7-0.1-1.4-0.5-2
		c0.2-0.5,0.2-1,0.1-1.5c0,0.4-0.2,0.5-0.4,0.7c-0.3,0.2-0.4,0.6-0.2,0.8c-0.3-0.1-0.7-0.7-0.4-1c0.2-0.3,0.9-0.2,1-0.7
		c-0.4-0.1-0.9,0-1,0c-0.3-0.3-0.6-0.4-1-0.4c-0.3-0.3-0.8-0.4-1.3-0.4c-0.5-0.1-0.9,0.1-1.3,0.4c-0.4,0-0.8,0.1-1,0.4
		c-0.1,0-0.6-0.1-1,0c0.1,0.6,0.7,0.4,1,0.7c0.2,0.3-0.2,0.8-0.4,1c0.2-0.2,0.1-0.6-0.2-0.8c-0.2-0.1-0.4-0.3-0.4-0.7
		c-0.1,0.5-0.1,1,0.1,1.5c-0.4,0.6-0.6,1.3-0.5,2l0.3-0.3l0.1-0.1c0,0,0-0.1,0-0.2l0.1,0.7c0,0.2,0,0.3-0.2,0.4
		c-0.4,0.3-0.9,0.8-0.9,1.4c-0.2-0.5-0.1-1,0.1-1.4c-0.8-0.4-1.4-1.1-1.5-1.3c-0.2-0.3-0.2-0.6,0-1c0.4-0.6,0.5-1.2,0-1.7v-0.1
		c0-0.4-0.3-0.7-0.7-0.8c0.1,0.1,0.1,0.2,0.1,0.4S4.1,53,4.1,53.1c0.1,0.1,0.1,0.2,0.1,0.4S4.1,53.8,4,53.9c0-0.1,0-0.1,0-0.2
		c0-0.4-0.3-0.8-0.6-0.9c-0.1-0.3-0.3-0.5-0.6-0.5c-0.2,0-0.3,0.1-0.5,0.2c0.2,0,0.4,0.2,0.5,0.5c-0.1,0.1-0.2,0.2-0.3,0.4l0,0
		c0.4,0,0.8,0.3,0.8,0.8v0.1c0-0.2-0.1-0.3-0.2-0.5c-0.2-0.2-0.6-0.3-0.9-0.2c-0.1-0.1-0.3-0.2-0.5-0.2s-0.4,0.1-0.5,0.3
		c0.2,0,0.4,0.1,0.6,0.3c-0.3,0.4-0.3,1,0,1.3c0.2,0.2,0.6,0.3,0.9,0.2c0,0,0,0,0.1,0S3,55.6,3,55.7c0,0.1-0.1,0.2-0.2,0.2H2.7
		c-0.1-0.1-0.2-0.1-0.3-0.1C2.2,55.8,2,56,2,56.2c0,0,0,0,0,0.1H1.9c-0.1,0-0.2,0-0.3-0.1c0,0,0,0.1,0,0.2c0,0.3,0.2,0.6,0.6,0.6
		c0.1,0.3,0.5,0.6,0.9,0.6c0.2,0,0.4-0.1,0.5-0.2c0.1,0,0.1-0.1,0.2-0.1c0.2,0,0.4,0.2,0.4,0.4s-0.1,0.4-0.3,0.4l-0.3,0.1
		c-0.1,0-0.1,0-0.2,0c0,0-0.1,0-0.1-0.1L4,58.8l0.1,0.1c0,0,0.1,0,0.2,0L4,58.7c0.1,0,0.1,0,0.2,0c0,0,0.1,0,0.1,0.1l0.5,0.5
		l-0.1-0.1c0,0-0.1,0-0.2,0l-0.6,0.1c-0.1,0-0.1,0-0.2,0c0,0-0.1,0-0.1-0.1l0.7,0.6l0.1,0.1c0,0,0.1,0,0.2,0l0.6-0.1
		c0.1,0,0.1,0,0.2,0c0,0,0.1,0,0.1,0.1L6,60.4l-0.1-0.1c0,0-0.1,0-0.2,0l-0.6,0.1c-0.1,0-0.1,0-0.2,0c0,0-0.1,0-0.1-0.1L5.4,61
		l0.1,0.1c0,0,0.1,0,0.2,0l0.7-0.2c-0.7,0.4-1.5,0.8-2.2,1.4c-0.5,0.3-1,0.4-1.6,0.1c-0.3-0.1-0.7-0.1-0.9-0.1
		c-0.3,0-0.5,0.2-0.7,0.5c0.1,0,0.2-0.1,0.4-0.1c0.3,0,0.5,0.1,0.7,0.3c-0.3-0.1-0.6-0.1-0.9,0c-0.6,0.2-0.9,0.8-0.8,1.3
		c-0.2,0-0.4,0.2-0.4,0.5c0,0.2,0.1,0.3,0.2,0.4c0.1-0.3,0.3-0.5,0.6-0.5c0.1,0.1,0.3,0.1,0.4,0.2c0-0.1,0.1-0.1,0.2-0.2v-0.1
		c0-0.5,0.4-1,1-1h0.1c-0.4,0.1-0.8,0.5-0.8,1c0,0.1,0,0.1,0,0.2c-0.2,0.1-0.4,0.3-0.4,0.6c0,0.2,0.1,0.3,0.1,0.4
		c0.2-0.3,0.5-0.6,0.9-0.6c0.1,0,0.3,0.1,0.5,0.1c0.1,0,0.2,0,0.3,0C3,65.2,3,65,3,64.9c0-0.4,0.3-0.8,0.8-0.8h0.1
		c-0.4,0.2-0.6,0.5-0.6,0.8c0.1,0.2,0.3,0.4,0.5,0.4c0,0.2,0,0.3-0.1,0.5c0.4,0,0.7-0.2,0.8-0.5c0.3-0.3,0.6-0.7,0.5-1
		c0-0.1-0.1-0.2-0.2-0.3l0,0c0-0.2,0.2-0.4,0.4-0.4c0.2,0,0.4,0.2,0.4,0.4c0,0.1,0,0.2-0.1,0.3h0.8c0.1,0,0.1,0,0.1,0l0.1-0.1
		L7,63.4c0,0,0-0.1,0.1-0.1h0.1H8H7.9c0,0-0.1,0-0.1,0.1l-0.5,0.8l-0.1,0.1H7.1h1c0.1,0,0.1,0,0.1,0l0.1-0.1l0.6-0.9
		C8.5,63,8.3,62.6,8.3,62c0-0.3,0.2-0.7,0.2-1v-0.1c0-0.1,0-0.1,0-0.2c0,0,0-0.1-0.1-0.1L9,61.2l0.1,0.1c0,0,0,0.1,0,0.2v0.1
		c0,0.2-0.3,0.7,0.2,1.1l0.1,0.1L9.8,63v-1.3h0.5v1.4c0,0.1,0,0.1,0,0.1l0.1,0.1l0.5,0.3H11c0.1,0,0.1,0,0.2,0l0.9-0.4
		c0,0-0.1,0-0.2,0c-0.1,0-0.1,0-0.1,0l-1-0.6c0.5-0.4,0.2-0.9,0.2-1.1v-0.1c0-0.1,0-0.1,0-0.2c0,0,0-0.1,0.1-0.1l0.5-0.5l-0.1,0.1
		c0,0,0,0.1,0,0.2V61c0,0.4,0.4,1,0.1,1.4l0.9,0.6h0.1c0.1,0,0.1,0,0.2,0l0.9-0.4h-0.1c-0.1,0-0.1,0-0.1,0l-1-0.6
		c0.2-0.4,0-1.2-0.2-1.6v-0.1v-0.1v-0.1l0.3-0.6v0.1v0.1l0.1,0.2c0.1,0.1,0.1,0.2,0.2,0.3c0.6-0.5,0.7-1,0.3-1.4l-0.1-0.1L13,58.6
		c0,0,0-0.1,0-0.2l0.2-0.7c0,0.1,0,0.1,0,0.2c0,0,0,0.1,0.1,0.1l0.4,0.4c0.7,0.8,0.3,1.8-0.5,2.5c0,0.1,0.1,0.4,0.1,0.6l1.1,0.7h0.1
		c0,0,0.1,0,0.2,0l0.8-0.3h-0.1c-0.2,0-0.4-0.2-0.4-0.4s0.1-0.3,0.3-0.4c3-0.9,5.8-3.3,7.6-3.3c0.9,0,1.6,0.5,1.6,1.2
		c0,0.1,0,0.2-0.1,0.3c-0.4,1.1,0.2,2.1,1.7,2.5c0.2,0.1,0.4,0.3,0.4,0.5c0,0.1,0,0.1,0,0.1h0.1c0.4,0,0.8-0.2,1-0.5
		c0.3,0,0.5,0,0.8,0c0,0.1,0.1,0.1,0.1,0.2c0.1,0.3,0,0.6-0.2,0.7c-0.3,0.1-0.8,0-1.1,0c-0.6,0-1.1,0.5-1.1,1.1V64
		c-0.2,0.1-0.3,0.3-0.3,0.6c0,0.1,0,0.2,0.1,0.3c0.2-0.2,0.4-0.4,0.7-0.5c0-0.5,0.5-1,1-1c0.1,0,0.2,0,0.2,0c-0.6,0.1-1,0.5-1,1.1
		v0.1c-0.1,0.1-0.1,0.2-0.1,0.3c0,0.1,0.1,0.3,0.2,0.4c0.1-0.2,0.4-0.4,0.7-0.6c0.2-0.1,0.4-0.1,0.6-0.1c0-0.1,0-0.2,0-0.3
		c0-0.5,0.4-0.9,0.9-0.9h0.1c-0.3,0-0.6,0.3-0.6,0.7c0,0.2,0.1,0.4,0.3,0.6l0,0c0,0.2,0.1,0.4,0.2,0.5c0.1-0.3,0.3-0.6,0.7-0.6
		c0.3,0,0.5,0,0.7-0.1c0.3-0.1,0.5-0.4,0.5-0.7c0-0.2-0.1-0.4-0.3-0.6c0.1-0.4,0.1-1-0.1-1.5h0.1C30.7,62.2,30.9,62.4,31,62.5
		 M41.9,14h-1v62h1V14z"/>
	<path class="st0" d="M155.5,42.5H154v6.6h1.1v-4.4l0,0l1.4,4.4h0.8l1.4-4.3l0,0v4.3h1.2v-6.6h-1.4l-1.5,5.2l0,0L155.5,42.5z
		 M151.2,42.5v4.3c0,0.5-0.1,0.8-0.3,1.1s-0.5,0.4-0.9,0.4s-0.7-0.1-0.9-0.4c-0.2-0.3-0.4-0.6-0.4-1.1v-4.3h-1.1v4.3
		c0,0.7,0.2,1.3,0.7,1.7s1,0.6,1.8,0.6c0.7,0,1.3-0.2,1.8-0.6c0.4-0.4,0.7-1,0.7-1.7v-4.3H151.2z M145.8,42.5h-1.1v6.6h1.1V42.5z
		 M139.6,43.4h1.1c0.3,0,0.6,0.1,0.7,0.3c0.2,0.2,0.2,0.5,0.2,0.8s-0.1,0.6-0.2,0.8c-0.2,0.2-0.4,0.3-0.8,0.3h-1.1v-2.2H139.6z
		 M140.7,46.4c0.3,0,0.5,0.1,0.7,0.3s0.2,0.5,0.2,0.8v0.6c0,0.2,0,0.4,0,0.6c0,0.2,0,0.3,0.1,0.4h1.2V49c0-0.1-0.1-0.2-0.1-0.4
		s0-0.3,0-0.5v-0.6c0-0.4-0.1-0.7-0.2-1c-0.2-0.3-0.4-0.5-0.8-0.6c0.3-0.1,0.6-0.3,0.7-0.6c0.2-0.3,0.2-0.6,0.2-0.9
		c0-0.6-0.2-1.1-0.6-1.4c-0.4-0.3-0.9-0.5-1.6-0.5h-2.2v6.6h1.1v-2.7C139.4,46.4,140.7,46.4,140.7,46.4z M136.5,45.3H134v-1.9h2.8
		v-0.9h-4v6.6h4v-0.9H134v-2.1h2.4v-0.8H136.5z M130.9,45.3h-2.4v-1.9h2.8v-0.9h-4v6.6h4v-0.9h-2.8v-2.1h2.4V45.3z M126.2,42.5h-4.5
		v0.9h1.7v5.7h1.1v-5.7h1.7C126.2,43.4,126.2,42.5,126.2,42.5z M119.7,48.1c-0.2,0.2-0.5,0.3-0.9,0.3s-0.6-0.1-0.9-0.3
		c-0.2-0.2-0.3-0.5-0.3-0.9h-1.1l0,0c0,0.7,0.2,1.2,0.6,1.5s1,0.5,1.7,0.5s1.3-0.2,1.7-0.5c0.4-0.3,0.6-0.8,0.6-1.3
		c0-0.6-0.2-1-0.5-1.3s-0.8-0.5-1.5-0.7c-0.5-0.2-0.9-0.3-1-0.5c-0.2-0.2-0.2-0.4-0.2-0.7s0.1-0.5,0.3-0.7c0.2-0.2,0.4-0.3,0.8-0.3
		c0.3,0,0.6,0.1,0.8,0.3c0.2,0.2,0.3,0.5,0.3,0.8h1.1l0,0c0-0.6-0.2-1.1-0.6-1.5s-0.9-0.5-1.6-0.5s-1.2,0.2-1.6,0.5
		s-0.6,0.8-0.6,1.3c0,0.6,0.2,1,0.5,1.3s0.8,0.5,1.6,0.7c0.5,0.2,0.8,0.3,1,0.5s0.3,0.4,0.3,0.7C120,47.7,119.9,47.9,119.7,48.1
		 M115.1,42.5H114v6.6h1.1V42.5z M112,42.5h-1.2v4.6l0,0l-2.5-4.6h-1.1v6.6h1.1v-4.6l0,0l2.5,4.6h1.2V42.5z M105.4,42.5h-1.1v6.6
		h1.1V42.5z M98,42.5h-1.4v6.6h1.1v-4.4l0,0l1.4,4.4h0.8l1.4-4.3l0,0v4.3h1.2v-6.6h-1.4l-1.5,5.2l0,0L98,42.5z M94.8,42.5h-1.1v6.6
		h1.1V42.5z M88.8,43.4h1.1c0.3,0,0.6,0.1,0.7,0.3c0.2,0.2,0.2,0.5,0.2,0.8s-0.1,0.6-0.2,0.8c-0.2,0.2-0.4,0.3-0.8,0.3h-1.1v-2.2
		H88.8z M89.9,46.4c0.3,0,0.5,0.1,0.7,0.3s0.2,0.5,0.2,0.8v0.6c0,0.2,0,0.4,0,0.6c0,0.2,0,0.3,0.1,0.4h1.2V49c0-0.1-0.1-0.2-0.1-0.4
		s0-0.3,0-0.5v-0.6c0-0.4-0.1-0.7-0.2-1c-0.2-0.3-0.4-0.5-0.8-0.6c0.3-0.1,0.6-0.3,0.7-0.6c0.2-0.3,0.2-0.6,0.2-0.9
		c0-0.6-0.2-1.1-0.6-1.4c-0.4-0.3-0.9-0.5-1.6-0.5h-2.2v6.6h1.1v-2.7C88.6,46.4,89.9,46.4,89.9,46.4z M84.8,42.5v4.3
		c0,0.5-0.1,0.8-0.3,1.1c-0.2,0.3-0.5,0.4-0.9,0.4s-0.7-0.1-0.9-0.4c-0.2-0.3-0.4-0.6-0.4-1.1v-4.3h-1.1v4.3c0,0.7,0.2,1.3,0.7,1.7
		c0.4,0.4,1,0.6,1.8,0.6c0.7,0,1.3-0.2,1.8-0.6c0.4-0.4,0.7-1,0.7-1.7v-4.3H84.8z M78.4,42.5v4.3c0,0.5-0.1,0.8-0.3,1.1
		c-0.2,0.3-0.5,0.4-0.9,0.4s-0.7-0.1-0.9-0.4c-0.2-0.3-0.4-0.6-0.4-1.1v-4.3h-1.1v4.3c0,0.7,0.2,1.3,0.7,1.7s1,0.6,1.8,0.6
		c0.7,0,1.3-0.2,1.8-0.6c0.4-0.4,0.7-1,0.7-1.7v-4.3H78.4z M73.5,42.5H69v0.9h1.7v5.7h1.1v-5.7h1.7C73.5,43.4,73.5,42.5,73.5,42.5z
		 M65.9,42.5h-1.1v6.6h3.6v-0.9H66L65.9,42.5L65.9,42.5z M62,42.5v4.3c0,0.5-0.1,0.8-0.3,1.1s-0.5,0.4-0.9,0.4s-0.7-0.1-0.9-0.4
		c-0.2-0.3-0.4-0.6-0.4-1.1v-4.3h-1.1v4.3c0,0.7,0.2,1.3,0.7,1.7s1,0.6,1.8,0.6c0.7,0,1.3-0.2,1.8-0.6c0.4-0.4,0.7-1,0.7-1.7v-4.3
		H62z M55.9,49.1h1.4l-2.8-4.3l2.6-3.9h-1.4l-2.2,3.6h-0.7v-3.6h-1.2v8.3h1.2v-3.7h0.8L55.9,49.1z"/>
</g>
</svg>
