<?xml version="1.0" encoding="utf-8"?>
<!-- Generator: Adobe Illustrator 24.2.3, SVG Export Plug-In . SVG Version: 6.00 Build 0)  -->
<svg version="1.1" id="Layer_1" xmlns="http://www.w3.org/2000/svg" xmlns:xlink="http://www.w3.org/1999/xlink" x="0px" y="0px"
	 viewBox="0 0 200 150" style="enable-background:new 0 0 200 150;" xml:space="preserve">
<style type="text/css">
	.st0{fill:#FFFFFF;}
</style>
<g>
	<path class="st0" d="M170.3,87.1c-5.6-3.7-14-2.2-16.8-8.9l-3.6,2.1c-2.8,1.7-5.7,4.9-9.4,4.3c-1.4-0.2-2.1-2.1-2.2-3.4
		c-0.7-5.5,1.3-13.3,5.9-17c0.7-0.6,1.9,0.4,2.4,1.4c0,4.1-3.7,8.4-2.1,12.8c3.1-0.4,6.1-3.1,8.6-5.6c1.2-1.8,1.9-5,4.8-4.9
		c0.9,8.1,8.6,8.9,15.6,12.5c0.9,0.4,1.7,1.8,1.5,3.2L170.3,87.1"/>
	<path class="st0" d="M71.4,82.1c-1.6-2-0.8-4.7,0.2-7.1c3.8-7.3,11.7-13.5,20.6-13.6c1.1,0,2.5,0.9,2.7,2.1c0.1,0.5,0.6,0.9,0,1.5
		c-0.7,0.5-1.1,0.7-1.8,1.3c-1.3,1-2.8,3.1-5.2,2.1c-0.2-0.2-0.4-0.7-0.7-1.3c-1.5-0.9-3.6,0.3-4.7,1.2c-2.3,2.2-5.1,5.8-4.3,9.5
		c0.2,1.1,0.8,2.1,1.8,2.4c3.2,0.9,7-0.3,9.4-2.8l0.6-6.2l6.1-3.1c0.6,0,1.4,0.3,2.1,0.4c0.2,3.6-1,8.9,3.5,11l3.2,1.2l0.1,0.5
		c-2.3,2-6.5,3.1-9.7,2.2c-1.9-0.7-3.3-1.7-4.3-3.6c-4.6,2.2-10,5.3-15,4.7C74.2,84.2,72.4,83.4,71.4,82.1"/>
	<path class="st0" d="M131,86.7c-2.8-1.5-3.3-5.6-4.2-8.6c-0.7-7.7,0.8-15.6,3-23.5c-1.5-1.6-4.5-1.8-6.6-1.4
		c-8.9,7.5-18.3-3.6-26.6,0.6c-0.3,0.3-0.8,0.8-1.5,0.8c-0.4-0.4-0.7-0.8-1.2-1.6c1.2-1.8,3-3.5,5.2-3.6c8,2.5,16.2,5.1,24.3,1
		c2.3-0.4,4.5,0.1,6.9,1.5c1.3-2.4,2.3-5.8,4.8-7.3c1.1-0.2,1.8,0.8,2.4,1.8c1.1,2.3-1.6,4.9-1.3,7.5c7.5-1.4,14.4-1.1,21.7,2.8
		c0,0.2,0.7,0.7,0,1.2c-7.4-1.5-15.6-3-22.9-0.9c-2.1,8.7-3.7,17.6,0.9,26.5c-1.1,1.3-2.8,2.5-4.8,3.1L131,86.7"/>
	<path class="st0" d="M107,84c0.2-5.5,0-12-2.9-17.6c0.1-1.7,1-4,2.8-5.1c1.7-0.1,2.8,1.6,3.7,2.6c0.6,1.4,1.5,2.9,1.8,4.5
		c2.2-3.2,6.6-5.9,10.9-4.5c0.7,0.7,2.1,1.6,1.8,2.9l-3.1,2.7c-0.7,0.8-2,0.6-2.7,1.6c-1.1-0.1-2.9-0.7-3.6,0.5l-2.8,8.2L107,84"/>
	<path class="st0" d="M58.1,105l-0.8-0.3c-1.1-2.7,1.7-5.9,3.2-8.7l2.6-2.9c1.6-1.8,5.2-4,7.5-2.2c3.1,2.4,6.5,5.6,10.8,3.2
		c5.1-1.8,9.7-7,15.3-4c2.3,1.3,4.8,4.6,8,3.3c3.6-2.2,7.6-4.7,11.9-2c2.5,1.5,5.4,4.3,8.7,2.8c8.4-7.4,17.5,5.2,26.4,1.5l0.9,0.3
		c0.9,1.1,0.6,2.8,0,4.2c-1.8,3.6-7,3.6-10.5,3.7c-9.2-8.1-19.5,2.2-28.1-4.5c-2-1.6-4.3-1.7-6-0.6c-3.5,2.1-6.8,4.2-11,1.4
		c-2.2-1.9-5.2-4.1-8.5-2.3c-4.9,2.8-10.8,6.8-16.3,4.3L67,98.5c-2.8-2.2-5.6,3.5-7.4,6.3L58.1,105"/>
	<path class="st0" d="M51.8,119.9h-2.2v-3.5c0-0.3,0-0.6-0.1-0.9c0-0.3-0.1-0.5-0.1-0.6c-0.1-0.2-0.2-0.3-0.3-0.3
		c-0.2-0.1-0.3-0.1-0.6-0.1c-0.2,0-0.4,0-0.6,0.1c-0.2,0.1-0.4,0.2-0.6,0.3v5.1h-2.2V110h2.2v3.5c0.3-0.3,0.7-0.6,1.1-0.7
		c0.3-0.2,0.7-0.2,1.2-0.2c0.7,0,1.3,0.2,1.7,0.7c0.3,0.4,0.6,1.1,0.6,2v4.5"/>
	<path class="st0" d="M56.5,120c-1.1-0.1-1.9-0.4-2.5-0.9c-0.7-0.6-1.1-1.6-1.1-2.7c0-1.2,0.3-2.1,1-2.8c0.6-0.7,1.5-1,2.6-1.1v1.4
		c-0.4,0-0.7,0.1-0.9,0.4c-0.2,0.2-0.4,0.6-0.4,1.1h1.3v1.3h-1.3c0.1,0.3,0.1,0.6,0.2,0.8c0.1,0.2,0.3,0.4,0.4,0.5
		c0.2,0.2,0.4,0.2,0.7,0.3V120 M56.5,112.4h0.3c1.1,0,1.9,0.3,2.4,0.9c0.6,0.6,0.8,1.4,0.8,2.5v0.8h-3.6v-1.3h1.3
		c0-0.5-0.1-0.8-0.3-1.1c-0.2-0.2-0.5-0.3-0.9-0.3h-0.1v-1.5H56.5z M57.1,120.1c-0.2,0-0.4-0.1-0.6-0.1v-1.7
		c0.3,0.1,0.6,0.1,0.8,0.1c0.3,0,0.5-0.1,0.8-0.1c0.2-0.1,0.5-0.1,0.7-0.2c0.2-0.1,0.4-0.2,0.5-0.2c0.2-0.1,0.3-0.2,0.4-0.3h0.2v1.8
		c-0.2,0.1-0.3,0.2-0.5,0.2c-0.1,0.1-0.3,0.1-0.6,0.2c-0.2,0.1-0.5,0.1-0.7,0.2C57.8,120,57.5,120.1,57.1,120.1"/>
	<path class="st0" d="M64,112.4v1.6h-0.6c-0.3,0-0.6,0-0.9,0.1s-0.7,0.2-1,0.4h-0.2v-1.7c0.2-0.1,0.6-0.2,1.1-0.2
		c0.5-0.1,1-0.2,1.5-0.2L64,112.4 M64,116.5c-0.2,0.1-0.3,0.1-0.5,0.2c-0.2,0.1-0.3,0.2-0.4,0.3c-0.1,0.2-0.2,0.3-0.2,0.6
		c0,0.3,0.1,0.6,0.3,0.7s0.4,0.2,0.8,0.2h0v1.3c-0.1,0.1-0.3,0.1-0.4,0.1c-0.2,0.1-0.4,0.1-0.8,0.1c-0.6,0-1.2-0.2-1.6-0.7
		c-0.4-0.4-0.6-0.9-0.6-1.6c0-0.5,0.1-0.9,0.3-1.3c0.2-0.3,0.6-0.6,0.9-0.7c0.4-0.2,0.9-0.3,1.4-0.4c0.2,0,0.4-0.1,0.7-0.1v1.3H64z
		 M65.2,117.9v-1.5c-0.4,0.1-0.7,0.1-0.9,0.1H64v-1.3c0.3-0.1,0.7-0.1,1.1-0.1V115c0-0.4-0.2-0.7-0.4-0.8S64.3,114,64,114v-1.6
		c1.1,0.1,1.9,0.3,2.4,0.6c0.6,0.4,0.9,1.1,0.9,1.9v4.8h-2.2V119c-0.2,0.1-0.3,0.2-0.4,0.3c-0.1,0.1-0.3,0.2-0.4,0.3
		c-0.1,0.1-0.2,0.1-0.2,0.1v-1.3c0.2,0,0.3-0.1,0.6-0.2C64.8,118.2,65,118.1,65.2,117.9"/>
	<path class="st0" d="M72,119.9c-0.1,0.1-0.2,0.1-0.2,0.1c-0.2,0-0.4,0.1-0.7,0.1c-0.8,0-1.4-0.3-1.9-1c-0.5-0.7-0.7-1.6-0.7-2.7
		c0-0.6,0.1-1.2,0.2-1.6c0.2-0.4,0.4-0.8,0.7-1.2c0.3-0.3,0.6-0.6,0.9-0.8c0.4-0.2,0.8-0.2,1.2-0.2H72v1.7c-0.3,0.1-0.6,0.3-0.8,0.6
		c-0.3,0.3-0.4,0.9-0.4,1.6c0,0.7,0.1,1.2,0.3,1.5c0.2,0.3,0.5,0.4,0.9,0.4V119.9 M75.5,119.9h-2.2v-0.7c-0.2,0.1-0.3,0.2-0.5,0.4
		c-0.2,0.1-0.3,0.2-0.5,0.3c-0.1,0.1-0.2,0.1-0.3,0.1v-1.6h0.1c0.2,0,0.4,0,0.6-0.1c0.2-0.1,0.4-0.2,0.6-0.3v-3.5
		c-0.1-0.1-0.3-0.1-0.4-0.1c-0.2-0.1-0.3-0.1-0.4-0.1H72v-1.7c0.2,0,0.3,0.1,0.4,0.1c0.2,0.1,0.5,0.2,0.8,0.3v-3h2.2v9.9H75.5z"/>
	<path class="st0" d="M80.2,120c-1.1-0.1-1.9-0.4-2.5-0.9c-0.7-0.6-1.1-1.6-1.1-2.7c0-1.2,0.3-2.1,1-2.8c0.6-0.7,1.4-1,2.6-1.1v1.4
		c-0.4,0-0.7,0.1-0.9,0.4c-0.2,0.2-0.4,0.6-0.4,1.1h1.3v1.3h-1.3c0,0.3,0.1,0.6,0.2,0.8c0.1,0.2,0.2,0.4,0.4,0.5
		c0.2,0.2,0.4,0.2,0.7,0.3L80.2,120 M80.2,112.4h0.2c1.1,0,1.9,0.3,2.5,0.9c0.6,0.6,0.8,1.4,0.8,2.5v0.8h-3.5v-1.3h1.3
		c0-0.5-0.1-0.8-0.3-1.1c-0.2-0.2-0.5-0.3-0.9-0.3h-0.1V112.4z M80.9,120.1c-0.2,0-0.4-0.1-0.6-0.1v-1.7c0.2,0.1,0.5,0.1,0.8,0.1
		c0.3,0,0.5-0.1,0.8-0.1c0.2-0.1,0.4-0.1,0.7-0.2c0.2-0.1,0.3-0.2,0.5-0.2c0.2-0.1,0.3-0.2,0.4-0.3h0.2v1.8
		c-0.2,0.1-0.3,0.2-0.5,0.2c-0.2,0.1-0.3,0.1-0.6,0.2c-0.2,0.1-0.5,0.1-0.8,0.2C81.5,120,81.2,120.1,80.9,120.1"/>
	<path class="st0" d="M97.2,119.9v-3.6v-0.9c0-0.2-0.1-0.4-0.1-0.6c-0.1-0.2-0.2-0.3-0.3-0.3c-0.2-0.1-0.3-0.1-0.6-0.1
		c-0.2,0-0.3,0-0.5,0.1c-0.2,0.1-0.4,0.2-0.6,0.3v5.1H93v-3.6c0-0.3,0-0.6-0.1-0.9c0-0.2-0.1-0.4-0.1-0.6c-0.1-0.2-0.2-0.3-0.3-0.3
		c-0.1-0.1-0.3-0.1-0.6-0.1c-0.2,0-0.4,0.1-0.6,0.1c-0.2,0.1-0.3,0.2-0.5,0.3v5.1h-2.2v-7.1h2.2v0.8c0.4-0.3,0.7-0.6,1.1-0.7
		c0.3-0.2,0.7-0.2,1.1-0.2c0.4,0,0.8,0.1,1.2,0.3c0.3,0.2,0.6,0.5,0.7,0.9c0.4-0.4,0.8-0.7,1.2-0.9c0.4-0.2,0.8-0.3,1.2-0.3
		c0.3,0,0.6,0.1,0.9,0.1c0.3,0.1,0.5,0.3,0.7,0.5c0.2,0.2,0.3,0.5,0.4,0.8s0.2,0.7,0.2,1.2v4.6L97.2,119.9"/>
	<path class="st0" d="M104.2,109.9v1.3c-0.1,0-0.1,0-0.1-0.1c-0.2-0.1-0.2-0.2-0.4-0.2c-0.2-0.1-0.3-0.1-0.4-0.1
		c-0.2,0-0.3,0.1-0.4,0.2c-0.1,0.2-0.1,0.3-0.1,0.6h-1.3c0-0.6,0.2-1.1,0.5-1.5c0.3-0.4,0.8-0.6,1.3-0.6c0.2,0,0.4,0.1,0.6,0.1
		C104,109.8,104.1,109.8,104.2,109.9 M104.2,120.1c-1.1,0-2-0.3-2.7-1c-0.6-0.7-0.9-1.6-0.9-2.8c0-1.2,0.3-2.1,0.9-2.8
		c0.7-0.7,1.6-1,2.7-1v1.6c-0.2,0-0.3,0-0.5,0.1c-0.2,0.1-0.3,0.2-0.4,0.4c-0.1,0.2-0.2,0.4-0.3,0.7c-0.1,0.3-0.1,0.7-0.1,1.1
		s0,0.8,0.1,1.1c0.1,0.3,0.2,0.5,0.3,0.7c0.1,0.2,0.3,0.3,0.4,0.4c0.2,0.1,0.3,0.1,0.5,0.1V120.1z M104.2,111.3V110h0.1
		c0.2,0.1,0.3,0.2,0.4,0.2c0.2,0.1,0.3,0.2,0.4,0.2c0.2,0,0.3-0.1,0.4-0.2s0.2-0.3,0.2-0.6h1.3c-0.1,0.7-0.2,1.2-0.5,1.6
		c-0.3,0.3-0.8,0.5-1.3,0.5c-0.2,0-0.4-0.1-0.6-0.1C104.5,111.4,104.4,111.3,104.2,111.3 M107.9,116.2c0,1.2-0.3,2.1-0.9,2.8
		c-0.7,0.7-1.6,1-2.7,1v-1.6c0.2,0,0.4-0.1,0.6-0.1c0.2-0.1,0.3-0.2,0.4-0.4c0.1-0.2,0.2-0.4,0.3-0.6c0.1-0.3,0.1-0.6,0.1-1.1
		c0-0.4,0-0.8-0.1-1.1c-0.1-0.3-0.2-0.5-0.3-0.7c-0.1-0.2-0.3-0.3-0.4-0.3c-0.2-0.1-0.3-0.1-0.6-0.1v-1.6c1.2,0,2.1,0.3,2.7,1
		S107.9,115,107.9,116.2"/>
	<path class="st0" d="M111.8,120c-0.9,0-1.6-0.2-2-0.6s-0.6-1-0.6-1.8v-3.3h-0.9v-1.6h0.9v-2h2.2v2h2.1v1.6h-2.1v2.5v0.7
		c0,0.2,0,0.3,0.1,0.5c0.1,0.2,0.1,0.3,0.3,0.3c0.2,0.1,0.4,0.2,0.7,0.2c0.1,0,0.3-0.1,0.4-0.1c0.2-0.1,0.3-0.1,0.4-0.1h0.2v1.6
		c-0.2,0.1-0.5,0.1-0.8,0.2C112.5,120,112.2,120,111.8,120"/>
	<path class="st0" d="M117.5,120c-1.1-0.1-1.9-0.4-2.5-0.9c-0.7-0.6-1.1-1.6-1.1-2.7c0-1.2,0.3-2.1,1-2.8c0.6-0.7,1.5-1,2.6-1.1v1.4
		c-0.4,0-0.7,0.1-0.9,0.4c-0.2,0.2-0.4,0.6-0.4,1.1h1.3v1.3h-1.3c0.1,0.3,0.1,0.6,0.2,0.8c0.1,0.2,0.3,0.4,0.4,0.5
		c0.2,0.2,0.4,0.2,0.7,0.3L117.5,120 M117.5,112.4h0.3c1.1,0,1.9,0.3,2.4,0.9c0.6,0.6,0.8,1.4,0.8,2.5v0.8h-3.6v-1.3h1.3
		c0-0.5-0.1-0.8-0.3-1.1c-0.2-0.2-0.5-0.3-0.9-0.3h-0.1v-1.5H117.5z M118.2,120.1c-0.2,0-0.4,0-0.6-0.1v-1.7
		c0.3,0.1,0.6,0.1,0.8,0.1c0.3,0,0.5-0.1,0.8-0.1c0.2-0.1,0.5-0.1,0.7-0.2c0.2-0.1,0.4-0.2,0.5-0.2c0.2-0.1,0.3-0.2,0.4-0.3h0.2v1.8
		c-0.2,0.1-0.3,0.2-0.5,0.2c-0.1,0.1-0.3,0.1-0.6,0.2c-0.2,0.1-0.5,0.1-0.7,0.2C118.8,120,118.6,120.1,118.2,120.1"/>
	<path class="st0" d="M125,120c-0.9,0-1.6-0.2-1.9-0.6c-0.4-0.4-0.6-1-0.6-1.8v-3.3h-0.9v-1.6h0.9v-2h2.2v2h2.1v1.6h-2.1v2.5v0.7
		c0,0.2,0,0.3,0.1,0.5c0.1,0.2,0.2,0.3,0.3,0.3c0.2,0.1,0.4,0.2,0.7,0.2c0.1,0,0.3-0.1,0.4-0.1c0.2-0.1,0.3-0.1,0.4-0.1h0.2v1.6
		c-0.2,0.1-0.5,0.1-0.8,0.2C125.7,120,125.3,120,125,120"/>
	<path class="st0" d="M130.7,120c-1.1-0.1-1.9-0.4-2.5-0.9c-0.7-0.6-1.1-1.6-1.1-2.7c0-1.2,0.3-2.1,1-2.8c0.6-0.7,1.5-1,2.6-1.1v1.4
		c-0.4,0-0.7,0.1-0.9,0.4c-0.2,0.2-0.4,0.6-0.4,1.1h1.3v1.3h-1.3c0,0.3,0.1,0.6,0.2,0.8c0.1,0.2,0.3,0.4,0.4,0.5
		c0.2,0.2,0.4,0.2,0.7,0.3L130.7,120 M130.7,112.4h0.2c1.1,0,1.9,0.3,2.5,0.9c0.6,0.6,0.8,1.4,0.8,2.5v0.8h-3.6v-1.3h1.3
		c0-0.5-0.1-0.8-0.3-1.1c-0.2-0.2-0.5-0.3-0.9-0.3h-0.1v-1.5H130.7z M131.3,120.1c-0.2,0-0.4,0-0.6-0.1v-1.7
		c0.3,0.1,0.6,0.1,0.8,0.1c0.3,0,0.5-0.1,0.8-0.1c0.2-0.1,0.5-0.1,0.7-0.2c0.2-0.1,0.4-0.2,0.5-0.2c0.2-0.1,0.3-0.2,0.4-0.3h0.2v1.8
		c-0.2,0.1-0.3,0.2-0.5,0.2c-0.1,0.1-0.3,0.1-0.6,0.2c-0.2,0.1-0.5,0.1-0.7,0.2C132,120,131.7,120.1,131.3,120.1"/>
	<rect x="139.2" y="109.9" class="st0" width="2.2" height="9.9"/>
	<path class="st0" d="M145.5,111.6H143v-1.7h2.3v1.7H145.5z M145.4,119.9h-2.2v-7.1h2.2V119.9z"/>
	<path class="st0" d="M153.8,119.9h-2.2v-3.5c0-0.3-0.1-0.6-0.1-0.9s-0.1-0.5-0.1-0.6c-0.1-0.2-0.2-0.3-0.3-0.3
		c-0.2-0.1-0.3-0.1-0.6-0.1c-0.2,0-0.3,0-0.6,0.1c-0.2,0.1-0.4,0.2-0.6,0.3v5.1h-2.2v-7.1h2.2v0.8c0.3-0.3,0.7-0.6,1.1-0.7
		c0.3-0.2,0.7-0.2,1.1-0.2c0.7,0,1.3,0.2,1.7,0.7c0.4,0.4,0.6,1.1,0.6,2L153.8,119.9"/>
	<path class="st0" d="M162.1,119.9h-2.2v-3.5c0-0.3,0-0.6-0.1-0.9c0-0.3-0.1-0.5-0.1-0.6c-0.1-0.2-0.2-0.3-0.3-0.3
		c-0.1-0.1-0.3-0.1-0.6-0.1c-0.2,0-0.4,0-0.6,0.1s-0.4,0.2-0.6,0.3v5.1h-2.2v-7.1h2.2v0.8c0.4-0.3,0.7-0.6,1.1-0.7
		c0.3-0.2,0.7-0.2,1.2-0.2c0.7,0,1.3,0.2,1.7,0.7c0.4,0.4,0.6,1.1,0.6,2v4.4"/>
	<path class="st0" d="M54.8,88.4c-1.3,0-2.1-1.6-2.4-2.7c-2-12.4-0.3-24.9-1.6-37.1c-1.8-1.9-4.7-2.1-7.2-1.3
		c-1.7,0.6-3.5,1.6-4,3.6c-0.2,1.7,0.2,3.5,1.6,4.5c1.1,0.9,2.9,1.8,4.7,0.9c1.2-1.2,2.3-3.3,1.1-5c-0.3-0.6-1.5-0.3-2,0.1
		c-0.6,0.3-0.7,1.4-0.9,2.1c-0.8,0.4-1.4,0.2-2.1-0.3c-0.4-1.9,0.6-4.2,2.2-5.4c0.9,0.6,1.8,0.2,2.9,0.7c1.6,0.9,2.7,2.8,2.7,5
		c0.1,1.6-0.9,3.5-2.1,4.5c-1.7,1.2-3.9,1.6-6,1.2c-2.7-1.1-5.4-3.6-5.4-6.9c0-3,1.8-5.6,4.2-7.2c2.9-1.3,6-2,9.3-0.8l0.7,0.3
		c0.6-0.4,0-1.6,0-2.5c0.2-0.7,0.7-0.9,1.6-1.4l-12.2,2.9c-5,1.2-10.6,5.2-14.9,3.4l1.6-7.7c15-6.6,35.9-10,51.1-9.1
		c1.4,0.9,0.8,3.3,1.6,5c-0.6,1.1,1,2.2,0,3.6L63,39.7c0.4,0.3,0.3,0.3,0.6,0.4c0.6,0.9,0.5,3.2,1.8,3.4c2.5-2.2,6.1-2.6,9.5-1.7
		c1.9,1,3.6,1.9,4.3,4.2c0.3,2.7-0.3,6.2-2.8,7.7c-1.8,0.9-4,0.9-5.9,0c-1.3-0.8-2.7-1.9-3.1-3.9c0.1-1.4,0.4-2.7,2.1-3.5
		c0.8-0.7,2.1-0.7,3.2-0.5c1.4,0.8,2.8,2.2,1.9,3.5l-0.4,0.3c-0.6-0.3-1.4-0.2-1.8-1.2c-0.4-0.3-0.9-0.4-1.6-0.3
		c-0.6,0.1-1.5,1.3-0.8,2.4c0.5,0.8,1.7,1.9,3.4,1.9c0.3,0,0.9-0.1,1.2-0.3c2-1.1,3-3.6,1.9-6.2c-0.7-1.7-3.5-2.7-5.6-2.1
		c-1.8,0.4-3,1.3-4.3,2.4c-0.2,0.3-0.1,0.7-0.2,1.2c-1.3,11.7-0.8,24,0.8,36.1c0,0.2,0.2,0.5,0.5,0.9c-0.4,0.5-1.3,0.9-2.4,1.3
		L61,36l-1.8,0.2l4.4,50.2c-0.6,0.2-1.2,0.3-1.8,0.4l-4.5-50.4l-1.9,0.2L59.9,87c-0.7,0.2-1.3,0.3-1.8,0.4l-4.5-50.9l-1.7,0.2
		l4.5,51.1c-0.5,0.1-0.9,0.3-1.2,0.4L54.8,88.4"/>
</g>
</svg>
