<?xml version="1.0" encoding="utf-8"?>
<!-- Generator: Adobe Illustrator 24.2.3, SVG Export Plug-In . SVG Version: 6.00 Build 0)  -->
<svg version="1.1" id="Layer_1" xmlns="http://www.w3.org/2000/svg" xmlns:xlink="http://www.w3.org/1999/xlink" x="0px" y="0px"
	 viewBox="0 0 160 90" style="enable-background:new 0 0 160 90;" xml:space="preserve">
<style type="text/css">
	.st0{fill-rule:evenodd;clip-rule:evenodd;fill:#FFFFFF;}
	.st1{fill:#FFFFFF;}
</style>
<g>
	<path class="st0" d="M81.7,17.6c0.6-1.6,1.2-3.3,1.8-4.9c0.1-0.2,0.1-0.5,0.3-0.6c0.2-0.2,0.4-0.3,0.7-0.4c0.1,0.3,0.3,0.6,0.2,0.8
		c-0.4,1.1-0.8,2.2-1.2,3.3c-0.4,1.2-0.9,2.4-1.3,3.6c-0.1,0.2-0.2,0.4-0.1,0.6c0.4,1.6,0.9,3.2,1.5,4.7c0.8-3.1,1.5-6.2,2.3-9.3
		c0.4-1.6,0.8-3.2,1.2-4.8c0.1-0.5,0.2-1.1,0.1-1.7c-0.3-2.4-0.6-4.8-0.9-7.2c0-0.2-0.1-0.3,0-0.4c0.1-0.3,0.3-0.5,0.4-0.8
		c0.2,0.2,0.5,0.4,0.6,0.6c0.2,1.5,0.4,3.1,0.6,4.6c0,0.3,0.1,0.6,0.3,0.9c0.3-1,0.5-1.9,0.8-2.9s0.5-1.9,0.8-2.9
		c0.1-0.4,0.1-0.9,0.7-0.8c0.6,0.2,0.4,0.7,0.3,1.1c-0.5,2-1.1,4.1-1.7,6.3c0.2-0.2,0.4-0.3,0.5-0.4c1.1-1.3,2.2-2.6,3.4-3.9
		c0.2-0.2,0.7-0.4,0.9-0.3c0.5,0.3,0.1,0.7-0.1,1c-1.5,1.7-3,3.5-4.5,5.2c-0.5,0.6-0.9,1.2-1.1,2c-0.1,0.8-0.4,1.5-0.6,2.5
		c0.4-0.4,0.7-0.7,0.9-1c1.6-1.9,3.2-3.9,4.8-5.8c0.1-0.1,0.1-0.1,0.2-0.2c0.2-0.3,0.6-0.5,0.9-0.2C94.3,6.4,94.2,6.8,94,7
		c-1,1.3-2,2.5-3.1,3.7c-1.3,1.5-2.6,3.1-3.9,4.6c-0.2,0.2-0.4,0.5-0.5,0.8c-0.7,2.9-1.4,5.8-2.1,8.6c0,0.1,0,0.2-0.1,0.5
		c1.5-1.6,2.9-3.2,4.5-4.6c0.9-0.9,1.4-1.9,1.5-3.2c0.2-1.9,0.5-3.8,0.8-5.7c0-0.3,0.2-0.6,0.4-0.7c0.4-0.2,0.7,0.2,0.6,0.8
		c-0.2,1.8-0.5,3.5-0.7,5.3c0,0.2,0,0.4-0.1,0.7c0.3-0.2,0.4-0.4,0.6-0.6c1.5-1.5,2.9-3.1,4.4-4.6c0.2-0.2,0.6-0.2,0.8-0.2
		c0,0.3,0,0.6-0.1,0.9c0,0.1-0.2,0.2-0.3,0.3c-1.2,1.2-2.4,2.5-3.5,3.7c-0.2,0.2-0.4,0.4-0.5,0.7c1.2-0.4,2.4-0.8,3.6-1.2
		c0.4-0.1,1-0.6,1.3,0.1c0.2,0.7-0.6,0.7-1,0.8c-1.3,0.5-2.6,0.9-3.9,1.3s-2.4,1-3.3,2.1c-1.7,1.9-3.5,3.7-5.2,5.5
		c-0.2,0.2-0.4,0.5-0.5,0.8c-0.6,3.4-1.1,6.8-1.7,10.2c0,0.1,0,0.1,0,0.4c0.8-1.1,1.5-2.1,2.2-3.1c0.2-0.3,0.4-0.7,0.7-1.1
		c1.3-1.4,1.8-3.2,2-5.1c0.1-1.2,0.4-2.3,0.5-3.5c0.1-0.4,0.1-0.9,0.7-0.8c0.5,0.1,0.4,0.5,0.4,0.9c-0.2,1.4-0.4,2.8-0.7,4.4
		c0.6-0.8,1.2-1.4,1.7-2c1.8-2.2,4-4.1,6.3-5.7c0.1-0.1,0.3-0.3,0.4-0.3c0.2,0,0.4,0.1,0.7,0.1c0,0.2,0,0.5-0.1,0.7
		s-0.4,0.3-0.6,0.4c-2,1.4-3.8,2.9-5.3,4.8c0.2-0.1,0.4-0.2,0.6-0.2c0.2-0.1,0.5-0.2,0.7-0.3c1.5-0.6,2.9-1.2,4.4-1.8
		c0.3-0.1,0.8,0,0.9,0.1c0.3,0.4-0.1,0.6-0.5,0.8c-2.4,1-4.7,2-7.1,3c-0.4,0.2-0.9,0.5-1.1,0.9c-1.4,1.9-2.8,3.9-4.1,6
		c0.3-0.2,0.6-0.4,0.8-0.6c3.6-2.5,7.8-3.9,12-4.9c1.4-0.3,2.8-0.6,4.1-0.9c0.4-0.1,1-0.3,1.1,0.3c0.1,0.7-0.5,0.6-1,0.7
		c-2.3,0.5-4.7,1-7.1,1.6c0,0.1,0,0.1,0,0.2c0.6,0.1,1.1,0.2,1.7,0.3c1.3,0.2,2.6,0.4,3.9,0.7c0.4,0.1,1,0.1,0.9,0.7
		c-0.1,0.6-0.6,0.4-1,0.3c-2.4-0.4-4.7-0.8-7.1-1.2c-0.5-0.1-1,0-1.4,0.1c-3.6,1.3-6.7,3.4-9.5,6.1c0.1,0.7-0.1,1.1-0.1,1.4
		c-0.2,3.8-0.1,7.6,1.1,11.3c0.1,0.4,0.2,0.8-0.3,0.9c-0.2,0-0.6-0.3-0.7-0.6c-1.2-3.8-1.4-7.7-1.1-11.6c0.1-1.3-0.5-2.3-0.9-3.5
		c0-0.1-0.2-0.2-0.3-0.3c-1.1-0.6-2.2-1.1-3.5-1.1c-2.4,0-4.7-0.2-7.1-0.3c-0.3,0-0.8-0.3-0.8-0.5c0-0.6,0.4-0.5,0.9-0.5
		c1.8,0.1,3.6,0.2,5.3,0.2c0.2,0,0.4,0,0.6-0.1c-0.3-0.1-0.6-0.3-0.9-0.4c-2.2-1.1-4.5-2.2-6.7-3.3c-0.4-0.2-0.8-0.4-0.5-0.8
		c0.1-0.2,0.6-0.2,0.9-0.1c3.5,1.7,7,3.5,10.5,5.2c0.2,0.1,0.5,0.2,0.9,0.5c-0.6-1.5-1.2-2.7-1.7-4c-0.5-1.4-1.3-2.1-2.7-2.5
		c-1.6-0.5-3.1-1.2-4.6-1.8c-0.4-0.1-0.8-0.3-0.6-0.8c0.2-0.5,0.6-0.3,1-0.2c1.5,0.6,2.9,1.2,4.4,1.8c0.3,0.1,0.5,0.2,0.9,0.1
		c-0.2-0.2-0.4-0.5-0.6-0.7c-2.6-2.2-5.1-4.3-7.7-6.5c-0.1-0.1-0.3-0.2-0.4-0.3c-0.1-0.2-0.1-0.5-0.1-0.8c0.3,0,0.6-0.1,0.8,0.1
		c1.3,1,2.5,2,3.7,3.1c0.9,0.7,1.7,1.4,2.7,2.1c-0.2-0.4-0.4-0.8-0.7-1.2c-1.4-2.4-2.9-4.8-4.4-7.2c-0.2-0.4-0.5-0.8,0-1
		c0.2-0.1,0.7,0.2,0.8,0.5c1.9,3,3.7,6.1,5.5,9.2c0.1-0.5,0.1-0.9,0.2-1.3c0.2-1.6,0.3-3.2,0.5-4.8c0-0.3,0.4-0.8,0.6-0.8
		c0.6,0,0.5,0.5,0.4,0.9c-0.2,2.3-0.5,4.7-0.7,7c0,0.5,0.1,1,0.3,1.5c1,2.3,2,4.5,3.1,6.7c0-0.2-0.1-0.5-0.1-0.7
		c-0.2-2.7-0.5-5.3-0.7-8c0-0.2,0-0.4,0-0.6c0.1-0.2,0.4-0.4,0.5-0.4s0.3,0.2,0.4,0.4c0.1,0.2,0,0.4,0,0.7c-0.1,2.9,0.3,5.7,0.8,8.8
		c0.1-0.4,0.2-0.5,0.2-0.6c0.4-2.4,0.9-4.8,1.3-7.2c0.1-0.3,0-0.7-0.1-1c-0.6-2-1.2-4-1.8-6c-0.1-0.3-0.3-0.7-0.5-0.9
		c-1.6-2.1-3.2-4.2-4.8-6.3c-0.1-0.1-0.2-0.2-0.3-0.4c0-0.3,0-0.6,0-0.9c0.3,0.1,0.6,0.2,0.9,0.3c0.2,0.1,0.2,0.3,0.4,0.5
		c1.2,1.6,2.4,3.2,3.7,4.9c0-0.3,0-0.4,0-0.5c-0.2-3.8-0.4-7.6-0.6-11.4c0-0.4,0-0.9,0.5-0.8c0.2,0,0.5,0.5,0.5,0.8
		c0.1,1.7,0.1,3.4,0.3,5.1c0.2-0.5,0.3-1,0.5-1.6c0.3-0.8,0.5-1.7,0.7-2.5c0.1-0.4,0.2-0.9,0.8-0.7c0.6,0.2,0.3,0.7,0.2,1
		c-0.6,2.1-1.2,4.3-1.9,6.4C80.9,14.7,81.5,16.1,81.7,17.6z"/>
	<path class="st1" d="M28.2,71.6c-1.2-2.3-2.4-4.7-3.6-7c-0.4,1-0.8,2-1.2,2.9c0.2,1.5,0.4,3.1,0.5,4.6c-1,0.1-2,0.2-3.1,0.4
		c-0.7-5.7-1.4-11.4-2.2-17c1.1-0.1,2.1-0.3,3.2-0.4c0.2,1.7,0.4,3.4,0.6,5c0.1,0.5,0.1,1,0.2,1.4c0,0.4,0.1,0.8,0.1,1.2
		c0.1-0.4,0.3-0.8,0.5-1.3s0.4-1,0.6-1.5c0.7-1.8,1.4-3.6,2.2-5.3c1.1-0.1,2.3-0.2,3.4-0.4c-1,2.3-2.1,4.5-3.1,6.8
		c1.8,3.4,3.6,6.8,5.4,10.2C30.5,71.4,29.4,71.5,28.2,71.6z"/>
	<path class="st1" d="M46,61.4c0.1,1.2,0.1,2.4-0.1,3.5c-0.1,1.1-0.4,2.1-0.8,2.9c-0.4,0.8-1,1.5-1.6,2c-0.7,0.5-1.5,0.8-2.5,0.9
		s-1.9-0.1-2.6-0.5c-0.8-0.4-1.4-1-1.9-1.7s-1-1.6-1.3-2.7s-0.5-2.2-0.7-3.4c-0.1-1.2-0.1-2.4,0-3.5s0.4-2.1,0.8-2.9
		c0.4-0.8,1-1.5,1.7-2s1.6-0.8,2.6-0.9c1-0.1,1.9,0.1,2.7,0.5s1.4,1,2,1.7c0.5,0.8,0.9,1.7,1.3,2.7C45.7,59,45.9,60.2,46,61.4z
		 M42.8,61.7c-0.1-1.8-0.5-3.2-0.9-4.2c-0.5-1-1.2-1.4-2.2-1.4c-1,0.1-1.6,0.6-1.9,1.7c-0.3,1-0.4,2.5-0.2,4.3s0.5,3.2,1,4.2
		s1.2,1.4,2.1,1.4c0.9-0.1,1.5-0.6,1.8-1.7C42.8,64.9,42.9,63.5,42.8,61.7z"/>
	<path class="st1" d="M51.2,69.7c-0.3-5.7-0.7-11.4-1-17.1c1.1-0.1,2.1-0.1,3.2-0.2c0.3,4.7,0.5,9.4,0.8,14.1
		c1.8-0.1,3.6-0.2,5.4-0.3c0,1,0.1,2,0.1,3C56.9,69.4,54.1,69.5,51.2,69.7z"/>
	<path class="st1" d="M74,68.8c0-1.8,0-3.7-0.1-5.5c0-1,0-2,0-2.9s0-1.7,0-2.3c-0.2,0.6-0.4,1.4-0.6,2.3c-0.3,0.9-0.5,1.8-0.9,2.8
		c-0.6,2-1.3,4.1-1.9,6.1c-0.7-2-1.4-4-2.1-6c-0.3-1-0.7-1.9-1-2.8c-0.3-0.9-0.6-1.6-0.8-2.3c0,0.6,0.1,1.4,0.1,2.3
		c0,0.9,0.1,1.9,0.1,2.9c0,1.8,0.1,3.7,0.2,5.5c-0.9,0-1.8,0.1-2.8,0.1c-0.2-5.7-0.4-11.4-0.6-17.2c1.1,0,2.1-0.1,3.2-0.1
		c0.8,2.1,1.5,4.2,2.3,6.3c0.3,0.8,0.5,1.5,0.8,2.2c0.2,0.7,0.4,1.2,0.5,1.6c0.1-0.4,0.2-1,0.4-1.7c0.2-0.7,0.4-1.4,0.7-2.2
		c0.7-2.1,1.3-4.3,2-6.4c1.1,0,2.1,0,3.2,0c0,5.7,0.1,11.4,0.1,17.2C75.8,68.8,74.9,68.8,74,68.8z"/>
	<path class="st1" d="M94,54.8c-0.1,4.7-0.3,9.5-0.4,14.2c-1,0-2.1-0.1-3.1-0.1c0.1-4.7,0.2-9.5,0.3-14.2c-1.2,0-2.5,0-3.7-0.1
		c0-1,0-2,0-2.9c3.5,0.1,7.1,0.1,10.6,0.3c0,1-0.1,2-0.1,2.9C96.4,54.8,95.2,54.8,94,54.8z"/>
	<path class="st1" d="M101.6,69.3c0.3-5.7,0.5-11.4,0.8-17.2c1.1,0,2.1,0.1,3.2,0.2c-0.3,5.7-0.6,11.4-0.9,17.2
		C103.6,69.4,102.6,69.3,101.6,69.3z"/>
	<path class="st1" d="M110,69.8c0.4-5.7,0.7-11.4,1.1-17.1c1.1,0.1,2.1,0.1,3.2,0.2c-0.3,4.7-0.7,9.4-1,14.1
		c1.8,0.1,3.6,0.3,5.4,0.4c-0.1,1-0.2,2-0.2,3C115.7,70.1,112.9,69.9,110,69.8z"/>
	<path class="st1" d="M123,70.8c0.5-5.7,1-11.4,1.6-17.1c1.1,0.1,2.1,0.2,3.2,0.3c-0.5,4.7-0.9,9.4-1.4,14.1
		c1.8,0.2,3.6,0.4,5.4,0.6c-0.1,1-0.2,2-0.3,3C128.6,71.3,125.8,71,123,70.8z"/>
	<path class="st1" d="M136.1,72.1c0.7-5.7,1.4-11.4,2-17.1c1.1,0.1,2.1,0.3,3.2,0.4c-0.7,5.7-1.4,11.4-2.2,17
		C138.1,72.4,137.1,72.3,136.1,72.1z"/>
	<path class="st1" d="M56.6,82.3c0.2-0.1,0.8-0.3,1.5-0.4c0.3-0.9,0.5-1.7,0.7-1.8c0.2-0.2,1,0.4,0.9,0.5l-0.3,1
		c0.3,0,0.5-0.1,0.7-0.1c0.3,0,0.6-0.1,0.7,0.1c0.1,0.2,0.2,0,0.4,0.2c0.1,0.1,0.3,0.4,0.3,0.5s0,0.2-0.2,0.2
		c-0.6,0-1.4,0.1-2.1,0.2c-0.5,1.8-0.9,3.8-0.9,5c0,0.4,0.2,0.6,0.4,0.6c0.8,0,2.5-1.1,2.5-2.2c0,0,0.5-0.1,0.5,0.7
		c0,1.2-1.9,2.5-2.7,2.5c-0.9,0-1.7-1-1.7-2.4c0-0.8,0.3-2.5,0.6-4L57.3,83C56.8,83.2,56.4,82.4,56.6,82.3z"/>
	<path class="st1" d="M64.5,88.2c-0.2,0.5-0.8,1-1.5,1c-1,0-1.8-1.1-1.8-2.8c0-2.5,1.2-5,2.8-5c0.9,0,1.4,0.6,1.4,1
		c0,0.1,0,0.2,0,0.2c0.1,0,0.7,0.1,0.6,0.4c-0.4,1.6-0.8,3-0.8,4.1c0,0.6,0.1,1.1,0.6,1.1c0.7,0,1-1.2,1.1-2c0,0,0.4,0,0.4,0.4
		c0,0.7-0.7,2.6-1.8,2.6C64.9,89.2,64.5,88.6,64.5,88.2L64.5,88.2z M62.8,88.3c0.8,0,1.6-3.3,1.6-3.8c0,0-0.4-0.1-0.6-0.3
		c0.3-0.4,0.5-0.9,0.5-1.4c0-0.1,0-0.5-0.3-0.5c-1,0-1.6,3.3-1.6,4.8C62.3,88,62.5,88.3,62.8,88.3z"/>
	<path class="st1" d="M69.4,84.4c-0.6,1.2-1.3,3.6-1.3,4.9c0,0-0.2,0.2-0.5,0.2c-0.6,0-0.8-0.8-0.8-1.8c0-3,0.4-5.8,1.2-5.8
		c0.2,0,0.5,0,0.4,0.4c-0.2,1.3-0.6,2.6-0.6,4H68c0.5-1.5,1.1-3.2,1.8-4.7c0.1-0.1,0.2-0.1,0.3-0.1c0.4,0,1,0.3,1,0.7
		c-0.1,1.4-0.9,3.2-0.9,5.1c0,0.7,0.2,1.1,0.6,1.1c0.5,0,0.9-1,1-1.6c0,0,0.3,0,0.3,0.4c0,0.8-0.8,2.1-1.7,2.1c-0.9,0-1.2-1-1.2-2.1
		c0-0.6,0.2-2,0.4-2.8C69.6,84.4,69.4,84.4,69.4,84.4z"/>
	<path class="st1" d="M75.1,88.2c-0.2,0.5-0.8,1-1.5,1c-1,0-1.8-1.1-1.8-2.8c0-2.5,1.2-5,2.8-5c0.9,0,1.4,0.6,1.4,1
		c0,0.1,0,0.2,0,0.2c0.1,0,0.7,0.1,0.6,0.4c-0.4,1.6-0.8,3-0.8,4.1c0,0.6,0.1,1.1,0.6,1.1c0.7,0,1.3-1,1.4-2.3c0,0,0.4,0,0.4,0.5
		c0,1.3-0.9,2.8-2,2.8C75.5,89.2,75.2,88.6,75.1,88.2L75.1,88.2z M73.4,88.3c0.8,0,1.6-3.3,1.6-3.8c0,0-0.4-0.1-0.6-0.3
		c0.3-0.4,0.5-0.9,0.5-1.4c0-0.1,0-0.5-0.3-0.5c-1,0-1.6,3.3-1.6,4.8C72.9,88,73.1,88.3,73.4,88.3z"/>
	<path class="st1" d="M79,87c0.1-0.8,1.3-6.3,2-6.3c0.2,0,0.6,0.1,0.6,0.3c0,0.1-0.3,0.7-0.4,1c-0.7,2.2-1.6,5.2-1.6,7.5
		c0,0-0.1,0.2-0.4,0.2c-0.8,0-1.2-0.5-1.2-1.2c0-0.5-0.3-1.7-0.3-3.4c0-1.5,0.1-3.5,0.1-3.5c0-0.1,0.1-0.3,0.3-0.3
		c0.2,0,0.9,0.2,0.9,0.4c-0.2,1.2-0.2,3-0.2,3.3C78.8,86.1,78.9,86.8,79,87L79,87z"/>
	<path class="st1" d="M84.5,88.2c-0.2,0.5-0.8,1-1.5,1c-1,0-1.8-1.1-1.8-2.8c0-2.5,1.2-5,2.8-5c0.9,0,1.4,0.6,1.4,1
		c0,0.1,0,0.2,0,0.2c0.1,0,0.7,0.1,0.6,0.4c-0.4,1.6-0.8,3-0.8,4.1c0,0.6,0.1,1.1,0.6,1.1c0.7,0,1.1-1.2,1.2-2.2
		c0,0,0.5,0.1,0.5,0.5c0,0.9-0.8,2.7-1.8,2.7C84.9,89.2,84.6,88.6,84.5,88.2L84.5,88.2z M82.9,88.3c0.8,0,1.6-3.3,1.6-3.8
		c0,0-0.4-0.1-0.6-0.3c0.3-0.4,0.5-0.9,0.5-1.4c0-0.1,0-0.5-0.3-0.5c-1,0-1.6,3.3-1.6,4.8C82.4,88,82.5,88.3,82.9,88.3z"/>
	<path class="st1" d="M86.9,86.7c0.1-2.1,0.7-5.9,1-7.9c0-0.3,0.2-0.4,0.3-0.4c0.3,0,0.6,0.1,0.8,0.2c0.2,0.1,0.2,0.2,0.1,0.5
		c-0.3,1.5-0.7,4.3-0.8,5.1c0.6-0.8,2.3-2.6,3.3-2.6c0.2,0,0.4,0.2,0.4,0.4c-0.8,0.7-2.3,1.9-3.1,3c1,1.3,2,2.4,3.1,4.2
		c0.2,0.2,0.1,0.4,0,0.5c-0.2,0.1-0.4,0.2-0.6,0.2c-0.1,0-0.3,0.1-0.4-0.1c-1-1.6-2.2-3.2-2.8-3.8c-0.1,0.9-0.1,2,0,2.9
		c0,0.3-0.1,0.5-0.2,0.4c-0.2,0-0.5-0.1-0.6-0.1c-0.3-0.1-0.3-0.2-0.3-0.5C86.9,88.4,86.9,87.9,86.9,86.7z"/>
	<path class="st1" d="M93.4,81.5c0.2,0.1,0.3,0.2,0.4,0.3c0,0,0.2-0.2,0.5-0.2c1.5,0,1.7,1.4,1.7,2.8c-0.1,1.5-0.6,4.9-2.4,4.9
		c-1.5,0-2-1.9-2-3.5C91.6,84.1,92.5,81.8,93.4,81.5z M93.3,88.4c1.3,0,1.7-3.7,1.8-4.5c0-0.4,0.1-1.4-0.5-1.4
		c-0.8,0-1.5,2.4-1.6,3.2c0,0.1-0.3-0.1-0.4-0.1c0,0-0.1,0.4-0.1,0.9C92.4,87.5,92.7,88.4,93.3,88.4z"/>
	<path class="st1" d="M98.2,81.5c0.2,0.1,0.3,0.2,0.4,0.3c0,0,0.2-0.2,0.5-0.2c1.5,0,1.7,1.4,1.7,2.8c-0.1,1.5-0.6,4.9-2.4,4.9
		c-1.5,0-2-1.9-2-3.5C96.5,84.1,97.3,81.8,98.2,81.5z M98.1,88.4c1.3,0,1.7-3.7,1.8-4.5c0-0.4,0.1-1.4-0.5-1.4
		c-0.8,0-1.5,2.4-1.6,3.2c0,0.1-0.3-0.1-0.4-0.1c0,0-0.1,0.4-0.1,0.9C97.2,87.5,97.5,88.4,98.1,88.4z"/>
	<path class="st1" d="M101.2,86.7c0.1-2.1,0.7-5.9,1-7.9c0-0.3,0.2-0.4,0.3-0.4c0.3,0,0.6,0.1,0.8,0.2c0.2,0.1,0.2,0.2,0.1,0.5
		c-0.3,1.5-0.7,4.3-0.8,5.1c0.6-0.8,2.3-2.6,3.3-2.6c0.2,0,0.4,0.2,0.4,0.4c-0.8,0.7-2.3,1.9-3.1,3c1,1.3,2,2.4,3.1,4.2
		c0.2,0.2,0.1,0.4,0,0.5c-0.2,0.1-0.4,0.2-0.6,0.2c-0.1,0-0.3,0.1-0.4-0.1c-1-1.6-2.2-3.2-2.8-3.8c-0.1,0.9-0.1,2,0,2.9
		c0,0.3-0.1,0.5-0.2,0.4c-0.2,0-0.5-0.1-0.6-0.1c-0.3-0.1-0.3-0.2-0.3-0.5C101.2,88.4,101.2,87.9,101.2,86.7z"/>
	<path class="st1" d="M64.4,80.5c0,0.3-0.2,0.5-0.5,0.5c-0.3,0-0.5-0.2-0.5-0.5s0.2-0.5,0.5-0.5C64.2,80,64.4,80.2,64.4,80.5"/>
	<path class="st1" d="M65.8,80.5c0,0.3-0.2,0.5-0.5,0.5s-0.5-0.2-0.5-0.5S65,80,65.3,80C65.6,80,65.8,80.2,65.8,80.5"/>
	<path class="st1" d="M94.3,80.5c0,0.3-0.2,0.5-0.5,0.5s-0.5-0.2-0.5-0.5s0.2-0.5,0.5-0.5C94.1,80,94.3,80.2,94.3,80.5"/>
	<path class="st1" d="M95.7,80.5c0,0.3-0.2,0.5-0.5,0.5s-0.5-0.2-0.5-0.5s0.2-0.5,0.5-0.5S95.7,80.2,95.7,80.5"/>
	<path class="st1" d="M99,80.5c0,0.3-0.2,0.5-0.5,0.5S98,80.8,98,80.5s0.2-0.5,0.5-0.5S99,80.2,99,80.5"/>
	<path class="st1" d="M100.4,80.5c0,0.3-0.2,0.5-0.5,0.5s-0.5-0.2-0.5-0.5s0.2-0.5,0.5-0.5C100.2,80,100.4,80.2,100.4,80.5"/>
</g>
</svg>
