<?xml version="1.0" encoding="utf-8"?>
<!-- Generator: Adobe Illustrator 24.2.3, SVG Export Plug-In . SVG Version: 6.00 Build 0)  -->
<svg version="1.1" id="Layer_1" xmlns="http://www.w3.org/2000/svg" xmlns:xlink="http://www.w3.org/1999/xlink" x="0px" y="0px"
	 viewBox="0 0 160 90" style="enable-background:new 0 0 160 90;" xml:space="preserve">
<style type="text/css">
	.st0{fill:#FFFFFF;}
</style>
<g>
	<path class="st0" d="M71.1,48.2c0.1-0.3,0.2-0.6,0.3-0.9c0.3-0.9,0.6-1.8,0.9-2.6c0.4-1.3,0.8-2.5,1.3-3.8c0.5-1.4,1-2.9,1.4-4.3
		c0.1-0.3,0.2-0.6,0.3-0.8c0.1-0.2,0.2-0.3,0.4-0.3c2.5,0,4.9,0,7.4,0c0.2,0,0.3,0.1,0.3,0.2c0,0.2,0,0.5,0,0.7s-0.1,0.2-0.3,0.2
		c-0.5,0-1.1,0-1.6,0c-0.7,0.1-0.9,0.3-0.9,1c0,3.9,0,7.7,0,11.6c0,1,0,1.9,0,2.9c0,0.8,0.4,1.2,1.1,1.2c0.5,0,0.9,0,1.4,0
		c0.2,0,0.3,0.1,0.3,0.3s0,0.5,0,0.7s-0.1,0.2-0.2,0.2c-3.1,0-6.2,0-9.3,0c-0.2,0-0.3-0.1-0.3-0.3s0-0.4,0-0.6
		c0-0.2,0.1-0.3,0.3-0.3c0.5,0,1,0,1.5,0c0.7,0,1.1-0.4,1.1-1.1c0-4.8,0-9.6,0-14.4c0-0.3,0-0.6,0-0.8h-0.1c0,0.1-0.1,0.3-0.1,0.4
		c-0.3,1-0.7,2-1,3.1c-0.4,1.2-0.8,2.3-1.2,3.5c-0.5,1.5-1,2.9-1.5,4.4c-0.4,1.2-0.8,2.3-1.2,3.5c-0.3,0.9-0.6,1.7-0.9,2.5
		c0,0.1-0.1,0.1-0.2,0.2h-0.1c-0.9,0-0.9,0-1.3-1c-0.5-1.6-1.1-3.3-1.6-4.9c-0.5-1.5-1-3-1.5-4.6s-1-3.1-1.6-4.7
		c-0.2-0.7-0.5-1.5-0.7-2.2c0-0.1-0.1-0.1-0.2-0.2c0,0.1,0,0.2,0,0.3c0,4.4,0,8.8,0,13.2c0,1.4,0.9,2.4,2.2,2.7
		c0.7,0.2,0.7,0.2,0.7,0.9c0,0.5,0,0.4-0.5,0.4c-2.1,0-4.2,0-6.3,0c-0.4,0-0.4,0-0.4-0.4c0-0.1,0-0.3,0-0.4
		c-0.1-0.3,0.1-0.4,0.4-0.5c1.1-0.2,1.8-0.8,2.2-1.8c0.1-0.3,0.2-0.7,0.2-1c0-4.3,0-8.5,0-12.8c0-0.7-0.3-1-1-1c-0.5,0-1,0-1.5,0
		c-0.2,0-0.3-0.1-0.3-0.3s0-0.4,0-0.6c0-0.2,0.1-0.3,0.3-0.3s0.3,0,0.5,0c2.2,0,4.4,0,6.6,0c0.3,0,0.4,0.1,0.5,0.4
		c0.4,1.1,0.8,2.2,1.1,3.3c0.4,1.2,0.8,2.4,1.2,3.6c0.4,1.2,0.8,2.4,1.2,3.6C70.6,47,70.8,47.6,71.1,48.2
		C71,48.2,71.1,48.2,71.1,48.2z"/>
	<path class="st0" d="M43.7,54.6c-0.1,0-0.2,0-0.3,0c-1.2,0-2.4,0-3.5,0c-0.2,0-0.3-0.1-0.4-0.3c-1.1-2.1-2.2-4.1-3.3-6.2
		c-0.2-0.4-0.5-0.6-1-0.6c-0.7,0.1-1.5,0-2.2,0c-0.2,0-0.3,0.1-0.3,0.3c0,2.2,0,4.3,0,6.5c0,0.2-0.1,0.2-0.3,0.2c-1,0-2.1,0-3.1,0
		c-0.2,0-0.2-0.1-0.2-0.2c0-6.1,0-12.1,0-18.2c0-0.7,0-0.7,0.7-0.7c2.5,0,5-0.1,7.4,0c2,0.1,3.8,0.8,5,2.6c0.6,0.9,1,2,1,3.1
		c0,0.7,0,1.4-0.2,2c-0.3,1.3-1,2.3-2.2,3c-0.4,0.2-0.7,0.4-1.1,0.5c-0.2,0.1-0.2,0.2-0.1,0.3c1.3,2.4,2.6,4.8,3.9,7.2
		C43.6,54.3,43.7,54.4,43.7,54.6z M32.7,41.6L32.7,41.6c0,0.9,0,1.7,0,2.6c0,0.3,0.1,0.4,0.3,0.3c0.7,0,1.5,0,2.2,0
		c0.8,0,1.7,0,2.5-0.3s1.5-0.7,1.7-1.5c0.2-0.5,0.2-1.1,0.1-1.6c0-0.9-0.6-1.6-1.4-2c-0.5-0.2-1-0.4-1.5-0.4c-1.2-0.1-2.5,0-3.7,0
		c-0.2,0-0.2,0.1-0.2,0.3C32.7,39.8,32.7,40.7,32.7,41.6z"/>
	<path class="st0" d="M25.8,54.6c-0.5,0-1.1,0-1.6,0c-0.2,0-0.3-0.1-0.3-0.2c-0.3-1.1-0.6-2.1-0.9-3.2c-0.1-0.3-0.2-0.3-0.5-0.3
		c-2.2,0-4.3,0-6.5,0c-0.2,0-0.3,0.1-0.3,0.2c-0.3,0.9-0.5,1.7-0.8,2.5c-0.1,0.2-0.1,0.5-0.2,0.7c0,0.1-0.2,0.2-0.3,0.2
		c-1.2,0-2.3,0-3.5,0c-0.2,0-0.2-0.1-0.2-0.2c0.6-1.8,1.2-3.5,1.8-5.3c0.4-1.2,0.8-2.3,1.2-3.4c0.5-1.4,1-2.9,1.4-4.3
		c0.4-1.2,0.8-2.4,1.2-3.6c0.2-0.7,0.5-1.3,0.7-2c0.1-0.2,0.2-0.3,0.4-0.3c1.1,0,2.3,0,3.4,0c0.3,0,0.4,0.1,0.5,0.3
		c0.2,0.7,0.5,1.4,0.7,2c0.4,1.2,0.8,2.5,1.3,3.7c0.6,1.7,1.2,3.4,1.7,5.1c0.4,1.2,0.8,2.3,1.2,3.5c0.5,1.4,0.9,2.7,1.4,4.1
		c0.1,0.2,0,0.3-0.2,0.3C26.9,54.6,26.4,54.6,25.8,54.6z M19.3,39.2c-0.1,0.1-0.1,0.1-0.1,0.1c-0.3,0.9-0.5,1.7-0.8,2.6
		c-0.3,1-0.6,2.1-0.9,3.1c-0.2,0.8-0.5,1.6-0.8,2.5c-0.1,0.2,0,0.3,0.2,0.3c1.5,0,3.1,0,4.6,0c0.2,0,0.3-0.1,0.2-0.3
		c-0.4-1.2-0.7-2.4-1.1-3.6c-0.4-1.4-0.9-2.9-1.3-4.3C19.4,39.4,19.3,39.3,19.3,39.2z"/>
	<path class="st0" d="M87.1,43.9c0-2,0-3.9,0-5.9c0-0.8-0.3-1.3-1.2-1.3c-0.4,0-0.7,0-1.1,0c-0.5,0-0.5,0-0.5-0.5
		c0-0.8,0-0.8,0.8-0.8c2.9,0,5.8,0,8.7,0c0.2,0,0.3,0.1,0.3,0.2c0,0.2,0,0.5,0,0.7s-0.1,0.2-0.3,0.2c-0.5,0-1,0-1.5,0
		c-0.8,0-1.1,0.4-1.1,1.1c0,3.6,0,7.2,0,10.8c0,1.7,0.6,3.1,2.2,3.9c0.8,0.4,1.8,0.5,2.7,0.5c0.7-0.1,1.4-0.2,2-0.5
		c1-0.4,1.6-1.2,2-2.2c0.3-0.8,0.4-1.6,0.4-2.4c0-2.8,0-5.5,0-8.3c0-0.7-0.1-1.5-0.6-2.1c-0.4-0.5-1-0.8-1.6-0.9
		c-0.6-0.1-0.6,0-0.6-0.6s0-0.6,0.6-0.6c2.1,0,4.2,0,6.4,0c0.2,0,0.3,0.1,0.3,0.3s0,0.4,0,0.6c0,0.2-0.1,0.3-0.3,0.3
		c-0.2,0-0.5,0-0.7,0.1c-0.9,0.2-1.5,1.1-1.7,1.9c-0.1,0.5-0.1,1.1-0.1,1.6c0,2.7,0,5.4,0,8.1c0,1.3-0.2,2.6-1,3.8
		c-0.8,1.1-1.7,1.8-3,2.3c-1.5,0.6-3.1,0.7-4.7,0.5c-1.8-0.2-3.5-0.7-4.9-1.9c-0.7-0.7-1.2-1.5-1.4-2.5c-0.1-0.6-0.1-1.3-0.1-1.9
		C87.1,47.1,87.1,45.5,87.1,43.9z"/>
	<path class="st0" d="M104.6,51.2c0-1.1,0-2.2,0-3.3c0-0.2,0.1-0.2,0.2-0.2h0.1c0.8,0,0.8,0,1.1,0.8c0.5,1.5,1.2,2.8,2.4,3.9
		c1.1,0.9,2.3,1.3,3.7,1.4c0.9,0,1.7,0,2.5-0.3c1.1-0.4,2-1.1,2.3-2.3s0-2.3-1.1-3.1c-0.6-0.4-1.3-0.6-2-0.8c-1.4-0.3-2.9-0.7-4.3-1
		c-1.1-0.3-2.2-0.8-3.1-1.6c-1-0.9-1.4-2-1.5-3.2c-0.1-1,0-1.9,0.4-2.8c0.5-1.3,1.5-2.3,2.8-2.9c2-0.9,4-0.9,6.1-0.1
		c0.8,0.3,1.4,0.8,2.1,1.2c0.2,0.1,0.3,0.1,0.4-0.1c0.2-0.4,0.5-0.7,0.7-1.1c0.2-0.3,0.4-0.4,0.7-0.4c0.5,0,0.5,0,0.5,0.5
		c0,1.1,0,2.3,0,3.4c0,0.8,0,1.5,0,2.3c0,0.3-0.1,0.4-0.4,0.4c-0.8,0-0.8,0-1-0.7c-0.6-1.6-1.4-3-2.9-4c-1.4-0.9-2.9-1.3-4.5-0.9
		c-1.2,0.3-2.1,1.1-2.5,2.3c-0.3,1.1,0,2,1,2.8c0.6,0.5,1.4,0.7,2.2,0.9c1.2,0.3,2.5,0.6,3.7,0.9c1.1,0.3,2.2,0.6,3.2,1.3
		c1.4,1,2.1,2.3,2.1,4c0,1-0.1,2-0.5,3c-0.6,1.2-1.6,2-2.7,2.6c-1.8,0.9-3.6,1.1-5.6,0.7c-1.3-0.3-2.5-0.9-3.6-1.7
		c-0.2-0.2-0.3-0.2-0.5,0c-0.3,0.5-0.7,0.9-1,1.3c-0.2,0.2-0.4,0.3-0.6,0.3c-0.6,0-0.6,0-0.6-0.6C104.6,53.2,104.6,52.2,104.6,51.2
		L104.6,51.2z"/>
	<path class="st0" d="M52.6,46.7c0,2.5,0,5.1,0,7.6c0,0.3-0.1,0.3-0.3,0.3c-1,0-2,0-3,0c-0.2,0-0.3,0-0.3-0.3c0-1.2,0-2.4,0-3.6
		c0-3.8,0-7.5,0-11.3c0-0.6,0-0.6-0.6-0.6c-1.4,0-2.8,0-4.2,0c-0.3,0-0.4-0.1-0.4-0.4c0-0.8,0-1.7,0-2.5c0-0.3,0.1-0.4,0.4-0.4
		c4.3,0,8.7,0,13,0c0.8,0,0.7-0.1,0.7,0.7c0,0.7,0,1.5,0,2.2c0,0.3-0.1,0.3-0.4,0.3c-1.6,0-3.1,0-4.7,0c-0.2,0-0.2,0.1-0.2,0.3
		C52.6,41.6,52.6,44.1,52.6,46.7z"/>
	<path class="st0" d="M8.8,46.7c0,2.5,0,5.1,0,7.6c0,0.2-0.1,0.3-0.3,0.3c-1,0-2,0-3,0c-0.2,0-0.3,0-0.3-0.3c0-4.7,0-9.4,0-14.1
		c0-0.4,0-0.8,0-1.2c0-0.2-0.1-0.3-0.3-0.3c-1.5,0-3.1,0-4.6,0c-0.2,0-0.3-0.1-0.3-0.3c0-0.9,0-1.8,0-2.6c0-0.2,0.1-0.3,0.3-0.3
		c0.5,0,1,0,1.5,0c4,0,8,0,12,0c0.2,0,0.3,0.1,0.3,0.3c0,0.9,0,1.8,0,2.6c0,0.3-0.1,0.3-0.4,0.3c-1.6,0-3.1,0-4.7,0
		c-0.2,0-0.3,0.1-0.3,0.3c0,1.4,0,2.7,0,4.1C8.8,44.3,8.8,45.5,8.8,46.7L8.8,46.7z"/>
	<g>
		<path class="st0" d="M126.9,36.1v2.8h-0.7v-2.8h-0.9v-0.6h2.5v0.6H126.9z"/>
		<path class="st0" d="M129.3,38.7c-0.3,0.2-0.5,0.2-0.7,0.2c-0.5,0-0.8-0.3-0.8-0.8s0.5-0.8,0.9-0.8h0.6v-0.1
			c0-0.2-0.1-0.4-0.5-0.4c-0.2,0-0.4,0-0.7,0.2l-0.3-0.5c0.4-0.3,0.7-0.3,1-0.3c0.7,0,1,0.3,1,1v1.6h-0.6L129.3,38.7L129.3,38.7z
			 M129.3,37.9h-0.5c-0.2,0-0.3,0-0.3,0.2c0,0.1,0.1,0.2,0.3,0.2s0.4-0.1,0.6-0.2v-0.2H129.3z"/>
		<path class="st0" d="M132.1,37.1c-0.4,0-0.7,0.1-0.9,0.3V39h-0.6v-2.5h0.6v0.4l0,0c0.2-0.2,0.6-0.4,0.9-0.4V37.1z"/>
		<path class="st0" d="M132.2,37v-0.5h0.3l0.1-0.6h0.5v0.6h0.6V37h-0.6v1c0,0.2,0,0.4,0.3,0.4c0.1,0,0.2,0,0.4-0.1l0.1,0.5
			c-0.2,0.1-0.5,0.1-0.6,0.1c-0.6,0-0.8-0.4-0.8-0.9v-1H132.2z"/>
		<path class="st0" d="M134.9,36.4V38c0,0.3,0.2,0.4,0.3,0.4c0.2,0,0.3-0.1,0.6-0.2v-1.7h0.6V39h-0.6l-0.1-0.2
			c-0.4,0.2-0.6,0.3-0.8,0.3c-0.6,0-0.8-0.4-0.8-0.9v-1.6h0.8V36.4z"/>
		<path class="st0" d="M126.2,42.2c0.2-0.2,0.4-0.4,0.6-0.7l0.7-0.8h0.8l-1.2,1.4l1.2,2.1h-0.8l-0.9-1.5c-0.2,0.2-0.3,0.4-0.5,0.6v1
			h-0.7v-3.5h0.7L126.2,42.2L126.2,42.2z"/>
		<path class="st0" d="M129.2,41.7v1.5c0,0.3,0.2,0.4,0.3,0.4c0.2,0,0.3-0.1,0.6-0.2v-1.7h0.6v2.5h-0.6L130,44
			c-0.4,0.2-0.6,0.3-0.8,0.3c-0.6,0-0.8-0.4-0.8-0.9v-1.6L129.2,41.7L129.2,41.7z"/>
		<path class="st0" d="M132.8,44.2v-1.5c0-0.3-0.1-0.4-0.3-0.4s-0.3,0.1-0.6,0.2v1.7h-0.6v-2.5h0.6l0.1,0.2c0.4-0.2,0.6-0.3,0.8-0.3
			c0.5,0,0.8,0.4,0.8,0.9v1.6L132.8,44.2L132.8,44.2z"/>
		<path class="st0" d="M133.8,43.8l0.3-0.5c0.2,0.2,0.5,0.3,0.8,0.3c0.2,0,0.4-0.1,0.4-0.2c0-0.1-0.1-0.2-0.3-0.2
			c-0.5-0.1-1-0.2-1-0.7s0.5-0.8,0.9-0.8s0.7,0,1,0.3l-0.3,0.5c-0.3-0.2-0.5-0.2-0.7-0.2s-0.3,0.1-0.3,0.2c0,0.4,1.4,0,1.4,1
			c0,0.5-0.5,0.8-1,0.8C134.5,44.2,134.2,44.1,133.8,43.8z"/>
		<path class="st0" d="M136.2,42.2v-0.5h0.3l0.1-0.6h0.5v0.6h0.6v0.5h-0.6v1c0,0.2,0,0.4,0.3,0.4c0.1,0,0.2,0,0.4-0.1l0.1,0.5
			c-0.2,0.1-0.5,0.1-0.6,0.1c-0.6,0-0.8-0.4-0.8-0.9v-1.1L136.2,42.2L136.2,42.2z"/>
		<path class="st0" d="M138.6,40.6c0.2,0,0.4,0.2,0.4,0.4s-0.2,0.4-0.4,0.4s-0.4-0.2-0.4-0.4S138.4,40.6,138.6,40.6z M138.3,44.2
			v-2.5h0.6v2.5H138.3z"/>
		<path class="st0" d="M141.5,42c0.4-0.3,0.6-0.3,0.8-0.3c0.5,0,0.8,0.4,0.8,0.9v1.6h-0.6v-1.5c0-0.3-0.1-0.4-0.3-0.4
			c-0.1,0-0.3,0.1-0.5,0.2c0,0.1,0,0.2,0,0.2v1.4H141v-1.6c0-0.3-0.1-0.4-0.3-0.4s-0.3,0.1-0.5,0.2V44h-0.6v-2.5h0.6l0.1,0.2
			c0.3-0.2,0.5-0.3,0.7-0.3C141.2,41.6,141.4,41.8,141.5,42z"/>
		<path class="st0" d="M144.2,41.7v1.5c0,0.3,0.2,0.4,0.3,0.4c0.2,0,0.3-0.1,0.6-0.2v-1.7h0.6v2.5h-0.6L145,44
			c-0.4,0.2-0.6,0.3-0.8,0.3c-0.6,0-0.8-0.4-0.8-0.9v-1.6L144.2,41.7L144.2,41.7z"/>
		<path class="st0" d="M146.8,41.7v1.5c0,0.3,0.2,0.4,0.3,0.4c0.2,0,0.3-0.1,0.6-0.2v-1.7h0.6v2.5h-0.6l-0.1-0.2
			c-0.4,0.2-0.6,0.3-0.8,0.3c-0.6,0-0.8-0.4-0.8-0.9v-1.6L146.8,41.7L146.8,41.7z"/>
		<path class="st0" d="M148.7,43.8l0.3-0.5c0.2,0.2,0.5,0.3,0.8,0.3c0.2,0,0.4-0.1,0.4-0.2c0-0.1-0.1-0.2-0.3-0.2
			c-0.5-0.1-1-0.2-1-0.7s0.5-0.8,0.9-0.8s0.7,0,1,0.3l-0.3,0.5c-0.3-0.2-0.5-0.2-0.7-0.2s-0.3,0.1-0.3,0.2c0,0.4,1.4,0,1.4,1
			c0,0.5-0.5,0.8-1,0.8C149.5,44.2,149.1,44.1,148.7,43.8z"/>
		<path class="st0" d="M151.9,43.1L151.9,43.1c0,0.4,0.2,0.5,0.5,0.5c0.1,0,0.4,0,0.6-0.2l0.4,0.4c-0.3,0.3-0.6,0.3-0.9,0.3
			c-0.6,0-1.1-0.3-1.1-0.9v-0.6c0-0.6,0.5-1,1.1-1s1.1,0.4,1.1,1v0.5H151.9z M152.3,42.2c-0.2,0-0.4,0.2-0.4,0.4l0,0h0.9v-0.1
			C152.7,42.3,152.5,42.2,152.3,42.2z"/>
		<path class="st0" d="M154.4,41.7v1.5c0,0.3,0.2,0.4,0.3,0.4c0.2,0,0.3-0.1,0.6-0.2v-1.7h0.6v2.5h-0.6l-0.1-0.2
			c-0.4,0.2-0.6,0.3-0.8,0.3c-0.6,0-0.8-0.4-0.8-0.9v-1.6L154.4,41.7L154.4,41.7z"/>
		<path class="st0" d="M158.4,42c0.4-0.3,0.6-0.3,0.8-0.3c0.5,0,0.8,0.4,0.8,0.9v1.6h-0.6v-1.5c0-0.3-0.1-0.4-0.3-0.4
			c-0.1,0-0.3,0.1-0.5,0.2c0,0.1,0,0.2,0,0.2v1.4H158v-1.6c0-0.3-0.1-0.4-0.3-0.4s-0.3,0.1-0.5,0.2V44h-0.6v-2.5h0.6l0.1,0.2
			c0.3-0.2,0.5-0.3,0.7-0.3C158.1,41.6,158.3,41.8,158.4,42z"/>
		<path class="st0" d="M127.4,48.7h-1.2l-0.2,0.7h-0.7l1.2-3.5h0.7l1.2,3.5h-0.8L127.4,48.7z M126.4,48.1h0.8l-0.1-0.4l-0.3-0.9l0,0
			l-0.3,0.9L126.4,48.1z"/>
		<path class="st0" d="M130.3,47.5c-0.4,0-0.7,0.1-0.9,0.3v1.6h-0.6v-2.5h0.6v0.4l0,0c0.2-0.2,0.6-0.4,0.9-0.4V47.5z"/>
		<path class="st0" d="M130.4,47.4v-0.5h0.3l0.1-0.6h0.5v0.6h0.6v0.5h-0.6v1c0,0.2,0,0.4,0.3,0.4c0.1,0,0.2,0,0.4-0.1l0.1,0.5
			c-0.2,0.1-0.5,0.1-0.6,0.1c-0.6,0-0.8-0.4-0.8-0.9v-1.1L130.4,47.4L130.4,47.4z"/>
		<path class="st0" d="M136.5,47.5l-0.3,0.6l-0.4,0.7h-0.5l-0.4-0.7l-0.3-0.7l0,0v1.9h-0.7v-3.5h0.6l0.6,1.2l0.4,0.9l0,0l0.4-0.9
			l0.6-1.2h0.6v3.5h-0.7L136.5,47.5L136.5,47.5z"/>
		<path class="st0" d="M138.3,46.9v1.5c0,0.3,0.2,0.4,0.3,0.4c0.2,0,0.3-0.1,0.6-0.2v-1.7h0.6v2.5h-0.6l-0.1-0.2
			c-0.4,0.2-0.6,0.3-0.8,0.3c-0.6,0-0.8-0.4-0.8-0.9V47L138.3,46.9L138.3,46.9z"/>
		<path class="st0" d="M140.2,49l0.3-0.5c0.2,0.2,0.5,0.3,0.8,0.3c0.2,0,0.4-0.1,0.4-0.2c0-0.1-0.1-0.2-0.3-0.2
			c-0.5-0.1-1-0.2-1-0.7s0.5-0.8,0.9-0.8s0.7,0,1,0.3l-0.3,0.5c-0.3-0.2-0.5-0.2-0.7-0.2s-0.3,0.1-0.3,0.2c0,0.4,1.4,0,1.4,1
			c0,0.5-0.5,0.8-1,0.8C141,49.4,140.6,49.3,140.2,49z"/>
		<path class="st0" d="M143.4,48.3L143.4,48.3c0,0.4,0.2,0.5,0.5,0.5c0.1,0,0.4,0,0.6-0.2l0.4,0.4c-0.3,0.3-0.6,0.3-0.9,0.3
			c-0.6,0-1.1-0.3-1.1-0.9v-0.6c0-0.6,0.5-1,1.1-1s1.1,0.4,1.1,1v0.5H143.4z M143.8,47.4c-0.2,0-0.4,0.2-0.4,0.4l0,0h0.9v-0.1
			C144.2,47.6,144,47.4,143.8,47.4z"/>
		<path class="st0" d="M145.9,46.9v1.5c0,0.3,0.2,0.4,0.3,0.4c0.2,0,0.3-0.1,0.6-0.2v-1.7h0.6v2.5h-0.6l-0.1-0.2
			c-0.4,0.2-0.6,0.3-0.8,0.3c-0.6,0-0.8-0.4-0.8-0.9V47L145.9,46.9L145.9,46.9z"/>
		<path class="st0" d="M149.9,47.2c0.4-0.3,0.6-0.3,0.8-0.3c0.5,0,0.8,0.4,0.8,0.9v1.6h-0.6v-1.5c0-0.3-0.1-0.4-0.3-0.4
			c-0.1,0-0.3,0.1-0.5,0.2c0,0.1,0,0.2,0,0.2v1.4h-0.6v-1.6c0-0.3-0.1-0.4-0.3-0.4s-0.3,0.1-0.5,0.2v1.7H148v-2.5h0.6l0.1,0.2
			c0.3-0.2,0.5-0.3,0.7-0.3C149.6,46.8,149.8,47,149.9,47.2z"/>
		<path class="st0" d="M125.3,52.6v-0.5h0.3l0.1-0.6h0.5v0.6h0.6v0.5h-0.6v1c0,0.2,0,0.4,0.3,0.4c0.1,0,0.2,0,0.4-0.1l0.1,0.5
			c-0.2,0.1-0.5,0.1-0.6,0.1c-0.6,0-0.8-0.4-0.8-0.9v-1.1L125.3,52.6L125.3,52.6z"/>
		<path class="st0" d="M128.8,54.4c-0.3,0.2-0.5,0.2-0.7,0.2c-0.5,0-0.8-0.3-0.8-0.8s0.5-0.8,0.9-0.8h0.6v0c0-0.2-0.1-0.4-0.5-0.4
			c-0.2,0-0.4,0-0.7,0.2l-0.3-0.5c0.4-0.3,0.7-0.3,1-0.3c0.7,0,1,0.3,1,1v1.6h-0.6L128.8,54.4L128.8,54.4z M128.9,53.6h-0.5
			c-0.2,0-0.3,0-0.3,0.2c0,0.1,0.1,0.2,0.3,0.2s0.4-0.1,0.6-0.2v-0.2H128.9z"/>
		<path class="st0" d="M131.6,52.7c-0.4,0-0.7,0.1-0.9,0.3v1.6H130v-2.5h0.6v0.4l0,0c0.2-0.2,0.6-0.4,0.9-0.4v0.6H131.6z"/>
		<path class="st0" d="M131.8,52.6v-0.5h0.3l0.1-0.6h0.5v0.6h0.6v0.5h-0.6v1c0,0.2,0,0.4,0.3,0.4c0.1,0,0.2,0,0.4-0.1l0.1,0.5
			c-0.2,0.1-0.5,0.1-0.6,0.1c-0.6,0-0.8-0.4-0.8-0.9v-1.1L131.8,52.6L131.8,52.6z"/>
		<path class="st0" d="M135.7,52.4c0.4-0.3,0.6-0.3,0.8-0.3c0.5,0,0.8,0.4,0.8,0.9v1.6h-0.6V53c0-0.3-0.1-0.4-0.3-0.4
			c-0.1,0-0.3,0.1-0.5,0.2c0,0.1,0,0.2,0,0.2v1.4h-0.6V53c0-0.3-0.1-0.4-0.3-0.4s-0.3,0.1-0.5,0.2v1.7h-0.6V52h0.6l0.1,0.2
			c0.3-0.2,0.5-0.3,0.7-0.3C135.4,52.1,135.6,52.2,135.7,52.4z"/>
		<path class="st0" d="M138.4,52.1v1.5c0,0.3,0.2,0.4,0.3,0.4c0.2,0,0.3-0.1,0.6-0.2v-1.7h0.6v2.5h-0.6l-0.1-0.2
			c-0.4,0.2-0.6,0.3-0.8,0.3c-0.6,0-0.8-0.4-0.8-0.9v-1.6L138.4,52.1L138.4,52.1z"/>
		<path class="st0" d="M140.3,54.2l0.3-0.5c0.2,0.2,0.5,0.3,0.8,0.3c0.2,0,0.4-0.1,0.4-0.2c0-0.1-0.1-0.2-0.3-0.2
			c-0.5-0.1-1-0.2-1-0.7s0.5-0.8,0.9-0.8s0.7,0,1,0.3l-0.3,0.5c-0.3-0.2-0.5-0.2-0.7-0.2s-0.3,0.1-0.3,0.2c0,0.4,1.4,0,1.4,1
			c0,0.5-0.5,0.8-1,0.8C141,54.6,140.7,54.6,140.3,54.2z"/>
		<path class="st0" d="M142.9,54.2c0-0.2,0.2-0.4,0.4-0.4s0.4,0.2,0.4,0.4s-0.2,0.4-0.4,0.4C143.1,54.6,142.9,54.4,142.9,54.2z"/>
		<path class="st0" d="M144.9,53.5L144.9,53.5c0,0.4,0.2,0.5,0.5,0.5c0.1,0,0.4,0,0.6-0.2l0.4,0.4c-0.3,0.3-0.6,0.3-0.9,0.3
			c-0.6,0-1.1-0.3-1.1-0.9V53c0-0.6,0.5-1,1.1-1s1.1,0.4,1.1,1v0.5H144.9z M145.3,52.6c-0.2,0-0.4,0.2-0.4,0.4l0,0h0.9v-0.1
			C145.7,52.8,145.5,52.6,145.3,52.6z"/>
		<path class="st0" d="M147.4,53.5L147.4,53.5c0,0.4,0.2,0.5,0.5,0.5c0.1,0,0.4,0,0.6-0.2l0.4,0.4c-0.3,0.3-0.6,0.3-0.9,0.3
			c-0.6,0-1.1-0.3-1.1-0.9V53c0-0.6,0.5-1,1.1-1s1.1,0.4,1.1,1v0.5H147.4z M147.9,52.6c-0.2,0-0.4,0.2-0.4,0.4l0,0h0.9v-0.1
			C148.3,52.8,148.1,52.6,147.9,52.6z"/>
	</g>
</g>
</svg>
