<?xml version="1.0" encoding="utf-8"?>
<!-- Generator: Adobe Illustrator 24.2.3, SVG Export Plug-In . SVG Version: 6.00 Build 0)  -->
<svg version="1.1" id="Layer_1" xmlns="http://www.w3.org/2000/svg" xmlns:xlink="http://www.w3.org/1999/xlink" x="0px" y="0px"
	 viewBox="0 0 160 90" style="enable-background:new 0 0 160 90;" xml:space="preserve">
<style type="text/css">
	.st0{fill:#FFFFFF;}
</style>
<g>
	<path class="st0" d="M74.7,40.8l-2,6.7c-0.3,1-0.6,2.1-0.9,3.2c0,0.1-0.1,0.2-0.2,0.2s-0.2-0.1-0.2-0.2c-0.3-1.1-0.5-2.1-0.9-3.2
		l-2-6.7c-0.2-0.6-0.5-0.9-1.1-0.9c-0.4,0-0.8,0.1-1.2,0.3l3.6,11.6c0.1,0.4,0.3,0.6,0.5,0.7c0.2,0.1,0.5,0.2,0.9,0.2
		c0.1,0,0.3,0,0.4,0c0.2,0,0.3,0,0.4,0c0.4,0,0.7-0.1,0.9-0.2c0.2-0.1,0.4-0.4,0.5-0.7L77,40.2c-0.4-0.2-0.9-0.3-1.2-0.3
		C75.3,39.9,74.9,40.2,74.7,40.8"/>
	<path class="st0" d="M81.5,40h-0.3c-0.5,0-0.9,0-1.1,0.1l-4.3,12.4c0.3,0.2,0.6,0.2,1,0.2s0.7-0.1,0.9-0.2c0.2-0.1,0.3-0.4,0.5-0.8
		l0.7-2.2h1.2h2.7H84l0,0l0.7,2.2c0.1,0.4,0.3,0.7,0.5,0.8s0.5,0.2,0.9,0.2s0.7-0.1,1-0.2L82.6,40C82.3,40,82,40,81.5,40 M83.3,48
		c-0.1,0-0.4,0-1,0h-2c-0.6,0-0.9,0-1,0h-0.1v-0.1l0.9-2.7c0.4-1.4,0.8-2.5,1-3.3l0,0h0.2l0,0c0.2,0.8,0.6,1.9,1,3.3L83.3,48
		L83.3,48z"/>
	<path class="st0" d="M107.9,40.4c-0.2-0.2-0.6-0.3-1-0.3h-6.8H100c0,0,0,0,0,0.1v11.3c0,0.4,0.1,0.7,0.3,0.9
		c0.2,0.2,0.5,0.3,0.8,0.3h5.8c0.7,0,1.2-0.3,1.3-0.9c0-0.2,0.1-0.4,0.1-0.7h-5c-0.5,0-0.9,0-1.3,0.1l0,0v-1V47l0,0
		c0.3,0,0.7,0,1.2,0h3.6c0.1-0.2,0.1-0.5,0.1-0.8s0-0.6-0.1-0.8h-3.6H102v-2.9v-0.9h0.6c0.2,0,0.5,0,0.8,0h5c0-0.3,0-0.5-0.1-0.7
		C108.2,40.7,108.1,40.5,107.9,40.4"/>
	<path class="st0" d="M155,41.6h5c0-0.3,0-0.5-0.1-0.7c0-0.2-0.1-0.4-0.3-0.6c-0.2-0.2-0.6-0.3-1-0.3h-6.8h-0.1c0,0,0,0,0,0.1v11.3
		c0,0.4,0.1,0.7,0.3,0.9s0.5,0.3,0.8,0.3h5.8c0.7,0,1.2-0.3,1.3-0.9c0-0.2,0.1-0.4,0.1-0.7h-5c-0.5,0-0.9,0-1.3,0.1l0,0v-1V47l0,0
		c0.3,0,0.7,0,1.2,0h3.6c0.1-0.2,0.1-0.5,0.1-0.8s0-0.6-0.1-0.8H155h-1.2v-2.9v-0.9h0.6C154.5,41.6,154.8,41.6,155,41.6"/>
	<path class="st0" d="M133.7,40L133.7,40L133.7,40h-0.9c-0.4,0-0.7,0.1-0.9,0.3s-0.3,0.5-0.3,0.9v7c0,1-0.2,1.8-0.7,2.3
		s-1.2,0.8-2.1,0.8l0,0c-0.9,0-1.7-0.3-2.1-0.8c-0.5-0.5-0.7-1.3-0.7-2.3v-7c0-0.4-0.1-0.7-0.3-0.9c-0.2-0.2-0.5-0.3-0.9-0.3H124
		l0,0h-0.1l0,0v8.2c0,1.5,0.4,2.7,1.3,3.4c0.9,0.8,2.1,1.2,3.5,1.2l0,0c1.5,0,2.7-0.4,3.5-1.2c0.9-0.8,1.3-1.9,1.3-3.4L133.7,40
		L133.7,40"/>
	<path class="st0" d="M137.7,40L137.7,40h-0.8c-0.4,0-0.7,0.1-0.9,0.3s-0.3,0.5-0.3,0.9v11.4l0,0c0,0,0,0,0.1,0h0.8
		c0.4,0,0.7-0.1,0.9-0.3s0.3-0.5,0.3-0.9L137.7,40C137.8,40,137.8,40,137.7,40C137.8,40,137.7,40,137.7,40"/>
	<path class="st0" d="M121.5,41.1c0-0.4-0.1-0.7-0.2-0.9c-0.1-0.1-0.3-0.2-0.5-0.2c0,0-1.6,0-1.9,0.1l-1.8,5.8c-0.3,1-0.6,2-0.8,2.9
		l0,0H116l0,0c-0.2-1-0.4-1.9-0.8-2.9l-1.8-5.8c-0.3,0-1.9-0.1-1.9-0.1c-0.2,0-0.4,0.1-0.5,0.2c-0.2,0.2-0.2,0.5-0.2,0.9l-0.9,11.5
		c0,0,0.8,0.1,1,0.1c0.1,0,0.2,0,0.3,0c0.1,0,0.3-0.1,0.3-0.2c0.2-0.2,0.3-0.5,0.3-0.9l0.1-1.8l0.3-3.9c0-0.6,0.1-1.8,0.2-3.8l0,0
		h0.2l0,0c0,0,2.5,8.1,2.6,8.3c0.2,0.4,1.1,0.4,1.1,0.4c0.3,0,0.9,0,1.1-0.4c0.1-0.1,2.6-8.3,2.6-8.3l0,0h0.2l0,0
		c0.1,1.9,0.1,3.1,0.2,3.8l0.3,3.9l0.1,1.8c0,0.4,0.1,0.7,0.3,0.9c0.1,0.1,0.2,0.1,0.3,0.2c0.1,0,0.2,0,0.3,0c0.2,0,0.9-0.1,1-0.1
		L121.5,41.1"/>
	<path class="st0" d="M97.8,40C97.8,40,97.7,40,97.8,40H97c-0.4,0-0.7,0.1-0.8,0.3C96,40.5,96,40.8,96,41.2v4.6
		c0,1.5,0.1,3.1,0.2,4.7l0,0h-0.1l0,0c-0.1-0.1-0.3-0.5-0.6-1.2c-0.3-0.6-0.5-1.1-0.7-1.5L90.6,40c-0.4,0-0.8-0.1-1.2-0.1h-0.1l0,0
		c-0.1,0-0.1,0-0.2,0c-0.3,0-0.5,0.1-0.7,0.3c-0.1,0.2-0.2,0.5-0.2,0.9l0,0v1.2l0,0v10.2l0,0c0,0,0,0,0.1,0H89
		c0.4,0,0.7-0.1,0.8-0.3C90,52,90,51.7,90,51.3v-4.6c0-1.3-0.1-2.9-0.2-4.5l0,0h0.1l0,0c0.4,0.9,0.8,1.8,1.2,2.6l4.1,7.7
		c0.4,0,0.8,0.1,1.2,0.1c0.4,0,0.9,0,1.2-0.1L97.8,40L97.8,40"/>
	<path class="st0" d="M149.6,40C149.6,40,149.5,40,149.6,40h-0.7c-0.4,0-0.7,0.1-0.8,0.3c-0.2,0.2-0.2,0.5-0.2,0.9v4.6
		c0,1.5,0.1,3.1,0.2,4.7l0,0H148l0,0c-0.1-0.1-0.3-0.5-0.6-1.2c-0.3-0.6-0.5-1.1-0.7-1.5l-4.1-7.7c-0.4,0-0.8-0.1-1.2-0.1h-0.1l0,0
		c-0.1,0-0.1,0-0.2,0c-0.3,0-0.5,0.1-0.7,0.3c-0.1,0.2-0.2,0.5-0.2,0.9l0,0v1.2l0,0v10.2l0,0c0,0,0,0,0.1,0h0.7
		c0.4,0,0.7-0.1,0.8-0.3c0.2-0.2,0.2-0.5,0.2-0.9v-4.6c0-1.3-0.1-2.9-0.2-4.5l0,0h0.1l0,0c0.4,0.9,0.8,1.8,1.2,2.6l4.1,7.7
		c0.4,0,0.8,0.1,1.2,0.1s0.9,0,1.2-0.1V40L149.6,40"/>
	<path class="st0" d="M22.7,52.8c-0.1-0.1-0.2-0.2-3.2-0.2c-2.9,0-3,0.1-3.2,0.2c-0.4,0.3-0.5,1.4-0.3,2c0.2,1.1,2.5,2.3,3.5,2.3
		c0,0,0,0,0.1,0c1,0,3.2-1.2,3.4-2.3C23.2,54.2,23.2,53.1,22.7,52.8 M22.1,54.5C22.1,54.5,22.1,54.6,22.1,54.5
		c-0.1,0.5-1.6,1.6-2.5,1.6l0,0l0,0l0,0l0,0c-0.9,0-2.5-1.1-2.5-1.5v-0.1c-0.1-0.3-0.1-0.7,0-0.9c0.4,0,1.3,0,2.6,0
		c1.3,0,2.2,0,2.6,0C22.2,53.8,22.2,54.2,22.1,54.5z"/>
	<path class="st0" d="M45.3,52.6c-1,0-3.3,1.2-3.5,2.3c-0.2,0.6-0.1,1.6,0.3,2c0.1,0.1,0.2,0.2,3.2,0.2c2.9,0,3-0.1,3.2-0.2
		c0.4-0.3,0.5-1.4,0.3-2C48.7,53.8,46.4,52.5,45.3,52.6 M48,56c-0.4,0-1.3,0-2.6,0s-2.2,0-2.6,0c0-0.2-0.1-0.6,0-0.9V55
		c0-0.4,1.6-1.5,2.4-1.5l0,0c0,0,0,0,0.1,0l0,0c0.9,0,2.5,1.1,2.5,1.5v0.1C48,55.4,48,55.8,48,56z"/>
	<path class="st0" d="M65.2,57.6c-0.1-0.9-0.3-1-0.4-1.1c-1-0.5-1.1-1.2-1.3-2.1c0-0.1-2.1-11.3-2.3-12.1c-0.6-3.6-0.5-6.3,0.2-7.2
		c0.6-0.7,0.7-1.6,0.4-2.4c-0.4-0.8-1.2-1.3-2-1.3c-0.4,0-1.1,0.1-1.6,0.8c-0.6,0.7-1.7,1-3.1,1c-1.2,0-2.3-0.2-3.1-0.4
		c0.2-0.3,0.7-0.6,1.4-0.6c1.9,0,1.9-3.8,0-3.8h-0.1c-0.1,0-0.1,0-0.2,0c-0.1,0-0.4,0-0.9,0l0,0c-0.1,0-0.3,0-0.5,0l0,0
		c-0.1,0-0.2,0-0.3,0s-0.2,0-0.3,0H51c-0.1,0-0.1,0-0.2,0h-0.1c-0.1,0-0.1,0-0.1,0h-0.1h-0.1h-0.1h-0.1h-0.1H50h-0.1
		c0,0-0.1,0-0.1,0.1c0,0-0.1,0-0.1,0.1c0,0-0.1,0-0.1,0.1c0,0,0,0-0.1,0.1c0,0,0,0-0.1,0.1c0,0,0,0-0.1,0.1c0,0,0,0-0.1,0l-0.1,0.1
		c0,0,0,0-0.1,0c0,0,0,0-0.1,0l0,0c0,0,0,0-0.1,0l0,0l0,0l0,0l0,0l0,0l0,0l0,0c-0.4-0.1-0.7-0.6-0.9-0.9c-0.7-0.8-1.4-0.9-2.2-0.9
		c-0.1,0-0.3,0-0.4,0c-0.1,0-0.3,0-0.4,0c-0.8,0-1.5,0.1-2.2,0.9c-0.2,0.3-0.5,0.8-0.9,0.9l0,0l0,0l0,0l0,0l0,0l0,0l0,0l0,0l0,0
		c0,0,0,0-0.1,0c0,0,0,0-0.1,0c0,0-0.1,0-0.1-0.1c0,0,0,0-0.1-0.1c0,0,0,0-0.1,0c0,0,0,0-0.1-0.1c0,0,0,0-0.1,0c0,0-0.1,0-0.1-0.1
		c0,0,0,0-0.1,0c0,0-0.1,0-0.1-0.1h-0.1c0,0-0.1,0-0.1-0.1h-0.1h-0.1h-0.1h-0.1h-0.1c0,0-0.1,0-0.2,0h-0.1c-0.1,0-0.1,0-0.2,0h-0.1
		c-0.1,0-0.2,0-0.3,0s-0.2,0-0.3,0l0,0c-0.2,0-0.3,0-0.5,0l0,0c-0.5,0-0.8,0-0.9,0c-0.1,0-0.2,0-0.2,0h-0.1c-1.9,0-1.9,3.8,0,3.8
		c0.7,0,1.1,0.2,1.3,0.5C38,33,37,33.4,35.9,33.5c0-0.2-0.1-0.5-0.2-0.7c-0.4-0.8-1.2-1.3-2-1.3c-0.4,0-1.1,0.1-1.6,0.8
		c-0.6,0.7-1.7,1-3.1,1c-1.3,0-2.6-0.3-3.4-0.5c0.2-0.3,0.6-0.4,1.6-0.4c1.9,0,1.9-3.8,0-3.8c-0.1,0-0.1,0-0.1,0c-0.1,0-0.2,0-0.4,0
		c-0.2,0-0.4,0-0.7,0c-0.1,0-0.2,0-0.2,0c-0.1,0-0.2,0-0.3,0h-0.1c-0.1,0-0.1,0-0.2,0h-0.1c-0.1,0-0.1,0-0.1,0h-0.1h-0.1h-0.1h-0.1
		h-0.1h-0.1h-0.1h-0.1h-0.1H24c0,0,0,0-0.1,0c0,0,0,0-0.1,0c0,0,0,0-0.1,0c0,0,0,0-0.1,0c0,0-0.1,0-0.1,0.1c0,0,0,0-0.1,0
		c0,0,0,0-0.1,0l0,0l0,0l0,0l0,0l0,0l0,0l0,0l0,0c0,0,0,0-0.1,0c-0.4-0.1-0.7-0.5-0.9-0.8c-0.7-0.8-1.7-1.1-2.5-1.1
		c-0.1,0-0.1,0-0.2,0c0,0-0.1,0-0.2,0c-0.8,0-1.8,0.2-2.5,1.1c-0.2,0.3-0.5,0.7-0.9,0.8c0,0,0,0-0.1,0l0,0l0,0l0,0l0,0l0,0l0,0l0,0
		l0,0c0,0,0,0-0.1,0c0,0,0,0-0.1,0c0,0-0.1,0-0.1-0.1c0,0,0,0-0.1-0.1c0,0,0,0-0.1,0h-0.1c0,0,0,0-0.1,0h-0.1c0,0,0,0-0.1,0h-0.1
		h-0.1h-0.1h-0.1h-0.1h-0.1h-0.1h-0.1h-0.1H14c-0.1,0-0.1,0-0.2,0h-0.1c-0.1,0-0.2,0-0.3,0s-0.2,0-0.2,0c-0.3,0-0.6,0-0.7,0
		c-0.3,0-0.4,0-0.4,0H12c-1.9,0-1.9,3.8,0,3.8c1,0,1.4,0.1,1.6,0.4c-0.7,0.2-2,0.5-3.4,0.5s-2.4-0.3-3.1-1c-0.6-0.7-1.2-0.8-1.7-0.8
		c-0.8,0-1.6,0.5-2,1.3s-0.2,1.7,0.4,2.4C4.5,36,4.6,38.6,4,42.3c-0.1,0.9-2.3,12-2.3,12.1c-0.1,0.8-0.3,1.5-1.3,2
		c-0.1,0-0.3,0.2-0.4,1.1C0,58,0,59,0.7,59.6c0.5,0.4,1,0.5,1.6,0.5s1-0.2,1.1-0.2c0,0,0.1-0.1,0.3-0.1C3.9,60,4,60,4.1,60
		c0.2,0.1,0.3,0.3,0.4,0.5l0.1,0.1c0.1,0.2,0.4,0.5,0.7,0.8c0.4,0.3,1.2,0.7,1.3,0.8l0.2,0.1L7,62.2c0.1,0,0.9-0.5,1.3-0.8
		c0.3-0.3,0.6-0.6,0.7-0.8l0.1-0.1c0.1-0.2,0.3-0.4,0.5-0.5c0.1,0,0.2,0,0.3,0c0.2,0,0.3,0.1,0.3,0.1s0.5,0.2,1.1,0.2
		s1.2-0.2,1.7-0.6c0.6-0.5,0.7-1.2,0.7-1.7c3.1,2.1,3.8,3.1,6,3.1s2.9-1,6-3.1c0,0.5,0.1,1.2,0.7,1.7c0.5,0.4,1,0.5,1.6,0.5
		s1-0.2,1.1-0.2c0,0,0.1-0.1,0.3-0.1c0.1,0,0.2,0,0.3,0.1c0.2,0.1,0.3,0.3,0.4,0.5l0.1,0.1c0.1,0.2,0.4,0.5,0.7,0.8
		c0.4,0.3,1.2,0.7,1.3,0.8l0.2,0.1l0.2-0.1c0.1,0,0.9-0.5,1.3-0.8c0.3-0.3,0.6-0.6,0.7-0.8c0,0,0-0.1,0.1-0.1
		c0.1-0.2,0.3-0.4,0.5-0.5c0.1,0,0.2,0,0.3,0c0.2,0,0.3,0.1,0.3,0.1s0.5,0.2,1.1,0.2s1.2-0.2,1.7-0.6c0.3-0.2,0.5-0.6,0.6-0.9
		c1.4,2.4,5.4,2.7,6.5,2.8l0,0h0.1c1.3,0,4.7-0.5,6.2-2.6c0.1,0.3,0.3,0.5,0.6,0.8c0.5,0.4,1,0.5,1.6,0.5s1-0.2,1.1-0.2
		c0,0,0.1-0.1,0.3-0.1c0.1,0,0.2,0,0.3,0.1c0.2,0.1,0.3,0.3,0.4,0.5l0.1,0.1c0.1,0.2,0.4,0.5,0.7,0.8c0.4,0.3,1.2,0.7,1.3,0.8
		l0.2,0.1l0.2-0.1c0.1,0,0.9-0.5,1.3-0.8c0.3-0.3,0.6-0.6,0.7-0.8c0,0,0-0.1,0.1-0.1c0.1-0.2,0.3-0.4,0.5-0.5c0.1,0,0.2,0,0.3,0
		c0.2,0,0.3,0.1,0.3,0.1s0.5,0.2,1.1,0.2s1.2-0.2,1.7-0.6C65.3,59.1,65.3,58.1,65.2,57.6 M37.3,31.3c-0.4,0-0.5-0.6-0.5-0.9
		c0-0.4,0.1-1,0.5-1h0.1l0,0c0,0,0.1,0,0.2,0h0.3c0.3,0,0.7,0,1.4,0c0.8,0,1.2,0.3,1.5,0.6c0.3,0.2,0.6,0.5,1.1,0.5
		c0.1,0,0.2,0,0.3,0c0.7-0.2,1.1-0.7,1.3-1.1c0.1-0.1,0.1-0.2,0.1-0.2c0.4-0.5,0.8-0.6,1.5-0.6h0.8c0.7,0,1,0.1,1.5,0.6
		c0,0,0.1,0.1,0.1,0.2c0.2,0.4,0.6,0.9,1.3,1.1c0.1,0,0.2,0,0.3,0c0.5,0,0.8-0.3,1.1-0.5c0.3-0.3,0.7-0.6,1.5-0.6c0.7,0,1.2,0,1.4,0
		h0.3c0.1,0,0.1,0,0.2,0l0,0h0.1c0.4,0,0.5,0.6,0.5,1c0,0.2-0.1,0.9-0.5,0.9c-0.8,0-1.5,0.2-1.9,0.7c-0.2,0.2-0.3,0.3-0.4,0.5
		c-0.2,0.4-0.3,0.8-0.3,1.3c0,0.3,0,0.6,0,0.9c0,0.2,0,0.4,0,0.6c0,0.3,0.1,0.6,0.2,0.8c0.1,0.4,0.3,0.8,0.5,1.2
		c0.7,1,1.7,1.8,2.7,2.3c0.4,0.2,0.7,0.4,1.1,0.5c0.1,0.1,0.3,0.1,0.4,0.2c0,0,0,0,0.1,0l0,0c0,0.1,0,0.2,0,0.3s0,0.2,0,0.3
		c0,0.2,0,0.4-0.1,0.6h-0.1c-0.8-0.2-2.1-0.5-3.4-1.4c-0.3-0.2-0.5-0.4-0.8-0.6c-0.5-0.4-1-0.9-1.4-1.5c-0.1-0.1-0.1-0.1-0.2-0.2
		l0,0c-0.1-0.1-0.1-0.2-0.3-0.4c-0.3-0.3-0.7-0.7-1.4-0.8c-0.1,0-0.2,0-2.7,0s-2.7,0-2.7,0c-1,0.1-1.4,0.8-1.6,1.1l0,0
		c-0.1,0.1-0.1,0.2-0.2,0.3c-0.2,0.2-0.4,0.5-0.6,0.7c-0.2,0.2-0.4,0.4-0.7,0.6c-0.3,0.3-0.6,0.5-0.9,0.7c-1.4,0.9-2.7,1.3-3.5,1.4
		c0-0.1,0-0.3-0.1-0.4c0-0.1,0-0.1,0-0.2c0-0.1,0-0.3-0.1-0.4c0-0.1,0-0.2,0-0.3c0.2-0.1,0.3-0.2,0.5-0.2c0.1-0.1,0.3-0.1,0.4-0.2
		c1.1-0.6,2.3-1.3,3.1-2.5c0.2-0.3,0.4-0.7,0.6-1.1c0,0,0,0,0-0.1c0.1-0.3,0.2-0.6,0.2-1c0-0.2,0-0.4,0-0.6c0-0.3,0-0.6,0-1
		c-0.1-0.6-0.2-1.2-0.7-1.7C38.7,31.6,38.1,31.3,37.3,31.3z M35.4,35.2c0.2-0.2,0.3-0.4,0.4-0.7c1.3-0.1,2.4-0.5,3.1-0.8
		c0,0.1,0.1,0.2,0.1,0.2c0,0.2,0,0.5,0,0.7c0,0.8-0.2,1.5-0.6,2c-0.7,1.2-1.9,1.9-3,2.4c-0.2,0.1-0.4,0.2-0.5,0.2
		C34.7,37.3,34.9,35.8,35.4,35.2z M11.9,31.5c-0.4,0-0.5-0.6-0.5-0.9c0-0.4,0.1-1,0.5-1l0,0c0,0,0,0,0.1,0h0.1c0.2,0,0.5,0,1.3,0
		s1.2,0.3,1.6,0.5c0.3,0.2,0.6,0.4,1,0.4c0.1,0,0.2,0,0.3,0c0.7-0.2,1.1-0.6,1.3-1l0.1-0.1c0.5-0.6,1.2-0.7,1.8-0.7h0.3
		c0.5,0,1.3,0.1,1.8,0.7l0.1,0.1c0.3,0.3,0.7,0.8,1.3,1c0.1,0,0.2,0,0.3,0c0.4,0,0.7-0.2,1-0.4c0.4-0.2,0.8-0.5,1.6-0.5
		c0.8,0,1.1,0,1.3,0h0.1c0,0,0,0,0.1,0l0,0c0.4,0,0.5,0.6,0.5,1c0,0.2-0.1,0.9-0.5,0.9c-0.9,0-1.7,0-2.2,0.6
		c-0.1,0.1-0.2,0.3-0.3,0.5c-0.2,0.4-0.2,0.9-0.2,1.5v0.1c0,0.2,0,0.3,0,0.5s0,0.5,0.1,0.9v0.1c0.1,0.3,0.1,0.7,0.3,1.1
		c0.3,0.9,1,2.1,2.2,3.1c0.4,0.3,0.8,0.6,1.3,0.9l0,0v0.1c0,0.1,0,0.3,0,0.4c0,0.4,0,0.7,0,1c0,0,0,0-0.1,0
		c-0.8-0.3-1.8-0.9-2.8-1.8c-0.2-0.2-0.4-0.4-0.7-0.6c-0.2-0.2-0.4-0.5-0.7-0.7c-0.2-0.2-0.4-0.4-0.6-0.6c-0.2-0.1-0.3-0.3-0.5-0.4
		c-1-0.8-2.3-1.2-3.7-1.2c-1.4,0-2.7,0.4-3.7,1.2c-0.2,0.1-0.3,0.3-0.5,0.4c-0.2,0.2-0.4,0.4-0.6,0.6c-0.2,0.3-0.4,0.5-0.7,0.7
		c-0.2,0.2-0.4,0.4-0.7,0.6c-1,0.9-2,1.5-2.8,1.8c0,0,0,0-0.1,0c0-0.3,0-0.7,0-1c0-0.1,0-0.3,0-0.4v-0.1l0,0
		c0.5-0.3,0.9-0.6,1.3-0.9c1.2-1,1.9-2.1,2.2-3.1c0.1-0.4,0.2-0.8,0.3-1.1v-0.1c0.1-0.4,0.1-0.7,0.1-0.9s0-0.3,0-0.5v-0.1
		c0-0.6,0-1.1-0.2-1.5c-0.1-0.2-0.2-0.3-0.3-0.5C13.5,31.5,12.7,31.5,11.9,31.5z M12.3,58.9c-0.3,0.2-0.7,0.3-1.1,0.3
		c-0.4,0-0.7-0.1-0.7-0.1S10.2,59,9.8,59c-0.2,0-0.4,0-0.6,0.1c-0.5,0.2-0.8,0.6-1,0.9l-0.1,0.1c-0.1,0.2-0.3,0.4-0.5,0.6
		c-0.2,0.1-0.6,0.4-0.9,0.5C6.4,61,6,60.8,5.8,60.7c-0.2-0.1-0.4-0.4-0.5-0.6L5.4,60c-0.2-0.3-0.4-0.7-0.9-0.9C4.2,59,4,59,3.8,59
		c-0.4,0-0.7,0.1-0.7,0.1s-0.3,0.1-0.7,0.1s-0.8-0.1-1-0.3c-0.5-0.4-0.4-1.3-0.3-1.6c1.2-0.7,1.5-1.8,1.6-2.6
		C2.8,54.2,4.8,43.4,5,42.6c0.5-2.8,0.8-6.5-0.4-7.9C4,34,4.1,33.5,4.3,33.3c0.2-0.4,0.7-0.8,1.1-0.8c0.3,0,0.7,0.2,0.9,0.5
		c0.8,0.9,2.1,1.3,3.8,1.3c1.4,0,2.7-0.3,3.5-0.5c0,0.2,0,0.5,0,0.8c0,0.2,0,0.7-0.2,1.2c-0.1,0.3-0.2,0.7-0.4,1.1
		c-0.3,0.7-0.9,1.4-1.7,2.1c-0.4,0.3-0.9,0.6-1.4,0.9c-0.1,0-0.1,0.1-0.2,0.1c0,0.2,0,0.3,0,0.5c0,0.6-0.1,1.3,0,1.9
		c0,0.2,0,0.3,0,0.5c0,1.3,0.2,4.5,0.2,4.7c0,0.7,0.3,2.2,0.5,3.7c0.1,0.6,0.2,1.2,0.3,1.8l0,0c0.1,0.5,0.2,0.9,0.2,1.3
		c0,0.1,0,0.2,0,0.2c0.1,0.5,0.2,0.9,0.4,1.4s0.6,0.9,1.2,1.3l0,0l0,0C12.7,57.7,12.8,58.5,12.3,58.9z M26,56.5
		C26,56.6,26,56.6,26,56.5c-0.2,0.1-0.4,0.2-0.5,0.3c-0.9,0.6-1.7,1.2-2.3,1.6C21.6,59.6,21,60,19.6,60s-2-0.5-3.6-1.7
		c-0.6-0.4-1.3-1-2.3-1.6c-0.2-0.1-0.3-0.2-0.5-0.3l0,0c-0.9-0.5-1.2-1.1-1.3-2l0,0c0-0.1,0-0.1,0-0.2c-0.1-0.5-0.2-0.9-0.2-1.4
		c-0.2-3.7,1.4-5.2,2.5-5.9l0,0c0.1-0.1,0.2-0.1,0.3-0.2c0.6-0.2,1-0.3,1.7-0.2c0.2,0.1,0.5-0.1,0.5-0.4c0.1-0.3,0-0.7-0.6-0.8
		c-0.4,0-0.7,0-1,0.1l0,0l0,0c-0.7,0.1-1,0.3-1.4,0.5l0,0c-0.9,0.5-2,1.5-2.6,3.2c-0.1-0.9-0.2-1.5-0.2-1.9c0,0-0.2-2.6-0.2-4
		c0.2,0.3,0.4,0.7,0.8,1c0.9,0.6,1.9,0.2,2.6-0.2c0.8-0.4,2.3-0.9,2.9-0.8c0.5,0.1,1,0.4,1,1.6c0,0.4,0,1.3,0,2.3c0,2.2,0,3,0,3.1
		c0,0.2,0.1,0.3,0.2,0.4c0.2,0.2,0.5,0.1,0.7,0c0.4-0.1,1-0.2,1.7,0.1c0.1,0,0.1,0,0.2,0c0.2,0,0.4-0.1,0.4-0.3
		c0.1-0.2,0-0.5-0.2-0.6c-0.9-0.4-1.6-0.3-2.1-0.2c0-0.6,0-1.7,0-2.5c0-1,0-1.9,0-2.3c0-1.8-1-2.3-1.8-2.5c-1.1-0.2-3.3,0.8-3.5,0.9
		l0,0c-0.8,0.5-1.2,0.5-1.6,0.2c-0.3-0.2-0.5-0.6-0.6-0.8c1.3-0.6,2.8-1.6,4.2-3.3c1.1-1.3,2.6-1.8,4.1-1.8s3,0.5,4.1,1.8
		c1.4,1.7,2.9,2.7,4.2,3.3c-0.1,0.2-0.3,0.6-0.6,0.8c-0.4,0.3-0.8,0.2-1.6-0.2l0,0c-0.2-0.1-2.4-1.1-3.5-0.9
		c-0.8,0.2-1.8,0.7-1.8,2.5l0,0l0,0l0,0l0,0v0.1c0,0,0,0,0,0.1c0,0,0,0,0,0.1v0.3h0.1c0.1,0.1,0.2,0.1,0.3,0.1
		c0.3,0,0.5-0.2,0.5-0.5v-0.1l0,0c0-1.2,0.5-1.5,1-1.6c0.6-0.1,2.1,0.4,2.9,0.8c0.7,0.4,1.7,0.8,2.6,0.2c0.4-0.3,0.6-0.6,0.8-0.9
		c-0.1,1.5-0.2,4-0.2,4c0,0.4-0.1,1-0.2,1.9c-0.6-1.7-1.7-2.7-2.6-3.2l0,0c-0.4-0.2-0.7-0.4-1.4-0.5l0,0l0,0c-0.3,0-0.6-0.1-1-0.1
		c-0.6,0-0.6,0.4-0.6,0.8c0.1,0.3,0.3,0.5,0.5,0.4c0.7-0.2,1-0.1,1.6,0.1c0.3,0.1,0.8,0.4,1.2,0.8c1.3,1.1,1.9,2.9,1.7,5.3
		c-0.1,0.4-0.2,0.9-0.2,1.4c0,0.1,0,0.1,0,0.2l0,0C27.1,55.4,26.9,56,26,56.5z M37.8,58.9c-0.3,0.2-0.7,0.3-1.1,0.3
		c-0.4,0-0.7-0.1-0.7-0.1S35.7,59,35.3,59c-0.2,0-0.4,0-0.6,0.1c-0.5,0.2-0.8,0.6-1,0.9l-0.1,0.1c-0.1,0.2-0.3,0.4-0.5,0.6
		c-0.2,0.1-0.6,0.4-0.9,0.5c-0.3-0.2-0.7-0.4-0.9-0.5c-0.2-0.1-0.4-0.4-0.5-0.6l0.1-0.1c-0.2-0.3-0.4-0.7-0.9-0.9
		C29.8,59,29.6,59,29.3,59c-0.4,0-0.7,0.1-0.7,0.1s-0.3,0.1-0.7,0.1c-0.4,0-0.8-0.1-1-0.3c-0.5-0.4-0.4-1.3-0.3-1.6l0,0l0,0
		c0.6-0.4,1-0.8,1.2-1.3c0.2-0.4,0.3-0.9,0.4-1.4c0-0.1,0-0.2,0-0.2c0.2-0.9,0.4-2,0.5-3.2c0.2-1.5,0.5-2.9,0.5-3.7
		c0-0.1,0.2-3.4,0.2-4.7c0-0.2,0-0.4,0-0.5c0-0.6,0-1.2,0-1.9c0-0.2,0-0.3,0-0.5c-0.1,0-0.1-0.1-0.2-0.1c-0.5-0.3-1-0.6-1.4-0.9
		c-0.8-0.7-1.4-1.4-1.7-2.1c-0.2-0.4-0.3-0.8-0.4-1.1c-0.1-0.5-0.2-1-0.2-1.2c0-0.3,0-0.6,0-0.8c0.8,0.2,2.1,0.5,3.5,0.5
		c1.7,0,2.9-0.4,3.8-1.3c0.3-0.3,0.6-0.5,0.9-0.5c0.5,0,0.9,0.3,1.1,0.8c0,0.1,0.1,0.2,0.1,0.4c0,0.1,0,0.3-0.1,0.5
		c0,0.1-0.1,0.3-0.3,0.5l0,0c-1,1.2-0.9,3.9-0.6,6.4c0,0,1.1,6.7,1.5,8.6c0.1,0.5,0.2,1,0.3,1.5c0,0.1,0,0.2,0.1,0.3v0.1
		c0.3,1.7,0.6,2.9,0.6,3.1c0.1,0.4,0.1,0.8,0.3,1.2c0.2,0.5,0.5,0.9,1.1,1.3l0,0c0.1,0.1,0.1,0.1,0.2,0.1
		C38.2,57.6,38.3,58.5,37.8,58.9z M51.5,57.5c-0.7,2.5-4.6,3.1-5.9,3.1h-0.1c-0.1,0-5.1-0.1-5.9-2.9c-0.2-0.6-0.6-1-1.2-1.4
		c-0.7-0.5-0.8-1.1-0.9-1.8l0,0c0,0-0.3-1.4-0.6-3.2c0-1.9,0.7-3.4,2-4c0.5-0.3,1.2-0.4,1.7-0.3c0.3,0.1,0.6,0.1,0.8,0.4
		c0.1,0.1,0.5,0.1,0.7,0c0.1-0.1,0.4-0.4,0-0.9c-0.6-0.6-1.3-0.5-1.8-0.5c-0.1,0-0.1,0-0.2,0l0,0c0,0,0,0-0.1,0
		c-0.5,0-1,0.2-1.5,0.4c-0.5,0.3-1.5,0.9-2.1,2.3c-0.4-2-0.8-4.1-1-5.4c1.5,1.6,3.5,2,5,1.7c1.3-0.3,2.1-1.1,2.3-2.2
		c0.1-0.4,0.3-0.6,0.5-0.6c0.3,0,0.5,0.3,0.5,0.9c0,2.4,0,6.8,0,6.8c0,0.2,0.1,0.3,0.2,0.4c0,0,0.6,0.3,1.5,0.3c0.4,0,1-0.1,1.5-0.3
		c0.2-0.1,0.4-0.4,0.3-0.6c-0.1-0.2-0.4-0.4-0.6-0.3c-0.9,0.4-1.6,0.2-1.9,0.1c0-1,0-4.5,0-6.5c0-1.2-0.7-1.8-1.4-1.9
		c-0.7-0.1-1.4,0.4-1.6,1.4c-0.1,0.7-0.7,1.2-1.6,1.4c-1.2,0.3-2.9-0.1-4.2-1.5l0,0H36h0.1h0.1h0.1h0.1h0.1h0.1c0,0,0.1,0,0.1-0.1
		c0,0,0.1,0,0.1-0.1c0,0,0.1,0,0.1-0.1c0,0,0.1,0,0.1-0.1c0,0,0.1,0,0.1-0.1c0,0,0.1,0,0.1-0.1c0.1,0,0.1,0,0.2-0.1
		c0.1,0,0.1,0,0.1-0.1c0.1,0,0.1-0.1,0.2-0.1l0.1-0.1c0.1,0,0.1-0.1,0.2-0.1c0.1,0,0.1-0.1,0.2-0.1c0.1,0,0.1-0.1,0.2-0.1
		c0.1,0,0.1-0.1,0.2-0.1c0.1,0,0.1-0.1,0.2-0.1c0.1,0,0.1-0.1,0.2-0.1c0.1,0,0.1-0.1,0.2-0.1c0.1,0,0.1-0.1,0.2-0.1
		c0.1,0,0.1-0.1,0.2-0.1c0.1,0,0.1-0.1,0.2-0.1c0.1,0,0.1-0.1,0.2-0.1c0.1,0,0.1-0.1,0.2-0.1l0.1-0.1c0.1,0,0.1-0.1,0.2-0.1l0.1-0.1
		c0.1-0.1,0.1-0.1,0.2-0.2l0.1-0.1c0.1-0.1,0.1-0.1,0.2-0.2l0.1-0.1c0.1-0.1,0.1-0.1,0.2-0.2l0.1-0.1c0.1-0.1,0.2-0.2,0.3-0.4
		s0.4-0.7,0.9-0.8c0.1,0,1.4,0,2.6,0c1.3,0,2.5,0,2.6,0c0.6,0,0.8,0.6,0.9,0.8c0.1,0.1,0.2,0.3,0.3,0.4l0.1,0.1
		c0.1,0.1,0.1,0.2,0.2,0.2l0.1,0.1c0.1,0.1,0.1,0.1,0.2,0.2l0.1,0.1c0.1,0.1,0.1,0.1,0.2,0.2l0.1,0.1c0.1,0.1,0.1,0.1,0.2,0.2
		l0.1,0.1c0.1,0,0.1,0.1,0.2,0.1c0.1,0,0.1,0.1,0.2,0.1c0.1,0,0.1,0.1,0.2,0.1c0.1,0,0.1,0.1,0.2,0.1c0.1,0,0.1,0.1,0.2,0.1
		c0.1,0,0.1,0.1,0.2,0.1c0.1,0,0.1,0.1,0.2,0.1c0.1,0,0.1,0.1,0.2,0.1c0.1,0,0.1,0.1,0.2,0.1c0.1,0,0.1,0.1,0.2,0.1
		c0.1,0,0.1,0.1,0.2,0.1c0.1,0,0.1,0.1,0.2,0.1c0.1,0,0.1,0.1,0.2,0.1c0.1,0,0.1,0.1,0.2,0.1c0.1,0,0.1,0,0.2,0.1
		c0.1,0,0.1,0,0.2,0.1c0.1,0,0.1,0,0.1,0.1c0,0,0.1,0,0.1,0.1c0,0,0.1,0,0.1,0.1c0,0,0.1,0,0.1,0.1c0,0,0.1,0,0.1,0.1
		c0,0,0.1,0,0.1,0.1h0.1h0.1h0.1h0.1h0.1h0.1h0.1l0,0l0,0c-1.2,1.4-2.9,1.8-4.2,1.5c-0.9-0.2-1.4-0.7-1.6-1.4
		c-0.2-1-0.9-1.4-1.6-1.4c-0.7,0.1-1.4,0.7-1.4,1.9c0,0.6,0,1.3,0,2.1c0,0.3,0.2,0.5,0.5,0.5l0,0c0.3,0,0.5-0.2,0.5-0.5
		c0-0.8,0-1.5,0-2.1s0.3-0.9,0.5-0.9s0.5,0.1,0.5,0.6c0.2,1.1,1,1.9,2.3,2.2c1.4,0.3,3.4-0.1,4.9-1.6c-0.2,1.1-0.6,3.2-1,5.3
		c-0.6-1.4-1.6-2-2.1-2.3c-0.5-0.2-1-0.4-1.5-0.4c0,0,0,0-0.1,0l0,0c-0.1,0-0.1,0-0.2,0c-0.4,0-1.2-0.1-1.8,0.5
		c-0.4,0.4-0.1,0.8,0,0.9c0.1,0.1,0.5,0.2,0.7,0c0.2-0.3,0.5-0.3,0.8-0.4c0.5-0.1,1.1,0,1.7,0.3c1.4,0.7,2.1,2.2,2,4.1l0,0
		c-0.2,1.1-0.4,2.2-0.5,2.9c0,0.1,0,0.1,0,0.2l0,0c-0.1,0.7-0.3,1.2-0.7,1.6C52,56.5,51.6,56.9,51.5,57.5z M63.9,58.9
		c-0.3,0.2-0.7,0.3-1.1,0.3c-0.4,0-0.7-0.1-0.7-0.1l0,0c0,0-0.3-0.1-0.7-0.1c-0.2,0-0.4,0-0.6,0.1c-0.5,0.2-0.8,0.6-1,0.9l-0.1,0.1
		c-0.1,0.2-0.3,0.4-0.5,0.6c-0.2,0.1-0.6,0.4-0.9,0.5c-0.3-0.2-0.7-0.4-0.9-0.5s-0.4-0.4-0.5-0.6L57,60c-0.2-0.3-0.4-0.7-0.9-0.9
		C55.9,59,55.7,59,55.5,59c-0.4,0-0.7,0.1-0.7,0.1s-0.3,0.1-0.7,0.1s-0.8-0.1-1-0.3c-0.5-0.4-0.4-1.3-0.3-1.6
		c0.2-0.1,0.3-0.2,0.5-0.3l0,0c0.4-0.4,0.7-0.8,0.9-1.2c0.1-0.4,0.2-0.7,0.3-1.1c0-0.1,0-0.2,0-0.2c0.2-1,0.5-2.5,0.8-4.1
		c0.6-3.1,1.2-6.4,1.3-7.3c0-0.1,0.2-1.7,0.3-2.5c0-0.2,0-0.4,0.1-0.7c-0.3-0.1-0.6-0.3-0.9-0.4c-1.4-0.6-2.9-1.4-3.6-2.8
		c-0.3-0.5-0.4-1.1-0.5-1.9c0-0.3,0-0.6,0-0.9c0.8,0.2,2.1,0.5,3.4,0.5c1.7,0,2.9-0.4,3.8-1.3c0.3-0.3,0.6-0.5,0.9-0.5
		c0.5,0,0.9,0.3,1.1,0.8c0.1,0.3,0.2,0.8-0.2,1.4c-1.2,1.4-0.9,5.1-0.4,7.9c0.1,0.9,2.2,11.7,2.3,12.1c0.1,0.9,0.4,1.9,1.6,2.7
		C64.3,57.6,64.4,58.5,63.9,58.9z"/>
</g>
</svg>
