<?xml version="1.0" encoding="utf-8"?>
<!-- Generator: Adobe Illustrator 24.2.3, SVG Export Plug-In . SVG Version: 6.00 Build 0)  -->
<svg version="1.1" id="Layer_1" xmlns="http://www.w3.org/2000/svg" xmlns:xlink="http://www.w3.org/1999/xlink" x="0px" y="0px"
	 viewBox="0 0 160 90" style="enable-background:new 0 0 160 90;" xml:space="preserve">
<style type="text/css">
	.st0{fill-rule:evenodd;clip-rule:evenodd;fill:#FFFFFF;}
	.st1{fill:#FFFFFF;}
</style>
<g>
	<path class="st0" d="M49.6,7.3c1.6,0.8,1.6,5.4-0.6,5.4C46.7,12.8,46.2,6.9,49.6,7.3z"/>
	<path class="st0" d="M56.8,7.6c0.4,0.4,0.4,1.3,0,1.8c-0.5,0.2-1.4,0.1-2.1,0.1c-0.2-0.4-0.1-1.3-0.1-1.9C55,7.3,56.2,7.5,56.8,7.6
		z"/>
	<path class="st0" d="M63.2,7.3c1.7,0.9,1.6,5.4-0.6,5.4C60.4,12.8,59.8,6.9,63.2,7.3z"/>
	<path class="st0" d="M81.2,8.9c0.3,0.5,0.4,1.3,0.6,1.9c-0.5,0-1,0-1.5,0c0.2-0.6,0.3-1.4,0.6-1.9L81.1,9L81.2,8.9z"/>
	<path class="st0" d="M98.4,11.5c0.2,0,0.2,0.6-0.1,0.4C98.3,11.8,98.5,11.7,98.4,11.5z"/>
	<path class="st0" d="M102.4,15.1c0-0.2,0.1-0.2,0.1-0.3C102.7,14.7,102.7,15.3,102.4,15.1z"/>
	<path class="st0" d="M61.8,38.8c0.4-0.1,0.4,0.9,0,0.8C61.8,39.4,61.8,39.1,61.8,38.8z"/>
	<path class="st0" d="M102.4,43c0.2,0,0.3,0,0.4,0c0,0.1,0,0.3,0,0.4C102.5,43.5,102.4,43.3,102.4,43z"/>
	<path class="st0" d="M112.8,51.8c0.1-0.3,0.5,0.1,0.3,0.3C113,52.1,113.1,51.7,112.8,51.8z"/>
	<path class="st0" d="M40.3,77.9c0.3,0.1-0.1,0.4,0,0.6c-0.3,0-0.2-0.2-0.6-0.1C39.7,78,40.3,78.2,40.3,77.9z"/>
	<path class="st0" d="M83.6,77.9c0.2,0.2,0.4,0.2,0.7,0.3c-0.1,0.2-0.4,0.2-0.6,0.2C83.6,78.2,83.4,78.1,83.6,77.9z"/>
	<path class="st0" d="M39,78.4c0.3,0.2-0.3,0.4-0.7,0.3C38.1,78.3,39,78.8,39,78.4z"/>
	<path class="st0" d="M33.9,33.3c3.1-0.9,6.2-2,9.7-2.1c2.4-1.5,5.3-2.5,7.2-4.5c0.3,1,0.8,1.9,1.3,2.6c0.1,1.5,0.9,3,0.8,4.4
		c0,0.5-0.2,0-0.3,0c0.1,0.4-0.1,0.7,0.2,1c-0.4,0.1-0.4,0.3-0.8,0.1c0.3,3.3,1.2,7,2.8,9.1c0.5,1.8,1.7,3.5,2.1,4.9l-0.2,0.1
		l0.1,0.2c-1,0.1-1.4-1.3-2-2c-0.4,0.8,0.3,1.7,0.6,2.5c0.2,0.8,0.2,1.9,1,2.2c0.6,2.4,1.5,4.5,2.5,6.5c0-1.9-1.1-4.3-0.8-6.5
		c0-0.4,0.4-0.5,0.6-0.8c0.4-3.1,0.6-5.8,1.3-8.3c0.1-0.1,0.2-0.1,0.3-0.1c0-0.8,0.4-1.3,0.7-1.8c-0.1-0.3-0.2-1.3,0.2-1.6
		c0.7,0.3,0.2,1.4,0.4,1.7c0.1,0,0.2,0,0.2,0V41l0.1,0.2c0.5,0.5,0,0.4-0.2,0.7c1.1-0.1,0.4-1.9,1-2.7c0.5,0.1,0.6,1,0.3,1.5
		c1.6,2.8,1.8,6.3,2.4,10.2c0.1,0.4,0.5,0.5,0.6,0.9c0.1,2.7-0.6,4.5-0.9,6.6c1-1.9,2-4.4,2.5-6.4c1.1-1.1,1.5-3.4,1.8-4.9
		c-0.8,0.6-1.1,2.2-2.2,2l0.1-0.2L67,48.8c0.8-1.7,1.8-3.1,2.2-5.1c0.5,0.1,0.1-0.8,0.7-0.7c-0.1-0.9,0.8-1.6,1.1-2.6
		c0.4-1.3,0.3-2.8,0.9-4c-0.2-0.4,0-1,0.1-1.5c-0.2-0.2-0.5-0.1-0.7-0.2c-0.2-0.3,0.1-0.7,0.1-1c0-0.4-0.3,0.4-0.3,0
		c-0.1-0.5,0-0.8,0.1-1.6c0-0.5,0.4-1.1,0.6-1.7c0.1-0.4,0-1,0.1-1.2c0.3-0.9,1.3-1.6,1.3-2.6c1.2,0.9,2.5,2.2,4,2.9
		c1,0.5,2.2,0.6,2.8,1.5c0.1,0,0.2,0,0.2,0.1c5.8,0.3,11.1,2.7,15.7,4.6c1.4,0.6,2.2,1.2,3,2.6c0.4,0.7,0.7,1.6,1.1,2.2
		c-0.2,0.1,0,0.6-0.2,0.7L99.7,41l-0.2-0.1c-0.1,0-0.1,0-0.2,0c0,0.1-0.1,0.1-0.1,0.2c0.1,0,0.2,0,0.2,0l-0.1,0.2l0.2,0.1
		c0,0.1,0,0.1,0,0.2c0.5,0.5,1.1,1.3,1.7,1.1c0.2,0.1,0.2,0.6,0,0.8c0.1,0,0.1,0.1,0.2,0.1l-0.1,0.2l0.1,0.2c0,0.6,0.1,1.1,0.2,1.6
		c0.5-0.1-0.2-0.3,0.1-0.6c0.3-0.4,0.4,0.1,0.7-0.1c0-0.5-0.7-1,0-1.2V44h0.2c0,0.1,0,0.1,0,0.2c0.7,0.4,1.1-0.2,1.9,0.3
		c1.5-0.4,2.4,0.5,3.5,1.2c1.6,1.1,3.9,2.4,5.4,3.5l-0.1,0.2l0.1,0.2c0.1,0.4-0.2,0.4-0.3,0.4c0.1-0.4-0.1-0.5-0.3-0.6
		c-0.3,0.2-0.6-0.3-1,0.1l-0.2-0.1l-0.2,0.1v-0.1c-0.2,0-0.6-0.1-0.4,0.2c0.1,0,0.2,0,0.2,0l-0.1,0.2l0.2,0.1c0,0.1,0,0.2,0.1,0.2
		l-0.1,0.2l0.2-0.1c0.4,0.4,0.9,0.1,1.5,0.3l-0.1,0.2l0.2,0.1c-0.1,0.5-0.7,0.5-0.9,0.8c-0.1,0.2,0.2,0.2,0.2,0.3l-0.2,0.1l0.1,0.2
		c-0.3,0-0.5,0.2-0.4,0.6c0.2,0.1,0.2-0.2,0.3-0.2l0.1,0.2l0.2-0.1c0.1,0,0.1,0,0.1,0.1c0.9-0.5,1.5-1.4,2.2-2
		c0.4-0.2,0.1,0.4,0.3,0.3l0.1,0.2l0.2-0.1c0.2,0.2,0,0.4,0.1,0.6c0.1,0.2,0.5-0.1,0.3,0.6c0.2,0,0-0.3,0.2-0.3
		c0.6,0,0.2,0.9,0.7,0.9c0.1-0.8-0.7-1.7-1-2.6c1.4,0.4,2,1.3,3,1.7c0.4,0.1,0.9-0.1,1.3,0.1c0.4,0.1,0.8,0.6,1,0.9
		c0.2,0.4,0.2,0.9,0.4,1.3c0.7,1.1,2.3,1,2.9,2c0.4,0.7,0.3,1.7,0.4,2.5c0.2,1.3,0.4,3.4-0.1,4.8c-0.4,1-1.3,2.2-2,3.3
		c-0.4,0.5-0.7,1.1-1.1,1.6c-0.5,0.5-0.9,1.1-1.2,1.3c-0.9,0.8-2.1,0.7-3.3,1.2c-1.1,0.5-2,1.7-3.1,2.5c-2.2,1.5-4.9,2.6-7.4,3.7
		c-2.1,0.9-4,1.2-5.6,2.5l0.1-0.2l-0.2-0.1c-0.3-0.5-0.1,0.1-0.2,0.2l-0.1,0.1l0.1,0.1c-0.4,0.2-0.8,0.6-1.3,0.7l0.1-0.2l-0.2-0.1
		c0-0.2,0.1-0.4-0.1-0.4c-0.1,0.2-0.6,0-0.4,0.4c0.2,0,0.2,0.1,0.3,0.1l-0.1,0.2l0.2,0.1c-2.4,0.7-4.5,1.7-7.4,1.8
		c-0.5,0.8-1,1.7-2.2,1.8c0,0.9,0.1,2-0.3,2.5c0.5,1,1.1,1.8,1.6,2.7l-0.2,0.1l0.1,0.2c-19,0-37.9,0-56.9,0c0-0.6,0-1.2,0-1.8
		c0.4-0.3,0.6-0.8,0.8-1.3c-0.6-0.3-0.1-1.7-0.4-2.4c-0.1-0.1-0.2-0.1-0.3-0.1c0-2,0-4,0-6l0.2,0.1l0.1-0.2c0.3,0.4,0.8,0.3,1.3,0.7
		c0.4,0.3,0.5,0.8,0.9,0.9c0.8,0.1,1.1-0.8,1.9-0.7c0.4,0,0,0.4,0.3,0.6c1.5,0.3,3.1-0.2,4-1c0-0.4-0.3-0.3-0.4-0.6l0.2-0.1
		l-0.1-0.2c1.1,0.2,1.9-0.4,2.5-0.4l0.1,0.1l0.1,0.1c0.6-0.3,0.9-0.8,1.2-1.3c-0.5-0.3-1.1-0.6-1.5-1l0.2-0.1l0.1-0.2
		c0.6,0,1.5,0.5,1.9,0c0.6,0.6,1.8,0,1.9-0.6c0.2-1.1-1.5-1.8-1.5-2.7l0.2-0.1l-0.1-0.2c0.6-0.1,0.6,0.3,0.9,0.7
		c1.1-0.2,1.5,1,2.6,1.1c0.6,1.4,1.9,2.2,3.1,2.9c0.6-0.2,1.2-0.5,1.5-1c-0.2-1.4-0.8-2.3-1.3-3.3c-0.4,0-0.2,0.5-0.8,0.3l0.1-0.2
		L53.3,72v-0.1c-0.2,0-0.3-0.3-0.7-0.1c0.2-1.4-1-2.2-1.7-3l0.2-0.1L51,68.5c0.6-0.5,1.1-1.1,1.5-1.8c-0.2-0.3-0.2-0.7-0.6-0.8
		c-1.1,0.3-2.8,0.7-3.4-0.3C48,66,48,65,47.2,65.3c-0.4-0.8-1.7-0.9-2.8-1.3c-0.8-0.3-1.5-0.9-2.4-1c-2.3-0.3-4.3,0.2-5.5,1.3
		c-1,1.5-1.7,3.2-2.4,5.1L34,69.2l-0.2,0.1C33.9,57.2,33.9,45.3,33.9,33.3z M51,29.9c0.2,0,0.2,0.2,0.3,0.2
		c-0.1-0.4,0.3-0.3,0.3-0.6C51.4,29.3,51.1,29.7,51,29.9z M72.8,30.2c0.3-0.3-0.1-0.7-0.4-0.7C72.4,29.9,72.7,29.9,72.8,30.2z
		 M42.4,33.9c0.1,0,0.2,0,0.2,0c0-0.1,0-0.1,0-0.2c-0.1,0-0.1,0-0.2,0C42.4,33.7,42.4,33.8,42.4,33.9z M81.3,33.9c0.1,0,0.1,0,0.2,0
		c0-0.1,0-0.1,0-0.2c-0.1,0-0.1,0-0.2,0C81.3,33.7,81.3,33.8,81.3,33.9z M61.4,43.8C61.1,43.4,61.1,44.2,61.4,43.8L61.4,43.8z
		 M61.9,45.7c0.2,0,0.1,0.4,0.3,0.4c0.1-0.2-0.1-0.6,0.1-0.6c0.2,0,0.2,0.3,0.4,0.3c-0.2-0.3,0.1-1-0.1-0.9c0.1,0.4-0.2,0.4-0.4,0.4
		c0-0.7-0.2-1.2,0-1.6l0.2,0.1l0.2-0.1c0.2,0,0.3,0,0.3-0.1c-0.1-0.1-0.3-0.2-0.3,0l-0.2-0.1l-0.2,0.1c-0.1,0-0.1-0.1-0.2-0.1
		c0,0.1,0,0.1-0.1,0.1s-0.1,0-0.1,0.1c0.3,0.3,0.4,1.6,0.1,1.7v-0.1h-0.1c-0.3,0-0.4-0.2-0.6-0.3c0.3,0.3-0.2,0.6,0.1,0.8
		c0.1-0.2,0.1-0.4,0.4-0.3l-0.1,0.2L61.9,45.7z M52.6,44.8c0.1,0,0.1,0,0.2,0c0-0.1,0-0.1,0-0.2c-0.1,0-0.1,0-0.2,0
		C52.6,44.6,52.6,44.7,52.6,44.8z M71.2,44.8c0.1,0,0.2,0,0.2,0c0-0.1,0-0.1,0-0.2c-0.1,0-0.1,0-0.2,0
		C71.2,44.6,71.2,44.7,71.2,44.8z M104.2,45.6c0-0.3,0.1-0.7-0.2-0.7C103.7,45.1,103.9,45.5,104.2,45.6z M102.5,46.3
		c0.1,0,0.2,0,0.2,0c0-0.1,0-0.3,0-0.4c-0.1,0-0.1,0-0.2,0C102.5,46,102.5,46.1,102.5,46.3z M102.5,46.7c0.3,0.2,0.3-0.5,0-0.3
		C102.5,46.5,102.5,46.6,102.5,46.7z M60.1,46.7C60,47.4,60.6,46.8,60.1,46.7L60.1,46.7z M63.7,47c0.3,0.2,0.3-0.5,0-0.3
		C63.7,46.8,63.7,46.9,63.7,47z M106.5,47.3c0.1,0,0.2,0,0.2,0c0-0.1,0-0.1,0-0.2c-0.1,0-0.1,0-0.2,0
		C106.5,47.1,106.5,47.2,106.5,47.3z M59.8,53.3c0-0.1-0.1-0.1-0.2-0.1c0,0.2,0.1,0.3,0.2,0.3l0.2,0.1l0.2-0.1
		c0.2,0.1,0,0.5,0.2,0.6c-0.1-0.2,0.2-0.8-0.2-0.7L60,53.3H59.8z M64.3,53.6c0.2,0,0.4-0.4,0-0.3v0.1L64,53.3l-0.1,0.2
		c-0.5,0-0.3,0.5-0.1,0.7c0.1-0.7,0.3-0.6,0.3-0.6L64.3,53.6z M60.1,54.6c0.1,0,0.1,0.1,0.2,0.1c0-0.1,0.1-0.1,0.1-0.2
		c-0.1,0-0.1-0.1-0.2-0.1C60.2,54.5,60.1,54.5,60.1,54.6z M63.9,54.5C63.5,54.1,63.6,54.9,63.9,54.5L63.9,54.5z M90.9,56.6
		c0.1,0,0.2,0,0.2,0c0-0.1,0-0.1,0-0.2c-0.1,0-0.2,0-0.2,0C90.9,56.5,90.9,56.5,90.9,56.6z M81.6,78.2c0,0.3-0.4,0.2-0.3,0.6
		c1.1,0.9,2.4,1.3,4,1c0.4-0.2,0-0.6,0.3-0.6c0.7-0.1,0.9,0.8,1.8,0.7c0.4,0,0.7-0.6,1.1-0.9s0.9-0.4,1.1-0.6
		c1.3-1.2,1.1-4.3,0.8-6.4c-0.5-3.1-2-8.5-5.3-9c-0.7-0.1-2.4-0.3-3.4-0.1C80.8,63,80,63.7,79.1,64c-0.8,0.3-1.8,0.4-2.5,1.2
		c-0.2,0-0.4,0-0.7,0c-0.1,0.1-0.1,0.4-0.3,0.4c-0.1-0.1-0.2-0.1-0.3-0.1c-0.7,1-2.3,0.6-3.5,0.3c-1,1,0.4,2.4,1.5,2.7
		c-1.1,0.6-2.1,1.9-2.1,3.1c-0.5-0.4-0.1,0.4-0.6,0c-0.1,0.3,0.2,0.3,0.1,0.6c-0.1-0.3-1,0.2-0.8-0.4c-0.9,0.7-1.4,1.9-1.6,3.3
		c0.3,0.5,0.8,0.7,1.2,1c1.5-0.6,2.6-1.6,3.4-2.9c1-0.2,1.5-1.2,2.5-1.1c0.3-0.4,0.4-0.7,1-0.7l-0.1,0.2l0.2,0.1
		c-0.4,1-2.6,2.9-0.7,3.5c0.5,0.1,0.8-0.2,1.1-0.2c-0.1,0,0.2,0.2,0.3,0.2c0.6,0,1.1-0.2,1.6-0.2l-0.1,0.2l0.2,0.1
		c-0.4,0.4-0.8,0.8-1.5,0.9c0.2,0.5,0.8,1.6,1.2,1.2l0.1,0.1l0.1,0.1c0.8,0.1,1.2,0.6,2.4,0.4l-0.1,0.2L81.6,78.2z M60.3,67.2
		c0.1,0.5,0.3,1.4,0.7,1.2c-0.2-0.4-0.2-1-0.3-1.6c-0.1-0.5-0.2-1.2-0.6-1.5C60.3,65.8,60.2,66.6,60.3,67.2z M63.1,68.7
		c0.3-0.5,0.3-1.3,0.4-2c0.1-0.5,0.5-1.1,0.1-1.3C63.6,66.5,63,67.7,63.1,68.7z M99,78.9c0.1,0,0.1,0,0.2,0c0.1-0.2,0.1-0.3-0.1-0.3
		C99.1,78.7,99,78.7,99,78.9z M95.1,79.7c0-0.1-0.1-0.1-0.2-0.1c-0.1,0.1-0.1,0.2-0.1,0.3c0.2,0,0.2-0.1,0.3-0.1l0.1,0.2l0.2-0.1
		c0.2,0,0.3,0.1,0.3,0.2c-0.1,0.4-0.5,0.5-0.7,0.9c0.2,0.5,0.6,0.1,0.9,0c0-0.6,0-1-0.2-1.3c-0.1,0-0.2,0-0.3,0l-0.1-0.1L95.1,79.7z
		 M96.5,80.2c-0.1,0.4,0.1,0.5,0.2,0.7c1,0,1.1-1.1,0.8-1.3C97.6,80.2,97.1,80.2,96.5,80.2z M39.6,81c0.1,0,0.2,0,0.2,0
		c0-0.1,0-0.1,0-0.2c-0.1,0-0.1,0-0.2,0C39.6,80.9,39.6,80.9,39.6,81z M60.2,84.2c0.1,0,0.2,0,0.2,0c0-0.1,0-0.1,0-0.2
		c-0.1,0-0.1,0-0.2,0C60.2,84,60.2,84.1,60.2,84.2z M63.6,84.2c0.1,0,0.2,0,0.2,0c0-0.1,0-0.1,0-0.2c-0.1,0-0.1,0-0.2,0
		C63.6,84,63.6,84.1,63.6,84.2z"/>
	<path class="st0" d="M114.9,47.7l-0.2-0.1c0-0.3,0-0.5,0.1-0.7c0.2,0.2,0.4,0,0.7,0c-0.1,0.4,0.2,0.4,0,0.7l-0.2-0.1l0.1,0.2
		c-0.1,0.1-0.3,0.1-0.6,0.1L114.9,47.7z"/>
	<path class="st0" d="M114.7,49.2l0.2,0.1c0.1,0.4-0.5,1.1-0.4,1.3c0.1,0.5-0.3-0.1-0.4,0.2v-0.1H114v-0.1l0.1-0.3l-0.3-0.1
		c0.1-0.3,0.5-0.4,0.7-0.7c-0.1-0.4-0.1-0.2,0.1-0.4L114.7,49.2z"/>
	<path class="st0" d="M65.2,37.4c-0.2-0.1-0.6,0.1-0.6-0.1c-0.8,0.4-1.2,1.1-1.6,1.9c-0.4,0-0.4-0.5-0.7-0.7l0.1-0.2l-0.1-0.2
		c0.3-0.2-0.2-0.5,0.2-0.4c0.1-0.2-0.2-0.2-0.2-0.3c0.1,0,0.2-0.1,0.2-0.2c-0.2,0-0.3,0-0.3-0.1h0.1V37c0.1,0,0.1,0.1,0.2,0.1
		c0-0.2-0.1-0.3-0.2-0.3l0.1-0.2l-0.2,0.1c0-0.5,0-1,0-1.5c-0.5-0.1-0.4,0.4-0.6,0.7c0.4-0.1,0.4,0.2,0.4,0.4
		c-0.4,0-0.7,0.6-0.7,0.8l-0.2,0.1l0.2,0.1c-0.1,0.3,0.5,0.3,0,0.3c0,0.3,0.1,0.5,0.2,0.7l-0.1,0.2l0.1,0.2
		c-0.1,0.2-0.3,0.4-0.4,0.7c-0.7-0.5-0.9-1.5-1.7-1.9c-0.1,0.2-0.5,0.1-0.7,0.2l-0.1-0.2l-0.1,0.2c-0.4,0.2,0-0.4,0.1-0.8
		c0.1-0.3,0.4-0.7,0.6-1c0.2-0.4,0.6-0.7,0.6-1c-0.1-0.4-0.3-0.7-1.2-0.6c0.2-0.6-0.7-0.2-0.4-0.9c-0.6,0.2-0.2-0.7-0.8-0.4
		c0.2-0.5-0.2-0.6-0.3-0.8c0-0.1,0-0.2,0-0.3c-0.1-0.2-0.7-0.3-0.4-0.9c-0.6-0.3-1.1-0.8-1.8-1c0.2-0.9-0.6-0.9-0.3-1.9
		c-0.5-0.2-0.3-1.1-0.8-1.3c0-2.2,0-4.3,0-6.5c-5-0.3-10.5,0-15.7-0.1c0-6.4,0-12.9,0-19.3c16,0,32.1,0,48.1,0c0,6.4,0,12.9,0,19.3
		c-5.2,0-10.4,0-15.6,0c-0.3,1.9,0,4.4-0.1,6.5c-0.6,0.9-0.8,2.2-1.2,3.4c-0.2,0.2-0.5,0.4-0.9,0.4c-0.1,0.3-0.3,0.5-0.8,0.4
		c-0.1,0.9-0.7,1.2-0.8,2.1c-0.6-0.1-0.4,0.5-0.8,0.6c0.2,0.6-0.7,0.2-0.4,0.8c-0.7-0.1-1.1,0.1-1.3,0.3c0.2,1.2,1.1,1.5,1.3,2.8
		l-0.2-0.1L65.2,37.4z M47.1,13.6c1.1,0.9,3,0.7,3.9,0c1.3-1,1.6-4.2,0.9-6.1c-0.4-0.9-1.2-1.3-1.8-1.8c-0.6,0.1-1.6-0.1-2,0.1
		C45.3,6.4,45.2,12.1,47.1,13.6z M60.5,13.5c1.1,1.1,3.3,0.7,4.2,0c2.4-2.1,1.4-8.9-3-7.6C59.1,6.6,58.7,11.8,60.5,13.5z M42.3,10.9
		c-0.5-1.6-0.8-3.3-1.2-4.9c-0.5,0-1,0-1.6,0c0.7,2.7,1.5,5.3,2.2,8c0.4,0,0.9,0,1.3,0c0.8-2.6,1.6-5.3,2.2-8c-0.5,0-1,0-1.6,0
		c-0.3,1.7-0.8,3.3-1.1,4.9l-0.2-0.1L42.3,10.9z M53.1,14c0.5,0,1,0,1.5,0c0.1-1-0.1-2.3,0.1-3.1c1.1,0,1.9-0.1,2.2,0.7
		c0.3,0.6-0.1,1.7,0.1,2.4c0.3,0.2,1.1,0.1,1.6,0.1c-0.4-1.1,0.1-3.2-0.8-3.8c0.7-0.6,0.9-1.6,0.8-2.5c-0.4-2.1-3-1.7-5.5-1.7
		C53.1,8.7,53.1,11.3,53.1,14z M70.6,10.6c-0.9-1.4-1.5-3.1-2.2-4.6c-0.5,0-1,0-1.6,0c0,2.7,0,5.3,0,8c0.4,0,0.9,0,1.3,0
		c0-1.5,0-3,0-4.5l0.2,0.1l0.1-0.2c0.8,1.4,1.5,3,2.2,4.6c0.5,0,1,0,1.5,0c0-2.7,0-5.3,0-8c-0.4,0-0.9,0-1.3,0c0,1.5,0,2.9,0,4.4
		l-0.2,0.1V10.6z M75.6,6c0,0.1,0,0.2,0,0.3c0,1,0,2.3,0,3.6c0,1.1,0.4,2.7-0.8,2.8c-0.7-0.2-0.5-1.3-0.7-1.9c-0.4,0-0.8,0-1.2,0
		c-0.9,2.7,2.2,4.4,3.7,2.8c1.3-1.4,0.2-5.3,0.6-7.6C76.7,6,76.1,6,75.6,6z M80.2,6c-0.7,2.7-1.6,5.2-2.2,8c0.5,0,1,0,1.6,0
		c0-0.6,0.2-1.2,0.4-1.6c0.7,0,1.5,0,2.2,0c0,0.6,0.4,0.9,0.3,1.6c0.5,0,1,0,1.6,0c-0.7-2.9-1.5-5.4-2.2-8C81.3,6,80.8,6,80.2,6z
		 M61.8,34.7c0.4-0.1,0.3,0.2,0.4,0.2c0-0.1,0-0.3,0-0.4C62,34.4,61.8,34.5,61.8,34.7z"/>
	<path class="st0" d="M91.9,2.7c1-0.6,1.9-0.5,3-0.9c0.6-0.2,1-0.7,1.5-0.9c0.3-0.1,0.6,0,0.9-0.1s0.4-0.4,0.7-0.4
		c0.9-0.3,1.9-0.4,3-0.3c1.4,0.1,2.7,1.1,3.5,1.9c0.9,0.9,1.6,2.1,2.5,3.1c1,1.3,1.9,2.6,2.5,4.2c1.2,0.7,2.1,1.9,3.4,2.8
		c1,0.6,2.4,0.7,2.7,2c0.7,0.1,1.2,0.5,1.8,0.8c0.1,0.2-0.2,0.2-0.2,0.3c0.2,0.4,0.2-0.3,0.4-0.1c1.7,1.5,3.5,3.4,3.9,6
		c0.2,1.1-0.1,2.3,0.7,3.3c0.3,1.8,1,3.2,0.6,4.9c-0.1,0.4-0.5,0.6-0.6,0.9c-0.2,0.5,0,1,0,1.7c0,1.1-0.4,2.4-0.2,3.5
		c0.2,0.9,1.4,2.2,2.1,3.1c0.7,0.9,1.4,1.9,2,3c-0.1,0.8-1.3,0.5-1.9,0.8c-0.1-0.2-0.2-0.5-0.3-0.7c-1.6,0.6-1.8-1.9-3.3-2.1
		c-0.9,0.1-1.4,0.7-1.2,1.5c-0.8-0.4-2-0.4-2.5-1.1c-0.5,0.9-0.5,2.4-0.9,3.1l-0.1-0.1l-0.1-0.1c-0.1,0-0.1-0.1-0.2-0.1
		c0,0.1-0.1,0.2-0.2,0.2l-0.1-0.2l-0.2-0.1c-1.1-0.8-0.6-3.2-1.3-4.4c0.3-0.4-0.1-0.7,0-1.2c-0.3,0-0.4,0.3-0.6,0.4
		c-0.6-0.5-1-1.2-1.1-2.2c0-0.1-0.2-0.1-0.3-0.1c-0.1-2-1.7-2.4-2.6-3.6c-0.4,0.5-1.1,0.7-1.2,1.6c-0.6-0.6-1.2-1.2-1.7-1.9
		c-0.4,0-0.2,0.5-0.7,0.4c0.3-0.6-0.5-0.8-0.8-1.1c-0.2,0.4,0.1,0.9,0.3,1.1c0,0.4-0.6-0.1-0.9-0.1c-0.5,0.3-0.2,1.1-0.9,1.3
		c0.1,0.9,0.2,1.9,0.2,3l-0.2-0.1l-0.1,0.2c-0.2,0.1-0.4,0.1-0.3,0.4l0.1,0.1l0.1,0.1H103c0,0.2,0,0.5,0.3,0.4l0.1,0.2l0.2-0.1
		c-0.6,1.2-1,2.1-1.3,3.4l-0.1-0.2l-0.2,0.1c0.1-0.9,0.7-2.2,0-2.9c0.4-2.8-0.5-5.4-0.9-7.6c-0.1-0.6,0-1.2-0.1-1.8
		c-0.1-0.8-0.7-1.8-1-2.7c-0.2-0.4-0.1-0.8-0.3-1.1c-0.4-0.5-1.3-0.4-1.3-1.2c-0.3-0.2-0.6-0.5-1-0.7c-0.5-1.4-1.3-2.1-1.3-3.8
		c-0.7-0.2-1-1.2-0.9-1.9c-0.4-0.4-1.2-0.8-1.9-0.7c-0.2-0.6-1.1-0.5-1.5-0.9c0.4-2.2,2-3.1,3.8-3.8c0.1-1.3,0.7-3.1-0.2-4
		c-0.9-0.2-1.5,0.5-2.1,0.1C92,8,90.8,8.2,89.6,8.5l0.1-0.2l-0.2-0.1c0.6-0.4,1.2-1.4,2-1.2c0.2-0.1,0-0.6,0.4-0.4l-0.1,0.2L92,6.7
		c1.5-0.2,2.5-1.1,3.7-0.9L95.6,6l0.2-0.1v0.2c0.7-0.2,0.8-1.2,1.9-0.7c0.1-0.4,0.5-0.6,0.6-1C97.8,4.3,98,5,97.7,5.1
		c-0.6-0.3-1.7,0.3-2-0.1c-0.1,0.2-0.4,0.7-0.6,0.4l0.1-0.2H95c0.3-0.3,0.2-0.5-0.1-0.7H95V4.3c0.7-0.2,1.3-0.2,1.9,0
		c0.3-0.7-0.8-0.1-0.7-0.8c-0.7,0.2-0.8,0.5-1.8,0.3c0.1-0.4,0.4-0.5,0.8-0.6c0.2-0.2,0.3-0.6,0.6-0.7c-0.4-0.4-0.7,0.2-0.8,0.4
		c-0.9,0.1-1.8,0.3-2.4,0.8c-0.3-0.1-0.4-0.5-0.4-0.8h-0.1l0.1-0.2L91.9,2.7z M101.8,2.2c0.1-0.1,0.3-0.1,0.2-0.3
		c-0.2-0.4-0.4,0.4-0.6,0c0.5-0.2,0.4-0.4,0.3-1c-0.4,0.4-0.4-0.4-0.7-0.1c0.2,0,0.2,0.8,0,0.9c-0.1-0.5-1.1,0-0.8,0.3
		c0.2-0.4,0.8-0.1,0.8,0.3h0.1L101,2.5l0.1,0.2c-0.1,0.3-0.5,0-0.7,0c0.3,0.7,0.8,0.9,1.6,0.7l0.1,0.1l0.1-0.1
		c0,0.3,0.5,0.3,0.4-0.1c-0.1,0-0.3,0-0.4,0l0.1-0.3l-0.2,0.1c0-0.1,0-0.2,0-0.3c0.5,0.1,0.6-0.2,1-0.2c0.3,0,0.2,0.5,0.6,0.4
		c0.1-0.6-0.6-0.5-0.9-0.8c-0.1,0.3-0.6,0.5-0.9,0.3l0.1-0.2L101.8,2.2z M98.9,3.4c0.4-0.2,0.3-0.8,0.9-0.8
		C99.6,0.7,97.1,3.1,98.9,3.4z M105.6,5c-0.3-0.4-0.5-0.8-1-1c-0.3,0.6,0.7,0.6,0.8,1.1l-0.1,0.2l0.2-0.1c-0.1,0.3,0.3,0.4,0.3,0.1
		c-0.1,0-0.1-0.1-0.2-0.1l0.1-0.1L105.6,5z M103.2,4.9c0.2-0.3,0-0.7-0.3-0.8C102.8,4.5,103,4.7,103.2,4.9z M101,8.5
		c0.1,0,0.2,0,0.2,0c0-0.1,0-0.1,0-0.2c-0.1,0-0.1,0-0.2,0C101,8.3,101,8.4,101,8.5z M107.8,8.6c0.1,0,0.1,0,0.2,0
		c0-0.1,0-0.1,0-0.2c-0.1,0-0.1,0-0.2,0C107.8,8.4,107.8,8.5,107.8,8.6z M101.8,9.1c-0.1,0-0.1-0.2-0.2-0.2
		c-0.1,0.1-0.1,0.2-0.1,0.3l-0.1,0.2l0.1,0.2c-0.2,0.4-0.3-0.2-0.4-0.2c-0.5,0.2-0.7,0-1.1,0.2c0-0.2,0.1-0.2,0.1-0.3
		c-0.5,0.4-0.9,0.6-1.1,1.5c-0.1,0-0.1-0.1-0.2-0.1c0,0.2,0.1,0.3,0.1,0.4c-0.3-0.3-0.3,0.4-0.6,0.6L98,11.6v0.1c-0.1,0-0.1,0-0.2,0
		l-0.1-0.2l-0.2,0.1c0.1-0.9,0.7-1.4,0.2-2c-0.1,0.5-0.3,1-0.4,1.5L97,11l-0.2,0.1c-0.5-0.1-0.4,0.4-0.4,0.8V12l0.2-0.1
		c0,0.2,0,0.3,0.1,0.3c0-0.1,0.1-0.1,0.1-0.2l0.1,0.1L97,12c0.1,0,0.2,0,0.2,0l-0.1,0.2l0.2,0.1c0,0.4-0.5,0.9-0.1,1.2
		c0.2-0.2,0.1-0.6,0.2-0.7l0.2,0.1l0.1-0.2c0.2,0,0.2-0.1,0.3-0.1l0.1,0.2l0.2-0.1v0.1c0.1,0.1,0.3,0.1,0.6,0.1c0,0.1,0,0.2,0,0.3
		l-0.1,0.2l0.2-0.1c0,0.2-0.1,0.2-0.1,0.4c0.2,0.1,0.2-0.2,0.3-0.2l0.1,0.2l0.1-0.2c0.1,0.1,0.2,0.2,0.3,0.3
		c-0.3-0.1-0.3,0.6-0.1,0.7c0.1-0.4,0.4-0.6,0.4-1c-0.2,0-0.2,0.1-0.4,0.1c0-0.2,0-0.3-0.1-0.3l0.1-0.2l-0.2,0.1h-0.1v-0.1H99
		c0.1-0.1,0.3-0.1,0.2-0.3c-0.2,0-0.3,0.2-0.3,0c0.4-0.5-0.1-1.1,0.4-1.6l0.1,0.2l0.2-0.1h0.1l0.1,0.1l0.1-0.1
		c-0.2,0.5,0.1,0.8,0.1,1.1c0.2-0.3,0.3,0.3,0.3,0.6c0.4-0.1,0.3,0.2,0.6,0.2c0-0.2,0.3-0.1,0.2-0.4c-0.1-0.3-0.6,0.1-0.6-0.1
		c0.1-0.3,0-1.4-0.2-1.2c0-0.3,0.3-0.3,0.2-0.7l0.2,0.1l-0.1-0.2c0.2-0.2,0.2-0.5,0.4-0.7c0,0.2,0.1,0.2,0.2,0.2
		c0.1-0.2,0.3-0.4,0.2-0.8l0.1-0.1l-0.1-0.1c0.1,0,0.1-0.1,0.2-0.1l0.1,0.2l0.2,0.1c0.1,0,0.1,0,0.2,0c0.1-0.2-0.2-0.7-0.2-0.4l0,0
		L101.8,9.1z M102.8,9.4c0.1,0,0.2,0,0.2,0c0.2-0.3-0.4-0.3-0.3-0.1C102.8,9.3,102.8,9.3,102.8,9.4z M107.2,10.7
		c0.5,0.1,0.4-0.6,0-0.6C107.3,10.5,107,10.5,107.2,10.7z M102.6,10.8c0.1,0,0.1,0,0.2,0c0.2-0.3-0.4-0.3-0.3-0.1
		C102.6,10.7,102.6,10.7,102.6,10.8z M106.7,11.1c0.1,0,0.2,0,0.2,0c0.2-0.3-0.4-0.3-0.3-0.1C106.6,10.9,106.7,11,106.7,11.1z
		 M108.3,11.8c0.2,0,0.3-0.1,0.3-0.2C108.5,11.5,108,11.3,108.3,11.8l-0.3-0.2l-0.1,0.2c-0.1,0-0.1,0-0.2,0c0,0.2,0,0.4-0.2,0.3
		c0-0.1,0.1-0.1,0.1-0.2c-0.7,0-1,0.3-1.8,0.1c0,0.1,0,0.2,0,0.3c0.4,0.1,0.5-0.2,0.9-0.1c0,0.3,0,0.4,0.2,0.4c0-0.1,0-0.1,0.1-0.1
		l0.1,0.2l0.2-0.1c0.9-0.2,1.3,0.6,2,0.2c-0.2-0.3,0-0.4-0.1-0.7c-0.2,0-0.3,0-0.4,0c-0.3,0.1,0.2,0.3-0.1,0.4c0-0.4-0.6,0-0.6-0.2
		s0-0.4,0-0.6L108.3,11.8L108.3,11.8z M95.5,13c0.5-0.2,0.2-0.4,0.3-0.9C95.5,12.1,95.6,12.6,95.5,13z M110.6,14.8
		c0.5,0.5,1.2,0.2,1.6-0.2c-0.3-0.1-0.3,0.2-0.7,0.1c-0.2-0.2,0.1-0.3-0.1-0.6h-0.1l0.1-0.2l-0.1-0.2c-0.1-0.1-0.1-0.3-0.1-0.6
		c0.1-0.1,0.4-0.1,0.6-0.2c-0.1-0.3-0.8-1-1.1-0.4l-0.1,0.1l0.1,0.1c-0.2,0.3,0.4,0.6-0.3,0.3c-0.3,0.2,0,0.4-0.2,0.6
		c-0.4,0-1.1,0.3-0.8,0.7c0-0.1,0.5-0.3,0.4-0.1s-0.2,0.3-0.2,0.4c0.3,0.2,0.8,0.3,1,0L110.6,14.8L110.6,14.8L110.6,14.8z
		 M102.6,13.2c0.2,0,0.1,0.4,0.3,0.4C103.4,13.4,102.9,12.7,102.6,13.2z M106.4,13.4c0-0.3-0.2-0.5-0.6-0.4
		C105.8,13.4,106,13.5,106.4,13.4z M101.7,14.2c-0.3-0.3-0.4,0.3-0.9,0.1c-0.1,0.3,0,1.4,0.1,1l0.2,0.1l0.1-0.2
		c0.1,0,0.1,0.1,0.1,0.2c0.4,0,0.1-0.5,0.6-0.2c0.1-0.3-0.3-0.5,0-0.6l0.2-0.1l-0.1-0.2c0.5,0,0.3,0.7,0.4,1c0.4,0,0.3-0.4,0.7-0.4
		c0-0.3-0.2-0.2-0.1-0.6c-0.5,0.3-0.3-0.2-0.7-0.3c0.1,0.5-0.4-0.1-0.3,0.2l-0.1-0.1L101.7,14.2z M106.8,15
		c-0.3-0.3-0.9-0.5-0.9,0.1c0.4,0.1,0.5,0.5,0.9,0.1v0.1h0.1c0.1,0.2,0.2,0,0.3,0l0.1,0.2l0.1-0.2c0.3,0,0.3-0.3,0.4-0.4
		c-0.1,0-0.2,0-0.3,0c0,0.1,0,0.2-0.1,0.2l-0.1-0.2l-0.1,0.2c-0.1,0-0.2,0-0.3,0l0.1-0.2L106.8,15z M103.6,15.6
		c0.2-0.1,0.2-0.6-0.1-0.6C103.6,15.2,103.4,15.7,103.6,15.6l0.1,0.3l0.2-0.1c-0.2,0.3,0.4,0.3,0.3,0.1c-0.1-0.1-0.1-0.3-0.3-0.2
		L103.6,15.6L103.6,15.6z M104.5,15.2c0.2,0,0.4,0,0.3-0.2c-0.1,0-0.1,0-0.2,0C104.6,15.1,104.5,15.1,104.5,15.2z M107.9,15.9
		c0.2,0.4,0.2,1,0.6,1.2c0.1-0.1,0-1.1-0.1-1.3C108.1,15.8,108,15.8,107.9,15.9z M109.2,16.1c0-0.2,0.5,0,0.4-0.3
		C109.4,15.7,108.9,16,109.2,16.1z M115.8,17.2c0.4,0.1,0.3-0.2,0.4-0.2c-0.1,0.3,0,0.4,0.3,0.3c0.1-0.2-0.2-0.2-0.2-0.3
		c0-0.4,0.7-0.8,0.9-0.8c0.3,0,0.4,0.8,0.9,0.6c0-0.2,0-0.3,0-0.4c-0.6-0.1-0.9-0.9-1-0.2c-0.2,0.1-0.2-0.2-0.2-0.3
		c-0.2,0-0.3,0-0.4,0c-0.2,0.5-1.4,0.5-0.8,1.5l-0.2-0.1l-0.1,0.2h-0.1c-0.3,0.3,0,0.8,0.4,0.7c0-0.3-0.2-0.2-0.1-0.6l0.2-0.1
		L115.8,17.2z M101.1,17c0.1,0,0.1,0.1,0.2,0.1c0-0.2,0-0.4-0.2-0.3C101.1,16.9,101.1,16.9,101.1,17z M106.4,17.6c0.1,0,0.2,0,0.3,0
		c0-0.1,0-0.1,0-0.2c-0.1,0-0.2,0-0.3,0C106.4,17.4,106.4,17.5,106.4,17.6z M108.6,17.9c0.1,0.1,0.3,0.1,0.4-0.1
		C108.9,17.7,108.6,17.7,108.6,17.9z M118.2,20.5c-0.2-0.1-0.2-0.5-0.6-0.4C117.7,20.3,118.1,20.8,118.2,20.5z M111,30.1
		c-0.4,0.4,0.3,0.7,0.3,1.1c0,0.2,0.1,0.4,0.1,0.2c-0.1-0.5,0.2-0.6,0.4-0.7l0.2,0.1l0.2-0.1c0.2,0.1,0.1,0.6,0.4,0.6
		c0.1-0.3-0.2-0.3-0.1-0.6l0.1-0.2l0.1-0.2c0.5,0.1,0.6,0.7,0.6,1.3l-0.2,0.1l0.1,0.2h-0.1c-0.2,0.2-0.1,0.6,0.2,0.6
		c0-0.2,0-0.4,0-0.6l0.2-0.1l-0.1-0.2c0-0.1,0.3-0.8,0.1-1.1l0.2,0.1l0.1-0.2c0.1,0,0.2,0.2,0.3,0.2c-0.1-0.5-0.2-0.6-0.1-1.3
		c-0.5-0.4-1.2-0.6-2.1-0.6c0,0.2,0.1,0.2,0.1,0.3l-0.2,0.1l0.1,0.2c-0.4,0-0.7-0.3-0.8,0.2v0.1l-0.1,0.2L111,30.1z M103.7,30.3
		c0.1,0,0.2,0,0.2,0c0-0.1,0-0.1,0-0.2c-0.1,0-0.1,0-0.2,0C103.7,30.1,103.7,30.2,103.7,30.3z M117.9,35.6c0-0.2-0.1-0.4-0.1-0.2
		C117.8,35.5,117.9,35.8,117.9,35.6z M115.8,41c0-0.2-0.1-0.3-0.2-0.3C115.5,40.8,115.6,40.9,115.8,41z"/>
	<path class="st0" d="M115.6,44.7l0.2-0.1c0,0.3,0,0.6-0.1,0.8l-0.1-0.1l-0.1,0.1c-0.1,0-0.1,0-0.2,0l0.1-0.2l-0.2-0.1
		c0-0.1,0-0.3,0-0.4H115.6l-0.2-0.2h0.1L115.6,44.7z"/>
	<path class="st0" d="M115.4,46.4l0.2,0.1c0,0.1,0,0.2,0,0.3c-0.3,0-0.2-0.2-0.6-0.1c0-0.2,0-0.3,0.1-0.3l0.2,0.1l-0.1-0.2
		c0.1,0,0.2,0,0.2,0L115.4,46.4z"/>
	<path class="st0" d="M99.7,10.7l-0.2-0.1c0.2-0.3,0.3-0.6,0.7-0.7c-0.2,0.3-0.2,0.5-0.1,0.9C100,10.8,99.8,10.8,99.7,10.7
		L99.7,10.7z"/>
	<path class="st0" d="M84.9,78.5c-0.1,0,0.9-0.1,0.8,0.2C85.3,78.8,85.1,78.7,84.9,78.5z"/>
	<g>
		<path class="st1" d="M81.1,9c0-0.2,0-0.3,0.1-0.4"/>
		<path class="st1" d="M39.1,79.1c0.2-0.1,0.2-0.4,0.4-0.4"/>
		<path class="st1" d="M84.4,78.8c0.2,0.1,0.3,0.2,0.4,0.4"/>
		<path class="st1" d="M56.8,48.9c0.1,0,0.1,0,0.2,0.1c0,0.1,0,0.2,0.1,0.3"/>
		<path class="st1" d="M61.8,41c0.2,0,0.2-0.1,0.2-0.1"/>
		<path class="st1" d="M66.9,49.2c0.1-0.1,0.1-0.2,0.2-0.3"/>
		<path class="st1" d="M101.6,43.9c0.1,0,0.2-0.1,0.3-0.1"/>
		<path class="st1" d="M102.7,44c0.1-0.1,0.2-0.1,0.2-0.1"/>
		<path class="st1" d="M113.7,49.5c0.5-0.2,0.3-0.9,0.9-1"/>
		<path class="st1" d="M114.6,48.4L114.6,48.4c-0.2-0.4,0.1-0.7,0.3-0.8"/>
		<path class="st1" d="M115.5,47.8c0-0.1-0.1-0.1-0.1-0.2"/>
		<path class="st1" d="M114.6,48.4L114.6,48.4c0.2,0.1,0.2,0.3,0.2,0.4"/>
		<path class="st1" d="M114.8,48.9c0.2-0.1,0.5,0,0.7,0.1c0.1,0.4,0,0.7,0,1.1"/>
		<path class="st1" d="M114.8,48.9c-0.1,0.1-0.1,0.2-0.1,0.3"/>
		<path class="st1" d="M113.8,51.3c-0.1-0.1-0.1-0.2-0.1-0.2c0.1,0,0.2-0.2,0.3-0.3"/>
		<path class="st1" d="M115.5,51.4c0-0.2,0.3-0.2,0.3-0.4"/>
		<path class="st1" d="M99.6,80.6c-0.2,0.1-0.3,0.1-0.4,0.2"/>
		<path class="st1" d="M90.7,89.8c0.1,0,0.2,0.1,0.3,0.1"/>
		<path class="st1" d="M34.1,78.5c0-0.1-0.1-0.2-0.1-0.3"/>
		<path class="st1" d="M41,77.7c0.5-0.3,1,0.2,1.5,0.4"/>
		<path class="st1" d="M45.3,77c-0.2,0.1-0.3,0.3-0.3,0.4"/>
		<path class="st1" d="M43.6,74.5C43.6,74.6,43.6,74.6,43.6,74.5c0.5,0.3,1,0.4,1.5,0.6"/>
		<path class="st1" d="M47.2,71.4c0.1,0,0.1,0.1,0.3,0.2"/>
		<path class="st1" d="M53.3,72.2c0.1,0,0.1-0.1,0.2-0.1"/>
		<path class="st1" d="M50.9,68.6c0.1,0,0.2,0,0.3,0.1"/>
		<path class="st1" d="M33.9,69.9c0.1-0.3,0-0.5,0.1-0.8"/>
		<path class="st1" d="M100.9,80c0.1,0,0.3-0.1,0.4-0.3"/>
		<path class="st1" d="M99.6,41.5c0.2-0.1,0.3-0.2,0.3-0.3"/>
		<path class="st1" d="M62.4,44c0-0.1,0-0.2,0-0.3"/>
		<path class="st1" d="M61.7,45.7c0.1-0.1,0.1-0.2,0.2-0.3"/>
		<path class="st1" d="M111.7,50.5c0.2-0.1,0.3-0.1,0.3-0.2"/>
		<path class="st1" d="M113.2,50.9c0.3-0.2,0.5-0.4,0.8-0.6"/>
		<path class="st1" d="M111.4,49.9c0.2-0.1,0.4-0.2,0.4-0.4"/>
		<path class="st1" d="M112.6,52.8c-0.1-0.2,0.1-0.4,0.2-0.6c0,0-0.1-0.1-0.2-0.1"/>
		<path class="st1" d="M59.9,53.6c0-0.1,0-0.2,0-0.3"/>
		<path class="st1" d="M64.1,53.5c0-0.1,0-0.1,0-0.2"/>
		<path class="st1" d="M76.5,71.6c0.2-0.1,0.2-0.2,0.3-0.2"/>
		<path class="st1" d="M78.9,75.1c0.5-0.2,1.1-0.2,1.5-0.6"/>
		<path class="st1" d="M78.7,77.1c0.1,0.1,0.2,0.2,0.3,0.3"/>
		<path class="st1" d="M81.4,78.1c0.5-0.1,1-0.6,1.6-0.4"/>
		<path class="st1" d="M95.1,79.9c0-0.1,0-0.2,0.1-0.3"/>
		<path class="st1" d="M58.7,37.5c0-0.1,0-0.1,0.1-0.2"/>
		<path class="st1" d="M65.3,37.5c0-0.1,0-0.2-0.1-0.3"/>
		<path class="st1" d="M42.4,11.1c0-0.1,0-0.1,0.1-0.2"/>
		<path class="st1" d="M68.3,9.5c0-0.1-0.1-0.2-0.1-0.3"/>
		<path class="st1" d="M70.7,10.7c0-0.1,0-0.1-0.1-0.2"/>
		<path class="st1" d="M62.4,36.5c-0.1,0.1-0.1,0.2-0.2,0.2c0,0.1,0.1,0.2,0.1,0.3"/>
		<path class="st1" d="M61.3,37.1c0.1,0,0.2,0,0.2,0"/>
		<path class="st1" d="M61.6,38.3c0.2,0,0.4,0,0.6,0"/>
		<path class="st1" d="M62.2,38.4c0-0.2,0-0.4-0.1-0.7"/>
		<path class="st1" d="M62.2,38.4c0.1,0,0.2,0,0.2,0"/>
		<path class="st1" d="M115.5,44c0.2,0.2,0.1,0.5,0,0.7"/>
		<path class="st1" d="M115.5,45.9c0,0.1,0,0.3,0,0.4c0,0-0.1,0.1-0.2,0.1"/>
		<path class="st1" d="M115.2,45.9c-0.1-0.2-0.1-0.4,0-0.6"/>
		<path class="st1" d="M115.4,44.8c-0.2-0.2-0.2-0.6,0-0.9"/>
		<path class="st1" d="M115.3,44c-0.2-0.4-0.2-0.8-0.1-1.2"/>
		<path class="st1" d="M103.4,36.6c0.1,0.2-0.1,0.5-0.1,0.7"/>
		<path class="st1" d="M101.7,41.6c0,0.1,0.1,0.2,0.2,0.3c0,0.2-0.2,0.3-0.2,0.5"/>
		<path class="st1" d="M101.3,41.9c0.2-0.2,0.3-0.2,0.4-0.3"/>
		<path class="st1" d="M101.7,41.6c-0.1-0.4,0.3-0.7,0.3-1.2"/>
		<path class="st1" d="M89.6,8.3c-0.1,0-0.2,0.1-0.3,0.1"/>
		<path class="st1" d="M94.5,4.4c0.2,0.1,0.3-0.1,0.5,0.1"/>
		<path class="st1" d="M88.4,5.3c0.7-1.4,2.2-2.1,3.7-2.4"/>
		<path class="st1" d="M101.2,2.5c0.2,0,0.3,0,0.4,0"/>
		<path class="st1" d="M101.6,2.5c0.1,0,0.3-0.1,0.4-0.2"/>
		<path class="st1" d="M102.3,3.4c0-0.1,0-0.2,0.1-0.3"/>
		<path class="st1" d="M101.6,2.5c0,0.1-0.1,0.2-0.2,0.3"/>
		<path class="st1" d="M105.4,5.3c0.2-0.1,0.2-0.1,0.3-0.2"/>
		<path class="st1" d="M95.1,5.3c-1.1,0.3-2.3,0.6-3.3,1.3"/>
		<path class="st1" d="M95.7,5.9c0.1-0.1,0.1-0.1,0.2-0.2"/>
		<path class="st1" d="M101.4,9.4c0.1,0,0.2,0,0.3,0.1"/>
		<path class="st1" d="M101.9,9.4c0.1-0.2,0-0.3,0-0.4"/>
		<path class="st1" d="M99.4,11.6c0-0.3,0-0.7,0.3-0.9"/>
		<path class="st1" d="M99.1,13.3c-0.1,0.1-0.3,0.2-0.4,0.3"/>
		<path class="st1" d="M100.7,11c-0.4-0.3-0.7,0.3-1,0.6"/>
		<path class="st1" d="M96.8,11.8c0.1,0.1,0.1,0.2,0.1,0.3"/>
		<path class="st1" d="M97.5,12.1c0-0.2,0.1-0.3,0.1-0.5"/>
		<path class="st1" d="M96.4,12c0.2-0.1,0.3-0.1,0.4-0.2"/>
		<path class="st1" d="M96.8,11.8c0.1-0.3,0.4-0.5,0.3-0.8"/>
		<path class="st1" d="M98,12.9c0.2-0.4,0-0.9,0-1.3"/>
		<path class="st1" d="M97.5,12.1c0.2,0.3-0.1,0.7,0.1,1"/>
		<path class="st1" d="M107.2,12.8c0-0.1,0-0.1,0.1-0.2"/>
		<path class="st1" d="M108.3,12c-0.1-0.1-0.1-0.2-0.2-0.3"/>
		<path class="st1" d="M97.5,12.1c-0.1,0.1-0.2,0.1-0.4,0.2"/>
		<path class="st1" d="M110.5,12.6c0.1,0.1,0.3,0.1,0.4,0.2"/>
		<path class="st1" d="M110.5,14.8c0.2-0.2,0.1-0.7,0.4-0.8"/>
		<path class="st1" d="M110.9,14c0-0.1,0-0.2,0-0.2"/>
		<path class="st1" d="M110.9,14c0.2,0,0.3,0,0.4-0.1"/>
		<path class="st1" d="M99.4,13.4c-0.1,0.2-0.3,0.3-0.2,0.6"/>
		<path class="st1" d="M101.1,15.4c0-0.2-0.1-0.2-0.1-0.3"/>
		<path class="st1" d="M102,14.6c-0.1-0.1-0.1-0.2-0.2-0.3"/>
		<path class="st1" d="M106.8,15.3c0-0.1,0.1-0.3,0.2-0.4"/>
		<path class="st1" d="M103.7,15.8c0-0.1,0-0.1,0-0.2"/>
		<path class="st1" d="M107.3,15.5c0-0.1,0-0.4,0-0.6"/>
		<path class="st1" d="M115.5,17.2c0.1,0.1,0.2,0.2,0.3,0.2"/>
		<path class="st1" d="M112.1,30.8c0-0.2,0.1-0.3,0.1-0.4c0.2-0.1,0.3,0.1,0.4,0.2"/>
		<path class="st1" d="M113.1,31.9c0.1,0,0.2,0,0.3,0.1"/>
		<path class="st1" d="M113.7,30.7c0-0.4-0.5-0.5-0.6-0.8"/>
		<path class="st1" d="M111.8,29.2c0.2,0.1,0.2,0.1,0.4,0.3"/>
		<path class="st1" d="M111,29.9c0.2,0,0.4,0.1,0.6,0.1"/>
		<path class="st1" d="M103.4,36.6c0-0.2,0-0.4-0.1-0.6"/>
		<path class="st1" d="M103.4,36.6c-0.1,0-0.3,0-0.5,0.1"/>
		<path class="st1" d="M115.3,44c0.1,0,0.1,0,0.2,0"/>
		<path class="st1" d="M115.5,44c0.3-0.3,0.3-0.7,0.3-1.1"/>
		<path class="st1" d="M115.5,45.9c0-0.1,0-0.3,0-0.5"/>
		<path class="st1" d="M115.5,45.9c-0.1,0-0.2,0-0.3,0"/>
		<path class="st1" d="M115.2,45.9c-0.1,0.1-0.1,0.3,0,0.5"/>
		<path class="st1" d="M100.6,10.1c0.1,0,0.2-0.1,0.3-0.2"/>
	</g>
</g>
</svg>
