<?xml version="1.0" encoding="utf-8"?>
<!-- Generator: Adobe Illustrator 24.2.3, SVG Export Plug-In . SVG Version: 6.00 Build 0)  -->
<svg version="1.1" id="Layer_1" xmlns="http://www.w3.org/2000/svg" xmlns:xlink="http://www.w3.org/1999/xlink" x="0px" y="0px"
	 viewBox="0 0 160 90" style="enable-background:new 0 0 160 90;" xml:space="preserve">
<style type="text/css">
	.st0{fill:#FFFFFF;}
</style>
<g>
	<g>
		<g>
			<path class="st0" d="M51.8,55.4v-1.1h0.3c0.6,0,1.2-0.1,1.5-0.3c0.4-0.1,0.7-0.4,1-0.7s0.5-0.8,0.7-1.3c0.1-0.6,0.2-1.4,0.2-2.6
				v-13c0-1.3-0.1-2.2-0.2-2.8c-0.1-0.5-0.4-1-0.8-1.3c-0.5-0.4-1.3-0.7-2.3-0.7h-0.3v-1.1H62c2.2,0,3.6,0,4.1,0.1
				c2.5,0.2,4.7,0.9,6.5,2.2c1.7,1.2,3,2.8,4,4.7c0.9,1.9,1.4,4.1,1.4,6.3c0,1.7-0.3,3.3-0.8,4.7c-0.5,1.5-1.3,2.7-2.3,3.7
				c-1.4,1.4-3.1,2.3-5.1,2.7c-1.5,0.3-3,0.4-4.5,0.4L51.8,55.4L51.8,55.4z M60.1,49.1c0,1.1,0.1,2,0.2,2.6c0.1,0.5,0.3,1,0.7,1.4
				c0.7,0.8,1.8,1.3,3.4,1.3c1.4,0,2.6-0.2,3.6-0.7s1.9-1.2,2.6-2.2c0.8-1,1.4-2.2,1.8-3.5s0.6-2.7,0.6-4.2c0-1.6-0.3-3.2-0.7-4.7
				c-0.5-1.5-1.2-2.8-2.1-3.9c-1.3-1.5-2.8-2.5-4.5-3c-1-0.3-2.2-0.4-3.7-0.4h-1.8v17.3H60.1z"/>
			<path class="st0" d="M1.9,55.4v-1.1h0.3c1.1,0,1.9-0.3,2.5-0.9c0.3-0.3,0.5-0.8,0.7-1.3c0.1-0.6,0.2-1.4,0.2-2.6v-13
				c0-1.2-0.1-2.1-0.2-2.7c-0.1-0.5-0.4-1-0.7-1.3c-0.3-0.3-0.6-0.5-1-0.6s-0.9-0.2-1.5-0.2H1.9v-1.1h12v1.1h-0.3
				c-0.6,0-1.1,0.1-1.5,0.2s-0.7,0.3-1,0.6c-0.4,0.3-0.6,0.8-0.7,1.3c-0.1,0.6-0.2,1.5-0.2,2.7v10.2c0,1.5,0,2.7,0.1,3.5
				c0.1,0.7,0.2,1.3,0.4,1.8c0.4,0.8,0.9,1.4,1.7,1.7c0.8,0.4,1.8,0.6,3.1,0.6c1.4,0,2.5-0.2,3.4-0.5s1.6-0.9,2.2-1.6
				c0.4-0.5,0.7-1.1,1-1.7c0.3-0.7,0.5-1.5,0.7-2.6l0.1-0.3l1,0.1l-0.3,7.9H1.9V55.4z"/>
			<path class="st0" d="M30.7,55.4v-1.1H31c0.6,0,1.2-0.1,1.5-0.3c0.4-0.1,0.7-0.4,1-0.7s0.5-0.8,0.7-1.3c0.1-0.6,0.2-1.4,0.2-2.6
				v-3.5c0-0.5-0.1-1-0.3-1.5c-0.2-0.7-0.7-1.5-1.3-2.5L28.2,35l-0.8-1.2c-0.6-0.8-1.1-1.4-1.7-1.7c-0.3-0.2-0.5-0.3-0.8-0.3
				c-0.3-0.1-0.7-0.1-1.2-0.1h-0.3v-1.1h12.2v1.1h-0.3c-1.2,0.1-1.6,0.2-1.8,0.2c-0.5,0.2-0.8,0.6-0.8,1.2c0,0.2,0.1,0.5,0.2,0.8
				c0.1,0.3,0.4,0.7,0.7,1.2l4.5,7.1l3.8-6l0.5-0.7c0.4-0.6,0.6-1.2,0.6-1.8s-0.2-1.2-0.6-1.5c-0.4-0.4-1-0.5-1.8-0.5h-0.3v-1.1h8.8
				v1h-0.3c-0.6,0.1-1,0.2-1.3,0.3c-0.3,0.1-0.6,0.3-0.9,0.6c-0.8,0.7-1.7,1.8-2.6,3.3L40,42c-0.6,0.9-0.8,1.3-0.8,1.5
				c-0.1,0.2-0.1,0.7-0.1,1.6v4.3c0,1.2,0.1,2.1,0.2,2.6c0.1,0.5,0.3,0.9,0.7,1.2c0.6,0.6,1.4,0.9,2.5,0.9h0.3v1.1H30.7V55.4z"/>
			<path class="st0" d="M82.2,55.4v-1.1h0.3c0.6,0,1.2-0.1,1.6-0.3c0.4-0.1,0.7-0.4,1-0.7s0.6-0.8,0.7-1.3c0.1-0.6,0.2-1.4,0.2-2.6
				v-13c0-1.2-0.1-2.1-0.2-2.6s-0.3-0.9-0.7-1.3c-0.3-0.3-0.6-0.5-1-0.7c-0.4-0.1-0.9-0.2-1.5-0.3h-0.3v-1.1h12v1.1H94
				c-0.6,0-1.2,0.1-1.5,0.3c-0.4,0.1-0.7,0.4-1,0.7c-0.4,0.4-0.7,1-0.8,1.8c-0.1,0.6-0.1,1.3-0.1,2.1v13c0,1,0,1.7,0.1,2.3
				c0.1,0.5,0.2,0.9,0.4,1.2c0.3,0.4,0.6,0.7,1,0.9s1,0.3,1.8,0.4h0.3v1.1L82.2,55.4L82.2,55.4z"/>
			<g>
				<path class="st0" d="M32.1,89.4v-1.1h0.3c0.6,0,1.2-0.1,1.6-0.3c0.4-0.1,0.7-0.4,1-0.7c0.3-0.3,0.5-0.8,0.7-1.3
					c0.1-0.6,0.2-1.4,0.2-2.6v-6.2h-12v6.2c0,1.2,0.1,2,0.2,2.6c0.1,0.5,0.3,1,0.7,1.3c0.3,0.3,0.6,0.5,1,0.7
					c0.4,0.1,0.9,0.2,1.6,0.3h0.3v1.1h-12v-1.1H16c0.6,0,1.2-0.1,1.6-0.3c0.4-0.1,0.7-0.4,1-0.7c0.3-0.3,0.6-0.8,0.7-1.3
					c0.1-0.6,0.2-1.4,0.2-2.6v-13c0-0.7,0-1.2-0.1-1.7c-0.3-1.7-1.8-3.1-3.6-3.1c-2,0-3.6,1.6-3.6,3.6v0.3h-1.1v-0.3
					c0-2.6,2.1-4.7,4.7-4.7c0,0,0,0,0.1,0H16h11.7v1.1h-0.3c-0.6,0-1.2,0.1-1.5,0.3c-0.4,0.1-0.7,0.4-1,0.7
					c-0.3,0.3-0.5,0.8-0.7,1.3c-0.1,0.6-0.2,1.4-0.2,2.6v5.3h11.9v-5.3c0-1.2-0.1-2.1-0.2-2.6c-0.1-0.5-0.3-0.9-0.7-1.3
					c-0.3-0.3-0.6-0.5-1-0.7c-0.4-0.1-0.9-0.2-1.6-0.3h-0.3v-1.1h12v1.1h-0.3c-0.6,0-1.2,0.1-1.5,0.3c-0.4,0.1-0.7,0.4-1,0.7
					c-0.3,0.3-0.5,0.8-0.7,1.3c-0.1,0.6-0.2,1.4-0.2,2.6v13c0,1.2,0.1,2,0.2,2.6c0.1,0.5,0.3,1,0.7,1.3c0.3,0.3,0.6,0.5,1,0.6
					s0.9,0.2,1.5,0.3h0.3v1.1C44.1,89.4,32.1,89.4,32.1,89.4z"/>
				<path class="st0" d="M59.3,90c-1.9,0-3.8-0.4-5.5-1.2c-1.7-0.8-3.3-1.9-4.5-3.3c-1-1.1-1.8-2.4-2.3-3.9
					c-0.5-1.4-0.8-2.9-0.8-4.5c0-2,0.4-3.9,1.3-5.7c0.9-1.7,2.1-3.3,3.8-4.6c1.2-1,2.6-1.7,4-2.2s2.9-0.8,4.4-0.8
					c1.9,0,3.7,0.4,5.4,1.2s3.3,2,4.6,3.5c2.1,2.4,3.2,5.2,3.2,8.3c0,1.5-0.3,3.1-0.8,4.5c-0.6,1.4-1.4,2.8-2.4,3.9
					c-1.3,1.5-2.9,2.6-4.6,3.4C63.2,89.6,61.3,90,59.3,90z M59.5,65.2c-1.2,0-2.2,0.2-3.1,0.6c-0.9,0.4-1.7,1.1-2.4,2
					c-0.9,1.1-1.6,2.5-2.1,4.2s-0.7,3.5-0.7,5.4c0,3.3,0.9,6.2,2.7,8.4c0.8,1,1.7,1.7,2.6,2.2c0.9,0.5,1.9,0.7,3.1,0.7
					c1.2,0,2.2-0.2,3.1-0.7c0.9-0.4,1.8-1.2,2.6-2.2c1.8-2.3,2.7-5.2,2.7-8.5c0-1.9-0.3-3.6-0.8-5.3c-0.5-1.6-1.2-3.1-2.1-4.2
					c-0.7-0.9-1.5-1.6-2.4-2C61.7,65.4,60.7,65.2,59.5,65.2z"/>
				<path class="st0" d="M80.7,89.4v-1.1H81c0.6,0,1.2-0.1,1.6-0.3c0.4-0.1,0.7-0.4,1-0.7c0.3-0.3,0.5-0.8,0.7-1.3
					c0.1-0.5,0.2-1.4,0.2-2.6V65.8c-0.6,0-1.3,0-2,0.1c-1.8,0.1-3.1,0.3-4,0.7c-0.8,0.3-1.5,0.9-2,1.8c-0.5,0.8-0.9,1.9-1.2,3.2
					l-0.1,0.3l-1-0.1l0.4-7.2H99l0.4,7.2l-1,0.1l-0.1-0.3C98,70,97.5,68.8,96.9,68s-1.6-1.4-2.8-1.7c-1-0.3-2.7-0.5-5.1-0.5v17.7
					c0,1.2,0.1,2,0.2,2.6c0.1,0.5,0.3,1,0.7,1.3c0.3,0.3,0.6,0.5,1,0.7c0.4,0.1,0.9,0.2,1.5,0.3h0.3v1.1L80.7,89.4L80.7,89.4z"/>
				<path class="st0" d="M102.3,89.4v-1.1h0.3c0.6,0,1.2-0.1,1.5-0.3c0.4-0.1,0.7-0.4,1-0.7c0.3-0.3,0.5-0.8,0.7-1.3
					c0.1-0.6,0.2-1.4,0.2-2.6v-13c0-1.2-0.1-2-0.2-2.6c-0.1-0.5-0.3-1-0.7-1.3c-0.3-0.3-0.6-0.5-1-0.7c-0.4-0.1-0.9-0.2-1.6-0.3
					h-0.3v-1.1h19.7l0.3,6.5h-1.1v-0.3c-0.1-0.9-0.4-1.7-0.7-2.3c-0.3-0.6-0.8-1.1-1.4-1.6c-0.5-0.4-1.1-0.7-1.8-0.8
					c-0.7-0.2-1.7-0.2-2.9-0.2h-3.7v9.9h0.7c1,0,1.8-0.1,2.3-0.2s0.9-0.3,1.2-0.7c0.3-0.3,0.5-0.7,0.7-1.1s0.3-1.1,0.4-2v-0.3h1.1
					l-0.1,10.1h-1v-0.3c-0.1-0.9-0.3-1.6-0.4-2.1c-0.2-0.5-0.5-0.9-0.8-1.3c-0.3-0.3-0.7-0.6-1.2-0.7c-0.5-0.2-1.2-0.3-2.1-0.3h-0.7
					v3.7c0,1.6,0,2.8,0.1,3.5s0.2,1.3,0.4,1.7c0.4,0.8,0.9,1.3,1.7,1.7c0.8,0.4,1.8,0.6,3.1,0.6c1.4,0,2.5-0.2,3.4-0.5
					s1.6-0.9,2.2-1.6c0.4-0.5,0.7-1,1-1.7c0.3-0.6,0.5-1.5,0.7-2.5l0.1-0.3h1l-0.3,7.7h-21.8V89.4z"/>
				<path class="st0" d="M128.3,89.4v-1.1h0.3c1.1,0,1.9-0.3,2.5-0.9c0.3-0.3,0.5-0.8,0.7-1.3c0.1-0.6,0.2-1.4,0.2-2.6v-13
					c0-1.2-0.1-2.1-0.2-2.7c-0.1-0.5-0.4-1-0.7-1.3s-0.6-0.5-1-0.6s-0.9-0.2-1.5-0.2h-0.3v-1.1h12v1.1H140c-0.6,0-1.1,0.1-1.5,0.2
					s-0.7,0.3-1,0.6c-0.4,0.3-0.6,0.8-0.7,1.3c-0.1,0.6-0.2,1.5-0.2,2.7v10.2c0,1.5,0,2.7,0.1,3.5c0.1,0.7,0.2,1.3,0.4,1.8
					c0.4,0.8,0.9,1.4,1.7,1.7c0.8,0.4,1.8,0.6,3.1,0.6c1.4,0,2.5-0.2,3.4-0.5s1.6-0.9,2.2-1.6c0.4-0.5,0.7-1.1,1-1.7
					c0.3-0.7,0.5-1.5,0.7-2.6l0.1-0.3l1,0.1l-0.3,7.9h-21.7V89.4z"/>
			</g>
			<path class="st0" d="M123.8,55.4L123.8,55.4h-12.1v-1.1h0.3c1.2-0.1,1.8-0.3,2-0.5c0.6-0.4,0.9-0.9,0.9-1.6c0-0.4-0.2-1-0.5-1.8
				l-1.9-4.7h-7.3l-0.8,2.2L104,49c-0.5,1.3-0.8,2.2-0.8,2.9c0,0.4,0.1,0.7,0.3,1.1c0.2,0.3,0.4,0.6,0.7,0.8
				c0.4,0.3,0.9,0.4,1.6,0.5h0.3v1.1h-8.6v-1.1h0.3c0.6,0,1.1-0.2,1.5-0.4s0.9-0.7,1.3-1.2s0.7-1.1,1.1-1.8s0.8-1.9,1.4-3.4
				l6.6-16.9h1.5l7.8,18.8c0.4,1,0.7,1.8,1,2.4c1,1.6,2.4,2.6,4,2.6c2,0,3.6-1.6,3.6-3.6v-0.3h1.1v0.3c0,2.6-2.1,4.7-4.7,4.7
				C123.9,55.4,123.8,55.4,123.8,55.4z M112,44.3l-3.2-7.9l-3,7.9H112z"/>
		</g>
		<path class="st0" d="M157.6,0c-1.1,2.6-2.3,4.8-4.9,6.2c-3.1,1.7-6.8,2.4-10.1,3.7c-4.6,1.9-8.9,5.5-8.6,10.5
			c-1.5-2.7-4.5-4.7-7.6-6c-3.3-1.3-6.9-1.9-10.1-3.7c-2.6-1.4-3.7-3.6-4.9-6.2c-2.2,6.4,2.7,10.9,8.1,13.1c3.3,1.3,6.9,2,10,3.7
			c2.5,1.4,3.7,3.6,4.9,6.2c0,0,0.9-1.6,0.9-3.6c0-3.3,1.7-5.8,4.2-7.2c3.1-1.6,6.6-2.3,9.8-3.6C154.9,10.9,159.8,6.4,157.6,0z"/>
	</g>
</g>
</svg>
