<?xml version="1.0" encoding="utf-8"?>
<!-- Generator: Adobe Illustrator 24.2.3, SVG Export Plug-In . SVG Version: 6.00 Build 0)  -->
<svg version="1.1" id="Layer_1" xmlns="http://www.w3.org/2000/svg" xmlns:xlink="http://www.w3.org/1999/xlink" x="0px" y="0px"
	 viewBox="0 0 160 90" style="enable-background:new 0 0 160 90;" xml:space="preserve">
<style type="text/css">
	.st0{fill-rule:evenodd;clip-rule:evenodd;fill:#FFFFFF;}
	.st1{fill:#FFFFFF;}
</style>
<g>
	<path class="st0" d="M117.4,69.4C117.9,69.9,116.9,69.9,117.4,69.4"/>
	<path class="st0" d="M125,24.8c-1.9,0.2-4,0.2-6.2,0.3c-2.5,0.2-4.9,0.5-6.6,1.8c-3.1,2.3-4.1,6-5.3,9.5c-1.2,3.4-2.5,6.6-6.2,7.9
		c-0.6-1.1-1.5-2-2.6-2.8c-1.1-0.7-2.1-1.4-3.5-1.3c-1,0.1-3.4,1-4,2.1c-0.8,1.3-1.5,2.4-1.6,4.2c-0.2,3.1,2.7,5.3,5.2,5.8
		c2.6,0.5,5.4-0.7,7-4.5c4.1-0.8,5.9-4.3,7.2-8.1c1.3-3.8,2.3-8,4.8-10.2c1.8-1.5,4-2,6.4-2.2c1.8-0.2,3.6-0.2,5.4-0.5
		C124.9,26.1,124.9,25.4,125,24.8z"/>
	<polygon class="st1" points="57.8,25.7 57.8,36.1 54.1,36.1 54.1,25.7 51.2,25.7 51.2,22.5 60.7,22.5 60.7,25.7 	"/>
	<path class="st1" d="M68.7,36.1l-0.4-1.3h-3.2l-0.4,1.3H61l3.6-10.5h4.5l3.6,10.5H68.7z M67.1,30.8c-0.1-0.3-0.2-0.5-0.2-0.7
		c-0.1-0.2-0.1-0.4-0.2-0.6l-0.3,1.2L66,32.2h1.5L67.1,30.8z"/>
	<path class="st1" d="M79.2,36.1l-1.4-3.5h-0.1v3.5H74V25.6c0.4,0,1.2,0,2.5,0s2,0,2.1,0c1.4,0,2.5,0.3,3.3,0.8s1.2,1.4,1.2,2.5
		c0,0.7-0.1,1.2-0.4,1.7s-0.7,0.9-1.2,1.2l0.6,1.2l1.5,3L79.2,36.1L79.2,36.1z M78.1,28.3h-0.4v1.8h0.5c0.3,0,0.5-0.1,0.7-0.3
		c0.2-0.2,0.3-0.4,0.3-0.7c0-0.2-0.1-0.5-0.3-0.6C78.7,28.4,78.5,28.3,78.1,28.3"/>
	<polygon class="st1" points="90.1,28.8 90.1,36.1 86.4,36.1 86.4,28.8 84.1,28.8 84.1,25.6 92.4,25.6 92.4,28.8 	"/>
	<path class="st1" d="M98.8,36.3c-1.7,0-2.9-0.4-3.8-1.1c-0.8-0.7-1.2-1.7-1.2-2.9v-6.7h3.7v5.7c0,0.7,0.1,1.2,0.3,1.5
		c0.2,0.3,0.6,0.4,1.2,0.4c1,0,1.4-0.6,1.4-1.9v-5.8h3.6V32c0,1.3-0.4,2.4-1.3,3.1C101.9,35.9,100.5,36.3,98.8,36.3"/>
	<path class="st1" d="M57.4,51.8c-2,0-3.4-0.5-4.2-1.4S52,48.2,52,46.6v-8.7h3.7v8.5c0,0.8,0.1,1.3,0.4,1.7c0.3,0.4,0.8,0.5,1.5,0.5
		s1.2-0.2,1.5-0.5c0.3-0.4,0.4-1,0.4-1.8v-8.4h3.7v8.2c0,1.9-0.5,3.3-1.5,4.3C60.7,51.3,59.2,51.8,57.4,51.8"/>
	<path class="st1" d="M70.2,51.7c-1.7,0-2.9-0.4-3.8-1.1c-0.8-0.7-1.2-1.7-1.2-2.9V41h3.7v5.7c0,0.7,0.1,1.2,0.3,1.5
		c0.2,0.3,0.6,0.4,1.2,0.4c1,0,1.4-0.6,1.4-1.8V41h3.6v6.4c0,1.3-0.4,2.3-1.3,3.1C73.3,51.3,72,51.7,70.2,51.7"/>
	<path class="st1" d="M79.3,51.8c-0.3,0-0.5,0-0.8-0.1c-0.3,0-0.6-0.1-0.9-0.2l0.1-3.1c0.2,0.1,0.5,0.2,0.9,0.2
		c0.3,0.1,0.7,0.1,1,0.1s0.4,0,0.6-0.2c0.1-0.1,0.2-0.2,0.2-0.3s-0.5-0.4-1.6-0.9s-1.6-1.4-1.6-2.8c0-1.2,0.4-2.1,1.2-2.7
		c0.8-0.7,2-1,3.6-1c0.5,0,1,0,1.7,0.1l-0.1,3c-0.5-0.2-1.1-0.2-1.7-0.2c-0.5,0-0.7,0.2-0.7,0.5c0,0,0.5,0.3,1.6,0.9
		c1.1,0.6,1.6,1.5,1.6,2.7S84,50,83.1,50.7C82.2,51.4,81,51.8,79.3,51.8"/>
	<polygon class="st1" points="57.8,56.6 57.8,67 54.1,67 54.1,56.6 51.2,56.6 51.2,53.4 60.7,53.4 60.7,56.6 	"/>
	<polygon class="st1" points="62,67 62,56.5 69.2,56.5 69.2,59.4 65.7,59.4 65.7,60.2 69,60.2 69,63 65.7,63 65.7,64 69.2,64 
		69.2,67 	"/>
	<path class="st1" d="M78,67l-0.4-1.3h-3.2L74,67h-3.7l3.6-10.5h4.5L82,67H78z M76.3,61.7c-0.1-0.3-0.2-0.5-0.2-0.7
		c-0.1-0.2-0.1-0.4-0.2-0.6l-0.3,1.2L75.2,63h1.5L76.3,61.7z"/>
	<polygon class="st1" points="88.5,59.7 88.5,67 84.8,67 84.8,59.7 82.5,59.7 82.5,56.5 90.8,56.5 90.8,59.7 	"/>
	<polygon class="st1" points="92.2,67 92.2,56.5 99.4,56.5 99.4,59.4 95.9,59.4 95.9,60.2 99.2,60.2 99.2,63 95.9,63 95.9,64 
		99.4,64 99.4,67 	"/>
	<path class="st1" d="M106.7,67l-1.4-3.5h-0.1V67h-3.7V56.5c0.4,0,1.2,0,2.5,0s2,0,2.1,0c1.4,0,2.5,0.3,3.3,0.8s1.2,1.4,1.2,2.5
		c0,0.7-0.1,1.2-0.4,1.7s-0.7,0.9-1.2,1.2l0.6,1.2l1.5,3L106.7,67L106.7,67z M105.6,59.2h-0.4V61h0.5c0.3,0,0.5-0.1,0.7-0.3
		s0.3-0.4,0.3-0.7c0-0.2-0.1-0.5-0.3-0.6C106.2,59.3,105.9,59.2,105.6,59.2"/>
	<g>
		<path class="st1" d="M122,3v84H38V3H122 M125,0H35v90h90V0L125,0z"/>
	</g>
</g>
</svg>
