<?xml version="1.0" encoding="utf-8"?>
<!-- Generator: Adobe Illustrator 24.2.3, SVG Export Plug-In . SVG Version: 6.00 Build 0)  -->
<svg version="1.1" id="Layer_1" xmlns="http://www.w3.org/2000/svg" xmlns:xlink="http://www.w3.org/1999/xlink" x="0px" y="0px"
	 viewBox="0 0 160 90" style="enable-background:new 0 0 160 90;" xml:space="preserve">
<style type="text/css">
	.st0{fill:#FFFFFF;}
</style>
<g>
	<path class="st0" d="M72.6,35.1c-0.1,7.7-6.5,14-14.2,13.9c-7.8-0.1-14-6.5-13.9-14.2c0.1-7.8,6.4-14,14.2-13.9l0,0
		c4,0,7.2-3.1,7.2-7.1l0,0c0.1-7.7,6.5-14,14.2-13.9C87.8,0,94.1,6.4,94,14.1S87.5,28,79.8,28C75.9,28,72.7,31.2,72.6,35.1
		 M58.6,27.7L58.6,27.7c-3.9,0-7.1,3.2-7.1,7.1c0,4,3.1,7.3,7.1,7.3c4,0.1,7.2-3.1,7.2-7.1l0,0l0,0c0.1-7.8,6.5-14,14.2-13.9l0,0
		c4,0,7.2-3.1,7.2-7.1c0-3.9-3.1-7.2-7.1-7.2s-7.2,3.1-7.2,7.1l0,0C72.8,21.7,66.4,27.9,58.6,27.7"/>
	<path class="st0" d="M108.4,35.5c0,3.9-3.3,7.1-7.2,7.1c-3.9,0-7.1-3.2-7.1-7.2c0-3.9,3.3-7.1,7.2-7.1
		C105.3,28.4,108.5,31.6,108.4,35.5 M101.2,49.4c7.7,0.1,14-6.1,14.1-13.8s-6.1-14-13.8-14.1s-14,6.1-14.1,13.8
		C87.3,43,93.5,49.3,101.2,49.4"/>
	<path class="st0" d="M45.2,90l-0.9-3.7h-6.2L37.2,90H31l6.7-21.5h7.1L51.4,90H45.2z M41.7,76.2c-0.3-1.3-0.5-2.8-0.5-2.8h-0.1
		c0,0-0.2,1.5-0.5,2.8L39.1,82h4L41.7,76.2z"/>
	<polygon class="st0" points="62.5,90 62.5,81.7 58.7,81.7 58.7,90 52.7,90 52.7,68.5 58.7,68.5 58.7,76.8 62.5,76.8 62.5,68.5 
		68.4,68.5 68.4,90 	"/>
	<polygon class="st0" points="81.4,90 81.4,81.7 77.5,81.7 77.5,90 71.6,90 71.6,68.5 77.5,68.5 77.5,76.8 81.4,76.8 81.4,68.5 
		87.3,68.5 87.3,90 	"/>
	<path class="st0" d="M102.9,90l-0.9-3.7h-6.2L94.9,90h-6.2l6.7-21.5h7.1l6.7,21.5H102.9z M99.4,76.2c-0.3-1.3-0.5-2.8-0.5-2.8h-0.1
		c0,0-0.2,1.5-0.5,2.8L96.9,82h4L99.4,76.2z"/>
	<path class="st0" d="M122.8,90l-0.9-3.7h-6.2l-0.9,3.7h-6.2l6.7-21.5h7.1l6.7,21.5H122.8z M119.4,76.2c-0.3-1.3-0.5-2.8-0.5-2.8
		h-0.1c0,0-0.2,1.5-0.5,2.8l-1.5,5.9h4L119.4,76.2z"/>
	<polygon class="st0" points="37,54 37,64.4 35.6,64.4 35.6,54 32.8,54 32.8,52.8 39.9,52.8 39.9,54 	"/>
	<path class="st0" d="M48.1,59.9l-5.9,0.9c0.1,1.8,1.3,2.8,2.9,2.8c0.9,0,1.8-0.2,2.4-0.5l0.4,1c-0.6,0.4-1.7,0.6-2.8,0.6
		c-2.6,0-4.1-1.7-4.1-4.5c0-2.7,1.4-4.5,3.8-4.5c2.1,0,3.4,1.4,3.4,3.7C48.1,59.5,48.1,59.7,48.1,59.9 M44.6,56.6
		c-1.5,0-2.5,1.2-2.5,3.2l4.7-0.7C46.8,57.4,45.9,56.6,44.6,56.6"/>
	<path class="st0" d="M52.9,64.6c-2.4,0-3.6-1-3.6-2.6c0-2.5,2.7-2.8,5.3-3v-0.7c0-1.3-0.9-1.7-2.1-1.7c-0.8,0-1.8,0.3-2.4,0.5
		l-0.4-0.9c0.7-0.3,1.7-0.6,2.8-0.6c1.9,0,3.2,0.8,3.2,2.8V64C55.2,64.3,54,64.6,52.9,64.6 M54.6,59.9c-1.9,0.1-4,0.2-4,2
		c0,1,0.8,1.7,2.3,1.7c0.7,0,1.4-0.1,1.7-0.3V59.9z"/>
	<path class="st0" d="M61.6,64.6c-2.6,0-4.1-1.7-4.1-4.4c0-2.6,1.4-4.5,4-4.5c0.6,0,1.2,0.1,1.6,0.2v-4.1h1.3V64
		C63.8,64.3,62.7,64.6,61.6,64.6 M63,57c-0.3-0.1-0.9-0.2-1.5-0.2c-1.8,0-2.8,1.5-2.8,3.4c0,2,1,3.3,2.8,3.3c0.5,0,1.2-0.1,1.5-0.3
		V57z"/>
	<path class="st0" d="M69.6,64.6c-2.1,0-3.3-0.9-3.3-3v-5.8h1.3v5.8c0,1.3,0.7,1.9,2,1.9c0.8,0,1.5-0.1,1.8-0.3v-7.4h1.3V64
		C72.1,64.3,70.9,64.6,69.6,64.6"/>
	<path class="st0" d="M76.8,64.6c-0.9,0-1.9-0.3-2.6-0.6l0.5-1c0.5,0.3,1.4,0.5,2.1,0.5c1.1,0,1.8-0.5,1.8-1.4s-0.7-1.3-1.7-1.6
		c-1.2-0.4-2.4-1-2.4-2.5c0-1.3,1-2.3,2.9-2.3c1,0,1.8,0.3,2.4,0.6l-0.5,0.9c-0.4-0.3-1.1-0.5-1.8-0.5c-1,0-1.6,0.6-1.6,1.3
		c0,0.9,0.7,1.2,1.7,1.6c1.3,0.5,2.5,1,2.5,2.6C80,63.6,78.8,64.6,76.8,64.6"/>
	<polygon class="st0" points="87,64.4 83,60 83,60 83,64.4 81.6,64.4 81.6,51.8 83,51.8 83,59.7 83,59.7 86.7,55.8 88.3,55.8 
		84.5,59.9 88.6,64.4 	"/>
	<path class="st0" d="M96.4,59.9l-5.9,0.9c0.1,1.8,1.3,2.8,2.9,2.8c0.9,0,1.8-0.2,2.4-0.5l0.4,1c-0.6,0.4-1.7,0.6-2.8,0.6
		c-2.6,0-4.1-1.7-4.1-4.5c0-2.7,1.4-4.5,3.8-4.5c2.1,0,3.4,1.4,3.4,3.7C96.4,59.5,96.4,59.7,96.4,59.9 M93,56.6
		c-1.5,0-2.5,1.2-2.5,3.2l4.7-0.7C95.1,57.4,94.3,56.6,93,56.6"/>
	<path class="st0" d="M100.1,64.6c-0.9,0-1.9-0.3-2.6-0.6l0.5-1c0.5,0.3,1.4,0.5,2.1,0.5c1.1,0,1.8-0.5,1.8-1.4s-0.7-1.3-1.7-1.6
		c-1.2-0.4-2.4-1-2.4-2.5c0-1.3,1-2.3,2.9-2.3c1,0,1.8,0.3,2.4,0.6l-0.5,0.9c-0.4-0.3-1.1-0.5-1.8-0.5c-1,0-1.6,0.6-1.6,1.3
		c0,0.9,0.7,1.2,1.7,1.6c1.3,0.5,2.5,1,2.5,2.6C103.4,63.6,102.2,64.6,100.1,64.6"/>
	<polygon class="st0" points="110.3,64.4 106.3,60 106.3,60 106.3,64.4 105,64.4 105,51.8 106.3,51.8 106.3,59.7 106.3,59.7 
		110.1,55.8 111.7,55.8 107.8,59.9 111.9,64.4 	"/>
	<path class="st0" d="M116.2,64.6c-2.1,0-3.3-0.9-3.3-3v-5.8h1.3v5.8c0,1.3,0.7,1.9,2,1.9c0.8,0,1.5-0.1,1.8-0.3v-7.4h1.3V64
		C118.7,64.3,117.5,64.6,116.2,64.6"/>
	<path class="st0" d="M123.4,64.6c-0.9,0-1.9-0.3-2.6-0.6l0.5-1c0.5,0.3,1.4,0.5,2.1,0.5c1.1,0,1.8-0.5,1.8-1.4s-0.7-1.3-1.7-1.6
		c-1.2-0.4-2.4-1-2.4-2.5c0-1.3,1-2.3,2.9-2.3c1,0,1.8,0.3,2.4,0.6l-0.5,0.9c-0.4-0.3-1.1-0.5-1.8-0.5c-1,0-1.6,0.6-1.6,1.3
		c0,0.9,0.7,1.2,1.7,1.6c1.3,0.5,2.5,1,2.5,2.6C126.6,63.6,125.4,64.6,123.4,64.6"/>
</g>
</svg>
