<?xml version="1.0" encoding="utf-8"?>
<!-- Generator: Adobe Illustrator 24.2.3, SVG Export Plug-In . SVG Version: 6.00 Build 0)  -->
<svg version="1.1" id="Layer_1" xmlns="http://www.w3.org/2000/svg" xmlns:xlink="http://www.w3.org/1999/xlink" x="0px" y="0px"
	 viewBox="0 0 160 90" style="enable-background:new 0 0 160 90;" xml:space="preserve">
<style type="text/css">
	.st0{fill:#FFFFFF;}
</style>
<g>
	<g>
		<path class="st0" d="M57,55.6h-4.3v-9.7V45c0-1-0.3-1.7-0.9-2.2c-0.6-0.5-1.3-0.7-2-0.7s-1.4,0.2-2,0.7S46.9,44,46.9,45v10.6h-4.4
			v-9.7c0-2.8,0.7-4.7,2.2-5.7s3.1-1.5,4.9-1.6c1,0,1.9,0.1,2.8,0.3c0.9,0.2,1.7,0.6,2.5,1.2c0.6-0.5,1.4-0.9,2.2-1.2
			c0.9-0.2,1.7-0.4,2.6-0.4c1.8,0,3.5,0.5,5,1.4c1.5,1,2.3,2.9,2.3,5.8v9.7h-2c-0.6,0-1.1-0.2-1.5-0.6s-0.6-0.9-0.6-1.5V45
			c0-1-0.3-1.7-0.9-2.2c-0.6-0.5-1.3-0.7-2-0.7s-1.4,0.2-2,0.7c-0.7,0.5-1,1.2-1,2.2v0.9V55.6L57,55.6z"/>
		<path class="st0" d="M80.8,50.5h3.1c-0.5,1.7-1.3,3.1-2.6,4c-1.3,1-2.9,1.4-4.9,1.4c-2.4,0-4.2-0.8-5.5-2.3s-2-3.6-2-6.4
			c0-2.7,0.6-4.7,1.9-6.2s3.2-2.3,5.5-2.3c2.5,0,4.4,0.7,5.8,2.2c1.3,1.5,2,3.7,2,6.4c0,0.2,0,0.3,0,0.4c0,0.1,0,0.2,0,0.2
			c0,0.2,0,0.4-0.1,0.4H73.4c0,1.3,0.4,2.2,0.9,2.9s1.3,1,2.4,1c0.7,0,1.3-0.1,1.8-0.4c0.1,0,0.2-0.1,0.3-0.2
			c0.1-0.1,0.2-0.2,0.3-0.3c0-0.1,0.2-0.3,0.5-0.5C79.9,50.6,80.3,50.5,80.8,50.5z M73.4,45.6h6.4c-0.1-1.1-0.4-2-0.9-2.5
			c-0.5-0.6-1.3-0.9-2.3-0.9c-0.9,0-1.7,0.3-2.2,0.9C73.7,43.7,73.4,44.5,73.4,45.6z"/>
		<path class="st0" d="M96.8,34.1h2.1c0.6,0,1.1,0.2,1.5,0.7c0.4,0.4,0.6,0.9,0.6,1.5v12.2c0,3-0.9,4.9-2.6,6
			c-1.7,1-3.6,1.6-5.5,1.6c-1.1,0-2.1-0.2-3.2-0.5c-1-0.4-1.9-0.9-2.5-1.7c-1.2-1.5-1.8-3.6-1.8-6.3c0-2.6,0.6-4.7,1.8-6.3
			c1.2-1.6,2.8-2.4,4.8-2.4c1,0,2,0.2,2.7,0.6c0.8,0.5,1.5,1.1,2,1.9L96.8,34.1L96.8,34.1z M89.7,47.2c0,1.7,0.3,2.9,0.9,3.8
			s1.5,1.3,2.7,1.3c1.1,0,2-0.4,2.6-1.3c0.6-0.9,0.9-2.1,0.9-3.8c0-1.5-0.3-2.7-0.9-3.6c-0.7-0.8-1.6-1.2-2.7-1.2s-1.9,0.4-2.6,1.3
			C90,44.5,89.7,45.7,89.7,47.2z"/>
		<path class="st0" d="M103.8,34.2h2.2c0.6,0,1.1,0.2,1.5,0.6c0.4,0.4,0.6,0.9,0.6,1.5v1.3h-4.4L103.8,34.2L103.8,34.2z M103.8,39
			h2.2c0.6,0,1.1,0.2,1.5,0.6c0.4,0.4,0.6,0.9,0.6,1.5v14.5h-4.4L103.8,39L103.8,39z"/>
		<path class="st0" d="M111.1,55.6V38.5c0-1.5,0.4-2.6,1.2-3.4c0.7-0.7,2-1.1,3.7-1.1c0.4,0,0.7,0,1,0.1c0.5,0,0.8,0,1.1,0.1v3.4
			H117c-0.6,0-1,0.1-1.2,0.2c-0.2,0.2-0.3,0.5-0.3,1V40h2.7v0.9c0,0.6-0.2,1.1-0.6,1.5s-0.9,0.6-1.4,0.6h-0.6v12.5L111.1,55.6
			L111.1,55.6z"/>
		<path class="st0" d="M133.7,39v9.7c0,3-0.8,4.9-2.3,5.8c-1.5,0.9-3.2,1.4-5,1.4c-1.8-0.1-3.4-0.6-4.9-1.5s-2.2-2.8-2.2-5.7V39h4.4
			v10.6c0,1,0.3,1.7,0.9,2.2s1.2,0.7,2,0.7c0.7,0,1.4-0.2,2-0.7s0.9-1.2,0.9-2.2v-8.5c0-0.6,0.2-1.1,0.6-1.5
			c0.4-0.4,0.9-0.6,1.5-0.6H133.7z"/>
		<path class="st0" d="M149.8,55.6h-4.3v-9.7V45c0-1-0.3-1.7-0.9-2.2c-0.6-0.5-1.3-0.7-2-0.7s-1.4,0.2-2,0.7s-0.9,1.2-0.9,2.2v10.6
			h-4.4v-9.7c0-2.8,0.7-4.7,2.2-5.7s3.1-1.5,4.9-1.6c1,0,1.9,0.1,2.8,0.3c0.9,0.2,1.7,0.6,2.5,1.2c0.6-0.5,1.4-0.9,2.2-1.2
			c0.9-0.2,1.7-0.4,2.6-0.4c1.8,0,3.5,0.5,5,1.4c1.5,1,2.3,2.9,2.3,5.8v9.7h-2.2c-0.6,0-1.1-0.2-1.5-0.6s-0.6-0.9-0.6-1.5V45
			c0-1-0.3-1.7-0.9-2.2c-0.6-0.5-1.3-0.7-2-0.7s-1.4,0.2-2,0.7s-0.9,1.2-0.9,2.2v0.9L149.8,55.6L149.8,55.6z"/>
	</g>
	<g>
		<g>
			<path class="st0" d="M27.5,57.3v-5c0-4.4-1.8-8.7-4.9-11.8l-0.8,2.1l1.2,4.7c0.7,1.6,1,3.3,1,5.1v5l1.8,0.9L27.5,57.3z"/>
		</g>
		<rect x="24.1" y="52.3" class="st0" width="3.4" height="3.9"/>
		<path class="st0" d="M30.4,35.6h-2.5c-0.2,0-0.4-0.2-0.4-0.4v-2.5c0-3.2-2.6-5.8-5.8-5.8h-7.2c-3.2,0-5.8,2.6-5.8,5.8v5
			c0,2.2,0.4,4.4,1.3,6.4c0.8,2,2.1,3.9,3.6,5.4c1.4,1.4,3.1,2.6,5,3.4c2.1,1,4.5,1.5,6.8,1.5h5c3.2,0,5.8-2.6,5.8-5.8v-7.2
			C36.2,38.2,33.6,35.6,30.4,35.6z M32.8,48.6c0,1.3-1.1,2.4-2.4,2.4h-5c-1.7,0-3.5-0.3-5.1-1s-3.1-1.6-4.3-2.9
			c-1.2-1.2-2.2-2.7-2.9-4.3c-0.7-1.6-1-3.3-1-5.1v-5c0-1.3,1.1-2.4,2.4-2.4h7.2c1.3,0,2.4,1.1,2.4,2.4v4.4c0,1.1,0.9,1.9,1.9,1.9
			h4.4c1.3,0,2.4,1.1,2.4,2.4L32.8,48.6L32.8,48.6z"/>
		<path class="st0" d="M12.1,37.1H8.7v0.7c0,1.1,0.1,2.3,0.3,3.4h3.5c-0.3-1.1-0.4-2.2-0.4-3.4V37.1L12.1,37.1z"/>
		<path class="st0" d="M11.7,39c1.7,0,3.1,0.3,4.5,1c1.4,0.6,2.7,1.6,4,2.9c1.2,1.2,2.2,2.7,2.9,4.3l-0.5-6.7
			c-3.1-3.1-6.5-4.9-10.9-4.9l0,0H5.8c-3.2,0-5.8,2.6-5.8,5.8v7.2c0,3.2,2.6,5.8,5.8,5.8h2.9v2.9c0,3.2,2.6,5.8,5.8,5.8h7.2
			c3.2,0,5.8-2.6,5.8-5.8h-3.4c0,1.3-1.1,2.4-2.4,2.4h-7.2c-1.3,0-2.4-1.1-2.4-2.4v-2.9v-1.5c0-1.1-0.9-1.9-1.9-1.9H8.7H5.8
			c-1.3,0-2.4-1.1-2.4-2.4v-7.2c0-1.3,1.1-2.4,2.4-2.4L11.7,39"/>
	</g>
</g>
</svg>
