<?xml version="1.0" encoding="utf-8"?>
<!-- Generator: Adobe Illustrator 24.2.3, SVG Export Plug-In . SVG Version: 6.00 Build 0)  -->
<svg version="1.1" id="Layer_1" xmlns="http://www.w3.org/2000/svg" xmlns:xlink="http://www.w3.org/1999/xlink" x="0px" y="0px"
	 viewBox="0 0 160 90" style="enable-background:new 0 0 160 90;" xml:space="preserve">
<style type="text/css">
	.st0{fill:#FFFFFF;}
</style>
<g>
	<path class="st0" d="M83.9,74.7c-14.6,0-29.2,0-43.7,0c-0.5,0-1.1,0-1.6-0.1c-1.7-0.4-2.5-1.7-2.1-3.4c1.4-5.5,2.8-11,4.3-16.5
		c0.2-0.9,0.3-1.9,1-2.7c0.2-0.2,0.1-0.5,0.1-0.8c0-16.1,0-32.2,0-48.3c0-0.3,0-0.6,0-0.9c0-1.5,0.4-2,1.9-2c2.5,0,5,0,7.6,0
		C62,0,72.7,0,83.3,0c8.1,0,16.2,0,24.2,0c5.3,0,10.6,0,15.8,0c0.4,0,0.7,0,1.1,0c0.8,0.1,1.2,0.5,1.3,1.3c0,0.2,0,0.5,0,0.7
		c0,16.3,0,32.7,0,49c0,0.3,0,0.6,0.1,0.8c0.8,0.8,0.8,1.9,1.1,2.9c1.4,5.3,2.6,10.6,4.1,15.8c0.7,2.5-0.9,4.1-3.2,4
		c-5.4-0.1-10.7,0-16.1,0C102.5,74.7,93.2,74.7,83.9,74.7z M83.8,73.1c12.8,0,25.7,0,38.5,0c1.9,0,3.9,0,5.8,0c1.5,0,1.9-0.5,1.5-2
		c-1.4-5.4-2.8-10.8-4.2-16.3c-0.6-2.1-0.5-2.1-2.8-2.1c-25.9,0-51.8,0-77.7,0c-0.3,0-0.7,0-1,0c-1.1,0-1.3,0.3-1.6,1.3
		c-1,3.7-1.9,7.5-2.9,11.2c-0.5,2-1,3.9-1.5,5.9c-0.4,1.4,0,1.9,1.6,2c0.3,0,0.6,0,1,0C55,73.1,69.4,73.1,83.8,73.1z M124.2,1.6
		c-2.1,0-4,0.1-5.9,0c-1.1-0.1-1.7,0.3-2.2,1.2c-9.7,15-19.4,30-29.1,45c-0.1,0.2-0.3,0.4-0.4,0.6c-0.4,0.5-0.1,0.8,0.3,1.1
		c12.4-6.4,24.8-12.8,37.3-19.3C124.2,20.8,124.2,11.2,124.2,1.6z M84.2,1.6c0,0.6,0,1.1,0,1.6c0,14.3,0,28.7,0,43
		c0,0.3,0,0.6,0,0.8c0.1,0.3,0.2,0.7,0.4,0.8c0.4,0.3,0.6-0.1,0.8-0.5c0.1-0.1,0.1-0.2,0.2-0.3c9.6-14.8,19.2-29.6,28.8-44.5
		c0.2-0.3,0.3-0.6,0.5-1C104.7,1.6,94.5,1.6,84.2,1.6z M80.3,49.2c0.3-0.8-0.2-1.1-0.4-1.5C74,38.5,68.2,29.3,62.4,20
		c-3.7-5.8-7.4-11.7-11-17.5c-0.4-0.7-0.9-1-1.8-0.9c-1.7,0.1-3.4,0-5.1,0c-0.4,0-0.7,0.1-1.1,0.1c0,9.6,0,19.1,0,28.7
		C55.7,36.6,68,42.9,80.3,49.2z M52.7,1.6c0.3,0.4,0.4,0.7,0.6,1c9.3,14.8,18.7,29.7,28,44.5c0.2,0.3,0.3,0.9,0.9,0.7
		s0.4-0.8,0.4-1.2c0-14.7,0-29.4,0-44.1c0-0.3,0-0.6-0.1-1C72.6,1.6,62.8,1.6,52.7,1.6z M87.7,50.8c0,0.1,0,0.2,0.1,0.2
		c12.1,0,24.3,0,36.4,0c0.3-1.8,0.2-18.1-0.1-19.1C111.9,38.3,99.8,44.6,87.7,50.8z M79.4,51.1c-0.1-0.3-0.1-0.6-0.2-0.6
		c-11.8-6.2-23.8-12.2-35.8-18.4c0,6.5,0,12.7,0,19C55.4,51.1,67.3,51.1,79.4,51.1z"/>
	<g>
		<path class="st0" d="M30.3,82.6h0.9v3.1h3.4v-3.1h0.9v7.3h-0.9v-3.4h-3.4v3.4h-0.9V82.6z"/>
		<path class="st0" d="M40.1,82.6h1l2.5,7.3h-1l-1.3-4.1c-0.3-0.8-0.5-1.6-0.7-2.5l0,0c-0.2,0.8-0.5,1.6-0.7,2.5l-1.3,4.1h-0.9
			L40.1,82.6z M39,86.9h3.4v0.7H39V86.9z"/>
		<path class="st0" d="M45.8,82.6h2.3c1.5,0,2.6,0.5,2.6,2.1c0,1.5-1.1,2.2-2.6,2.2h-1.4V90h-0.9C45.8,90,45.8,82.6,45.8,82.6z
			 M47.9,86c1.1,0,1.8-0.5,1.8-1.4c0-1-0.6-1.3-1.8-1.3h-1.2V86H47.9z M47.9,86.5l0.7-0.5l2.2,3.8h-1.1L47.9,86.5z"/>
		<path class="st0" d="M53.2,82.6h0.9v7.3h-0.9V82.6z"/>
		<path class="st0" d="M57.3,82.6h1.8c2.2,0,3.4,1.3,3.4,3.6c0,2.3-1.2,3.7-3.4,3.7h-1.9v-7.3H57.3z M59,89.1c1.7,0,2.6-1.1,2.6-2.9
			s-0.9-2.9-2.6-2.9h-0.8v5.8H59z"/>
		<path class="st0" d="M65.2,86.9v-4.3h0.9v4.3c0,1.8,0.7,2.3,1.7,2.3s1.7-0.6,1.7-2.3v-4.3h0.9v4.3c0,2.3-1.1,3.1-2.6,3.1
			C66.3,90,65.2,89.2,65.2,86.9z"/>
		<path class="st0" d="M72.9,88.9l0.6-0.6c0.5,0.5,1.3,0.9,2,0.9c1,0,1.5-0.5,1.5-1.2s-0.5-1-1.2-1.3l-1-0.5
			c-0.7-0.3-1.5-0.8-1.5-1.9s1-1.9,2.3-1.9c0.9,0,1.6,0.4,2.1,0.9L77.2,84c-0.4-0.4-1-0.7-1.7-0.7c-0.8,0-1.4,0.4-1.4,1.1
			s0.6,1,1.2,1.2l1,0.4c0.8,0.4,1.5,0.9,1.5,2c0,1.2-1,2.1-2.5,2.1C74.4,90,73.5,89.6,72.9,88.9z"/>
		<path class="st0" d="M84.8,82.6H89v0.8h-3.3v2.3h2.8v0.8h-2.8v2.7h3.4V90h-4.3C84.8,90,84.8,82.6,84.8,82.6z"/>
		<path class="st0" d="M91.8,82.6h0.9v3.7l0,0l3-3.7h1.1l-2.3,2.8l2.6,4.5h-1L94,86.1l-1.3,1.5v2.3h-0.9
			C91.8,89.9,91.8,82.6,91.8,82.6z"/>
		<path class="st0" d="M99.3,82.6h2.3c1.5,0,2.6,0.5,2.6,2.1c0,1.5-1.1,2.2-2.6,2.2h-1.4V90h-0.9V82.6z M101.5,86
			c1.1,0,1.8-0.5,1.8-1.4c0-1-0.6-1.3-1.8-1.3h-1.2V86H101.5z M101.4,86.5l0.7-0.5l2.2,3.8h-1.1L101.4,86.5z"/>
		<path class="st0" d="M108.2,82.6h1l2.5,7.3h-1l-1.3-4.1c-0.3-0.8-0.5-1.6-0.7-2.5l0,0c-0.2,0.8-0.5,1.6-0.7,2.5l-1.3,4.1h-0.9
			L108.2,82.6z M107.1,86.9h3.4v0.7h-3.4V86.9z"/>
		<path class="st0" d="M115.3,82.6h1l2.5,7.3h-1l-1.3-4.1c-0.3-0.8-0.5-1.6-0.7-2.5l0,0c-0.2,0.8-0.5,1.6-0.7,2.5l-1.3,4.1h-0.9
			L115.3,82.6z M114.2,86.9h3.4v0.7h-3.4V86.9z"/>
		<path class="st0" d="M121,82.6h1l2.6,4.6l0.8,1.5l0,0c0-0.7-0.1-1.6-0.1-2.3v-3.8h0.9v7.3h-1l-2.6-4.6l-0.8-1.5l0,0
			c0,0.7,0.1,1.5,0.1,2.3v3.8H121V82.6z"/>
		<path class="st0" d="M129.3,82.6h0.9v7.3h-0.9V82.6z"/>
		<path class="st0" d="M133.3,82.6h0.9v6.5h3.2v0.8h-4.1L133.3,82.6L133.3,82.6z"/>
	</g>
</g>
</svg>
