<?xml version="1.0" encoding="utf-8"?>
<!-- Generator: Adobe Illustrator 24.2.3, SVG Export Plug-In . SVG Version: 6.00 Build 0)  -->
<svg version="1.1" id="Layer_1" xmlns="http://www.w3.org/2000/svg" xmlns:xlink="http://www.w3.org/1999/xlink" x="0px" y="0px"
	 viewBox="0 0 160 90" style="enable-background:new 0 0 160 90;" xml:space="preserve">
<style type="text/css">
	.st0{fill-rule:evenodd;clip-rule:evenodd;fill:#FFFFFF;}
</style>
<path class="st0" d="M31.2,26.8l0.3,11.8h-0.6c-0.2-0.4-0.3-0.8-0.4-1.2c-0.9-2.6-1.7-4.4-2.3-5.3c-2.3-3.5-5.2-5.3-8.7-5.3
	c-3.8,0-7,1.9-9.4,5.6C7.7,36,6.5,40.2,6.5,45c0,5,1.1,9,3.2,12.1c2.4,3.4,5.9,5.1,10.4,5.1c2.2,0,4.1-0.4,5.7-1.2s2.9-1.9,3.8-3.4
	c0.8-1.3,1.4-3.1,1.8-5.2l0.6,0.1c-0.5,3.8-1.9,6.7-4.1,8.6s-5.5,2.8-9.7,2.8c-5.7,0-10.3-1.7-13.6-5.2c-3-3.3-4.6-7.6-4.6-13
	c0-2.9,0.5-5.6,1.4-8.1s2.3-4.6,4-6.3s3.9-3,6.6-3.9c2.3-0.8,4.7-1.2,7-1.2c1.8,0,3.6,0.3,5.4,0.8c0.4,0.1,1.6,0.5,3.5,1.1
	c0.4,0.1,0.8,0.2,1.1,0.2c0.6,0,1.1-0.5,1.5-1.4L31.2,26.8L31.2,26.8L31.2,26.8z M56.9,60.5l0.4,0.3c-0.6,1.8-2.1,2.7-4.4,2.7
	c-1.4,0-2.6-0.4-3.4-1.1c-0.5-0.4-0.9-1-1.4-1.9c-1,0.8-1.7,1.4-2.2,1.8c-1.2,0.8-2.7,1.2-4.4,1.2c-1.8,0-3.3-0.4-4.5-1.3
	c-1.2-0.9-1.8-2.2-1.8-3.8s0.6-2.9,1.7-3.9c0.9-0.8,2.4-1.5,4.5-2c2.3-0.6,4-1.1,4.9-1.7c0.7-0.4,1.2-0.9,1.5-1.6
	c0.2-0.5,0.3-1.3,0.3-2.3c0-1.8-0.3-3.2-0.9-4.2c-0.7-1.2-1.9-1.8-3.3-1.8c-1,0-1.8,0.3-2.4,0.9c-0.3,0.3-0.8,1.2-1.5,2.6
	c-0.4,0.8-1,1.2-1.9,1.2c-0.7,0-1.2-0.2-1.6-0.8C36.1,44.5,36,44,36,43.5c0-0.8,0.4-1.4,1.3-1.9c1.6-0.9,3.6-1.4,6.1-1.4
	c1.5,0,3,0.2,4.6,0.7c1.8,0.6,3,1.4,3.6,2.4c0.4,0.7,0.6,1.9,0.6,3.6v9.8c0,1.6,0.1,2.7,0.2,3.3c0.3,1.2,1,1.8,2.2,1.8
	c0.8,0,1.4-0.2,1.8-0.7C56.6,60.9,56.8,60.7,56.9,60.5L56.9,60.5z M48.1,50.1c-0.9,0.8-1.9,1.4-3.1,2.1c-1.4,0.8-2.3,1.3-2.7,1.6
	c-1.6,1.2-2.5,2.8-2.5,4.7c0,1.1,0.3,2.1,0.9,2.8c0.7,0.8,1.5,1.2,2.5,1.2c1.2,0,2.3-0.5,3.2-1.4c1.2-1.2,1.8-3.4,1.8-6.6L48.1,50.1
	L48.1,50.1z M64.9,40.1c0.2,1,0.4,2.1,0.4,3.3c2.2-2.1,4.8-3.1,7.8-3.1c2,0,3.6,0.4,5,1.2c1.6,1,2.5,2.6,2.5,4.7v9.2
	c0,2,0,3.3,0.1,3.9c0.1,1.3,0.7,2.2,1.8,2.7c0.5,0.2,1.1,0.4,1.9,0.5V63H72.6v-0.5c1.1-0.1,1.8-0.3,2.2-0.6c0.9-0.6,1.5-1.7,1.6-3.3
	c0-0.4,0.1-1.5,0.1-3.4v-5.6c0-2.9-0.2-4.9-0.7-5.8c-0.4-0.7-0.9-1.3-1.7-1.7c-0.8-0.4-1.7-0.6-2.7-0.6c-1.1,0-2.1,0.2-3,0.7
	s-1.6,1.1-2,1.9c-0.5,0.9-0.8,2-0.9,3.1c-0.1,1-0.1,2-0.1,3.1v5.2c0,2,0,3.3,0.1,3.9c0.1,1.3,0.7,2.2,1.8,2.7
	c0.5,0.2,1.1,0.4,1.9,0.5v0.5H57.4v-0.5c1.1-0.1,1.8-0.3,2.2-0.6c0.9-0.6,1.5-1.7,1.6-3.3c0-0.4,0.1-1.5,0.1-3.4v-6.5
	c0-2.1-0.1-3.4-0.1-3.8c-0.3-2.1-1.4-3.2-3.5-3.3v-0.5L64.9,40.1L64.9,40.1z M108.1,60.5l0.4,0.3c-0.6,1.8-2.1,2.7-4.4,2.7
	c-1.4,0-2.6-0.4-3.4-1.1c-0.5-0.4-0.9-1-1.4-1.9c-1,0.8-1.7,1.4-2.2,1.8c-1.2,0.8-2.7,1.2-4.4,1.2c-1.8,0-3.3-0.4-4.5-1.3
	c-1.2-0.9-1.8-2.2-1.8-3.8s0.6-2.9,1.7-3.9c0.9-0.8,2.4-1.5,4.5-2c2.3-0.6,4-1.1,4.9-1.7c0.7-0.4,1.2-0.9,1.5-1.6
	c0.2-0.5,0.3-1.3,0.3-2.3c0-1.8-0.3-3.2-0.9-4.2c-0.7-1.2-1.9-1.8-3.3-1.8c-1,0-1.8,0.3-2.4,0.9c-0.3,0.3-0.8,1.2-1.5,2.6
	c-0.4,0.8-1,1.2-1.9,1.2c-0.7,0-1.2-0.2-1.6-0.8c-0.3-0.4-0.5-0.8-0.4-1.3c0-0.8,0.4-1.4,1.3-1.9c1.6-0.9,3.6-1.4,6.1-1.4
	c1.5,0,3,0.2,4.6,0.7c1.8,0.6,3,1.4,3.6,2.4c0.4,0.7,0.6,1.9,0.6,3.6v9.8c0,1.6,0.1,2.7,0.2,3.3c0.3,1.2,1,1.8,2.2,1.8
	c0.8,0,1.4-0.2,1.8-0.7C107.8,60.9,108,60.7,108.1,60.5L108.1,60.5z M99.3,50.1c-0.9,0.8-1.9,1.4-3.1,2.1c-1.4,0.8-2.3,1.3-2.7,1.6
	C91.9,55,91,56.6,91,58.5c0,1.1,0.3,2.1,0.9,2.8c0.7,0.8,1.5,1.2,2.5,1.2c1.2,0,2.3-0.5,3.2-1.4c1.2-1.2,1.8-3.4,1.8-6.6L99.3,50.1
	L99.3,50.1z M127.8,63.9c-0.2-0.9-0.3-1.8-0.3-2.7c-2.4,1.6-4.9,2.3-7.4,2.3c-3,0-5.5-1-7.5-2.9c-2.1-2.1-3.2-4.9-3.2-8.3
	c0-3.6,1.1-6.6,3.3-8.8c2.1-2.1,4.7-3.1,7.8-3.1c1.8,0,3.5,0.4,4.9,1.3c0.5,0.3,1.1,0.7,1.8,1.3v-9.7c0-2.3-0.5-3.9-1.5-4.8
	c-0.6-0.4-1.5-0.6-2.6-0.7v-0.7l8.1-1v30.6c0,1.6,0.2,2.7,0.5,3.4c0.5,1.1,1.2,1.7,2.2,2c0.4,0.1,0.8,0.1,1.4,0.1v0.7L127.8,63.9
	L127.8,63.9z M121.6,40.9c-2,0-3.7,1.1-5.1,3.2c-1.5,2.2-2.2,4.8-2.2,7.7c0,2.8,0.7,5.4,2,7.6c1.3,2.2,3.1,3.3,5.2,3.3
	c1,0,2-0.3,2.9-0.9c0.9-0.6,1.6-1.4,2-2.3c0.5-1.1,0.8-2.2,0.9-3.4c0.1-1.3,0.2-2.7,0.2-4.2c0-2.9-0.1-4.9-0.3-5.9
	c-0.4-1.8-1.2-3.1-2.3-3.9C123.8,41.3,122.7,40.9,121.6,40.9L121.6,40.9z M159.6,60.5l0.4,0.3c-0.6,1.8-2.1,2.7-4.4,2.7
	c-1.4,0-2.6-0.4-3.4-1.1c-0.5-0.4-0.9-1-1.4-1.9c-1,0.8-1.7,1.4-2.2,1.8c-1.2,0.8-2.7,1.2-4.4,1.2c-1.8,0-3.3-0.4-4.5-1.3
	c-1.2-0.9-1.8-2.2-1.8-3.8s0.6-2.9,1.7-3.9c0.9-0.8,2.4-1.5,4.5-2c2.3-0.6,4-1.1,4.9-1.7c0.7-0.4,1.2-0.9,1.5-1.6
	c0.2-0.5,0.3-1.3,0.3-2.3c0-1.8-0.3-3.2-0.9-4.2c-0.7-1.2-1.9-1.8-3.3-1.8c-1,0-1.8,0.3-2.4,0.9c-0.3,0.3-0.8,1.2-1.5,2.6
	c-0.4,0.8-1,1.2-1.9,1.2c-0.7,0-1.2-0.2-1.6-0.8c-0.3-0.4-0.5-0.8-0.4-1.3c0-0.8,0.4-1.4,1.3-1.9c1.6-0.9,3.6-1.4,6.1-1.4
	c1.5,0,3,0.2,4.6,0.7c1.8,0.6,3,1.4,3.6,2.4c0.4,0.7,0.6,1.9,0.6,3.6v9.8c0,1.6,0.1,2.7,0.2,3.3c0.3,1.2,1,1.8,2.2,1.8
	c0.8,0,1.4-0.2,1.8-0.7C159.1,61,159.3,60.8,159.6,60.5z M150.8,50.1c-0.9,0.8-1.9,1.4-3.1,2.1c-1.4,0.8-2.3,1.3-2.7,1.6
	c-1.6,1.2-2.5,2.8-2.5,4.7c0,1.1,0.3,2.1,0.9,2.8c0.7,0.8,1.5,1.2,2.5,1.2c1.2,0,2.3-0.5,3.2-1.4c1.2-1.2,1.8-3.4,1.8-6.6
	L150.8,50.1L150.8,50.1z"/>
<path class="st0" d="M140.2,37.6V26.1h-5.5v11.5H140.2z M158.9,37.6V26.1h-5.5v11.5H158.9z M146.7,37.1h-0.5v-2.2l-2.5,0.2l0.5-0.9
	l-2.7-2l0.7-0.4l-0.7-1.9l1.5,0.4l0.5-0.8l1.9,1.9l-1-3.6l1.2,0.7l1.1-1.9l1.1,1.9l1.2-0.7l-1,3.6l1.9-1.9l0.5,0.8l1.4-0.4l-0.7,1.9
	l0.7,0.4l-2.7,2l0.5,0.9l-2.5-0.2v2.2H146.7L146.7,37.1z"/>
</svg>
