<?xml version="1.0" encoding="utf-8"?>
<!-- Generator: Adobe Illustrator 24.2.3, SVG Export Plug-In . SVG Version: 6.00 Build 0)  -->
<svg version="1.1" id="Layer_1" xmlns="http://www.w3.org/2000/svg" xmlns:xlink="http://www.w3.org/1999/xlink" x="0px" y="0px"
	 viewBox="0 0 160 90" style="enable-background:new 0 0 160 90;" xml:space="preserve">
<style type="text/css">
	.st0{fill:#FFFFFF;}
</style>
<g>
	<path class="st0" d="M81,18.3c3.6,0,6.2,4,4.7,7.3c-1,2.1-3.4,3-5.5,2.2c-2.5-1-3.9-3.5-3.4-6.1C77.3,19.7,78.9,18.3,81,18.3"/>
	<path class="st0" d="M80.1,62.3c-0.4,0.6-0.8,1.2-1.2,1.8c-1,1.7-2,3.4-3,5.1c-1.1,1.8-2.5,3.4-4.1,4.6c-4.2,3.4-9,2.6-12.6-0.7
		c-1.9-1.8-2.7-4.2-3.5-6.5c-0.3-0.9-0.6-1.8-0.9-2.7c-0.4-0.9-0.7-1-1.5-0.4c-1.3,1-2.5,2.2-3.7,3.2C46,70,42,72.8,37.4,74.5
		c-4.6,1.7-9.3,2-14.1,1c-3.8-0.7-6.6-2.8-8.6-6c-1.4-2.2-2.6-4.6-3.3-7.1c-0.3-1-0.8-1.7-2-1.8c-2.1-0.3-4.2-0.8-6.2-1.2
		c-1.9-0.4-3.1-2.1-3.1-4s1.4-3.6,3.3-3.8c0.8,0,1.7,0.2,2.6,0.4c1,0.2,2.2,0.4,3.2,0.6c1.2,0.2,1.4,0,1.6-1.1
		c0.6-2.5,1.4-4.8,2.7-6.9c3.7-5.7,8.8-9.2,15.4-10.2c2.8-0.4,5.5-0.3,8.3,0.4c4.2,1.1,6.6,4.8,7,8.4c1,7.2-3,14.1-11.4,16.6
		c-3.3,1-6.6,1.4-10,1.5c-0.8,0-1.5,0.1-2.3,0.1c-1.1,0.1-1.4,0.6-0.9,1.5c1,1.8,2.3,3.2,4.2,4.2c2.4,1.2,4.9,1.3,7.4,0.8
		c4.5-0.8,8.4-2.9,11.9-5.8c2.4-2,4.6-4.2,7-6.3c1.4-1.3,1.7-2.8,1.4-4.6c-0.6-3.3-1.1-6.6-1.5-9.9c-0.6-5.3-1-10.6,0.1-15.9
		c0.6-2.6,1.4-5.1,2.9-7.4c4.2-6.6,13-4.8,16,0.1c1.8,3,2.6,6.1,2.2,9.5c-0.8,9.1-3.6,17.5-8.6,25.2c-0.4,0.6-0.8,1.2-1.2,1.8
		c-0.6,0.9-0.9,1.8-0.6,2.8c0.7,2.6,1.4,5,2.2,7.5c0.2,0.7,0.7,1.4,1.3,2c0.9,1,1.9,1,2.9,0.1c0.9-0.9,1.8-1.8,2.5-2.8
		c3.7-5.4,6.6-11.1,8-17.6c0.6-2.6,0.7-5.1,0.5-7.8c-0.1-0.7,0-1.5,0.2-2.3c0.2-1.2,1-1.9,2.2-2.2c1.5-0.3,2.8,0,3.8,1.1
		c0.9,1,1.4,2.2,1.4,3.4c0.4,4.7,0.7,9.4,1.2,14.1c0.2,2.8,0.3,5.7,1.2,8.4c0.6,1.8,1.4,3.6,2.8,5c1.6,1.7,3.5,2.5,5.8,2.6
		c2,0.1,3.9-0.1,5.8-1c1.8-0.9,2.9-2.3,2.9-4.5c0-1-0.4-1.8-1.1-2.5c-1-0.9-2.2-1.7-3.4-2.5c-1.9-1.3-4-2.4-5.8-3.9
		c-4.9-4-4.9-10.1-0.2-14.3c2.9-2.6,6.3-3.9,9.9-4.8c5.9-1.4,11.8-1.6,17.9-1.4c4.5,0.2,8.9,0.6,13.2,2c1.9,0.6,3.8,1.4,5.6,2.2
		c3.9,1.8,6.6,4.9,7.8,9.2c0.4,1.4,0.5,1.4,2,1.5c1.8,0.2,3.5,0.3,5.3,0.6c2.2,0.4,3.6,2.6,3.1,4.9c-0.4,2.1-2.5,3.4-4.6,3
		c-1.2-0.2-2.4-0.3-3.6-0.4c-1-0.1-1.2,0.2-1.4,1.1c-1.6,8.1-6.3,13.5-13.8,16.6c-2.6,1-5.4,1.2-8.2,1.1c-1.3,0-2.6-0.2-3.8-0.4
		c-3.8-0.7-6-3-6.8-6.6c-1.1-5-0.3-9.7,3-13.8c2.3-2.8,5.5-4.3,9-5.2c3.2-0.8,6.5-1.1,9.8-1.1c0.5,0,0.9,0,1.4-0.2
		c0.3-0.1,0.7-0.2,0.8-0.5c0.1-0.2-0.2-0.7-0.4-0.9c-1.2-0.9-2.4-1.8-3.7-2.4c-2.8-1.4-5.8-2.1-8.8-2.3c-3.8-0.3-7.6-0.6-11.4-0.6
		c-4.6,0-9,0.5-13.4,2.2c-0.9,0.3-1.8,0.8-2.6,1.3c-1.2,0.8-1.4,1.9-0.5,3c0.5,0.6,1.1,1.1,1.8,1.5c1.5,1,3.2,1.7,4.7,2.6
		c4.6,2.6,6.6,6.7,6.1,11.8c-0.4,4.5-2.9,7.8-7,9.6c-7.6,3.4-14.6,2.2-21.1-3c-2.2-1.8-3.4-4.1-4.2-6.8c-0.2-0.7-0.5-1.4-0.7-2.2
		C80.3,62.4,80.2,62.3,80.1,62.3 M20.1,53.4c0.5,0,0.9-0.1,1.4-0.1c3-0.1,5.9-0.2,8.8-1c3.2-0.8,5.4-2.6,6.5-5.8
		c0.6-1.7,0.1-3.1-1.4-3.8c-0.9-0.4-1.9-0.8-3-0.8c-5.7-0.2-11.9,4.4-13.5,9.8C18.4,53,18.7,53.4,20.1,53.4 M129,68.2
		c2.4-0.1,5-0.7,7.4-2.1c2.8-1.6,4.7-4,5.8-7c0.6-1.5,0.1-2.1-1.4-2.1c-1.3,0-2.6,0-3.8,0.2c-2.3,0.3-4.6,0.6-6.8,1.1
		c-2.7,0.7-4.7,2.4-5.3,5.4C124.3,66.5,125.7,68.2,129,68.2 M58.4,44.3c0.1,0,0.2,0,0.3,0.1c0.2-0.4,0.6-0.8,0.7-1.2
		c0.7-1.7,1.4-3.4,2-5.1c1.4-4.1,2.3-8.2,2.4-12.5c0-1.4-0.1-2.7-1-3.9c-0.7-1-1.8-1.3-2.9-0.6c-1,0.6-1.6,1.4-1.8,2.4
		c-0.4,1.6-0.7,3.3-0.7,5c0,3.4,0.1,7,0.2,10.4C57.8,40.6,58.2,42.5,58.4,44.3"/>
</g>
</svg>
