<?xml version="1.0" encoding="UTF-8"?> <!-- Generator: Adobe Illustrator 24.1.2, SVG Export Plug-In . SVG Version: 6.00 Build 0) --> <svg xmlns="http://www.w3.org/2000/svg" xmlns:xlink="http://www.w3.org/1999/xlink" version="1.1" id="Layer_1" x="0px" y="0px" viewBox="0 0 2300 600" style="enable-background:new 0 0 2300 600;" xml:space="preserve"> <style type="text/css"> .st0{fill-rule:evenodd;clip-rule:evenodd;fill:#FFFFFF;} .st1{fill-rule:evenodd;clip-rule:evenodd;fill:#CC2229;} </style> <rect x="1928.8" y="30.8" class="st0" width="344.7" height="163.8"></rect> <path class="st0" d="M455,41.3l4.5,168.4h-8.7c-2.2-5.5-4.3-11.1-6.4-16.6c-13.2-37-24.2-62-32.9-75.1 c-33-50.1-74.5-75.1-124.6-75.1c-54.7,0-99.4,26.4-134.3,79.2c-33.2,49.8-49.8,109.1-49.8,177.9c0,71.3,15.3,128.6,46,171.9 c34.7,48.8,84.2,73.2,148.6,73.2c30.9,0,58.1-5.7,81.4-16.9c23.3-11.3,41.2-27.5,53.7-48.6c11.5-19.1,20-43.8,25.4-74.1l8.7,1.5 c-6.8,54.4-26.4,95-59,121.9c-32.6,26.9-78.5,40.4-137.6,40.4c-81.7,0-146.1-24.9-193.2-74.7c-44.4-46.6-66.5-108.2-66.5-184.8 c0-41,6.8-79.6,20.3-115.6s32.6-66,57.1-89.8c24.6-24,55.9-42.7,94-55.9c33.3-11.8,66.8-17.7,100.4-17.7c25.1,0,50.8,3.8,77.1,11.5 c6.3,1.7,22.7,7,49.2,15.9c6,2,11.4,3,16.2,3c8.8,0,15.9-6.6,21.4-19.7L455,41.3L455,41.3L455,41.3z M821.2,520.5l6.4,3.8 c-9.1,25.9-29.9,38.8-62.3,38.8c-20.5,0-36.8-5.3-49-15.9c-6.6-5.4-13.4-14.3-20.5-26.7c-13.8,12.1-24.4,20.6-31.7,25.6 c-17.6,11.3-38.7,17-63.3,17c-26.1,0-47.5-6.2-64.1-18.7c-17.3-12.9-26-31.1-26-54.5c0-22.9,8.2-41.5,24.6-56 c13.1-11.5,34.6-20.9,64.3-28.4c33-8.2,56.3-16.2,69.6-23.9c10.6-6,17.8-13.4,21.6-22.4c3.3-7.7,4.9-18.6,4.9-32.5 c0-26.1-4.4-46.2-13.2-60.1c-10.6-16.7-26.4-25-47.5-25c-13.8,0-25.2,4.2-34.3,12.7c-4.8,4.6-11.7,16.9-20.7,37 c-5,11.4-14.2,17-27.5,17c-10,0-17.8-3.5-23.4-10.7c-4.2-5.2-6.5-11.7-6.4-18.4c0-10.8,6.2-19.9,18.5-27.3 c22.4-13,51.6-19.5,87.5-19.5c21.6,0,43.3,3.5,64.9,10.4c25.7,8.2,42.6,19.4,51,33.5c5.8,9.7,8.7,26.6,8.7,50.6v139.3 c0,22.9,1,38.4,3,46.7c4.3,17.2,14.5,25.9,30.8,25.9c10.8,0,19.5-3.2,26.3-9.6C816.3,526.4,818.8,523.5,821.2,520.5L821.2,520.5z M695.9,372.2c-12.9,10.8-27.7,20.6-44.3,29.6c-19.9,10.8-32.9,18.5-39.1,23.3c-23.3,17.8-35,40.3-35,67.5 c0,16.3,4.2,29.5,12.7,39.7c9.4,11.5,21.1,17.2,35,17.2c17.1,0,32.1-6.7,45-20.2c17.1-17.7,25.7-49.1,25.7-94.2L695.9,372.2 L695.9,372.2z M935.4,230.9c3.3,14.3,5,29.9,5,46.7c31-29.9,68.2-44.8,111.5-44.8c28.2,0,51.8,5.9,70.6,17.8 c23.5,14.6,35.3,36.9,35.3,66.9v131.2c0.2,29.1,0.6,47.7,1.1,55.7c2,18.8,10.4,31.5,25.2,38c7,3,16.2,5.6,27.5,7.5v7.5h-167.1v-7.5 c15-2,25.6-4.8,31.6-8.3c13.3-8.5,20.8-24.1,22.6-46.6c0.7-5.3,1.2-21.4,1.5-48.5v-80c0-41.7-3.4-69.5-10.1-83.3 c-5-10.3-13.2-18.6-24.6-24.6c-11.4-6-24.4-9.1-39.1-9.1c-15.6,0-30,3.4-43,10.2c-13,6.8-22.6,15.9-28.8,27.3 c-7.4,13.1-11.7,28.1-12.7,44.8c-0.8,14.6-1.2,29.2-1.1,43.8v73.9c0.2,28.6,0.6,46.9,1.1,54.9c2,18.8,10.5,31.5,25.6,38 c6.8,3,15.8,5.6,27.1,7.5v7.5H827.4v-7.5c15-2,25.6-4.8,31.6-8.3c13.3-8.5,20.8-24.1,22.6-46.6c0.7-5.5,1.2-21.8,1.5-48.9v-93.3 c-0.3-30.1-0.9-48.1-1.9-54.2c-4-30.1-20.6-45.6-49.7-46.6v-7.5L935.4,230.9L935.4,230.9z M1551,520.5l6.4,3.8 c-9.1,25.9-29.9,38.8-62.3,38.8c-20.5,0-36.8-5.3-49-15.9c-6.6-5.4-13.4-14.3-20.5-26.7c-13.9,12.1-24.4,20.6-31.7,25.6 c-17.6,11.3-38.7,17-63.3,17c-26.1,0-47.5-6.2-64.1-18.7c-17.4-12.9-26-31.1-26-54.5c0-22.9,8.2-41.5,24.6-56 c13.1-11.5,34.6-20.9,64.3-28.4c33-8.2,56.3-16.2,69.6-23.9c10.6-6,17.8-13.4,21.6-22.4c3.3-7.7,4.9-18.6,4.9-32.5 c0-26.1-4.4-46.2-13.2-60.1c-10.6-16.7-26.4-25-47.5-25c-13.8,0-25.2,4.2-34.3,12.7c-4.8,4.6-11.7,16.9-20.7,37 c-5,11.4-14.2,17-27.5,17c-10,0-17.8-3.5-23.4-10.7c-4.2-5.2-6.5-11.7-6.4-18.4c0-10.8,6.2-19.9,18.5-27.3 c22.4-13,51.6-19.5,87.5-19.5c21.6,0,43.3,3.5,64.9,10.4c25.7,8.2,42.6,19.4,51,33.5c5.8,9.7,8.7,26.6,8.7,50.6v139.3 c0,22.9,1,38.4,3,46.7c4.3,17.2,14.5,25.9,30.8,25.9c10.8,0,19.6-3.2,26.3-9.6C1546.1,526.4,1548.6,523.5,1551,520.5L1551,520.5z M1425.6,372.2c-12.9,10.8-27.7,20.6-44.3,29.6c-19.9,10.8-32.9,18.5-39.1,23.3c-23.3,17.8-35,40.3-35,67.5 c0,16.3,4.2,29.5,12.7,39.7c9.4,11.5,21,17.2,35,17.2c17.1,0,32.2-6.7,45-20.2c17.1-17.7,25.7-49.1,25.7-94.2V372.2z M1831.1,569.3 c-2.9-12.8-4.2-26-3.9-39.1c-34.6,22.1-69.6,33.2-105.1,33.2c-42.8,0-78.2-14-106.2-41.9c-30-30-45-69.4-45-118.3 c0-51.7,15.9-93.6,47.7-125.8c29.5-29.7,66.5-44.6,111.1-44.6c26.3,0,49.6,6.2,70.2,18.7c6.7,3.9,15.4,10.1,25.9,18.7V131.9 c0-33.3-7.3-55.9-21.8-67.7c-8.5-6-20.7-9.1-36.5-9.4v-9.4l115.9-14.7v435.3c0.2,22.8,2.6,39,7.1,48.5c6.5,15.3,17,24.7,31.2,28.2 c5.2,1,11.9,1.6,19.9,1.9v9.4L1831.1,569.3L1831.1,569.3z M1742,241.8c-28.5,0-52.8,15-72.9,45c-21.1,31.2-31.6,67.9-31.6,110.2 c0,40.5,9.6,76.4,29,107.9c19.1,31,43.7,46.5,74,46.5c14.6,0,28.9-4.3,41.1-12.4c12.5-8,22.4-19.4,28.4-33 c7.3-15.3,11.7-31.8,13-48.7c1.8-18,2.6-38.1,2.6-60.3c0-41-1.6-69.2-4.8-84.7c-5.4-25.7-16.5-44.4-33.1-56.2 C1774.3,246.6,1758.4,241.6,1742,241.8L1742,241.8z M2283.3,520.5l6.4,3.8c-9.1,25.9-29.9,38.8-62.3,38.8c-20.5,0-36.8-5.3-49-15.9 c-6.6-5.4-13.4-14.3-20.5-26.7c-13.9,12.1-24.4,20.6-31.7,25.6c-17.6,11.3-38.7,17-63.3,17c-26.1,0-47.5-6.2-64.1-18.7 c-17.3-12.9-26-31.1-26-54.5c0-22.9,8.2-41.5,24.6-56c13.1-11.5,34.6-20.9,64.3-28.4c33-8.2,56.3-16.2,69.6-23.9 c10.6-6,17.8-13.4,21.6-22.4c3.3-7.7,4.9-18.6,4.9-32.5c0-26.1-4.4-46.2-13.2-60.1c-10.6-16.7-26.4-25-47.5-25 c-13.8,0-25.2,4.2-34.3,12.7c-4.8,4.6-11.7,16.9-20.7,37c-5,11.4-14.2,17-27.5,17c-10.1,0-17.8-3.5-23.4-10.7 c-4.2-5.2-6.5-11.7-6.4-18.4c0-10.8,6.2-19.9,18.5-27.3c22.4-13,51.6-19.5,87.5-19.5c21.6,0,43.3,3.5,64.9,10.4 c25.6,8.2,42.6,19.4,51,33.5c5.8,9.7,8.7,26.6,8.7,50.6v139.3c0,22.9,1,38.4,3,46.7c4.3,17.2,14.5,25.9,30.8,25.9 c10.8,0,19.6-3.2,26.3-9.6C2277.5,527.4,2280,524.5,2283.3,520.5z M2158,372.2c-12.9,10.8-27.7,20.6-44.3,29.6 c-19.9,10.8-32.9,18.5-39.1,23.3c-23.3,17.8-35,40.3-35,67.5c0,16.3,4.2,29.5,12.7,39.7c9.4,11.5,21,17.2,35,17.2 c17.1,0,32.1-6.7,45-20.2c17.1-17.7,25.7-49.1,25.7-94.2V372.2z"></path> <path class="st1" d="M2007,194.6V30.8h-78.1v163.8H2007z M2273.5,194.6V30.8h-77.9v163.8H2273.5z M2100.4,187.4h-6.6V156l-35.3,3.3 l6.6-12.6l-38.4-28.1l10.2-5.7l-9.9-26.9l21,5.1l7.8-10.8l26.7,26.6l-14.1-51.2l16.8,9.6l15.3-27.5l15.3,27.5l17.1-9.6l-14.4,51.2 l26.9-26.6l7.8,10.8l20.6-5.1l-9.8,26.9l10.5,5.7l-38.6,28.1l6.9,12.6l-35.4-3.3v31.5H2100.4L2100.4,187.4z"></path> </svg> 