<?xml version="1.0" encoding="utf-8"?>
<!-- Generator: Adobe Illustrator 24.3.0, SVG Export Plug-In . SVG Version: 6.00 Build 0)  -->
<svg version="1.1" id="Layer_1" xmlns="http://www.w3.org/2000/svg" xmlns:xlink="http://www.w3.org/1999/xlink" x="0px" y="0px"
	 viewBox="0 0 708.7 283.5" style="enable-background:new 0 0 708.7 283.5;" xml:space="preserve">
<style type="text/css">
	.st0{fill-rule:evenodd;clip-rule:evenodd;fill:#FFFFFF;}
	.st1{fill:#FFFFFF;}
</style>
<g>
	<path class="st0" d="M354.1,234.1c0-13.9,11.3-25.1,25.1-25.1c13.9,0,25.1,11.3,25.1,25.1c0,13.9-11.3,25.1-25.1,25.1
		S354.1,248,354.1,234.1 M379.3,250c7.8,0,14-7.1,14-15.9c0-8.8-6.3-15.9-14-15.9c-7.8,0-14,7.1-14,15.9
		C365.2,242.9,371.5,250,379.3,250"/>
	<polygon class="st0" points="432.9,219.4 432.9,258.1 422.3,258.1 422.3,219.4 422.4,219.4 407.6,219.4 407.6,210.7 447.7,210.7 
		447.7,219.4 433,219.4 	"/>
	<path class="st0" d="M460.5,247.4L460.5,247.4l-4.1,10.7H444l19.6-47.4h6.6h6.6l19.6,47.4H484l-4.1-10.7l0,0h-9.7L460.5,247.4
		L460.5,247.4z M470.2,239.4h6.7l0,0l-6.6-17.4h-0.1l-6.6,17.4l0,0H470.2z"/>
	<polygon class="st0" points="237.7,219.4 237.7,258.1 227.1,258.1 227.1,219.4 227.1,219.4 212.3,219.4 212.3,210.7 252.4,210.7 
		252.4,219.4 	"/>
	<path class="st0" d="M255.1,234.1c0-13.9,11.3-25.1,25.1-25.1c13.9,0,25.1,11.3,25.1,25.1c0,13.9-11.3,25.1-25.1,25.1
		S255.1,248,255.1,234.1 M280.3,250c7.8,0,14-7.1,14-15.9c0-8.8-6.3-15.9-14-15.9c-7.8,0-14,7.1-14,15.9S272.5,250,280.3,250"/>
	<polygon class="st0" points="329.8,258.1 335.1,258.1 335.1,240.3 335.1,240.1 353.6,210.7 341.3,210.7 329.8,230.6 318.3,210.7 
		305.9,210.7 324.4,240.1 324.4,240.3 324.4,258.1 	"/>
	<path class="st1" d="M440.9,47.4c-21.8-15-52.6-23.2-86.6-23.2s-64.7,8.2-86.6,23.2c-22,15-34,36.2-34,59.6
		c0,23.1,12.6,44.3,35.5,59.6c22.3,14.9,52.6,23.2,85.1,23.2c32.6,0,62.8-8.2,85.1-23.2c22.9-15.3,35.5-36.5,35.5-59.6
		C475,83.6,462.9,62.5,440.9,47.4 M425.5,64.8c0,2.8-1.9,5.6-5.2,7.7c-6.7,4.4-18.6,7.8-33.6,9.8l0,0c-0.7,0.1-1.1-0.2-1.2-0.7
		c-2.3-16.2-7-29.4-13.4-38.1c0,0,0-0.1-0.1-0.1l-0.1-0.1c0,0,0-0.1-0.1-0.1c-0.8-1-0.3-1.5,0.8-1.3
		C403.2,45.2,425.5,56.3,425.5,64.8 M354.3,60.7c4.6,0,9.1,8.9,11.4,22.3c0.1,0.6,0,1-0.8,1l0,0c-3.5,0.1-7,0.2-10.5,0.2
		c-3.6,0-7.1-0.1-10.6-0.2c-0.7,0-0.9-0.5-0.8-1.1C345.3,69.6,349.7,60.7,354.3,60.7 M336.3,41.8c1.1-0.1,1.6,0.4,0.8,1.4
		c0,0,0,0-0.1,0.1c-6.5,8.6-11.4,22.1-13.8,38.1c0,0,0,0,0,0.1c-0.1,0.6-0.5,0.9-1.2,0.8c-15.3-2-27.3-5.5-34-10
		c-3.1-2.1-4.9-4.8-4.9-7.5C283.2,56.3,305.6,45.1,336.3,41.8 M256.4,106.8c0-7.9,1.8-15.8,5.3-23.3c0.5-0.9,1-0.6,1.4,0
		c0,0.1,0.1,0.1,0.1,0.1c8.7,11.8,29.5,20.9,57.3,24.8h0.1c0.6,0.1,1,0.3,1,1.2c0,0.1,0,0.1,0,0.2c0.6,25.4,6.5,48,15.7,60.9l0,0
		c0.5,0.7,0.4,1.3-0.8,1.2c-22-2.7-42-10.3-56.5-21.8C264.7,138.1,256.4,122.7,256.4,106.8 M354.3,146c-5.9,0-11.4-15.4-12.7-34.7
		c0-0.6,0.4-0.9,0.9-0.9l0,0c3.8,0.2,7.7,0.3,11.7,0.3s7.9-0.1,11.7-0.3l0,0c0.6,0,0.9,0.3,0.9,0.9C365.8,130.6,360.2,146,354.3,146
		 M428.7,150.1c-14.5,11.4-34.4,19.1-56.4,21.7h-0.1c-1.2,0.1-1.3-0.5-0.8-1.2l0,0c9.2-12.9,15.1-35.5,15.7-60.9c0,0,0-0.1,0-0.2
		c0-0.8,0.5-1.1,1-1.1h0.1c27.7-3.9,48.6-13,57.3-24.8l0.1-0.1c0.4-0.6,1-0.9,1.4,0c3.5,7.6,5.3,15.4,5.3,23.3
		C452.3,122.7,443.9,138.1,428.7,150.1"/>
</g>
</svg>
