<?xml version="1.0" encoding="utf-8"?>
<!-- Generator: Adobe Illustrator 24.3.0, SVG Export Plug-In . SVG Version: 6.00 Build 0)  -->
<svg version="1.1" id="Layer_1" xmlns="http://www.w3.org/2000/svg" xmlns:xlink="http://www.w3.org/1999/xlink" x="0px" y="0px"
	 viewBox="0 0 708.7 283.5" style="enable-background:new 0 0 708.7 283.5;" xml:space="preserve">
<style type="text/css">
	.st0{fill:#FFFFFF;}
</style>
<g>
	<path class="st0" d="M357.6,57.2c11.4,0,19.5,12.7,15,23.1c-3,6.6-10.7,9.6-17.5,6.8c-7.9-3-12.4-11.2-10.7-19.3
		C345.7,61.5,350.8,57.2,357.6,57.2"/>
	<path class="st0" d="M354.6,196.7c-1.3,2-2.5,3.8-3.8,5.8c-3.3,5.3-6.3,10.9-9.6,16.2c-3.6,5.6-7.9,10.7-12.9,14.7
		c-13.4,10.9-28.4,8.1-39.8-2.3c-6.1-5.6-8.6-13.2-11.2-20.5c-1-2.8-1.8-5.8-2.8-8.6c-1.3-2.8-2.3-3.3-4.8-1.3
		c-4.1,3.3-7.9,6.8-11.7,10.1c-11.4,10.4-24.1,19.3-38.8,24.9c-14.5,5.3-29.4,6.3-44.6,3.3c-11.9-2.3-20.8-8.9-27.4-19
		c-4.6-7.1-8.1-14.5-10.4-22.6c-1-3.3-2.5-5.3-6.3-5.8c-6.6-1-13.2-2.5-19.8-3.8c-6.1-1.3-9.9-6.6-9.9-12.7
		c0-6.1,4.3-11.4,10.4-12.2c2.8-0.3,5.8,0.5,8.6,1c3.3,0.5,6.8,1.3,10.1,1.8c3.8,0.5,4.3,0,5.1-3.6c1.8-7.9,4.3-15.2,8.6-21.8
		c11.7-18,27.9-29.2,49-32.2c8.9-1.3,17.5-1,26.4,1.3c13.4,3.6,20.8,15.2,22.3,26.6c3,22.8-9.6,44.6-36,52.8
		c-10.4,3.3-20.8,4.3-31.7,4.8c-2.5,0-4.8,0.3-7.4,0.3c-3.6,0.3-4.6,1.8-2.8,4.8c3,5.6,7.4,10.1,13.2,13.2
		c7.6,3.8,15.5,4.1,23.6,2.5c14.2-2.5,26.6-9.1,37.8-18.3c7.6-6.3,14.7-13.4,22.1-20c4.3-4.1,5.3-8.9,4.6-14.5
		c-1.8-10.4-3.6-20.8-4.8-31.5c-2-16.7-3.3-33.7,0.3-50.5c1.8-8.4,4.6-16.2,9.1-23.3c13.4-21.1,41.3-15.2,50.7,0.3
		c5.6,9.4,8.1,19.3,7.1,30.2c-2.5,28.9-11.4,55.6-27.4,79.9c-1.3,2-2.5,3.8-3.8,5.6c-2,2.8-2.8,5.6-1.8,8.9c2.3,8.1,4.6,16,7.1,23.8
		c0.8,2.3,2.3,4.6,4.1,6.3c2.8,3,6.1,3.3,9.1,0.3c2.8-2.8,5.6-5.6,7.9-8.9c11.7-17,20.8-35.3,25.4-55.8c1.8-8.1,2.3-16.2,1.5-24.6
		c-0.3-2.3,0-4.8,0.5-7.4c0.8-3.8,3.3-6.1,7.1-7.1c4.8-1,8.9,0,12.2,3.6c2.8,3,4.3,6.8,4.6,10.9c1.3,15,2.3,29.7,3.8,44.6
		c0.8,8.9,1,18,3.8,26.6c2,5.8,4.6,11.4,8.9,16c5.1,5.3,11.2,7.9,18.5,8.1c6.3,0.3,12.4-0.3,18.3-3s9.1-7.4,9.1-14.2
		c0-3.3-1.3-5.8-3.6-7.9c-3.3-2.8-7.1-5.3-10.9-7.9c-6.1-4.1-12.7-7.6-18.5-12.4c-15.5-12.7-15.5-32-0.5-45.4
		c9.1-8.1,20-12.4,31.5-15.2c18.8-4.3,37.5-5.1,56.8-4.3c14.2,0.5,28.2,2,41.9,6.3c6.1,1.8,12.2,4.3,17.8,7.1
		c12.4,5.8,21.1,15.5,24.6,29.2c1.3,4.6,1.5,4.6,6.3,4.8c5.6,0.5,11.2,1,16.7,2c7.1,1.3,11.4,8.1,9.9,15.5
		c-1.3,6.6-7.9,10.7-14.7,9.4c-3.8-0.8-7.6-1-11.4-1.3c-3-0.3-3.8,0.8-4.6,3.6c-5.1,25.6-20,42.9-43.9,52.8
		c-8.4,3.3-17.2,3.8-26.1,3.6c-4.1,0-8.4-0.5-12.2-1.3c-11.9-2.3-19-9.4-21.6-21.1c-3.6-16-1-30.7,9.4-43.6
		c7.4-8.9,17.5-13.7,28.7-16.5c10.1-2.5,20.5-3.6,30.9-3.6c1.5,0,2.8,0,4.3-0.5c1-0.3,2.3-0.8,2.5-1.5c0.3-0.8-0.5-2.3-1.3-2.8
		c-3.8-2.8-7.6-5.6-11.7-7.6c-8.9-4.3-18.3-6.6-27.9-7.4c-11.9-1-24.1-1.8-36-1.8c-14.5,0-28.7,1.5-42.4,6.8c-2.8,1-5.6,2.5-8.1,4.1
		c-3.8,2.5-4.3,6.1-1.5,9.6c1.5,2,3.6,3.6,5.6,4.8c4.8,3,10.1,5.3,15,8.1c14.5,8.4,21.1,21.3,19.3,37.5
		c-1.3,14.2-9.1,24.6-22.1,30.4c-24.1,10.7-46.4,7.1-67-9.4c-6.8-5.6-10.9-12.9-13.2-21.6c-0.5-2.3-1.5-4.6-2.3-6.8
		C355.3,196.9,355.1,196.7,354.6,196.7 M164.3,168.5c1.5,0,2.8-0.3,4.3-0.3c9.4-0.3,18.8-0.8,27.9-3.3c10.1-2.5,17.2-8.4,20.5-18.5
		c1.8-5.3,0.3-9.9-4.6-12.2c-2.8-1.3-6.1-2.5-9.4-2.5c-18-0.5-37.8,14-42.9,31.2C159,167.2,160,168.5,164.3,168.5 M509.8,215.2
		c7.6-0.3,15.7-2.3,23.3-6.6c8.9-5.1,15-12.7,18.5-22.3c1.8-4.8,0.3-6.6-4.6-6.6c-4.1,0-8.1,0-12.2,0.5c-7.4,1-14.5,1.8-21.6,3.6
		c-8.6,2.3-15,7.6-16.7,17C494.8,209.9,499.4,215.4,509.8,215.2 M285.8,139.6c0.3,0,0.8,0,1,0.3c0.8-1.3,1.8-2.5,2.3-3.8
		c2.3-5.3,4.6-10.7,6.3-16.2c4.3-12.9,7.4-26.1,7.6-39.6c0-4.3-0.3-8.6-3-12.4c-2.3-3.3-5.6-4.1-9.1-2c-3,1.8-5.1,4.3-5.8,7.6
		c-1.3,5.1-2.3,10.4-2.3,15.7c0,10.9,0.3,22.1,0.8,33C284,127.9,285.1,133.8,285.8,139.6"/>
</g>
</svg>
