<?xml version="1.0" encoding="utf-8"?>
<!-- Generator: Adobe Illustrator 24.3.0, SVG Export Plug-In . SVG Version: 6.00 Build 0)  -->
<svg version="1.1" id="Layer_1" xmlns="http://www.w3.org/2000/svg" xmlns:xlink="http://www.w3.org/1999/xlink" x="0px" y="0px"
	 viewBox="0 0 708.7 283.5" style="enable-background:new 0 0 708.7 283.5;" xml:space="preserve">
<style type="text/css">
	.st0{fill:#FFFFFF;}
	.st1{fill-rule:evenodd;clip-rule:evenodd;fill:#FFFFFF;}
</style>
<g>
	<g>
		<g>
			<polygon class="st0" points="150.1,133.4 150.1,133.4 140.4,133.4 140.4,164.7 123.9,133.4 111.7,133.4 111.7,179.8 111.7,179.8 
				111.7,179.8 121.4,179.8 121.3,148.4 137.8,179.8 150.1,179.8 			"/>
			<path class="st0" d="M174.3,180.5c-9.8,0-17.4-6.5-17.4-17.3c0-10.9,7.2-17.8,18-17.8c10.3,0,17.1,7.1,17.1,17.3
				C192,174.9,183.3,180.5,174.3,180.5L174.3,180.5z M174.6,173c4.1,0,6.7-4.1,6.7-10.1c0-5-1.9-10-6.7-10c-5,0-6.9,5.1-6.9,10.1
				C167.7,168.7,170.1,173,174.6,173L174.6,173z"/>
			<path class="st0" d="M198.5,157.2c0-5-0.1-8.2-0.3-11.1h8.9l0.4,6.3h0.3c1.7-5,5.8-7,9.1-7c1,0,1.4,0.1,2.2,0.2v9.8
				c-0.8-0.1-1.6-0.3-2.8-0.3c-3.8,0-6.5,2-7.2,5.3c-0.1,0.7-0.2,1.4-0.2,2.3v17h-10.5v-22.5H198.5z"/>
			<path class="st0" d="M256.7,130.8v38.9c0,3.8,0.1,7.8,0.3,10h-9.3l-0.4-4.9h-0.2c-2.1,3.7-6.2,5.6-10.5,5.6
				c-8,0-14.4-6.8-14.4-17.3c-0.1-11.3,7-17.9,15.1-17.9c4.2,0,7.4,1.5,8.9,3.8h0.1v-18.3L256.7,130.8L256.7,130.8z M246.2,160.4
				c0-0.6,0-1.3-0.1-1.9c-0.6-2.8-2.9-5.1-6.1-5.1c-4.8,0-7.2,4.3-7.2,9.6c0,5.6,2.8,9.2,7.2,9.2c3,0,5.5-2.1,6.1-5
				c0.1-0.7,0.2-1.5,0.2-2.3L246.2,160.4L246.2,160.4z"/>
			<rect x="265.1" y="146.1" class="st0" width="10.5" height="33.7"/>
			<rect x="265.1" y="130.8" class="st0" width="10.5" height="10.5"/>
			<path class="st0" d="M309.2,178.9c-1.9,0.9-5.4,1.6-9.4,1.6c-10.9,0-17.8-6.7-17.8-17.2c0-9.8,6.7-17.8,19.3-17.8
				c2.8,0,5.8,0.5,8,1.3l-1.7,7.8c-1.2-0.5-3.1-1-5.8-1c-5.5,0-9.1,3.9-9,9.4c0,6.2,4.1,9.4,9.2,9.4c2.5,0,4.4-0.4,6-1.1
				L309.2,178.9z"/>
			<path class="st0" d="M343.4,133.4v17.9h17.3v-17.9h10.5v46.4h-10.5v-19.3h-17.3v19.3h-10.5v-46.4H343.4z"/>
			<path class="st0" d="M395.4,180.5c-9.8,0-17.4-6.5-17.4-17.3c0-10.9,7.2-17.8,18-17.8c10.3,0,17.1,7.1,17.1,17.3
				C413.2,174.9,404.4,180.5,395.4,180.5L395.4,180.5z M395.7,173c4.1,0,6.7-4.1,6.7-10.1c0-5-1.9-10-6.7-10
				c-4.9,0-6.9,5.1-6.9,10.1C388.8,168.7,391.2,173,395.7,173L395.7,173z"/>
			<path class="st0" d="M431.3,137v9.1h7.5v7.7h-7.5V166c0,4.1,1,5.9,4.1,5.9c1.4,0,2.1-0.1,3.1-0.3l0.1,7.9
				c-1.3,0.5-3.9,0.9-6.7,0.9c-3.4,0-6.2-1.2-7.9-2.9c-1.9-2-2.9-5.2-2.9-10v-13.8h-4.5V146h4.5v-6.3L431.3,137z"/>
			<path class="st0" d="M452.6,166.3c0.3,4.3,4.6,6.4,9.5,6.4c3.6,0,6.5-0.5,9.3-1.5l1.4,7.1c-3.5,1.4-7.6,2.1-12.2,2.1
				c-11.4,0-18-6.6-18-17.1c0-8.5,5.4-18,17-18c10.9,0,15,8.5,15,16.8c0,1.8-0.2,3.4-0.3,4.1L452.6,166.3L452.6,166.3z M464.9,159.1
				c0-2.5-1.1-6.8-5.8-6.8c-4.5,0-6.3,4.1-6.5,6.8H464.9z"/>
			<path class="st0" d="M480.9,130.8h10.5v48.9h-10.5V130.8z"/>
			<path class="st0" d="M517.7,133.4H546v8.6h-17.8v10.6h16.6v8.5h-16.6v18.7h-10.5V133.4z"/>
			<path class="st0" d="M567.3,180.5c-9.8,0-17.4-6.5-17.4-17.3c0-10.9,7.1-17.8,18-17.8c10.3,0,17.1,7.1,17.1,17.3
				C585,174.9,576.3,180.5,567.3,180.5L567.3,180.5z M567.6,173c4.1,0,6.7-4.1,6.7-10.1c0-5-1.9-10-6.7-10c-5,0-6.9,5.1-6.9,10.1
				C560.7,168.7,563.1,173,567.6,173L567.6,173z"/>
			<path class="st0" d="M591.5,157.2c0-5-0.1-8.2-0.3-11.1h8.9l0.4,6.3h0.3c1.7-5,5.8-7,9.1-7c1,0,1.4,0.1,2.2,0.2v9.8
				c-0.8-0.1-1.7-0.3-2.8-0.3c-3.9,0-6.5,2-7.2,5.3c-0.1,0.7-0.2,1.4-0.2,2.3v17h-10.5L591.5,157.2L591.5,157.2z"/>
			<path class="st0" d="M649.4,169c0,4.4,0.1,8,0.3,10.8h-9.1l-0.5-4.7h-0.2c-1.3,2.1-4.5,5.5-10.5,5.5c-6.9,0-11.8-4.3-11.8-14.7
				v-19.8H628v18.1c0,4.9,1.6,7.8,5.3,7.8c2.9,0,4.6-2,5.2-3.6c0.3-0.6,0.4-1.4,0.4-2.3v-20h10.5V169z"/>
			<path class="st0" d="M657.8,156.9c0-4.2-0.1-7.7-0.3-10.7h8.9l0.4,4.6h0.2c1.4-2.2,4.5-5.4,10.2-5.4c4.4,0,7.8,2.3,9.2,5.8h0.1
				c1.3-1.8,2.7-3.2,4.4-4.1c1.9-1,3.9-1.7,6.4-1.7c6.5,0,11.3,4.5,11.3,14.6v19.8h-10.2v-18.2c0-4.9-1.6-7.7-4.9-7.7
				c-2.5,0-4.1,1.7-4.9,3.6c-0.2,0.8-0.3,1.8-0.3,2.6v19.7h-10.2v-18.9c0-4.2-1.5-7.1-4.9-7.1c-2.7,0-4.3,2.1-4.9,3.7
				c-0.3,0.8-0.4,1.8-0.4,2.7v19.5h-10.2v-22.8H657.8z"/>
		</g>
		<g>
			<path class="st1" d="M40.6,114.4L40.6,114.4L40.6,114.4c-8.3,0.1-15.9,2.8-22.3,7.1c2.3-0.8,7.6-2.4,12.4-2s8.4,3.1,7.8,8.6
				c-0.5,4.5-7,12.5-13,19.7c-0.9,1.1-1.8,2-1.8,2.1s0.1,0.2,0.2,0.1c0.5-0.3,1.3-0.9,1.9-1.5c11.9-10.8,19.9-17.4,26.8-17
				c3.9,0.2,5.5,4.2,5.1,8.2c-0.2,1.8-0.7,3.8-1.7,6c-4.2,9.7-5.1,13.4-5.6,16.9c-0.2,1.3,1,1.4,1.3,1.3c0.8-0.1,3-1.2,1.1,0.6
				c-0.8,0.8-2.5,1.3-3.7,1.1c-4.2-0.6-9.4-3.5-9-9.5c0.3-4.4,6.1-13,8.8-18.1c0.4-0.8,0.6-1.4,0.6-1.8c0.1-0.7-0.2-0.9-0.7-1
				c-4.4-0.4-21.1,17-30.5,30.2c-0.6,0.9-0.3,2-1,2.1c-0.2,0-0.4-0.1-0.7-0.2c-3.4-1.8-6.1-6-6.4-10.8c-0.1-1.5,0.4-3.1,1.1-4.6
				c4.7-9.7,19.5-23.2,19.9-28c0.1-1.2-0.3-1.9-2.3-1.9c-1.4,0-4.4,0.9-5.6,1.2C16,125.5,9,131.6,6.2,135.5
				c-4,5.8-6.5,13.2-6.3,21.1c0.4,22.8,19.3,41,42.1,40.6l0,0l0,0c22.8-0.4,41-19.3,40.6-42.1C82.3,132.2,63.4,114,40.6,114.4z"/>
		</g>
	</g>
</g>
</svg>
