<?xml version="1.0" encoding="utf-8"?>
<!-- Generator: Adobe Illustrator 24.2.3, SVG Export Plug-In . SVG Version: 6.00 Build 0)  -->
<svg version="1.1" id="Layer_1" xmlns="http://www.w3.org/2000/svg" xmlns:xlink="http://www.w3.org/1999/xlink" x="0px" y="0px"
	 viewBox="0 0 160 90" style="enable-background:new 0 0 160 90;" xml:space="preserve">
<style type="text/css">
	.st0{fill-rule:evenodd;clip-rule:evenodd;fill:#FFFFFF;}
</style>
<path class="st0" d="M8,22.3C5.6,20.8,3.6,18,3.9,15C4.7,3.8,26,0.6,37.5,0.1c15.5-0.7,36.3,2.3,42.1,10c3.1,4.1,2.2,10.2-0.6,13.9
	c-4.2,5.7-12.2,9.6-20.3,12.7c-8.1,3.1-17.1,5.5-26.2,6c-0.5,0-0.4,0-0.6,0.5c-3.8,8.5-5.5,17.4-10.1,24.7c-2.2,3.5-5,6.9-7.6,10
	c-2,2.4-3.9,5-6.3,7c-2.6,2.2-3.5,1.7-1-0.8c0.6-0.6,1.3-1.2,1.8-1.9c8-10.5,11.1-27.2,18.8-38.6c0.4-0.5,0.4-0.5-0.3-0.6
	c-2.6-0.4-6.2,0.1-7.4-1.7c-0.6-0.9,0-2.3,1-2.6c0.6-0.2,1.6-0.4,1.6,0.6c0,0.3-0.1,0.5-0.3,0.8c-0.4,0.8-0.1,1,0.6,1.2
	c1.5,0.4,3.3,0.4,5.2,0.4c0.5,0,0.6,0,0.9-0.4c3.7-4.4,7-10.2,12.1-12.8c3-1.5,2.2-0.3,0.6,0.6c-3.8,3-6.8,6.9-8.9,11.6
	c-0.3,0.6-0.4,0.6,0.3,0.6C43.7,40,51.5,38,59.6,34.4c6.6-2.9,23.9-12.2,16.4-22.7C70.4,3.8,52.2,1.3,37.8,1.9
	C27.1,2.4,17.7,3.8,11.4,7.7c-3.2,2-6.9,6.5-3.9,10.9s13.3,7.6,20.9,6.4c1.9-0.3,3.3-1.1,3.3-2.4c0-2.2-2.9-2.3-5-3
	c-1-0.3-1.5,0.2-2.4,0.5c-1.2,0.3-2.7,0.3-3.7-0.2c-1-0.6-0.7-1.2,0.2-1.7c1.9-1,5.4-0.3,7.6,0.2c2.7,0.6,5.9,2,6.1,3.9
	c0.3,2.6-3.1,3.9-5.5,4.2c-5.7,0.7-13.7-0.7-17.8-2.5c-0.4-0.2-0.9-0.4-1.5-0.7C9.3,23,8.4,22.5,8,22.3z M66.4,53.1
	c1.4,4.1-1.4,8.2-3.8,10.6c-0.5,0.5-0.4,0.6-0.3,1.3c0.7,3.7,2.5,6.4,6,7.3c1.9,0.5,0.6,0.8-0.5,0.9c-2.2,0.1-4.4-1.5-5.7-3
	c-0.9-1.1-1.4-2.4-1.9-3.6c-0.3-0.7-0.2-0.7-0.8-0.4c-4.5,2.4-10,7.6-16.4,6.1c-5.4-1.2-2.7-15.4,1.6-18.3c0.9-0.6,1.4-0.6,1.7,0.6
	c0.4,1.7-1.1,3.7-1.8,5.6c-1,2.7-2.2,6-1.5,8.8c0.3,1.1,0.6,1,1.6,1.2c5.8,0.9,10.5-2.7,13.8-5.7c0.8-0.7,0.6-0.9,0.6-2
	c-0.2-4.6,0.7-9.3,3.6-10.4C63.9,51.6,65.8,51.6,66.4,53.1L66.4,53.1z M62.5,60.2c0.6-0.9,1.2-1.8,1.3-3.1c0.2-1.6-0.8-1.4-1.4-0.3
	c-0.4,0.9-0.8,2-0.7,3.1C61.8,61.1,61.9,61.2,62.5,60.2L62.5,60.2z M100,51.6c0.2,0.6,0.2,1.1,0.1,1.8s-0.3,0.7,0.6,0.7
	c0.6,0,1.1-0.2,1.6-0.4c1-0.3,1.1-0.2,1.9,0.4c6.7,5,9.9,13.5,22.1,13.1c1.6-0.1,1.4,0.1,1.6-1.4c0.6-5.6,5.1-10.1,10.8-8.7
	c1.6,0.4,3,2.1,2.7,4.5c-0.4,3.7-4.8,5.6-8.1,6.7c-0.8,0.3-0.7,0.2-0.5,1c2.3,7.9,6.5,13.8,13.1,17.3c1.4,0.8,2.9,1.4,4.5,1.9
	c0.9,0.3,1.8,0.6,2.4,0.8c1.1,0.4,1,0.7-1.3,0.6c-2.5-0.1-4.9-1.1-7.1-2.2c-7.1-3.6-12.8-10.2-15.4-17.8c-0.3-0.9-0.3-0.7-1.2-0.7
	c-6.8,0.3-11.4-2.3-15-5.2c-2.7-2.2-4.5-4.7-6.8-6.6c-0.5-0.4-1.1-1.6-2.1-1.9c-0.9-0.3-3.7-0.4-4.1,0.7c-1,2.7-1.5,6.1-3.4,7.5
	c-1.3,1-2.8,0.7-4.1-0.3c-1.6-1.4-3.1-3.9-5.4-4.2c-1.8-0.2-2.6,0.9-4.3,1.4c-0.9,0.2-0.8,0.1-1.3,1c-1.3,2.6-2.7,5.1-5,6.7
	c-0.9,0.7-1.5,0.7-0.8-0.6c0.5-0.9,1.7-1.7,2.3-2.7c0.6-1.1,1-2.3,1.3-3.5c0.7-2.2,0.6-1.9,0-2.8c-0.8-1.1-0.8-2.8,0-3.8
	c0.7-0.9,1.8-1.1,2.6-0.1c0.7,0.9,0.7,2.5,0.4,4c-0.1,0.8-0.3,1,0.6,0.6c1.5-0.7,1.8-2.2,3.5-2.2c2.4,0,3.9,3.1,5.9,4.9
	c1.3,1.2,2.5,1.6,3.7,0c1-1.4,1.2-3.7,1.6-5.7c0.3-1.3,0.5-1-0.1-2.1c-0.1-0.2-0.6-0.4-0.7-0.6c-0.6-1.5-0.5-3.4,0.8-3.7
	C99.1,49.5,99.7,50.4,100,51.6L100,51.6z M133.5,65.5c2.7-1.1,6.4-2,6.6-5.1c0.1-1.1,0-1.3-1.1-1.6c-3.4-1-6.2,1.7-6.5,5
	C132.4,64.8,132.2,66.1,133.5,65.5L133.5,65.5z M53,44.9c-1.3,1.7-4.3,2.5-6.5,1.8c-0.9-0.2-0.9-0.5-0.7-1.4c0.6-2.1,3.8-2.7,6-2.3
	C53.2,43.3,54,43.6,53,44.9L53,44.9z"/>
</svg>
