<?xml version="1.0" encoding="utf-8"?>
<!-- Generator: Adobe Illustrator 24.2.3, SVG Export Plug-In . SVG Version: 6.00 Build 0)  -->
<svg version="1.1" id="Layer_1" xmlns="http://www.w3.org/2000/svg" xmlns:xlink="http://www.w3.org/1999/xlink" x="0px" y="0px"
	 viewBox="0 0 160 90" style="enable-background:new 0 0 160 90;" xml:space="preserve">
<style type="text/css">
	.st0{fill:#FFFFFF;}
</style>
<g>
	<path class="st0" d="M53.9,13.5c0,6.9-5.3,12.2-12.2,12.2h-9.9l1.9-2.8c-2.6-2.2-4.2-5.5-4.2-9.4c0-7,5.3-12.2,12.2-12.2
		C48.6,1.3,53.9,6.5,53.9,13.5 M41.1,4.1c-5,0-10.4,3.6-10.4,9.8c0,3.1,1.4,6.2,3.5,8.2C32.5,11.7,40,15.6,45.8,5.4
		C44.5,4.5,42.8,4.1,41.1,4.1z M41.7,22.3c5.1,0,8.9-3.8,8.9-8.9c0-3.2-1.6-6-4-7.6L34.2,22.3H41.7z"/>
	<path class="st0" d="M63.3,1.8c3.9,0,7,3,7,6.8c0,3.3-2.2,5.7-5.4,6.3l5.7,10.8h-3.9l-7.1-13.3h3.7c2,0,3.6-1.5,3.6-3.6
		c0-2-1.5-3.6-3.6-3.6h-3.7v20.5h-3.4V1.8H63.3"/>
	<path class="st0" d="M71.5,22.7c0-4.6,4.2-7.7,9.9-9.7L77,1.8h3.7L90,25.7h-3.7l-3.7-9.4c-0.1,4.8-1.6,9.4-5.1,9.4h-5.2
		C71.8,24.9,71.5,24,71.5,22.7 M77.5,24.7c3.5,0,4.3-5.9,4.3-10.9c-4.1,1.6-6.7,5-6.7,8C75.1,23.5,76,24.7,77.5,24.7z"/>
	<path class="st0" d="M90.5,22.7c0-4.6,4.2-7.7,9.9-9.7L96.1,1.8h3.7l9.3,23.9h-3.7l-3.7-9.4c-0.1,4.8-1.6,9.4-5.1,9.4h-5.2
		C90.9,24.9,90.5,24,90.5,22.7 M96.6,24.7c3.5,0,4.3-5.9,4.3-10.9c-4.1,1.6-6.7,5-6.7,8C94.1,23.5,95,24.7,96.6,24.7z"/>
	<polyline class="st0" points="110.9,25.7 110.9,1.8 117.9,1.8 124.8,25.7 131.6,1.8 138.6,1.8 138.6,25.7 135.2,25.7 135.2,1.8 
		128.3,25.7 121.2,25.7 114.4,1.8 114.4,25.7 110.9,25.7 	"/>
	<path class="st0" d="M141.5,22.7c0-4.6,4.2-7.7,9.9-9.7L147,1.8h3.7l9.3,23.9h-3.7l-3.7-9.4c-0.1,4.8-1.6,9.4-5.1,9.4h-5.2
		C141.8,24.9,141.5,24,141.5,22.7 M147.5,24.7c3.5,0,4.3-5.9,4.3-10.9c-4.1,1.6-6.7,5-6.7,8C145.1,23.5,146,24.7,147.5,24.7z"/>
	<polyline class="st0" points="0,33 18.5,33 18.5,36.5 3.4,36.5 3.4,43.3 18.5,43.3 18.5,46.7 3.4,46.7 3.4,57 0,57 0,33 	"/>
	<polyline class="st0" points="21.4,57 21.4,33 33.6,33 33.6,36.5 24.8,36.5 24.8,43.3 33.6,43.3 33.6,46.7 24.8,46.7 24.8,53.5 
		33.6,53.5 33.6,57 21.4,57 	"/>
	<path class="st0" d="M37.1,55.3V49c0.3,3,3.4,4.9,6.1,4.9c2.2,0,4.1-1.3,4.1-3.4c0-4.9-10.3-3.5-10.3-11c0-4.2,3.2-6.9,7.5-6.9
		c2.1,0,3.9,0.6,5.3,1.7v6.3c-0.3-2.9-2.7-4.6-5.3-4.6c-2.4,0-4.1,1.2-4.1,3.3c0,5,10.3,4,10.3,11.3c0,4-3.2,6.7-7.5,6.7
		C40.9,57.3,38.7,56.6,37.1,55.3"/>
	<polyline class="st0" points="52.1,33 64.4,33 64.4,36.5 60,36.5 60,57 56.5,57 56.5,36.5 52.1,36.5 52.1,33 	"/>
	<rect x="67" y="33" class="st0" width="3.4" height="23.9"/>
	<polyline class="st0" points="76.4,33 79.8,57 83.2,33 86.7,33 83.3,57 76.4,57 72.9,33 76.4,33 	"/>
	<path class="st0" d="M87.4,54c0-4.6,4.2-7.7,9.9-9.7L92.9,33h3.7l9.3,23.9h-3.7l-3.7-9.4c-0.1,4.8-1.6,9.4-5.1,9.4h-5.2
		C87.7,56.2,87.4,55.2,87.4,54 M93.4,55.9c3.5,0,4.3-5.9,4.3-10.9c-4.1,1.6-6.7,5-6.7,8C91,54.8,91.8,55.9,93.4,55.9z"/>
	<polyline class="st0" points="107.8,33 111.2,33 111.2,53.5 120,53.5 120,57 107.8,57 107.8,33 	"/>
	<path class="st0" d="M42.9,84.8v3.4H30.4v-7.6c5.3-3.5,9.4-6,9.4-9.4c0-2.2-1.7-3.9-4.2-3.9c-2.6,0-5,2-5.3,4.6v-6.3
		c1.5-1.1,3.3-1.7,5.3-1.7c4.3,0,7.6,3.2,7.6,7.4c0,5.8-6.2,9-12.9,13.5L42.9,84.8"/>
	<path class="st0" d="M52.3,63.8c3.8,0,6.8,3,6.8,7v11c0,3.9-3,7-6.8,7c-3.9,0-6.9-3-6.9-7v-11C45.4,66.8,48.4,63.8,52.3,63.8
		 M48.8,81.8c0,2,1.5,3.5,3.4,3.5s3.4-1.5,3.4-3.5V70.7c0-2-1.5-3.5-3.4-3.5s-3.4,1.5-3.4,3.5V81.8z"/>
	<path class="st0" d="M73.7,84.8v3.4H61.1v-7.6c5.3-3.5,9.4-6,9.4-9.4c0-2.2-1.7-3.9-4.2-3.9c-2.6,0-5,2-5.3,4.6v-6.3
		c1.5-1.1,3.3-1.7,5.3-1.7c4.3,0,7.6,3.2,7.6,7.4c0,5.8-6.2,9-12.9,13.5L73.7,84.8"/>
	<path class="st0" d="M83.1,63.8c3.8,0,6.8,3,6.8,7v11c0,3.9-3,7-6.8,7c-3.9,0-6.9-3-6.9-7v-11C76.2,66.8,79.2,63.8,83.1,63.8
		 M79.6,81.8c0,2,1.5,3.5,3.4,3.5s3.4-1.5,3.4-3.5V70.7c0-2-1.5-3.5-3.4-3.5s-3.4,1.5-3.4,3.5V81.8z"/>
</g>
</svg>
