<?xml version="1.0" encoding="utf-8"?>
<!-- Generator: Adobe Illustrator 24.2.3, SVG Export Plug-In . SVG Version: 6.00 Build 0)  -->
<svg version="1.1" id="Layer_1" xmlns="http://www.w3.org/2000/svg" xmlns:xlink="http://www.w3.org/1999/xlink" x="0px" y="0px"
	 viewBox="0 0 160 90" style="enable-background:new 0 0 160 90;" xml:space="preserve">
<style type="text/css">
	.st0{fill:#BBBBBB;}
	.st1{fill-rule:evenodd;clip-rule:evenodd;fill:#FFFFFF;}
	.st2{fill:#FFFFFF;}
</style>
<polygon class="st0" points="46.1,49.2 46.1,39.4 30.7,39.4 30.7,36 46.1,36 46.1,28.6 24.6,28.6 24.6,49.2 "/>
<path class="st1" d="M14.6,21.4v40H18v-40h32.8V36h-20v3.4h20v29.4H3.4V21.4H14.6z M54.1,18H0v54.1h54.1V18z"/>
<polygon class="st2" points="68.6,33.4 68.6,21.4 70.6,21.4 70.6,26.8 74.7,21.4 77.3,21.4 73.6,26 77.4,33.4 75.1,33.4 72.3,27.7 
	70.6,29.8 70.6,33.4 "/>
<path class="st2" d="M80.2,18.6c0.3-0.4,0.8-0.6,1.3-0.6c0.8,0,1.7,0.4,2.5,0.4c0.5,0,1-0.2,1.4-0.6h0.1v1.8
	c-0.3,0.4-0.8,0.6-1.2,0.6c-0.8,0-1.8-0.4-2.6-0.4c-0.5,0-1,0.2-1.3,0.6h-0.1L80.2,18.6z M80,27.4c0,1.8,0.6,4.3,2.8,4.3
	c2.2,0,2.7-2.5,2.7-4.3c0-2.9-1.1-4.3-2.7-4.3C81.2,23.1,80,24.5,80,27.4 M87.7,27.5c0,3.1-1.3,6.1-4.9,6.1c-3.5,0-4.9-3-4.9-6.1
	c0-4.3,2-6.3,4.9-6.3C85.7,21.2,87.7,23.2,87.7,27.5"/>
<path class="st2" d="M93.4,23.3h-1.6v3.5h1.6c1.2,0,1.9-0.5,1.9-1.8S94.7,23.3,93.4,23.3 M91.8,33.4h-2v-12h3.8
	c2.4,0,3.8,1.2,3.8,3.6c0.1,1.4-0.7,2.8-2,3.4l3.1,5.1h-2.4l-2.6-4.8h-1.7C91.8,28.7,91.8,33.4,91.8,33.4z"/>
<path class="st2" d="M106.2,24.8c0-0.5-0.3-1-0.7-1.3c-0.4-0.3-0.9-0.5-1.4-0.4c-1.7,0-2.8,1.3-2.8,4.1c0,1.9,0.5,4.5,2.9,4.5
	c0.8,0,1.5-0.3,2.1-0.8v-2H104V27h4.4v4.6c-1,1.3-2.5,2-4.1,2c-3,0-5-2.4-5-6.2l0,0c0-3.1,1.2-6.2,4.9-6.2c2.7,0,4.2,1.7,4.2,3.6
	C108.4,24.8,106.2,24.8,106.2,24.8z"/>
<polygon class="st2" points="110.8,33.4 110.8,21.4 117.5,21.4 117.5,23.3 112.8,23.3 112.8,26.2 117.1,26.2 117.1,28.1 112.8,28.1 
	112.8,31.6 117.7,31.6 117.7,33.4 "/>
<path class="st2" d="M121.7,33.4h-2v-12h3.4l1.8,7.6c0.1,0.5,0.2,1.1,0.3,1.7l0,0c0.1-0.4,0.2-1.1,0.3-1.7l1.8-7.5h3.4v12.1h-2v-8
	c0-0.6,0-1.2,0.1-1.8l0,0v0.1c-0.1,0.6-0.2,1.1-0.4,1.7l-2,8H124l-2-8c-0.2-0.6-0.3-1.2-0.4-1.8l0,0c0,0.3,0.1,0.9,0.1,1.8V33.4z"/>
<polygon class="st2" points="68.6,51.1 68.6,39 70.6,39 70.6,44.5 74.7,39 77.3,39 73.6,43.7 77.4,51.1 75.1,51.1 72.3,45.4 
	70.6,47.4 70.6,51.1 "/>
<path class="st2" d="M78.3,46.5V39h2v7.5c0,2.1,0.7,2.8,2,2.8c1.2,0,2-0.8,2-2.8V39h2v7.5c0,3.3-1.2,4.8-4,4.8S78.3,49.8,78.3,46.5"
	/>
<path class="st2" d="M94.3,45.9c0.2,0.4,0.5,0.9,0.6,1.2l0,0c0-0.3,0-0.8,0-1.3V39h1.9v12.1h-2l-3.5-6.9c-0.2-0.4-0.5-0.9-0.5-1.2
	h-0.1c0,0.3,0,0.8,0,1.3V51h-1.9V39h2L94.3,45.9z"/>
<path class="st2" d="M104.5,42.4c0-0.5-0.2-0.9-0.5-1.2s-0.8-0.5-1.3-0.4c-1,0-1.7,0.6-1.7,1.3c0,2.4,5.8,0.9,5.8,5.5
	c0,2.4-1.6,3.7-3.9,3.7c-1.1,0.1-2.2-0.3-3-1.1s-1.2-1.9-1.2-3h2c0,0.6,0.2,1.1,0.6,1.5s1,0.6,1.6,0.6c0.5,0,0.9-0.1,1.3-0.4
	c0.4-0.3,0.6-0.8,0.6-1.3c0-2.7-5.8-1.3-5.8-5.4c0-2,1.4-3.4,3.8-3.4c2.3,0,3.8,1.3,3.8,3.5L104.5,42.4z"/>
<polygon class="st2" points="110.3,51.1 110.3,40.9 107.4,40.9 107.4,39 115.3,39 115.3,40.9 112.4,40.9 112.4,51.1 "/>
<rect x="116.8" y="39" class="st2" width="2" height="12.1"/>
<polygon class="st2" points="121.2,51.1 121.2,39 123.3,39 123.3,44.5 127.4,39 130,39 126.3,43.7 130.1,51.1 127.7,51.1 
	124.9,45.4 123.3,47.5 123.3,51.1 "/>
<path class="st2" d="M132.7,45.1c0,1.8,0.6,4.3,2.8,4.3s2.7-2.5,2.7-4.3c0-2.9-1.1-4.3-2.7-4.3C133.8,40.8,132.7,42.1,132.7,45.1
	 M140.3,45.2c0,3.1-1.3,6.1-4.9,6.1c-3.5,0-4.9-3-4.9-6.1c0-4.3,2-6.3,4.9-6.3C138.3,38.8,140.3,40.8,140.3,45.2"/>
<path class="st2" d="M144,45.1c0,1.8,0.6,4.3,2.8,4.3s2.7-2.5,2.7-4.3c0-2.9-1.1-4.3-2.7-4.3C145.2,40.8,144,42.1,144,45.1
	 M151.7,45.2c0,3.1-1.3,6.1-4.9,6.1c-3.5,0-4.9-3-4.9-6.1c0-4.3,2-6.3,4.9-6.3C149.7,38.8,151.7,40.8,151.7,45.2"/>
<polygon class="st2" points="153.8,51.1 153.8,39 155.8,39 155.8,49.2 160,49.2 160,51.1 "/>
<path class="st2" d="M70.6,58.6v3.6h1.7c1.2,0,1.9-0.6,1.9-1.9c0-1.3-0.6-1.8-1.9-1.8L70.6,58.6z M70.6,68.8h-2V56.7h3.9
	c2.4,0,3.8,1.3,3.8,3.7c0.1,1-0.3,2.1-1,2.8s-1.8,1.1-2.8,1h-1.8L70.6,68.8L70.6,68.8z"/>
<path class="st2" d="M79.5,64.3h3l-1.2-4c-0.1-0.4-0.2-0.7-0.3-1.1l0,0c-0.1,0.4-0.1,0.7-0.3,1.1L79.5,64.3z M83.1,66.2H79l-0.8,2.5
	h-2.1L80,56.6h2.2l4,12.1H84L83.1,66.2z"/>
<polygon class="st2" points="87.4,68.8 87.4,56.7 89.5,56.7 89.5,66.9 93.7,66.9 93.7,68.8 "/>
<polygon class="st2" points="95.4,68.8 95.4,56.7 97.4,56.7 97.4,66.9 101.6,66.9 101.6,68.8 "/>
<path class="st2" d="M105.7,64.3h3l-1.2-4c-0.1-0.4-0.2-0.7-0.3-1.1l0,0c-0.1,0.4-0.1,0.7-0.3,1.1L105.7,64.3z M109.3,66.2h-4.1
	l-0.8,2.5h-2.1l3.9-12.1h2.2l4,12.1h-2.2L109.3,66.2z"/>
<path class="st2" d="M119.1,60c0-0.5-0.2-0.9-0.5-1.2s-0.8-0.5-1.3-0.4c-1,0-1.7,0.6-1.7,1.3c0,2.4,5.8,0.9,5.8,5.5
	c0,2.4-1.5,3.7-3.9,3.7c-1.1,0.1-2.2-0.3-3-1.1c-0.8-0.8-1.2-1.9-1.2-3h2c0,0.6,0.2,1.1,0.6,1.5s1,0.6,1.6,0.6
	c0.5,0,0.9-0.1,1.3-0.4s0.6-0.8,0.6-1.3c0-2.7-5.8-1.3-5.8-5.4c0-2,1.4-3.4,3.8-3.4c2.3,0,3.8,1.3,3.8,3.5L119.1,60z"/>
</svg>
