<?xml version="1.0" encoding="utf-8"?>
<!-- Generator: Adobe Illustrator 24.2.3, SVG Export Plug-In . SVG Version: 6.00 Build 0)  -->
<svg version="1.1" id="Layer_1" xmlns="http://www.w3.org/2000/svg" xmlns:xlink="http://www.w3.org/1999/xlink" x="0px" y="0px"
	 viewBox="0 0 160 90" style="enable-background:new 0 0 160 90;" xml:space="preserve">
<style type="text/css">
	.st0{fill:#FFFFFF;}
</style>
<g>
	<path class="st0" d="M51.9,70.2c0.8,0.8,2,1.2,3.6,1.2c1.1,0,2.1-0.3,2.9-0.8c0.8-0.6,1.3-1.1,1.5-1.8h4.9c-0.8,2.4-2,4.1-3.6,5.2
		c-1.6,1-3.6,1.6-5.8,1.6c-1.6,0-3-0.3-4.3-0.8s-2.3-1.2-3.2-2.2c-0.9-0.9-1.6-2-2-3.3c-0.5-1.3-0.7-2.7-0.7-4.3
		c0-1.5,0.2-2.9,0.7-4.2s1.2-2.4,2.1-3.4c0.9-0.9,2-1.7,3.2-2.2c1.3-0.5,2.7-0.8,4.2-0.8c1.7,0,3.2,0.3,4.5,1s2.3,1.5,3.1,2.7
		c0.8,1.1,1.4,2.4,1.8,3.8c0.4,1.4,0.5,2.9,0.4,4.5H50.6C50.7,68.1,51.1,69.4,51.9,70.2 M58.2,59.7c-0.7-0.7-1.7-1.1-3-1.1
		c-0.9,0-1.6,0.1-2.2,0.4c-0.6,0.3-1,0.7-1.4,1.1c-0.3,0.4-0.6,0.9-0.7,1.4c-0.1,0.5-0.2,0.9-0.3,1.3h9
		C59.3,61.4,58.9,60.4,58.2,59.7"/>
	<polygon class="st0" points="72.8,54.9 72.8,62.2 79.7,54.9 86.3,54.9 78.7,62.3 87.1,75 80.4,75 74.9,66.1 72.8,68.1 72.8,75 
		67.2,75 67.2,54.9 	"/>
	<path class="st0" d="M99.6,54.9v3.7h-4v10c0,0.9,0.2,1.6,0.5,1.9S97,71,98,71c0.3,0,0.6,0,0.9,0s0.6-0.1,0.8-0.1V75
		c-0.5,0.1-1,0.1-1.6,0.2c-0.6,0-1.1,0-1.7,0c-0.9,0-1.7-0.1-2.4-0.2c-0.8-0.1-1.4-0.3-2-0.7c-0.6-0.3-1-0.8-1.4-1.4
		c-0.3-0.6-0.5-1.4-0.5-2.5V58.6h-3.3v-3.7H90v-6h5.5v6C95.5,54.9,99.6,54.9,99.6,54.9z"/>
	<path class="st0" d="M100.6,60.6c0.5-1.3,1.2-2.4,2.1-3.3c0.9-0.9,2-1.6,3.3-2.1s2.7-0.8,4.3-0.8c1.6,0,3,0.3,4.3,0.8
		s2.4,1.2,3.3,2.1c0.9,0.9,1.6,2,2.1,3.3s0.7,2.8,0.7,4.4c0,1.6-0.2,3.1-0.7,4.4s-1.2,2.4-2.1,3.3s-2,1.6-3.3,2.1s-2.7,0.7-4.3,0.7
		c-1.6,0-3-0.2-4.3-0.7s-2.4-1.2-3.3-2.1s-1.6-2-2.1-3.3s-0.7-2.7-0.7-4.4C99.8,63.4,100.1,62,100.6,60.6 M105.6,67.4
		c0.2,0.8,0.4,1.5,0.8,2.1s0.9,1.1,1.5,1.5s1.4,0.5,2.3,0.5s1.7-0.2,2.4-0.5c0.6-0.4,1.1-0.8,1.5-1.5c0.4-0.6,0.6-1.3,0.8-2.1
		c0.2-0.8,0.2-1.5,0.2-2.4c0-0.8-0.1-1.6-0.2-2.4c-0.2-0.8-0.4-1.5-0.8-2.1s-0.9-1.1-1.5-1.5s-1.4-0.6-2.4-0.6
		c-0.9,0-1.7,0.2-2.3,0.6c-0.6,0.4-1.1,0.9-1.5,1.5s-0.6,1.3-0.8,2.1c-0.2,0.8-0.2,1.6-0.2,2.4S105.4,66.6,105.6,67.4"/>
	<path class="st0" d="M128,54.9v3.7h0.1c0.3-0.6,0.6-1.2,1-1.7s0.9-1,1.5-1.4s1.2-0.7,1.8-0.9s1.3-0.3,2-0.3c0.4,0,0.8,0.1,1.2,0.2
		v5.1c-0.3-0.1-0.6-0.1-0.9-0.1c-0.4,0-0.7-0.1-1.1-0.1c-1,0-1.9,0.2-2.6,0.5c-0.7,0.3-1.3,0.8-1.7,1.4c-0.4,0.6-0.7,1.3-0.9,2
		c-0.2,0.8-0.3,1.6-0.3,2.5V75h-5.5V54.9H128z"/>
	<polygon class="st0" points="29.9,62.8 29.9,57.7 29.9,54.9 24.3,54.9 24.3,75 29.9,75 29.9,71.7 29.9,66.3 37.7,66.3 37.7,75 
		43.2,75 43.2,71.7 43.2,64.5 43.2,62.8 37.7,62.8 	"/>
	<polygon class="st0" points="37.7,54.9 37.7,57.3 43.2,62.8 43.2,57.7 43.2,54.9 	"/>
	<path class="st0" d="M55.2,87.8c-0.1,0.2-0.3,0.4-0.6,0.5c-0.2,0.1-0.5,0.2-0.8,0.2s-0.6-0.1-0.9-0.2c-0.3-0.1-0.5-0.3-0.6-0.5
		C52.2,87.5,52,87.2,52,87c-0.1-0.3-0.1-0.6-0.1-0.9s0-0.6,0.1-0.9s0.2-0.5,0.4-0.7s0.4-0.4,0.6-0.5c0.2-0.1,0.5-0.2,0.9-0.2
		c0.3,0,0.5,0.1,0.8,0.2c0.2,0.1,0.4,0.3,0.6,0.5l0,0v-2.2h1.2v6.1h-1.2L55.2,87.8L55.2,87.8z M55.1,85.6c0-0.2-0.1-0.3-0.2-0.4
		c-0.1-0.1-0.2-0.2-0.3-0.3c-0.1-0.1-0.3-0.1-0.5-0.1s-0.4,0-0.5,0.1s-0.2,0.2-0.3,0.3c-0.1,0.1-0.1,0.3-0.2,0.5
		c0,0.2-0.1,0.3-0.1,0.5s0,0.3,0.1,0.5c0,0.2,0.1,0.3,0.2,0.5c0.1,0.1,0.2,0.2,0.3,0.3c0.1,0.1,0.3,0.1,0.5,0.1s0.4,0,0.5-0.1
		s0.2-0.2,0.3-0.3c0.1-0.1,0.1-0.3,0.2-0.5c0-0.2,0.1-0.3,0.1-0.5C55.2,85.9,55.2,85.7,55.1,85.6"/>
	<path class="st0" d="M58.4,87.3c0.2,0.2,0.4,0.3,0.8,0.3c0.2,0,0.5-0.1,0.6-0.2c0.2-0.1,0.3-0.3,0.3-0.4h1.1
		c-0.2,0.5-0.4,0.9-0.8,1.1c-0.4,0.2-0.8,0.3-1.3,0.3c-0.3,0-0.7-0.1-0.9-0.2c-0.3-0.1-0.5-0.3-0.7-0.5S57.2,87.2,57,87
		c-0.1-0.3-0.2-0.6-0.2-0.9s0.1-0.6,0.2-0.9c0.1-0.3,0.3-0.5,0.5-0.7s0.4-0.4,0.7-0.5s0.6-0.2,0.9-0.2c0.4,0,0.7,0.1,1,0.2
		s0.5,0.3,0.7,0.6c0.2,0.2,0.3,0.5,0.4,0.8c0.1,0.3,0.1,0.6,0.1,1h-3.2C58.1,86.8,58.2,87.1,58.4,87.3 M59.8,84.9
		c-0.1-0.2-0.4-0.2-0.7-0.2c-0.2,0-0.4,0-0.5,0.1s-0.2,0.1-0.3,0.2s-0.1,0.2-0.2,0.3c0,0.1-0.1,0.2-0.1,0.3h2
		C60,85.3,59.9,85.1,59.8,84.9"/>
	<path class="st0" d="M62.8,87.2c0.1,0.1,0.1,0.2,0.2,0.2c0.1,0.1,0.2,0.1,0.3,0.1s0.2,0,0.3,0s0.2,0,0.3,0s0.2-0.1,0.3-0.1
		s0.1-0.1,0.2-0.2s0.1-0.2,0.1-0.3c0-0.2-0.1-0.3-0.4-0.4c-0.2-0.1-0.6-0.2-1-0.3c-0.2,0-0.4-0.1-0.5-0.1c-0.2-0.1-0.3-0.1-0.5-0.2
		c-0.1-0.1-0.2-0.2-0.3-0.3c-0.1-0.1-0.1-0.3-0.1-0.5c0-0.3,0.1-0.5,0.2-0.7c0.1-0.2,0.3-0.3,0.4-0.4c0.2-0.1,0.4-0.2,0.6-0.2
		c0.2,0,0.5-0.1,0.7-0.1s0.5,0,0.7,0.1c0.2,0,0.4,0.1,0.6,0.2s0.3,0.3,0.4,0.4c0.1,0.2,0.2,0.4,0.2,0.7h-1.2c0-0.2-0.1-0.4-0.3-0.5
		s-0.3-0.1-0.6-0.1c-0.1,0-0.1,0-0.2,0c-0.1,0-0.2,0-0.2,0.1c-0.1,0-0.1,0.1-0.2,0.1c0,0.1-0.1,0.1-0.1,0.2s0,0.2,0.1,0.3
		c0.1,0.1,0.2,0.1,0.3,0.2c0.1,0,0.3,0.1,0.4,0.1c0.2,0,0.3,0.1,0.5,0.1s0.4,0.1,0.5,0.1c0.2,0.1,0.3,0.1,0.5,0.2
		c0.1,0.1,0.2,0.2,0.3,0.4c0.1,0.1,0.1,0.3,0.1,0.5c0,0.3-0.1,0.5-0.2,0.7s-0.3,0.4-0.5,0.5s-0.4,0.2-0.6,0.3
		c-0.2,0-0.5,0.1-0.7,0.1c-0.3,0-0.5,0-0.8-0.1c-0.2-0.1-0.5-0.1-0.7-0.3c-0.2-0.1-0.4-0.3-0.5-0.5s-0.2-0.4-0.2-0.7h1.2
		C62.8,87,62.8,87.1,62.8,87.2"/>
	<path class="st0" d="M66.3,82.2h1.2v1h-1.2V82.2z M67.5,88.3h-1.2v-4.4h1.2V88.3z"/>
	<path class="st0" d="M72.5,88.6c0,0.2-0.2,0.4-0.3,0.6c-0.2,0.2-0.4,0.4-0.7,0.5c-0.3,0.1-0.7,0.2-1.2,0.2c-0.2,0-0.4,0-0.7-0.1
		c-0.2-0.1-0.4-0.1-0.6-0.3c-0.2-0.1-0.3-0.3-0.5-0.4c-0.1-0.2-0.2-0.4-0.2-0.6h1.2c0.1,0.2,0.2,0.4,0.3,0.5
		c0.2,0.1,0.4,0.1,0.6,0.1c0.3,0,0.6-0.1,0.8-0.3c0.2-0.2,0.2-0.5,0.2-0.8v-0.6l0,0c-0.1,0.2-0.3,0.4-0.6,0.5
		c-0.2,0.1-0.5,0.2-0.8,0.2s-0.6-0.1-0.9-0.2c-0.2-0.1-0.4-0.3-0.6-0.5s-0.3-0.4-0.3-0.7c-0.1-0.3-0.1-0.6-0.1-0.9s0-0.6,0.1-0.8
		c0.1-0.3,0.2-0.5,0.4-0.7c0.2-0.2,0.4-0.4,0.6-0.5s0.5-0.2,0.8-0.2s0.5,0.1,0.8,0.2c0.2,0.1,0.4,0.3,0.6,0.6l0,0v-0.6h1.2V88
		C72.5,88.2,72.5,88.4,72.5,88.6 M70.8,87.2c0.1-0.1,0.2-0.2,0.3-0.3c0.1-0.1,0.2-0.2,0.2-0.4c0-0.1,0.1-0.3,0.1-0.5s0-0.4-0.1-0.5
		c0-0.2-0.1-0.3-0.2-0.4s-0.2-0.2-0.3-0.3c-0.1-0.1-0.3-0.1-0.5-0.1s-0.3,0-0.4,0.1s-0.2,0.2-0.3,0.3c-0.1,0.1-0.1,0.3-0.2,0.4
		c0,0.2-0.1,0.3-0.1,0.5s0,0.3,0,0.5s0.1,0.3,0.2,0.4s0.2,0.2,0.3,0.3c0.1,0.1,0.3,0.1,0.5,0.1C70.5,87.3,70.7,87.2,70.8,87.2"/>
	<path class="st0" d="M74.5,83.9v0.6l0,0c0.2-0.3,0.4-0.4,0.6-0.6c0.2-0.1,0.5-0.2,0.8-0.2s0.6,0,0.8,0.1c0.2,0.1,0.4,0.2,0.5,0.4
		c0.1,0.2,0.2,0.3,0.3,0.6c0,0.2,0.1,0.5,0.1,0.8v2.7h-1.2v-2.5c0-0.4-0.1-0.6-0.2-0.8c-0.1-0.2-0.3-0.3-0.6-0.3
		c-0.3,0-0.6,0.1-0.7,0.3c-0.2,0.2-0.2,0.5-0.2,1v2.3h-1.2v-4.4H74.5z"/>
	<path class="st0" d="M81.6,82.2v2.3l0,0c0.2-0.3,0.4-0.4,0.6-0.6c0.2-0.1,0.5-0.2,0.7-0.2c0.3,0,0.6,0,0.8,0.1
		c0.2,0.1,0.4,0.2,0.5,0.4c0.1,0.2,0.2,0.3,0.3,0.6c0,0.2,0.1,0.5,0.1,0.8v2.7h-1.2v-2.5c0-0.4-0.1-0.6-0.2-0.8
		c-0.1-0.2-0.3-0.3-0.6-0.3c-0.3,0-0.6,0.1-0.7,0.3c-0.2,0.2-0.2,0.5-0.2,1v2.3h-1.2v-6.1C80.5,82.2,81.6,82.2,81.6,82.2z"/>
	<path class="st0" d="M85.3,85.1c0.1-0.3,0.3-0.5,0.5-0.7s0.4-0.4,0.7-0.5c0.3-0.1,0.6-0.2,0.9-0.2s0.7,0.1,1,0.2s0.5,0.3,0.7,0.5
		s0.4,0.5,0.5,0.7c0.1,0.3,0.2,0.6,0.2,1s-0.1,0.7-0.2,1s-0.3,0.5-0.5,0.7s-0.4,0.4-0.7,0.5c-0.3,0.1-0.6,0.2-1,0.2
		c-0.3,0-0.7-0.1-0.9-0.2c-0.3-0.1-0.5-0.3-0.7-0.5s-0.4-0.4-0.5-0.7c-0.1-0.3-0.2-0.6-0.2-1C85.1,85.7,85.2,85.4,85.3,85.1
		 M86.4,86.6c0,0.2,0.1,0.3,0.2,0.5c0.1,0.1,0.2,0.2,0.3,0.3c0.1,0.1,0.3,0.1,0.5,0.1s0.4,0,0.5-0.1s0.3-0.2,0.3-0.3
		c0.1-0.1,0.1-0.3,0.2-0.5c0-0.2,0.1-0.3,0.1-0.5s0-0.4-0.1-0.5c0-0.2-0.1-0.3-0.2-0.5c-0.1-0.1-0.2-0.2-0.3-0.3
		c-0.1-0.1-0.3-0.1-0.5-0.1s-0.4,0-0.5,0.1s-0.2,0.2-0.3,0.3c-0.1,0.1-0.1,0.3-0.2,0.5c0,0.2-0.1,0.3-0.1,0.5
		C86.3,86.3,86.3,86.5,86.4,86.6"/>
	<path class="st0" d="M91.3,87.2c0.1,0.1,0.1,0.2,0.2,0.2c0.1,0.1,0.2,0.1,0.3,0.1c0.1,0,0.2,0,0.3,0c0.1,0,0.2,0,0.3,0
		c0.1,0,0.2-0.1,0.3-0.1c0.1,0,0.1-0.1,0.2-0.2S93,87,93,86.9c0-0.2-0.1-0.3-0.4-0.4c-0.2-0.1-0.6-0.2-1-0.3c-0.2,0-0.4-0.1-0.5-0.1
		c-0.2-0.1-0.3-0.1-0.5-0.2c-0.1-0.1-0.2-0.2-0.3-0.3c-0.1-0.1-0.1-0.3-0.1-0.5c0-0.3,0.1-0.5,0.2-0.7s0.3-0.3,0.4-0.4
		c0.2-0.1,0.4-0.2,0.6-0.2s0.5-0.1,0.7-0.1s0.5,0,0.7,0.1c0.2,0,0.4,0.1,0.6,0.2s0.3,0.3,0.4,0.4c0.1,0.2,0.2,0.4,0.2,0.7h-1.2
		c0-0.2-0.1-0.4-0.3-0.5c-0.2-0.1-0.3-0.1-0.6-0.1c-0.1,0-0.1,0-0.2,0s-0.2,0-0.2,0.1c-0.1,0-0.1,0.1-0.2,0.1c0,0.1-0.1,0.1-0.1,0.2
		s0,0.2,0.1,0.3c0.1,0.1,0.2,0.1,0.3,0.2c0.1,0,0.3,0.1,0.4,0.1c0.2,0,0.3,0.1,0.5,0.1s0.4,0.1,0.5,0.1c0.2,0.1,0.3,0.1,0.5,0.2
		c0.1,0.1,0.2,0.2,0.3,0.4c0.1,0.1,0.1,0.3,0.1,0.5c0,0.3-0.1,0.5-0.2,0.7s-0.3,0.4-0.5,0.5s-0.4,0.2-0.6,0.3
		c-0.2,0-0.5,0.1-0.7,0.1c-0.3,0-0.5,0-0.8-0.1c-0.2-0.1-0.5-0.1-0.7-0.3c-0.2-0.1-0.3-0.3-0.5-0.5c-0.1-0.2-0.2-0.4-0.2-0.7h1.2
		C91.2,87,91.2,87.1,91.3,87.2"/>
	<path class="st0" d="M97.2,83.9v0.8h-0.9v2.2c0,0.2,0,0.3,0.1,0.4s0.2,0.1,0.4,0.1c0.1,0,0.1,0,0.2,0s0.1,0,0.2,0v0.9
		c-0.1,0-0.2,0-0.3,0c-0.1,0-0.3,0-0.4,0c-0.2,0-0.4,0-0.5,0c-0.2,0-0.3-0.1-0.4-0.2s-0.2-0.2-0.3-0.3c-0.1-0.1-0.1-0.3-0.1-0.5
		v-2.6h-0.7v-0.8H95v-1.3h1.2v1.3H97.2z"/>
	<path class="st0" d="M98.8,87.3c0.2,0.2,0.4,0.3,0.8,0.3c0.2,0,0.5-0.1,0.6-0.2c0.2-0.1,0.3-0.3,0.3-0.4h1.1
		c-0.2,0.5-0.4,0.9-0.8,1.1s-0.8,0.3-1.3,0.3c-0.3,0-0.7-0.1-0.9-0.2c-0.3-0.1-0.5-0.3-0.7-0.5s-0.3-0.5-0.5-0.7
		c-0.1-0.3-0.2-0.6-0.2-0.9s0.1-0.6,0.2-0.9s0.3-0.5,0.5-0.7s0.4-0.4,0.7-0.5c0.3-0.1,0.6-0.2,0.9-0.2c0.4,0,0.7,0.1,1,0.2
		s0.5,0.3,0.7,0.6c0.2,0.2,0.3,0.5,0.4,0.8s0.1,0.6,0.1,1h-3.2C98.5,86.8,98.6,87.1,98.8,87.3 M100.2,84.9c-0.1-0.2-0.4-0.2-0.7-0.2
		c-0.2,0-0.4,0-0.5,0.1s-0.2,0.1-0.3,0.2c-0.1,0.1-0.1,0.2-0.2,0.3c0,0.1-0.1,0.2-0.1,0.3h2C100.4,85.3,100.3,85.1,100.2,84.9"/>
	<rect x="102.3" y="82.2" class="st0" width="1.2" height="6.1"/>
	<path class="st0" d="M105.3,87.2c0.1,0.1,0.1,0.2,0.2,0.2c0.1,0.1,0.2,0.1,0.3,0.1c0.1,0,0.2,0,0.3,0c0.1,0,0.2,0,0.3,0
		c0.1,0,0.2-0.1,0.3-0.1c0.1,0,0.1-0.1,0.2-0.2s0.1-0.2,0.1-0.3c0-0.2-0.1-0.3-0.4-0.4c-0.2-0.1-0.6-0.2-1-0.3
		c-0.2,0-0.4-0.1-0.5-0.1c-0.2-0.1-0.3-0.1-0.5-0.2c-0.1-0.1-0.2-0.2-0.3-0.3c-0.1-0.1-0.1-0.3-0.1-0.5c0-0.3,0.1-0.5,0.2-0.7
		s0.3-0.3,0.4-0.4c0.2-0.1,0.4-0.2,0.6-0.2s0.5-0.1,0.7-0.1s0.5,0,0.7,0.1c0.2,0,0.4,0.1,0.6,0.2s0.3,0.3,0.4,0.4
		c0.1,0.2,0.2,0.4,0.2,0.7h-1.2c0-0.2-0.1-0.4-0.3-0.5c-0.2-0.1-0.3-0.1-0.6-0.1c-0.1,0-0.1,0-0.2,0s-0.2,0-0.2,0.1
		c-0.1,0-0.1,0.1-0.2,0.1c0,0.1-0.1,0.1-0.1,0.2s0,0.2,0.1,0.3c0.1,0.1,0.2,0.1,0.3,0.2c0.1,0,0.3,0.1,0.4,0.1
		c0.2,0,0.3,0.1,0.5,0.1s0.4,0.1,0.5,0.1c0.2,0.1,0.3,0.1,0.5,0.2c0.1,0.1,0.2,0.2,0.3,0.4c0.1,0.1,0.1,0.3,0.1,0.5
		c0,0.3-0.1,0.5-0.2,0.7s-0.3,0.4-0.5,0.5s-0.4,0.2-0.6,0.3c-0.2,0-0.5,0.1-0.7,0.1c-0.3,0-0.5,0-0.8-0.1c-0.2-0.1-0.5-0.1-0.7-0.3
		c-0.2-0.1-0.3-0.3-0.5-0.5c-0.1-0.2-0.2-0.4-0.2-0.7h1.2C105.2,87,105.2,87.1,105.3,87.2"/>
	<path class="st0" d="M63.3,33.4h33.4V0H63.3V33.4z M89.4,14.5v12.2h-5.5V18h-7.8v8.7h-5.5V6.6h5.5v7.9H89.4L83.9,9V6.6h5.5V14.5z"
		/>
</g>
</svg>
