<?xml version="1.0" encoding="utf-8"?>
<!-- Generator: Adobe Illustrator 24.2.3, SVG Export Plug-In . SVG Version: 6.00 Build 0)  -->
<svg version="1.1" id="Layer_1" xmlns="http://www.w3.org/2000/svg" xmlns:xlink="http://www.w3.org/1999/xlink" x="0px" y="0px"
	 viewBox="0 0 160 90" style="enable-background:new 0 0 160 90;" xml:space="preserve">
<style type="text/css">
	.st0{fill-rule:evenodd;clip-rule:evenodd;fill:#FFFFFF;}
	.st1{fill:#FFFFFF;}
</style>
<g>
	<path class="st0" d="M79.9,80.4c0-5.3,4.3-9.6,9.6-9.6c5.3,0,9.6,4.3,9.6,9.6c0,5.3-4.3,9.6-9.6,9.6C84.2,90,79.9,85.7,79.9,80.4
		 M89.5,86.5c3,0,5.4-2.7,5.4-6.1s-2.4-6.1-5.4-6.1s-5.4,2.7-5.4,6.1C84.2,83.7,86.6,86.5,89.5,86.5"/>
	<polygon class="st0" points="110.1,74.8 110.1,89.6 106,89.6 106,74.8 106.1,74.8 100.4,74.8 100.4,71.4 115.8,71.4 115.8,74.8 	
		"/>
	<path class="st0" d="M120.7,85.5L120.7,85.5l-1.6,4.1h-4.7l7.5-18.2h2.5h2.5l7.5,18.2h-4.7l-1.6-4.1l0,0h-3.7
		C124.4,85.5,120.7,85.5,120.7,85.5z M124.4,82.4h2.6l0,0l-2.5-6.6l0,0l-2.5,6.6l0,0H124.4z"/>
	<polygon class="st0" points="35.3,74.8 35.3,89.6 31.3,89.6 31.3,74.8 31.3,74.8 25.6,74.8 25.6,71.4 41,71.4 41,74.8 	"/>
	<path class="st0" d="M42,80.4c0-5.3,4.3-9.6,9.6-9.6s9.6,4.3,9.6,9.6c0,5.3-4.3,9.6-9.6,9.6S42,85.7,42,80.4 M51.6,86.5
		c3,0,5.4-2.7,5.4-6.1s-2.4-6.1-5.4-6.1s-5.4,2.7-5.4,6.1C46.3,83.7,48.7,86.5,51.6,86.5"/>
	<polygon class="st0" points="70.6,89.6 72.7,89.6 72.7,82.8 72.7,82.7 79.7,71.4 75,71.4 70.6,79 66.2,71.4 61.5,71.4 68.5,82.7 
		68.5,82.8 68.5,89.6 	"/>
	<path class="st1" d="M113.2,8.9C104.8,3.2,93,0,80,0S55.2,3.2,46.8,8.9c-8.4,5.8-13,13.9-13,22.8s4.8,17,13.6,22.8
		c8.6,5.7,20.1,8.9,32.6,8.9s24-3.2,32.6-8.9c8.8-5.9,13.6-14,13.6-22.8C126.2,22.7,121.6,14.6,113.2,8.9 M107.3,15.5
		c0,1.1-0.7,2.1-2,3c-2.6,1.7-7.1,3-12.9,3.8l0,0c-0.3,0-0.4-0.1-0.5-0.3c-0.9-6.2-2.7-11.3-5.1-14.6l0,0c0,0,0,0,0-0.1l0,0
		c-0.3-0.4-0.1-0.6,0.3-0.5C98.7,8,107.3,12.3,107.3,15.5 M80,14c1.8,0,3.5,3.4,4.4,8.5c0,0.2,0,0.4-0.3,0.4l0,0
		c-1.3,0-2.7,0.1-4,0.1c-1.4,0-2.7,0-4.1-0.1c-0.3,0-0.3-0.2-0.3-0.4C76.5,17.4,78.2,14,80,14 M73.1,6.7c0.4,0,0.6,0.1,0.3,0.5l0,0
		c-2.5,3.3-4.4,8.5-5.3,14.6l0,0c0,0.2-0.2,0.4-0.5,0.3c-5.8-0.8-10.5-2.1-13-3.8c-1.2-0.8-1.9-1.9-1.9-2.9
		C52.7,12.3,61.3,8,73.1,6.7 M42.5,31.6c0-3,0.7-6,2-8.9c0.2-0.3,0.4-0.2,0.5,0l0,0c3.3,4.5,11.3,8,21.9,9.5l0,0
		c0.2,0,0.4,0.1,0.4,0.4c0,0,0,0,0,0.1c0.2,9.7,2.5,18.4,6,23.3l0,0c0.2,0.3,0.1,0.5-0.3,0.4c-8.4-1-16.1-3.9-21.6-8.3
		C45.7,43.6,42.5,37.7,42.5,31.6 M80,46.6c-2.3,0-4.4-5.9-4.9-13.3c0-0.2,0.1-0.4,0.4-0.4l0,0C77,33,78.5,33,80,33s3,0,4.5-0.1l0,0
		c0.2,0,0.4,0.1,0.4,0.4C84.4,40.7,82.3,46.6,80,46.6 M108.5,48.2c-5.6,4.4-13.2,7.3-21.6,8.3l0,0c-0.5,0.1-0.5-0.2-0.3-0.4l0,0
		c3.5-4.9,5.8-13.6,6-23.3c0,0,0,0,0-0.1c0-0.3,0.2-0.4,0.4-0.4l0,0c10.6-1.5,18.6-5,21.9-9.5l0,0c0.2-0.2,0.4-0.3,0.5,0
		c1.4,2.9,2,5.9,2,8.9C117.5,37.7,114.3,43.6,108.5,48.2"/>
</g>
</svg>
