<?xml version="1.0" encoding="utf-8"?>
<!-- Generator: Adobe Illustrator 24.2.3, SVG Export Plug-In . SVG Version: 6.00 Build 0)  -->
<svg version="1.1" id="Layer_1" xmlns="http://www.w3.org/2000/svg" xmlns:xlink="http://www.w3.org/1999/xlink" x="0px" y="0px"
	 viewBox="0 0 150 100" style="enable-background:new 0 0 150 100;" xml:space="preserve">
<style type="text/css">
	.st0{fill:#FFFFFF;}
</style>
<g>
	<path class="st0" d="M49.8,72.7c0.7,0.7,1.8,1.1,3.2,1.1c1,0,1.9-0.3,2.6-0.8c0.7-0.5,1.2-1,1.3-1.6h4.4c-0.7,2.2-1.8,3.7-3.2,4.6
		s-3.2,1.4-5.2,1.4c-1.4,0-2.7-0.2-3.8-0.7s-2.1-1.1-2.9-1.9c-0.8-0.8-1.4-1.8-1.8-3c-0.4-1.2-0.6-2.4-0.6-3.8
		c0-1.3,0.2-2.6,0.7-3.8c0.4-1.2,1.1-2.2,1.9-3c0.8-0.8,1.8-1.5,2.9-2c1.1-0.5,2.4-0.7,3.8-0.7c1.5,0,2.9,0.3,4,0.9
		c1.1,0.6,2.1,1.4,2.8,2.4s1.3,2.1,1.6,3.4c0.3,1.3,0.4,2.6,0.3,4h-13C48.6,70.8,49.1,71.9,49.8,72.7 M55.4,63.2
		c-0.6-0.7-1.5-1-2.7-1c-0.8,0-1.5,0.1-2,0.4c-0.5,0.3-0.9,0.6-1.3,1c-0.3,0.4-0.5,0.8-0.7,1.3c-0.1,0.4-0.2,0.8-0.2,1.2h8.1
		C56.4,64.8,56,63.8,55.4,63.2"/>
	<polygon class="st0" points="68.5,58.9 68.5,65.4 74.7,58.9 80.6,58.9 73.8,65.6 81.4,77 75.4,77 70.4,68.9 68.5,70.8 68.5,77 
		63.5,77 63.5,58.9 	"/>
	<path class="st0" d="M92.6,58.9v3.3H89v8.9c0,0.8,0.1,1.4,0.4,1.7c0.3,0.3,0.8,0.4,1.7,0.4c0.3,0,0.5,0,0.8,0s0.5-0.1,0.7-0.1V77
		c-0.4,0.1-0.9,0.1-1.4,0.1s-1,0-1.5,0c-0.8,0-1.5-0.1-2.2-0.2s-1.3-0.3-1.8-0.6c-0.5-0.3-0.9-0.7-1.2-1.3c-0.3-0.6-0.5-1.3-0.5-2.2
		V62.3h-3V59h3v-5.4h5V59L92.6,58.9L92.6,58.9z"/>
	<path class="st0" d="M93.5,64.1c0.4-1.2,1.1-2.2,1.9-3s1.8-1.5,2.9-1.9c1.1-0.5,2.4-0.7,3.8-0.7s2.7,0.2,3.9,0.7
		c1.2,0.5,2.1,1.1,3,1.9c0.8,0.8,1.4,1.8,1.9,3c0.4,1.2,0.7,2.5,0.7,3.9s-0.2,2.7-0.7,3.9c-0.4,1.2-1.1,2.2-1.9,3s-1.8,1.5-3,1.9
		s-2.4,0.7-3.9,0.7c-1.4,0-2.7-0.2-3.8-0.7c-1.1-0.4-2.1-1.1-2.9-1.9s-1.4-1.8-1.9-3c-0.4-1.2-0.7-2.5-0.7-3.9
		C92.8,66.5,93,65.2,93.5,64.1 M98,70.1c0.1,0.7,0.4,1.3,0.7,1.9c0.3,0.5,0.8,1,1.3,1.3c0.6,0.3,1.3,0.5,2.1,0.5
		c0.8,0,1.5-0.2,2.1-0.5s1-0.8,1.4-1.3c0.3-0.5,0.6-1.2,0.7-1.9c0.1-0.7,0.2-1.4,0.2-2.1s-0.1-1.4-0.2-2.1s-0.4-1.3-0.7-1.9
		c-0.3-0.5-0.8-1-1.4-1.3s-1.3-0.5-2.1-0.5c-0.8,0-1.5,0.2-2.1,0.5s-1,0.8-1.3,1.3s-0.6,1.2-0.7,1.9c-0.1,0.7-0.2,1.4-0.2,2.1
		S97.9,69.4,98,70.1"/>
	<path class="st0" d="M118.1,58.9v3.4h0.1c0.2-0.6,0.5-1.1,0.9-1.6s0.8-0.9,1.4-1.2c0.5-0.3,1.1-0.6,1.6-0.8
		c0.6-0.2,1.2-0.3,1.8-0.3c0.3,0,0.7,0.1,1.1,0.2v4.6c-0.2,0-0.5-0.1-0.8-0.1s-0.6-0.1-0.9-0.1c-0.9,0-1.7,0.2-2.3,0.5
		c-0.6,0.3-1.1,0.7-1.5,1.2s-0.7,1.1-0.8,1.8c-0.2,0.7-0.2,1.5-0.2,2.3V77h-5V58.9H118.1z"/>
	<polygon class="st0" points="30,66 30,61.5 30,58.9 25,58.9 25,77 30,77 30,73.9 30,69.2 37,69.2 37,77 41.9,77 41.9,73.9 
		41.9,67.5 41.9,66 37,66 	"/>
	<polygon class="st0" points="37,58.9 37,61.1 41.9,66 41.9,61.5 41.9,58.9 	"/>
	<path class="st0" d="M52.7,88.4c-0.1,0.2-0.3,0.4-0.5,0.5S51.7,89,51.5,89c-0.3,0-0.6-0.1-0.8-0.2s-0.4-0.3-0.6-0.5
		c-0.1-0.2-0.3-0.4-0.3-0.7c-0.1-0.3-0.1-0.5-0.1-0.8s0-0.5,0.1-0.8s0.2-0.5,0.3-0.7s0.3-0.3,0.6-0.5c0.2-0.1,0.5-0.2,0.8-0.2
		c0.2,0,0.5,0,0.7,0.2c0.2,0.1,0.4,0.2,0.5,0.4l0,0v-2h1.1v5.5h-1L52.7,88.4L52.7,88.4z M52.6,86.4c0-0.2-0.1-0.3-0.2-0.4
		c-0.1-0.1-0.2-0.2-0.3-0.3c-0.1-0.1-0.3-0.1-0.4-0.1c-0.2,0-0.3,0-0.5,0.1c-0.1,0.1-0.2,0.2-0.3,0.3c-0.1,0.1-0.1,0.3-0.2,0.4
		c0,0.2-0.1,0.3-0.1,0.5s0,0.3,0.1,0.5c0,0.2,0.1,0.3,0.2,0.4c0.1,0.1,0.2,0.2,0.3,0.3c0.1,0.1,0.3,0.1,0.4,0.1c0.2,0,0.3,0,0.5-0.1
		c0.1-0.1,0.2-0.2,0.3-0.3c0.1-0.1,0.1-0.3,0.2-0.4c0-0.2,0-0.3,0-0.5C52.7,86.7,52.7,86.6,52.6,86.4"/>
	<path class="st0" d="M55.6,88c0.2,0.2,0.4,0.2,0.7,0.2c0.2,0,0.4-0.1,0.6-0.2c0.2-0.1,0.3-0.2,0.3-0.4h1c-0.2,0.5-0.4,0.8-0.7,1
		s-0.7,0.3-1.2,0.3c-0.3,0-0.6-0.1-0.8-0.2c-0.3-0.1-0.5-0.2-0.6-0.4c-0.2-0.2-0.3-0.4-0.4-0.7c-0.1-0.3-0.1-0.5-0.1-0.9
		c0-0.3,0.1-0.6,0.1-0.8c0.1-0.3,0.2-0.5,0.4-0.7s0.4-0.3,0.6-0.4c0.2-0.1,0.5-0.2,0.8-0.2s0.6,0.1,0.9,0.2c0.3,0.1,0.5,0.3,0.6,0.5
		c0.2,0.2,0.3,0.5,0.4,0.8c0.1,0.3,0.1,0.6,0.1,0.9h-2.9C55.3,87.5,55.4,87.8,55.6,88 M56.8,85.9c-0.1-0.1-0.3-0.2-0.6-0.2
		c-0.2,0-0.3,0-0.4,0.1c-0.1,0.1-0.2,0.1-0.3,0.2s-0.1,0.2-0.1,0.3c0,0.1,0,0.2,0,0.3h1.8C57.1,86.2,57,86,56.8,85.9"/>
	<path class="st0" d="M59.6,87.9c0,0.1,0.1,0.2,0.2,0.2c0.1,0.1,0.2,0.1,0.3,0.1s0.2,0,0.3,0s0.2,0,0.2,0c0.1,0,0.2,0,0.2-0.1
		c0.1,0,0.1-0.1,0.2-0.2c0-0.1,0.1-0.1,0.1-0.2c0-0.2-0.1-0.3-0.3-0.4s-0.5-0.2-0.9-0.2c-0.2,0-0.3-0.1-0.5-0.1s-0.3-0.1-0.4-0.2
		c-0.1-0.1-0.2-0.2-0.3-0.3c-0.1-0.1-0.1-0.3-0.1-0.4c0-0.3,0.1-0.5,0.2-0.6c0.1-0.2,0.2-0.3,0.4-0.4s0.3-0.2,0.6-0.2
		c0.2,0,0.4-0.1,0.6-0.1c0.2,0,0.4,0,0.6,0.1c0.2,0,0.4,0.1,0.5,0.2c0.2,0.1,0.3,0.2,0.4,0.4c0.1,0.2,0.2,0.4,0.2,0.6h-1
		c0-0.2-0.1-0.4-0.2-0.4c-0.1-0.1-0.3-0.1-0.5-0.1c-0.1,0-0.1,0-0.2,0c-0.1,0-0.1,0-0.2,0c-0.1,0-0.1,0.1-0.1,0.1s-0.1,0.1-0.1,0.2
		s0,0.2,0.1,0.2c0.1,0.1,0.2,0.1,0.3,0.2c0.1,0,0.2,0.1,0.4,0.1s0.3,0.1,0.5,0.1s0.3,0.1,0.5,0.1c0.2,0.1,0.3,0.1,0.4,0.2
		c0.1,0.1,0.2,0.2,0.3,0.3c0.1,0.1,0.1,0.3,0.1,0.5c0,0.3-0.1,0.5-0.2,0.7c-0.1,0.2-0.2,0.3-0.4,0.4S61.2,88.9,61,89
		c-0.2,0-0.4,0.1-0.7,0.1c-0.2,0-0.5,0-0.7-0.1c-0.2,0-0.4-0.1-0.6-0.2c-0.2-0.1-0.3-0.3-0.4-0.4c-0.1-0.2-0.2-0.4-0.2-0.7h1
		C59.5,87.7,59.5,87.8,59.6,87.9"/>
	<path class="st0" d="M62.7,83.4h1.1v0.9h-1.1V83.4z M63.8,88.9h-1.1v-4h1.1V88.9z"/>
	<path class="st0" d="M68.2,89.2c0,0.2-0.1,0.4-0.3,0.6c-0.1,0.2-0.4,0.3-0.6,0.5c-0.3,0.1-0.6,0.2-1.1,0.2c-0.2,0-0.4,0-0.6-0.1
		c-0.2,0-0.4-0.1-0.6-0.2s-0.3-0.2-0.4-0.4c-0.1-0.2-0.2-0.4-0.2-0.6h1.1c0.1,0.2,0.2,0.3,0.3,0.4c0.1,0.1,0.3,0.1,0.5,0.1
		c0.3,0,0.5-0.1,0.7-0.3c0.1-0.2,0.2-0.4,0.2-0.7v-0.5l0,0c-0.1,0.2-0.3,0.4-0.5,0.5s-0.4,0.2-0.7,0.2c-0.3,0-0.6-0.1-0.8-0.2
		c-0.2-0.1-0.4-0.3-0.5-0.4c-0.1-0.2-0.2-0.4-0.3-0.6c-0.1-0.2-0.1-0.5-0.1-0.8s0-0.5,0.1-0.7s0.2-0.5,0.3-0.6
		c0.1-0.2,0.3-0.3,0.5-0.4s0.5-0.2,0.7-0.2c0.3,0,0.5,0,0.7,0.1s0.4,0.3,0.5,0.5l0,0v-0.5h1v3.7C68.3,88.8,68.3,89,68.2,89.2
		 M66.7,87.9c0.1-0.1,0.2-0.1,0.3-0.2c0.1-0.1,0.1-0.2,0.2-0.4c0-0.1,0.1-0.3,0.1-0.4c0-0.2,0-0.3,0-0.5c0-0.1-0.1-0.3-0.2-0.4
		s-0.2-0.2-0.3-0.3c-0.1-0.1-0.3-0.1-0.4-0.1c-0.2,0-0.3,0-0.4,0.1s-0.2,0.1-0.3,0.3c-0.1,0.1-0.1,0.2-0.2,0.4c0,0.1,0,0.3,0,0.4
		s0,0.3,0,0.4s0.1,0.3,0.1,0.4c0.1,0.1,0.2,0.2,0.3,0.3C66,88,66.2,88,66.3,88C66.5,88,66.6,87.9,66.7,87.9"/>
	<path class="st0" d="M70,84.9v0.6l0,0c0.1-0.2,0.3-0.4,0.5-0.5s0.4-0.2,0.7-0.2c0.3,0,0.5,0,0.7,0.1s0.3,0.2,0.4,0.3
		c0.1,0.1,0.2,0.3,0.2,0.5s0.1,0.4,0.1,0.7v2.5h-1.1v-2.3c0-0.3-0.1-0.6-0.2-0.7c-0.1-0.2-0.3-0.2-0.5-0.2c-0.3,0-0.5,0.1-0.6,0.3
		c-0.1,0.2-0.2,0.5-0.2,0.9V89h-1v-4h1V84.9z"/>
	<path class="st0" d="M76.4,83.4v2.1l0,0c0.1-0.2,0.3-0.4,0.5-0.5s0.4-0.2,0.6-0.2c0.3,0,0.5,0,0.7,0.1s0.3,0.2,0.4,0.3
		c0.1,0.1,0.2,0.3,0.2,0.5s0.1,0.4,0.1,0.7v2.5H78v-2.3c0-0.3-0.1-0.6-0.2-0.7c-0.1-0.2-0.3-0.2-0.5-0.2c-0.3,0-0.5,0.1-0.6,0.3
		c-0.1,0.2-0.2,0.5-0.2,0.9V89h-1.1v-5.5h1V83.4z"/>
	<path class="st0" d="M79.7,86.1c0.1-0.3,0.2-0.5,0.4-0.7c0.2-0.2,0.4-0.3,0.6-0.4c0.3-0.1,0.5-0.2,0.8-0.2s0.6,0,0.9,0.2
		c0.3,0.1,0.5,0.2,0.7,0.4c0.2,0.2,0.3,0.4,0.4,0.7c0.1,0.3,0.1,0.5,0.1,0.9c0,0.3,0,0.6-0.1,0.9s-0.2,0.5-0.4,0.7
		c-0.2,0.2-0.4,0.3-0.7,0.4c-0.2,0-0.4,0-0.7,0s-0.6,0-0.8-0.1c-0.3-0.1-0.5-0.2-0.6-0.4c-0.2-0.2-0.3-0.4-0.4-0.7
		c-0.1-0.3-0.1-0.5-0.1-0.9C79.6,86.6,79.6,86.3,79.7,86.1 M80.7,87.4c0,0.2,0.1,0.3,0.2,0.4s0.2,0.2,0.3,0.3
		c0.1,0.1,0.3,0.1,0.5,0.1s0.3,0,0.5-0.1c0.1-0.1,0.2-0.2,0.3-0.3c0.1-0.1,0.1-0.3,0.2-0.4c0-0.2,0-0.3,0-0.5s0-0.3,0-0.5
		s-0.1-0.3-0.2-0.4s-0.2-0.2-0.3-0.3c-0.1-0.1-0.3-0.1-0.5-0.1s-0.3,0-0.5,0.1c-0.1,0.1-0.2,0.2-0.3,0.3c-0.1,0.1-0.1,0.3-0.2,0.4
		c0,0.2,0,0.3,0,0.5S80.7,87.2,80.7,87.4"/>
	<path class="st0" d="M85.1,87.9c0,0.1,0.1,0.2,0.2,0.2c0.1,0.1,0.2,0.1,0.3,0.1c0.1,0,0.2,0,0.3,0c0.1,0,0.2,0,0.2,0
		c0.1,0,0.2,0,0.2-0.1c0.1,0,0.1-0.1,0.2-0.2c0-0.1,0.1-0.1,0.1-0.2c0-0.2-0.1-0.3-0.3-0.4c-0.2-0.1-0.5-0.2-0.9-0.2
		c-0.2,0-0.3-0.1-0.5-0.1s-0.3-0.1-0.4-0.2s-0.2-0.2-0.3-0.3c-0.1-0.1-0.1-0.3-0.1-0.4c0-0.3,0-0.5,0.2-0.6c0.1-0.2,0.2-0.3,0.4-0.4
		c0.2-0.1,0.4-0.2,0.6-0.2s0.4-0.1,0.6-0.1s0.4,0,0.6,0.1c0.2,0,0.4,0.1,0.5,0.2c0.2,0.1,0.3,0.2,0.4,0.4c0.1,0.2,0.2,0.4,0.2,0.6
		h-1c0-0.2-0.1-0.4-0.2-0.4c-0.1-0.1-0.3-0.1-0.5-0.1c-0.1,0-0.1,0-0.2,0s-0.1,0-0.2,0s-0.1,0.1-0.2,0.1c0,0-0.1,0.1-0.1,0.2
		s0,0.2,0.1,0.2c0.1,0.1,0.2,0.1,0.3,0.2c0.1,0,0.2,0.1,0.4,0.1c0.2,0,0.3,0.1,0.5,0.1s0.3,0.1,0.5,0.1c0.2,0.1,0.3,0.1,0.4,0.2
		s0.2,0.2,0.3,0.3c0.1,0.1,0.1,0.3,0.1,0.5c0,0.3-0.1,0.5-0.2,0.7s-0.2,0.3-0.4,0.4c-0.2,0.1-0.4,0.2-0.6,0.2S86.2,89,85.9,89
		c-0.2,0-0.5,0-0.7-0.1c-0.2,0-0.4-0.1-0.6-0.2s-0.3-0.3-0.4-0.4c-0.1-0.2-0.2-0.4-0.2-0.7h1C85.1,87.7,85.1,87.8,85.1,87.9"/>
	<path class="st0" d="M90.4,84.9v0.7h-0.8v2c0,0.2,0,0.3,0.1,0.4s0.2,0.1,0.4,0.1c0.1,0,0.1,0,0.2,0s0.1,0,0.2,0V89
		c-0.1,0-0.2,0-0.3,0c-0.1,0-0.2,0-0.3,0c-0.2,0-0.3,0-0.5,0s-0.3-0.1-0.4-0.1c-0.1-0.1-0.2-0.2-0.3-0.3c-0.1-0.1-0.1-0.3-0.1-0.5
		v-2.4h-0.7V85h0.7v-1.2h1.1V85L90.4,84.9L90.4,84.9z"/>
	<path class="st0" d="M91.9,88c0.2,0.2,0.4,0.2,0.7,0.2c0.2,0,0.4-0.1,0.6-0.2s0.3-0.2,0.3-0.4h1c-0.2,0.5-0.4,0.8-0.7,1
		C93.4,88.9,93,89,92.6,89c-0.3,0-0.6-0.1-0.8-0.2c-0.3-0.1-0.5-0.2-0.6-0.4c-0.2-0.2-0.3-0.4-0.4-0.7c-0.1-0.3-0.1-0.5-0.1-0.9
		c0-0.3,0-0.6,0.1-0.8c0.1-0.3,0.2-0.5,0.4-0.7c0.2-0.2,0.4-0.3,0.6-0.4s0.5-0.2,0.8-0.2s0.6,0.1,0.9,0.2s0.5,0.3,0.6,0.5
		c0.2,0.2,0.3,0.5,0.4,0.8s0.1,0.6,0.1,0.9h-2.9C91.6,87.5,91.7,87.8,91.9,88 M93.1,85.9c-0.1-0.1-0.3-0.2-0.6-0.2
		c-0.2,0-0.3,0-0.4,0.1s-0.2,0.1-0.3,0.2c-0.1,0.1-0.1,0.2-0.1,0.3c0,0.1,0,0.2-0.1,0.3h1.8C93.4,86.2,93.3,86,93.1,85.9"/>
	<rect x="95" y="83.4" class="st0" width="1.1" height="5.5"/>
	<path class="st0" d="M97.7,87.9c0,0.1,0.1,0.2,0.2,0.2c0.1,0.1,0.2,0.1,0.3,0.1c0.1,0,0.2,0,0.3,0c0.1,0,0.2,0,0.2,0
		c0.1,0,0.2,0,0.2-0.1c0.1,0,0.1-0.1,0.2-0.2c0-0.1,0.1-0.1,0.1-0.2c0-0.2-0.1-0.3-0.3-0.4c-0.2-0.1-0.5-0.2-0.9-0.2
		c-0.2,0-0.3-0.1-0.5-0.1s-0.3-0.1-0.4-0.2s-0.2-0.2-0.3-0.3c-0.1-0.1-0.1-0.3-0.1-0.4c0-0.3,0.1-0.5,0.2-0.6
		c0.1-0.2,0.2-0.3,0.4-0.4c0.2-0.1,0.4-0.2,0.6-0.2s0.4-0.1,0.6-0.1s0.4,0,0.6,0.1c0.2,0,0.4,0.1,0.5,0.2c0.2,0.1,0.3,0.2,0.4,0.4
		c0.1,0.2,0.2,0.4,0.2,0.6h-1c0-0.2-0.1-0.4-0.2-0.4c-0.1-0.1-0.3-0.1-0.5-0.1c-0.1,0-0.1,0-0.2,0s-0.1,0-0.2,0S98,85.7,98,85.7
		s-0.1,0.1-0.1,0.2s0,0.2,0.1,0.2c0.1,0.1,0.2,0.1,0.3,0.2c0.1,0,0.2,0.1,0.4,0.1c0.1,0,0.3,0.1,0.5,0.1s0.3,0.1,0.5,0.1
		c0.2,0.1,0.3,0.1,0.4,0.2s0.2,0.2,0.3,0.3c0.1,0.1,0.1,0.3,0.1,0.5c0,0.3-0.1,0.5-0.2,0.7s-0.2,0.3-0.4,0.4
		c-0.2,0.1-0.4,0.2-0.6,0.2S98.9,89,98.6,89c-0.2,0-0.5,0-0.7-0.1c-0.2,0-0.4-0.1-0.6-0.2s-0.3-0.3-0.4-0.4
		c-0.1-0.2-0.2-0.4-0.2-0.7h1C97.7,87.7,97.7,87.8,97.7,87.9"/>
	<path class="st0" d="M60,39.6h30v-30H60V39.6z M83.5,22.6v11h-5v-7.8h-7v7.8h-5V15.5h5v7.1H83.5l-5-5v-2.1h5V22.6z"/>
</g>
</svg>
