<?xml version="1.0" encoding="utf-8"?>
<!-- Generator: Adobe Illustrator 24.2.3, SVG Export Plug-In . SVG Version: 6.00 Build 0)  -->
<svg version="1.1" id="Layer_1" xmlns="http://www.w3.org/2000/svg" xmlns:xlink="http://www.w3.org/1999/xlink" x="0px" y="0px"
	 viewBox="0 0 160 90" style="enable-background:new 0 0 160 90;" xml:space="preserve">
<style type="text/css">
	.st0{fill:#FFFFFF;}
</style>
<g>
	<path class="st0" d="M42.4,80.8c0.7-0.4,1.4-0.8,2-1.4h-0.2c-0.1,0-0.1,0-0.2,0c-0.5,0.4-1.1,0.8-1.7,1.1
		C42.4,80.6,42.4,80.7,42.4,80.8"/>
	<path class="st0" d="M36.2,84c-1.6-0.1-3.1-0.6-4.4-1.3l-0.1,0.1C33.1,83.5,34.6,84,36.2,84c0.4,0.1,0.8,0.2,1.1,0.2
		c2.7,0,5.3-0.9,7.5-2.5v-0.2C42.3,83.4,39.3,84.2,36.2,84"/>
	<path class="st0" d="M46.9,81.3v0.2c0.9-0.8,1.7-1.8,2.3-2.8v-0.3C48.6,79.4,47.8,80.4,46.9,81.3"/>
	<path class="st0" d="M32,80.3c0.1,0.1,0.1,0.2,0.2,0.3c0.5,0.3,1.1,0.6,1.7,0.8v-0.3C33.2,80.9,32.6,80.6,32,80.3L32,80.3"/>
	<path class="st0" d="M36.4,82c0.3,0,0.6,0,1,0c0.1,0,0.3,0,0.4,0c0-0.1,0.1-0.2,0.2-0.3c-0.5,0-1,0-1.6,0c-0.2,0-0.4,0-0.5-0.1v0.3
		C36.1,82,36.2,82,36.4,82"/>
	<path class="st0" d="M36.8,77.8c-0.4,0-0.7-0.1-1-0.2c0,0.1,0.1,0.1,0.1,0.2c0.3,0.1,0.6,0.1,0.9,0.2c0.2,0,0.4,0,0.6,0
		c0.2,0,0.4,0,0.6,0c0.1-0.1,0.1-0.1,0.2-0.2C37.7,77.8,37.2,77.8,36.8,77.8"/>
	<path class="st0" d="M37.4,85.3c2.7,0,5.4-0.8,7.7-2.4L45,82.8c-2.6,1.8-5.7,2.6-8.8,2.3c-2-0.2-3.9-0.8-5.5-1.8
		c-0.1,0-0.2,0-0.3,0c1.7,1,3.7,1.7,5.8,1.9C36.5,85.3,36.9,85.3,37.4,85.3"/>
	<path class="st0" d="M122,84.3c2.1,0,4.1-0.5,5.9-1.4l-0.1-0.1c-2.1,1-4.5,1.5-7,1.3c-0.9-0.1-1.8-0.3-2.7-0.5h-0.5
		c1,0.3,2.1,0.6,3.1,0.7C121.2,84.3,121.6,84.3,122,84.3"/>
	<path class="st0" d="M116.5,83.1c0-0.1-0.1-0.1-0.1-0.2c-0.4-0.2-0.9-0.4-1.3-0.7c0,0,0,0.1-0.1,0.1
		C115.5,82.6,116,82.9,116.5,83.1"/>
	<path class="st0" d="M116.3,80.7v-0.3c-0.4-0.3-0.9-0.6-1.3-0.9c0,0.1-0.1,0.1-0.1,0.2l0,0C115.3,80.1,115.8,80.4,116.3,80.7"/>
	<path class="st0" d="M113.3,81.1L113.3,81.1L113.3,81.1c-0.4-0.5-0.9-1-1.3-1.5l-0.1,0.1C112.4,80.3,112.8,80.7,113.3,81.1"/>
	<path class="st0" d="M126.9,81.1c0.3-0.1,0.6-0.3,0.8-0.4v-0.3c-0.3,0.2-0.5,0.3-0.8,0.4C126.9,80.9,126.9,81,126.9,81.1"/>
	<path class="st0" d="M129.1,83.4c-2.5,1.4-5.4,2.1-8.4,1.8c-2.4-0.2-4.6-1-6.5-2.2c0,0-0.1,0.1-0.2,0.1c1.9,1.2,4.2,2.1,6.6,2.3
		c0.4,0,0.9,0.1,1.3,0.1c2.7,0,5.2-0.7,7.4-2h-0.2V83.4z"/>
	<path class="st0" d="M120.9,82.1L120.9,82.1c0.4,0,0.8,0,1.1,0c-0.1-0.1-0.1-0.2-0.2-0.3c-0.3,0-0.6,0-0.8,0c-0.1,0-0.2,0-0.3,0
		C120.8,81.9,120.8,82,120.9,82.1"/>
	<path class="st0" d="M78.1,53c-0.7,2-1.2,3.8,0.5,5.6c0.4,0.5,1.1,0.8,1.7,1.1c0.2-0.2,0.4-0.5,0.6-0.7c-0.6-0.2-1.2-0.6-1.7-1
		c-0.4-0.4-0.7-0.9-0.8-1.3c0.7,0.1,1.8,0.2,3.2,0.3c0-0.1,0-0.2,0-0.3c-1.4-0.1-2.6-0.2-3.3-0.3c-0.2-0.9,0.1-1.9,0.5-3.1
		c0.1-0.2,0.2-0.6,0.4-1c-0.3-0.1-0.5-0.3-0.8-0.4l0,0C78.3,52.4,78.2,52.7,78.1,53"/>
	<path class="st0" d="M97.1,65l-15.8-1.4c-0.3,0.2-0.6,0.4-1,0.5L97,65.6c0.1,0,0.3,0,0.5,0V65C97.3,65,97.2,65,97.1,65"/>
	<path class="st0" d="M73.8,54.8c0,0.3-0.1,0.6-0.1,0.9c-0.1,1.5-0.3,3.6-0.5,5.5h0.3c0.2-1.9,0.4-3.9,0.5-5.4c0-0.3,0-0.6,0.1-0.9
		c0.1-1,0.2-2.1,0.1-3.2h-0.3C74,52.7,73.9,53.8,73.8,54.8"/>
	<path class="st0" d="M105.7,61.2h-0.9l-1.2,1.1c-0.6,0.6-1.3,1.1-1.9,1.4v0.7c0.8-0.4,1.6-1,2.4-1.7L105.7,61.2z"/>
	<path class="st0" d="M107.8,61.2h-0.3c-1.2,2.2-2.6,4.2-4.1,5.9h0.4C105.2,65.4,106.6,63.4,107.8,61.2"/>
	<path class="st0" d="M72.8,65.7c0.1-0.1,0.1-0.1,0.2-0.2l1.2-0.8h-0.5l-0.6,0.4c0-0.1,0-0.2,0-0.4h-0.3v0.1
		c-0.2,0.2-0.3,0.3-0.4,0.5c-0.3,0.3-0.7,0.6-1.1,0.7v0.6C71.8,66.5,72.4,66.2,72.8,65.7"/>
	<path class="st0" d="M17.4,61.1c-0.2-3.2,0.8-6.1,1.7-7.5c0.3-0.6-0.3-0.7-0.3-0.7c-1.1-0.3-1.7-0.8-2-1.3h-0.1h-0.9
		c0,0.1,0.1,0.2,0.2,0.4c0.3,0.5,0.9,1.2,2.1,1.7c-0.8,1.5-1.7,4.2-1.5,7.5h0.1C16.9,61.2,17.2,61.1,17.4,61.1"/>
	<path class="st0" d="M136.4,72.1c-0.3,3.3-1.7,6.2-3.8,8.5c0,0.1,0,0.1,0.1,0.2c2.1-2.3,3.5-5.3,3.8-8.6c0.1-0.8,0.1-1.5,0-2.3
		c-0.1-0.1-0.1-0.2-0.2-0.3C136.5,70.4,136.5,71.2,136.4,72.1"/>
	<path class="st0" d="M43.8,64.1c-0.9,0-1.7,0-2.4,0.2v0.6c0.7-0.2,1.4-0.2,2.4-0.2c4,0.2,17.6,1.5,23.4,2.1v-0.6
		C61.4,65.6,47.8,64.2,43.8,64.1"/>
	<path class="st0" d="M39.8,46.8c12.6-4.5,27.8-2.4,31.3-0.6c0.9,0.5,1.5,1.1,1.9,1.8h0.4c-0.5-0.8-1.1-1.5-2.1-2.1
		c-3.5-1.9-18.8-4-31.5,0.5c-5.3,1.9-9.3,4.2-11.9,6.8c-1.5,1.5-2.3,2.9-2.8,3.9c0,0.5-0.1,1-0.3,1.4l0.1-0.2
		C25.6,56.4,27.6,51.1,39.8,46.8"/>
	<path class="st0" d="M137.9,60.1c-0.9-0.6-1.6-1.4-2.2-2.3c0,0,0,0-0.1,0c-1.2,0.2-2.8,0.4-4.5,0.8c-5.1,1-8.4,3.2-13.4,6.5
		l-1.1,0.7c-1.3,0.9-2.5,1.5-3.7,1.9c0.2,0.2,0.3,0.5,0.4,0.8c0.6-0.2,1.2-0.5,1.8-0.8c-0.4,0.8-0.6,1.6-0.7,2.5
		c-0.4,4.1,2.6,7.7,6.7,8.1c0.1,0,0.1,0,0.2,0v-0.1c-0.1,0-0.2,0-0.2,0c-4-0.4-7-3.9-6.6-7.9c0.1-0.9,0.4-1.8,0.8-2.6
		c0.3-0.2,0.6-0.4,1-0.5l0.9,1.4c-0.3,0.6-0.5,1.2-0.6,1.9c-0.3,2.9,1.9,5.4,4.8,5.7c0.2,0,0.3,0,0.5,0c1.4,0,2.7-0.6,3.7-1.5
		c0.2,0,0.3,0.1,0.5,0.1c0.8,0,1.6-0.3,2.4-0.7c-1,2.1-2.9,3.6-5.1,4.1v0.1c2.3-0.5,4.3-2.1,5.3-4.3c0.7-0.4,1.2-0.9,1.5-1.5
		c0.5-1,0.7-2.3,0.4-3.3c-0.2-0.5-0.5-0.9-0.9-1.1s-0.8-0.3-1.1-0.3c-0.3-0.5-0.6-1-1-1.5c-1.3-1.5-3.1-2.5-5-2.6
		c-0.2,0-0.5,0-0.7,0c1.7-1,3.2-1.9,4.8-2.6c1.4,0.7,2.7,1.7,3.7,2.9c1.9,2.3,2.8,5.2,2.5,8.1c-0.2,2.1-0.9,3.9-2.1,5.5
		c0.1,0,0.2,0,0.3,0.1c1.1-1.6,1.9-3.5,2-5.5c0.3-3-0.6-6-2.6-8.3c-1-1.2-2.2-2.2-3.6-2.9c0.8-0.3,1.6-0.6,2.4-0.8
		c1,0.7,1.9,1.5,2.7,2.4c2.3,2.7,3.4,6.2,3,9.7c-0.2,2.5-1.1,4.8-2.6,6.7c0,0.1,0,0.1,0,0.2c1.5-1.9,2.4-4.3,2.7-6.9
		c0.3-3.6-0.8-7.1-3.1-9.8c-0.8-0.9-1.6-1.7-2.6-2.4c0.4-0.1,0.8-0.2,1.3-0.3c2.8,2.2,4.7,5.5,5.3,9.1c0-0.1,0-0.3,0.1-0.4
		c-0.6-3.5-2.5-6.6-5.2-8.8h0.1c1.7-0.3,3.2-0.6,4.4-0.7c0.1,0.1,0.2,0.2,0.3,0.4c2,2.3,3.3,5.1,3.9,8h0.9
		C140.3,64.6,139.4,62.2,137.9,60.1 M118.3,65.8c0.3-0.2,0.5-0.3,0.7-0.5c0.2,0.3,0.3,0.6,0.5,0.9c-0.3,0.2-0.6,0.4-0.9,0.6
		c-0.1,0.1-0.1,0.1-0.2,0.2l-0.6-0.9L118.3,65.8z M116.7,66.8c0.2-0.1,0.3-0.2,0.5-0.3l0.4-0.3l4,6.4c0.1,0.1,0.1,0.3,0.1,0.4
		s-0.1,0.3-0.2,0.3c-0.3,0.2-0.6,0.1-0.7-0.2L116.7,66.8z M121.5,75.7c-2.7-0.2-4.7-2.7-4.5-5.4c0.1-0.6,0.2-1.1,0.5-1.7l2.9,4.7
		c0.2,0.3,0.4,0.4,0.7,0.4c0.2,0,0.3,0,0.4-0.1c0.2-0.1,0.3-0.3,0.4-0.5s0-0.4-0.1-0.6l-3.3-5.2c0.1-0.1,0.2-0.2,0.3-0.2
		c0.3-0.2,0.6-0.4,0.9-0.6c1.9,3.1,4.6,7.5,5.7,8C124.4,75.4,123,75.9,121.5,75.7 M129.7,68.1c0.3,0.2,0.6,0.5,0.7,0.9
		c0.3,0.9,0.1,2.1-0.3,3c-0.7,1.4-3.2,2.6-4.5,2.1c-0.9-0.3-4.2-5.5-6.3-9.1c0.5-0.3,1-0.7,1.5-1l2.8,3.6c0,0,1,1.3,2.6,0.7l0.3-0.1
		C127.7,67.9,128.7,67.6,129.7,68.1 M122.5,65.9c1.6,0.2,2.9,1.1,3.7,2.3h-0.1c-1.4,0.5-2.2-0.6-2.3-0.6L122.5,65.9z M122,63.5
		c0.2,0,0.4,0,0.7,0c1.9,0.2,3.7,1.1,4.9,2.6c0.4,0.4,0.7,0.9,0.9,1.4c-0.6,0-1.3,0.3-2,0.5c-0.8-1.4-2.3-2.3-4-2.5
		c-0.1,0-0.1,0-0.2,0L121,64c0.2-0.2,0.5-0.3,0.7-0.4C121.8,63.5,121.9,63.5,122,63.5"/>
	<path class="st0" d="M110.9,51.6c-0.4,1.8-0.9,3.5-1.5,5.3l-0.6,0.6h0.7l0,0c0.8-1.9,1.3-3.9,1.7-5.9
		C111.2,51.6,110.9,51.6,110.9,51.6z"/>
	<path class="st0" d="M19.2,60.5c0.1-0.1,0.3-0.2,0.4-0.3c0.5-1.5,1.1-3,1.9-4.4c0-0.2,0-0.3-0.1-0.5C20.4,57,19.7,58.7,19.2,60.5"
		/>
	<path class="st0" d="M139.7,56.9c0.2,0.2,0.5,0.3,0.8,0.5c0,0,0-0.1,0.1-0.1c0.3-0.4,0.3-0.8,0.2-1.1c-0.1-0.5-0.6-0.8-0.9-1
		c-0.1-0.4-0.3-1.1-1-1.9c-0.2,0.3-0.3,0.7-0.3,1.1c0.4,0.7,0.5,1.1,0.5,1.1v0.2c-0.1,0-0.1,0.1-0.2,0.1c0,0.1,0.1,0.2,0.1,0.3
		c0.1-0.1,0.3-0.1,0.4-0.2c0.2,0.1,0.5,0.3,0.5,0.5c0,0.1,0,0.2-0.1,0.4C139.7,56.8,139.7,56.9,139.7,56.9"/>
	<path class="st0" d="M110.8,78c-1.4-2.1-2.2-4.7-2.1-7.3h-0.1C108.6,73.4,109.4,76,110.8,78C110.7,78.1,110.8,78.1,110.8,78"/>
	<path class="st0" d="M104.6,52.8c-1,2-1.8,3.5-2.7,4.7h1.1c0.8-1.2,1.5-2.6,2.4-4.3c0.3-0.5,0.5-1.1,0.8-1.6h-1
		C105,52,104.8,52.4,104.6,52.8"/>
	<path class="st0" d="M97.3,17.5l1.8,0.6c0.2,0.4,0.5,1.1,0.9,2l-1.2,1.1l0,0c-0.9,0.8-1,1.6-0.4,2.5c0.4,0.5,0.8,0.8,1.3,0.8
		c0.4,0,0.7-0.1,1.2-0.4l0.7-0.4c0,0,0.5,1.1,1.9,1.2c0.7,1.5,3.9,9,5,12.4c-0.4,1.6-1.6,6.2-2.8,9.6c-0.1,0.4-0.3,0.8-0.4,1.2h0.3
		c0.1-0.4,0.3-0.7,0.4-1.1c1.1-3.1,2.2-7.2,2.7-9.1c0.6,2.3,0,5.7-1.9,10.2h1c1.9-4.8,2.5-8.3,1.7-10.9c-1.1-3.6-4.9-12.2-5.2-12.8
		c0.4,0,0.9,0,1.3,0c3.5,6,5.6,12.8,6,19.2c0.1,1.4,0.1,2.9-0.1,4.5h0.3l0,0c0.1-1.5,0.2-3,0.1-4.5c-0.4-6.4-2.5-13.2-5.9-19.2
		c0.1,0,0.3,0,0.4-0.1c0.3,0,0.6-0.1,0.8-0.2c3.4,6.1,5.5,12.9,5.9,19.4c0.1,1.6,0.1,3.3-0.1,5c0.1,0.1,0.2,0.2,0.3,0.3
		c0.2-1.8,0.3-3.6,0.2-5.3c0-0.6-0.1-1.2-0.2-1.8c0.6-2.8,0.7-5.6,0.2-8.3c1,2.4,2.3,5,4.8,7.5c1.2,1.2,2.1,2.5,2.7,3.7
		c1.1,2.4,1.6,4.3,1.6,4.3c0.2,0.7,0.3,2.1,0.3,2.4c-3.6,3.4-8.9,3.6-10.8,3.6c0.3-1.2,0.6-2.3,0.8-3.5c-0.1,0.1-0.2,0.1-0.3,0.2
		c-0.4,2.2-1.1,4.4-1.9,6.5c0.1,0.1,0.2,0.1,0.2,0.2c0.4-1.1,0.8-2.1,1.1-3.2c0.2,0,0.3,0,0.5,0c2.2,0,7.1-0.4,10.5-3.7l0,0l0,0
		c0-0.1-0.1-1.2-0.2-2.1h0.2c0,0,0,0,0.1,0c0.1-0.3,0.2-0.6,0.4-0.9h-0.1c-0.3-1.2-1.3-4.9-4.5-8.1s-4.4-6.5-5.5-9.6
		c-0.2-0.5-0.4-1-0.6-1.5c-1.4-3.5-2.4-6.9-2.4-6.9l0,0c-0.1-0.2-0.2-0.7-0.1-1c0-0.1,0.1-0.2,0.2-0.2c0.3-0.1,0.4,0,0.9,0.7
		c0.4,0.5,1,1.2,1.8,1.6c0,0,0.1,0.1,0.3,0c0.1,0,3.6-1.1,4.3-3.1c0.7-1.8,0.2-5.9,0.1-6.3c0-0.7-0.5-2-2-2c-0.2,0-0.4,0-0.7,0
		c-0.5,0-1.2-0.1-2-0.1l0.8-0.7c0.1-0.1,0.1-0.2,0.1-0.3c-0.5-1.2-1.8-1.7-2.7-1.9c0.5-1.1,0.8-2.2,1-3.1c0.2-1.1,0-1.8-0.4-2
		c-0.4-0.2-1.1,0.1-1.8,1c-0.7,0.8-1.4,1.9-2,3.2s-1,2.5-1.2,3.6c0,0.3-0.1,0.5-0.1,0.7c-0.3,0-0.5,0.1-0.8,0.1
		c-0.4,0.1-0.7,0.1-1.1,0.2c-0.4-2.1-0.8-4.5-0.9-5.4c-0.2-1.4-0.8-1.7-1.5-1.9c-0.1,0-0.2-0.1-0.4-0.1c-0.3-0.1-0.6-0.3-0.7-0.5
		c0.4-0.9,0.7-1.9,0.8-2.6c0.1-0.9,0-1.4-0.3-1.6c-0.8-0.4-2.1,1.4-3,3.3c-0.5,1-0.8,2-0.9,2.8c-0.1,0.9,0,1.4,0.3,1.6
		c0.1,0,0.1,0,0.2,0c0.7,0,1.8-1.4,2.6-3c0.2,0.2,0.5,0.4,0.8,0.5c0.1,0.1,0.3,0.1,0.4,0.2c0.6,0.2,1,0.4,1.1,1.5
		c0.1,0.8,0.5,3.1,0.8,4.9c0,0.2,0.1,0.4,0.1,0.6c-2,0.7-3.7,1.8-4.6,2.5l-2.2-0.2l0,0c-1-0.1-1.5,0.3-1.6,1.1
		C96,16.7,96.4,17.2,97.3,17.5 M101.2,4.3c-1,2.2-2.2,3.3-2.6,3.1c-0.2-0.1-0.3-0.4-0.2-1.3c0.1-0.8,0.4-1.7,0.9-2.7
		c1-2.1,2-3.2,2.5-3.2h0.1c0.2,0.1,0.3,0.4,0.2,1.3C102,2.4,101.7,3.3,101.2,4.3 M100.8,23.8c-0.9,0.5-1.6,0.4-2.1-0.3
		c-0.5-0.7-0.4-1.3,0.3-2.1l2.2-2c0.9-0.7,1.8-0.1,2.3,0.6c0.3,0.4,0.5,0.9,0.5,1.3s-0.2,0.8-0.6,1.1L100.8,23.8z M111.8,29.3
		c0.2,0.5,0.4,1,0.6,1.5c0.2,0.6,0.4,1.1,0.6,1.7c0.6,2.8,0.7,5.7,0.1,8.6c-0.7-5.8-2.7-11.8-5.7-17.1c0.8-0.2,1.5-0.6,2.2-1.1
		C109.9,24.1,110.8,26.6,111.8,29.3 M115.2,12.6c0.2,0,0.5,0,0.7,0c1.1,0,1.2,1.1,1.2,1.2l0,0c0,0,0.5,4.2-0.1,5.9
		c-0.4,1.1-2.2,2-3.3,2.4c-0.3,0.1-0.5,0-0.5,0c-0.5-0.3-0.9-0.8-1.2-1.2l0,0c1-1,1.7-2.3,2.1-3.8c0.4-1.6,0.3-3.3-0.3-4.7
		C114.3,12.5,114.8,12.5,115.2,12.6 M113.5,10.6l-1.1,1c-0.8,0-1.8,0-2.7,0c0.5-0.7,1-1.6,1.5-2.5C112,9.3,113.1,9.7,113.5,10.6
		 M107.3,11.2c0.1-1,0.5-2.2,1.1-3.5c0.6-1.2,1.3-2.3,1.9-3.1c0.5-0.6,1-0.9,1.3-0.9c0.1,0,0.1,0,0.1,0c0.3,0.1,0.4,0.8,0.3,1.7
		c-0.1,1-0.5,2.2-1.1,3.5c-0.6,1.2-1.3,2.3-1.9,3.1c-0.6,0.7-1.2,1-1.4,0.9C107.3,12.8,107.2,12.1,107.3,11.2 M99.9,16.1
		c0,0,2.8-2.6,6.4-3.3c0.2,0,0.5-0.1,0.7-0.1c0.1,0.2,0.2,0.3,0.4,0.4c0.1,0,0.2,0.1,0.3,0.1c0.3,0,0.7-0.2,1.2-0.7
		c0.9-0.1,1.8-0.1,2.6-0.1l-2.8,2.6c-0.1,0.1-0.1,0.1-0.1,0.2l-0.1,4.1c-0.1,0.2-0.3,0.6-0.8,0.6c-0.1-0.3-0.3-0.6-0.7-0.6
		c-0.4,0-0.8,0.3-0.8,0.7c0,0.4,0.3,0.8,0.7,0.8c0.3,0,0.6-0.1,0.7-0.4c0.1,0,0.1,0,0.2,0c0.8,0,1.2-0.6,1.3-1c0,0,0,0,0-0.1l0.1-4
		l3.1-2.9c0.4,0,0.8,0,1.2,0c0.6,1.4,0.7,3,0.4,4.6c-0.3,1.4-1.1,2.7-2,3.7c-0.5-0.6-1-1.1-1.8-0.8c-0.4,0.1-0.6,0.4-0.8,0.7
		c-0.3,0.7,0,1.5,0.1,1.7c0,0,0.1,0.2,0.1,0.4c-0.9,0.7-2,1.1-3.3,1.3c-1.2,0.2-2.7,0.1-3.5-0.2c-0.3-0.1-0.5-0.6-0.5-0.6l1.3-0.7
		c0.5-0.3,0.7-0.8,0.7-1.3s-0.2-1-0.5-1.5c-0.8-1.1-1.8-1.3-2.7-0.6l-0.3,0.3c-0.4-0.8-0.7-1.5-0.9-1.8c-0.5-1-0.1-1.3,0-1.4
		L99.9,16.1z M96.5,15.9c0.1-0.6,0.5-0.9,1.2-0.9c0.1,0,0.1,0,0.2,0l1.9,0.1c-0.2,0.2-0.4,0.3-0.4,0.4c-0.4,0.3-0.8,1.1-0.4,2.2
		l-1.5-0.5C96.6,17,96.4,16.6,96.5,15.9"/>
	<path class="st0" d="M110.1,79c-1.6-2.4-2.6-5.2-2.5-8.3h-0.1C107.5,73.8,108.4,76.7,110.1,79C110,79.1,110,79,110.1,79"/>
	<path class="st0" d="M101.7,70.7c-0.9,0.7-1.9,1.4-2.9,1.9c-0.1,0-0.2,0.1-0.3,0.1l0,0c-0.2,0-0.4-0.1-0.5-0.3
		c-0.2-0.3,0-0.7,0.3-0.8c0.5-0.2,0.9-0.5,1.4-0.8l0,0c-0.2,0-0.3,0-0.4,0c-0.3,0.2-0.7,0.4-1,0.6c-0.4,0.2-0.6,0.8-0.4,1.2
		c0.1,0.2,0.2,0.3,0.4,0.4c-0.2,0.3-0.6,0.4-1,0.4l-26.9-2.8c-0.3,0.2-0.6,0.3-1,0.3c-0.5,0-1-0.2-1.3-0.5l-12.6-1.3
		c0-0.1,0.1-0.3,0.1-0.4c0.1-0.5-0.1-1-0.6-1.1c-0.3-0.1-0.5,0-0.8,0.1c-0.2,0.1-0.3,0.3-0.3,0.5s-0.1,0.5-0.2,0.7h-0.3
		c0,0.1,0,0.1,0,0.2s0,0.3,0,0.4h0.2c-0.2,0.4-0.4,0.7-0.7,0.9c-0.3,0.3-0.8,0.5-1.2,0.5c0.3,0,0.6,0,0.9-0.1
		c1.2-0.3,1.4-1.7,1.6-2.6c0-0.2,0.1-0.3,0.2-0.3c0.1-0.1,0.3-0.1,0.5-0.1c0.5,0.1,0.4,0.6,0.4,0.8C55,70,54.5,71.4,53,71.9
		c-0.5,0.2-1,0.2-1.6,0.1h-0.3c-0.6,0-1.2,0-1.9,0.2c-0.5,0.1-0.9,0.4-1.3,0.6c-0.6,0.3-1.3,0.6-2,0.6c-0.5,0-1.1-0.1-1.6-0.3
		c-0.1,0-0.3-0.1-0.4-0.1c-0.7-0.2-1.4-0.3-2.1-0.5c-1.4-0.3-2.8-0.7-4.2-1.1l0,0c-0.2-0.1-0.4-0.2-0.5-0.4c-0.1-0.2,0-0.4,0.2-0.6
		c0.1-0.1,0.3-0.2,0.4-0.2c0.1,0,0.1,0,0.2,0c0.2,0.1,0.4,0.1,0.5,0.2c-0.2-0.1-0.4-0.3-0.5-0.5c-0.3-0.1-0.7,0-0.9,0.2
		s-0.3,0.6-0.2,0.9s0.3,0.5,0.7,0.6c1.4,0.4,2.8,0.7,4.2,1.1c0.1,0,0.1,0,0.2,0c-0.9,1.8-2.7,2.9-4.7,2.7c-1.3-0.1-2.4-0.7-3.2-1.8
		c-0.8-1-1.2-2.4-1.1-3.7c0.1-1.6,1-3,2.2-3.8c0.8,0.1,1.6,0.2,2.5,0.3v-0.9c-7.1-0.8-13.2-1.4-16.6-1.8c-0.5,0.3-1,0.5-1.5,0.6
		c0.2,0,0.3,0,0.5,0.1c-0.4,1.4-0.7,2.8-0.9,4.3c-0.5,5.2,1,10.3,4.2,14.3s7.7,6.5,12.6,6.9c0.5,0,1.1,0.1,1.6,0.1
		c5.9,0,11.2-2.9,14.7-7.5l-0.4-0.4h-0.4v0.2c0,0.6-0.5,1-1,1h-0.1c-3.6,3.9-8.8,6.2-14.4,5.7c-4.7-0.4-9-2.8-12-6.6
		c-3-3.8-4.4-8.7-4-13.7c0.1-1.5,0.4-2.9,0.9-4.3c0.9,0.1,2.1,0.2,3.7,0.4c-0.5,1.3-0.8,2.7-1,4.2c-0.4,4,0.8,7.8,3.2,10.9
		c0.2,0.3,0.4,0.5,0.7,0.8v-0.2c-0.2-0.2-0.4-0.4-0.6-0.7c-2.4-3-3.5-6.9-3.2-10.8c0.1-1.5,0.5-2.9,1-4.2c0.3,0,0.6,0.1,1,0.1
		c-0.5,1.3-0.9,2.7-1,4.2c-0.3,3.7,0.7,7.1,2.8,9.8v-0.2c-1.9-2.6-2.9-6-2.6-9.5c0.1-1.5,0.5-2.9,1-4.2c0.6,0.1,1.3,0.1,2,0.2
		c-0.6,1.3-1,2.6-1.1,4.1c-0.3,2.9,0.5,5.6,2.1,7.9h0.4c-1.6-2.3-2.4-5-2.1-7.9c0.1-1.5,0.5-2.8,1.1-4.1c0.2,0,0.5,0.1,0.7,0.1
		c1,0.1,2.1,0.2,3.2,0.4c-0.8,1.1-1.4,2.5-1.5,4c-0.2,2,0.4,4,1.6,5.5c0.7,0.9,1.5,1.5,2.5,2c0.1,0,0.1-0.1,0.2-0.1
		c-1-0.5-1.8-1.1-2.5-2c-1.2-1.5-1.8-3.4-1.6-5.4c0.1-1.5,0.7-2.8,1.5-4c0.8,0.1,1.7,0.2,2.5,0.3c-1.2,0.9-2,2.3-2.1,3.9
		c-0.1,1.4,0.3,2.8,1.1,3.9c0.9,1.1,2.1,1.8,3.5,1.9c0.1,0,0.3,0,0.4,0c2,0,3.7-1.2,4.6-3c0.5,0.1,1.1,0.2,1.6,0.4
		c0.1,0,0.2,0.1,0.4,0.1c-0.4,1.1-1.1,2.1-2,2.8c-0.6,0.5-1.3,0.9-2,1.2h0.4c0.6-0.3,1.2-0.7,1.7-1.1c0.9-0.8,1.6-1.8,2-2.9
		c0.5,0.1,1.1,0.2,1.6,0.3l0,0c0.8,0,1.5-0.3,2.2-0.7c0,0,0,0,0.1,0c-0.4,1.7-1.1,3.2-2,4.5h0.4c1-1.3,1.7-2.9,2-4.6
		c0.3-0.1,0.6-0.3,0.9-0.3c0.2,0,0.4-0.1,0.6-0.1c0,0.3,0.1,0.6,0.1,0.9c0,0.2,0.1,0.4,0.1,0.5c-0.3,1.4-0.9,2.8-1.7,4l0.1,0.1
		c0.7-1.2,1.3-2.5,1.7-3.9c0.2,0.4,0.4,0.7,0.7,0.9c-0.3,0.9-0.6,1.7-1,2.5H50c0.4-0.8,0.7-1.6,1-2.4c0.7,0.5,1.6,0.6,2.3,0.6
		c0.1,0,0.2,0,0.2,0l0,0c0,0,0.4-0.1,1-0.2c-0.2,0.9-0.6,1.8-0.9,2.7c0.3,0.3,0.4,0.6,0.6,0.9c0.6-1.2,1-2.4,1.3-3.7
		c5.1-0.8,18.7-2.8,20.7-3.2c0.4-0.1,0.8-0.2,1.1-0.3l19.8,2c0.1,0,0.1,0,0.2,0c0.8,0,1.3-0.4,1.6-0.9c0,0,0.1,0,0.1-0.1
		c1.1-0.6,2.2-1.3,3.2-2.1L101.7,70.7L101.7,70.7z M53.4,74.6c-0.2,0-2.5,0.1-2.7-1.6c0-0.3-0.1-0.6-0.1-0.9c0.1,0,0.3,0,0.4,0h0.3
		c0.6,0,1.1,0,1.7-0.2c1.3-0.4,1.9-1.4,2.2-2.5l19.1,2C68.8,72.3,54.1,74.5,53.4,74.6"/>
	<path class="st0" d="M110,67.1h0.2c3-7.4,10.3-12.6,18.7-12.6c2.1,0,4.2,0.3,6.1,0.9c0-0.1,0-0.1,0-0.2c-1.9-0.6-4-0.9-6.1-0.9
		C120.3,54.3,113,59.6,110,67.1"/>
	<path class="st0" d="M140.3,70.7c0,0.6,0,1.2-0.1,1.8c-0.4,4.9-2.8,9.3-6.5,12.4c-3.8,3.1-8.5,4.6-13.4,4.2
		c-9.5-0.9-16.7-8.9-16.6-18.4h-0.9c-0.1,9.9,7.5,18.3,17.5,19.2c0.6,0.1,1.2,0.1,1.8,0.1c4.5,0,8.8-1.6,12.3-4.5
		c3.9-3.3,6.4-7.9,6.8-13c0.1-0.6,0.1-1.2,0.1-1.9h-1V70.7z"/>
	<path class="st0" d="M85.3,57.3c2.9,0.2,6.1,0.4,8.6,0.4c1.5,0,2.8-0.1,3.7-0.2v-0.3c-2.2,0.4-7.7,0.2-12.3-0.2
		C85.3,57.1,85.3,57.2,85.3,57.3"/>
	<path class="st0" d="M17.9,48.1c0.6-0.7,1.2-1.3,1.9-1.6c1.6-0.7,2.9,0.3,2.9,0.3s0.3,0.1,0.5-0.1c6.9-6,16.9-9.9,27.8-11.1
		c1.2,1,2.1,2,2.8,2.8c0.2,0.2,0.4,0.5,0.5,0.7c-6.1,0.5-12.8,1.6-18.1,3.7c-5.1,2-9.4,5.1-12.5,9c0.1,0.1,0.1,0.2,0.2,0.3
		c3.1-3.9,7.4-7.1,12.5-9c5.3-2.1,12-3.2,18.2-3.7c0.1,0.1,0.2,0.2,0.2,0.3c1,1.4,1.6,2.3,4.4,2.5c0.6,0.1,1.2,0.1,1.7,0.1
		c1.6,0,3-0.2,4.3-0.4c0.8-0.1,1.5-0.2,2.2-0.3c1.9-0.1,5,0.1,7,0.3l0.7,0.1c0.5,0,1-0.1,1.3-0.2c1,0.8,1.6,1.8,1.6,3.2
		c0,1.1-0.2,2-0.6,3c0.1,0,0.2,0,0.3,0c0.3-1,0.6-1.9,0.6-3c0-1.3-0.4-2.4-1.6-3.4c0.7-0.5,1-1.4,1-1.9c0,0,0-0.2,0-0.6
		c1.1,0.8,1.8,1.6,2.2,2.6c0.9,2.1,0.4,4.7-0.3,6.8c0.3,0.1,0.6,0.2,0.8,0.4c0.8-2.3,1.2-5.1,0.3-7.5c-0.5-1.3-1.6-2.4-3-3.3
		c0.1-1.5,0.3-3.6,0.4-4.6c0.1-0.7,0-1.3-0.3-1.7c-0.4-0.5-0.9-0.5-1-0.5l-9.2-0.8c-3.6-0.3-8.5-2.9-11.5-4.4
		c-1-0.5-1.8-0.9-2.3-1.1c-1.9-0.7-3.5-0.2-5.5,1.7c-2,2-2.1,3.8-2.1,3.9c0,1,0.4,1.8,1.5,2.7c0.7,0.5,1.3,1,1.9,1.5
		C39.4,36.1,29.7,40,22.8,45.9c-0.6-0.2-1.8-0.9-3.4-0.2c-0.9,0.4-1.8,1.2-2.5,2.3C17.2,48,17.6,48,17.9,48.1 M49.1,27.1
		c1.4-1.4,2.5-1.9,3.5-1.9c0.5,0,0.9,0.1,1.4,0.3c0.4,0.2,1.2,0.6,2.2,1.1c3,1.5,8,4.1,11.7,4.5l9.2,0.8c0,0,0.3,0,0.5,0.3
		c0.2,0.3,0.3,0.7,0.2,1.2c-0.1,0.6-0.2,1.8-0.3,2.9c-0.1,0-0.2-0.1-0.2-0.1c-1.5-0.7-5.1-2.3-11.8-0.8c-7.6,1.6-9.9-0.8-12.4-3.3
		c-1.4-1.4-2.8-2.8-5-3.6C48.3,28,48.6,27.6,49.1,27.1 M48.5,32.8c-1-0.7-1.3-1.4-1.3-2.2l0,0c0,0,0-0.8,0.6-1.9
		c2.2,0.8,3.6,2.2,5,3.6c2.6,2.6,5,5.1,12.7,3.4c6.6-1.4,10.1,0.1,11.6,0.8c0.1,0.1,0.2,0.1,0.3,0.1c-0.1,1.5-0.2,2.9-0.2,3
		s-0.2,1.9-2,1.8l-0.7-0.1c-2-0.2-5.1-0.4-7.1-0.3c-0.7,0-1.5,0.1-2.3,0.3c-1.7,0.2-3.6,0.5-6,0.3c-2.5-0.2-3-1-4-2.3
		c-0.3-0.4-0.6-0.8-1-1.3C53.1,36.6,51.1,34.8,48.5,32.8"/>
	<path class="st0" d="M113,77.3c-1.4-1.9-2.2-4.2-2.1-6.6h-0.3c0,2.4,0.7,4.7,2,6.6C112.8,77.3,112.9,77.3,113,77.3"/>
	<path class="st0" d="M42,71.3h0.2c0.6,0.1,1.3,0.3,1.9,0.4c0.1,0,0.2,0.1,0.4,0.1c0.5,0.1,1,0.2,1.4,0.2c0.5,0,0.9-0.3,1.3-0.5
		l0.1-0.1c0.6-0.3,1.1-0.5,1.6-0.6c0.4-0.1,0.9-0.2,1.5-0.2h-2.2v0.1c-0.4,0.1-0.7,0.3-1,0.5l-0.1,0.1c-0.4,0.2-0.8,0.4-1.2,0.4
		s-0.9-0.1-1.3-0.2c0-0.2,0.1-0.3,0.1-0.5c0-0.1,0-0.2,0-0.4h-0.1c0,0.1,0,0.2,0,0.3c0,0.2,0,0.3-0.1,0.5c-0.1,0-0.2,0-0.3-0.1
		c-0.6-0.1-1.1-0.2-1.7-0.4c0-0.1,0-0.2,0-0.2c0-0.1,0-0.1,0-0.2h-0.3v0.1c0,0.1,0,0.1,0,0.2H42c-0.4-0.1-0.9-0.2-1.3-0.3h-1.2
		C40.3,70.9,41.2,71.1,42,71.3"/>
	<path class="st0" d="M95.6,60.6l-11-1c-0.1,0.3-0.3,0.6-0.4,0.9l11.3,1c0.8,0.1,1.4,0.1,2.1,0v-0.9C97,60.7,96.4,60.7,95.6,60.6"/>
	<path class="st0" d="M76.1,55.2c-0.2,1.7-0.4,4.2-0.5,6h0.3c0.1-1.8,0.3-4.1,0.5-6c0.1-1.4,0.3-2.6,0.5-3.5h-0.3
		C76.4,52.6,76.2,53.7,76.1,55.2"/>
	<path class="st0" d="M101.7,54.5v0.4c0.9-1,1.6-2.1,2.3-3.3h-0.3C103.1,52.7,102.4,53.7,101.7,54.5"/>
	<path class="st0" d="M135.6,51.7c0.1-0.3,0.3-0.5,0.5-0.8c-1.6-0.9-4-1.8-7.3-2.2l-0.8,0.8C131.6,49.9,134,50.8,135.6,51.7"/>
	<path class="st0" d="M98,69.8L71.3,67v0.1L98.1,70C98.1,69.9,98,69.9,98,69.8"/>
	<path class="st0" d="M118,64c5.4-3.7,8.3-5.8,14-6.5c1.3-0.2,2.4-0.3,3.4-0.5c0-0.1-0.1-0.2-0.1-0.3c-0.9,0.2-2,0.3-3.3,0.5
		c-5.8,0.8-8.9,2.9-14.1,6.5l-1.2,0.8c-1.8,1.2-3.8,2.1-5.8,2.5h0.9c0.1,0,0.2,0,0.3,0c1.7-0.5,3.3-1.2,4.8-2.3L118,64z"/>
	<path class="st0" d="M109.4,61.2L109.4,61.2h-0.3c-1.1,2.2-2.4,4.2-3.8,5.9h0.4C107.1,65.3,108.4,63.3,109.4,61.2"/>
	<path class="st0" d="M85.9,80.3c0,0.6,0.2,1.3,0.7,1.7c1,1,2.5,1,3.5,0c0.2-0.2,0.2-0.5,0-0.6c-0.2-0.2-0.5-0.2-0.6,0
		c-0.6,0.6-1.6,0.6-2.2,0c-0.3-0.3-0.5-0.7-0.5-1.1s0.2-0.8,0.5-1.1c0.6-0.6,1.6-0.6,2.2,0c0.2,0.2,0.5,0.2,0.6,0
		c0.2-0.2,0.2-0.5,0-0.6c-1-1-2.5-1-3.5,0C86.1,79.1,85.9,79.7,85.9,80.3"/>
	<path class="st0" d="M110.3,80.3c0,0.6,0.2,1.3,0.7,1.7c1,1,2.5,1,3.5,0c0.2-0.2,0.2-0.5,0-0.6c-0.2-0.2-0.5-0.2-0.6,0
		c-0.6,0.6-1.6,0.6-2.2,0c-0.3-0.3-0.5-0.7-0.5-1.1s0.2-0.8,0.5-1.1c0.6-0.6,1.6-0.6,2.2,0c0.2,0.2,0.5,0.2,0.6,0
		c0.2-0.2,0.2-0.5,0-0.6c-1-1-2.5-1-3.5,0C110.6,79.1,110.3,79.7,110.3,80.3"/>
	<path class="st0" d="M93,77.9c-0.2,0-0.4,0.2-0.4,0.4v4c0,0.2,0.2,0.4,0.4,0.4c0.2,0,0.4-0.2,0.4-0.4v-4
		C93.5,78.1,93.3,77.9,93,77.9"/>
	<path class="st0" d="M34.9,77.9c-0.2,0-0.4,0.2-0.4,0.4v4c0,0.2,0.2,0.4,0.4,0.4s0.4-0.2,0.4-0.4v-4C35.3,78.1,35.1,77.9,34.9,77.9
		"/>
	<path class="st0" d="M105.3,81.9h-2.1v-3.6c0-0.2-0.2-0.4-0.4-0.4c-0.2,0-0.4,0.2-0.4,0.4v4c0,0.2,0.2,0.4,0.4,0.4h2.5
		c0.2,0,0.4-0.2,0.4-0.4C105.7,82.1,105.5,81.9,105.3,81.9"/>
	<path class="st0" d="M119.9,81.9h-2.1v-3.6c0-0.2-0.2-0.4-0.4-0.4c-0.2,0-0.4,0.2-0.4,0.4v4c0,0.2,0.2,0.4,0.4,0.4h2.5
		c0.2,0,0.4-0.2,0.4-0.4S120.1,81.9,119.9,81.9"/>
	<path class="st0" d="M47.5,77.9h-3.3c-0.2,0-0.4,0.2-0.4,0.4c0,0.2,0.2,0.4,0.4,0.4h1.2v3.6c0,0.2,0.2,0.4,0.4,0.4s0.4-0.2,0.4-0.4
		v-3.6h1.2c0.2,0,0.4-0.2,0.4-0.4C48,78.1,47.8,77.9,47.5,77.9"/>
	<path class="st0" d="M57.9,77.9c-1.4,0-2.4,1.1-2.4,2.4s1.1,2.4,2.4,2.4c1.4,0,2.4-1.1,2.4-2.4S59.2,77.9,57.9,77.9 M57.9,81.9
		c-0.9,0-1.6-0.7-1.6-1.6s0.7-1.6,1.6-1.6c0.9,0,1.6,0.7,1.6,1.6S58.7,81.9,57.9,81.9"/>
	<path class="st0" d="M81.9,77.9c-1.4,0-2.4,1.1-2.4,2.4s1.1,2.4,2.4,2.4c1.4,0,2.4-1.1,2.4-2.4S83.3,77.9,81.9,77.9 M81.9,81.9
		c-0.9,0-1.6-0.7-1.6-1.6s0.7-1.6,1.6-1.6s1.6,0.7,1.6,1.6S82.8,81.9,81.9,81.9"/>
	<path class="st0" d="M125.9,77.9c-0.2,0-0.4,0.2-0.4,0.4v2.4c0,0.7-0.5,1.2-1.2,1.2s-1.2-0.5-1.2-1.2v-2.4c0-0.2-0.2-0.4-0.4-0.4
		c-0.2,0-0.4,0.2-0.4,0.4v2.4c0,1.2,0.9,2.1,2.1,2.1s2.1-0.9,2.1-2.1v-2.4C126.3,78.1,126.1,77.9,125.9,77.9"/>
	<path class="st0" d="M52.9,81.3c0.5-0.3,0.9-0.9,0.9-1.5c0-1-0.8-1.8-1.8-1.8h-1.7c-0.2,0-0.4,0.2-0.4,0.4v4c0,0.2,0.2,0.4,0.4,0.4
		s0.4-0.2,0.4-0.4v-0.8h1.2l1.1,1.1c0.2,0.2,0.4,0.2,0.6,0c0.2-0.2,0.2-0.4,0-0.6L52.9,81.3z M50.7,78.7h1.2c0.6,0,1,0.5,1,1
		c0,0.6-0.5,1-1,1h-1.2V78.7z"/>
	<path class="st0" d="M100.5,82.2l-2-4c-0.1-0.2-0.2-0.3-0.4-0.3c-0.2,0-0.4,0.1-0.4,0.3l-2,4c-0.1,0.2,0,0.5,0.3,0.6
		c0.2,0.1,0.5,0,0.6-0.3l0.5-1h2.2l0.5,1c0.1,0.2,0.3,0.3,0.6,0.3C100.4,82.7,100.5,82.4,100.5,82.2 M97.3,80.7l0.7-1.4l0.7,1.4
		H97.3z"/>
	<path class="st0" d="M69.3,80h-0.5v-0.4c0-0.2-0.2-0.4-0.4-0.4c-0.2,0-0.4,0.2-0.4,0.4V80h-1.1c-0.4,0-0.6-0.3-0.6-0.6
		c0-0.4,0.3-0.6,0.6-0.6h0.5c0.2,0,0.4-0.2,0.4-0.4c0-0.2-0.2-0.4-0.4-0.4h-0.5c-0.8,0-1.4,0.6-1.4,1.4c0,0.4,0.2,0.8,0.4,1
		c-0.3,0.3-0.4,0.6-0.4,1c0,0.8,0.6,1.4,1.4,1.4h1.6c0.2,0,0.4-0.2,0.4-0.4v-1.6h0.5c0.2,0,0.4-0.2,0.4-0.4S69.5,80,69.3,80
		 M67.9,82h-1.1c-0.4,0-0.6-0.3-0.6-0.6c0-0.4,0.3-0.6,0.6-0.6h1.1V82z"/>
	<path class="st0" d="M31.3,80.3c0.3-0.3,0.4-0.6,0.4-1c0-0.8-0.6-1.4-1.4-1.4h-2.1c-0.2,0-0.4,0.2-0.4,0.4v4c0,0.2,0.2,0.4,0.4,0.4
		h2.1c0.8,0,1.4-0.6,1.4-1.4C31.7,81,31.5,80.6,31.3,80.3 M30.3,82L30.3,82h-1.6v-1.3h1.6c0.4,0,0.6,0.3,0.6,0.6
		C30.9,81.7,30.6,82,30.3,82 M30.3,80L30.3,80h-1.6v-1.3h1.6c0.4,0,0.6,0.3,0.6,0.6C30.9,79.7,30.6,80,30.3,80"/>
	<path class="st0" d="M131.8,80.3c0.3-0.3,0.4-0.6,0.4-1c0-0.8-0.6-1.4-1.4-1.4h-2.1c-0.2,0-0.4,0.2-0.4,0.4v4
		c0,0.2,0.2,0.4,0.4,0.4h2.1c0.8,0,1.4-0.6,1.4-1.4C132.2,81,132,80.6,131.8,80.3 M130.8,82L130.8,82h-1.6v-1.3h1.6
		c0.4,0,0.6,0.3,0.6,0.6C131.4,81.7,131.2,82,130.8,82 M130.8,80L130.8,80h-1.6v-1.3h1.6c0.4,0,0.6,0.3,0.6,0.6
		C131.4,79.7,131.2,80,130.8,80"/>
	<path class="st0" d="M76.5,80h-1.1c-0.4,0-0.6-0.3-0.6-0.6c0-0.4,0.3-0.6,0.6-0.6h1.5c0.2,0,0.4-0.2,0.4-0.4c0-0.2-0.2-0.4-0.4-0.4
		h-1.5c-0.8,0-1.4,0.6-1.4,1.4s0.6,1.4,1.4,1.4h1.1c0.4,0,0.6,0.3,0.6,0.6c0,0.4-0.3,0.6-0.6,0.6h-1.8c-0.2,0-0.4,0.2-0.4,0.4
		c0,0.2,0.2,0.4,0.4,0.4h1.8c0.8,0,1.4-0.6,1.4-1.4S77.2,80,76.5,80"/>
	<path class="st0" d="M40.5,80h-1.1c-0.4,0-0.6-0.3-0.6-0.6c0-0.4,0.3-0.6,0.6-0.6H41c0.2,0,0.4-0.2,0.4-0.4c0-0.2-0.2-0.4-0.4-0.4
		h-1.5c-0.8,0-1.4,0.6-1.4,1.4s0.6,1.4,1.4,1.4h1.1c0.4,0,0.6,0.3,0.6,0.6c0,0.4-0.3,0.6-0.6,0.6h-1.8c-0.2,0-0.4,0.2-0.4,0.4
		c0,0.2,0.2,0.4,0.4,0.4h1.8c0.8,0,1.4-0.6,1.4-1.4C41.9,80.6,41.3,80,40.5,80"/>
	<path class="st0" d="M129,45.4c-0.8-0.8-2.1-0.8-2.9,0l-2.7,2.7c-0.8,0.8-0.8,2.1,0,2.9c0.8,0.8,2.1,0.8,2.9,0l2.7-2.7
		C129.8,47.5,129.8,46.2,129,45.4"/>
	<path class="st0" d="M51.4,67.1h-10v-5.9h7.7c1,0,1.8-0.8,1.8-1.8s-0.8-1.8-1.8-1.8h-7.7v-5.9h10c1,0,1.8-0.8,1.8-1.8
		s-0.8-1.8-1.8-1.8h-12c-1.1,0-2,0.9-2,2v18.6c0,1.1,0.9,2,2,2h12c1,0,1.8-0.8,1.8-1.8S52.4,67.1,51.4,67.1"/>
	<path class="st0" d="M146.5,57.5h-5c-1.6,0-2.9-1.3-2.9-2.9c0-1.6,1.3-2.9,2.9-2.9h7c1,0,1.8-0.8,1.8-1.8s-0.8-1.8-1.8-1.8h-7
		c-3.6,0-6.6,2.9-6.6,6.6c0,3.6,2.9,6.6,6.6,6.6h5c1.6,0,2.9,1.3,2.9,2.9c0,1.6-1.3,2.9-2.9,2.9h-8.4c-1,0-1.8,0.8-1.8,1.8
		s0.8,1.8,1.8,1.8h8.4c3.6,0,6.6-2.9,6.6-6.6C153.1,60.5,150.1,57.5,146.5,57.5"/>
	<path class="st0" d="M16.7,48H9c-1.1,0-2,0.9-2,2v18.6c0,1.1,0.9,2,2,2s2-0.9,2-2v-3.9h5.7c4.6,0,8.4-3.8,8.4-8.4
		C25.1,51.8,21.3,48,16.7,48 M16.7,61.2H11v-9.5h5.7c2.6,0,4.8,2.1,4.8,4.8C21.5,59,19.3,61.2,16.7,61.2"/>
	<path class="st0" d="M76.9,48h-7.7c-1.1,0-2,0.9-2,2v18.6c0,1.1,0.9,2,2,2s2-0.9,2-2v-3.9h5.7c4.6,0,8.4-3.8,8.4-8.4
		C85.3,51.8,81.6,48,76.9,48 M76.9,61.2h-5.7v-9.5h5.7c2.6,0,4.8,2.1,4.8,4.8C81.7,59,79.6,61.2,76.9,61.2"/>
	<path class="st0" d="M111.7,67.1h-10v-5.9h7.7c1,0,1.8-0.8,1.8-1.8s-0.8-1.8-1.8-1.8h-7.7v-5.9h10c1,0,1.8-0.8,1.8-1.8
		s-0.8-1.8-1.8-1.8h-12c-1.1,0-2,0.9-2,2v18.6c0,1.1,0.9,2,2,2h12c1,0,1.8-0.8,1.8-1.8S112.7,67.1,111.7,67.1"/>
</g>
</svg>
