<?xml version="1.0" encoding="utf-8"?>
<!-- Generator: Adobe Illustrator 24.2.3, SVG Export Plug-In . SVG Version: 6.00 Build 0)  -->
<svg version="1.1" id="Layer_1" xmlns="http://www.w3.org/2000/svg" xmlns:xlink="http://www.w3.org/1999/xlink" x="0px" y="0px"
	 viewBox="0 0 160 90" style="enable-background:new 0 0 160 90;" xml:space="preserve">
<style type="text/css">
	.st0{fill:#FFFFFF;}
</style>
<g>
	<polygon class="st0" points="1.5,33.5 27.4,7.6 49,29.2 40.4,37.8 36,33.5 31.7,37.8 36,42.2 31.7,46.5 36,50.8 40.4,46.5 49,55.1 
		27.4,76.8 1.5,50.8 10.1,42.2 	"/>
	<g>
		<path class="st0" d="M57.7,55.1v-12h7.2v1.2H59v4h4.5l-0.3,1.3H59v4.2h5c0-0.2,0.2-0.7,0.2-1.1c0.6,0.1,0.9,0.2,1.2,0.3
			c-0.2,0.9-0.3,1.3-0.5,2.1H57.7z"/>
		<polygon class="st0" points="68.1,55.1 69.2,44.4 67.9,44.4 67.9,43.2 75.8,43.2 75.8,44.4 70.5,44.4 70.1,48.4 75.8,48.4 
			75.8,49.6 70,49.6 69.5,53.9 75.8,53.9 75.8,55.1 		"/>
		<path class="st0" d="M78.2,54.1l0.7-1.2c1.2,0.8,2.5,1.1,3.7,1.1c1.8,0,2.6-0.8,2.6-2.1c0-0.8-0.7-1.7-1.9-2l-2.6-0.8
			c-1.7-0.5-2.3-1.7-2.3-3c0-1.9,1.5-3.1,3.8-3.1c1.4,0,2.6,0.3,3.5,0.9L85.2,45c-0.9-0.4-2-0.7-3-0.7c-1.5,0-2.4,0.6-2.4,1.8
			c0,0.8,0.6,1.6,1.5,1.8l2.4,0.7c1.9,0.6,2.9,1.7,2.9,3.3c0,2.1-1.6,3.4-4,3.4C81.1,55.3,79.6,55.1,78.2,54.1"/>
		<path class="st0" d="M96.4,43.2l0.7,2.2L96,45.7l-0.4-1.3h-2.9v10.7h-1.4V44.4h-2.9L88,45.7l-1.1-0.4c0.3-0.9,0.4-1.4,0.7-2.2h8.8
			V43.2z"/>
		<rect x="98.6" y="43.2" class="st0" width="1.4" height="12"/>
		<path class="st0" d="M113.9,50.9c-0.3,0.1-0.7,0.1-0.9,0.1h-2.2v4.1h-1.4v-12h3.7c2.1,0,3.8,1.8,3.8,3.9c0,1.3-0.7,2.6-2,3.3
			l1.6,3.4h0.9V55h-0.6c-0.9,0-1.3-0.3-1.5-0.9L113.9,50.9z M110.8,44.4v5.3h2.1c1.5,0,2.8-1.2,2.8-2.7s-1.2-2.7-2.8-2.7h-2.1V44.4z
			"/>
		<path class="st0" d="M125.6,43.2l3.9,12h-1.4l-0.8-2.5h-5.7l-0.8,2.5h-1.4l3.9-12H125.6z M122.1,51.4h4.9l-2.2-7h-0.5L122.1,51.4z
			"/>
		<polygon class="st0" points="131.5,43.2 132.9,43.2 132.9,48.4 138.9,48.4 138.9,43.2 140.2,43.2 140.2,55.1 138.9,55.1 
			138.9,49.6 132.9,49.6 132.9,55.1 131.5,55.1 		"/>
		<path class="st0" d="M143.4,43.2l3,9.3c0.1,0.3,0.3,0.9,0.3,1.2h0.1c0-0.3,0.2-0.8,0.3-1.2c0.7-2.5,2.2-6.8,3-9.3h1.4
			c-1.4,4.3-2.5,7.7-3.8,12H146l-3.9-12H143.4z"/>
		<path class="st0" d="M157.6,43.2l3.9,12h-1.4l-0.8-2.5h-5.7l-0.8,2.5h-1.4l3.9-12H157.6z M154.1,51.4h4.9l-2.2-7h-0.5L154.1,51.4z
			"/>
	</g>
	<g>
		<polygon class="st0" points="64.4,70.3 63.1,70.3 59,62.7 59,62.7 59,72.4 57.7,72.4 57.7,60.4 59.3,60.4 63.7,68.7 63.7,68.7 
			68.2,60.4 69.8,60.4 69.8,72.4 68.5,72.4 68.5,62.7 68.4,62.7 		"/>
		<path class="st0" d="M81,67.6v-7.2h1.4v7.2c0,2.8-1.8,4.9-4.8,4.9s-4.8-2.1-4.8-4.9v-7.2h1.4v7.2c0,2.3,1.3,3.7,3.4,3.7
			C79.6,71.4,81,70,81,67.6"/>
		<path class="st0" d="M93.8,67.6v-7.2h1.4v7.2c0,2.8-1.8,4.9-4.8,4.9s-4.8-2.1-4.8-4.9v-7.2H87v7.2c0,2.3,1.3,3.7,3.4,3.7
			C92.4,71.4,93.8,70,93.8,67.6"/>
		<path class="st0" d="M98,71.3l0.7-1.2c1.2,0.8,2.5,1.1,3.7,1.1c1.8,0,2.6-0.8,2.6-2.1c0-0.8-0.7-1.7-1.9-2l-2.6-0.8
			c-1.7-0.5-2.3-1.7-2.3-3c0-1.9,1.5-3.1,3.8-3.1c1.4,0,2.6,0.3,3.5,0.9l-0.5,1.1c-0.9-0.4-2-0.7-3-0.7c-1.5,0-2.4,0.6-2.4,1.8
			c0,0.8,0.6,1.6,1.5,1.8l2.4,0.7c1.9,0.6,2.9,1.7,2.9,3.3c0,2.1-1.6,3.4-4,3.4C100.8,72.6,99.4,72.3,98,71.3"/>
		<path class="st0" d="M109.3,72.4v-12h7.2v1.2h-5.8v4h4.5l-0.3,1.3h-4.2v4.2h5c0-0.2,0.2-0.7,0.2-1.1c0.6,0.1,0.9,0.2,1.2,0.3
			c-0.2,0.9-0.3,1.3-0.5,2.1C116.6,72.4,109.3,72.4,109.3,72.4z"/>
		<path class="st0" d="M128.2,67.6v-7.2h1.4v7.2c0,2.8-1.8,4.9-4.8,4.9s-4.8-2.1-4.8-4.9v-7.2h1.4v7.2c0,2.3,1.3,3.7,3.4,3.7
			C126.8,71.4,128.2,70,128.2,67.6"/>
		<polygon class="st0" points="139.8,70.3 138.5,70.3 134.5,62.7 134.4,62.7 134.4,72.4 133.1,72.4 133.1,60.4 134.8,60.4 
			139.2,68.7 139.2,68.7 143.6,60.4 145.2,60.4 145.2,72.4 143.9,72.4 143.9,62.7 143.9,62.7 		"/>
	</g>
</g>
</svg>
