<?xml version="1.0" encoding="utf-8"?>
<!-- Generator: Adobe Illustrator 24.2.3, SVG Export Plug-In . SVG Version: 6.00 Build 0)  -->
<svg version="1.1" id="Layer_1" xmlns="http://www.w3.org/2000/svg" xmlns:xlink="http://www.w3.org/1999/xlink" x="0px" y="0px"
	 viewBox="0 0 160 90" style="enable-background:new 0 0 160 90;" xml:space="preserve">
<style type="text/css">
	.st0{fill:#FFFFFF;}
</style>
<g>
	<path class="st0" d="M20.6,49.5h-3L17.1,52h-2.7v-0.7l2.9-13.5h3.4l3,13.6V52h-2.6L20.6,49.5z M19,40.9L17.9,47h2.2L19,40.9z"/>
	<path class="st0" d="M29.6,37.8v10c0,0.6,0,1,0,1.3s-0.1,0.6-0.2,1.1s-0.3,0.8-0.6,1.1c-0.5,0.5-1.3,0.8-2.2,0.8
		c-0.8,0-1.6-0.2-2.3-0.6l0.5-2.1c0.6,0.2,1,0.3,1.2,0.3c0.5,0,0.8-0.7,0.8-1.9v-10H29.6z"/>
	<path class="st0" d="M37.3,49.5h-3L33.8,52h-2.7v-0.7L34,37.8h3.4l3,13.6V52h-2.6L37.3,49.5z M35.7,40.9L34.6,47h2.2L35.7,40.9z"/>
	<path class="st0" d="M48.9,52h-7.1V37.8h2.8v11.8h4.3V52z"/>
	<path class="st0" d="M49.6,47.5v-5.1c0-1.4,0.3-2.5,0.8-3.3c0.7-1,1.8-1.4,3.4-1.4c1.6,0,2.8,0.5,3.4,1.4c0.6,0.7,0.8,1.8,0.8,3.3
		v5.1c0,1.4-0.3,2.5-0.8,3.3c-0.7,1-1.9,1.4-3.4,1.4c-1.6,0-2.7-0.5-3.4-1.4C49.9,50.1,49.6,49,49.6,47.5z M53.7,49.7H54
		c0.5,0,0.8-0.2,1-0.5s0.3-0.8,0.3-1.4V42c0-0.7-0.1-1.2-0.3-1.5S54.5,40,54,40h-0.3c-0.4,0-0.8,0.2-1,0.5s-0.3,0.8-0.3,1.4v5.8
		c0,0.6,0.1,1.1,0.3,1.4C52.9,49.6,53.3,49.7,53.7,49.7z"/>
	<path class="st0" d="M60.2,47.5v-5.1c0-1.4,0.3-2.5,0.8-3.3c0.7-1,1.8-1.4,3.4-1.4c1.6,0,2.8,0.5,3.4,1.4c0.6,0.7,0.8,1.8,0.8,3.3
		v5.1c0,1.4-0.3,2.5-0.8,3.3c-0.7,1-1.9,1.4-3.4,1.4c-1.6,0-2.7-0.5-3.4-1.4C60.5,50.1,60.2,49,60.2,47.5z M64.3,49.7h0.3
		c0.5,0,0.8-0.2,1-0.5s0.3-0.8,0.3-1.4V42c0-0.7-0.1-1.2-0.3-1.5c-0.2-0.3-0.5-0.5-1-0.5h-0.3c-0.4,0-0.8,0.2-1,0.5
		C63.1,40.9,63,41.4,63,42v5.8c0,0.6,0.1,1.1,0.3,1.4C63.5,49.6,63.9,49.7,64.3,49.7z"/>
	<path class="st0" d="M70.8,52L71,37.8h2.7c0.3,0.8,0.8,1.9,1.3,3.4s0.9,2.4,1,2.8c0.1-0.4,0.5-1.3,1-2.8s1-2.6,1.3-3.4H81L81.3,52
		h-2.6l-0.1-9.5l0,0c-0.2,1-0.5,1.7-0.6,2.3l-1.2,3.4h-1.6l-1.1-3.4c-0.1-0.3-0.3-1.1-0.7-2.2l0,0l0,9.4H70.8z"/>
	<path class="st0" d="M89.4,37.8h2.8V52h-2.6l-0.1-1c-0.2,0.2-0.5,0.4-0.9,0.6c-0.6,0.4-1.3,0.6-2.1,0.5c-0.8,0-1.5-0.3-1.9-0.8
		c-0.5-0.5-0.8-1.5-0.8-2.9V37.8h2.8v10.5c0,0.7,0.2,1.1,0.7,1.1c0.3,0,0.7-0.2,1.2-0.5c0.3-0.2,0.5-0.4,0.8-0.7L89.4,37.8
		L89.4,37.8z"/>
	<path class="st0" d="M100.2,37.8h2.8V52h-2.6l-0.1-1c-0.2,0.2-0.5,0.4-0.9,0.6c-0.6,0.4-1.3,0.6-2.1,0.5c-0.8,0-1.5-0.3-1.9-0.8
		c-0.5-0.5-0.8-1.5-0.8-2.9V37.8h2.8v10.5c0,0.7,0.2,1.1,0.7,1.1c0.3,0,0.7-0.2,1.2-0.5c0.3-0.2,0.5-0.4,0.8-0.7L100.2,37.8
		L100.2,37.8z"/>
	<path class="st0" d="M104.7,41.5c0-1,0.3-1.9,0.9-2.6c0.7-0.8,1.7-1.2,3.1-1.2c1.1,0,2.2,0.2,3.2,0.6l-0.4,2.3
		c-1-0.3-1.9-0.4-2.6-0.4c-0.5,0-0.9,0.1-1.2,0.4c-0.2,0.2-0.3,0.6-0.3,1.1s0.3,1,0.8,1.3c0.3,0.2,0.8,0.5,1.5,0.8s1.2,0.6,1.5,0.7
		c0.3,0.2,0.6,0.4,0.8,0.7c0.5,0.6,0.8,1.4,0.8,2.5c0,1.2-0.3,2.1-0.8,2.9c-0.7,0.9-1.9,1.4-3.6,1.5c-1.2,0-2.4-0.2-3.5-0.7l0.4-2.3
		c1.1,0.4,2,0.5,2.7,0.5h0.3c0.6,0,1-0.2,1.2-0.5c0.3-0.3,0.4-0.7,0.4-1.2c0-0.3-0.1-0.6-0.3-0.9c-0.2-0.2-0.5-0.4-0.8-0.6
		c-0.2-0.1-0.4-0.2-0.9-0.5c-0.4-0.2-0.7-0.4-1-0.5c-0.2-0.1-0.5-0.3-0.8-0.5s-0.5-0.5-0.7-0.7C105,43.5,104.7,42.6,104.7,41.5z"/>
	<path class="st0" d="M114.4,37.8h7.7v2.4h-4.9v3.4h3.9V46h-3.9v3.5h4.9V52h-7.7V37.8z"/>
	<path class="st0" d="M129.5,37.8h2.8V52h-2.6l-0.1-1c-0.2,0.2-0.5,0.4-0.9,0.6c-0.6,0.4-1.3,0.6-2.1,0.5c-0.8,0-1.5-0.3-1.9-0.8
		c-0.5-0.5-0.8-1.5-0.8-2.9V37.8h2.8v10.5c0,0.7,0.2,1.1,0.7,1.1c0.3,0,0.7-0.2,1.2-0.5c0.3-0.2,0.5-0.4,0.8-0.7V37.8H129.5z"/>
	<path class="st0" d="M134.7,52l0.2-14.2h2.7c0.3,0.8,0.8,1.9,1.3,3.4s0.9,2.4,1,2.8c0.1-0.4,0.5-1.3,1-2.8s1-2.6,1.3-3.4h2.7
		l0.2,14.2h-2.6l-0.1-9.5l0,0c-0.2,1-0.5,1.7-0.6,2.3l-1.2,3.4H139l-1.1-3.4c-0.1-0.3-0.3-1.1-0.7-2.2l0,0l-0.1,9.4H134.7z"/>
	<polygon class="st0" points="4.3,45 11.4,37.8 9.3,35.7 0,45 9.3,54.3 11.4,52.2 	"/>
	<polygon class="st0" points="155.7,45 148.6,37.8 150.7,35.7 160,45 150.7,54.3 148.6,52.2 	"/>
</g>
</svg>
