<?xml version="1.0" encoding="utf-8"?>
<!-- Generator: Adobe Illustrator 24.2.3, SVG Export Plug-In . SVG Version: 6.00 Build 0)  -->
<svg version="1.1" id="Layer_1" xmlns="http://www.w3.org/2000/svg" xmlns:xlink="http://www.w3.org/1999/xlink" x="0px" y="0px"
	 viewBox="0 0 160 90" style="enable-background:new 0 0 160 90;" xml:space="preserve">
<style type="text/css">
	.st0{fill:#FFFFFF;}
</style>
<g>
	<g>
		<g>
			<path class="st0" d="M67.9,14.9h-1l-0.1,1h-0.9v-2.1h5.3v2.1h-1l0-1H69v8.6h-1.2V14.9z"/>
			<path class="st0" d="M72.9,13.9h2.3l1.4,9.6h-1.2L75,21h-2l-0.4,2.5h-1.2L72.9,13.9z M74.1,15h-0.2l-0.7,4.8h1.7L74.1,15z"/>
			<path class="st0" d="M78.9,23.5h-1.2v-9.6h2.8l1.5,1.5v3.3l-1,1.1l1.7,3.7h-1.3L80,20.2h-1V23.5z M78.9,19.1h1.2l0.8-0.9v-2.4
				L80.1,15h-1.2V19.1z"/>
			<path class="st0" d="M84.7,14.9H83v-1h4.6v1h-1.7v8.6h-1.2V14.9z"/>
			<path class="st0" d="M90,13.9v7.7l0.7,0.8h0.8l0.7-0.8v-7.7h1.2V22L92,23.5h-1.8L88.8,22v-8.1H90z"/>
		</g>
		<g>
			<path class="st0" d="M33,44.3v1.8h-3.4v4.6h2.7v-1.5h1.8v3.3h-6.3V40.1l0.8-0.5v-0.1h-1.8v-1.8h7.1v3.5h-1.8v-1.7h-2.5v4.8H33z"
				/>
			<path class="st0" d="M38.1,37.7v13.1h4.5v1.7h-6.3V37.7H38.1z"/>
			<path class="st0" d="M49.4,44.3v1.8h-3.6v4.6h4.6v1.8H44V37.7c2.4,0,3.7,0,6.1,0v1.8h-4.3v4.8H49.4z"/>
			<path class="st0" d="M54.3,43.7h1l2.8-6h2l-3.3,6.9l3.7,7.9h-2l-3.3-7.1h-1v7.1h-1.8V37.7h1.8V43.7z"/>
			<path class="st0" d="M64,39.3h-2.6v-1.6h7.1v1.6h-2.6v13.3H64V39.3z"/>
			<path class="st0" d="M72.1,52.6h-1.8V37.7h4.4l2.3,2.3v5.1l-1.6,1.7l2.6,5.7h-2l-2.3-5h-1.6V52.6z M72.1,45.8h1.8l1.2-1.3v-3.7
				l-1.2-1.2h-1.8V45.8z"/>
			<path class="st0" d="M79.8,52.6V37.7c1.5,0,0.3,0,1.8,0v14.9H79.8z"/>
			<path class="st0" d="M85.9,39.3h-2.6v-1.6h7.1v1.6h-2.6v13.3h-1.8V39.3z"/>
			<path class="st0" d="M97.7,44.3v1.8h-3.6v4.6h4.6v1.8h-6.4V37.7c2.4,0,3.7,0,6.1,0v1.8h-4.3v4.8H97.7z"/>
			<path class="st0" d="M102.3,37.7h3.5l2.2,14.9h-1.8l-0.6-3.9h-3.1l-0.6,3.9h-1.8L102.3,37.7z M104.3,39.5h-0.4l-1.1,7.4h2.6
				L104.3,39.5z"/>
			<path class="st0" d="M110.7,39.3h-2.6v-1.6h7.1v1.6h-2.6v13.3h-1.8V39.3z"/>
			<path class="st0" d="M122.1,44.3v1.8h-3.6v4.6h4.6v1.8h-6.4V37.7c2.4,0,3.7,0,6.1,0v1.8h-4.3v4.8H122.1z"/>
			<path class="st0" d="M126.6,52.6h-1.8V37.7h4.4l2.3,2.3v5.1l-1.6,1.7l2.6,5.7h-2l-2.3-5h-1.6V52.6z M126.6,45.8h1.8l1.2-1.3v-3.7
				l-1.2-1.2h-1.8V45.8z"/>
		</g>
	</g>
	<g>
		<polygon class="st0" points="74,33 76.8,34.4 82.5,31.5 83.6,32.1 82.5,32.7 81,32 81,33.7 82.5,34.4 85.3,33 85.3,31.3 
			82.5,29.8 76.8,32.7 75.7,32.1 76.8,31.5 78.2,32.2 78.2,30.5 76.8,29.8 74,31.3 		"/>
		<polygon class="st0" points="90.9,31.5 123.5,31.5 123.5,33 88.1,33 88.1,31.2 89.2,30.7 82.5,27.3 79.6,28.7 76.8,27.3 70,30.7 
			71.1,31.2 71.1,33 35.8,33 35.8,31.5 68.3,31.5 68.3,29.8 76.8,25.6 79.6,27 82.5,25.6 90.9,29.8 		"/>
	</g>
	<g>
		<polygon class="st0" points="74,57 76.8,55.6 82.5,58.4 83.6,57.9 82.5,57.3 81,58 81,56.3 82.5,55.6 85.3,57 85.3,58.7 
			82.5,60.1 76.8,57.3 75.7,57.9 76.8,58.4 78.2,57.7 78.2,59.4 76.8,60.1 74,58.7 		"/>
		<polygon class="st0" points="90.9,58.4 123.5,58.4 123.5,57 88.1,57 88.1,58.7 89.2,59.3 82.5,62.7 79.6,61.3 76.8,62.7 70,59.3 
			71.1,58.7 71.1,57 35.8,57 35.8,58.4 68.3,58.4 68.3,60.1 76.8,64.4 79.6,63 82.5,64.4 90.9,60.1 		"/>
	</g>
	<g>
		<polygon class="st0" points="90.9,71.3 85.3,74.1 79.6,71.3 74,74.1 68.3,71.3 68.3,69.6 62.6,69.6 62.6,68.2 71.1,68.2 
			71.1,69.9 70,70.5 74,72.4 79.6,69.6 85.3,72.4 89.2,70.5 88.1,69.9 88.1,68.2 96.6,68.2 96.6,69.6 90.9,69.6 		"/>
	</g>
	<path class="st0" d="M79.6,0L20.8,29.4v31.1L79.6,90l58.9-29.4V29.4L79.6,0z M137.1,59.6L79.6,88.3L22.2,59.6V30.4L79.6,1.7
		l57.5,28.7V59.6z"/>
</g>
</svg>
