<?xml version="1.0" encoding="utf-8"?>
<!-- Generator: Adobe Illustrator 24.2.3, SVG Export Plug-In . SVG Version: 6.00 Build 0)  -->
<svg version="1.1" id="Layer_1" xmlns="http://www.w3.org/2000/svg" xmlns:xlink="http://www.w3.org/1999/xlink" x="0px" y="0px"
	 viewBox="0 0 160 90" style="enable-background:new 0 0 160 90;" xml:space="preserve">
<style type="text/css">
	.st0{fill:#FFFFFF;}
</style>
<g>
	<path class="st0" d="M150.3,57c-5.6-3.7-14-2.2-16.8-8.9l-3.6,2.1c-2.8,1.7-5.7,4.9-9.4,4.3c-1.4-0.2-2.1-2.1-2.2-3.4
		c-0.7-5.5,1.3-13.3,5.9-17c0.7-0.6,1.9,0.4,2.4,1.4c0,4.1-3.7,8.4-2.1,12.8c3.1-0.4,6.1-3.1,8.6-5.6c1.2-1.8,1.9-5,4.8-4.9
		c0.9,8.1,8.6,8.9,15.6,12.5c0.9,0.4,1.7,1.8,1.5,3.2L150.3,57"/>
	<path class="st0" d="M51.4,52c-1.6-2-0.8-4.7,0.2-7.1c3.8-7.3,11.7-13.5,20.6-13.6c1.1,0,2.5,0.9,2.7,2.1c0.1,0.5,0.6,0.9,0,1.5
		c-0.7,0.5-1.1,0.7-1.8,1.3c-1.3,1-2.8,3.1-5.2,2.1c-0.2-0.2-0.4-0.7-0.7-1.3c-1.5-0.9-3.6,0.3-4.7,1.2c-2.3,2.2-5.1,5.8-4.3,9.5
		c0.2,1.1,0.8,2.1,1.8,2.4c3.2,0.9,7-0.3,9.4-2.8l0.6-6.2l6.1-3.1c0.6,0,1.4,0.3,2.1,0.4c0.2,3.6-1,8.9,3.5,11l3.2,1.2l0.1,0.5
		c-2.3,2-6.5,3.1-9.7,2.2c-1.9-0.7-3.3-1.7-4.3-3.6c-4.6,2.2-10,5.3-15,4.7C54.2,54.1,52.4,53.3,51.4,52"/>
	<path class="st0" d="M111,56.6c-2.8-1.5-3.3-5.6-4.2-8.6c-0.7-7.7,0.8-15.6,3-23.5c-1.5-1.6-4.5-1.8-6.6-1.4
		c-8.9,7.5-18.3-3.6-26.6,0.6c-0.3,0.3-0.8,0.8-1.5,0.8c-0.4-0.4-0.7-0.8-1.2-1.6c1.2-1.8,3-3.5,5.2-3.6c8,2.5,16.2,5.1,24.3,1
		c2.3-0.4,4.5,0.1,6.9,1.5c1.3-2.4,2.3-5.8,4.8-7.3c1.1-0.2,1.8,0.8,2.4,1.8c1.1,2.3-1.6,4.9-1.3,7.5c7.5-1.4,14.4-1.1,21.7,2.8
		c0,0.2,0.7,0.7,0,1.2c-7.4-1.5-15.6-3-22.9-0.9c-2.1,8.7-3.7,17.6,0.9,26.5C114.8,54.7,113.1,55.9,111,56.6L111,56.6"/>
	<path class="st0" d="M87,53.9c0.2-5.5,0-12-2.9-17.6c0.1-1.7,1-4,2.8-5.1c1.7-0.1,2.8,1.6,3.7,2.6c0.6,1.4,1.5,2.9,1.8,4.5
		c2.2-3.2,6.6-5.9,10.9-4.5c0.7,0.7,2.1,1.6,1.8,2.9l-3.1,2.7c-0.7,0.8-2,0.6-2.7,1.6c-1.1-0.1-2.9-0.7-3.6,0.5l-2.8,8.2L87,53.9"/>
	<path class="st0" d="M38.1,74.9l-0.8-0.3c-1.1-2.7,1.7-5.9,3.2-8.7l2.6-2.9c1.6-1.8,5.2-4,7.5-2.2c3.1,2.4,6.5,5.6,10.8,3.2
		c5.1-1.8,9.7-7,15.3-4c2.3,1.3,4.8,4.6,8,3.3c3.6-2.2,7.6-4.7,11.9-2c2.5,1.5,5.4,4.3,8.7,2.8c8.4-7.4,17.5,5.2,26.4,1.5l0.9,0.3
		c0.9,1.1,0.6,2.8,0,4.2c-1.8,3.6-7,3.6-10.5,3.7c-9.2-8.1-19.5,2.2-28.1-4.5c-2-1.6-4.3-1.7-6-0.6c-3.5,2.1-6.8,4.2-11,1.4
		c-2.2-1.9-5.2-4.1-8.5-2.3c-4.9,2.8-10.8,6.8-16.3,4.3L47,68.4c-2.8-2.2-5.6,3.5-7.4,6.3L38.1,74.9"/>
	<path class="st0" d="M31.8,89.8h-2.2v-3.5c0-0.3,0-0.6-0.1-0.9c0-0.3-0.1-0.5-0.1-0.6c-0.1-0.2-0.2-0.3-0.3-0.3
		c-0.2-0.1-0.3-0.1-0.6-0.1c-0.2,0-0.4,0-0.6,0.1s-0.4,0.2-0.6,0.3v5.1h-2.2v-10h2.2v3.5c0.3-0.3,0.7-0.6,1.1-0.7
		c0.3-0.2,0.7-0.2,1.2-0.2c0.7,0,1.3,0.2,1.7,0.7c0.3,0.4,0.6,1.1,0.6,2L31.8,89.8"/>
	<path class="st0" d="M36.5,89.9c-1.1-0.1-1.9-0.4-2.5-0.9c-0.7-0.6-1.1-1.6-1.1-2.7c0-1.2,0.3-2.1,1-2.8c0.6-0.7,1.5-1,2.6-1.1v1.4
		c-0.4,0-0.7,0.1-0.9,0.4c-0.2,0.2-0.4,0.6-0.4,1.1h1.3v1.3h-1.3c0.1,0.3,0.1,0.6,0.2,0.8c0.1,0.2,0.3,0.4,0.4,0.5
		c0.2,0.2,0.4,0.2,0.7,0.3V89.9 M36.5,82.3h0.3c1.1,0,1.9,0.3,2.4,0.9c0.6,0.6,0.8,1.4,0.8,2.5v0.8h-3.6v-1.3h1.3
		c0-0.5-0.1-0.8-0.3-1.1c-0.2-0.2-0.5-0.3-0.9-0.3h-0.1L36.5,82.3L36.5,82.3z M37.1,90c-0.2,0-0.4-0.1-0.6-0.1v-1.7
		c0.3,0.1,0.6,0.1,0.8,0.1c0.3,0,0.5-0.1,0.8-0.1c0.2-0.1,0.5-0.1,0.7-0.2s0.4-0.2,0.5-0.2c0.2-0.1,0.3-0.2,0.4-0.3h0.2v1.8
		c-0.2,0.1-0.3,0.2-0.5,0.2c-0.1,0.1-0.3,0.1-0.6,0.2c-0.2,0.1-0.5,0.1-0.7,0.2C37.8,89.9,37.5,90,37.1,90"/>
	<path class="st0" d="M44,82.3v1.6h-0.6c-0.3,0-0.6,0-0.9,0.1s-0.7,0.2-1,0.4h-0.2v-1.7c0.2-0.1,0.6-0.2,1.1-0.2
		C42.9,82.4,43.4,82.3,44,82.3L44,82.3 M44,86.4c-0.2,0.1-0.3,0.1-0.5,0.2s-0.3,0.2-0.4,0.3c-0.1,0.2-0.2,0.3-0.2,0.6
		s0.1,0.6,0.3,0.7s0.4,0.2,0.8,0.2l0,0v1.3c-0.1,0.1-0.3,0.1-0.4,0.1c-0.2,0.1-0.4,0.1-0.8,0.1c-0.6,0-1.2-0.2-1.6-0.7
		c-0.4-0.4-0.6-0.9-0.6-1.6c0-0.5,0.1-0.9,0.3-1.3c0.2-0.3,0.6-0.6,0.9-0.7c0.4-0.2,0.9-0.3,1.4-0.4c0.2,0,0.4-0.1,0.7-0.1L44,86.4
		L44,86.4z M45.2,87.8v-1.5c-0.4,0.1-0.7,0.1-0.9,0.1H44v-1.3c0.3-0.1,0.7-0.1,1.1-0.1v-0.1c0-0.4-0.2-0.7-0.4-0.8
		c-0.2-0.1-0.4-0.2-0.7-0.2v-1.6c1.1,0.1,1.9,0.3,2.4,0.6c0.6,0.4,0.9,1.1,0.9,1.9v4.8h-2.2v-0.7c-0.2,0.1-0.3,0.2-0.4,0.3
		c-0.1,0.1-0.3,0.2-0.4,0.3c-0.1,0.1-0.2,0.1-0.2,0.1v-1.3c0.2,0,0.3-0.1,0.6-0.2C44.8,88.1,45,88,45.2,87.8"/>
	<path class="st0" d="M52,89.8c-0.1,0.1-0.2,0.1-0.2,0.1c-0.2,0-0.4,0.1-0.7,0.1c-0.8,0-1.4-0.3-1.9-1s-0.7-1.6-0.7-2.7
		c0-0.6,0.1-1.2,0.2-1.6c0.2-0.4,0.4-0.8,0.7-1.2c0.3-0.3,0.6-0.6,0.9-0.8c0.4-0.2,0.8-0.2,1.2-0.2H52v1.7c-0.3,0.1-0.6,0.3-0.8,0.6
		c-0.3,0.3-0.4,0.9-0.4,1.6s0.1,1.2,0.3,1.5s0.5,0.4,0.9,0.4V89.8 M55.5,89.8h-2.2v-0.7c-0.2,0.1-0.3,0.2-0.5,0.4
		c-0.2,0.1-0.3,0.2-0.5,0.3c-0.1,0.1-0.2,0.1-0.3,0.1v-1.6h0.1c0.2,0,0.4,0,0.6-0.1c0.2-0.1,0.4-0.2,0.6-0.3v-3.5
		c-0.1-0.1-0.3-0.1-0.4-0.1c-0.2-0.1-0.3-0.1-0.4-0.1H52v-1.7c0.2,0,0.3,0.1,0.4,0.1c0.2,0.1,0.5,0.2,0.8,0.3v-3h2.2L55.5,89.8
		L55.5,89.8L55.5,89.8z"/>
	<path class="st0" d="M60.2,89.9c-1.1-0.1-1.9-0.4-2.5-0.9c-0.7-0.6-1.1-1.6-1.1-2.7c0-1.2,0.3-2.1,1-2.8c0.6-0.7,1.4-1,2.6-1.1v1.4
		c-0.4,0-0.7,0.1-0.9,0.4c-0.2,0.2-0.4,0.6-0.4,1.1h1.3v1.3h-1.3c0,0.3,0.1,0.6,0.2,0.8c0.1,0.2,0.2,0.4,0.4,0.5
		c0.2,0.2,0.4,0.2,0.7,0.3V89.9 M60.2,82.3h0.2c1.1,0,1.9,0.3,2.5,0.9s0.8,1.4,0.8,2.5v0.8h-3.5v-1.3h1.3c0-0.5-0.1-0.8-0.3-1.1
		c-0.2-0.2-0.5-0.3-0.9-0.3h-0.1V82.3z M60.9,90c-0.2,0-0.4-0.1-0.6-0.1v-1.7c0.2,0.1,0.5,0.1,0.8,0.1s0.5-0.1,0.8-0.1
		c0.2-0.1,0.4-0.1,0.7-0.2c0.2-0.1,0.3-0.2,0.5-0.2c0.2-0.1,0.3-0.2,0.4-0.3h0.2v1.8c-0.2,0.1-0.3,0.2-0.5,0.2
		c-0.2,0.1-0.3,0.1-0.6,0.2c-0.2,0.1-0.5,0.1-0.8,0.2C61.5,89.9,61.2,90,60.9,90"/>
	<path class="st0" d="M77.2,89.8v-3.6v-0.9c0-0.2-0.1-0.4-0.1-0.6c-0.1-0.2-0.2-0.3-0.3-0.3c-0.2-0.1-0.3-0.1-0.6-0.1
		c-0.2,0-0.3,0-0.5,0.1s-0.4,0.2-0.6,0.3v5.1H73v-3.6c0-0.3,0-0.6-0.1-0.9c0-0.2-0.1-0.4-0.1-0.6c-0.1-0.2-0.2-0.3-0.3-0.3
		c-0.1-0.1-0.3-0.1-0.6-0.1c-0.2,0-0.4,0.1-0.6,0.1c-0.2,0.1-0.3,0.2-0.5,0.3v5.1h-2.2v-7.1h2.2v0.8c0.4-0.3,0.7-0.6,1.1-0.7
		c0.3-0.2,0.7-0.2,1.1-0.2s0.8,0.1,1.2,0.3c0.3,0.2,0.6,0.5,0.7,0.9c0.4-0.4,0.8-0.7,1.2-0.9c0.4-0.2,0.8-0.3,1.2-0.3
		c0.3,0,0.6,0.1,0.9,0.1c0.3,0.1,0.5,0.3,0.7,0.5s0.3,0.5,0.4,0.8s0.2,0.7,0.2,1.2v4.6L77.2,89.8"/>
	<path class="st0" d="M84.2,79.8v1.3c-0.1,0-0.1,0-0.1-0.1c-0.2-0.1-0.2-0.2-0.4-0.2c-0.2-0.1-0.3-0.1-0.4-0.1
		c-0.2,0-0.3,0.1-0.4,0.2c-0.1,0.2-0.1,0.3-0.1,0.6h-1.3c0-0.6,0.2-1.1,0.5-1.5s0.8-0.6,1.3-0.6c0.2,0,0.4,0.1,0.6,0.1
		C84,79.7,84.1,79.7,84.2,79.8 M84.2,90c-1.1,0-2-0.3-2.7-1c-0.6-0.7-0.9-1.6-0.9-2.8c0-1.2,0.3-2.1,0.9-2.8c0.7-0.7,1.6-1,2.7-1V84
		c-0.2,0-0.3,0-0.5,0.1s-0.3,0.2-0.4,0.4c-0.1,0.2-0.2,0.4-0.3,0.7c-0.1,0.3-0.1,0.7-0.1,1.1s0,0.8,0.1,1.1c0.1,0.3,0.2,0.5,0.3,0.7
		c0.1,0.2,0.3,0.3,0.4,0.4c0.2,0.1,0.3,0.1,0.5,0.1V90z M84.2,81.2v-1.3h0.1c0.2,0.1,0.3,0.2,0.4,0.2c0.2,0.1,0.3,0.2,0.4,0.2
		c0.2,0,0.3-0.1,0.4-0.2s0.2-0.3,0.2-0.6H87c-0.1,0.7-0.2,1.2-0.5,1.6c-0.3,0.3-0.8,0.5-1.3,0.5c-0.2,0-0.4-0.1-0.6-0.1
		C84.5,81.3,84.4,81.2,84.2,81.2 M87.9,86.1c0,1.2-0.3,2.1-0.9,2.8c-0.7,0.7-1.6,1-2.7,1v-1.6c0.2,0,0.4-0.1,0.6-0.1
		c0.2-0.1,0.3-0.2,0.4-0.4c0.1-0.2,0.2-0.4,0.3-0.6c0.1-0.3,0.1-0.6,0.1-1.1c0-0.4,0-0.8-0.1-1.1c-0.1-0.3-0.2-0.5-0.3-0.7
		C85.2,84.1,85,84,84.9,84c-0.2-0.1-0.3-0.1-0.6-0.1v-1.6c1.2,0,2.1,0.3,2.7,1S87.9,84.9,87.9,86.1"/>
	<path class="st0" d="M91.8,89.9c-0.9,0-1.6-0.2-2-0.6s-0.6-1-0.6-1.8v-3.3h-0.9v-1.6h0.9v-2h2.2v2h2.1v1.6h-2.1v2.5v0.7
		c0,0.2,0,0.3,0.1,0.5s0.1,0.3,0.3,0.3c0.2,0.1,0.4,0.2,0.7,0.2c0.1,0,0.3-0.1,0.4-0.1c0.2-0.1,0.3-0.1,0.4-0.1h0.2v1.6
		c-0.2,0.1-0.5,0.1-0.8,0.2C92.5,89.9,92.2,89.9,91.8,89.9"/>
	<path class="st0" d="M97.5,89.9c-1.1-0.1-1.9-0.4-2.5-0.9c-0.7-0.6-1.1-1.6-1.1-2.7c0-1.2,0.3-2.1,1-2.8c0.6-0.7,1.5-1,2.6-1.1v1.4
		c-0.4,0-0.7,0.1-0.9,0.4c-0.2,0.2-0.4,0.6-0.4,1.1h1.3v1.3h-1.3c0.1,0.3,0.1,0.6,0.2,0.8c0.1,0.2,0.3,0.4,0.4,0.5
		c0.2,0.2,0.4,0.2,0.7,0.3L97.5,89.9 M97.5,82.3h0.3c1.1,0,1.9,0.3,2.4,0.9c0.6,0.6,0.8,1.4,0.8,2.5v0.8h-3.6v-1.3h1.3
		c0-0.5-0.1-0.8-0.3-1.1c-0.2-0.2-0.5-0.3-0.9-0.3h-0.1L97.5,82.3L97.5,82.3z M98.2,90c-0.2,0-0.4,0-0.6-0.1v-1.7
		c0.3,0.1,0.6,0.1,0.8,0.1c0.3,0,0.5-0.1,0.8-0.1c0.2-0.1,0.5-0.1,0.7-0.2s0.4-0.2,0.5-0.2c0.2-0.1,0.3-0.2,0.4-0.3h0.2v1.8
		c-0.2,0.1-0.3,0.2-0.5,0.2c-0.1,0.1-0.3,0.1-0.6,0.2c-0.2,0.1-0.5,0.1-0.7,0.2C98.8,89.9,98.6,90,98.2,90"/>
	<path class="st0" d="M105,89.9c-0.9,0-1.6-0.2-1.9-0.6c-0.4-0.4-0.6-1-0.6-1.8v-3.3h-0.9v-1.6h0.9v-2h2.2v2h2.1v1.6h-2.1v2.5v0.7
		c0,0.2,0,0.3,0.1,0.5s0.2,0.3,0.3,0.3c0.2,0.1,0.4,0.2,0.7,0.2c0.1,0,0.3-0.1,0.4-0.1c0.2-0.1,0.3-0.1,0.4-0.1h0.2v1.6
		c-0.2,0.1-0.5,0.1-0.8,0.2C105.7,89.9,105.3,89.9,105,89.9"/>
	<path class="st0" d="M110.7,89.9c-1.1-0.1-1.9-0.4-2.5-0.9c-0.7-0.6-1.1-1.6-1.1-2.7c0-1.2,0.3-2.1,1-2.8c0.6-0.7,1.5-1,2.6-1.1
		v1.4c-0.4,0-0.7,0.1-0.9,0.4c-0.2,0.2-0.4,0.6-0.4,1.1h1.3v1.3h-1.3c0,0.3,0.1,0.6,0.2,0.8c0.1,0.2,0.3,0.4,0.4,0.5
		c0.2,0.2,0.4,0.2,0.7,0.3L110.7,89.9 M110.7,82.3h0.2c1.1,0,1.9,0.3,2.5,0.9s0.8,1.4,0.8,2.5v0.8h-3.6v-1.3h1.3
		c0-0.5-0.1-0.8-0.3-1.1c-0.2-0.2-0.5-0.3-0.9-0.3h-0.1L110.7,82.3L110.7,82.3z M111.3,90c-0.2,0-0.4,0-0.6-0.1v-1.7
		c0.3,0.1,0.6,0.1,0.8,0.1c0.3,0,0.5-0.1,0.8-0.1c0.2-0.1,0.5-0.1,0.7-0.2s0.4-0.2,0.5-0.2c0.2-0.1,0.3-0.2,0.4-0.3h0.2v1.8
		c-0.2,0.1-0.3,0.2-0.5,0.2c-0.1,0.1-0.3,0.1-0.6,0.2c-0.2,0.1-0.5,0.1-0.7,0.2C112,89.9,111.7,90,111.3,90"/>
	<rect x="119.2" y="79.8" class="st0" width="2.2" height="9.9"/>
	<path class="st0" d="M125.5,81.5H123v-1.7h2.3v1.7H125.5z M125.4,89.8h-2.2v-7.1h2.2V89.8z"/>
	<path class="st0" d="M133.8,89.8h-2.2v-3.5c0-0.3-0.1-0.6-0.1-0.9s-0.1-0.5-0.1-0.6c-0.1-0.2-0.2-0.3-0.3-0.3
		c-0.2-0.1-0.3-0.1-0.6-0.1c-0.2,0-0.3,0-0.6,0.1c-0.2,0.1-0.4,0.2-0.6,0.3v5.1h-2.2v-7.1h2.2v0.8c0.3-0.3,0.7-0.6,1.1-0.7
		c0.3-0.2,0.7-0.2,1.1-0.2c0.7,0,1.3,0.2,1.7,0.7c0.4,0.4,0.6,1.1,0.6,2L133.8,89.8"/>
	<path class="st0" d="M142.1,89.8h-2.2v-3.5c0-0.3,0-0.6-0.1-0.9c0-0.3-0.1-0.5-0.1-0.6c-0.1-0.2-0.2-0.3-0.3-0.3
		c-0.1-0.1-0.3-0.1-0.6-0.1c-0.2,0-0.4,0-0.6,0.1s-0.4,0.2-0.6,0.3v5.1h-2.2v-7.1h2.2v0.8c0.4-0.3,0.7-0.6,1.1-0.7
		c0.3-0.2,0.7-0.2,1.2-0.2c0.7,0,1.3,0.2,1.7,0.7c0.4,0.4,0.6,1.1,0.6,2L142.1,89.8"/>
	<path class="st0" d="M34.8,58.3c-1.3,0-2.1-1.6-2.4-2.7c-2-12.4-0.3-24.9-1.6-37.1c-1.8-1.9-4.7-2.1-7.2-1.3
		c-1.7,0.6-3.5,1.6-4,3.6c-0.2,1.7,0.2,3.5,1.6,4.5c1.1,0.9,2.9,1.8,4.7,0.9c1.2-1.2,2.3-3.3,1.1-5c-0.3-0.6-1.5-0.3-2,0.1
		c-0.6,0.3-0.7,1.4-0.9,2.1c-0.8,0.4-1.4,0.2-2.1-0.3c-0.4-1.9,0.6-4.2,2.2-5.4c0.9,0.6,1.8,0.2,2.9,0.7c1.6,0.9,2.7,2.8,2.7,5
		c0.1,1.6-0.9,3.5-2.1,4.5c-1.7,1.2-3.9,1.6-6,1.2c-2.7-1.1-5.4-3.6-5.4-6.9c0-3,1.8-5.6,4.2-7.2c2.9-1.3,6-2,9.3-0.8l0.7,0.3
		c0.6-0.4,0-1.6,0-2.5c0.2-0.7,0.7-0.9,1.6-1.4l-12.2,2.9c-5,1.2-10.6,5.2-14.9,3.4l1.6-7.7c15-6.6,35.9-10,51.1-9.1
		c1.4,0.9,0.8,3.3,1.6,5c-0.6,1.1,1,2.2,0,3.6L43,9.6c0.4,0.3,0.3,0.3,0.6,0.4c0.6,0.9,0.5,3.2,1.8,3.4c2.5-2.2,6.1-2.6,9.5-1.7
		c1.9,1,3.6,1.9,4.3,4.2c0.3,2.7-0.3,6.2-2.8,7.7c-1.8,0.9-4,0.9-5.9,0c-1.3-0.8-2.7-1.9-3.1-3.9c0.1-1.4,0.4-2.7,2.1-3.5
		c0.8-0.7,2.1-0.7,3.2-0.5c1.4,0.8,2.8,2.2,1.9,3.5l-0.4,0.3c-0.6-0.3-1.4-0.2-1.8-1.2C52,18,51.5,17.9,50.8,18
		c-0.6,0.1-1.5,1.3-0.8,2.4c0.5,0.8,1.7,1.9,3.4,1.9c0.3,0,0.9-0.1,1.2-0.3c2-1.1,3-3.6,1.9-6.2c-0.7-1.7-3.5-2.7-5.6-2.1
		c-1.8,0.4-3,1.3-4.3,2.4c-0.2,0.3-0.1,0.7-0.2,1.2c-1.3,11.7-0.8,24,0.8,36.1c0,0.2,0.2,0.5,0.5,0.9c-0.4,0.5-1.3,0.9-2.4,1.3
		L41,5.9l-1.8,0.2l4.4,50.2c-0.6,0.2-1.2,0.3-1.8,0.4L37.3,6.3l-1.9,0.2l4.5,50.4c-0.7,0.2-1.3,0.3-1.8,0.4L33.6,6.4l-1.7,0.2
		l4.5,51.1c-0.5,0.1-0.9,0.3-1.2,0.4L34.8,58.3"/>
</g>
</svg>
