<?xml version="1.0" encoding="utf-8"?>
<!-- Generator: Adobe Illustrator 24.2.3, SVG Export Plug-In . SVG Version: 6.00 Build 0)  -->
<svg version="1.1" id="Layer_1" xmlns="http://www.w3.org/2000/svg" xmlns:xlink="http://www.w3.org/1999/xlink" x="0px" y="0px"
	 viewBox="0 0 150 100" style="enable-background:new 0 0 150 100;" xml:space="preserve">
<style type="text/css">
	.st0{fill:#FFFFFF;}
</style>
<path class="st0" d="M68.2,47.2c2.8,0,3.9-1.2,6.8-1.2s3.9,1.2,6.8,1.2c5.6,0.1,7.3-9,7.2-11c-0.4-0.3-2.4,1.6-2.9,3.2
	c-1.1-1.8-2.7-8-3.3-8.6c-0.7,4.7-0.2,8.5,1.8,11.9c-0.8,1.2-1.9,2-3.2,2.1h-4.1c2.7-0.9,4.7-3.5,4.7-6.6c0-1.2-0.3-2.4-0.9-3.4
	c-0.4,1-3,7-4.8,7.6v-3.6c3-2.5,5-6,4.6-9.8c0,0-2.8,3.6-4.6,5.3c0.1-3.1-0.3-6.6-1.2-10.5c-0.7,3.8-1.1,7.3-1.2,10.5
	C72,32.7,69.2,29,69.2,29c-0.4,3.8,1.5,7.3,4.6,9.8v3.6c-1.8-0.5-4.4-6.6-4.8-7.6c-0.6,1-0.9,2.1-0.9,3.4c0,3,2,5.6,4.7,6.6h-4.1
	c-1.3-0.1-2.4-0.9-3.2-2.1c2-3.4,2.5-7.2,1.8-11.9c-0.7,0.6-2.2,6.7-3.3,8.6c-0.5-1.6-2.5-3.5-2.9-3.2
	C60.9,38.2,62.6,47.2,68.2,47.2z M86.1,47.2H125L88.7,44C88,45.4,87.1,46.6,86.1,47.2z M78.5,63.7c-0.8,0-1.2-0.3-1.3-1
	c-0.1-1.2-0.2-1.9-0.5-2.4c-0.6-1.6-2.2-2.1-5.3-2.4v-0.1c2.9-0.3,5.4-1,5.4-3.3c0-0.7-0.2-1.4-0.9-2c-0.8-0.7-2.1-1-5-1
	c-1.5,0-4.2,0.1-5.7,0.1c-1.2,0-3.6-0.1-4.2-0.1l-0.1,0.8l1.5,0.1c0.7,0.1,0.9,0.2,0.9,0.5c0,0.4,0.1,1.1,0.1,2.7V60
	c0,1.7-0.1,2.5-0.1,3S63,63.6,61,63.7l-0.1,0.8c0.8,0,2.8-0.1,4.7-0.1c1.7,0,3.6,0.1,4.6,0.1v-0.8c-2-0.1-2.1-0.3-2.2-0.7
	c0-0.6,0-1.2,0-2.7v-2h0.7c1.9,0,3,0.2,3.2,1.9c0.1,0.6,0.1,1.1,0.2,1.8c0.2,1.7,1.5,2.5,4.4,2.5c0.9,0,2.3-0.1,2.7-0.2l0.2-0.8
	C79.1,63.6,78.7,63.7,78.5,63.7z M68.7,57.5H68v-1.7c0-2,0.1-2.7,0.1-2.9c0-0.3,0.1-0.4,0.4-0.5s0.5-0.1,0.9-0.1
	c1.2,0,1.7,0.3,2.1,0.8c0.3,0.4,0.4,1,0.4,1.6C71.9,56.9,70.8,57.5,68.7,57.5z M50.5,64.8c5.7,0,9.5-2.2,9.5-7
	c0-4.6-4.3-6.6-9.3-6.6l0,0c-6.2,0-9.7,2.8-9.7,6.9C41.1,62.5,44.8,64.8,50.5,64.8z M47.5,53.5c0.7-1,1.7-1.5,2.9-1.5l0,0
	c1.4,0,2.4,0.5,3.2,1.6c0.7,1.1,1.1,2.8,1.1,4.6c0,1.9-0.4,3.6-1,4.5c-0.7,0.9-1.8,1.3-3,1.3s-2.3-0.5-3-1.4
	c-0.8-0.9-1.3-2.7-1.3-4.8C46.5,55.8,46.9,54.4,47.5,53.5z M129.4,51.4c-1,0.1-3.3,0.2-6.3,0.2h-2.8c-3,0-5.3-0.1-6.3-0.2
	c-0.1,0.9-0.3,3.1-0.6,4.9l0.9,0.1c0.4-1.1,0.8-2.1,1.4-3c0.6-0.8,1-1,3.6-1c0,0.5,0,1.3,0,2.5v5c0,1.8,0,2.3-0.1,3
	c0,0.4-0.3,0.6-1,0.6c-0.8,0.1-1.2,0.1-1.8,0.1l0.1,0.8c1.4,0,2.9-0.1,4.7-0.1h0.1l0,0c0.1,0,0.2,0,0.3,0c0.1,0,0.2,0,0.3,0l0,0h0.1
	c1.9,0,3.4,0.1,4.7,0.1l0.1-0.8c-0.6,0-1-0.1-1.8-0.1c-0.6-0.1-0.9-0.2-1-0.6c-0.1-0.7-0.1-1.2-0.1-3v-5c0-1.2,0-2,0-2.5
	c2.6,0,3.1,0.2,3.6,1c0.7,0.9,1.1,1.8,1.4,3l0.9-0.1C129.7,54.5,129.5,52.3,129.4,51.4z M113.5,63.6c-0.6-0.1-1-0.2-1.2-0.6
	c-0.8-1.2-3.9-8.4-5.4-11.7c-0.5,0.3-3.4,0.4-4.2,0.4c-0.1,0.5-0.2,0.9-0.4,1.4c-0.7,1.5-3.8,7.8-4.6,9.1c-0.7,1.1-1.3,1.3-2.8,1.4
	v0.8c1.3,0,2.7-0.1,3.5-0.1c1.3,0,2.3,0.1,3.3,0.1v-0.8c-2.4-0.1-2.6-0.3-2.3-1.3c0.1-0.5,0.5-1.3,1.1-2.6c0.5,0,1.5,0,2.5,0
	s2,0,2.7,0c0.4,1,1,2.3,1.3,3.1c0.2,0.6,0,0.7-1.7,0.8v0.8c2-0.1,2.6-0.1,4.6-0.1s3.7,0,4.6,0.1v-0.8L113.5,63.6z M103.1,58.8
	c-0.8,0-1.7,0-2.3,0c1.2-2.6,1.8-4.1,2.4-5.3c0.7,1.7,1.4,3.6,2.1,5.3C104.8,58.8,104,58.8,103.1,58.8z M61.3,44L25,47.2h38.9
	C62.9,46.6,62,45.4,61.3,44z M96.9,55.2c0-1-0.4-2.1-1.4-2.8c-0.9-0.6-2-1-5.1-1c-2,0-4,0.1-5.5,0.1s-3.6-0.1-4.2-0.1l-0.2,0.8
	l1.8,0.2c0.5,0,0.7,0.2,0.7,0.6c0,0.4,0.1,1,0.1,2.4v4c0,1.3-0.1,2.6-0.1,3.4c0,0.6-0.3,0.8-1.3,0.8l-1.1,0.1v0.8
	c1.2,0,2.7-0.1,4.5-0.1c2.4,0,3.9,0.1,5.5,0.1v-0.8L89,63.5c-0.8-0.1-1.1-0.2-1.1-0.6c0-0.4-0.1-0.9-0.1-1.9v-1.6
	c1.1,0.1,2.3,0.1,3.3,0.1c1.7,0,3.4-0.4,4.6-1.2C96.3,57.6,96.9,56.6,96.9,55.2z M91.3,58c-0.3,0.3-0.9,0.6-1.5,0.6
	c-0.4,0-1.7,0-2.2,0v-2.9c0-1.4,0.1-2.3,0.1-2.8c0-0.3,0.2-0.4,1.2-0.4c1.1,0,1.6,0.2,2.1,0.6c0.5,0.4,0.9,1.3,0.9,2.5
	C92,56.8,91.7,57.5,91.3,58z M34.2,63.9c3.7-1.1,5-3.5,5-6.2c0-2.6-1.2-4.4-3.5-5.4c-1.1-0.5-2.6-0.8-5.8-0.8c-2.4,0-4,0.1-5.7,0.1
	c-1.6,0-3.6-0.1-4.1-0.1L20,52.2l1.6,0.1c0.5,0,0.7,0.1,0.8,0.6c0,0.4,0.1,1.2,0.1,2.8v3.7c0,1.9-0.1,3.1-0.2,3.5
	c0,0.3-0.2,0.5-1,0.6L20,63.7v0.8c0.6,0,2.5-0.1,4.1-0.1s3.4,0.1,5,0.1C31.1,64.5,32.9,64.3,34.2,63.9z M27.3,63.2
	c-0.1-0.5-0.1-1.2-0.1-3.8V56c0-2.2,0-2.9,0.1-3.2c0-0.3,0.1-0.5,1.6-0.5c1.7,0,2.8,0.3,3.7,1.1c1,0.9,1.5,2.3,1.5,4.4
	c0,2.2-0.7,3.7-1.4,4.4c-0.8,0.8-1.8,1.4-4.2,1.4C27.4,63.7,27.3,63.5,27.3,63.2z M50.6,74.2h1.5v-0.9h-1.5v-0.9h1.8v-0.9h-2.8V76
	h2.8v-0.9h-1.8V74.2z M27.9,71.6h-1.2l-1,1.8h-0.2v-1.8h-1V76h1v-1.8h0.2l0.9,1.8H28l-1.3-2.3L27.9,71.6z M35.5,74L35.5,74l-1.3-2.5
	H33V76h1v-2.5l0,0l1.3,2.5h1.1v-4.5h-1V74H35.5z M48.6,73c0-0.7-0.4-1.4-1.4-1.4h-1.8V76h1v-1.7h0.3l0.8,1.7h1.2l-1-1.8
	C48.4,74.1,48.6,73.5,48.6,73z M47,73.5h-0.4v-1.1H47c0.3,0,0.6,0,0.6,0.5C47.6,73.5,47.2,73.5,47,73.5z M39.1,74.8L39.1,74.8
	l-0.8-3.2h-1.1l1.2,4.5h1.3l1.2-4.5h-1.1L39.1,74.8z M30.2,71.5c-1.3,0-1.8,1-1.8,2.3s0.5,2.3,1.8,2.3s1.8-1,1.8-2.3
	C32.1,72.6,31.5,71.5,30.2,71.5z M30.2,75.2c-0.6,0-0.8-0.4-0.8-1.4s0.2-1.4,0.8-1.4c0.6,0,0.8,0.4,0.8,1.4
	C31,74.8,30.8,75.2,30.2,75.2z M55.8,74L55.8,74l-1.3-2.5h-1.1V76h1v-2.5l0,0l1.3,2.5h1.1v-4.5h-1V74z M42.7,74.2h1.5v-0.9h-1.5
	v-0.9h1.8v-0.9h-2.8V76h2.8v-0.9h-1.8V74.2z M70.8,71.6h-1.2l-1,1.8h-0.2v-1.8h-1V76h1v-1.8h0.2l0.9,1.8h1.3l-1.3-2.3L70.8,71.6z
	 M108.8,71.5c-1.3,0-1.8,1-1.8,2.3s0.5,2.3,1.8,2.3s1.8-1,1.8-2.3C110.7,72.6,110.1,71.5,108.8,71.5z M108.8,75.2
	c-0.6,0-0.8-0.4-0.8-1.4s0.2-1.4,0.8-1.4c0.6,0,0.8,0.4,0.8,1.4C109.6,74.8,109.4,75.2,108.8,75.2z M105,73.3h-1.4v-1.8h-1V76h1
	v-1.8h1.4V76h1v-4.5h-1V73.3z M97.2,71.5L96,76h1.1l0.2-0.9h1.1l0.2,0.9h1.1l-1.2-4.5H97.2z M97.5,74.3l0.4-1.4l0,0l0.3,1.4H97.5z
	 M111.3,72.4h1V76h1v-3.6h1v-0.9h-3V72.4z M116.2,74.2h1.5v-0.9h-1.5v-0.9h1.8v-0.9h-2.8V76h2.8v-0.9h-1.8V74.2z M123.6,71.6h-1V76
	h2.8v-0.9h-1.8V71.6z M94.2,74.8c0,0.4-0.2,0.4-0.4,0.4c-0.2,0-0.4-0.1-0.5-0.1v0.8c0.2,0.1,0.5,0.2,0.8,0.2c0.6,0,1.1-0.1,1.1-1.3
	v-3.2h-1V74.8z M120,71.6h-1V76h2.8v-0.9H120V71.6z M77.1,73.4c-0.5-0.2-0.7-0.4-0.7-0.6c0-0.3,0.2-0.4,0.5-0.4s0.8,0.1,1.1,0.2
	v-0.9c-0.3-0.1-0.8-0.2-1.2-0.2c-0.6,0-1.5,0.3-1.5,1.2c0,0.7,0.4,1.1,1,1.4c0.5,0.3,0.7,0.4,0.7,0.7c0,0.3-0.3,0.4-0.6,0.4
	c-0.3,0-0.8-0.1-1.2-0.2v0.9c0.3,0.1,0.9,0.2,1.3,0.2c0.9,0,1.6-0.4,1.6-1.3C78.2,74.2,77.8,73.8,77.1,73.4z M72.6,74.2h1.5v-0.9
	h-1.5v-0.9h1.8v-0.9h-2.8V76h2.8v-0.9h-1.8V74.2z M65.3,76h1v-4.5h-1V76z M89.4,73.4c-0.5-0.2-0.7-0.4-0.7-0.6
	c0-0.3,0.2-0.4,0.5-0.4s0.8,0.1,1.1,0.2v-0.9c-0.3-0.1-0.8-0.2-1.2-0.2c-0.6,0-1.5,0.3-1.5,1.2c0,0.7,0.4,1.1,1,1.4
	c0.5,0.3,0.7,0.4,0.7,0.7c0,0.3-0.3,0.4-0.6,0.4c-0.3,0-0.8-0.1-1.2-0.2v0.9c0.3,0.1,0.9,0.2,1.3,0.2c0.9,0,1.6-0.4,1.6-1.3
	C90.5,74.2,90.2,73.8,89.4,73.4z M63.3,73.4c-0.5-0.2-0.7-0.4-0.7-0.6c0-0.3,0.2-0.4,0.5-0.4s0.8,0.1,1.1,0.2v-0.9
	c-0.3-0.1-0.8-0.2-1.2-0.2c-0.6,0-1.5,0.3-1.5,1.2c0,0.7,0.4,1.1,1,1.4c0.5,0.3,0.7,0.4,0.7,0.7c0,0.3-0.3,0.4-0.6,0.4
	s-0.8-0.1-1.2-0.2v0.9c0.3,0.1,0.9,0.2,1.3,0.2c0.9,0,1.6-0.4,1.6-1.3C64.3,74.2,64,73.8,63.3,73.4z M85.7,74.5
	c0,0.4-0.2,0.7-0.7,0.7s-0.7-0.4-0.7-0.7v-2.9h-1v2.9c0,1,0.6,1.6,1.7,1.6c1.2,0,1.7-0.6,1.7-1.6v-2.9h-1V74.5z M82.5,71.6h-1.2
	l-1,1.8h-0.2v-1.8h-1V76h1v-1.8h0.2l0.9,1.8h1.3l-1.3-2.3L82.5,71.6z M57.7,72.4h1V76h1v-3.6h1v-0.9h-3V72.4z"/>
</svg>
