<?xml version="1.0" encoding="utf-8"?>
<!-- Generator: Adobe Illustrator 24.2.3, SVG Export Plug-In . SVG Version: 6.00 Build 0)  -->
<svg version="1.1" id="Layer_1" xmlns="http://www.w3.org/2000/svg" xmlns:xlink="http://www.w3.org/1999/xlink" x="0px" y="0px"
	 viewBox="0 0 160 90" style="enable-background:new 0 0 160 90;" xml:space="preserve">
<style type="text/css">
	.st0{fill:#FFFFFF;}
	.st1{fill-rule:evenodd;clip-rule:evenodd;fill:#FFFFFF;}
</style>
<g>
	<path class="st0" d="M41.1,28.9c-0.2,0.3-0.3,0.7-0.4,1c0.1,0.6,0.4,1,0.8,1.2c2.1-0.1,4.3,0.2,3.8,2.4c0.7,1.1,1.9,2.2,1.6,3.9
		c-0.6,0-0.8-0.4-1.2-0.7c-0.3,0.7-1.1,0.2-1.7,0.7c0.1,0.4,0.4,0.6,0.3,1.1c-0.2,0.6-1.5,1-2,0.3c-0.1-0.8,0.7-0.7,0.8-1.3
		c-2.2-0.8-1.7,3.1-3,4.3c-0.9,0.8-2.6,0.7-3.5-0.3c0.1-0.4,0.4-0.5,0.6-0.9c-1.1-1-0.7-2.1-1-3.5c-0.2-0.6-1.1-1.8-1.8-2
		s-1.4,0.4-2.2,0.3c-1.1-0.1-2.5-1.1-3.1-2c0.1,0,0.1-0.2,0.1-0.3c2.4,0,4.9-0.2,7.2-0.7c0.3-0.1-0.3-0.2-0.1-0.6
		c0.4-0.1,0.5,0.1,0.8,0.2c0.2-0.3,0.1-1,0.1-1.5c1.2-0.1,1.6-1,1.7-2.2C39.5,28,40.6,28.4,41.1,28.9"/>
	<path class="st1" d="M53.1,32.2c-0.7-0.4-1.1,0-1.7,0.2c-0.5,0-0.5-0.4-1-0.4c-0.4,0.3-0.9,0.7-1.5,0.4c-0.2-0.7-0.7-1.3-0.7-2.2
		c0.4-1.1,1.9,0,2.9,0c0.4,0,0.8-0.3,1.1-0.2C53.1,30.2,53.6,31.3,53.1,32.2"/>
	<path class="st1" d="M53.4,46.7c-0.1,0.5-0.5,0.6-0.7,1c-0.5-0.5-1.8-0.6-2.4-0.1c-1.1-0.7-2-1.7-3.3-2.4c0.2-0.2,0-0.7,0.2-0.9
		c0.2-0.3,0.6,0.3,0.9,0c-0.1-2.9,4.8-1.9,4.3,0.8C52.8,45.6,53.2,46.1,53.4,46.7"/>
	<path class="st1" d="M45.2,33.5c0.5-2.1-1.7-2.5-3.8-2.4c-0.4-0.2-0.7-0.7-0.8-1.2c0.2-0.3,0.3-0.7,0.4-1c-0.5-0.5-1.6-0.8-2.5-0.6
		c-0.1,1.2-0.5,2.1-1.7,2.2c0,0.5,0.1,1.2-0.1,1.5c-0.2-0.1-0.4-0.3-0.8-0.2c-0.2,0.4,0.4,0.5,0.1,0.6c-2.1,0.4-4.6,0.6-7,0.6
		c0,0.1,0,0.3-0.1,0.3c0.6,0.9,2,2,3.1,2c0.9,0.1,1.5-0.5,2.2-0.3s1.6,1.4,1.8,2c0.3,1.4-0.1,2.5,1,3.5c-0.1,0.4-0.5,0.5-0.6,0.9
		c0.8,1.1,2.6,1.1,3.5,0.3c1.3-1.2,0.8-5,3-4.3c-0.1,0.6-0.9,0.5-0.8,1.3c0.5,0.7,1.8,0.2,2-0.3c0.1-0.6-0.3-0.7-0.3-1.1
		c0.5-0.5,1.4,0,1.7-0.7c0.4,0.3,0.6,0.6,1.2,0.7C47.2,35.6,45.9,34.5,45.2,33.5 M43,38.7c-0.1,0-0.2,0-0.3-0.1
		c0-0.1,0.1-0.1,0.2-0.2c0.2-0.2,0.5-0.4,0.6-0.9l0,0c0,0.2,0.1,0.3,0.2,0.5c0.1,0.1,0.1,0.2,0.1,0.4C43.7,38.5,43.3,38.7,43,38.7
		 M46.2,36.6c-0.1-0.1-0.2-0.2-0.3-0.3L45.4,36l-0.2,0.5c0,0.1,0,0.1-0.4,0.1c-0.3,0-0.8,0-1.1,0.4l-0.1,0.1L43.3,37
		c-0.2-0.1-0.5-0.1-0.7-0.1c-1.3,0-1.6,1.3-2,2.5c-0.2,0.8-0.4,1.6-0.8,1.9c-0.3,0.3-0.7,0.4-1.2,0.4s-1-0.2-1.4-0.5l0.1-0.1
		c0.1-0.1,0.3-0.3,0.3-0.5l0.1-0.3l-0.2-0.2c-0.6-0.6-0.6-1.1-0.7-1.9c0-0.4-0.1-0.9-0.2-1.4c-0.2-0.8-1.2-2.1-2.1-2.4
		c-0.1,0-0.2,0-0.4,0c-0.3,0-0.7,0.1-1,0.2c-0.3,0.1-0.6,0.2-0.9,0.2h-0.1c-0.8,0-1.8-0.7-2.5-1.4c2.2,0,4.5-0.3,6.7-0.7l0,0l0,0
		c0.2-0.1,0.3-0.2,0.4-0.3l0.3,0.1l0.2-0.3c0.2-0.3,0.2-0.8,0.2-1.2v-0.1c0.9-0.2,1.5-1,1.7-2.2c0.1,0,0.1,0,0.2,0
		c0.5,0,0.9,0.1,1.2,0.3c0,0.1-0.1,0.1-0.1,0.2c-0.1,0.2-0.1,0.3-0.2,0.4l-0.1,0.1v0.2c0.1,0.7,0.5,1.2,1,1.6l0.1,0.1h0.1
		c0.2,0,0.4,0,0.7,0c1.3,0,2.2,0.2,2.5,0.7c0.2,0.3,0.3,0.6,0.2,1.1v0.2l0.1,0.2c0.1,0.2,0.3,0.5,0.5,0.7c0.5,0.7,1.1,1.4,1.1,2.4
		C46.3,36.7,46.3,36.7,46.2,36.6"/>
	<path class="st1" d="M52.3,30c-0.3-0.1-0.7,0.2-1.1,0.2c-1,0-2.5-1.1-2.9,0c0,1,0.4,1.5,0.7,2.2c0.6,0.2,1.1-0.1,1.5-0.4
		c0.5,0,0.5,0.4,1,0.4c0.6-0.3,1-0.6,1.7-0.2C53.6,31.3,53.1,30.2,52.3,30 M52.8,31.6c-0.1,0-0.2,0-0.3,0c-0.4,0-0.7,0.1-1,0.3
		c-0.1,0-0.1,0.1-0.2,0.1c0,0-0.1,0-0.2-0.1c-0.2-0.1-0.4-0.3-0.8-0.3h-0.2L50,31.7c-0.3,0.2-0.6,0.4-0.8,0.4l0,0
		c-0.1-0.1-0.1-0.3-0.2-0.4c-0.2-0.4-0.4-0.8-0.4-1.3c0.1-0.1,0.1-0.1,0.3-0.1c0.3,0,0.6,0.1,1,0.2s0.8,0.3,1.2,0.3l0,0
		c0.3,0,0.5-0.1,0.7-0.2c0.1,0,0.2-0.1,0.3-0.1c0.2,0.1,0.4,0.3,0.5,0.5C52.8,31.2,52.8,31.4,52.8,31.6"/>
	<path class="st1" d="M52.5,45.1c0.5-2.7-4.4-3.6-4.3-0.8c-0.3,0.3-0.7-0.3-0.9,0c-0.2,0.2,0,0.7-0.2,0.9c1.2,0.6,2.1,1.6,3.3,2.4
		c0.6-0.5,1.9-0.4,2.4,0.1c0.2-0.4,0.6-0.6,0.7-1C53.2,46.1,52.8,45.6,52.5,45.1 M52.7,46.9L52.7,46.9c-0.4-0.1-0.9-0.2-1.3-0.2
		s-0.7,0.1-1,0.2c-0.3-0.2-0.7-0.5-1-0.8c-0.5-0.4-1.1-0.9-1.7-1.2c0-0.1,0-0.1,0-0.2c0.1,0,0.2,0.1,0.4,0.1s0.4-0.1,0.5-0.3
		l0.1-0.1v-0.2c0-0.4,0.1-0.7,0.3-0.9s0.6-0.4,1-0.4c0.7,0,1.4,0.3,1.8,0.8c0.3,0.3,0.4,0.7,0.3,1.2v0.2l0.1,0.2
		c0.1,0.1,0.2,0.3,0.3,0.4c0.2,0.3,0.4,0.6,0.5,0.9C52.9,46.8,52.8,46.8,52.7,46.9"/>
	<path class="st1" d="M52.1,50.8c0.5-2.7-3.8-1.7-3.9-4.1c-1.1-0.6-2.3-1.8-3.7-2c-0.6-0.1-1.2,0.4-1.8-0.1c-0.5,0.3-0.6,1-1.2,1.1
		c-0.7-0.3-1.2-0.4-1.8,0c-0.3-0.5-0.7-1-0.9-1.6c-1-0.1-1.4,1.1-2.4,1.5c-1.1,0.4-2.4-0.2-3.1,0.8c0,0.9,0.1,1.9-0.3,2.4
		c-0.3,0-0.2-0.2-0.6-0.1c-0.3-0.3-0.1-1.1-0.4-1.5c-0.6,0-0.6,0.7-0.9,1.1c-1.4,0.2-1.1,2.1-1.5,3.2c-0.5-1.6-0.7-3.4-2.8-3.4
		c-0.2,0.2,0,0.6-0.4,0.6c-0.5,0.1-0.9-0.5-1.1-0.2c1.2,1.5,2.5,3,3,5.2c-0.3,0-0.6,0-0.8,0.1c-0.3,0.4,0.3,1-0.2,1.1
		c-0.6-0.2-0.6-1.2-1.3-0.8c-0.1,0.7,0.7,1.1,0.4,1.5c-0.4-0.1-0.7-0.3-1-0.1c0.1,1.6,1,2.3,2.8,2.1c0.6,0.6,0.7,1.8,1.3,2.4
		c1,0.1,2,0.3,2.4,1c-0.7,0.4-0.7,1.5-1.1,2.2c-0.5,0.1-0.5-0.3-1-0.2c-0.4,1.3-1.3,2-1.6,3.5c-0.2,0.1-0.8-0.2-0.7,0.2
		c0,0.5,0.6,0.5,0.6,1c0.2,3.1,3-0.9,3.8-1.5c0-0.4,0-0.7-0.1-1c0.9-1.3,1.5-2.9,1.3-5.3c0.5-0.9,1.4-1.3,2.2-1.8
		c0.1,0.2,0.2,0.2,0.4,0.2c0.5-0.2,0.5-0.8,1.2-0.8c0,0.3,0,0.6,0.1,0.8c0.6,0,0.3-0.9,0.8-1c0.1,0.2,0.3,0.3,0.3,0.6
		c0.5-0.6,2-0.9,1.9,0.4c0.9,0.1,1.5-0.1,1.7-0.8c-0.3-0.1-0.9-0.4-0.7-0.7c0.2-0.4,1.1-0.1,1.7-0.2c0.9-1.1,3.2-2.1,2.6-3.7
		c0.6-0.2,0.7,0.3,1.1,0.6c0.9-0.4,1.4-1.2,1.2-2.4c0.3,0.1,0.3,0.1,0.7,0c0.5-0.3,0.2-1.3,0.8-1.6c0.7,0.5,0.7,1.5,2,1.3
		c0.1-0.5-0.7-0.5-0.4-0.9C51.4,50.1,51.6,50.6,52.1,50.8 M50.5,49.6l-0.2,0.2c-0.1,0.1-0.1,0.3-0.2,0.4c0-0.1-0.1-0.1-0.2-0.2
		c-0.2-0.2-0.3-0.5-0.6-0.7l-0.2-0.2L49,49.2c-0.5,0.2-0.6,0.7-0.7,1.1c0,0.2-0.1,0.4-0.1,0.5h-0.1c0,0-0.1,0-0.2-0.1l-0.7-0.2
		l0.1,0.7c0.1,0.8-0.1,1.4-0.7,1.7l0,0c-0.2-0.2-0.5-0.5-0.9-0.5c-0.1,0-0.3,0-0.4,0.1l-0.4,0.2l0.2,0.4c0.3,0.7-0.3,1.3-1.4,2.2
		c-0.4,0.3-0.7,0.6-1,0.9l0,0c-0.1,0-0.2,0-0.4,0s-0.3,0-0.4,0c-0.2,0-0.8,0-1,0.5c-0.1,0.2-0.1,0.4-0.1,0.6
		c0.1,0.2,0.3,0.4,0.5,0.5c-0.1,0.1-0.3,0.1-0.6,0.1c-0.1-0.3-0.2-0.5-0.3-0.6c-0.2-0.2-0.5-0.4-0.9-0.4c-0.3,0-0.7,0.1-1,0.3
		c0,0,0-0.1-0.1-0.1l-0.2-0.3l-0.4,0.1c-0.2,0-0.3,0.1-0.4,0.2H37c-0.6,0-0.9,0.4-1.1,0.6c0,0.1-0.1,0.1-0.1,0.1l-0.2-0.4l-0.7,0.4
		c-0.8,0.5-1.7,0.9-2.2,1.9l-0.1,0.1v0.1c0.1,2.4-0.6,4-1.3,5l-0.1,0.2l0.1,0.2c0.1,0.2,0.1,0.4,0.1,0.6c-0.2,0.2-0.4,0.4-0.7,0.7
		c-0.5,0.6-1.5,1.6-2,1.6l0,0c0,0-0.1-0.1-0.2-0.7c0-0.4-0.2-0.6-0.3-0.7h0.1l0.3-0.1l0.1-0.3c0.1-0.7,0.5-1.3,0.8-1.9
		c0.2-0.4,0.4-0.8,0.6-1.2l0,0c0.1,0.1,0.3,0.2,0.6,0.2h0.1H31l0.1-0.2c0.2-0.3,0.3-0.6,0.4-0.9c0.2-0.5,0.3-0.9,0.6-1.1l0.4-0.2
		l-0.2-0.4c-0.5-0.9-1.5-1.1-2.6-1.2c-0.2-0.2-0.3-0.6-0.5-0.9c-0.2-0.5-0.4-0.9-0.7-1.3l-0.2-0.1h-0.2c-0.2,0-0.3,0-0.5,0
		c-1,0-1.6-0.4-1.8-1.2c0.1,0,0.3,0.1,0.4,0.1h0.3l0.2-0.3c0.1-0.2,0.1-0.4,0.1-0.6c0.1,0.1,0.2,0.1,0.3,0.1h0.1h0.1
		c0.7-0.2,0.5-0.9,0.5-1.1c0,0,0-0.1,0-0.2h0.1h0.3h0.6l-0.1-0.6c-0.4-1.8-1.3-3.1-2.3-4.4l0,0c0.3,0,0.6-0.2,0.7-0.6
		c1.2,0.1,1.5,1,1.9,2.4c0.1,0.2,0.1,0.4,0.2,0.6l0.4,1.4l0.5-1.3c0.1-0.4,0.2-0.8,0.3-1.3c0.1-1.1,0.3-1.6,0.8-1.7h0.2l0.1-0.2
		c0.1-0.2,0.2-0.4,0.3-0.6l0,0c0,0.3,0.1,0.7,0.4,1l0.2,0.2l0.2-0.1c0.1,0.1,0.2,0.1,0.4,0.1h0.1h0.2l0.1-0.1
		c0.4-0.5,0.4-1.4,0.4-2.2c0-0.1,0-0.2,0-0.2c0.3-0.3,0.8-0.3,1.4-0.3c0.5,0,0.9,0,1.4-0.2s0.8-0.5,1.1-0.8s0.5-0.5,0.8-0.6
		c0.1,0.3,0.3,0.5,0.4,0.7c0.1,0.2,0.2,0.4,0.3,0.6l0.2,0.4l0.4-0.3c0.2-0.1,0.4-0.2,0.6-0.2c0.2,0,0.4,0.1,0.7,0.2l0.2,0.1h0.2
		c0.5-0.1,0.8-0.5,1-0.8c0.1-0.1,0.1-0.2,0.2-0.2c0.2,0.1,0.4,0.1,0.6,0.1c0.2,0,0.4,0,0.6-0.1c0.2,0,0.3-0.1,0.4-0.1h0.1
		c0.8,0.1,1.6,0.6,2.3,1.2c0.4,0.3,0.7,0.5,1,0.7c0.2,1.3,1.4,1.7,2.3,2.1c0.7,0.3,1.2,0.5,1.4,0.8c-0.2-0.1-0.4-0.2-0.7-0.2
		L50.5,49.6z"/>
	<path class="st1" d="M139.1,17c-0.2-0.4-0.2-0.9-0.4-1.2c-0.4-0.6-1.4-0.7-1.7-1.3c-0.4,1-1.2,2.5-2.7,2.6c-0.9,0-2.3-0.7-3.8-0.8
		c-1.9-0.1-3.1-0.7-4.6-0.8c-2.9-0.2-6,0.8-8.4,0.1c-0.8-0.2-1.3-0.9-2.1-1c-1.1-1.3-2-2.9-4.4-2.9c-1.5,1.5-3.8-0.4-5.3-1
		c-1.2,0-2.5,0-3.6,0.1c-0.3-1-0.9-1.6-2-1.8c-0.4,0.4-0.2,0.9-0.3,1.3c-0.8,0-0.7-1.1-1.5-1.2c0.2,2.6-2.1,2.1-1.7-0.2
		c-0.6-0.4-0.8-1.1-1.7-1.2c-0.5,0.3,0,0.6,0,1c0,0.2-0.2,0.5-0.1,0.8c0.2,0.7,1.1,1.4,0.2,1.9c-1.2,0.4-1.2-0.8-2-1.6
		c-0.3-0.3-0.8-0.4-1-0.7c-0.4-0.5-0.3-1.3-0.9-1.3c0,1.1-0.2,2.5,0.2,3.5c0.2,0.6,0.9,0.7,0.9,1.3c-0.8,0-1.8-0.1-2.4,0.2
		c-0.3,0.4,0,0.9-0.2,1.2c-1.8-0.5-3.5-1-5-1.7c-0.5,0.2,0,1.1-0.2,1.3c-1-0.1-2-0.9-3.4-0.2c-0.9-0.5-0.6-0.8-1.5-0.9
		c-1.3,1.1,1.1,1.2-1.5,1.7c-0.5-0.4-0.6-0.3-1.4-0.4c-0.5,0.2-0.1,1.2-1,0.9c-0.1,0.7,0.8,0.4,0.7,1.1c-0.7,0.2-1.2-0.6-1.8-0.9
		C74,15,74,15.6,73.4,15.6c-0.8-0.7-1.6-1.7-3-0.9c-0.1,0.7-0.2,1.2-0.3,1.8c-0.6,0.5-2,0.1-2.6,0.6c0,0.5,1,0.9,0.9,1.8
		c-0.1,0-0.1,0.1-0.2,0.1c-1.2,0.3-1.4-1.8-2.6-1.7c-0.6,0.1-0.8,0.7-0.8,1c0,1.1,2.3,2.2,1.1,3.4c-0.7-1.3-2-0.1-3.4-0.1
		c-1.3,0-2.7-0.7-3.1,0.3c0.1,0.3,0.7,1.1,0.1,1.3c-0.6-0.2-0.7-0.8-1.5-0.9c-0.6,0.3-0.9,0.9-1.5,1.1c-0.7-0.5-1.2,0.2-1.8,0.4
		c0.2,1.7,1.1,2.7,0.9,4.8c-0.2-0.1-0.2-0.5-0.6-0.4c-0.5,0.6-1.2,1.2-1.1,2.1c-0.2,0.2-0.3-0.1-0.3,0.1c0.3,1.2,1.8,1.2,2.6,1.9
		c0.3-0.5,0.2-1.5,1.1-1.5c0-0.8,0.4,0,0.2,1.3c-0.3,0.3-0.6,0.7-1.1,0.8c-0.7-0.5-1,0.6-2.2,0.2c0,0.3-0.2,0.4-0.3,0.4
		c0.2,1.7,1.2,2.7,1.9,3.9c-1,0.2-1.4,1-1.7,1.8c0.7-0.1,1.2-0.7,1.8-0.2c0.4-0.1,0.6-0.5,1.1-0.7c0.4-0.1,2.4-0.2,2.5-0.2
		c0.2,0,0.5,0.5,0.7,0.4c0.4-0.1,0.3-0.6,0.8-0.6s1,0.7,1,0.9c-0.5,0-0.6-0.5-1.2-0.3c-0.7,0.7,0.3,1,0.2,1.8
		c-1.3,0-2.3-1.1-3.8-0.2c-0.5,0-0.6-0.4-1.1-0.3c-0.5,0.6,0.3,1.2,0.1,1.6c-0.3-0.1-0.6-0.2-0.8,0c-0.4,1.2,0.1,2.4,0.3,3.5
		c-0.2,0.4-0.6,1.3-0.1,1.7c0.5-0.1,0.3-0.9,0.9-0.9c0,1.3,1.1,2.1,2,1.7c0.5,1,0.1,2.4,0.1,3.7c1,0.4,0.7,2.3,1.3,3
		c0.3-0.8,0.9-0.1,1.6-0.6c0.1,0.3,0.3,0.5,0.6,0.7c2.6,0,2.9,2.2,4.5,3.2c0.4-0.4,0.4-1,0.9-1.2c0.4,0,0.5,0.3,1,0.2
		c1.7-0.6,0.7-4.1,2.6-4.4c1.2-0.2,3.6,1.7,3.5,3c-0.1,1.2-1.4,1.2-1.7,2.1c-0.4,1.2,0.1,2.6,0.1,3.5c0,1-0.5,1.8-0.2,2.7
		c-1.5,1.7-1.9,4.5-2.8,6.8c0.5,0.3,1.2,0.5,1.8,0.1c0.5-1.1,1.4-2.6,2.8-2.8c0.8-0.1,1.7,0.4,2.6-0.1c0.2-0.5,0.2-1.2,0.8-1.3
		c0.5,0.1,0.7,0.5,1.2,0.4c0.6-0.9,1.6-0.6,2.6-1c1.4-0.6,1.7-2.7,3.5-2c0.8,1.1,1.1,4.3,2.6,1.9c-0.1-0.7-1.2-1.7-0.3-2.2
		c0.6,0.2,0.7,1,1,1.5c2,0.1,2,2.2,3.9,2.5c-0.1,1.9,2.1,1.9,3.4,1.2c0.5,0.6,0.4,1.7,1,2.2c1.3,0.5,3.7-0.2,4.4,0.9
		c-0.3,0.5-0.3,1.3-0.1,1.9c3.3,1.5,3.4,6.3,7.4,7.2c0.5,0.5,0.8,1.2,1.3,1.7c0.6-0.6,0.8-0.3,1.6-0.1c0.4-1.4,1.7-2,3.6-1.7
		c0.8-0.4,0.7-1.6,1.5-2c0.3,0.1,0.3,0.5,0.8,0.4c1.7-0.6,1.7,1.5,2.7,2c0.5,0.3,1.2,0.1,1.9,0.2c1,0.2,2.4,1.5,3.4,0.7
		c-0.3-1-0.9-2.3,0.6-2.5c-0.2-2,0.1-3.4,2.1-3.6c0-0.2,0.1-0.3,0.2-0.3c-0.2-1.1-0.5-2.5,0.8-2.6c0.1-0.4-0.7-0.3-0.3-0.7
		c1.7-0.3,4.5-0.2,4.8-1.6s-1.7-1.3-2.5-2.1c-0.2-0.9,0.8-2.4-0.4-2.8c-0.2,0.3-0.2,0.8-0.4,1.1c-0.4-1-0.6-2.6-0.3-3.9
		c-1.2-1.1-1.6-2.8-2.2-4.5c0-0.1-0.1-0.2-0.1-0.3c0.2-1.4-0.7-1.6-1-2.4c0.1-0.9-0.2-2.2,0.1-2.8c-0.7-0.7-1.5-1.1-2.8-1.1
		c-0.9-0.7-0.4-2.7-0.6-4.1c-0.3-2.4-1.4-5.9-2.7-7.4c-1-1.1-2.5-1.1-2.5-2.9c0-5.9,8.2-7.5,13.9-5.9c1.3-3,2.9-6.2,3-10
		c0.5-0.3,0.8-0.9,1.6-1s2.1,0.5,2.2-0.4c-0.7,0-1.2-0.2-1.6-0.6c1.3-0.1,2.6-0.9,3.2-0.9C140.3,17.9,139.4,17.5,139.1,17
		 M138.7,18.6c-0.6,0.2-1.3,0.4-1.9,0.5l-1,0.1l0.7,0.7c0.1,0.1,0.2,0.1,0.3,0.2c-0.1,0-0.2,0-0.4,0c-0.1,0-0.2,0-0.3,0
		c-0.7,0.1-1.1,0.5-1.4,0.8c-0.1,0.1-0.2,0.2-0.4,0.3l-0.2,0.1v0.2c-0.1,3.2-1.3,5.9-2.5,8.6c-0.1,0.3-0.2,0.6-0.4,0.8
		c-1.3-0.3-2.6-0.5-4-0.5c-3.6,0-6.6,1-8.4,2.8c-1.1,1.1-1.7,2.5-1.7,4.2c0,1.4,0.9,2,1.6,2.5c0.4,0.2,0.7,0.4,1,0.8
		c1.2,1.4,2.3,4.8,2.6,7.1c0,0.4,0,0.9,0,1.4c0,1.2-0.1,2.4,0.7,3l0.1,0.1h0.2c0.9,0,1.7,0.3,2.3,0.8c-0.1,0.4-0.1,0.9,0,1.5
		c0,0.4,0.1,0.8,0,1.1v0.1l0.1,0.1c0.1,0.3,0.4,0.6,0.5,0.8c0.3,0.4,0.6,0.6,0.4,1.3v0.1v0.1c0,0.1,0.1,0.2,0.1,0.2v0.1
		c0.1,0.3,0.2,0.5,0.2,0.8c0.4,1.4,0.9,2.8,1.9,3.8c-0.2,1.3,0,2.8,0.4,3.9l0.3,0.8l0.5-0.7c0.1-0.2,0.2-0.3,0.2-0.5
		c0,0.2,0,0.4-0.1,0.7c-0.1,0.4-0.2,0.9-0.1,1.3v0.1l0.1,0.1c0.3,0.4,0.8,0.5,1.3,0.7c0.9,0.4,1.1,0.5,1,1c-0.1,0.7-1.7,0.9-3,1
		c-0.5,0.1-1,0.1-1.5,0.2h-0.1L128,72c-0.2,0.2-0.2,0.4-0.2,0.6c0,0.1,0,0.1,0.1,0.2c-0.1,0.1-0.2,0.2-0.3,0.3
		c-0.4,0.6-0.3,1.5-0.2,2.3l-0.1,0.1c-0.7,0.1-1.3,0.4-1.7,0.9c-0.5,0.6-0.7,1.5-0.6,2.8c-0.3,0.1-0.5,0.3-0.7,0.5
		c-0.4,0.6-0.2,1.4,0.1,2.1c-0.1,0-0.1,0-0.2,0c-0.4,0-0.9-0.2-1.3-0.5c-0.4-0.2-0.8-0.4-1.2-0.5c-0.3-0.1-0.5-0.1-0.7-0.1h-0.4
		c-0.3,0-0.5,0-0.7-0.1s-0.4-0.5-0.6-0.8c-0.4-0.6-0.8-1.4-1.7-1.4c-0.2,0-0.4,0-0.6,0.1c0,0,0,0,0-0.1c-0.1-0.1-0.2-0.3-0.5-0.4
		h-0.2l-0.2,0.1c-0.5,0.3-0.7,0.8-0.9,1.2c-0.1,0.3-0.3,0.6-0.4,0.7c-0.3,0-0.6-0.1-0.8-0.1c-1.4,0-2.4,0.6-2.9,1.7
		c-0.2-0.1-0.4-0.1-0.6-0.1s-0.4,0.1-0.6,0.2c-0.1-0.2-0.3-0.4-0.4-0.6c-0.2-0.3-0.4-0.6-0.6-0.8l-0.1-0.1h-0.1
		c-2-0.5-2.9-2-3.9-3.6c-0.8-1.3-1.7-2.7-3.2-3.5c-0.1-0.5-0.1-1.1,0.1-1.4l0.1-0.2l-0.2-0.2c-0.6-0.8-1.7-0.9-2.9-0.9
		c-0.6,0-1.2,0-1.6-0.2c-0.2-0.2-0.3-0.5-0.3-0.9c-0.1-0.5-0.2-0.9-0.6-1.3l-0.5,0l-0.3,0.2c-0.4,0.2-0.9,0.4-1.4,0.4
		s-0.8-0.1-1-0.4c-0.2-0.2-0.3-0.5-0.2-0.8V67l-0.4-0.1c-0.7-0.1-1.1-0.5-1.6-1.1s-1.1-1.2-2.1-1.4c0-0.1-0.1-0.2-0.1-0.3
		c-0.2-0.4-0.4-1-1-1.2l-0.2-0.1L87,63c-0.9,0.6-0.4,1.6-0.1,2.2c0.1,0.1,0.2,0.3,0.2,0.4c-0.2,0.3-0.4,0.4-0.4,0.5
		c-0.2-0.1-0.4-0.8-0.6-1.2c-0.2-0.5-0.4-1-0.7-1.4l-0.1-0.1h-0.1c-0.3-0.1-0.6-0.2-0.8-0.2c-0.9,0-1.5,0.7-1.9,1.2
		c-0.3,0.4-0.6,0.8-1.1,1c-0.3,0.1-0.7,0.2-1,0.2c-0.5,0.1-1.1,0.2-1.6,0.7c-0.1,0-0.1-0.1-0.2-0.1c-0.2-0.1-0.4-0.3-0.7-0.3h-0.1
		h-0.1c-0.7,0.1-0.9,0.8-1,1.2c0,0.1,0,0.2-0.1,0.2c-0.1,0.1-0.3,0.1-0.5,0.1s-0.4,0-0.7-0.1c-0.2,0-0.5-0.1-0.7-0.1
		c-0.1,0-0.2,0-0.4,0c-1.7,0.3-2.7,2.1-3.1,2.9c-0.1,0-0.2,0.1-0.4,0.1c-0.2,0-0.3,0-0.5-0.1c0.2-0.6,0.4-1.2,0.5-1.7
		c0.5-1.7,1-3.4,2-4.5l0.2-0.2l0-0.2c-0.1-0.4,0-0.8,0.1-1.3c0.1-0.4,0.2-0.8,0.2-1.3c0-0.3-0.1-0.6-0.1-1c-0.1-0.8-0.3-1.6,0-2.3
		c0.1-0.3,0.3-0.4,0.6-0.6c0.4-0.3,1-0.7,1.1-1.6c0-0.6-0.3-1.3-0.9-2c-0.7-0.7-1.9-1.5-2.8-1.5c-0.1,0-0.2,0-0.2,0
		c-1.3,0.2-1.5,1.5-1.7,2.5c-0.2,0.8-0.3,1.6-0.9,1.9l0,0c-0.1,0-0.2,0-0.3-0.1c-0.1-0.1-0.3-0.1-0.5-0.2h-0.1h-0.1
		c-0.5,0.2-0.7,0.6-0.8,0.9c0,0,0,0,0,0.1c-0.3-0.3-0.6-0.6-0.9-1c-0.7-0.9-1.6-2-3.3-2c-0.2-0.1-0.3-0.2-0.3-0.3L61.7,53l-0.5,0.4
		c-0.1,0.1-0.2,0.1-0.3,0.1s-0.1,0-0.2,0c-0.1,0-0.2,0-0.3,0c-0.2,0-0.3,0-0.5,0.1c-0.1-0.2-0.1-0.4-0.2-0.7
		c-0.1-0.7-0.3-1.4-0.8-1.8c0-0.3,0-0.7,0.1-1c0.1-0.9,0.1-1.8-0.2-2.6L58.6,47l-0.4,0.2c-0.1,0-0.2,0.1-0.3,0.1
		c-0.3,0-0.5-0.1-0.7-0.3s-0.4-0.6-0.4-1v-0.5h-0.5c-0.2,0-0.4,0.1-0.5,0.1c0-0.1,0.1-0.2,0.1-0.3l0.1-0.1v-0.1
		c0-0.3-0.1-0.5-0.2-0.8c-0.2-0.7-0.4-1.5-0.2-2.2h0.1c0.1,0,0.1,0,0.2,0.1l0.3,0.1l0.2-0.3c0.2-0.4,0-0.7-0.1-1
		c0-0.1-0.1-0.2-0.1-0.2c0.2,0.1,0.4,0.2,0.7,0.2H57h0.1l0.1-0.1c0.3-0.2,0.6-0.3,1-0.3s0.7,0.1,1.1,0.3c0.5,0.2,0.9,0.3,1.5,0.3
		h0.4v-0.4c0-0.4-0.2-0.8-0.3-1s-0.2-0.3-0.1-0.4l0,0c0.1,0,0.2,0,0.3,0.1s0.3,0.2,0.6,0.2l0.6,0.1v-0.6c0-0.5-0.7-1.3-1.4-1.3h-0.1
		c-0.5,0-0.7,0.3-0.8,0.5c-0.2-0.2-0.4-0.3-0.6-0.3l0,0l0,0c-0.2,0-2.1,0.1-2.6,0.2c-0.4,0.1-0.7,0.3-0.9,0.5l-0.1,0.1
		c-0.2-0.1-0.3-0.1-0.5-0.1s-0.3,0-0.4,0.1c0.2-0.3,0.5-0.5,0.9-0.6l0.7-0.1l-0.4-0.6c-0.2-0.3-0.3-0.5-0.5-0.7
		c-0.6-0.8-1.1-1.6-1.3-2.7l0.1-0.1c0.1,0,0.1,0,0.2,0c0.5,0,0.8-0.2,1.1-0.3c0.1-0.1,0.3-0.1,0.3-0.1s0,0,0.1,0l0.2,0.1l0.2-0.1
		c0.5-0.1,0.8-0.4,1.1-0.7c0.1-0.1,0.1-0.1,0.2-0.2l0.1-0.1v-0.2c0-0.2,0.2-1.6-0.2-2c-0.1-0.1-0.2-0.2-0.4-0.2s-0.4,0.1-0.5,0.3
		c-0.6,0.2-0.8,0.7-1,1.2c-0.2-0.1-0.5-0.2-0.7-0.3c-0.5-0.2-0.8-0.4-1-0.6l0.1-0.1l0.1-0.1v-0.2c0-0.6,0.3-1,0.7-1.5
		c0.1,0.1,0.2,0.2,0.3,0.3l0.6,0.3l0.1-0.7c0.1-1.4-0.2-2.3-0.5-3.3c-0.2-0.5-0.3-0.9-0.4-1.4c0.1,0,0.1-0.1,0.2-0.1
		c0.2-0.1,0.4-0.3,0.6-0.3c0,0,0.1,0,0.3,0.1l0.2,0.1l0.2-0.1c0.4-0.2,0.6-0.4,0.9-0.7c0.2-0.2,0.3-0.3,0.5-0.4
		c0.1,0,0.3,0.1,0.4,0.3c0.2,0.2,0.4,0.4,0.8,0.6h0.2l0.2-0.1c0.8-0.4,0.4-1.4,0.2-1.7l0,0c0.1-0.1,0.2-0.1,0.5-0.1
		c0.2,0,0.6,0.1,0.9,0.1C61.6,22,62,22,62.4,22l0,0c0.5,0,1-0.2,1.5-0.3c0.3-0.1,0.7-0.2,0.9-0.2s0.4,0.1,0.6,0.4l0.3,0.5l0.4-0.4
		c1-1,0.2-2-0.4-2.6c-0.3-0.4-0.6-0.7-0.6-1c0-0.1,0-0.5,0.4-0.6c0,0,0,0,0.1,0c0.3,0,0.5,0.3,0.8,0.7c0.3,0.5,0.8,1,1.5,1
		c0.1,0,0.2,0,0.3,0c0.1,0,0.2-0.1,0.2-0.1h0.3V19c0.1-0.8-0.4-1.3-0.7-1.6c0.2,0,0.4,0,0.6,0c0.6,0,1.2-0.1,1.6-0.4l0.1-0.1v-0.1
		c0.1-0.6,0.3-1.1,0.3-1.6c0.2-0.1,0.4-0.1,0.6-0.1c0.6,0,1,0.4,1.5,0.9l0.3,0.3h0.2c0.5,0,0.8-0.3,0.9-0.5c0-0.1,0.1-0.1,0.1-0.1
		c0.1,0.1,0.2,0.1,0.3,0.2c0.4,0.3,0.8,0.6,1.3,0.6c0.1,0,0.2,0,0.4,0l0.3-0.1v-0.3c0.1-0.4-0.1-0.7-0.3-0.9
		c0.2-0.2,0.3-0.5,0.3-0.6v-0.1c0.1,0,0.2,0,0.3,0c0.3,0,0.3,0,0.6,0.3l0.2,0.1h0.2c1.1-0.2,1.4-0.4,1.6-0.7c0.1-0.3,0-0.5-0.1-0.7
		c-0.1-0.1-0.1-0.2,0.1-0.3c0.2,0,0.3,0.1,0.4,0.2c0.1,0.1,0.3,0.3,0.8,0.6l0.2,0.1L81,14c0.3-0.2,0.6-0.2,0.9-0.2
		c0.4,0,0.8,0.1,1.2,0.3c0.3,0.1,0.7,0.2,1.1,0.3h0.2l0.1-0.2c0.2-0.3,0.2-0.6,0.2-0.9v-0.1c1.6,0.7,3.3,1.2,4.7,1.5l0.4,0.1
		l0.2-0.3c0.1-0.3,0.1-0.6,0.1-0.8s0-0.3,0-0.3c0.3-0.1,0.7-0.1,1-0.1c0.1,0,0.3,0,0.4,0s0.3,0,0.4,0s0.1,0,0.2,0h0.4v-0.4
		c0-0.6-0.3-0.9-0.6-1.2c-0.2-0.1-0.3-0.3-0.3-0.4c-0.2-0.5-0.2-1.1-0.2-1.8l0.1,0.1c0.2,0.2,0.4,0.3,0.6,0.4
		c0.2,0.1,0.3,0.2,0.4,0.3c0.2,0.2,0.4,0.5,0.5,0.7c0.3,0.5,0.6,1.1,1.4,1.1c0.2,0,0.4,0,0.6-0.1l0,0l0,0c1-0.6,0.5-1.5,0.2-1.9
		C95.1,9.9,95,9.8,95,9.6c0,0,0-0.1,0-0.2c0-0.1,0.1-0.3,0.1-0.5c0-0.1,0-0.2-0.1-0.3c0.1,0.1,0.2,0.2,0.4,0.4
		c0.1,0.1,0.3,0.3,0.4,0.4c-0.1,0.7,0.1,1.3,0.4,1.7c0.2,0.3,0.6,0.5,0.9,0.5s0.6-0.1,0.8-0.4c0.2-0.2,0.3-0.4,0.4-0.8
		c0.2,0.3,0.5,0.6,1,0.7h0.3l0.1-0.3c0.1-0.2,0.1-0.5,0.1-0.7c0-0.1,0-0.3,0-0.3c0.7,0.2,1.1,0.6,1.4,1.4l0.1,0.4l0.4-0.1
		c0.8-0.1,1.6-0.1,2.4-0.1c0.2,0,1.1,0,1.1,0c0.3,0.1,0.6,0.3,1,0.5c0.9,0.5,2,1.1,3,1.1c0.6,0,1.1-0.2,1.6-0.6
		c1.7,0.1,2.4,1,3.3,2.1c0.2,0.2,0.4,0.4,0.5,0.7l0.1,0.1h0.2c0.4,0,0.6,0.2,1,0.4c0.3,0.2,0.6,0.4,1.1,0.5c0.6,0.2,1.3,0.2,2.1,0.2
		c0.9,0,1.8-0.1,2.7-0.2c0.9-0.1,1.9-0.2,2.9-0.2c0.3,0,0.5,0,0.8,0c0.6,0,1.3,0.2,1.9,0.3c0.8,0.2,1.6,0.4,2.7,0.4
		c0.7,0,1.4,0.3,2.1,0.4c0.6,0.2,1.2,0.3,1.7,0.3h0.1c1.5-0.1,2.3-1.3,2.8-2.2c0.2,0.1,0.4,0.2,0.5,0.3c0.3,0.1,0.5,0.3,0.7,0.5
		c0.1,0.1,0.1,0.3,0.2,0.5c0.1,0.2,0.1,0.5,0.3,0.7c0.1,0.2,0.3,0.4,0.5,0.6s0.3,0.3,0.4,0.5C139.3,18.3,139,18.5,138.7,18.6"/>
	<path class="st0" d="M158.2,38.2L158.2,38.2c-0.5-1.6-1.4-3.1-2.7-4.5v-5h-1.8v3.4c-1.6-1.2-3.5-2.3-5.8-3.2v-5.1h-1.8v4.5
		c-1.8-0.6-3.7-1.1-5.8-1.6v-5.2h-1.8v4.8c-1.5-0.3-3.1-0.6-4.8-0.8c-0.1,0.2-0.1,0.4-0.2,0.6c1.7,0.3,3.4,0.5,5,0.9v5.1h1.8v-4.7
		c2.1,0.5,4,1,5.8,1.6v5.4h1.8v-4.8c2.3,0.9,4.2,2,5.8,3.3v6.3h1.8v-4.6c1.7,2,2.6,4.4,2.6,7.2c0,3.1-1.1,5.6-3,7.7V46h-1.8v5.1
		c-1.3,1-2.7,1.8-4.4,2.6v-4.4h-1.8v5.1c-1.6,0.6-3.4,1.2-5.3,1.7V52H140v4.5c-2.2,0.5-4.6,0.9-7.1,1.3v-4.5h-1.8V58
		c-2.4,0.3-4.9,0.5-7.5,0.8V54h-1.8v5c-2.4,0.2-5,0.3-7.5,0.4v-5.1h-1.8v5.2c-2.5,0.1-5,0.2-7.5,0.2v-5.4h-1.8v5.4
		c-2.5,0-5,0.1-7.5,0.1v-5.4H94v5.4c-2.5,0-5,0-7.5,0v-5.1h-1.8v5.1c-1.6,0-3.1,0-4.7,0c-1.5,0-3.1,0-4.6,0v-5.1h-1.8v5.1
		c-2.5,0-5.1,0-7.5,0v-5.4h-1.8v5.4c-2.6,0-5.1,0-7.5-0.1v-5.4H55v5.4c-2.6-0.1-5.1-0.1-7.5-0.2v-5.2h-1.8v5.1
		c-2.6-0.1-5.1-0.2-7.5-0.4v-5h-1.8v4.9c-2.6-0.2-5.1-0.4-7.5-0.7v-4.7H27V58c-2.5-0.3-4.9-0.8-7.1-1.2v-4.6h-1.8v4.1
		c-1.9-0.5-3.7-1-5.3-1.6v-5.2H11v4.4c-1.7-0.7-3.2-1.6-4.4-2.5v-5.2H4.9v3.7c-1.9-2-2.9-4.3-3.1-7v-1.8c0.2-2.5,1.1-4.7,2.7-6.5
		v4.7h1.8v-6.4c1.6-1.3,3.5-2.3,5.8-3.3v4.8h1.8V29c1.8-0.6,3.7-1.2,5.8-1.6v4.7h1.8V27c1.8-0.4,3.7-0.7,5.8-1v4.8h1.8v-5.1
		c1.9-0.2,3.8-0.4,5.8-0.6V30h1.8v-4.9c1.9-0.1,3.8-0.3,5.8-0.4v4.9h1.8v-5c2-0.1,4.1-0.2,6.2-0.2v4.8h1.8v-4.9c1,0,1.9,0,2.9-0.1
		c0-0.1,0-0.2,0-0.3c0.2-0.1,0.3-0.2,0.5-0.3c-1.1,0-2.2,0-3.3,0.1v-5.1h-1.8v5.1c-2.1,0.1-4.2,0.1-6.2,0.2V19h-1.8v5
		c-2,0.1-3.9,0.2-5.8,0.4v-5H35v5.2c-2,0.2-3.9,0.4-5.8,0.6v-4.9h-1.8v5.1c-2,0.3-3.9,0.6-5.8,0.9v-4.8h-1.8v5.2
		c-2.1,0.5-4,1-5.8,1.6v-4.4h-2V29c-2.2,0.9-4.2,1.9-5.8,3.1v-3.3H4.4v4.9c-1.3,1.3-2.2,2.9-2.8,4.6H0v10.6h1.8V46
		c0.6,1.8,1.7,3.4,3.1,4.7v6h1.8v-4.5c1.3,0.9,2.8,1.7,4.4,2.4V60h1.8v-4.7c1.6,0.6,3.4,1.1,5.3,1.6v5.8H20v-5.4
		c2.2,0.5,4.6,0.9,7.1,1.2V64h1.8v-5.2c2.4,0.3,4.9,0.5,7.5,0.7v5h1.8v-4.9c2.4,0.2,4.9,0.3,7.5,0.4v4.8h1.8V60
		c2.5,0.1,5,0.2,7.5,0.2v4.6h1.8v-4.5c2.5,0,5,0.1,7.5,0.1V65H66v-4.6c2.5,0,5,0,7.5,0v4.9h1.8v-4.9c1.5,0,3,0,4.6,0s3.2,0,4.7,0
		v4.9h1.8v-4.9c2.6,0,5.1,0,7.5,0V65h1.8v-4.6c2.6,0,5.1,0,7.5-0.1v4.5h1.8v-4.6c2.6-0.1,5.1-0.1,7.5-0.2v4.8h1.8V60
		c2.6-0.1,5.1-0.2,7.5-0.4v4.9h1.8v-5.1c2.6-0.2,5.2-0.4,7.5-0.7V64h1.8v-5.5c2.5-0.3,4.9-0.8,7.1-1.2v5.4h1.8v-5.8
		c1.9-0.5,3.7-1,5.3-1.6V60h1.8v-5.5c1.7-0.7,3.1-1.5,4.4-2.5v4.6h1.8v-6.1c1.5-1.4,2.5-3.1,3.1-5v3.2h1.8V38.2H158.2z"/>
	<polygon class="st0" points="68.1,31.3 66,31.3 66,32.7 68.4,32.7 68.4,33.8 64.6,33.8 64.6,28 68.2,28 68.2,29 66,29 66,30.3 
		68.1,30.3 	"/>
	<polygon class="st0" points="73.8,31.3 71.7,31.3 71.7,32.7 74.1,32.7 74.1,33.8 70.3,33.8 70.3,28 74,28 74,29 71.7,29 71.7,30.3 
		73.8,30.3 	"/>
	<path class="st0" d="M76.1,32.5c0.3,0.2,0.9,0.4,1.5,0.4s0.9-0.3,0.9-0.6c0-0.4-0.3-0.6-1-0.8c-1-0.3-1.6-0.9-1.6-1.7
		c0-1,0.8-1.8,2.2-1.8c0.7,0,1.2,0.1,1.5,0.3l-0.3,1.1c-0.2-0.1-0.7-0.3-1.2-0.3c-0.6,0-0.9,0.3-0.9,0.6c0,0.4,0.3,0.5,1.1,0.8
		c1,0.4,1.5,0.9,1.5,1.8c0,1-0.8,1.8-2.4,1.8c-0.7,0-1.3-0.2-1.7-0.4L76.1,32.5z"/>
	<polygon class="st0" points="82.9,29.1 81.4,29.1 81.4,28 85.9,28 85.9,29.1 84.3,29.1 84.3,33.8 82.9,33.8 	"/>
	<rect x="87.6" y="28" class="st0" width="1.3" height="5.9"/>
	<path class="st0" d="M80.2,44.7l-0.4,1.5h-1.4l1.8-5.9h1.7l1.8,5.9h-1.4l-0.5-1.5H80.2z M81.7,43.7l-0.4-1.2
		c-0.1-0.3-0.2-0.8-0.3-1.1l0,0c-0.1,0.3-0.2,0.8-0.3,1.1l-0.3,1.2H81.7z"/>
	<rect x="85.6" y="40.3" class="st0" width="1.3" height="5.9"/>
	<path class="st0" d="M90.5,44.7l-0.4,1.5h-1.4l1.8-5.9h1.7l1.8,5.9h-1.4l-0.5-1.5H90.5z M92,43.7l-0.4-1.2
		c-0.1-0.3-0.2-0.8-0.3-1.1l0,0c-0.1,0.3-0.2,0.8-0.3,1.1l-0.3,1.2H92z"/>
	<path class="st0" d="M95.9,40.4c0.5-0.1,1.1-0.1,1.8-0.1c1.1,0,1.9,0.2,2.4,0.6c0.6,0.5,1,1.2,1,2.2c0,1.1-0.4,1.9-1,2.4
		s-1.6,0.8-2.7,0.8c-0.7,0-1.2,0-1.5-0.1C95.9,46.2,95.9,40.4,95.9,40.4z M97.2,45.2c0.1,0,0.3,0,0.5,0c1.2,0,2-0.7,2-2.1
		c0-1.2-0.7-1.9-1.9-1.9c-0.3,0-0.5,0-0.6,0.1V45.2z"/>
</g>
</svg>
