<?xml version="1.0" encoding="utf-8"?>
<!-- Generator: Adobe Illustrator 24.2.3, SVG Export Plug-In . SVG Version: 6.00 Build 0)  -->
<svg version="1.1" id="Layer_1" xmlns="http://www.w3.org/2000/svg" xmlns:xlink="http://www.w3.org/1999/xlink" x="0px" y="0px"
	 viewBox="0 0 150 100" style="enable-background:new 0 0 150 100;" xml:space="preserve">
<style type="text/css">
	.st0{fill:#FFFFFF;}
	.st1{fill-rule:evenodd;clip-rule:evenodd;}
	.st2{fill:#231F20;}
</style>
<g>
	<path class="st0" d="M22.1,54.5v2.7c0,0.2-0.1,0.3-0.2,0.4l-0.2,0.2l-2.2-2.2c-0.5-0.5-1.1-0.3-1.2-0.2c-0.2,0.1-0.7,0.3-0.7,1v6.5
		c0,0.7,0.5,1,0.7,1c0.2,0.1,0.7,0.2,1.2-0.2l4.9-4.9c0.2-0.2,0.3-0.5,0.3-0.8v-4.8c0-2.1,1.7-3.8,3.8-3.8h18.7
		c2.1,0,3.8,1.7,3.8,3.8v12.9c0,2.1-1.7,3.8-3.8,3.8H28.5c-2.1,0-3.8-1.7-3.8-3.8V66l2.6-2.6v2.8c0,0.6,0.5,1.1,1.1,1.1h18.7
		c0.6,0,1.1-0.5,1.1-1.1V53.2c0-0.6-0.5-1.1-1.1-1.1H28.5c-0.6,0-1.1,0.5-1.1,1.1v3.5V58c0,1-0.4,1.9-1.1,2.7l-4.9,4.9
		c-1.1,1.1-2.7,1.4-4.1,0.8c-1.4-0.6-2.3-1.9-2.3-3.5v-6.5c0-0.1,0-0.2,0-0.3c0.1-1.4,1-2.6,2.3-3.1c1.4-0.6,3-0.3,4.1,0.8
		L22.1,54.5z"/>
	<path class="st0" d="M46.5,30.1c-3.2,0-5.4,1.6-7,3.6c0,0,0.8,1.1,1.5,2.3l0,0c1.5-2,3.1-3.3,5.5-3.3c3.1,0,5.7,2.6,5.7,5.7
		c0,3.1-2.6,5.7-5.7,5.7c-3.6,0-5.4-3-7.6-6.4c-2.2-3.6-4.7-7.7-9.8-7.7c-4.6,0-8.3,3.7-8.3,8.3c0,4.6,3.7,8.3,8.3,8.3
		c1.9,0,4.3-0.4,7-3.6h0c0,0-0.8-1.1-1.5-2.3c-1.8,2.3-3.4,3.3-5.5,3.3c-3.1,0-5.7-2.6-5.7-5.7c0-3.1,2.6-5.7,5.7-5.7
		c3.6,0,5.4,3,7.6,6.4c2.2,3.6,4.7,7.7,9.8,7.7c4.6,0,8.3-3.7,8.3-8.3C54.9,33.9,51.1,30.1,46.5,30.1"/>
	<polygon class="st0" points="65.8,37.9 61.9,37.9 61.9,35.6 72.3,35.6 72.3,37.9 68.4,37.9 68.4,47.6 65.8,47.6 	"/>
	<path class="st0" d="M80.4,39.4h2.5v1.1l0,0c0.6-0.8,1.4-1.2,2.4-1.2c0.2,0,0.3,0,0.5,0.1v2.4c-0.2,0-0.4-0.1-0.7-0.1
		c-0.9,0-1.6,0.3-2.2,1v5h-2.5V39.4z"/>
	<path class="st0" d="M92.7,47.3c-0.4,0.2-1.1,0.4-1.8,0.4c-0.8,0-1.6-0.3-2.1-0.8c-0.4-0.5-0.7-1.1-0.7-2.4v-3h-1.3v-2.1H88v-2.1
		l2.5-0.4v2.6h2.2v2.1h-2.2v2.7c0,0.8,0.2,1.4,0.9,1.4c0.4,0,0.9-0.2,1.2-0.3V47.3z"/>
	<path class="st0" d="M99.7,46.8c-0.6,0.5-1.4,1-2.5,1c-0.9,0-1.7-0.3-2.1-0.8c-0.5-0.5-0.8-1.3-0.8-2.5v-5h2.5v4.7
		c0,0.6,0.1,0.9,0.3,1.2c0.2,0.2,0.5,0.4,0.9,0.4c0.6,0,1.3-0.3,1.7-0.7v-5.5h2.5v8.2h-2.5L99.7,46.8L99.7,46.8z"/>
	<polygon class="st0" points="62.7,52.2 70.4,52.2 70.4,54.5 65.4,54.5 65.4,57.1 69.7,57.1 69.7,59.3 65.4,59.3 65.4,64.2 
		62.7,64.2 	"/>
	<path class="st0" d="M71.8,56.1h2.5v8.2h-2.5V56.1z M73.1,52c0.8,0,1.5,0.6,1.5,1.4c0,0.8-0.7,1.4-1.5,1.4c-0.8,0-1.5-0.6-1.5-1.4
		C71.6,52.7,72.3,52,73.1,52"/>
	<rect x="76.4" y="51.5" class="st0" width="2.5" height="12.7"/>
	<path class="st0" d="M91.6,59.5c0-0.6-0.1-0.9-0.3-1.1c-0.2-0.3-0.5-0.3-0.9-0.3c-0.6,0-1.2,0.3-1.6,0.7c0,0.1,0,0.2,0,0.4v5.1
		h-2.5v-4.7c0-0.5-0.1-0.9-0.3-1.1c-0.2-0.3-0.5-0.3-0.9-0.3c-0.6,0-1.2,0.3-1.6,0.7v5.5H81v-8.2h2.5v0.7l0,0
		c0.6-0.5,1.5-0.9,2.5-0.9c0.9,0,1.9,0.3,2.4,1.2c0.9-0.8,1.8-1.2,2.9-1.2c0.9,0,1.6,0.3,2.1,0.8c0.5,0.5,0.7,1.2,0.7,2.4v5.1h-2.5
		V59.5z"/>
	<path class="st0" d="M96.1,56.1h2.5v8.2h-2.5V56.1z M97.4,52c0.8,0,1.5,0.6,1.5,1.4c0,0.8-0.7,1.4-1.5,1.4c-0.8,0-1.5-0.6-1.5-1.4
		C95.9,52.7,96.6,52,97.4,52"/>
	<path class="st0" d="M101.2,58.2H100v-2.1h1.2v-1.2c0-1.1,0.2-2.1,0.9-2.7c0.6-0.6,1.5-0.8,2.3-0.8c0.5,0,0.9,0.1,1.4,0.2v2
		c-0.3-0.1-0.8-0.1-1.1-0.1c-0.8,0-0.9,0.5-0.9,1.2v1.4h1.9v2.1h-1.9v6.1h-2.5V58.2z"/>
	<path class="st0" d="M110.9,62.2c1.1,0,2-0.9,2-2.1c0-1.2-0.9-2.1-2-2.1c-1.1,0-2,0.9-2,2.1C108.9,61.3,109.8,62.2,110.9,62.2
		 M110.9,55.9c2.6,0,4.6,1.9,4.6,4.3c0,2.4-1.9,4.3-4.6,4.3c-2.6,0-4.6-1.9-4.6-4.3C106.3,57.7,108.3,55.9,110.9,55.9"/>
	<path class="st0" d="M117.1,56.1h2.5v0.7l0,0c0.6-0.5,1.5-0.9,2.5-0.9c0.9,0,1.6,0.3,2.1,0.8c0.5,0.5,0.7,1.2,0.7,2.4v5.1h-2.5
		v-4.7c0-0.6-0.1-0.9-0.3-1.1c-0.2-0.2-0.5-0.3-0.9-0.3c-0.6,0-1.3,0.3-1.7,0.7v5.5h-2.5V56.1z"/>
	<path class="st0" d="M132.5,58.3c-0.4-0.2-0.8-0.3-1.3-0.3c-1.3,0-2,1-2,2.2c0,1.2,0.7,2.2,1.9,2.2c0.5,0,1-0.2,1.4-0.4V58.3z
		 M132.5,63.8c-0.5,0.4-1.3,0.6-2.1,0.6c-2.1,0-3.8-1.6-3.8-4.1c0-2.6,1.9-4.4,4.3-4.4c0.6,0,1.1,0.1,1.5,0.3l0,0v-4.6h2.5v12.7
		h-2.5L132.5,63.8L132.5,63.8z"/>
	<path class="st0" d="M76.2,45.6c-0.3,0.2-0.7,0.3-1.1,0.3c-0.6,0-1-0.3-1-0.8c0-0.6,0.6-0.8,1.3-0.8c0.3,0,0.6,0,0.9,0.1v0.4V45.6z
		 M77.8,40c-0.6-0.5-1.6-0.8-2.7-0.8c-1.2,0-2.2,0.3-2.9,0.6V42c0.6-0.3,1.5-0.6,2.4-0.6c0.6,0,1,0.1,1.3,0.4
		c0.2,0.2,0.3,0.5,0.3,0.9v0.3c-0.4-0.1-0.9-0.1-1.4-0.1c-0.8,0-1.7,0.1-2.3,0.6c-0.6,0.4-1,1.1-1,2c0,0.8,0.4,1.5,1,1.9
		c0.5,0.4,1.2,0.5,1.9,0.5c0.7,0,1.3-0.2,1.8-0.4v0.2h2.5v-5.3C78.7,41.2,78.4,40.5,77.8,40"/>
</g>
</svg>
