<?xml version="1.0" encoding="utf-8"?>
<!-- Generator: Adobe Illustrator 24.2.3, SVG Export Plug-In . SVG Version: 6.00 Build 0)  -->
<svg version="1.1" id="Layer_1" xmlns="http://www.w3.org/2000/svg" xmlns:xlink="http://www.w3.org/1999/xlink" x="0px" y="0px"
	 viewBox="0 0 150 100" style="enable-background:new 0 0 150 100;" xml:space="preserve">
<style type="text/css">
	.st0{fill:#FFFFFF;}
</style>
<g>
	<path class="st0" d="M49.3,74.5c0.5-0.3,0.9-0.6,1.4-0.9h-0.2h-0.1C50,73.9,49.7,74.1,49.3,74.5C49.2,74.3,49.3,74.4,49.3,74.5"/>
	<path class="st0" d="M45,76.7c-1.1-0.1-2.1-0.4-3-0.9c0,0,0,0.1-0.1,0.1C42.8,76.4,43.9,76.7,45,76.7c0.3,0.1,0.5,0.1,0.8,0.1
		c1.8,0,3.6-0.6,5.1-1.7V75C49.2,76.3,47.2,76.9,45,76.7"/>
	<path class="st0" d="M52.3,74.8V75c0.6-0.6,1.1-1.2,1.6-1.9v-0.2C53.5,73.6,53,74.2,52.3,74.8"/>
	<path class="st0" d="M42.2,74.2c0,0.1,0.1,0.1,0.1,0.2c0.4,0.2,0.8,0.4,1.2,0.5v-0.2C43,74.6,42.6,74.4,42.2,74.2L42.2,74.2"/>
	<path class="st0" d="M45.2,75.3c0.2,0,0.4,0,0.7,0c0.1,0,0.2,0,0.3,0c0-0.1,0.1-0.2,0.1-0.2c-0.4,0-0.7,0-1.1,0c-0.1,0-0.2,0-0.4,0
		v0.2C44.9,75.3,45.1,75.3,45.2,75.3"/>
	<path class="st0" d="M45.4,72.5c-0.2,0-0.5-0.1-0.7-0.1c0,0,0,0.1,0.1,0.1C45,72.5,45.2,72.6,45.4,72.5c0.1,0.1,0.3,0.1,0.4,0.1
		c0.1,0,0.3,0,0.4,0l0.1-0.1C46,72.5,45.7,72.5,45.4,72.5"/>
	<path class="st0" d="M45.8,77.6c1.9,0,3.7-0.6,5.2-1.6c0,0,0-0.1-0.1-0.1c-1.8,1.2-3.9,1.8-6,1.6c-1.4-0.1-2.6-0.5-3.8-1.2
		c-0.1,0-0.1,0-0.2,0c1.2,0.7,2.5,1.2,4,1.3C45.2,77.6,45.5,77.6,45.8,77.6"/>
	<path class="st0" d="M103.8,76.9c1.4,0,2.8-0.3,4-0.9v-0.1c-1.4,0.7-3.1,1-4.8,0.9c-0.6-0.1-1.2-0.2-1.8-0.4h-0.3
		c0.7,0.2,1.4,0.4,2.2,0.5C103.2,76.9,103.5,76.9,103.8,76.9"/>
	<path class="st0" d="M100,76.1L100,76.1c-0.4-0.2-0.7-0.4-1-0.6v0.1C99.3,75.8,99.6,75.9,100,76.1"/>
	<path class="st0" d="M99.9,74.4v-0.2c-0.3-0.2-0.6-0.4-0.9-0.6l-0.1,0.1l0,0C99.2,74,99.5,74.2,99.9,74.4"/>
	<path class="st0" d="M97.8,74.7C97.8,74.7,97.9,74.7,97.8,74.7C97.9,74.7,97.9,74.7,97.8,74.7c-0.3-0.4-0.6-0.7-0.9-1
		c0,0,0,0.1-0.1,0.1C97.2,74.1,97.5,74.4,97.8,74.7"/>
	<path class="st0" d="M107.1,74.7c0.2-0.1,0.4-0.2,0.6-0.3v-0.2c-0.2,0.1-0.4,0.2-0.5,0.3C107.1,74.5,107.1,74.6,107.1,74.7"/>
	<path class="st0" d="M108.6,76.3c-1.7,1-3.7,1.4-5.8,1.2c-1.6-0.1-3.1-0.7-4.4-1.5c0,0-0.1,0-0.1,0.1c1.3,0.9,2.8,1.4,4.5,1.6
		c0.3,0,0.6,0,0.9,0c1.8,0,3.6-0.5,5.1-1.4C108.8,76.3,108.6,76.3,108.6,76.3z"/>
	<path class="st0" d="M103,75.4L103,75.4c0.3,0,0.5,0,0.8,0c0-0.1-0.1-0.1-0.1-0.2c-0.2,0-0.4,0-0.6,0c-0.1,0-0.1,0-0.2,0
		C102.9,75.3,102.9,75.3,103,75.4"/>
	<path class="st0" d="M73.7,55.5c-0.5,1.3-0.8,2.6,0.4,3.8c0.3,0.3,0.7,0.6,1.2,0.8c0.1-0.2,0.3-0.3,0.4-0.5
		c-0.4-0.2-0.9-0.4-1.1-0.7c-0.3-0.3-0.4-0.6-0.5-0.9c0.5,0,1.2,0.1,2.2,0.2c0-0.1,0-0.1,0-0.2c-1-0.1-1.8-0.2-2.2-0.2
		c-0.1-0.6,0.1-1.3,0.4-2.1c0.1-0.2,0.2-0.4,0.3-0.7c-0.2-0.1-0.4-0.2-0.6-0.3l0,0C73.9,55,73.8,55.3,73.7,55.5"/>
	<path class="st0" d="M86.7,63.7l-10.8-1c-0.2,0.1-0.4,0.2-0.7,0.3l11.4,1c0.1,0,0.2,0,0.4,0v-0.4C86.9,63.7,86.7,63.7,86.7,63.7"/>
	<path class="st0" d="M70.7,56.7c0,0.2,0,0.4,0,0.6c-0.1,1-0.2,2.5-0.3,3.7h0.2c0.1-1.3,0.3-2.7,0.3-3.7c0-0.2,0-0.4,0-0.6
		C71,56,71,55.3,71,54.5h-0.2C70.9,55.3,70.8,56,70.7,56.7"/>
	<path class="st0" d="M92.6,61.1H92l-0.8,0.8c-0.4,0.4-0.9,0.7-1.3,1v0.5c0.5-0.3,1.1-0.7,1.6-1.2L92.6,61.1z"/>
	<path class="st0" d="M94,61.1h-0.2C93,62.6,92,64,91,65.1h0.3C92.3,63.9,93.2,62.6,94,61.1"/>
	<path class="st0" d="M70.1,64.2L70.1,64.2l0.9-0.6h-0.4l-0.4,0.2c0-0.1,0-0.2,0-0.2H70c0,0,0,0,0,0.1c-0.1,0.1-0.2,0.2-0.3,0.3
		c-0.2,0.2-0.5,0.4-0.8,0.5v0.4C69.4,64.7,69.8,64.5,70.1,64.2"/>
	<path class="st0" d="M32.2,61c-0.1-2.2,0.6-4.1,1.2-5.1c0.2-0.4-0.2-0.5-0.2-0.5c-0.8-0.2-1.2-0.6-1.4-0.9h-0.1h-0.6
		c0,0.1,0.1,0.2,0.1,0.2c0.2,0.4,0.6,0.8,1.4,1.1c-0.6,1-1.2,2.9-1,5.1h0.1C31.8,61.1,32,61,32.2,61"/>
	<path class="st0" d="M113.6,68.6c-0.2,2.2-1.1,4.3-2.6,5.8v0.1C112.5,72.9,113.4,70.9,113.6,68.6c0-0.5,0.1-1,0-1.5
		c0-0.1-0.1-0.2-0.1-0.2C113.7,67.4,113.7,68,113.6,68.6"/>
	<path class="st0" d="M50.2,63.1c-0.6,0-1.2,0-1.6,0.1v0.4c0.4-0.1,1-0.2,1.6-0.1c2.7,0.1,12,1,16,1.4v-0.4
		C62.2,64.1,53,63.2,50.2,63.1"/>
	<path class="st0" d="M47.5,51.2c8.6-3.1,19.1-1.7,21.4-0.4c0.6,0.3,1,0.7,1.3,1.2h0.2c-0.3-0.6-0.8-1-1.5-1.4
		C66.5,49.3,56,47.9,47.3,51c-3.6,1.3-6.3,2.9-8.2,4.7c-1,1-1.6,2-1.9,2.7c0,0.3-0.1,0.7-0.2,1l0.1-0.1
		C37.8,57.8,39.1,54.2,47.5,51.2"/>
	<path class="st0" d="M114.6,60.3c-0.6-0.4-1.1-0.9-1.5-1.6l0,0c-0.8,0.1-1.9,0.3-3.1,0.5c-3.5,0.7-5.7,2.2-9.1,4.4l-0.7,0.5
		c-0.9,0.6-1.7,1-2.5,1.3c0.1,0.2,0.2,0.3,0.3,0.6c0.4-0.2,0.8-0.3,1.2-0.6c-0.2,0.5-0.4,1.1-0.5,1.7c-0.3,2.8,1.8,5.3,4.6,5.5h0.1
		v-0.1c-0.1,0-0.1,0-0.2,0c-2.7-0.2-4.8-2.7-4.5-5.4c0.1-0.6,0.2-1.2,0.5-1.8c0.2-0.1,0.4-0.2,0.7-0.4l0.6,1
		c-0.2,0.4-0.3,0.9-0.4,1.3c-0.2,2,1.3,3.7,3.3,3.9c0.1,0,0.2,0,0.3,0c1,0,1.9-0.4,2.5-1c0.1,0,0.2,0,0.3,0c0.5,0,1.1-0.2,1.6-0.5
		c-0.7,1.4-2,2.5-3.5,2.8v0.1c1.6-0.3,3-1.5,3.6-3c0.4-0.3,0.8-0.6,1-1c0.4-0.7,0.5-1.6,0.2-2.2c-0.1-0.4-0.3-0.6-0.6-0.8
		c-0.3-0.1-0.5-0.2-0.8-0.2c-0.2-0.4-0.4-0.7-0.7-1c-0.9-1-2.1-1.7-3.4-1.8c-0.2,0-0.3,0-0.5,0c1.1-0.7,2.2-1.3,3.3-1.8
		c1,0.5,1.8,1.1,2.5,2c1.3,1.6,1.9,3.5,1.7,5.6c-0.1,1.4-0.6,2.7-1.4,3.8c0.1,0,0.2,0,0.2,0c0.8-1.1,1.3-2.4,1.4-3.8
		c0.2-2.1-0.4-4.1-1.8-5.7c-0.7-0.8-1.5-1.5-2.5-2c0.5-0.2,1.1-0.4,1.6-0.6c0.7,0.5,1.3,1,1.8,1.7c1.6,1.9,2.3,4.2,2.1,6.7
		c-0.2,1.7-0.8,3.3-1.7,4.6v0.1c1-1.3,1.7-2.9,1.8-4.7c0.2-2.5-0.5-4.8-2.1-6.7c-0.5-0.6-1.1-1.2-1.8-1.6c0.3-0.1,0.6-0.1,0.9-0.2
		c1.9,1.5,3.2,3.8,3.6,6.2c0-0.1,0-0.2,0.1-0.3c-0.4-2.4-1.7-4.5-3.6-6h0.1c1.2-0.2,2.2-0.4,3-0.5c0.1,0.1,0.2,0.2,0.2,0.3
		c1.3,1.6,2.2,3.5,2.6,5.4h0.6C116.3,63.4,115.6,61.8,114.6,60.3 M101.2,64.2c0.2-0.1,0.3-0.2,0.5-0.3c0.1,0.2,0.2,0.4,0.4,0.6
		c-0.2,0.1-0.4,0.3-0.6,0.4c-0.1,0-0.1,0.1-0.1,0.1l-0.4-0.6L101.2,64.2z M100.1,64.9c0.1-0.1,0.2-0.1,0.3-0.2l0.3-0.2l2.7,4.4
		c0.1,0.1,0.1,0.2,0,0.3c0,0.1-0.1,0.2-0.2,0.2c-0.2,0.1-0.4,0.1-0.5-0.1L100.1,64.9z M103.4,71c-1.9-0.2-3.2-1.8-3.1-3.7
		c0-0.4,0.1-0.8,0.3-1.1l2,3.2c0.1,0.2,0.3,0.3,0.5,0.3c0.1,0,0.2,0,0.3-0.1c0.1-0.1,0.2-0.2,0.3-0.4c0-0.1,0-0.3-0.1-0.4l-2.2-3.6
		c0.1-0.1,0.1-0.1,0.2-0.2c0.2-0.2,0.4-0.3,0.6-0.4c1.3,2.2,3.2,5.1,3.9,5.5C105.4,70.8,104.4,71.1,103.4,71 M109,65.8
		c0.2,0.1,0.4,0.3,0.5,0.6c0.2,0.6,0.1,1.4-0.2,2.1c-0.5,1-2.2,1.7-3.1,1.4c-0.6-0.2-2.8-3.8-4.3-6.2c0.4-0.2,0.7-0.5,1-0.7l1.9,2.5
		c0,0,0.7,0.9,1.8,0.5l0.2-0.1C107.7,65.7,108.3,65.5,109,65.8 M104.1,64.3c1.1,0.1,2,0.7,2.5,1.6h-0.1c-0.9,0.3-1.5-0.4-1.6-0.4
		L104.1,64.3z M103.7,62.7c0.1,0,0.3,0,0.5,0c1.3,0.1,2.5,0.7,3.4,1.8c0.2,0.3,0.5,0.6,0.6,1c-0.4,0-0.9,0.2-1.4,0.4
		c-0.6-0.9-1.6-1.6-2.7-1.7c-0.1,0-0.1,0-0.2,0l-0.8-1.1c0.2-0.1,0.3-0.2,0.5-0.3C103.6,62.7,103.7,62.7,103.7,62.7"/>
	<path class="st0" d="M96.1,54.5c-0.3,1.2-0.6,2.4-1,3.6l-0.4,0.4h0.5l0,0c0.5-1.3,0.9-2.7,1.2-4H96.1z"/>
	<path class="st0" d="M33.4,60.6c0.1-0.1,0.2-0.1,0.3-0.2c0.3-1,0.8-2,1.3-3c0-0.1,0-0.2-0.1-0.3C34.2,58.2,33.7,59.4,33.4,60.6"/>
	<path class="st0" d="M115.8,58.1c0.2,0.1,0.3,0.2,0.5,0.3c0,0,0,0,0-0.1c0.2-0.3,0.2-0.6,0.1-0.8c-0.1-0.3-0.4-0.6-0.6-0.7
		c-0.1-0.2-0.2-0.7-0.7-1.3c-0.1,0.2-0.2,0.5-0.2,0.8c0.3,0.5,0.3,0.8,0.3,0.8v0.1c0,0-0.1,0.1-0.2,0.1c0,0.1,0.1,0.1,0.1,0.2
		c0.1,0,0.2-0.1,0.3-0.1c0.1,0.1,0.3,0.2,0.4,0.4C116,57.9,116,57.9,115.8,58.1C115.9,58.1,115.9,58.1,115.8,58.1"/>
	<path class="st0" d="M96.1,72.6c-0.9-1.5-1.5-3.2-1.5-5h-0.1C94.5,69.4,95,71.2,96.1,72.6C96,72.6,96.1,72.6,96.1,72.6"/>
	<path class="st0" d="M91.8,55.3c-0.7,1.4-1.3,2.4-1.8,3.2h0.7c0.5-0.8,1.1-1.8,1.6-3c0.2-0.4,0.4-0.7,0.5-1.1h-0.7
		C92.1,54.8,92,55.1,91.8,55.3"/>
	<path class="st0" d="M86.8,31.2l1.2,0.4c0.1,0.3,0.4,0.8,0.6,1.4l-0.8,0.8l0,0c-0.6,0.6-0.7,1.1-0.3,1.7c0.3,0.3,0.5,0.5,0.9,0.5
		c0.2,0,0.5-0.1,0.8-0.2l0.5-0.3c0,0,0.3,0.7,1.3,0.8c0.5,1,2.7,6.2,3.4,8.5c-0.3,1.1-1.1,4.2-1.9,6.6c-0.1,0.3-0.2,0.5-0.3,0.8h0.2
		c0.1-0.3,0.2-0.5,0.3-0.7c0.7-2.2,1.5-5,1.8-6.3c0.4,1.6,0,3.9-1.3,7H94c1.3-3.3,1.7-5.7,1.1-7.4c-0.8-2.5-3.4-8.4-3.5-8.8
		c0.3,0,0.6,0,0.9,0c2.4,4.1,3.8,8.7,4.1,13.2c0.1,1,0,2-0.1,3h0.2l0,0c0.1-1,0.1-2.1,0.1-3.1c-0.3-4.4-1.7-9.1-4.1-13.2
		c0.1,0,0.2,0,0.3,0c0.2,0,0.4-0.1,0.6-0.1c2.3,4.1,3.8,8.8,4,13.3c0.1,1.1,0,2.3-0.1,3.4c0.1,0.1,0.1,0.1,0.2,0.2
		c0.1-1.2,0.2-2.4,0.1-3.6c0-0.4-0.1-0.8-0.1-1.3c0.4-1.9,0.5-3.8,0.1-5.7c0.7,1.7,1.6,3.4,3.3,5.1c0.8,0.8,1.4,1.7,1.9,2.5
		c0.8,1.6,1.1,2.9,1.1,3c0.1,0.5,0.2,1.5,0.2,1.6c-2.5,2.4-6.1,2.5-7.4,2.5c0.2-0.8,0.4-1.6,0.6-2.4c-0.1,0.1-0.1,0.1-0.2,0.1
		c-0.3,1.5-0.7,3-1.3,4.4c0.1,0,0.1,0.1,0.2,0.1c0.3-0.7,0.5-1.5,0.8-2.2c0.1,0,0.2,0,0.3,0c1.5,0,4.9-0.3,7.2-2.5l0,0l0,0
		c0,0-0.1-0.8-0.2-1.4h0.1l0,0c0-0.2,0.2-0.4,0.3-0.6h-0.1c-0.2-0.8-0.9-3.3-3.1-5.5s-3-4.4-3.8-6.6c-0.1-0.4-0.3-0.7-0.4-1.1
		c-0.9-2.4-1.6-4.7-1.6-4.7l0,0c-0.1-0.1-0.1-0.5-0.1-0.7c0-0.1,0.1-0.1,0.2-0.1c0.2-0.1,0.3,0,0.6,0.5c0.3,0.4,0.7,0.8,1.3,1.1
		c0,0,0.1,0.1,0.2,0c0.1,0,2.5-0.8,2.9-2.1c0.4-1.2,0.1-4.1,0.1-4.3c0-0.5-0.4-1.4-1.4-1.4c-0.1,0-0.3,0-0.4,0c-0.4,0-0.8,0-1.3-0.1
		l0.5-0.5c0.1-0.1,0.1-0.1,0-0.2c-0.3-0.8-1.2-1.2-1.9-1.3c0.3-0.8,0.6-1.5,0.7-2.1c0.1-0.8,0-1.2-0.3-1.4c-0.3-0.1-0.7,0.1-1.2,0.7
		c-0.5,0.5-0.9,1.3-1.4,2.2c-0.4,0.9-0.7,1.7-0.8,2.4c0,0.2,0,0.3,0,0.5c-0.2,0-0.3,0-0.5,0.1c-0.2,0-0.5,0.1-0.7,0.2
		c-0.3-1.4-0.6-3.1-0.6-3.7c-0.1-1-0.6-1.1-1-1.3c-0.1,0-0.2-0.1-0.3-0.1c-0.2-0.1-0.4-0.2-0.5-0.3c0.3-0.6,0.5-1.3,0.6-1.8
		c0.1-0.6,0-1-0.2-1.1c-0.5-0.2-1.4,1-2,2.2c-0.3,0.7-0.5,1.4-0.6,1.9c-0.1,0.6,0,1,0.2,1.1h0.1c0.5,0,1.2-1,1.8-2
		c0.1,0.1,0.3,0.2,0.5,0.3c0.1,0,0.2,0.1,0.3,0.1c0.4,0.2,0.7,0.2,0.8,1c0.1,0.6,0.3,2.1,0.6,3.3c0,0.2,0.1,0.3,0.1,0.4
		c-1.4,0.5-2.5,1.2-3.1,1.7l-1.5-0.1l0,0c-0.7,0-1,0.2-1.1,0.8C86,30.6,86.2,31,86.8,31.2 M89.5,22.1c-0.7,1.5-1.5,2.3-1.8,2.1
		c-0.1-0.1-0.2-0.3-0.1-0.9c0.1-0.5,0.3-1.2,0.6-1.9c0.7-1.4,1.4-2.2,1.7-2.2c0,0,0,0,0.1,0c0.1,0.1,0.2,0.3,0.1,0.9
		C90.1,20.8,89.9,21.5,89.5,22.1 M89.2,35.5c-0.6,0.3-1.1,0.3-1.4-0.2s-0.3-0.9,0.2-1.4l1.5-1.4c0.6-0.5,1.2-0.1,1.6,0.4
		c0.2,0.3,0.3,0.6,0.3,0.9c0,0.3-0.1,0.6-0.4,0.7L89.2,35.5z M96.8,39.3c0.1,0.3,0.3,0.7,0.4,1c0.1,0.4,0.3,0.8,0.4,1.2
		c0.4,1.9,0.5,3.9,0.1,5.9c-0.5-4-1.8-8.1-3.9-11.7c0.5-0.2,1.1-0.4,1.5-0.7C95.5,35.7,96.1,37.4,96.8,39.3 M99.1,27.8
		c0.2,0,0.3,0,0.5,0c0.7,0,0.8,0.8,0.8,0.8l0,0c0,0,0.3,2.9-0.1,4c-0.3,0.8-1.5,1.3-2.2,1.7c-0.2,0.1-0.3,0-0.3,0
		c-0.3-0.2-0.6-0.5-0.8-0.8l0,0c0.7-0.7,1.2-1.6,1.4-2.6c0.3-1.1,0.2-2.2-0.2-3.2C98.5,27.8,98.8,27.8,99.1,27.8 M98,26.4l-0.7,0.7
		c-0.6,0-1.2,0-1.9,0c0.3-0.5,0.7-1.1,1-1.7C96.9,25.6,97.6,25.8,98,26.4 M93.7,26.9c0.1-0.7,0.4-1.5,0.8-2.4s0.9-1.6,1.3-2.1
		c0.4-0.4,0.7-0.6,0.9-0.6h0.1c0.2,0.1,0.3,0.5,0.2,1.1c-0.1,0.7-0.4,1.5-0.8,2.4s-0.9,1.6-1.3,2.1s-0.8,0.7-1,0.6
		S93.6,27.5,93.7,26.9 M88.6,30.2c0,0,1.9-1.8,4.4-2.2c0.2,0,0.3-0.1,0.5-0.1c0.1,0.1,0.1,0.2,0.2,0.3c0.1,0,0.1,0,0.2,0
		c0.2,0,0.5-0.2,0.8-0.5c0.6,0,1.2-0.1,1.8-0.1l-1.9,1.8l-0.1,0.1v2.8c0,0.1-0.2,0.4-0.6,0.4c0-0.2-0.2-0.4-0.5-0.4
		s-0.5,0.2-0.6,0.5c0,0.3,0.2,0.5,0.5,0.6c0.2,0,0.4-0.1,0.5-0.3h0.1c0.5,0,0.8-0.4,0.9-0.7l0,0v-2.8l2.1-2c0.3,0,0.6,0,0.8,0
		c0.4,0.9,0.5,2.1,0.2,3.2c-0.2,1-0.7,1.9-1.4,2.5c-0.3-0.4-0.7-0.8-1.2-0.5c-0.2,0.1-0.4,0.3-0.5,0.5c-0.2,0.5,0,1,0,1.2
		c0,0,0,0.1,0.1,0.3c-0.6,0.5-1.4,0.8-2.2,0.9c-0.8,0.1-1.9,0.1-2.4-0.1c-0.2-0.1-0.3-0.4-0.3-0.4l0.9-0.5c0.3-0.2,0.5-0.5,0.5-0.9
		c0-0.3-0.1-0.7-0.4-1c-0.5-0.7-1.3-0.9-1.9-0.4l-0.2,0.2c-0.3-0.6-0.5-1-0.6-1.3C88.3,30.6,88.5,30.4,88.6,30.2L88.6,30.2z
		 M86.3,30.1c0.1-0.4,0.3-0.6,0.8-0.6h0.1l1.3,0.1c-0.1,0.1-0.2,0.2-0.3,0.2c-0.3,0.2-0.6,0.7-0.3,1.5l-1-0.3
		C86.4,30.8,86.2,30.5,86.3,30.1"/>
	<path class="st0" d="M95.6,73.2c-1.1-1.6-1.7-3.6-1.7-5.7h-0.1c0,2.1,0.6,4.1,1.8,5.8C95.5,73.3,95.6,73.3,95.6,73.2"/>
	<path class="st0" d="M89.9,67.6c-0.6,0.5-1.3,0.9-2,1.3c-0.1,0-0.1,0-0.2,0l0,0c-0.2,0-0.3-0.1-0.4-0.2c-0.1-0.2,0-0.4,0.2-0.5
		c0.3-0.2,0.6-0.3,0.9-0.6l0,0c-0.1,0-0.2,0-0.3,0c-0.2,0.1-0.5,0.3-0.7,0.4c-0.3,0.2-0.4,0.5-0.3,0.8c0.1,0.1,0.2,0.2,0.3,0.3
		c-0.2,0.2-0.4,0.3-0.7,0.3l-18.4-1.9c-0.2,0.1-0.4,0.2-0.7,0.2c-0.4,0-0.7-0.1-0.9-0.3l-8.6-0.9c0-0.1,0-0.2,0.1-0.3
		c0.1-0.4-0.1-0.7-0.4-0.8c-0.2,0-0.4,0-0.5,0.1s-0.2,0.2-0.2,0.3c0,0.2-0.1,0.3-0.1,0.5h-0.2v0.1c0,0.1,0,0.2,0,0.3h0.1
		c-0.1,0.3-0.2,0.5-0.5,0.6c-0.2,0.2-0.5,0.3-0.9,0.4c0.2,0,0.4,0,0.6-0.1c0.8-0.2,1-1.1,1.1-1.8c0-0.1,0.1-0.2,0.1-0.2
		c0.1-0.1,0.2-0.1,0.4,0c0.3,0,0.3,0.3,0.3,0.4c-0.2,0.9-0.6,1.9-1.6,2.3c-0.3,0.1-0.7,0.1-1.1,0.1h-0.2c-0.4,0-0.9,0-1.3,0.1
		c-0.3,0.1-0.6,0.2-0.9,0.4c-0.4,0.2-0.9,0.4-1.4,0.4c-0.4,0-0.8-0.1-1.1-0.2c-0.1,0-0.2,0-0.3-0.1c-0.5-0.1-0.9-0.2-1.4-0.3
		c-0.9-0.2-1.9-0.5-2.9-0.7l0,0c-0.2,0-0.3-0.1-0.3-0.3c0-0.1,0-0.3,0.1-0.4s0.2-0.1,0.3-0.1c0,0,0.1,0,0.2,0c0.1,0,0.2,0.1,0.4,0.1
		c-0.1-0.1-0.2-0.2-0.3-0.3c-0.2-0.1-0.5,0-0.6,0.1c-0.2,0.2-0.2,0.4-0.2,0.6c0.1,0.2,0.2,0.4,0.5,0.4c1,0.3,1.9,0.5,2.9,0.7h0.1
		c-0.6,1.2-1.9,2-3.2,1.9c-0.9-0.1-1.7-0.5-2.2-1.2c-0.6-0.7-0.8-1.6-0.7-2.5c0.1-1.1,0.7-2.1,1.5-2.6c0.5,0.1,1.1,0.1,1.7,0.2V64
		c-4.9-0.5-9-0.9-11.4-1.2c-0.3,0.2-0.7,0.3-1,0.4c0.1,0,0.2,0,0.3,0c-0.3,0.9-0.5,1.9-0.6,2.9c-0.3,3.6,0.7,7,2.9,9.8
		c2.2,2.7,5.2,4.4,8.6,4.7c0.4,0,0.7,0.1,1.1,0.1c4,0,7.7-2,10.1-5.1l-0.3-0.3h-0.3v0.2c0,0.4-0.3,0.7-0.7,0.7h-0.1
		c-2.5,2.7-6,4.2-9.8,3.9c-3.2-0.3-6.1-1.9-8.2-4.5c-2.1-2.6-3-5.9-2.7-9.4c0.1-1,0.3-2,0.6-2.9c0.6,0.1,1.5,0.2,2.5,0.3
		c-0.3,0.9-0.6,1.9-0.7,2.9c-0.2,2.7,0.5,5.4,2.2,7.5c0.1,0.2,0.3,0.4,0.5,0.5v-0.2c-0.1-0.1-0.3-0.3-0.4-0.5
		c-1.6-2.1-2.4-4.7-2.2-7.4c0.1-1,0.3-2,0.7-2.9c0.2,0,0.4,0,0.7,0.1c-0.4,0.9-0.6,1.9-0.7,2.8c-0.2,2.5,0.5,4.9,1.9,6.7v-0.2
		c-1.3-1.8-2-4.1-1.8-6.5c0.1-1,0.3-2,0.7-2.8c0.4,0,0.9,0.1,1.3,0.2c-0.4,0.9-0.7,1.8-0.8,2.8c-0.2,2,0.3,3.9,1.4,5.4H40
		c-1.1-1.5-1.6-3.4-1.5-5.4c0.1-1,0.4-2,0.8-2.8c0.2,0,0.3,0,0.5,0.1c0.7,0.1,1.4,0.2,2.2,0.3c-0.6,0.8-0.9,1.7-1,2.7
		c-0.1,1.4,0.3,2.7,1.1,3.8c0.5,0.6,1,1.1,1.7,1.4c0,0,0.1,0,0.1-0.1c-0.7-0.3-1.2-0.8-1.7-1.4c-0.8-1-1.2-2.4-1.1-3.7
		c0.1-1,0.5-1.9,1-2.7c0.6,0.1,1.1,0.1,1.7,0.2C43,65,42.5,65.9,42.4,67c-0.1,1,0.2,1.9,0.8,2.7c0.6,0.8,1.4,1.2,2.4,1.3
		c0.1,0,0.2,0,0.3,0c1.3,0,2.5-0.8,3.1-2c0.4,0.1,0.7,0.2,1.1,0.3c0.1,0,0.2,0,0.2,0.1c-0.3,0.7-0.8,1.4-1.4,1.9
		c-0.4,0.4-0.9,0.6-1.3,0.8h0.2c0.4-0.2,0.8-0.4,1.2-0.8c0.6-0.5,1.1-1.2,1.4-2c0.4,0.1,0.7,0.2,1.1,0.2l0,0c0.6,0,1-0.2,1.5-0.4
		c0,0,0,0,0.1,0c-0.2,1.1-0.7,2.2-1.4,3.1H52c0.7-0.9,1.1-2,1.4-3.2c0.2-0.1,0.4-0.2,0.6-0.2c0.1,0,0.3-0.1,0.4-0.1
		c0,0.2,0,0.4,0.1,0.6c0,0.1,0.1,0.3,0.1,0.4c-0.2,1-0.6,1.9-1.1,2.7c0,0,0,0.1,0.1,0.1c0.5-0.8,0.9-1.7,1.1-2.7
		c0.1,0.2,0.3,0.4,0.5,0.6c-0.2,0.6-0.4,1.2-0.7,1.7h0.1c0.3-0.5,0.5-1.1,0.7-1.6c0.5,0.3,1.1,0.4,1.6,0.4c0.1,0,0.1,0,0.2,0l0,0
		c0,0,0.3,0,0.7-0.1c-0.2,0.6-0.4,1.2-0.6,1.8c0.2,0.2,0.3,0.4,0.4,0.6c0.4-0.8,0.7-1.7,0.9-2.5c3.5-0.5,12.8-2,14.2-2.2
		c0.3-0.1,0.5-0.1,0.7-0.2L87,69.7h0.1c0.6,0,0.9-0.3,1.1-0.6h0.1c0.8-0.4,1.5-0.9,2.2-1.5C90.5,67.6,89.9,67.6,89.9,67.6z
		 M56.8,70.3c-0.1,0-1.7,0-1.8-1.1c0-0.2-0.1-0.4-0.1-0.6c0.1,0,0.2,0,0.3,0h0.2c0.4,0,0.8,0,1.1-0.1c0.9-0.3,1.3-1,1.5-1.7
		l13.1,1.3C67.3,68.7,57.3,70.2,56.8,70.3"/>
	<path class="st0" d="M95.5,65.1L95.5,65.1c2.2-5.1,7.1-8.6,12.9-8.6c1.4,0,2.8,0.2,4.2,0.6V57c-1.3-0.4-2.7-0.6-4.1-0.6
		C102.6,56.4,97.6,60,95.5,65.1"/>
	<path class="st0" d="M116.3,67.6c0,0.4,0,0.8-0.1,1.2c-0.3,3.3-1.9,6.3-4.5,8.5c-2.6,2.1-5.8,3.2-9.2,2.9
		c-6.5-0.6-11.4-6.1-11.4-12.6h-0.6c0,6.8,5.1,12.5,11.9,13.2c0.4,0,0.8,0.1,1.2,0.1c3.1,0,6-1.1,8.4-3c2.7-2.2,4.4-5.4,4.7-8.9
		c0-0.4,0.1-0.9,0.1-1.3L116.3,67.6L116.3,67.6z"/>
	<path class="st0" d="M78.6,58.4c2,0.1,4.2,0.3,5.9,0.3c1,0,1.9,0,2.5-0.1v-0.2C85.5,58.7,81.7,58.5,78.6,58.4
		C78.6,58.3,78.6,58.3,78.6,58.4"/>
	<path class="st0" d="M32.5,52.1c0.4-0.5,0.8-0.9,1.3-1.1c1.1-0.5,2,0.2,2,0.2s0.2,0.1,0.3,0c4.7-4.1,11.5-6.8,19-7.6
		c0.8,0.7,1.5,1.4,1.9,1.9c0.1,0.2,0.3,0.3,0.4,0.5c-4.2,0.3-8.8,1.1-12.4,2.5c-3.5,1.4-6.4,3.5-8.6,6.2c0,0.1,0.1,0.1,0.1,0.2
		c2.1-2.7,5-4.8,8.5-6.2c3.6-1.4,8.2-2.2,12.5-2.5c0.1,0.1,0.1,0.2,0.2,0.2c0.7,0.9,1.1,1.5,3,1.7c0.4,0,0.8,0.1,1.2,0.1
		c1.1,0,2.1-0.1,3-0.3c0.5-0.1,1.1-0.1,1.5-0.2c1.3-0.1,3.4,0.1,4.8,0.2h0.5c0.4,0,0.7,0,0.9-0.2c0.7,0.5,1.1,1.2,1.1,2.2
		c0,0.8-0.2,1.3-0.4,2.1c0.1,0,0.1,0,0.2,0c0.2-0.7,0.4-1.3,0.4-2.1c0-0.9-0.3-1.7-1.1-2.3c0.5-0.3,0.7-0.9,0.7-1.3c0,0,0-0.2,0-0.4
		c0.7,0.5,1.3,1.1,1.5,1.8c0.6,1.5,0.3,3.2-0.2,4.7c0.2,0.1,0.4,0.2,0.6,0.2c0.5-1.6,0.8-3.5,0.2-5.2c-0.4-0.9-1.1-1.6-2-2.3
		c0.1-1,0.2-2.5,0.3-3.1c0.1-0.5,0-0.9-0.2-1.1c-0.3-0.3-0.6-0.4-0.7-0.4L66.7,40c-2.4-0.2-5.8-2-7.9-3c-0.7-0.4-1.3-0.6-1.6-0.8
		c-1.3-0.5-2.4-0.2-3.7,1.2c-1.4,1.3-1.4,2.6-1.4,2.7c0,0.7,0.3,1.3,1.1,1.8c0.5,0.4,0.9,0.7,1.3,1c-7.3,0.9-13.9,3.6-18.6,7.6
		c-0.4-0.1-1.3-0.6-2.3-0.1c-0.6,0.3-1.2,0.8-1.7,1.6C32,52.1,32.3,52.1,32.5,52.1 M53.9,37.7c1-1,1.7-1.3,2.4-1.3
		c0.3,0,0.6,0.1,0.9,0.2c0.3,0.1,0.8,0.4,1.5,0.7c2.1,1.1,5.5,2.8,8,3.1L73,41c0,0,0.2,0,0.4,0.2c0.1,0.2,0.2,0.5,0.1,0.8
		c-0.1,0.4-0.1,1.2-0.2,2c-0.1,0-0.1,0-0.2-0.1c-1-0.5-3.5-1.5-8.1-0.6c-5.2,1.1-6.8-0.5-8.5-2.3c-0.9-0.9-1.9-1.9-3.4-2.5
		C53.3,38.4,53.5,38.1,53.9,37.7 M53.5,41.7c-0.7-0.5-0.9-0.9-0.9-1.5l0,0c0,0,0-0.6,0.4-1.3c1.5,0.5,2.5,1.5,3.4,2.4
		c1.7,1.8,3.4,3.5,8.7,2.3c4.5-1,6.9,0.1,8,0.6c0.1,0,0.2,0.1,0.2,0.1c-0.1,1-0.2,2-0.2,2.1s-0.2,1.3-1.4,1.2h-0.5
		c-1.4-0.1-3.5-0.3-4.9-0.2c-0.5,0-1,0.1-1.6,0.2c-1.2,0.2-2.5,0.3-4.1,0.2c-1.7-0.2-2.1-0.7-2.7-1.6c-0.2-0.3-0.4-0.6-0.7-0.9
		C56.6,44.2,55.2,43,53.5,41.7"/>
	<path class="st0" d="M97.6,72.1c-0.9-1.3-1.5-2.9-1.5-4.5h-0.2c0,1.7,0.5,3.2,1.4,4.5C97.4,72.1,97.5,72.1,97.6,72.1"/>
	<path class="st0" d="M49,68L49,68c0.5,0.1,1,0.2,1.4,0.3c0.1,0,0.2,0,0.3,0.1c0.3,0.1,0.7,0.2,1,0.1c0.3,0,0.6-0.2,0.9-0.3h0.1
		c0.4-0.2,0.8-0.4,1.1-0.4c0.3-0.1,0.6-0.1,1-0.1h-1.5c0,0,0,0,0,0.1c-0.3,0.1-0.5,0.2-0.7,0.3h-0.1c-0.3,0.1-0.5,0.3-0.8,0.3
		s-0.6-0.1-0.9-0.1c0-0.1,0-0.2,0-0.4c0-0.1,0-0.2,0-0.2h-0.1c0,0.1,0,0.2,0,0.2c0,0.1,0,0.2,0,0.3c-0.1,0-0.1,0-0.2,0
		c-0.4-0.1-0.8-0.2-1.1-0.3c0-0.1,0-0.1,0-0.2v-0.1h-0.2v0.1v0.1h-0.1c-0.3-0.1-0.6-0.1-0.9-0.2h-0.8C47.9,67.7,48.4,67.9,49,68"/>
	<path class="st0" d="M85.7,60.7L78.2,60c-0.1,0.2-0.2,0.4-0.3,0.6l7.7,0.7c0.5,0,1,0,1.4,0v-0.6C86.6,60.7,86.2,60.8,85.7,60.7"/>
	<path class="st0" d="M72.3,56.9C72.2,58.1,72,59.7,72,61h0.2c0.1-1.2,0.2-2.8,0.3-4.1c0.1-1,0.2-1.8,0.3-2.4h-0.2
		C72.5,55.2,72.4,56,72.3,56.9"/>
	<path class="st0" d="M89.9,56.5v0.3c0.6-0.7,1.1-1.4,1.6-2.3h-0.2C90.8,55.3,90.3,55.9,89.9,56.5"/>
	<path class="st0" d="M113.1,54.6c0.1-0.2,0.2-0.4,0.3-0.5c-1.1-0.6-2.7-1.2-5-1.5l-0.5,0.5C110.3,53.3,112,54,113.1,54.6"/>
	<path class="st0" d="M87.3,67L69,65.1v0.1L87.3,67L87.3,67"/>
	<path class="st0" d="M101,63c3.7-2.5,5.7-3.9,9.6-4.4c0.9-0.1,1.6-0.2,2.3-0.4c0-0.1,0-0.1-0.1-0.2c-0.6,0.1-1.4,0.2-2.3,0.3
		c-3.9,0.5-6.1,2-9.7,4.5l-0.8,0.6c-1.2,0.8-2.6,1.4-4,1.7h0.6c0.1,0,0.2,0,0.2,0c1.2-0.3,2.3-0.8,3.3-1.5L101,63z"/>
	<path class="st0" d="M95.1,61.1L95.1,61.1h-0.2c-0.7,1.5-1.6,2.8-2.6,4h0.3C93.6,63.9,94.4,62.5,95.1,61.1"/>
	<path class="st0" d="M79,74.2c0,0.4,0.2,0.9,0.5,1.2c0.7,0.7,1.7,0.7,2.4,0c0.1-0.1,0.1-0.3,0-0.4s-0.3-0.1-0.4,0
		c-0.4,0.4-1.1,0.4-1.5,0c-0.2-0.2-0.3-0.5-0.3-0.8s0.1-0.5,0.3-0.8c0.4-0.4,1.1-0.4,1.5,0c0.1,0.1,0.3,0.1,0.4,0s0.1-0.3,0-0.4
		c-0.7-0.7-1.7-0.7-2.4,0C79.2,73.3,79,73.8,79,74.2"/>
	<path class="st0" d="M95.7,74.2c0,0.4,0.2,0.9,0.5,1.2c0.7,0.7,1.7,0.7,2.4,0c0.1-0.1,0.1-0.3,0-0.4s-0.3-0.1-0.4,0
		c-0.4,0.4-1.1,0.4-1.5,0c-0.2-0.2-0.3-0.5-0.3-0.8s0.1-0.5,0.3-0.8c0.4-0.4,1.1-0.4,1.5,0c0.1,0.1,0.3,0.1,0.4,0s0.1-0.3,0-0.4
		c-0.7-0.7-1.7-0.7-2.4,0C95.9,73.3,95.7,73.8,95.7,74.2"/>
	<path class="st0" d="M83.9,72.5c-0.2,0-0.3,0.1-0.3,0.3v2.7c0,0.2,0.1,0.3,0.3,0.3c0.2,0,0.3-0.1,0.3-0.3v-2.7
		C84.2,72.7,84.1,72.5,83.9,72.5"/>
	<path class="st0" d="M44.1,72.5c-0.2,0-0.3,0.1-0.3,0.3v2.7c0,0.2,0.1,0.3,0.3,0.3s0.3-0.1,0.3-0.3v-2.7
		C44.4,72.7,44.3,72.5,44.1,72.5"/>
	<path class="st0" d="M92.3,75.3h-1.4v-2.4c0-0.2-0.1-0.3-0.3-0.3c-0.2,0-0.3,0.1-0.3,0.3v2.7c0,0.2,0.1,0.3,0.3,0.3h1.7
		c0.2,0,0.3-0.1,0.3-0.3C92.6,75.4,92.5,75.3,92.3,75.3"/>
	<path class="st0" d="M102.3,75.3h-1.4v-2.4c0-0.2-0.1-0.3-0.3-0.3c-0.2,0-0.3,0.1-0.3,0.3v2.7c0,0.2,0.1,0.3,0.3,0.3h1.7
		c0.2,0,0.3-0.1,0.3-0.3C102.6,75.4,102.5,75.3,102.3,75.3"/>
	<path class="st0" d="M52.8,72.5h-2.3c-0.2,0-0.3,0.1-0.3,0.3c0,0.2,0.1,0.3,0.3,0.3h0.8v2.4c0,0.2,0.1,0.3,0.3,0.3s0.3-0.1,0.3-0.3
		v-2.4h0.8c0.2,0,0.3-0.1,0.3-0.3C53.1,72.7,52.9,72.5,52.8,72.5"/>
	<path class="st0" d="M59.9,72.5c-0.9,0-1.7,0.8-1.7,1.7c0,0.9,0.8,1.7,1.7,1.7s1.7-0.8,1.7-1.7C61.5,73.3,60.8,72.5,59.9,72.5
		 M59.9,75.3c-0.6,0-1.1-0.5-1.1-1.1s0.5-1.1,1.1-1.1s1.1,0.5,1.1,1.1C60.9,74.8,60.5,75.3,59.9,75.3"/>
	<path class="st0" d="M76.3,72.5c-0.9,0-1.7,0.8-1.7,1.7c0,0.9,0.8,1.7,1.7,1.7c0.9,0,1.7-0.8,1.7-1.7S77.2,72.5,76.3,72.5
		 M76.3,75.3c-0.6,0-1.1-0.5-1.1-1.1s0.5-1.1,1.1-1.1s1.1,0.5,1.1,1.1S76.9,75.3,76.3,75.3"/>
	<path class="st0" d="M106.4,72.5c-0.2,0-0.3,0.1-0.3,0.3v1.6c0,0.5-0.4,0.8-0.8,0.8s-0.8-0.4-0.8-0.8v-1.6c0-0.2-0.1-0.3-0.3-0.3
		c-0.2,0-0.3,0.1-0.3,0.3v1.6c0,0.8,0.6,1.4,1.4,1.4s1.4-0.6,1.4-1.4v-1.6C106.7,72.7,106.6,72.5,106.4,72.5"/>
	<path class="st0" d="M56.4,74.8c0.4-0.2,0.6-0.6,0.6-1.1c0-0.7-0.6-1.2-1.2-1.2h-1.1c-0.2,0-0.3,0.1-0.3,0.3v2.7
		c0,0.2,0.1,0.3,0.3,0.3s0.3-0.1,0.3-0.3V75h0.8l0.7,0.8c0.1,0.1,0.3,0.1,0.4,0c0.1-0.1,0.1-0.3,0-0.4L56.4,74.8z M54.9,73.1h0.8
		c0.4,0,0.7,0.3,0.7,0.7s-0.3,0.7-0.7,0.7h-0.8V73.1z"/>
	<path class="st0" d="M89,75.5l-1.4-2.7c0-0.1-0.2-0.2-0.3-0.2c-0.1,0-0.2,0.1-0.3,0.2l-1.4,2.7c-0.1,0.2,0,0.3,0.2,0.4
		s0.3,0,0.4-0.2l0.3-0.7H88l0.3,0.7c0.1,0.2,0.2,0.2,0.4,0.2C89,75.8,89.1,75.6,89,75.5 M86.9,74.5l0.5-1l0.5,1H86.9z"/>
	<path class="st0" d="M67.7,73.9h-0.3v-0.3c0-0.2-0.1-0.3-0.3-0.3c-0.2,0-0.3,0.1-0.3,0.3v0.3H66c-0.2,0-0.4-0.2-0.4-0.4
		c0-0.2,0.2-0.4,0.4-0.4h0.4c0.1,0,0.3-0.1,0.3-0.3c0-0.1-0.1-0.3-0.3-0.3H66c-0.5,0-1,0.4-1,1c0,0.3,0.1,0.5,0.3,0.7
		c-0.2,0.2-0.3,0.4-0.3,0.7c0,0.5,0.4,1,1,1h1c0.2,0,0.3-0.1,0.3-0.3v-1.1h0.3c0.1,0,0.3-0.1,0.3-0.3S67.8,73.9,67.7,73.9
		 M66.7,75.3h-0.8c-0.2,0-0.4-0.2-0.4-0.4c0-0.2,0.2-0.4,0.4-0.4h0.8V75.3z"/>
	<path class="st0" d="M41.6,74.2c0.2-0.2,0.3-0.4,0.3-0.7c0-0.5-0.4-1-1-1h-1.4c-0.2,0-0.3,0.1-0.3,0.3v2.7c0,0.2,0.1,0.3,0.3,0.3
		H41c0.5,0,1-0.4,1-1C41.9,74.6,41.8,74.4,41.6,74.2 M41,75.3L41,75.3h-1.1v-0.9H41c0.2,0,0.4,0.2,0.4,0.4
		C41.4,75.1,41.2,75.3,41,75.3 M41,73.9L41,73.9h-1.1V73H41c0.2,0,0.4,0.2,0.4,0.4C41.4,73.7,41.2,73.9,41,73.9"/>
	<path class="st0" d="M110.4,74.2c0.2-0.2,0.3-0.4,0.3-0.7c0-0.5-0.4-1-1-1h-1.4c-0.2,0-0.3,0.1-0.3,0.3v2.7c0,0.2,0.1,0.3,0.3,0.3
		h1.4c0.5,0,1-0.4,1-1C110.7,74.6,110.6,74.4,110.4,74.2 M109.8,75.3L109.8,75.3h-1.1v-0.9h1.1c0.2,0,0.4,0.2,0.4,0.4
		C110.2,75.1,110,75.3,109.8,75.3 M109.8,73.9L109.8,73.9h-1.1V73h1.1c0.2,0,0.4,0.2,0.4,0.4C110.2,73.7,110,73.9,109.8,73.9"/>
	<path class="st0" d="M72.6,73.9h-0.7c-0.2,0-0.4-0.2-0.4-0.4c0-0.2,0.2-0.4,0.4-0.4h1c0.1,0,0.3-0.1,0.3-0.3c0-0.1-0.1-0.3-0.3-0.3
		h-1c-0.5,0-1,0.4-1,1s0.4,1,1,1h0.7c0.2,0,0.4,0.2,0.4,0.4c0,0.2-0.2,0.4-0.4,0.4h-1.2c-0.1,0-0.3,0.1-0.3,0.3
		c0,0.1,0.1,0.3,0.3,0.3h1.2c0.5,0,1-0.4,1-1C73.6,74.4,73.1,73.9,72.6,73.9"/>
	<path class="st0" d="M48,73.9h-0.7c-0.2,0-0.4-0.2-0.4-0.4c0-0.2,0.2-0.4,0.4-0.4h1c0.1,0,0.3-0.1,0.3-0.3c0-0.1-0.1-0.3-0.3-0.3
		h-1c-0.5,0-1,0.4-1,1s0.4,1,1,1H48c0.2,0,0.4,0.2,0.4,0.4c0,0.2-0.2,0.4-0.4,0.4h-1.2c-0.1,0-0.3,0.1-0.3,0.3
		c0,0.1,0.1,0.3,0.3,0.3H48c0.5,0,1-0.4,1-1C49,74.4,48.5,73.9,48,73.9"/>
	<path class="st0" d="M108.6,50.3c-0.5-0.5-1.4-0.5-2,0l-1.9,1.9c-0.5,0.5-0.5,1.4,0,2c0.5,0.5,1.4,0.5,2,0l1.9-1.9
		C109.1,51.7,109.1,50.8,108.6,50.3"/>
	<path class="st0" d="M55.4,65.1h-6.8v-4h5.3c0.7,0,1.2-0.6,1.2-1.2c0-0.7-0.6-1.2-1.2-1.2h-5.3v-4h6.8c0.7,0,1.2-0.6,1.2-1.2
		c0-0.7-0.6-1.2-1.2-1.2h-8.2c-0.8,0-1.4,0.6-1.4,1.4v12.7c0,0.8,0.6,1.4,1.4,1.4h8.2c0.7,0,1.2-0.6,1.2-1.2S56.1,65.1,55.4,65.1"/>
	<path class="st0" d="M120.5,58.6h-3.4c-1.1,0-2-0.9-2-2s0.9-2,2-2h4.8c0.7,0,1.2-0.6,1.2-1.2c0-0.7-0.6-1.2-1.2-1.2h-4.8
		c-2.5,0-4.5,2-4.5,4.5s2,4.5,4.5,4.5h3.4c1.1,0,2,0.9,2,2s-0.9,2-2,2h-5.7c-0.7,0-1.2,0.6-1.2,1.2c0,0.7,0.6,1.2,1.2,1.2h5.7
		c2.5,0,4.5-2,4.5-4.5C125,60.6,123,58.6,120.5,58.6"/>
	<path class="st0" d="M31.7,52.1h-5.3c-0.8,0-1.4,0.6-1.4,1.4v12.7c0,0.8,0.6,1.4,1.4,1.4s1.4-0.6,1.4-1.4v-2.6h3.9
		c3.2,0,5.7-2.6,5.7-5.7C37.4,54.6,34.8,52.1,31.7,52.1 M31.7,61.1h-3.9v-6.5h3.9c1.8,0,3.3,1.5,3.3,3.3
		C34.9,59.6,33.5,61.1,31.7,61.1"/>
	<path class="st0" d="M72.9,52.1h-5.3c-0.8,0-1.4,0.6-1.4,1.4v12.7c0,0.8,0.6,1.4,1.4,1.4S69,67,69,66.2v-2.6h3.9
		c3.2,0,5.7-2.6,5.7-5.7C78.6,54.6,76.1,52.1,72.9,52.1 M72.9,61.1H69v-6.5h3.9c1.8,0,3.3,1.5,3.3,3.3
		C76.2,59.6,74.7,61.1,72.9,61.1"/>
	<path class="st0" d="M96.7,65.1h-6.8v-4h5.3c0.7,0,1.2-0.6,1.2-1.2c0-0.7-0.6-1.2-1.2-1.2h-5.3v-4h6.8c0.7,0,1.2-0.6,1.2-1.2
		c0-0.7-0.6-1.2-1.2-1.2h-8.2c-0.8,0-1.4,0.6-1.4,1.4v12.7c0,0.8,0.6,1.4,1.4,1.4h8.2c0.7,0,1.2-0.6,1.2-1.2S97.4,65.1,96.7,65.1"/>
</g>
</svg>
