<?xml version="1.0" encoding="utf-8"?>
<!-- Generator: Adobe Illustrator 24.2.3, SVG Export Plug-In . SVG Version: 6.00 Build 0)  -->
<svg version="1.1" id="Layer_1" xmlns="http://www.w3.org/2000/svg" xmlns:xlink="http://www.w3.org/1999/xlink" x="0px" y="0px"
	 viewBox="0 0 200 150" style="enable-background:new 0 0 200 150;" xml:space="preserve">
<style type="text/css">
	.st0{fill:#FFFFFF;}
	.st1{fill:#C3161C;}
</style>
<path class="st0" d="M191.4,57.5c0.4,0.1,0.8,0.1,1.1,0.1c1.5,0.2,3,0.5,4.5,1.1c0.5,0.2,1.1,0.6,1.5,0.9c0.9,0.7,1.4,1.6,1.5,2.8
	c0.1,1.1-0.4,1.6-1.5,1.7c-1,0.1-2.1-0.1-3.1-0.3c-1.4-0.3-2.8-0.6-4.2-0.7c-3.2-0.2-6.2,0.3-8.7,2.5c-1.8,1.5-2.7,3.5-3,5.8
	c-0.1,0.8-0.2,1.6,0.1,2.4c0.2,0.7,0.6,1.3,1,1.8c0.4,0.4,0.8,0.6,1.4,0.6c1.4,0,2.7-0.2,4-0.6c1.8-0.5,3.7-0.5,5.5-0.4
	c1.1,0.1,2.1,0.2,3.1,0.6s1.8,1,2.3,1.9c0.1,0.2,0.1,0.3,0,0.5c-0.3,0.7-0.6,1.3-1.4,1.5c-0.3,0.1-0.7,0.1-1.1,0.1
	c-2.2,0.1-4.5,0.4-6.7,0.6c-0.4,0-0.9,0.1-1.3,0.1c-0.8,0-1.5,0.5-2.2,0.8c-0.2,0.1-0.2,0.2-0.1,0.4c0.4,1.9,0.4,3.7-0.2,5.5
	c-0.2,0.6-0.5,1.1-0.9,1.6c-0.9,1.2-3.1,1.7-4.6,0.3c-1-1-1.7-2.1-2.3-3.3c-1.3-2.6-2.1-5.3-2.7-8.1c-0.3-1.6-0.5-3.1-0.5-4.7
	c0.4-6.6,4.5-12.9,11.8-15c1-0.3,2.1-0.5,3.2-0.6c0.1,0,0.1,0,0.1-0.1h0.4c0.2,0.1,0.3,0.1,0.5,0h1.4c0.2,0.1,0.3,0.1,0.5,0h0.6
	V57.5z"/>
<path class="st0" d="M165.7,57.5c0.4,0.1,0.8,0.1,1.2,0.1c1.7,0.2,3.3,0.5,4.9,1.3c0.6,0.3,1.1,0.7,1.5,1.1c0.8,0.8,1.1,1.7,1,2.8
	c0,0.8-0.5,1.2-1.5,1.3c-1,0.1-2.1-0.1-3.1-0.2c-1.4-0.3-2.8-0.6-4.2-0.7c-3.1-0.2-6.1,0.3-8.6,2.4c-1.8,1.5-2.8,3.4-3.1,5.7
	c-0.1,0.8-0.2,1.6,0,2.4c0.2,0.7,0.6,1.4,1.1,2c0.4,0.4,0.8,0.6,1.4,0.6c1.4,0,2.7-0.2,4-0.6c1.8-0.5,3.7-0.5,5.5-0.4
	c1.1,0.1,2.2,0.2,3.2,0.7c0.9,0.4,1.7,1,2.2,1.9c0.1,0.2,0.1,0.3,0.1,0.5c-0.3,0.9-0.9,1.6-2,1.6c-2.6,0.1-5.3,0.5-7.9,0.7
	c-1,0.1-1.9,0.3-2.7,0.9c-0.2,0.1-0.2,0.2-0.2,0.5c0.5,2,0.5,3.9-0.3,5.8c-0.5,1.1-1.2,2-2.5,2.3c-1.1,0.3-2.1,0-2.9-0.8
	c-1.1-1-1.9-2.3-2.5-3.6c-1.4-3-2.4-6.1-2.9-9.3c-1.2-7.4,3-16.4,12.7-18.5c0.7-0.2,1.4-0.3,2.1-0.3c0.1,0,0.1,0,0.2-0.1h0.6
	c0.1,0.1,0.3,0.1,0.4,0h1.3c0.2,0.1,0.3,0.1,0.5,0L165.7,57.5L165.7,57.5z"/>
<path class="st0" d="M165.3,57.5c-0.2,0.1-0.3,0.1-0.5,0H165.3z"/>
<path class="st0" d="M189,57.5c-0.2,0.1-0.3,0.1-0.5,0H189z"/>
<path class="st0" d="M190.9,57.5c-0.2,0.1-0.3,0.1-0.5,0H190.9z"/>
<path class="st0" d="M163.5,57.5c-0.1,0.1-0.3,0.1-0.4,0H163.5z"/>
<path class="st0" d="M63.4,81.4c0.1-3.2,0.5-6.3,1.4-9.3c0.8-2.7,1.9-5.3,3.7-7.5c2-2.4,4.5-3.9,7.6-4.4c2.8-0.4,5.4,0,8,1
	c2.2,0.8,4.1,1.9,5.6,3.7c1.2,1.5,1.6,3.1,1.4,5c-0.3,2.3-1.4,4.2-2.7,6.1c-1.2,1.8-2.7,3.3-4.2,4.9c-0.3,0.3-0.3,1.2,0.2,1.6
	c0.7,0.6,1.4,1.2,2,1.8c1.2,1.1,2.3,2.2,3.2,3.4c0.4,0.6,0.8,1.2,1.1,1.9c0.6,1.4-0.1,2.6-1.5,2.9c-1.1,0.3-2.2,0-3.3-0.3
	c-0.1,0-0.2-0.1-0.2-0.1c-2.5-1.6-5-3.3-7.4-5c-1.6-1.2-3.3-1.1-5.1-0.3c-1.5,0.7-2.7,1.9-4,2.9c-0.6,0.5-1.3,0.8-2,1.1
	c-0.2,0.1-0.3,0.1-0.5,0c-0.6-0.2-1.1-0.7-1.5-1.2c-0.9-1.4-1.4-2.9-1.8-4.5C63.5,83.7,63.4,82.6,63.4,81.4"/>
<path class="st0" d="M123.3,60.2c1.9,0,3.6,0,5.3,0.1c0.4,0,0.7,0.2,1.1,0.4c0.3,0.2,0.3,0.3,0,0.6c-1.2,1.5-2.9,2.1-4.8,2.4
	c-2.2,0.4-4.4,0.6-6.6,0.8c-2,0.2-4,0.4-5.9,1.1c-0.4,0.1-0.8,0.3-1.1,0.6c-0.8,0.5-1.2,1.2-1.2,2.2c0,1.4,0.4,2.8,0.9,4.1
	c0.7,1.8,1.6,3.6,2.3,5.5c0.6,1.7,0.8,3.3,0.5,5.1c-0.2,1-0.6,1.3-1.6,1.4c-0.6,0.1-1.1,0.1-1.7,0c-1.4-0.2-2.2-1.2-2.8-2.3
	c-0.7-1.2-1-2.6-1.4-4c-0.4-1.8-0.9-3.7-1.7-5.4c-1.1-2.5-3-4-5.8-4.4c-1.2-0.2-2.4-0.1-3.6,0.1c-0.8,0.1-1.4-0.2-1.6-0.9
	c-0.3-0.9-0.3-1.9-0.1-2.8c0.1-0.5,0.5-0.6,1-0.7c2.4-0.5,4.7-1,7.1-1.4c2.5-0.5,4.9-0.8,7.4-1.2c2-0.3,4-0.5,6-0.7
	C117.9,60.4,120.8,60.3,123.3,60.2"/>
<path class="st0" d="M144.2,77.8c0,1.4,0,2.9-0.3,4.3c-0.8,3.1-2.8,4.9-5.8,5.6c-2,0.5-4,0.7-6.1,0.5c-2.2-0.2-4.1-1-5.9-2.1
	c-2.8-1.8-5-4.1-6.2-7.2c-0.5-1.2-0.7-2.4-0.7-3.6c0-1.1,0.9-2.3,2-2.8c0.9-0.4,2-0.1,2.8,0.8c0.8,0.8,1.3,1.7,1.8,2.7
	s0.9,1.9,1.4,2.9c0.7,1.4,1.6,2.6,2.8,3.6c1.3,1.1,2.8,1.3,4.4,1.1c1.1-0.1,2.2-0.4,3.2-1c0.9-0.6,1.6-1.3,1.9-2.4
	c0.1-0.6,0.1-1.1-0.1-1.6c-0.8-1.8-1.6-3.5-2.1-5.3c-0.5-1.9-0.8-3.8-0.5-5.8c0.1-1,0.5-1.4,1.6-1.5c1.6-0.2,2.9,0.3,3.8,1.7
	c0.8,1.2,1.2,2.4,1.5,3.8C143.9,73.5,144.1,75.6,144.2,77.8"/>
<path class="st0" d="M30.6,69.2c-2.3,0.1-4.5,0.2-6.8,0.3c-3.6,0.2-7.2,0.8-10.7,1.6c-1.3,0.3-2.5,0.8-3.7,1.5S7,74,5.7,74.6
	c-1.8,0.9-3.4,0.5-4.9-0.6c-0.9-0.6-1-1.4-0.5-2.4c0.3-0.6,0.8-1.1,1.4-1.5c1.6-1,3.3-1.7,5.1-2.2c2.9-0.9,5.8-1.4,8.8-1.9
	c2.3-0.4,4.6-0.7,7-0.9c1.9-0.2,3.8-0.4,5.7-0.4c1.8,0,3.6,0.2,5.3,0.8c0.7,0.3,1.4,0.7,2,1.2s0.9,1.2,1,2c0,0.2,0,0.3-0.3,0.3
	c-1.7,0-3.4,0-5.1,0.1C31,69.3,30.8,69.2,30.6,69.2"/>
<path class="st0" d="M21.7,91.5c-2,0.2-3.3-0.9-4.4-2.3c-1.3-1.6-2-3.5-2.6-5.4c-0.5-1.5-0.8-3-0.9-4.5c-0.1-1.1,0.3-1.8,1.2-2.3
	c1-0.5,1.9-0.7,2.8,0c0.7,0.5,1.3,1.2,1.8,2c1.1,1.6,1.9,3.4,2.7,5.2c0.7,1.4,1.3,2.9,2,4.3c0.1,0.3,0.3,0.5,0.4,0.8
	c0.2,0.3,0.2,0.5,0.1,0.8c-0.5,1-1.3,1.5-2.4,1.5C22.2,91.5,21.9,91.5,21.7,91.5"/>
<path class="st1" d="M84.7,71.7c0,1.9-0.6,3.2-1.7,4.5c-1.2,1.4-2.7,2.4-4.5,2.9c-1.8,0.6-3.5,1.1-5.2,2c-0.5,0.3-0.6,0.2-0.8-0.4
	c-0.5-2.5-1.4-4.9-1.7-7.4c-0.3-2.3,0-4.5,1.6-6.3c1-1.1,2.2-1.8,3.7-2c1.1-0.2,2,0.3,2.7,1.2c0.3,0.4,0.6,0.8,0.7,1.3
	c0.1,0.3,0.2,0.4,0.5,0.3c0.7-0.2,1.4-0.2,2.1-0.1c1.2,0.3,2,1.1,2.3,2.3C84.7,70.6,84.7,71.3,84.7,71.7"/>
<path class="st0" d="M60.8,78.7c-0.5-0.3-1-0.5-1.5-0.6c-0.6-0.2-1.2-0.3-1.8-0.4c-1.2-0.1-2.1-0.8-2.9-1.7c-0.8-0.9-1.5-2-2.1-3.1
	c-0.9-1.6-1.7-3.3-2.6-4.9c-0.8-1.4-1.7-2.6-2.9-3.6c-1.4-1.1-3.8-1.4-5.4,0.2c-0.9,0.9-1.5,1.9-2,3c-1,2.2-1.5,4.5-2,6.9
	c-0.4,2.3-1.1,4.4-2.5,6.3c-0.6,0.8-0.9,1.6-1,2.6s-0.1,2,0,3c0,0.6,0,1.2,0,1.8c0,0.9,0.3,1.2,1.2,1.3c0.8,0.1,1.6,0.1,2.4,0
	c0.7-0.1,1.4-0.3,1.9-0.8c0.7-0.5,1.3-1.2,1.8-2c1.2-1.5,2.6-2.7,4.4-3.2c1.3-0.4,2.7-0.5,4.1-0.6c1.3-0.1,2.1,0.5,2.7,1.5
	c0.5,0.8,0.8,1.7,1.1,2.6c0.3,1,0.6,1.9,1.2,2.8c0.6,1.1,1.5,1.6,2.8,1.5c0.2,0,0.4,0,0.6-0.1c0.9-0.2,1.6-0.5,1.8-1.5
	c0.1-0.5,0.1-1.1,0-1.6c-0.2-0.8-0.6-1.5-1.1-2.2c-0.7-1-1-2.1-0.9-3.3c0.1-1.3,1-2.6,2.1-2.9c0.1,0,0.3-0.1,0.4-0.2
	C61.2,79.4,61.2,79,60.8,78.7z M48.6,78c-0.3,0.2-0.6,0.3-1,0.4c-0.9,0.1-1.9,0.1-2.8-0.1c-0.9-0.2-1.4-0.7-1.5-1.7c0-0.7,0-1.3,0-2
	c0-0.8-0.2-1.7,0-2.5c0.2-0.9,0.8-1.4,1.7-1.3c0.2,0,0.3,0.1,0.3,0.2c1.2,1.8,2.4,3.5,3.5,5.3C49.2,76.9,49.1,77.7,48.6,78z"/>
</svg>
