<?xml version="1.0" encoding="utf-8"?>
<!-- Generator: Adobe Illustrator 24.2.3, SVG Export Plug-In . SVG Version: 6.00 Build 0)  -->
<svg version="1.1" id="Layer_1" xmlns="http://www.w3.org/2000/svg" xmlns:xlink="http://www.w3.org/1999/xlink" x="0px" y="0px"
	 viewBox="0 0 160 90" style="enable-background:new 0 0 160 90;" xml:space="preserve">
<style type="text/css">
	.st0{fill:#FFFFFF;}
</style>
<path class="st0" d="M70.2,40.9c4.1,0,5.7-1.7,9.8-1.7c4.1,0,5.7,1.7,9.8,1.7c8.2,0.1,10.6-13.1,10.5-16c-0.6-0.5-3.5,2.3-4.2,4.6
	c-1.6-2.7-3.9-11.6-4.9-12.5c-1,6.8-0.2,12.4,2.6,17.4c-1.2,1.8-2.8,3-4.7,3.1h-6c4-1.4,6.8-5.1,6.8-9.5c0-1.8-0.5-3.4-1.3-4.9
	c-0.6,1.4-4.4,10.2-7,11v-5.3c4.4-3.6,7.3-8.8,6.7-14.2c0,0-4.1,5.3-6.7,7.8c0.1-4.5-0.5-9.6-1.8-15.2c-1.1,5.6-1.7,10.6-1.8,15.2
	c-2.5-2.5-6.6-7.8-6.6-7.8c-0.6,5.5,2.2,10.6,6.6,14.2V34c-2.6-0.8-6.4-9.6-7-11c-0.8,1.5-1.3,3.1-1.3,4.9c0,4.4,2.9,8.2,6.8,9.5h-6
	c-1.9-0.1-3.5-1.3-4.7-3.1c2.9-5,3.7-10.5,2.6-17.4c-1,0.9-3.2,9.8-4.8,12.5c-0.7-2.3-3.6-5.1-4.2-4.6C59.5,27.8,62,41,70.2,40.9z
	 M96.1,41h56.5l-52.7-4.7C98.9,38.3,97.6,40,96.1,41z M85.1,64.9c-1.2,0-1.8-0.5-1.9-1.4c-0.2-1.7-0.3-2.7-0.8-3.5
	c-0.8-2.3-3.1-3.1-7.7-3.5v-0.2c4.3-0.4,7.9-1.5,7.9-4.8c0-1-0.3-2.1-1.3-2.9c-1.2-1-3-1.4-7.3-1.4c-2.1,0-6,0.1-8.3,0.1
	c-1.7,0-5.3-0.1-6.1-0.1l-0.2,1.1l2.2,0.2c1,0.1,1.3,0.3,1.3,0.8c0.1,0.6,0.1,1.6,0.1,3.9v6.5c0,2.5-0.1,3.7-0.2,4.3
	c-0.1,0.7-0.5,0.8-3.3,1l-0.1,1.2c1.2,0,4.1-0.1,6.9-0.1c2.5,0,5.3,0.1,6.7,0.1l0.1-1.2c-2.9-0.1-3.1-0.4-3.2-1
	c-0.1-0.8-0.1-1.8-0.1-3.9v-2.9h1c2.7,0,4.3,0.2,4.6,2.8c0.1,0.9,0.2,1.6,0.3,2.7c0.3,2.4,2.3,3.7,6.4,3.7c1.3,0,3.3-0.1,3.9-0.3
	l0.2-1.2C85.9,64.8,85.4,64.9,85.1,64.9z M70.8,55.9h-1.1v-2.4c0-2.9,0.1-3.9,0.2-4.2c0-0.4,0.2-0.6,0.5-0.7
	c0.4-0.1,0.8-0.1,1.4-0.1c1.7,0,2.5,0.5,3,1.2c0.4,0.5,0.6,1.4,0.6,2.4C75.5,55,73.9,55.9,70.8,55.9z M44.4,66.5
	c8.3,0,13.9-3.3,13.9-10.1c0-6.7-6.3-9.6-13.5-9.6l0,0c-9.1,0-14.1,4-14.1,10.1C30.7,63.2,36.1,66.5,44.4,66.5z M40,50.1
	c1-1.5,2.5-2.1,4.3-2.1l0,0c2.1,0,3.6,0.7,4.6,2.3c1,1.5,1.6,4,1.6,6.7c0,2.8-0.5,5.2-1.5,6.5c-1.1,1.4-2.6,1.9-4.3,1.9
	c-1.8,0-3.3-0.7-4.3-2c-1.2-1.4-1.9-3.9-1.9-7C38.5,53.4,39.1,51.4,40,50.1z M159.1,47.1c-1.4,0.2-4.8,0.3-9.2,0.3h-4.1
	c-4.4,0-7.8-0.1-9.2-0.3c-0.1,1.3-0.4,4.5-0.9,7.1l1.3,0.2c0.5-1.6,1.1-3.1,2.1-4.3c0.8-1.1,1.5-1.4,5.3-1.4c0,0.7,0,1.8,0,3.6v7.3
	c0,2.6-0.1,3.4-0.2,4.4c0,0.6-0.5,0.8-1.4,0.9c-1.2,0.1-1.7,0.2-2.6,0.2l0.1,1.1c2,0,4.2-0.1,6.9-0.1h0.2l0,0c0.1,0,0.3,0,0.4,0
	c0.1,0,0.3,0,0.4,0l0,0h0.2c2.7,0,4.9,0.1,6.9,0.1l0.1-1.1c-0.9,0-1.5-0.1-2.6-0.2c-0.9-0.1-1.4-0.3-1.4-0.9c-0.1-1-0.2-1.8-0.2-4.4
	v-7.3c0-1.8,0-2.9,0-3.6c3.8,0,4.5,0.3,5.3,1.4c1,1.3,1.6,2.7,2.1,4.3l1.3-0.2C159.5,51.6,159.2,48.3,159.1,47.1z M135.9,64.8
	c-0.9-0.1-1.4-0.3-1.7-0.8c-1.1-1.7-5.7-12.2-7.8-17.1c-0.8,0.5-5,0.6-6,0.6c-0.1,0.8-0.3,1.2-0.6,2c-1,2.2-5.5,11.3-6.7,13.3
	c-1,1.6-1.9,1.9-4.1,2l-0.1,1.2c1.9,0,3.9-0.1,5.2-0.1c1.8,0,3.3,0.1,4.8,0.1v-1.2c-3.5-0.1-3.8-0.5-3.4-1.9
	c0.2-0.8,0.8-1.9,1.5-3.7c0.8,0,2.2-0.1,3.7-0.1s3,0,4,0.1c0.6,1.4,1.4,3.4,1.8,4.5c0.3,0.8,0,1-2.4,1.1V66c2.9-0.1,3.8-0.1,6.7-0.1
	c2.9,0,5.4,0.1,6.7,0.1v-1.2H135.9z M120.9,57.8c-1.2,0-2.5,0-3.4,0c1.7-3.8,2.6-5.9,3.4-7.7c1,2.5,2.1,5.2,3.1,7.7
	C123.3,57.8,122.2,57.8,120.9,57.8z M60.1,36.3L7.4,41h56.5C62.4,40,61.1,38.3,60.1,36.3z M111.8,52.6c0-1.5-0.6-3.1-2-4
	c-1.3-0.9-2.9-1.4-7.5-1.4c-2.9,0-5.8,0.1-8.1,0.1c-2.2,0-5.2-0.1-6.1-0.1l-0.3,1.2l2.6,0.2c0.8,0.1,1,0.3,1,0.8
	c0.1,0.6,0.1,1.5,0.1,3.4v5.8c0,2-0.1,3.8-0.2,5c0,0.9-0.4,1.1-1.9,1.2L88,64.9V66c1.8,0,3.9-0.1,6.5-0.1c3.5,0,5.6,0.1,8,0.1v-1.1
	l-2.4-0.2c-1.2-0.1-1.5-0.3-1.6-0.9c0-0.5-0.1-1.4-0.1-2.8v-2.3c1.6,0.1,3.3,0.2,4.8,0.2c2.5,0,5-0.5,6.7-1.8
	C111,56.1,111.8,54.6,111.8,52.6z M103.7,56.7c-0.4,0.5-1.3,0.8-2.2,0.8c-0.5,0-2.4,0-3.1,0v-4.2c0-2,0.1-3.4,0.2-4.1
	c0-0.4,0.2-0.6,1.8-0.6c1.6,0,2.4,0.3,3.1,0.9c0.8,0.6,1.3,1.9,1.3,3.6C104.7,54.9,104.3,55.9,103.7,56.7z M20.7,65.2
	c5.4-1.6,7.3-5.1,7.3-9c0-3.8-1.7-6.4-5-7.8c-1.6-0.7-3.8-1.2-8.5-1.2c-3.5,0-5.9,0.1-8.2,0.1c-2.4,0-5.2-0.1-6-0.1l-0.1,1.1
	l2.3,0.2c0.7,0,1,0.2,1.1,0.9c0.1,0.6,0.1,1.8,0.1,4.1v5.4c0,2.8-0.2,4.5-0.2,5.1c0,0.5-0.3,0.8-1.5,0.8L0,65v1.1
	c0.8,0,3.7-0.1,6-0.1c2.4,0,4.9,0.1,7.3,0.1C16.2,66.1,18.8,65.7,20.7,65.2z M10.6,64.2c-0.1-0.7-0.1-1.8-0.1-5.5v-5
	c0-3.3,0.1-4.2,0.1-4.6c0-0.4,0.2-0.7,2.4-0.7c2.5,0,4.1,0.5,5.4,1.6c1.4,1.2,2.1,3.3,2.1,6.4c0,3.3-1,5.4-2,6.5
	c-1.1,1.2-2.6,2-6.2,2C10.8,64.9,10.6,64.6,10.6,64.2z M44.5,80.2h2.2V79h-2.2v-1.3H47v-1.3h-4v6.5h4.1v-1.3h-2.6V80.2z M11.6,76.4
	H9.8l-1.4,2.7H8.1v-2.7H6.6v6.5h1.5v-2.7h0.3l1.3,2.7h1.9l-1.9-3.3L11.6,76.4z M22.5,79.9L22.5,79.9l-1.9-3.6H19v6.5h1.5v-3.6l0,0
	l1.9,3.6H24v-6.5h-1.5V79.9z M41.7,78.4c0-1-0.5-2-2-2h-2.5v6.5h1.5v-2.4H39l1.2,2.4H42l-1.4-2.6C41.4,80,41.7,79.2,41.7,78.4z
	 M39.2,79.2h-0.6v-1.6h0.7c0.4,0,0.8,0,0.8,0.8C40.1,79.2,39.6,79.2,39.2,79.2z M27.8,81L27.8,81l-1.2-4.6H25l1.8,6.5h1.9l1.8-6.5
	h-1.6L27.8,81z M14.8,76.3c-1.9,0-2.7,1.5-2.7,3.3c0,1.9,0.7,3.3,2.7,3.3c1.9,0,2.7-1.5,2.7-3.3S16.8,76.3,14.8,76.3z M14.8,81.7
	c-0.9,0-1.2-0.6-1.2-2.1c0-1.4,0.2-2.1,1.2-2.1c0.9,0,1.2,0.6,1.2,2.1S15.8,81.7,14.8,81.7z M52.1,79.9L52.1,79.9l-1.9-3.6h-1.6v6.5
	h1.5v-3.6l0,0l1.9,3.6h1.6v-6.5h-1.5V79.9z M33,80.2h2.2V79H33v-1.3h2.5v-1.3h-4v6.5h4.1v-1.3H33V80.2z M73.9,76.4h-1.8l-1.4,2.7
	h-0.3v-2.7H69v6.5h1.5v-2.7h0.3l1.3,2.7H74l-2-3.3L73.9,76.4z M129.2,76.3c-1.9,0-2.7,1.5-2.7,3.3c0,1.9,0.7,3.3,2.7,3.3
	c1.9,0,2.7-1.5,2.7-3.3S131.1,76.3,129.2,76.3z M129.2,81.7c-0.9,0-1.2-0.6-1.2-2.1c0-1.4,0.2-2.1,1.2-2.1c0.9,0,1.2,0.6,1.2,2.1
	C130.3,81.1,130.1,81.7,129.2,81.7z M123.6,78.9h-2v-2.5h-1.5v6.5h1.5v-2.7h2v2.7h1.5v-6.5h-1.5V78.9z M112.3,76.3l-1.8,6.5h1.6
	l0.3-1.3h1.6l0.3,1.3h1.6l-1.8-6.5H112.3z M112.8,80.3l0.5-2l0,0l0.5,2H112.8z M132.8,77.6h1.4v5.2h1.5v-5.2h1.4v-1.3h-4.4v1.3
	H132.8z M139.9,80.2h2.2V79h-2.2v-1.3h2.5v-1.3h-4v6.5h4.1v-1.3h-2.6V80.2z M150.7,76.4h-1.5v6.5h4.1v-1.3h-2.6V76.4z M108,81.1
	c0,0.6-0.3,0.6-0.6,0.6c-0.3,0-0.6-0.1-0.7-0.2v1.2c0.2,0.1,0.7,0.2,1.1,0.2c0.8,0,1.7-0.2,1.7-1.9v-4.7H108V81.1z M145.4,76.4H144
	v6.5h4.1v-1.3h-2.6v-5.2H145.4z M83,79c-0.7-0.3-1-0.5-1-0.9s0.3-0.6,0.7-0.6c0.5,0,1.1,0.1,1.6,0.3v-1.3c-0.5-0.2-1.2-0.3-1.7-0.3
	c-0.9,0-2.2,0.4-2.2,1.7c0,1,0.6,1.6,1.5,2.1c0.7,0.4,1.1,0.6,1.1,1c0,0.5-0.4,0.6-0.8,0.6c-0.5,0-1.2-0.1-1.8-0.3v1.3
	c0.5,0.2,1.3,0.3,1.9,0.3c1.3,0,2.3-0.6,2.3-1.9C84.6,80.2,84.1,79.6,83,79z M76.5,80.2h2.2V79h-2.2v-1.3H79v-1.3h-4v6.5h4.1v-1.3
	h-2.6V80.2z M65.9,82.9h1.5v-6.5h-1.5V82.9z M100.9,79c-0.7-0.3-1-0.5-1-0.9s0.3-0.6,0.7-0.6c0.5,0,1.1,0.1,1.6,0.3v-1.3
	c-0.5-0.2-1.2-0.3-1.7-0.3c-0.9,0-2.2,0.4-2.2,1.7c0,1,0.6,1.6,1.5,2.1c0.7,0.4,1.1,0.6,1.1,1c0,0.5-0.4,0.6-0.8,0.6
	c-0.5,0-1.2-0.1-1.8-0.3v1.3c0.5,0.2,1.3,0.3,1.9,0.3c1.3,0,2.3-0.6,2.3-1.9C102.5,80.2,102.1,79.6,100.9,79z M62.9,79
	c-0.7-0.3-1-0.5-1-0.9s0.3-0.6,0.7-0.6c0.5,0,1.1,0.1,1.6,0.3v-1.3c-0.5-0.2-1.2-0.3-1.7-0.3c-0.9,0-2.2,0.4-2.2,1.7
	c0,1,0.6,1.6,1.5,2.1c0.7,0.4,1.1,0.6,1.1,1c0,0.5-0.4,0.6-0.8,0.6c-0.5,0-1.2-0.1-1.8-0.3v1.3c0.5,0.2,1.3,0.3,1.9,0.3
	c1.3,0,2.3-0.6,2.3-1.9C64.5,80.2,64,79.6,62.9,79z M95.5,80.6c0,0.6-0.3,1.1-1,1.1s-1-0.5-1-1.1v-4.3H92v4.3c0,1.4,0.8,2.3,2.5,2.3
	S97,82,97,80.6v-4.3h-1.5V80.6z M90.9,76.4h-1.8l-1.4,2.7h-0.3v-2.7H86v6.5h1.5v-2.7h0.3l1.3,2.7H91l-1.9-3.3L90.9,76.4z M54.9,77.6
	h1.4v5.2h1.5v-5.2h1.4v-1.3h-4.4L54.9,77.6L54.9,77.6z"/>
</svg>
