<?xml version="1.0" encoding="utf-8"?>
<!-- Generator: Adobe Illustrator 24.2.3, SVG Export Plug-In . SVG Version: 6.00 Build 0)  -->
<svg version="1.1" id="Layer_1" xmlns="http://www.w3.org/2000/svg" xmlns:xlink="http://www.w3.org/1999/xlink" x="0px" y="0px"
	 viewBox="0 0 160 90" style="enable-background:new 0 0 160 90;" xml:space="preserve">
<style type="text/css">
	.st0{fill:#FFFFFF;}
</style>
<g>
	<path class="st0" d="M81.3,58.8c0,9.6-6.8,16.4-16.2,16.4s-16.2-6.9-16.2-16.3s6.9-16.2,16.4-16.1C74.5,42.8,81.3,49.5,81.3,58.8
		 M65.4,49.8c-2.9,0-4.9,1-6.4,2.9c-2.5,3.2-2.5,8.8,0,12.2c3.3,4.5,10,4,12.7-0.9c1.7-3.2,1.8-6.6,0.2-9.9
		C70.6,51.3,68.2,49.9,65.4,49.8"/>
	<path class="st0" d="M125.9,71.4h-15.1c-0.4-2.2-0.7-4.3-1-6.4c0-0.2,0.2-0.6,0.4-0.8c5.8-6.8,11.6-13.6,17.4-20.4
		c0.2-0.3,0.6-0.5,0.9-0.6c1.9-0.1,3.8,0,5.9,0v21.3h5.5c-0.2,2.2-0.3,4.3-0.5,6.4c0,0.2-0.5,0.5-0.8,0.5c-1.4,0.1-2.7,0-4.2,0v6.5
		h-8.6v-6.5H125.9z M125.9,56.5c-2.2,2.7-4.2,5.2-6.3,7.9h6.3V56.5z"/>
	<path class="st0" d="M24.1,52.4c-0.4-2.2-0.8-4.3-1.2-6.4c0-0.2,0.2-0.6,0.5-0.7c5-2.7,10.3-3.4,15.8-1.6c6.2,2.1,8.4,9.3,4.4,14.8
		c-1.8,2.5-4.4,4.6-6.6,6.8c-0.8,0.8-1.7,1.5-2.9,2.4h11.7c0.2,2.3,0.4,4.4,0.7,6.6H22.2c0-1.7,0-3.3,0-5c0-0.2,0.3-0.5,0.5-0.7
		c3.7-3.2,7.4-6.3,11-9.5c1.2-1,2.3-2.1,3.3-3.4c2.1-2.7,0.9-5.4-2.5-5.8c-2.1-0.3-4.2,0-6.2,0.7C27,51.1,25.7,51.7,24.1,52.4"/>
	<path class="st0" d="M85.8,52.4c-0.3-1.8-0.6-3.6-1-5.4c-0.3-1.3,0.1-1.8,1.2-2.3c4.3-2,8.8-2.6,13.4-1.6
		c7.3,1.6,10.3,9.3,5.9,15.4c-1.7,2.4-4.1,4.4-6.2,6.5c-0.9,0.9-2,1.7-3.1,2.7c0.6,0,1,0.1,1.3,0.1c3.1,0,6.3,0,9.4,0
		c0.8,0,1,0.2,1.1,1c0.1,1.8,0.3,3.7,0.5,5.6H83.8c0-1.6-0.1-3.2,0-4.8c0-0.4,0.5-0.8,0.8-1.1c3.7-3.2,7.5-6.4,11.2-9.7
		c1-0.9,2-1.9,2.8-2.9c2.1-2.7,0.9-5.4-2.5-5.9c-2.6-0.4-5,0.2-7.3,1.2C87.9,51.5,86.9,51.9,85.8,52.4"/>
	<path class="st0" d="M76.4,28.7v8.8h-5.7V12.1c3,0,6,0,8.9,0c1.4,0,2.7,0.1,4,0.4c6,1.4,8.5,7.9,4.8,12.6c-0.6,0.7-1.4,1.3-2.1,2
		c0.9,1.6,1.9,3.3,2.9,5.1c1,1.7,1.9,3.4,3,5.2c-2.2,0-4.2,0-6.2,0c-0.2,0-0.5-0.4-0.7-0.6c-1.3-2.4-2.7-4.9-4-7.4
		c-0.3-0.6-0.6-0.8-1.3-0.8C78.9,28.7,77.7,28.7,76.4,28.7 M76.5,17v7.2c1.7-0.1,3.3-0.1,4.9-0.3c1.7-0.3,2.8-1.7,2.7-3.4
		c0-1.8-1-3.1-2.8-3.4C79.8,16.8,78.1,17,76.5,17"/>
	<path class="st0" d="M118,12.1h5.7v1.2c0,4.6,0,9.2,0,13.7c0,0.5,0,1,0.1,1.6c0.4,4.2,4.2,5.1,7,4.2c1.8-0.6,2.9-2.1,2.9-4
		c0.1-4.5,0.1-9.1,0.1-13.6c0-1,0-2,0-3h5.7c0,0.3,0.1,0.7,0.1,1c0,4.8-0.1,9.7,0,14.5c0.1,7-5.1,10.1-9.9,10.3
		c-3.4,0.1-6.6-0.5-9.2-3c-1.5-1.5-2.5-3.3-2.5-5.3C117.9,23.8,118,18,118,12.1"/>
	<path class="st0" d="M67.1,37.2c-1.9,0.2-3.7,0.4-5.6,0.7c-0.5-1.5-1.2-3-1.6-4.6c-0.3-1-0.8-1.3-1.8-1.3c-2.3,0.1-4.6,0.1-6.9,0
		c-0.7,0-1,0.2-1.2,0.8c-0.4,1.4-0.9,2.7-1.5,4c-0.1,0.3-0.5,0.6-0.8,0.6c-1.7,0.1-3.4,0-5.2,0c0.1-0.4,0.2-0.7,0.3-1
		c3-7.8,6-15.6,8.9-23.5c0.2-0.6,0.5-1,1.2-0.9c1.3,0.1,2.6,0,3.9,0c0.3,0,0.8,0.3,0.9,0.6c3.1,8,6.2,16.1,9.2,24.1
		C67.1,36.9,67.1,37,67.1,37.2 M54.7,19.5c-1,2.8-1.9,5.3-2.8,7.8h5.8C56.7,24.8,55.8,22.3,54.7,19.5"/>
	<path class="st0" d="M106.4,37.5h-5.8V16.7H93v-4.6c0.3,0,0.6-0.1,0.9-0.1c6.4,0,12.7,0,19.1,0c0.8,0,1.1,0.2,1.2,1
		c0.1,1.2,0.3,2.3,0.5,3.6h-8.3C106.4,16.6,106.4,37.5,106.4,37.5z"/>
	<path class="st0" d="M41,12.2c0.2,1.5,0.4,3,0.7,4.5h-8.3v20.7h-5.8V16.7H20v-4.6L41,12.2L41,12.2z"/>
</g>
</svg>
