<?xml version="1.0" encoding="utf-8"?>
<!-- Generator: Adobe Illustrator 24.2.3, SVG Export Plug-In . SVG Version: 6.00 Build 0)  -->
<svg version="1.1" id="Layer_1" xmlns="http://www.w3.org/2000/svg" xmlns:xlink="http://www.w3.org/1999/xlink" x="0px" y="0px"
	 viewBox="0 0 150 100" style="enable-background:new 0 0 150 100;" xml:space="preserve">
<style type="text/css">
	.st0{fill-rule:evenodd;clip-rule:evenodd;fill:#FFFFFF;}
	.st1{fill:#FFFFFF;}
</style>
<g>
	<path class="st0" d="M74.9,74.4c0-3.7,3-6.6,6.6-6.6c3.7,0,6.6,3,6.6,6.6c0,3.7-3,6.6-6.6,6.6S74.9,78,74.9,74.4 M81.6,78.6
		c2,0,3.7-1.9,3.7-4.2c0-2.3-1.7-4.2-3.7-4.2s-3.7,1.9-3.7,4.2S79.5,78.6,81.6,78.6"/>
	<polygon class="st0" points="95.7,70.5 95.7,80.7 93,80.7 93,70.5 93,70.5 89.1,70.5 89.1,68.2 99.7,68.2 99.7,70.5 95.8,70.5 	"/>
	<path class="st0" d="M103,77.9L103,77.9l-1.1,2.8h-3.3l5.2-12.5h1.7h1.7l5.2,12.5h-3.3l-1.1-2.8l0,0h-2.6H103z M105.6,75.8h1.8l0,0
		l-1.7-4.6l0,0l-1.7,4.6l0,0H105.6z"/>
	<polygon class="st0" points="44.2,70.5 44.2,80.7 41.4,80.7 41.4,70.5 41.4,70.5 37.5,70.5 37.5,68.2 48.1,68.2 48.1,70.5 	"/>
	<path class="st0" d="M48.8,74.4c0-3.7,3-6.6,6.6-6.6c3.7,0,6.6,3,6.6,6.6c0,3.7-3,6.6-6.6,6.6S48.8,78,48.8,74.4 M55.5,78.6
		c2,0,3.7-1.9,3.7-4.2c0-2.3-1.7-4.2-3.7-4.2s-3.7,1.9-3.7,4.2C51.7,76.7,53.4,78.6,55.5,78.6"/>
	<polygon class="st0" points="68.5,80.7 69.9,80.7 69.9,76 69.9,76 74.8,68.2 71.5,68.2 68.5,73.5 65.5,68.2 62.2,68.2 67.1,76 
		67.1,76 67.1,80.7 	"/>
	<path class="st1" d="M97.9,25.1C92.1,21.2,84,19,75,19s-17.1,2.2-22.9,6.1c-5.8,4-9,9.6-9,15.7s3.3,11.7,9.4,15.7
		c5.9,3.9,13.9,6.1,22.5,6.1s16.6-2.2,22.5-6.1c6-4,9.4-9.6,9.4-15.7C106.8,34.7,103.7,29.1,97.9,25.1 M93.8,29.7
		c0,0.7-0.5,1.5-1.4,2c-1.8,1.2-4.9,2.1-8.9,2.6l0,0c-0.2,0-0.3,0-0.3-0.2c-0.6-4.3-1.8-7.8-3.5-10.1l0,0l0,0l0,0
		c-0.2-0.3-0.1-0.4,0.2-0.4C87.9,24.5,93.8,27.5,93.8,29.7 M75,28.6c1.2,0,2.4,2.3,3,5.9c0,0.1,0,0.3-0.2,0.3l0,0
		c-0.9,0-1.8,0.1-2.8,0.1c-0.9,0-1.9,0-2.8-0.1c-0.2,0-0.2-0.1-0.2-0.3C72.6,30.9,73.8,28.6,75,28.6 M70.3,23.6
		c0.3,0,0.4,0.1,0.2,0.4l0,0c-1.7,2.3-3,5.8-3.7,10.1l0,0c0,0.2-0.1,0.2-0.3,0.2c-4-0.5-7.2-1.5-9-2.6c-0.8-0.6-1.3-1.3-1.3-2
		C56.2,27.4,62.1,24.5,70.3,23.6 M49.1,40.8c0-2.1,0.5-4.2,1.4-6.2c0.1-0.2,0.3-0.2,0.4,0l0,0c2.3,3.1,7.8,5.5,15.1,6.5l0,0
		c0.2,0,0.3,0.1,0.3,0.3l0,0c0.2,6.7,1.7,12.7,4.1,16.1l0,0c0.1,0.2,0.1,0.3-0.2,0.3c-5.8-0.7-11.1-2.7-14.9-5.7
		C51.3,49,49.1,45,49.1,40.8 M75,51.1c-1.6,0-3-4.1-3.3-9.1c0-0.2,0.1-0.2,0.2-0.2l0,0c1,0,2,0.1,3.1,0.1c1,0,2.1,0,3.1-0.1l0,0
		c0.2,0,0.2,0.1,0.2,0.2C78,47.1,76.6,51.1,75,51.1 M94.6,52.2c-3.8,3-9.1,5-14.9,5.7l0,0c-0.3,0-0.4-0.1-0.2-0.3l0,0
		c2.4-3.4,4-9.4,4.1-16.1l0,0c0-0.2,0.1-0.3,0.3-0.3l0,0c7.3-1,12.8-3.4,15.1-6.6l0,0c0.1-0.1,0.3-0.2,0.4,0c0.9,2,1.4,4.1,1.4,6.2
		C100.9,45,98.7,49,94.6,52.2"/>
</g>
</svg>
