<?xml version="1.0" encoding="utf-8"?>
<!-- Generator: Adobe Illustrator 24.2.3, SVG Export Plug-In . SVG Version: 6.00 Build 0)  -->
<svg version="1.1" id="Layer_1" xmlns="http://www.w3.org/2000/svg" xmlns:xlink="http://www.w3.org/1999/xlink" x="0px" y="0px"
	 viewBox="0 0 160 90" style="enable-background:new 0 0 160 90;" xml:space="preserve">
<style type="text/css">
	.st0{fill:#FFFFFF;}
</style>
<g>
	<polygon class="st0" points="75.6,71.5 74,71.5 69.8,71.5 68.1,71.5 68.1,71.5 67.9,73.8 68.7,73.8 69.3,72.7 71,72.7 71,80.8 
		72.8,80.8 72.8,72.7 74.4,72.7 75.1,73.8 75.9,73.8 75.7,71.5 	"/>
	<polygon class="st0" points="144.2,71.5 142.5,71.5 138.3,71.5 136.6,71.5 136.6,71.5 136.4,73.8 137.2,73.8 137.9,72.7 
		139.5,72.7 139.5,80.8 141.3,80.8 141.3,72.7 142.9,72.7 143.6,73.8 144.4,73.8 	"/>
	<polygon class="st0" points="110.9,72.1 111.4,72.6 108.2,76 108.2,72.7 108.9,72.1 108.9,71.5 105.6,71.5 105.6,72.1 106.4,72.7 
		106.4,80.8 108.2,80.8 108.2,78.1 109.7,76.4 111.2,77.5 112.1,80.8 114,80.8 112.7,76.6 110.8,75.2 113.1,72.7 114.3,72.1 
		114.3,71.5 110.9,71.5 	"/>
	<polygon class="st0" points="47.7,72.1 48.2,72.6 45,76 45,72.7 45.7,72.1 45.7,71.5 42.4,71.5 42.4,72.1 43.2,72.7 43.2,80.8 
		45,80.8 45,78.1 46.5,76.4 48,77.5 48.9,80.8 50.8,80.8 49.5,76.6 47.6,75.2 49.9,72.7 51.1,72.1 51.1,71.5 47.7,71.5 	"/>
	<polygon class="st0" points="132.9,72.1 133.6,72.7 133.6,80.8 135.5,80.8 135.5,71.5 132.9,71.5 	"/>
	<polygon class="st0" points="32.2,71.5 30.5,71.5 26.3,71.5 24.6,71.5 24.6,71.5 24.4,73.8 25.2,73.8 25.9,72.7 27.5,72.7 
		27.5,80.8 29.3,80.8 29.3,72.7 30.9,72.7 31.6,73.8 32.4,73.8 	"/>
	<polygon class="st0" points="5.7,72.7 6.3,73.8 7.1,73.8 6.9,71.5 0,71.5 0,72.1 0.8,72.7 0.8,80.8 6.9,80.8 7.1,78.5 6.3,78.5 
		5.7,79.5 2.6,79.5 2.6,76.7 5.6,76.7 5.6,75.4 2.6,75.4 2.6,72.7 	"/>
	<polygon class="st0" points="14,72.7 14.9,73.8 15.7,73.8 15.5,71.5 8.5,71.5 8.5,72.1 9.3,72.7 9.3,80.8 15.5,80.8 15.7,78.5 
		14.9,78.5 14,79.5 11.1,79.5 11.1,76.7 14.1,76.7 14.1,75.4 11.1,75.4 11.1,72.7 	"/>
	<polygon class="st0" points="33.1,72.1 33.8,72.7 33.8,80.8 35.6,80.8 35.6,71.5 33.1,71.5 	"/>
	<path class="st0" d="M21.3,75.4l-1.1-0.3c-0.6-0.2-1.1-0.5-1.1-1.3c0-0.5,0.4-1.2,1.5-1.2c0.4,0,1.1,0.1,1.4,0.2l0.7,1h0.8
		l-0.2-2.1c-0.7-0.3-1.7-0.4-2.7-0.4c-2.4,0-3.3,1.4-3.3,2.7c0,1.1,0.5,2.3,2.3,2.7l1.2,0.3c1,0.3,1.2,0.8,1.2,1.4s-0.5,1.3-1.5,1.3
		c-0.6,0-1.7-0.2-2.1-0.4l-0.5-0.8h-0.8l0.2,2.1l0,0c1,0.3,2.2,0.4,3.1,0.4c2.4,0,3.4-1.2,3.4-2.8C23.8,76.4,22.7,75.8,21.3,75.4"/>
	<path class="st0" d="M57.5,72.1l0.8,0.7v4.6c0,1.2-0.3,2.4-1.7,2.4h-0.4c-1.4,0-1.7-1.1-1.7-2.4v-4.6l0.7-0.7v-0.6h-3.3v0.6
		l0.7,0.7v4.9c0,1.9,0.8,3.3,3.5,3.3h0.4c2.8,0,3.5-1.5,3.5-3.3v-4.9l0.7-0.7v-0.6h-3.3L57.5,72.1L57.5,72.1z"/>
	<path class="st0" d="M82,72.1l0.8,0.7v4.6c0,1.2-0.3,2.4-1.7,2.4h-0.4c-1.4,0-1.7-1.1-1.7-2.4v-4.6l0.7-0.7v-0.6h-3.3v0.6l0.7,0.7
		v4.9c0,1.9,0.8,3.3,3.5,3.3H81c2.8,0,3.5-1.5,3.5-3.3v-4.9l0.7-0.7v-0.6H82V72.1z"/>
	<path class="st0" d="M92.2,72.1l0.8,0.7v4.6c0,1.2-0.3,2.4-1.7,2.4h-0.4c-1.4,0-1.7-1.1-1.7-2.4v-4.6l0.7-0.7v-0.6h-3.3v0.6
		l0.7,0.7v4.9c0,1.9,0.8,3.3,3.5,3.3h0.4c2.8,0,3.5-1.5,3.5-3.3v-4.9l0.7-0.7v-0.6h-3.3v0.6H92.2z"/>
	<path class="st0" d="M116.3,71.5v0.6l0.8,0.7l-1.9,8.1h1.8l0.7-3.1h3.3l0.7,3.1h1.8l-2.3-9.4C121.2,71.5,116.3,71.5,116.3,71.5z
		 M118,76.5l0.9-3.7h0.9l0.9,3.7H118z"/>
	<path class="st0" d="M150.2,71.5h-4.9v0.6l0.8,0.7l-1.9,8.1h1.8l0.7-3.1h3.3l0.7,3.1h1.8L150.2,71.5L150.2,71.5z M147,76.5l0.9-3.7
		h0.9l0.9,3.7H147z"/>
	<path class="st0" d="M104.2,74.5c0-1.9-1.2-3-3.7-3l0,0h-4.1v0.6l0.7,0.7v8.1H99v-3.4h1.8l1.7,3.4h1.9l-1.9-3.7
		C103.5,76.7,104.2,75.7,104.2,74.5 M100.5,76.2H99v-3.5h1.5l0,0c1.3,0,1.9,0.8,1.9,1.8C102.4,75.4,101.8,76.2,100.5,76.2"/>
	<path class="st0" d="M128.6,71.5L128.6,71.5h-4v0.6l0.8,0.7v8.1h1.8V78h1.4c2.4,0,3.6-1.2,3.6-3.2C132.2,72.6,131,71.5,128.6,71.5
		 M128.5,76.7h-1.4v-3.9h1.4c1.3,0,1.9,0.9,1.9,2C130.4,75.8,129.8,76.7,128.5,76.7"/>
	<polygon class="st0" points="67.6,79.5 64.7,79.5 64.7,72.7 65.5,72.1 65.5,71.5 62.1,71.5 62.1,72.1 62.9,72.7 62.9,80.8 
		69.1,80.8 69.1,80.8 69.3,78.5 68.5,78.5 	"/>
	<polygon class="st0" points="158.4,79.5 155.4,79.5 155.4,72.7 156.2,72.1 156.2,71.5 152.9,71.5 152.9,72.1 153.6,72.7 
		153.6,80.8 159.8,80.8 159.8,80.8 160,78.5 159.2,78.5 	"/>
	<path class="st0" d="M27.4,59.5c0-1.3-0.8-2.5-0.8-3.2c0.1-1.1,0.8-1.9,1-2.3c0.3-0.6,0.6-1.4,0.8-1.7c0.6-1.3,1.3-1.9,1.4-3
		c0.1-1-0.3-1.5-0.6-2c-0.3-0.4-1.2-2.3-2.8-4.2c-1.8-2.1-3-2.5-3.1-2.8s0.8-1.1,0.8-1.6c0.1-1-0.6-2.2-1.7-2.2
		c-1.2-0.1-1.5,0.1-1.7,0.3c-0.3,0.2-0.5,0.7-0.7,0.9c-0.2,0.1,0,0.5-0.1,0.7s-0.2,0.3-0.2,0.5s0.2,1.1,0.4,1.6
		c-0.6-0.1-1.4-0.3-1.8-0.3c-0.6-0.1-2-0.2-2.3-0.2c-0.5,0-1.6-0.2-2.4-0.2c3.4-1.1,5.8-4.3,5.8-8.1c0-4.7-3.8-8.6-8.6-8.6
		c-4.7,0-8.6,3.8-8.6,8.6c0,4.7,3.7,8.5,8.4,8.6l0,0c-0.1,0.2-0.4,0.5-0.3,0.6c0.1,0.1,0.4-0.2,0.5-0.3c0.2-0.1,0.3-0.1,0.4-0.2
		c0.2,0,0.4,0,0.5,0.1c0.2,0.2-0.3,0.1-0.5,0.2c-0.1,0-0.3,0.1-0.2,0.2c0,0.1,0.3,0.1,0.6,0c0.1,0,0.6,0.2,1,0.1
		c0.5-0.1,0.8-0.4,1-0.4c0.1,0,0.2,0.1,0.8,0.2c0.5,0.1,2.1,0.5,3,0.8c1.1,0.3,2.2,0.4,3.1,0.5c0.2,0.7,0.7,1.5,1.4,2.2
		c0,0.1,0,0.2-0.2,0.2c-0.1,0-0.1-0.2-0.2-0.2s-0.1,0.2-0.1,0.3s0.2,0.2,0.1,0.2s-0.5,0.1-0.7,0.1c-0.3,0-0.7-0.1-0.7,0.1
		c0,0.1,0.3,0.2,0.5,0.2s1,0,1.3,0.1s0.8,0.3,1.1,0.4c0.3,0.1,0.6,0.1,0.9,0.2c0.3,0.5,0.5,0.9,0.6,1c0.2,0.2,0.3,0.2,0.3,0.4
		c0.1,1.1,0.8,1.6,0.6,1.8c-0.2,0.2-0.6,0.2-1.1,0.4c-0.7,0.3-4.4,2.6-4.4,3.7c-0.1,1,0.5,2,0.7,2.3c0.3,0.3,0.8,2.2,1,2.6
		c0.6,1.3,0.7,2.7,1,3.3c0.2,0.6,0.1,1.7,0.3,2.6c0.1,0.3,0.1,0.6,0.1,0.6c-0.2,0.1-0.4,0.1-0.4,0.3c0,0.3,0.2,0.3,0.5,0.3
		s1.4-0.1,2.1,0s1.3,0.5,1.8,0.2s0-1.1,0-2.3C26.8,62.2,27.4,60.3,27.4,59.5 M11.7,39.5v-1.9h2.2V35h2.6v-2.2h1.9
		C17.9,36.3,15.2,39,11.7,39.5 M11.7,23.8c3.4,0.5,6.2,3.2,6.7,6.7h-1.9v-2.2h-2.6v-2.6h-2.2V23.8z M9.3,23.8v1.9H7.1v2.6H4.5v2.2
		H2.6C3.2,27,5.9,24.3,9.3,23.8 M9.3,39.5c-3.4-0.5-6.2-3.2-6.7-6.7h1.9V35h2.6v2.6h2.2V39.5z M7.7,37v-2.6H5.1v-2.2H2.5V31h2.6
		v-2.2h2.6v-2.6h2.2v-2.6h1.2v2.6h2.2v2.6h2.6V31h2.6v1.2h-2.6v2.2h-2.6V37h-2.2v2.6H9.9V37H7.7z M25.4,62.6c0,0.5-0.3,1.2-0.7,1.4
		c-0.4,0.1-1.3,0.5-1.4,0.6c0.1-0.2,0.2-0.8,0.2-1.5c0-0.5,0.3-1,0.5-1.4s0.5-0.6,0.5-1c-0.1-0.5-0.8-0.5-1-1
		c-0.1-0.3-0.4-3.1-0.5-3.7c-0.1-0.7-0.4-1.2-0.5-1.5c-0.2-0.3-0.2-0.4,0-0.7c0.3-0.3,1.6-0.4,2.3-0.6c-0.1,0.1-0.5,1.7-0.6,2.2
		c0,0.6,0.1,1.1,0.5,2.2C25,58.3,25.5,61.1,25.4,62.6"/>
	<path class="st0" d="M36.4,62.4c-0.2-0.3-0.5-2.7-1-3.7c-0.3-0.5-1-1.5-1.1-1.8c0-0.2,0.1-1.2,0.3-1.4c0.7-0.7,1.4-2.5,1.5-2.9
		c0.1-0.2,0.4-0.4,0.6-0.5c0.2,0,1.9,4,3.2,5.4c1,1.1,0.9,1.3,1.2,1.7c0.3,0.3,0.8,0.4,1.2,0.7c0.8,0.6,1.1,1.5,1.5,2
		c0.4,0.4,2.2,2.1,2.2,2.3c0,0.2-0.1,0.3-0.2,0.3c-0.2,0-0.4,0.2-0.4,0.4c0,0.2,0.4,0.4,1.1,0.4c0.8,0,1.7,0,1.8-0.1
		c0.2-0.2,0-0.5-0.2-0.7s-0.4-0.3-0.5-0.5c-0.1-0.2-0.2-0.3-0.4-0.4c-0.4-0.2-1.6-3.1-2.2-3.9c-0.6-0.8-1.8-1.7-2-1.8
		s-0.5-0.6-0.8-0.9c-0.4-0.4-1-2.7-1.1-2.9c-0.2-0.4-1.1-2.8-1.1-3.4c0-0.9-0.2-1.5-0.4-2.1c-0.3-0.7-0.2-1.2-0.1-1.8
		c0.1-0.9,0.4-2.2,0.3-3.1c-0.1-1.1-0.4-3.4-0.3-4.6c0.1-0.6,0.2-1.4,0.3-2c0.1-0.7,0.1-2.3,0.2-2.7c0.2-0.6,0.2-1.5,0.3-2
		c0-0.5,0.2-1.9,0.3-2.2l0,0c0.2-0.5,0.4-0.9,0.6-1c0.2-0.2,0.3-0.3,0.2-0.4s-0.3,0.2-0.5,0.3c-0.1,0.1-0.2,0-0.1-0.1
		c0.1-0.1,0.3-0.5,0.4-0.9c0-0.1-0.1-0.2-0.1-0.1c-0.1,0.1-0.1,0.2-0.2,0.3c-0.1,0.1-0.2,0.2-0.2,0.2c-0.1,0,0-0.3,0.1-0.4
		c0-0.3,0-0.5,0-0.5c-0.1,0-0.1,0.1-0.2,0.4c0,0.1-0.1,0.3-0.1,0.4c-0.1,0.1-0.2,0.1-0.2,0c0-0.3-0.1-0.6-0.1-0.7l0,0
		c0.6-0.5,1.2-1,2-1.4L41.6,9h-9.1l-0.9,17.2c2.8,1.4,4,3.3,4.3,7c0,0.3-0.1,0.6-0.1,0.7c0,0.2-0.1,0.1-0.2,0
		c-0.1-0.1-0.2-0.6-0.3-0.5c-0.1,0-0.1,0.2,0,0.5c0.1,0.2,0.2,0.5,0.2,0.8c-0.4-0.2-0.8-0.3-1.3-0.3c-0.3,0-1.9,0.4-2,1.6
		c-0.1,0.7,0.5,1.3,0.5,1.6c0,0.2-1.2,0.8-0.9,1.8c0.4,1.1,1,2,1.4,2.5c0.4,0.4,1.6,3.5,1.5,4.6c0,0.3-0.5,0.7-0.7,1.3
		c-0.2,0.4-0.2,0.8-0.2,1s-0.9,0.9-1.6,4.1c-0.3,1.2-0.2,3.4-0.2,3.7c0.1,0.5,0.2,0.5,0.3,0.9c0,0.2,0.2,1.1,0.6,1.8
		c0.5,1,2.3,3.5,2.5,4.4c0.1,0.5-0.1,1.5-0.2,1.7c-0.2,0.4-0.4,0.4-0.4,0.6c0,0.3,0.8,0.2,1.2,0.1s0.7-0.3,0.7-0.6
		c0-0.3,0-0.8,0.1-1c0.1-0.3,0.5-0.4,0.5-0.7C37.4,63,36.6,62.7,36.4,62.4 M36.3,33.7c-0.1,0-0.1-0.2-0.1-0.4l0,0h0.3
		C36.4,33.4,36.4,33.7,36.3,33.7 M36.8,33.3h0.5c-0.1,0.1-0.4,0.4-0.5,0.6c-0.1,0.1-0.2,0.1-0.2-0.1C36.7,33.6,36.7,33.4,36.8,33.3
		 M35.8,24.9c0-0.7,0.6-1.3,1.3-1.3s1.3,0.6,1.3,1.3c0,0.7-0.6,1.3-1.3,1.3C36.4,26.2,35.8,25.6,35.8,24.9 M39.6,32.6
		c-0.2,0.7-0.2,1-0.2,1c-0.1,0.4-0.7,1.9-0.8,2.8c-0.1,0.9-0.6,1.8-0.8,1.9c-0.1,0.1-0.7,0.2-0.9,0.2c-0.1,0-0.3-0.4-0.4-0.5
		c-0.1-0.2,0-1,0.2-1.2c0.3-0.4,0.1-0.8-0.2-1.3c0.2-0.1,0.2-0.2,0.4-0.2s0.3-0.2,0.4-0.2c0.4,0,0.3-0.1,0.6-0.1
		c0.1,0,0.1-0.2,0-0.2c-0.4-0.1-0.4,0.1-0.8,0c-0.1,0,0-0.3,0-0.5c0-0.1,0.2-0.4,0.2-0.5c0.1-0.1,0.2-0.3,0.3-0.5h0.6
		c0.2-1.9,0.6-3.4,1.3-4.5c0.1,0.1,0.1,0.2,0.2,0.4c0.1,0.1,0.2,0.2,0.2,0.3c0.1,0.1,0.1,0.4,0.1,0.7C40.1,31,39.6,32.3,39.6,32.6
		 M40.3,28.6c0,0.1-0.1,0.4-0.2,0.4c-0.3-0.1-0.2-0.2-0.4-0.4c0.2-0.3,0.4-0.6,0.7-0.8c0,0.1,0,0.3,0,0.3
		C40.3,28.2,40.3,28.4,40.3,28.6 M33.1,9.6h8.1l0.1,2.5C40,12.7,38.6,13,37.1,13s-2.9-0.3-4.2-0.9L33.1,9.6z M32.9,12.7
		c1.3,0.6,2.7,0.9,4.2,0.9s2.9-0.3,4.2-0.9l0.1,1.3c-1.3,0.6-2.7,1-4.3,1c-1.5,0-3-0.4-4.3-1L32.9,12.7z M32.8,14.6
		c1.3,0.6,2.8,1,4.3,1s3-0.3,4.3-1l0.1,1.3c-1.3,0.7-2.8,1.1-4.4,1.1c-1.6,0-3.1-0.4-4.4-1.1L32.8,14.6z M32.7,16.6
		c1.3,0.6,2.8,1,4.4,1c1.6,0,3.1-0.4,4.4-1l0.1,1.3c-1.3,0.7-2.9,1.1-4.5,1.1s-3.1-0.4-4.5-1.1L32.7,16.6z M32.2,25.9l0.4-7.4
		c1.4,0.7,2.9,1.1,4.5,1.1s3.1-0.4,4.5-1.1l0.4,7.4c-2.6,1.4-3.9,3.3-4.3,6.8h-0.3v-6c0.9-0.1,1.6-0.9,1.6-1.8c0-1-0.8-1.8-1.8-1.8
		s-1.8,0.8-1.8,1.8c0,0.9,0.7,1.7,1.6,1.8v6h-0.3C36,29.2,34.8,27.3,32.2,25.9"/>
	<path class="st0" d="M122.9,52.1c0.2,0,0.6,0.2,0.6,0.5c0.1,0.4,0.8,2.2,1.5,2.9c0.2,0.2,0.3,1.1,0.3,1.4c-0.1,0.3-0.8,1.3-1.1,1.8
		c-0.5,1-0.8,3.4-1,3.7s-1,0.7-1,1.2c0,0.3,0.3,0.4,0.5,0.7c0.1,0.2,0.1,0.8,0.1,1c0,0.3,0.3,0.5,0.7,0.6c0.4,0.1,1.2,0.2,1.2-0.1
		c0-0.3-0.2-0.2-0.4-0.6c-0.1-0.2-0.3-1.2-0.2-1.7c0.2-0.8,2-3.3,2.5-4.4c0.4-0.7,0.5-1.6,0.6-1.8c0.1-0.4,0.2-0.3,0.3-0.9
		c0-0.3,0.1-2.5-0.2-3.7c-0.7-3.2-1.6-3.9-1.6-4.1c0-0.2,0-0.6-0.2-1c-0.2-0.6-0.7-1-0.7-1.3c-0.1-1.1,1.2-4.1,1.5-4.6
		c0.4-0.5,1.8-2.9,1.2-3.6c-0.6-0.7-0.6-0.6-0.6-0.8c0-0.3,0.6-0.7,0.5-1.4c-0.1-1.2-1.8-1.6-2.1-1.6c-0.4-0.1-0.9,0.1-1.3,0.3
		c0-0.2,0.1-0.5,0.1-0.6l10.4-6.5l-25.1-6.2l9.1,8.9c0.1,0.5,0.2,1.5,0.2,1.9c0,0.5,0,1.4,0.3,2c0.2,0.4,0.1,2,0.2,2.7
		s0.3,1.4,0.3,2c0.1,1.2-0.2,3.5-0.3,4.6c-0.1,1,0.2,2.3,0.3,3.1c0.1,0.6,0.2,1.1-0.1,1.8c-0.2,0.5-0.4,1.2-0.4,2.1
		c0,0.7-0.9,3-1.1,3.4c-0.1,0.3-0.7,2.6-1.1,2.9c-0.3,0.3-0.6,0.8-0.8,0.9c-0.2,0.1-1.4,1-2,1.8s-1.8,3.6-2.2,3.9
		c-0.2,0.2-0.3,0.3-0.4,0.4c-0.1,0.2-0.2,0.3-0.5,0.5c-0.2,0.2-0.4,0.4-0.2,0.7c0.1,0.1,1.1,0.1,1.8,0.1c0.7,0,1.1-0.2,1.1-0.4
		c0-0.2-0.2-0.3-0.4-0.4c-0.2,0-0.2-0.1-0.2-0.3s1.8-2,2.2-2.3c0.5-0.5,0.8-1.4,1.5-2c0.4-0.3,0.9-0.4,1.2-0.7
		c0.3-0.3,0.2-0.5,1.2-1.7C120.9,56.1,122.6,52.1,122.9,52.1 M125.2,39.1c0.1-0.1,0.7-0.4,0.7-0.5c0,0,0.3,0.2,0.2,0.4
		c-0.1,0.2-0.3,0.5-0.6,0.5c-0.2,0-0.4-0.1-0.4-0.2C125.1,39.4,125.1,39.2,125.2,39.1 M133.3,27.8l-9.6,5.9c0-0.2,0-0.6-0.1-0.9
		c0-0.2-0.2-0.1-0.2,0s0,0.2,0,0.4c0,0.1,0,0.3-0.1,0.4c-0.1,0-0.2-0.3-0.2-0.4c-0.1-0.3-0.3-0.5-0.3-0.4c-0.1,0-0.1,0.1,0.1,0.5
		c0,0.1,0.1,0.3,0.1,0.5c0,0,0,0,0,0.1l-3.4-3.3c0-0.1,0-0.2,0-0.2c0-0.3,0-0.5,0.1-0.7c0.1-0.1,0.2-0.2,0.2-0.3
		c0.1-0.2,0.1-0.3,0.2-0.5c0.1-0.1,0-0.2-0.1-0.1c-0.3,0.2-0.2,0.4-0.5,0.4c-0.1,0-0.2-0.2-0.2-0.4c0-0.1-0.1-0.4-0.1-0.5
		s0-0.4,0-0.5s-0.1-0.1-0.2,0c0,0.1-0.1,0.5-0.1,0.7c0,0.1-0.1,0.1-0.2,0s-0.1-0.3-0.1-0.4c-0.1-0.3-0.1-0.4-0.2-0.4s-0.1,0.2,0,0.5
		c0,0.1,0.1,0.4,0.1,0.4c-0.1,0-0.2-0.1-0.2-0.2c-0.1-0.1-0.1-0.2-0.2-0.3c-0.1-0.1-0.2-0.1-0.1,0.1c0.1,0.3,0.3,0.7,0.4,0.9
		c0.1,0.1,0,0.2-0.1,0.1c-0.1,0-0.3-0.2-0.4-0.3l-6.5-6.4L133.3,27.8z M121.9,38.3c-0.3-0.1-0.8-1-0.8-1.9c-0.1-0.9-0.7-2.4-0.8-2.8
		c0,0,0-0.3-0.2-1c0-0.2-0.2-0.7-0.3-1.2l2.8,2.7c0,0.1,0.1,0.1,0.1,0.2c0,0.1,0.1,0.4,0,0.5c-0.3,0.1-0.3,0-0.8,0
		c-0.1,0-0.2,0.2,0,0.2c0.2,0.1,0.2,0.1,0.6,0.1c0.2,0,0.3,0.1,0.4,0.2c0.2,0.1,0.2,0.1,0.4,0.2c-0.4,0.5-0.5,0.9-0.2,1.3
		c0.1,0.2,0.2,1,0.2,1.2c0,0.1-0.3,0.5-0.4,0.5C122.7,38.5,122.1,38.4,121.9,38.3"/>
	<path class="st0" d="M144.8,62.1c0.4,0.6,0.2,0.6,0.4,0.8s0.2,0.2,0.4,0.5c0.4,0.7,0.5,0.8,0.6,1.3c0.1,0.3,0.3,0.4,0.6,0.8
		c0.1,0.2,0.3,0.2,0.4,0.2c0.2,0,0.1-0.2,0.3-0.2c0.1,0,0.2,0,0.3-0.1c0.2-0.3,0.3-0.6,0.3-0.8c-0.1-0.2-0.2-0.5-0.3-0.7
		c-0.2-0.2-0.8-1-1.1-1.3c-0.2-0.2-0.3-0.5-0.3-0.5c-0.1-0.1-0.2-0.1-0.3-0.3c-0.6-1.1-1-2.7-2-4c-0.9-1.1-1.5-1.4-1.8-1.5
		c-0.4-0.2-1.6-2.9-2.3-4.7c-0.3-0.6-0.2-1.1-0.7-1.9c-0.8-1.4-1.5-1.4-2.4-1.9c-0.4-0.3-0.8-1.1-1.8-2.7c0.4,0,1.7-0.1,2,0
		c0.9,1,2,1.7,3.1,2.2c0.2,0.2,0.4,0.4,0.5,0.6c0.2,0.2,0.5,0.5,0.7,0.8s0.6,0.8,0.7,1c0.2,0.4,0.3,0,0.2-0.1
		c-0.1-0.2-0.2-0.5-0.1-0.5c0.1,0,0.7,0,0.8,0c0.2,0,0.5,0.1,0.7,0.1c0.2,0.1,0.4,0,0.3-0.1c0-0.1,0.1-0.1,0.2-0.1
		c0.1,0,0.3-0.1,0.1-0.3c0.1-0.1,0-0.3-0.1-0.3c-0.1-0.1-0.1-0.1-0.1-0.1s0,0,0.1,0c5.6,0,14-4.4,14-14c0-7.1-5.7-9.4-7.7-9.4
		c-2.8,0-4,2.4-4.9,4.3c-0.6,1.3-1.1,2.3-1.9,2.3c-0.9,0-1.2-0.9-1.4-2.2c-0.2-1-0.4-2-1.3-2c-1.7,0-6.2,5.3-6.2,11.1
		c0,0.1,0,0.1,0,0.2c-0.3,0.1-0.5,0.2-1.1,0.4c0,0,0,0,0-0.1c0-0.6-0.1-1.4-0.6-1.9s-1.4-0.7-1.7-0.7c-1.3,0-1.9,1.3-1.9,1.6
		c-0.1,0.5-0.3,0.6-0.2,1c0,0.4-0.1,0.9-0.1,1.2s0.1,0.6,0.3,0.7c0.2,0.1,0.3,0,0.2,0.3c0,0.3,0.2,0.5,0.1,0.7
		c-0.2,1.1-0.1,1.2,0.1,2.6c0.2,1.3,1.4,2.6,2.2,3.5c0.4,0.4,1.2,1.5,1.6,1.9c0.1,0.1,0.1,0.6,0.1,0.7c-0.4,0.8-1.3,2.1-1.7,2.8
		c-0.6,1.1-0.8,2.1-1,2.4c-0.1,0.3-0.3,0.5-0.3,1c0,0.7,0.6,1,0.9,1.5c0.6,0.8,0.6,1.1,1.1,1.7c1.3,1.5,1.2,1.3,2.1,2.7
		c0.1,0.1,0.1,0.7,0.1,0.8c-0.3,0.3-0.8,1.4-1.2,1.5c-0.2,0-0.8,0.2-0.7,0.3c0.1,0.2,0.1,0.2,0.2,0.1c0.2,0,0.9,0,1.1,0
		c0.5,0,0.4-0.3,0.8-0.5c0.2-0.1,0.7-0.5,1.5-0.7c0.4-0.1,0.6-0.4,0.6-0.8c0-0.3-0.6-0.9-0.9-1.2c-0.7-0.8-0.9-2.4-1.4-3.2
		s-1.9-1.9-1.8-2.1c0.8-1.5,1.7-1.8,2.3-2.5c0.4-0.5,0.7-1.3,1.2-1.7c1.4,1.5,1.7,2.7,2.8,3.8c0.2,0.2,0.4,0.6,0.8,0.8
		c0.5,0.3,1.3,1.1,2.4,2.1c0.4,0.3,0.6,1,1.3,1.8C144.5,61.6,144.6,61.7,144.8,62.1 M140.9,27.6c0.4,0,0.6,0.6,0.7,1.6
		c0.2,1.2,0.5,2.6,2,2.6c1.1,0,1.7-1.2,2.4-2.7c0.9-1.9,1.9-4,4.4-4c1.6,0,7.1,2.1,7.1,8.9c0,9.2-8,13.4-13.4,13.4
		c-0.7,0-1.4-0.1-2.2-0.3c-0.2-0.1-0.3-0.2-0.4-0.2c-0.5-0.5-1.2-1.5-2.4-2.7c-0.4-0.3-0.4-0.5-0.6-0.7c-0.2-0.1-0.5-0.1-1-0.3
		c-0.4-0.2-0.8-0.2-1.1-0.3c-0.5-0.9-0.9-2-1.1-3.2c0.3,0.1,0.6,0.2,0.6,0.1c0-0.1-0.2-0.2,0-0.2s0.2-0.1,0.8-0.1
		c0.2,0,0.4-0.1,0.3-0.2c-0.1-0.1-0.4-0.2-0.7-0.2c-0.4,0-0.3-0.3-0.6-0.4c-0.1-0.1-0.4-0.2-0.6-0.3c0-0.1,0-0.2,0-0.3
		C135.2,32.5,139.5,27.6,140.9,27.6 M133.6,41.9c-0.3-0.3-0.4-0.4-1.2-1.2c0,0,0,0,0-0.1c0.3-0.2,0.6-0.4,1-0.5s0.6-0.8,0.8-0.8
		s0.3,0,0.5,0.3c0,0,0,0,0.1,0c0.1,1.2,0.5,2.3,1,3.3c-0.6-0.1-1.3-0.1-1.4-0.2C133.9,42.6,134,42.3,133.6,41.9"/>
	<path class="st0" d="M100.3,63c0-0.3-0.3-0.6-0.5-0.7c-0.1-0.1-0.4-0.3-0.4-0.5c-0.1-0.2-0.6-1.5-0.7-2.1c0.3,0.5,1.2,1.6,1.4,2.2
		c0.3,0.6,0.6,0.9,0.6,1s0.5,1.3,0.5,1.4s0,0.7,0,0.7s-0.6,0.2-0.5,0.4c0.1,0.1,0.1,0.2,0.4,0.2s0.9,0,1-0.1s0.3-0.3,0.2-0.8
		c-0.1-0.2-0.2-0.8-0.2-1c0-0.6,0.4-1.1,0.4-1.5c0.1-0.3,0.1-0.7-0.1-0.8c-0.2-0.2-0.5-0.3-0.7-0.3s-0.3-0.1-0.4-0.3
		c0,0,0-0.1-0.1-0.2l16.3-11.1l-0.3-0.2c-0.2-0.2-0.2-0.6-0.2-1.1c0-0.8,0-1.8-0.9-2.3c0.2-0.3,0.6-0.7,1-1l0.3-0.3l-0.3-0.2
		c-0.3-0.1-0.8-0.5-0.8-0.8v-0.1c0-0.3,0.1-0.8-0.2-1.2l0.1-0.1c0.7-0.4,1.9-1.2,1.7-2.5v-0.3l-0.3,0.1c-0.7,0.2-2.8,0.6-3.7,0.7
		c0-0.3,0.2-0.6,0.3-0.9c0.3-0.7,0.6-1.4,0.2-2.1l-0.1-0.1h-0.2c-0.4,0-1.1-0.2-1.5-0.3v-6.9l-16,11c-0.4-0.3-0.8-0.7-0.9-0.8
		c-0.2-0.1-0.2-0.1-0.2-0.2c0.1-0.1,0.2-0.3,0.3-0.3c0.2,0,0.6-0.2,0.8-0.6c0.2-0.4,0.4-1.3,0.3-1.8c-0.1-0.6-0.8-1.6-2.1-1.7
		c-0.2,0-0.8,0.1-1.1,0.4c-0.3,0.3-0.4,0.7-0.5,0.8s-0.3,0.2-0.7,0.2c-0.1,0-0.2,0.1-0.2,0.1c-0.1,0.1,0.2,0.3,0.1,0.4
		c0,0-0.2,0.1-0.2,0.2c0,0.1,0.1,0.2,0,0.2c0,0-0.2-0.1-0.3,0c0,0.1,0,0.2,0,0.2c-0.1,0.1-0.2,0.2-0.2,0.4s0.5,0.4,0.6,0.5
		s0.3,0.5,0.3,0.7s0.1,0.6,0.2,0.8c0.1,0.1,0.4,0.5,0.6,0.8c-0.4,0.4-0.7,0.4-1.5,1c-0.2,0.2-0.3,0.7-0.8,1
		c-0.2,0.1-0.5,0.3-0.7,0.5c-0.1-0.3-0.3-0.7-0.4-1c0.1-0.1,0.2-0.2,0.2-0.2c0.1-0.1,0.2-0.5,0.2-0.6s0-0.5,0-0.5c0-0.1,0-0.1-0.2,0
		c-0.1,0.1-0.1,0.4-0.2,0.4c0,0-0.2,0.2-0.2,0.1c0-0.1-0.2-0.4-0.2-0.5s-0.1-0.9-0.1-1s-0.2-0.1-0.2,0c0,0,0-0.2-0.1-0.2
		s-0.1,0.2-0.1,0.2s0-0.1-0.1-0.1s-0.1,0.1-0.1,0.2c-0.1-0.2-0.2-0.4-0.3-0.6c-0.3-0.6-0.6-1.2-0.9-1.8c0.3,0.1,0.5,0.1,0.9,0.1
		c0.8-0.2,1.4-1,1.3-2.2c0-1.5-1-3.1-2.7-3.4c-0.6-0.1-1.5,0-2.2,0.7c-0.4,0.4-0.9,1.1-1,2.3h-0.4v-3H83v3h-1.2v-3h-0.6v3H80v-3
		h-0.6v3h-1.2v-3h-0.6v3h-0.4c-0.1-1.2-0.6-1.9-1-2.3c-0.7-0.6-1.6-0.8-2.2-0.7c-1.7,0.3-2.7,1.9-2.7,3.4c0,1.2,0.5,2,1.3,2.2
		c0.3,0.1,0.6,0,0.9-0.1c-0.3,0.6-0.6,1.2-0.9,1.8c-1.2,2.3-2.8,5.2-2.8,9.3c0,6.4,3.3,9.5,5.3,10.7c0.3,0.2,0.8,0.4,1.4,0.6v2.2h-3
		v2.6h14.2v-2.6h-3v-2.2c0.5-0.2,1-0.3,1.3-0.6l0,0c2-1.2,5.4-4.3,5.4-10.8c0-0.8-0.1-1.5-0.1-2.2c0.3,0,0.3-0.1,0.7-0.3
		c0.7-0.3,1.2-1.2,1.4-1.5c0.2-0.2,0.4-0.5,0.6-0.8c0.3,0.4,0.7,0.8,1,1.1c0.5,0.3,2.5,1.4,2.9,1.5c0.1,0,0,0.3,0,0.4
		c0,0.1-0.2,0.4-0.3,0.8c-0.1,0.4-0.1,1.4-0.1,1.5s-1.3,1.6-2.2,3.3c-0.6,1.1-0.9,2.6-1,3.1c0,0.4,0.3,1,0.5,1.2s0.5,0.6,0.6,0.8
		s1.8,3.3,2.1,3.9c0.1,0.2,0.1,0.8,0.1,1s-0.3,0.5-0.4,0.8c-0.1,0.2-0.2,0.6-0.5,0.9c-0.1,0.2-0.6,0.2-0.9,0.2c-0.2,0-0.2,0.3,0,0.4
		s1.1,0,1.4,0s0.8-0.5,1.1-0.7c0.2-0.2,0.6-0.5,0.8-0.6C99.9,63.7,100.4,63.3,100.3,63 M85.5,33.5c0.6-0.5,1.3-0.6,1.8-0.5
		c1.4,0.2,2.2,1.6,2.2,2.8c0,0.7-0.2,1.5-0.9,1.6c-0.3,0.1-0.6,0-0.8-0.2c-0.5-0.4-0.7-1.5-0.7-1.9h-0.5c0,0,0,0,0,0.1l0,0
		c0.1,1.5,0.8,2.9,1.7,4.6c0.1,0.2,0.2,0.4,0.3,0.6c0,0.2,0,0.4,0,0.5s-0.1,0.4,0,0.6c0,0.1,0,0.6,0.2,0.8c0.1,0.2,0.2,0.4,0.3,0.5
		c0.2,0.4,0.3,0.8,0.5,1.2c-0.2,0.1-0.5,0.2-0.7,0.1c-0.5-0.1-1.3-0.3-2-0.6c-0.2-0.7-0.5-1.3-0.7-2c-0.7-2-1.4-4-1.4-6.2
		C84.6,34.8,84.9,34,85.5,33.5 M84.1,36c0.1,2.2,0.8,4.2,1.5,6.1c0.2,0.5,0.4,1,0.5,1.5c-0.5-0.2-1-0.5-1.2-0.7
		c-0.1-0.1-0.2-0.5-0.2-0.6c0-0.2-0.3-0.5-0.4-0.7c0-0.1-0.1-0.1-0.2,0s0,0.3,0.1,0.4c0,0.1,0,0.3-0.1,0.3s-0.1,0-0.3,0
		c-0.1,0-0.1,0-0.2-0.1V36H84.1z M87.1,48.5c0,3.6-2.1,5.8-3.4,6.8V43.7c0.1,0,0.2,0,0.4,0.1c0.3,0.1,0.4,0,0.8,0.3
		c0.2,0.1,0.9,0.6,1.7,1C86.8,46.1,87.1,47.3,87.1,48.5 M81.9,36h1.2v5.8c0-0.1-0.1-0.1-0.1-0.2c-0.1-0.1-0.2,0-0.2,0L83,42
		c0,0,0,0.1,0.1,0.1v0.3c-0.1,0-0.2-0.1-0.3-0.1c-0.1,0-0.3-0.2-0.4-0.2s-0.2,0.1-0.1,0.2c0.1,0.1,0.4,0.3,0.4,0.3s0.2,0.1,0.4,0.2
		V43c-0.2,0-0.5,0-0.7-0.1c-0.1,0-0.1,0.1-0.1,0.1c0.2,0.1,0.5,0.2,0.8,0.2v0.2c-0.2,0.1-0.4,0.1-0.5,0.2c-0.1,0,0,0.1,0.1,0.1
		s0.2,0,0.4-0.1v12c-0.1,0.1-0.2,0.1-0.2,0.2c-0.3-0.1-0.6-0.1-1-0.1C81.9,55.7,81.9,36,81.9,36z M80.1,36h1.2v19.7
		c-0.2,0-0.4,0-0.6,0s-0.4,0-0.6,0V36z M78.3,36h1.2v19.8c-0.3,0-0.7,0.1-1,0.1c-0.1,0-0.1-0.1-0.2-0.2V36z M77.3,36h0.4v19.3
		c-1.3-1-3.4-3.2-3.4-6.8c0-2.3,0.8-4.4,1.5-6.4C76.6,40.1,77.3,38.1,77.3,36 M74.5,58.6c-1.8-1.5-4-4.4-4-9.5c0-4,1.4-6.7,2.7-9.1
		c0.9-1.6,1.6-3.1,1.7-4.6l0,0v-0.1h-0.5c0,0.4-0.1,1.5-0.7,1.9c-0.2,0.2-0.5,0.2-0.8,0.2c-0.7-0.1-0.9-1-0.9-1.6
		c0-1.3,0.8-2.6,2.3-2.8c0.5-0.1,1.2,0,1.8,0.5c0.5,0.5,0.8,1.2,0.8,2.2c0,2.2-0.7,4.1-1.4,6.2C74.8,44,74,46.1,74,48.5
		c0,4.2,2.7,6.6,3.9,7.5l0,0l0,0C75.8,56.6,74.5,57.5,74.5,58.6 M87.3,64.6H74.2v-1.4h13.1C87.3,63.2,87.3,64.6,87.3,64.6z
		 M77.2,60.5h7.1v2.1h-7.1V60.5z M84.3,60h-7.2c-1.3-0.3-2.1-0.8-2.1-1.4c0-1.1,2.5-2.3,5.7-2.3s5.7,1.2,5.7,2.3
		C86.4,59.1,85.6,59.6,84.3,60 M86.9,58.6c0-1-1.4-2-3.3-2.5l0,0l0,0c1.2-0.9,3.9-3.4,3.9-7.5c0-1.1-0.2-2.2-0.4-3.2
		c0.4,0.2,0.9,0.3,1.3,0.4c0.4,0.1,0.6,0.1,0.8,0.1c0.2,0,0.4-0.2,0.8-0.3c0.1,0.2,0.2,0.3,0.3,0.4c0.2,0.2,0.3,0.4,0.4,0.5
		c0.1,0.8,0.2,1.7,0.2,2.6C91,54.2,88.8,57,86.9,58.6 M91.9,44.7c-0.1,0.3-0.4,0.7-0.4,0.7c0-0.1-0.1-0.3-0.2-0.4
		c0.3-0.2,0.5-0.3,0.7-0.5C91.9,44.6,91.9,44.7,91.9,44.7 M97.7,55c-0.1,0,1.1-1.4,1.9-2.3c0.6-0.6,1-1.6,1.1-1.6
		c0.1-0.1,1.5-0.8,1.5-1.8c0.1-1-0.4-2.5-0.9-3c-0.6-0.6-0.9-0.9-1.1-1c-1.3-0.9-2.5-3.3-2.9-3.8c-0.1-0.1-0.2-0.2-0.3-0.3l15-10.3
		v6.3l0.2,0.1c0,0,1.1,0.4,1.8,0.4c0.2,0.4-0.1,0.9-0.3,1.4c-0.2,0.5-0.4,1-0.3,1.4v0.2h0.2c0.5,0,2.7-0.3,3.8-0.6
		c-0.1,0.7-0.9,1.2-1.5,1.6c-0.2,0.1-0.3,0.2-0.4,0.3l-0.3,0.2l0.3,0.2c0.3,0.2,0.2,0.7,0.2,1c0,0.1,0,0.1,0,0.2
		c0,0.5,0.4,0.9,0.8,1.1c-0.3,0.3-0.9,0.9-1,1.1l-0.2,0.3l0.3,0.1c0.9,0.4,0.9,1.1,0.9,2c0,0.5,0,0.9,0.2,1.2L101,60
		c-0.3-0.8-0.9-2.2-1.8-3.7C98.9,55.9,98.2,55.2,97.7,55"/>
	<path class="st0" d="M11.9,33h2.2v-2.8h-2.2V28H9.1v2.2H6.9V33h2.2v2.2h2.8C11.9,35.2,11.9,33,11.9,33z M11.9,30.8h1.6v1.6h-1.6
		V30.8z M9.1,32.4H7.5v-1.6h1.6V32.4z M11.3,34.6H9.7V33h1.6V34.6z M11.3,32.4H9.7v-1.6h1.6V32.4z M11.3,30.2H9.7v-1.6h1.6V30.2z"/>
	<path class="st0" d="M53.4,48L53.4,48L53.4,48L53.4,48c1.7,0,3.1-0.2,4.2-0.6c-0.2,0.1-0.6,0.3-0.9,0.5C56.5,48,56,48,55.5,48.1
		c-0.4,0.1-0.4,0.2-0.3,0.3c0,0-0.1,0.1-0.2,0.2c0,0-0.1,0.2,0,0.2c-0.2,0.2,0,0.3,0.1,0.3s0.2,0,0.2,0.1s0.1,0.1,0.3,0.1
		s0.5-0.1,0.7-0.1c0.1,0,0.7,0,0.8,0s0,0.3-0.1,0.5s0.1,0.5,0.2,0.1c0.1-0.2,0.4-0.6,0.7-1c0.2-0.3,0.5-0.6,0.7-0.8
		c0.3-0.4,0.7-0.8,1-1.1s1-0.6,1.4-0.8c0.4-0.3,0.8-0.7,1.2-1c0.2-0.2,1.6-0.3,2-0.4c-0.9,1.7-1.3,2.5-1.8,2.7
		c-0.9,0.5-1.5,0.5-2.4,1.9c-0.5,0.8-0.4,1.3-0.7,1.9c-0.8,1.8-1.9,4.5-2.3,4.7c-0.3,0.2-0.9,0.5-1.8,1.5c-1,1.3-1.4,2.9-2,4
		c-0.1,0.2-0.2,0.2-0.3,0.3c-0.1,0-0.1,0.3-0.3,0.5c-0.3,0.3-0.9,1.1-1.1,1.3c-0.2,0.2-0.3,0.5-0.3,0.7c-0.1,0.2,0,0.5,0.3,0.8
		c0.1,0.1,0.2,0.1,0.3,0.1c0.2,0,0.1,0.2,0.3,0.2c0.1,0,0.3,0,0.4-0.2c0.2-0.4,0.4-0.5,0.6-0.8c0.2-0.5,0.2-0.5,0.6-1.3
		c0.2-0.4,0.3-0.3,0.4-0.5c0.2-0.2,0-0.2,0.4-0.8c0.2-0.4,0.3-0.5,0.8-1c0.8-0.8,1-1.5,1.3-1.8c1.1-1,1.9-1.8,2.4-2.1
		s0.6-0.6,0.8-0.8c1.1-1.1,1.4-2.4,2.8-3.9c0.5,0.4,0.8,1.2,1.2,1.7c0.6,0.7,1.5,1,2.3,2.5c0.1,0.2-1.3,1.3-1.8,2.1
		s-0.7,2.4-1.4,3.2c-0.3,0.4-0.9,1-0.9,1.2c-0.1,0.4,0.2,0.7,0.6,0.8c0.8,0.2,1.3,0.6,1.5,0.7c0.4,0.2,0.3,0.5,0.8,0.5
		c0.2,0,0.9,0,1.1,0c0.1,0,0.2,0,0.2-0.1c0.1-0.2-0.6-0.3-0.7-0.3c-0.4-0.1-0.9-1.2-1.2-1.5c0-0.1,0-0.7,0.1-0.8
		c0.8-1.4,0.8-1.2,2.1-2.7c0.5-0.6,0.6-0.9,1.1-1.7c0.3-0.4,0.9-0.8,0.9-1.5c0-0.5-0.2-0.7-0.3-1c-0.1-0.3-0.4-1.3-1-2.4
		c-0.4-0.8-1.3-2.1-1.7-2.8c0-0.1,0-0.6,0.1-0.7c0.4-0.3,1.2-1.5,1.6-1.9c0.9-0.8,2-2.2,2.2-3.5c0.2-1.4,0.3-1.5,0.1-2.6
		c-0.1-0.3,0.1-0.5,0.1-0.7c0-0.4,0-0.3,0.2-0.3c0.2-0.1,0.3-0.4,0.3-0.7S70,38.8,70,38.4c0.1-0.5-0.2-0.5-0.2-1
		c0-0.3-0.7-1.5-1.9-1.6c-0.3,0-1.2,0.2-1.7,0.7s-0.6,1.3-0.6,1.9c0,0,0,0,0,0.1c-0.6-0.2-0.9-0.4-1.2-0.4c-0.1,0-0.3,0.1-0.5,0.2
		c0-1.3-0.3-2.7-0.9-3.9c-0.6-1.2-0.6-2.6-0.7-4.5v-0.2c-0.1-1.9-0.3-2.9-1.6-3.7c-1.8-1.1-4.2-1.6-7.3-1.6l0,0l0,0
		c-3,0-5.4,0.5-7.3,1.6c-1.4,0.8-1.5,1.7-1.6,3.7v0.2c-0.1,1.9-0.1,3.3-0.7,4.5c-1.3,2.9-1.1,6.4,0.6,9.1C45.6,45.7,48.2,48,53.4,48
		 M64.6,39.6c0.2-0.2,0.3-0.3,0.5-0.3s0.4,0.7,0.8,0.8s0.7,0.3,1,0.5c0,0.1,0,0.1,0,0.1c-0.7,0.8-0.9,0.9-1.2,1.2
		c-0.4,0.4-0.4,0.7-0.7,0.8c-0.2,0-1.1,0.1-1.9,0.3c-0.1,0-0.2,0.1-0.3,0.1c0.6-1,0.9-2.2,1-3.4c0.1,0,0.2,0,0.3,0
		C64.4,39.8,64.5,39.7,64.6,39.6 M45.1,30.1v-0.2c0.1-1.8,0.2-2.5,1.4-3.2c1.8-1,4-1.5,7-1.5c2.9,0,5.2,0.5,7,1.5
		c1.1,0.7,1.3,1.4,1.4,3.2v0.2c0,0.2,0,0.4,0,0.6c-1.8-0.2-2.7-0.8-3.7-1.4c-1.1-0.7-2.3-1.5-4.7-1.5l0,0l0,0l0,0l0,0
		c-2.4,0-3.5,0.7-4.7,1.5c-1,0.6-1.9,1.2-3.7,1.4C45.1,30.5,45.1,30.3,45.1,30.1 M44.3,34.8c0.2-0.5,0.4-0.9,0.5-1.5
		c0.5,0.1,0.7,0.3,0.9,0.4l0.2,0.2H46c0.3-0.1,0.7-0.2,1-0.2c0,0,0,0,0.1,0l0,0c3.2-0.6,4.6,0.5,5.1,0.9l0.8,0.6l-0.3-0.9
		c-0.8-2.1-2.6-3.3-4.6-3.3c-1.6,0-2.2,0.8-2.2,1.5c0,0.3,0.1,0.6,0.4,0.8c-0.1,0-0.1,0-0.2,0.1c-0.2-0.2-0.5-0.4-1.2-0.5
		c0.1-0.5,0.1-1,0.2-1.6c1.9-0.2,3-0.9,4-1.5c1.1-0.7,2.2-1.4,4.4-1.4s3.3,0.7,4.4,1.4c1,0.6,2.1,1.3,4,1.5c0,0.6,0.1,1.1,0.2,1.6
		c-0.6,0.1-0.9,0.3-1.2,0.5c-0.1,0-0.1,0-0.2-0.1c0.2-0.2,0.4-0.5,0.4-0.8c0-0.7-0.6-1.5-2.2-1.5c-2.1,0-3.8,1.3-4.6,3.3L54,35.2
		l0.8-0.6c0.5-0.4,1.9-1.5,5.1-0.9l0,0c0,0,0,0,0.1,0c0.3,0.1,0.6,0.1,1,0.2h0.1l0.2-0.2c0.2-0.2,0.4-0.3,0.9-0.4
		c0.1,0.5,0.3,1,0.5,1.5c0.6,1.2,0.8,2.6,0.8,4c-0.2,0.1-0.2,0.3-0.5,0.4c-0.1,0-0.3,0.1-0.4,0.1c0-0.1,0-0.3,0-0.4
		c0-1.7-1-3.2-2.5-3.9c-1.3-0.5-2.7-0.3-3.7,0.7L56,36l0.5,0.1c0.5,0.1,1.1,0.4,1.1,1.1c0,0.3-0.1,0.5-0.3,0.7
		c-0.3,0.2-0.7,0.3-1,0.2c-0.9-0.3-1.3,0.1-1.6,0.4c-0.3,0.2-0.5,0.5-1.1,0.5s-0.8-0.2-1.1-0.5s-0.7-0.6-1.6-0.4
		c-0.4,0.1-0.8,0-1-0.2s-0.3-0.4-0.3-0.7c0-0.7,0.6-0.9,1.1-1.1L51,36l-0.3-0.3c-1-1-2.4-1.2-3.7-0.7c-1.5,0.6-2.5,2.2-2.5,3.9
		c0,3.8,4.7,5.4,6.2,6c0.1,0,0.2,0.1,0.2,0.1c0,0.1,0.1,0.1,0.2,0.2c0.5,0.6,1.3,0.9,2.4,0.9l0,0l0,0c1.1,0,1.9-0.3,2.4-0.9
		C56,45,56,45,56,44.9c0.1,0,0.1,0,0.2-0.1c1.4-0.5,5.6-1.9,6.2-5.2h0.1c0.5,0,0.6,0,0.8,0.1c-0.1,1.3-0.6,2.7-1.3,3.8
		c0,0,0,0.1-0.1,0.1s-0.2,0.1-0.3,0.1c-0.5,0.2-0.8,0.3-1,0.4c-0.2,0.1-0.2,0.3-0.6,0.7c-0.7,0.7-1.2,1.3-1.7,1.8
		c-1.3,0.6-2.9,1-5,1c-5,0-7.4-2.2-8.6-4.1C43.3,41,43.1,37.5,44.3,34.8 M46.4,32.5c0-0.6,0.6-1,1.6-1c1.5,0,2.9,0.8,3.7,2.1
		c-0.6-0.3-1.5-0.7-2.9-0.7c-0.5,0-1.1,0.1-1.8,0.2C46.6,33,46.4,32.7,46.4,32.5 M60.5,32.5c0,0.2-0.2,0.5-0.6,0.7
		C59.2,33,58.6,33,58.1,33c-1.4,0-2.3,0.3-2.9,0.7c0.8-1.3,2.2-2.1,3.7-2.1C59.8,31.5,60.5,31.9,60.5,32.5 M56.3,42
		c-0.1-0.3,0-0.4,0.1-0.4c0.3-0.3,1.2-0.2,1.8-0.2c0.1,0,0.3,0,0.4,0c0.4,0,0.8-0.1,1-0.4c0.2-0.2,0.2-0.5,0-0.8s-0.6-0.5-1-0.5
		c-2.5,0-4.2,1.3-5.1,2.2c-0.8-0.8-2.6-2.2-5.1-2.2c-0.5,0-0.9,0.2-1,0.5s-0.1,0.5,0,0.8c0.2,0.3,0.5,0.4,1,0.4c0.1,0,0.3,0,0.4,0
		c0.6-0.1,1.5-0.1,1.8,0.2c0,0,0.1,0.1,0.1,0.4c-0.1,0.5-0.2,1.4,0,2.2c-1.7-0.6-5.6-2.1-5.6-5.3c0-1.5,0.9-2.8,2.2-3.4
		c1-0.4,1.9-0.3,2.7,0.3c-0.7,0.3-1,0.8-1,1.4c0,0.5,0.2,0.9,0.6,1.1c0.4,0.3,1,0.4,1.5,0.2c0.6-0.2,0.8,0,1.1,0.3s0.7,0.6,1.4,0.6
		l0,0l0,0l0,0l0,0c0.7,0,1.1-0.3,1.4-0.6c0.3-0.3,0.5-0.4,1.1-0.3c0.5,0.2,1.1,0.1,1.5-0.2s0.6-0.7,0.6-1.1c0-0.6-0.4-1.1-1-1.4
		c0.8-0.6,1.8-0.7,2.7-0.3c1.3,0.5,2.2,1.9,2.2,3.4c0,3.2-4,4.8-5.6,5.3C56.6,43.4,56.5,42.6,56.3,42 M55.8,42.2
		c0.1,0.6,0.3,1.8-0.3,2.6c-0.4,0.5-1.1,0.7-2,0.7s-1.6-0.3-2-0.7c-0.6-0.8-0.5-2-0.3-2.6c0.1-0.4,0-0.7-0.2-0.9
		c-0.4-0.5-1.4-0.4-2.2-0.3c-0.1,0-0.3,0-0.4,0c-0.2,0-0.4,0-0.5-0.2c0-0.1,0-0.1,0-0.2c0.1-0.1,0.3-0.2,0.6-0.2
		c2.8,0,4.6,1.9,5.1,2.4l0,0l0,0c0.5-0.6,2.3-2.4,5.1-2.4c0.3,0,0.5,0.1,0.6,0.2c0,0.1,0,0.2,0,0.2C59,40.9,58.8,41,58.6,41
		c-0.1,0-0.2,0-0.4,0c-0.8-0.1-1.8-0.2-2.2,0.3C55.8,41.5,55.7,41.8,55.8,42.2"/>
	<path class="st0" d="M100.6,40.3c-0.2-0.3-0.6-0.3-0.8-0.2L98.4,41c-0.3,0.2-0.3,0.6-0.2,0.8l1.4,2.1c0.1,0.2,0.3,0.3,0.5,0.3
		c0.1,0,0.2,0,0.3-0.1l1.3-0.9c0.1-0.1,0.2-0.2,0.2-0.4s0-0.3-0.1-0.4L100.6,40.3z M101.5,42.8l-1.3,0.9c0,0,0,0-0.1,0H100l-1.4-2.1
		v-0.1l1.3-0.9c0,0,0,0,0.1,0h0.1L101.5,42.8C101.6,42.7,101.6,42.7,101.5,42.8C101.6,42.7,101.6,42.7,101.5,42.8"/>
	<path class="st0" d="M103.3,42.1c0.1,0,0.2,0,0.3-0.1l1.3-0.9c0.3-0.2,0.3-0.6,0.2-0.8l-1.4-2.1c-0.2-0.3-0.6-0.3-0.8-0.2l-1.3,0.9
		c-0.3,0.2-0.3,0.6-0.2,0.8l1.4,2.1C102.9,42,103.1,42.1,103.3,42.1 M101.8,39.3l1.3-0.9c0,0,0,0,0.1,0h0.1l1.4,2.1v0.1l-1.3,0.9
		c0,0,0,0-0.1,0h-0.1L101.8,39.3C101.7,39.4,101.7,39.3,101.8,39.3"/>
	<path class="st0" d="M105.8,39.7c0.1,0.2,0.3,0.3,0.5,0.3c0.1,0,0.2,0,0.3-0.1L108,39c0.3-0.2,0.3-0.6,0.2-0.8l-1.4-2.1
		c-0.2-0.3-0.6-0.3-0.8-0.2l-1.3,0.9c-0.1,0.1-0.2,0.2-0.2,0.4s0,0.3,0.1,0.4L105.8,39.7z M104.9,37.2l1.3-0.9c0,0,0,0,0.1,0
		c0,0,0,0,0.1,0l1.4,2.1v0.1l-1.3,0.9h-0.1L104.9,37.2C104.8,37.3,104.8,37.3,104.9,37.2C104.8,37.3,104.8,37.2,104.9,37.2"/>
	<path class="st0" d="M108.9,37.6c0.1,0.2,0.3,0.3,0.5,0.3c0.1,0,0.2,0,0.3-0.1l1.3-0.9c0.1-0.1,0.2-0.2,0.2-0.4s0-0.3-0.1-0.4
		l-1.4-2.1c-0.2-0.3-0.6-0.3-0.8-0.2l-1.3,0.9c-0.1,0.1-0.2,0.2-0.2,0.4s0,0.3,0.1,0.4L108.9,37.6z M107.9,35.1l1.3-0.9
		c0,0,0,0,0.1,0h0.1l1.4,2.1v0.1c0,0,0,0,0,0.1l-1.3,0.9c0,0,0,0-0.1,0h-0.1l-1.4-2.1C107.9,35.2,107.9,35.2,107.9,35.1
		C107.9,35.2,107.9,35.1,107.9,35.1"/>
	<path class="st0" d="M101.3,58.4c0.1,0.2,0.3,0.3,0.5,0.3c0.1,0,0.2,0,0.3-0.1l1.3-0.9c0.1-0.1,0.2-0.2,0.3-0.4
		c0-0.2,0-0.3-0.1-0.4l-1.4-2.1c-0.2-0.3-0.6-0.3-0.8-0.2l-1.3,0.9c-0.3,0.2-0.3,0.6-0.2,0.8L101.3,58.4z M100.3,55.9l1.3-0.9
		c0,0,0,0,0.1,0h0.1l1.4,2.1v0.1c0,0,0,0,0,0.1l-1.3,0.9c0,0,0,0-0.1,0h-0.1l-1.4-2.1C100.2,56,100.2,55.9,100.3,55.9"/>
	<path class="st0" d="M105.2,52.6c-0.2-0.3-0.6-0.3-0.8-0.2l-1.3,0.9c-0.3,0.2-0.3,0.6-0.2,0.8l1.4,2.1c0.1,0.2,0.3,0.3,0.5,0.3
		c0.1,0,0.2,0,0.3-0.1l1.3-0.9c0.1-0.1,0.2-0.2,0.2-0.4s0-0.3-0.1-0.4L105.2,52.6z M106.2,55.1l-1.3,0.9c0,0,0,0-0.1,0h-0.1
		l-1.4-2.1v-0.1l1.3-0.9c0,0,0,0,0.1,0h0.1L106.2,55.1C106.3,55,106.3,55,106.2,55.1L106.2,55.1"/>
	<path class="st0" d="M108.3,50.5c-0.2-0.3-0.6-0.3-0.8-0.2l-1.3,0.9c-0.3,0.2-0.3,0.6-0.2,0.8l1.4,2.1c0.1,0.2,0.3,0.3,0.5,0.3
		c0.1,0,0.2,0,0.3-0.1l1.3-0.9c0.3-0.2,0.3-0.6,0.2-0.8L108.3,50.5z M109.3,53l-1.3,0.9c0,0,0,0-0.1,0h-0.1l-1.4-2.1v-0.1l1.3-0.9
		c0,0,0,0,0.1,0h0.1L109.3,53L109.3,53"/>
	<path class="st0" d="M110.6,48.2l-1.3,0.9c-0.1,0.1-0.2,0.2-0.2,0.4s0,0.3,0.1,0.4l1.4,2.1c0.1,0.2,0.3,0.3,0.5,0.3
		c0.1,0,0.2,0,0.3-0.1l1.3-0.9c0.3-0.2,0.3-0.6,0.2-0.8l-1.4-2.1C111.2,48.1,110.8,48.1,110.6,48.2 M110.9,48.6L110.9,48.6l1.5,2.1
		v0.1l-1.3,0.9H111l-1.4-2.1v-0.1c0,0,0,0,0-0.1L110.9,48.6L110.9,48.6"/>
	<path class="st0" d="M113.6,49.9c0.1,0.2,0.3,0.3,0.5,0.3c0.1,0,0.2,0,0.3-0.1l1.3-0.9c0.1-0.1,0.2-0.2,0.2-0.4s0-0.3-0.1-0.4
		l-1.4-2.1c-0.2-0.3-0.6-0.3-0.8-0.2l-1.3,0.9c-0.1,0.1-0.2,0.2-0.2,0.4s0,0.3,0.1,0.4L113.6,49.9z M112.6,47.5L112.6,47.5l1.4-1
		c0,0,0,0,0.1,0h0.1l1.4,2.1v0.1c0,0,0,0,0,0.1l-1.3,0.9c0,0,0,0-0.1,0h-0.1L112.6,47.5L112.6,47.5"/>
	<path class="st0" d="M127.2,28.4l-8.7-2.1l4.7,4.6L127.2,28.4z M125.9,28.6l-2.6,1.6l-3-3L125.9,28.6z"/>
	<path class="st0" d="M145.7,38.8c1.5,0,2.8-1.3,2.8-2.8s-1.2-2.8-2.8-2.8c-1.5,0-2.8,1.3-2.8,2.8S144.2,38.8,145.7,38.8
		 M145.7,33.8c1.2,0,2.2,1,2.2,2.2s-1,2.2-2.2,2.2s-2.2-1-2.2-2.2S144.5,33.8,145.7,33.8"/>
	<path class="st0" d="M138.8,38.3c1.1,0,2-0.9,2-2s-0.9-2-2-2s-2,0.9-2,2C136.8,37.5,137.7,38.3,138.8,38.3 M138.8,34.9
		c0.8,0,1.4,0.6,1.4,1.4c0,0.8-0.6,1.4-1.4,1.4c-0.8,0-1.4-0.7-1.4-1.4C137.3,35.6,138,34.9,138.8,34.9"/>
	<path class="st0" d="M139.2,39.1c-1.1,0-2,0.9-2,2s0.9,2,2,2s2-0.9,2-2C141.1,40,140.3,39.1,139.2,39.1 M139.2,42.5
		c-0.8,0-1.4-0.6-1.4-1.4c0-0.8,0.7-1.4,1.4-1.4c0.8,0,1.4,0.6,1.4,1.4C140.6,41.9,140,42.5,139.2,42.5"/>
	<path class="st0" d="M142.9,46.2c1.1,0,2-0.9,2-2s-0.9-2-2-2s-2,0.9-2,2S141.8,46.2,142.9,46.2 M142.9,42.8c0.8,0,1.4,0.6,1.4,1.4
		c0,0.8-0.7,1.4-1.4,1.4c-0.8,0-1.4-0.6-1.4-1.4C141.5,43.4,142.1,42.8,142.9,42.8"/>
	<path class="st0" d="M145.9,43.8c0,1.1,0.9,2,2,2s2-0.9,2-2s-0.9-2-2-2C146.7,41.8,145.9,42.7,145.9,43.8 M149.3,43.8
		c0,0.8-0.7,1.4-1.4,1.4c-0.8,0-1.4-0.6-1.4-1.4c0-0.8,0.7-1.4,1.4-1.4C148.6,42.3,149.3,43,149.3,43.8"/>
	<path class="st0" d="M151.9,42.9c1.1,0,2-0.9,2-2s-0.9-2-2-2s-2,0.9-2,2C150,42.1,150.8,42.9,151.9,42.9 M151.9,39.5
		c0.8,0,1.4,0.7,1.4,1.4c0,0.8-0.6,1.4-1.4,1.4c-0.8,0-1.4-0.6-1.4-1.4C150.5,40.2,151.1,39.5,151.9,39.5"/>
	<path class="st0" d="M154.2,34.8c-1.1,0-2,0.9-2,2s0.9,2,2,2s2-0.9,2-2C156.1,35.7,155.3,34.8,154.2,34.8 M154.2,38.2
		c-0.8,0-1.4-0.6-1.4-1.4c0-0.8,0.6-1.4,1.4-1.4c0.8,0,1.4,0.6,1.4,1.4C155.6,37.6,155,38.2,154.2,38.2"/>
	<path class="st0" d="M154,34c1.1,0,2-0.9,2-2c0-1.1-0.9-2-2-2s-2,0.9-2,2C152.1,33.1,153,34,154,34 M154,30.6
		c0.8,0,1.4,0.6,1.4,1.4s-0.7,1.4-1.4,1.4c-0.8,0-1.4-0.6-1.4-1.4C152.6,31.3,153.2,30.6,154,30.6"/>
</g>
</svg>
