<?xml version="1.0" encoding="utf-8"?>
<!-- Generator: Adobe Illustrator 24.2.3, SVG Export Plug-In . SVG Version: 6.00 Build 0)  -->
<svg version="1.1" id="Layer_1" xmlns="http://www.w3.org/2000/svg" xmlns:xlink="http://www.w3.org/1999/xlink" x="0px" y="0px"
	 viewBox="0 0 160 90" style="enable-background:new 0 0 160 90;" xml:space="preserve">
<style type="text/css">
	.st0{fill:#FFFFFF;}
</style>
<g>
	<path class="st0" d="M0,31.6h4.1v11c0,1.7,0,2.9,0.1,3.4c0.2,0.8,0.6,1.5,1.2,2c0.7,0.5,1.6,0.7,2.7,0.7c1.2,0,2-0.2,2.6-0.7
		c0.6-0.5,0.9-1.1,1.1-1.7c0.1-0.7,0.2-1.8,0.2-3.4V31.6h4.1v10.6c0,2.4-0.1,4.1-0.3,5.1s-0.6,1.8-1.2,2.5c-0.6,0.7-1.4,1.2-2.4,1.6
		c-1,0.4-2.3,0.6-3.9,0.6c-1.9,0-3.4-0.2-4.4-0.7c-1-0.4-1.8-1-2.4-1.7s-1-1.5-1.1-2.2c-0.3-1-0.4-2.7-0.4-5V31.6z"/>
	<path class="st0" d="M18,45.3l4-0.4c0.2,1.3,0.7,2.3,1.5,2.9c0.7,0.6,1.7,0.9,3,0.9s2.3-0.3,3-0.8c0.7-0.6,1-1.2,1-2
		c0-0.5-0.1-0.9-0.4-1.2s-0.8-0.6-1.5-0.9c-0.5-0.2-1.6-0.5-3.3-0.9c-2.2-0.5-3.7-1.2-4.6-2c-1.2-1.1-1.9-2.5-1.9-4.1
		c0-1,0.3-2,0.9-2.9s1.4-1.6,2.5-2.1c1.1-0.5,2.4-0.7,4-0.7c2.5,0,4.4,0.6,5.7,1.7c1.3,1.1,2,2.6,2,4.5l-4.1,0.2
		c-0.2-1-0.5-1.8-1.1-2.2c-0.6-0.5-1.4-0.7-2.6-0.7s-2.1,0.2-2.8,0.7c-0.4,0.3-0.6,0.7-0.6,1.3c0,0.5,0.2,0.9,0.6,1.2
		c0.5,0.4,1.8,0.9,3.8,1.4s3.5,1,4.4,1.5c0.9,0.5,1.7,1.2,2.2,2.1c0.5,0.9,0.8,1.9,0.8,3.2c0,1.2-0.3,2.2-1,3.3
		c-0.6,1-1.6,1.8-2.7,2.3c-1.2,0.5-2.6,0.7-4.4,0.7c-2.6,0-4.5-0.6-5.9-1.8C19.1,49.3,18.2,47.5,18,45.3"/>
	<path class="st0" d="M35.4,45.3l4-0.4c0.2,1.3,0.7,2.3,1.5,2.9c0.7,0.6,1.7,0.9,3,0.9s2.3-0.3,3-0.8c0.7-0.6,1-1.2,1-2
		c0-0.5-0.1-0.9-0.4-1.2c-0.3-0.3-0.8-0.6-1.5-0.9c-0.5-0.2-1.6-0.5-3.3-0.9c-2.2-0.5-3.7-1.2-4.6-2c-1.2-1.1-1.9-2.5-1.9-4.1
		c0-1,0.3-2,0.9-2.9c0.6-0.9,1.4-1.6,2.5-2.1c1.1-0.5,2.4-0.7,4-0.7c2.5,0,4.4,0.6,5.7,1.7s2,2.6,2,4.5l-4.1,0.2
		c-0.2-1-0.5-1.8-1.1-2.2c-0.6-0.5-1.4-0.7-2.6-0.7c-1.2,0-2.1,0.2-2.8,0.7c-0.4,0.3-0.6,0.7-0.6,1.3c0,0.5,0.2,0.9,0.6,1.2
		c0.5,0.4,1.8,0.9,3.8,1.4s3.5,1,4.4,1.5c1,0.5,1.7,1.2,2.2,2.1c0.5,0.9,0.8,1.9,0.8,3.2c0,1.2-0.3,2.2-1,3.3
		c-0.6,1-1.6,1.8-2.7,2.3c-1.2,0.5-2.6,0.7-4.4,0.7c-2.6,0-4.5-0.6-5.9-1.8C36.5,49.3,35.7,47.5,35.4,45.3"/>
	<path class="st0" d="M59.3,45.3l4-0.4c0.2,1.3,0.7,2.3,1.5,2.9c0.7,0.6,1.7,0.9,3,0.9s2.3-0.3,3-0.8c0.7-0.6,1-1.2,1-2
		c0-0.5-0.1-0.9-0.4-1.2s-0.8-0.6-1.5-0.9c-0.5-0.2-1.6-0.5-3.3-0.9c-2.2-0.5-3.7-1.2-4.6-2c-1.2-1.1-1.9-2.5-1.9-4.1
		c0-1,0.3-2,0.9-2.9c0.6-0.9,1.4-1.6,2.5-2.1c1.1-0.5,2.4-0.7,4-0.7c2.5,0,4.5,0.6,5.7,1.7c1.3,1.1,2,2.6,2,4.5l-4.1,0.2
		c-0.2-1-0.5-1.8-1.1-2.2c-0.6-0.5-1.4-0.7-2.6-0.7s-2.1,0.2-2.8,0.7C64.2,35.6,64,36,64,36.6c0,0.5,0.2,0.9,0.6,1.2
		c0.5,0.4,1.8,0.9,3.8,1.4s3.5,1,4.4,1.5c1,0.5,1.7,1.2,2.2,2.1c0.5,0.9,0.8,1.9,0.8,3.2c0,1.2-0.3,2.2-1,3.3
		c-0.6,1-1.6,1.8-2.7,2.3c-1.2,0.5-2.6,0.7-4.4,0.7c-2.6,0-4.5-0.6-5.9-1.8C60.4,49.3,59.5,47.5,59.3,45.3"/>
	<path class="st0" d="M86.2,47.2L86.2,47.2l3.9,0.7c-0.5,1.4-1.3,2.5-2.3,3.2c-1.1,0.7-2.4,1.1-4,1.1c-2.5,0-4.4-0.8-5.7-2.5
		c-1-1.3-1.4-3-1.4-5c0-2.4,0.6-4.3,1.9-5.7s2.9-2.1,4.8-2.1c2.2,0,3.9,0.7,5.2,2.2c1.3,1.4,1.9,3.6,1.8,6.6h-9.7
		c0,1.1,0.3,2,0.9,2.7c0.6,0.6,1.3,1,2.2,1c0.6,0,1.1-0.2,1.5-0.5C85.7,48.4,86,47.9,86.2,47.2 M86.4,43.3c0-1.1-0.3-2-0.9-2.6
		s-1.2-0.9-2-0.9s-1.5,0.3-2.1,0.9c-0.6,0.6-0.8,1.5-0.8,2.5L86.4,43.3L86.4,43.3z"/>
	<path class="st0" d="M104.8,41.5l-3.8,0.7c-0.1-0.8-0.4-1.3-0.9-1.7s-1-0.6-1.8-0.6c-1,0-1.7,0.3-2.3,1c-0.6,0.7-0.9,1.8-0.9,3.3
		c0,1.7,0.3,3,0.9,3.7s1.4,1.1,2.4,1.1c0.7,0,1.3-0.2,1.8-0.6c0.5-0.4,0.8-1.1,1-2.2l3.8,0.6c-0.4,1.7-1.2,3.1-2.3,4
		c-1.1,0.9-2.6,1.3-4.5,1.3c-2.1,0-3.9-0.7-5.1-2c-1.3-1.4-1.9-3.2-1.9-5.6c0-2.4,0.6-4.3,1.9-5.6s3-2,5.2-2c1.8,0,3.2,0.4,4.3,1.1
		C103.6,38.8,104.3,40,104.8,41.5"/>
	<path class="st0" d="M116,51.8v-2.2c-0.5,0.8-1.2,1.4-2.1,1.8c-0.9,0.4-1.8,0.7-2.7,0.7c-1,0-1.9-0.2-2.7-0.6
		c-0.8-0.4-1.3-1-1.7-1.8c-0.3-0.8-0.5-1.9-0.5-3.2v-9.3h3.9v6.7c0,2.1,0.1,3.3,0.2,3.8s0.4,0.8,0.8,1.1s0.9,0.4,1.4,0.4
		c0.7,0,1.3-0.2,1.8-0.5c0.5-0.4,0.9-0.8,1.1-1.3s0.3-1.9,0.3-4v-6.2h3.9v14.6C119.7,51.8,116,51.8,116,51.8z"/>
	<path class="st0" d="M125.9,51.8H122V37.2h3.6v2.1c0.6-1,1.2-1.6,1.7-1.9c0.5-0.3,1-0.5,1.7-0.5c0.9,0,1.7,0.2,2.6,0.7l-1.2,3.4
		c-0.7-0.4-1.3-0.6-1.8-0.6s-1,0.1-1.4,0.5c-0.4,0.3-0.7,0.8-0.9,1.6c-0.2,0.8-0.3,2.4-0.3,4.9L125.9,51.8L125.9,51.8z"/>
	<path class="st0" d="M131.7,31.6L131.7,31.6h3.9v3.6h-3.9V31.6z M131.7,37.2h3.9v14.7h-3.9V37.2z"/>
	<path class="st0" d="M144.9,37.2v3.1h-2.6v5.9c0,1.2,0,1.9,0.1,2.1c0,0.2,0.2,0.4,0.3,0.5c0.2,0.1,0.4,0.2,0.7,0.2
		c0.4,0,0.9-0.1,1.6-0.4l0.3,3c-0.9,0.4-1.9,0.6-3.1,0.6c-0.7,0-1.3-0.1-1.9-0.4c-0.6-0.2-1-0.5-1.2-0.9c-0.3-0.4-0.4-0.9-0.5-1.5
		c-0.1-0.4-0.1-1.4-0.1-2.7v-6.4h-1.8v-3.1h1.8v-2.9l3.9-2.3v5.2C142.4,37.2,144.9,37.2,144.9,37.2z"/>
	<path class="st0" d="M144.9,37.2h4.1l3.5,10.9l3.4-10.9h4l-5.2,14.7l-0.9,2.7c-0.3,0.9-0.7,1.6-1,2.1s-0.7,0.9-1.1,1.1
		c-0.4,0.3-0.9,0.5-1.5,0.7s-1.2,0.2-2,0.2c-0.7,0-1.5-0.1-2.2-0.2l-0.3-3.2c0.6,0.1,1.2,0.2,1.6,0.2c0.9,0,1.6-0.3,2-0.8
		c0.4-0.6,0.8-1.3,1-2.1L144.9,37.2z"/>
</g>
</svg>
