<?xml version="1.0" encoding="utf-8"?>
<!-- Generator: Adobe Illustrator 24.2.3, SVG Export Plug-In . SVG Version: 6.00 Build 0)  -->
<svg version="1.1" id="Layer_1" xmlns="http://www.w3.org/2000/svg" xmlns:xlink="http://www.w3.org/1999/xlink" x="0px" y="0px"
	 viewBox="0 0 150 100" style="enable-background:new 0 0 150 100;" xml:space="preserve">
<style type="text/css">
	.st0{clip-path:url(#SVGID_2_);}
	.st1{clip-path:url(#SVGID_2_);fill:#010101;}
	.st2{fill-rule:evenodd;clip-rule:evenodd;}
	.st3{fill:#231F20;}
</style>
<g>
	<path class="st3" d="M76.1,61.5c0,8-5.7,13.7-13.5,13.7c-7.8,0-13.5-5.7-13.5-13.6c0-7.8,5.7-13.5,13.6-13.4
		C70.4,48.1,76.1,53.8,76.1,61.5 M62.9,54c-2.4,0-4,0.8-5.3,2.4c-2.1,2.7-2.1,7.3,0,10.2c2.8,3.7,8.4,3.3,10.5-0.8
		c1.4-2.7,1.5-5.5,0.1-8.2C67.1,55.3,65.2,54.1,62.9,54"/>
	<path class="st3" d="M113.3,72h-12.6c-0.3-1.8-0.6-3.6-0.8-5.4c0-0.2,0.2-0.5,0.4-0.7c4.8-5.7,9.7-11.4,14.5-17
		c0.2-0.2,0.5-0.5,0.8-0.5c1.6,0,3.2,0,4.9,0v17.8h4.6c-0.1,1.8-0.3,3.6-0.5,5.3c0,0.2-0.4,0.4-0.7,0.4c-1.1,0-2.3,0-3.5,0v5.4h-7.1
		V72z M113.2,59.6c-1.8,2.2-3.5,4.3-5.3,6.6h5.3V59.6z"/>
	<path class="st3" d="M28.5,56.2c-0.3-1.8-0.7-3.6-1-5.4c0-0.2,0.2-0.5,0.4-0.6c4.2-2.2,8.6-2.9,13.2-1.3c5.1,1.7,7,7.7,3.7,12.3
		c-1.5,2.1-3.6,3.8-5.5,5.7c-0.7,0.7-1.5,1.2-2.4,2h9.7c0.2,1.9,0.4,3.7,0.6,5.5H26.9c0-1.4,0-2.8,0-4.2c0-0.2,0.2-0.4,0.4-0.6
		c3.1-2.7,6.1-5.3,9.2-8c1-0.9,1.9-1.8,2.7-2.8c1.7-2.2,0.7-4.5-2.1-4.9c-1.8-0.3-3.5,0-5.1,0.6C30.9,55.1,29.7,55.6,28.5,56.2"/>
	<path class="st3" d="M79.8,56.2c-0.3-1.5-0.5-3-0.9-4.5c-0.3-1,0.1-1.5,1-1.9c3.6-1.7,7.3-2.2,11.1-1.3c6.1,1.3,8.6,7.7,4.9,12.8
		c-1.5,2-3.4,3.6-5.2,5.4c-0.8,0.7-1.6,1.4-2.6,2.2c0.5,0,0.8,0,1.1,0c2.6,0,5.2,0,7.9,0c0.6,0,0.9,0.2,0.9,0.8
		c0.1,1.5,0.3,3.1,0.4,4.7H78.2c0-1.4,0-2.7,0-4c0-0.3,0.4-0.7,0.7-0.9c3.1-2.7,6.2-5.4,9.3-8.1c0.8-0.7,1.7-1.6,2.4-2.4
		c1.8-2.2,0.8-4.5-2.1-4.9c-2.1-0.3-4.2,0.2-6.1,1C81.6,55.4,80.7,55.8,79.8,56.2"/>
	<path class="st3" d="M72,36.4v7.3h-4.7V22.6c2.5,0,5,0,7.4,0c1.1,0,2.3,0.1,3.4,0.4c5,1.2,7.1,6.6,4,10.5c-0.5,0.6-1.1,1.1-1.8,1.7
		c0.8,1.4,1.6,2.8,2.4,4.2c0.8,1.4,1.6,2.8,2.5,4.4c-1.8,0-3.5,0-5.1,0c-0.2,0-0.4-0.3-0.6-0.5c-1.1-2-2.2-4.1-3.3-6.2
		c-0.2-0.5-0.5-0.7-1.1-0.6C74.1,36.4,73.1,36.4,72,36.4 M72.1,26.6v6c1.4-0.1,2.8-0.1,4.1-0.3c1.5-0.2,2.3-1.4,2.3-2.9
		c0-1.5-0.8-2.6-2.3-2.8C74.8,26.5,73.5,26.6,72.1,26.6"/>
	<path class="st3" d="M106.6,22.6h4.7v1c0,3.8,0,7.6,0,11.5c0,0.4,0,0.9,0.1,1.3c0.3,3.5,3.5,4.3,5.8,3.5c1.5-0.5,2.4-1.7,2.4-3.3
		c0.1-3.8,0.1-7.6,0.1-11.4c0-0.8,0-1.6,0-2.5h4.8c0,0.3,0,0.6,0,0.8c0,4-0.1,8,0,12.1c0.1,5.8-4.2,8.4-8.3,8.6
		c-2.9,0.1-5.5-0.4-7.6-2.5c-1.2-1.2-2-2.7-2.1-4.4C106.6,32.4,106.6,27.5,106.6,22.6"/>
	<path class="st3" d="M64.3,43.5c-1.6,0.2-3.1,0.4-4.7,0.5c-0.5-1.3-1-2.5-1.3-3.8c-0.2-0.9-0.6-1.1-1.5-1.1c-1.9,0.1-3.8,0-5.8,0
		c-0.6,0-0.8,0.1-1,0.7c-0.4,1.1-0.8,2.3-1.2,3.4c-0.1,0.2-0.4,0.5-0.6,0.5c-1.4,0-2.8,0-4.3,0c0.1-0.3,0.2-0.6,0.3-0.9
		c2.5-6.5,5-13,7.4-19.5c0.2-0.5,0.4-0.8,1-0.8c1.1,0.1,2.2,0,3.2,0c0.3,0,0.7,0.2,0.8,0.5c2.6,6.7,5.1,13.4,7.7,20.1
		C64.2,43.3,64.2,43.3,64.3,43.5 M53.9,28.8c-0.8,2.3-1.6,4.4-2.3,6.5h4.8C55.6,33.1,54.8,31.1,53.9,28.8"/>
	<path class="st3" d="M97,43.7h-4.9V26.4h-6.3v-3.8c0.3,0,0.5-0.1,0.8-0.1c5.3,0,10.6,0,15.9,0c0.7,0,0.9,0.1,1,0.8
		c0.1,1,0.3,2,0.4,3H97V43.7z"/>
	<path class="st3" d="M42.5,22.6c0.2,1.2,0.4,2.5,0.6,3.8h-6.9v17.3h-4.9V26.4H25v-3.8H42.5z"/>
</g>
</svg>
