<?xml version="1.0" encoding="utf-8"?>
<!-- Generator: Adobe Illustrator 24.2.3, SVG Export Plug-In . SVG Version: 6.00 Build 0)  -->
<svg version="1.1" id="Layer_1" xmlns="http://www.w3.org/2000/svg" xmlns:xlink="http://www.w3.org/1999/xlink" x="0px" y="0px"
	 viewBox="0 0 160 90" style="enable-background:new 0 0 160 90;" xml:space="preserve">
<style type="text/css">
	.st0{fill:#FFFFFF;}
</style>
<g>
	<g>
		<path class="st0" d="M12.6,35.4c-3.4,0-6.3,2.5-6.3,6.3c0,3.9,2.9,6.4,6.3,6.4c3.1,0,6.3-2.4,6.3-6.4
			C18.9,37.7,15.9,35.4,12.6,35.4 M12,59.4c5.9,0,7.4-4.4,7.1-9.3c-1.2,2.3-4.4,3.7-7.4,3.7C5.6,53.9,0,49.1,0,41.8
			c0-7.5,5.6-12.2,11.7-12.2c3,0,6.1,1.3,7.4,3.6v-3.1H25V50c0,10.4-4.9,15-13,15c-4.8,0-9.1-2.6-11.1-6.9c1.3-0.6,3.6-1.8,4.9-2.5
			C6.8,57.9,9.6,59.4,12,59.4"/>
		<path class="st0" d="M40.1,48c3.3,0,6.4-2.3,6.4-6.3s-3.2-6.3-6.4-6.3c-3.3,0-6.4,2.5-6.4,6.3C33.7,45.5,36.8,48,40.1,48
			 M46.5,50.4c-1.5,2.4-4.9,3.4-7.2,3.4c-6.1,0-11.8-4.7-11.8-12.1c0-7.5,5.7-12.1,11.8-12.1c2.1,0,5.5,0.8,7.2,3.4v-2.9h6.1v23.3
			h-6.1V50.4z"/>
		<path class="st0" d="M62.8,53.4h-6.1V30.1h6.1v5.5c1.2-4.2,3.9-6,6.6-6c1.6,0,2.9,0.3,3.8,0.8l-1,5.5c-1.4-0.6-2.9-0.6-3.5-0.6
			c-4.1,0-5.8,3.7-5.8,9.9v8.2H62.8z"/>
		<path class="st0" d="M85.3,35.4c-3.4,0-6.1,2.5-6.1,6.3s2.7,6.4,6.1,6.4c3.3,0,6.2-2.5,6.2-6.4C91.5,37.7,88.5,35.4,85.3,35.4
			 M91.6,50.2c-1.3,2.3-4.3,3.6-7.3,3.6c-6.1,0-11.4-4.7-11.4-12.1s5.3-12.1,11.4-12.1c3.1,0,6,1.2,7.3,3.6V17.5h6v35.9h-6V50.2z"/>
		<path class="st0" d="M118.4,39.6c-0.4-3.2-2.8-4.9-5.8-4.9c-3.2,0-5.7,1.8-6.1,4.9H118.4z M124.3,43.8h-17.7c0.4,3.1,3,5,6.4,5
			c2.3,0,4.7-1,5.8-3c1.4,0.8,3.1,1.7,4.6,2.5c-2.1,4-6.6,5.6-10.9,5.6c-6.6,0-12-4.9-12-12.2s5.4-12.1,12-12.1s11.8,4.7,11.8,12.1
			C124.4,42.3,124.3,43.2,124.3,43.8"/>
		<path class="st0" d="M126,36.5c0-3.7,3.9-6.9,8.6-6.9c4.4,0,8.9,2,9.1,7.3h-5.8c-0.1-1.7-1.8-2.4-3.1-2.4c-1.5,0-2.9,0.5-2.9,2.3
			c0,0.9,1.1,1.6,2.4,1.9l3.9,0.9c5.4,1.4,6.1,5.1,6.1,7c0,4.7-4.7,7.2-9.5,7.2c-4.6,0-9.3-2.8-9.4-7.8h5.7c0.1,1.6,2,3,4.3,2.9
			c1.7,0,3-1,3-2.3c0-1.2-0.8-1.8-2.5-2.2l-3.2-0.8C126.6,42,126,39.3,126,36.5"/>
		<path class="st0" d="M160,35v-4.9h-4.9v-5.8h-6v5.8h-4.2V35h4.2v8.8c0,3.2,0.7,5.7,2,7.5s3.6,2.6,6.6,2.6h1.9v-5.6h-1
			c-2.4,0-3.5-1.5-3.5-4.4V35H160z"/>
	</g>
	<g>
		<path class="st0" d="M150.6,69.4c0.1,1,0.9,1.5,1.9,1.5s1.7-0.4,1.7-1.3c0-0.8-0.5-1.1-1.3-1.2l-0.8-0.1c-0.4-0.1-0.6-0.2-0.6-0.6
			s0.3-0.6,0.9-0.6c0.7,0,1.1,0.3,1.2,0.9h0.6c-0.1-1-0.7-1.5-1.8-1.5c-1,0-1.6,0.5-1.6,1.3c0,0.7,0.5,1.1,1.3,1.2l0.7,0.1
			c0.5,0.1,0.8,0.2,0.8,0.6s-0.4,0.6-1,0.6c-0.7,0-1.2-0.3-1.2-1L150.6,69.4z M149,69c0,0.8-0.5,1.3-1.1,1.3c-0.7,0-1-0.4-1-1.1
			v-2.5h-0.8v2.6c0,1,0.4,1.7,1.5,1.7c0.6,0,1.2-0.4,1.4-0.9v0.7h0.8v-4.2H149V69z M142.5,69.3l0.6-0.5l1.7,2h0.9l-2-2.5l1.9-1.7h-1
			l-2.1,1.9v-3.7h-0.8v6h0.8L142.5,69.3L142.5,69.3z M137.3,69.4c0.1,1,0.9,1.5,1.9,1.5s1.7-0.4,1.7-1.3c0-0.8-0.5-1.1-1.3-1.2
			l-0.8-0.1c-0.4-0.1-0.6-0.2-0.6-0.6s0.3-0.6,0.9-0.6c0.7,0,1.1,0.3,1.2,0.9h0.6c-0.1-1-0.7-1.5-1.8-1.5c-1,0-1.6,0.5-1.6,1.3
			c0,0.7,0.5,1.1,1.3,1.2l0.7,0.1c0.5,0.1,0.8,0.2,0.8,0.6s-0.4,0.6-1,0.6c-0.7,0-1.2-0.3-1.2-1L137.3,69.4z M133.4,68.4
			c0.1-0.7,0.5-1.3,1.3-1.3s1.2,0.6,1.2,1.3H133.4z M136,69.3c-0.2,0.6-0.6,1-1.3,1s-1.3-0.6-1.4-1.4h3.3v-0.3c0-1.1-0.7-2.1-2-2.1
			c-1.2,0-2.1,0.9-2.1,2.3c0,1.3,0.9,2.1,2.2,2.1c1,0,1.7-0.6,2-1.5L136,69.3z M129.3,69.3l0.6-0.5l1.7,2h0.9l-2-2.5l1.9-1.7h-1
			l-2.1,1.9v-3.7h-0.8v6h0.8L129.3,69.3L129.3,69.3z M124,69.4c0.1,1,0.9,1.5,1.9,1.5s1.7-0.4,1.7-1.3c0-0.8-0.5-1.1-1.3-1.2
			l-0.8-0.1c-0.4-0.1-0.6-0.2-0.6-0.6s0.3-0.6,0.9-0.6c0.7,0,1.1,0.3,1.2,0.9h0.6c-0.1-1-0.7-1.5-1.8-1.5c-1,0-1.6,0.5-1.6,1.3
			c0,0.7,0.5,1.1,1.3,1.2l0.7,0.1c0.5,0.1,0.8,0.2,0.8,0.6s-0.4,0.6-1,0.6c-0.7,0-1.2-0.3-1.2-1L124,69.4z M122.4,69
			c0,0.8-0.5,1.3-1.1,1.3c-0.7,0-1-0.4-1-1.1v-2.5h-0.8v2.6c0,1,0.4,1.7,1.5,1.7c0.6,0,1.2-0.4,1.4-0.9v0.7h0.8v-4.2h-0.8V69z
			 M117.8,70.8h0.8v-6h-0.8v2.7c-0.2-0.5-0.7-1-1.5-1c-1.2,0-1.9,1-1.9,2.2s0.7,2.2,1.9,2.2c0.8,0,1.3-0.5,1.5-1V70.8z M117.8,68.8
			c0,0.9-0.6,1.5-1.3,1.5c-0.8,0-1.3-0.6-1.3-1.6s0.5-1.6,1.3-1.6s1.3,0.5,1.3,1.4V68.8z M110.6,68.4c0-0.8,0.5-1.3,1.1-1.3
			c0.7,0,1,0.4,1,1.1v2.5h0.8v-2.6c0-1-0.4-1.7-1.5-1.7c-0.6,0-1.2,0.4-1.4,0.9v-0.7h-0.8v4.2h0.8V68.4z M108.5,68.1
			c0-1.1-0.6-1.6-1.7-1.6c-1,0-1.6,0.6-1.8,1.4l0.7,0.1c0.1-0.5,0.5-0.8,1.1-0.8s0.9,0.4,0.9,0.9v0.2l-1.1,0.2
			c-1,0.2-1.7,0.5-1.7,1.3c0,0.7,0.5,1.2,1.3,1.2c0.7,0,1.3-0.4,1.5-0.9c0,0.5,0.4,0.8,0.8,0.8c0.3,0,0.5-0.1,0.6-0.2v-0.4
			c-0.1,0.1-0.3,0.1-0.4,0.1c-0.2,0-0.3-0.1-0.3-0.3L108.5,68.1L108.5,68.1z M107.8,68.9c0,0.8-0.6,1.4-1.3,1.4
			c-0.5,0-0.7-0.3-0.7-0.6c0-0.5,0.4-0.6,1.1-0.8l0.9-0.2V68.9z M103.3,65.7h0.8v-0.9h-0.8V65.7z M103.3,70.8h0.8v-4.2h-0.8V70.8z
			 M102,68.1c0-1.1-0.6-1.6-1.7-1.6c-1,0-1.6,0.6-1.8,1.4l0.7,0.1c0.1-0.5,0.4-0.8,1.1-0.8c0.6,0,0.9,0.4,0.9,0.9v0.2l-1.1,0.2
			c-1,0.2-1.7,0.5-1.7,1.3c0,0.7,0.5,1.2,1.3,1.2c0.7,0,1.3-0.4,1.5-0.9c0,0.5,0.4,0.8,0.8,0.8c0.3,0,0.5-0.1,0.6-0.2v-0.4
			c-0.1,0.1-0.3,0.1-0.4,0.1c-0.2,0-0.3-0.1-0.3-0.3L102,68.1L102,68.1z M101.2,68.9c0,0.8-0.6,1.4-1.3,1.4c-0.5,0-0.7-0.3-0.7-0.6
			c0-0.5,0.4-0.6,1.1-0.8l0.9-0.2V68.9z M95.6,68.1c0-1.1-0.6-1.6-1.7-1.6c-1,0-1.6,0.6-1.8,1.4l0.7,0.1c0.1-0.5,0.4-0.8,1.1-0.8
			c0.6,0,0.9,0.4,0.9,0.9v0.2l-1.1,0.2c-1,0.2-1.7,0.5-1.7,1.3c0,0.7,0.5,1.2,1.3,1.2c0.7,0,1.3-0.4,1.5-0.9c0,0.5,0.4,0.8,0.8,0.8
			c0.3,0,0.5-0.1,0.6-0.2v-0.4c-0.1,0.1-0.3,0.1-0.4,0.1c-0.2,0-0.3-0.1-0.3-0.3L95.6,68.1L95.6,68.1z M94.8,68.9
			c0,0.8-0.6,1.4-1.3,1.4c-0.5,0-0.7-0.3-0.7-0.6c0-0.5,0.4-0.6,1.1-0.8l0.9-0.2V68.9z M90.3,65.7h0.8v-0.9h-0.8V65.7z M91.1,66.6
			h-0.8v4.8c0,0.3-0.1,0.5-0.4,0.5c-0.2,0-0.4-0.1-0.7-0.2L89,72.2c0.2,0.2,0.6,0.3,0.9,0.3c0.7,0,1.1-0.4,1.1-1.1L91.1,66.6
			L91.1,66.6z M85.3,68.7h2.2V68h-2.2V68.7z M83.4,69c0,0.8-0.5,1.3-1.1,1.3c-0.7,0-1-0.4-1-1.1v-2.5h-0.8v2.6c0,1,0.4,1.7,1.5,1.7
			c0.6,0,1.2-0.4,1.4-0.9v0.7h0.8v-4.2h-0.8V69z M78.7,70.8h0.8v-6h-0.8v2.7c-0.2-0.5-0.7-1-1.5-1c-1.2,0-1.9,1-1.9,2.2
			s0.7,2.2,1.9,2.2c0.8,0,1.3-0.5,1.5-1V70.8z M78.7,68.8c0,0.9-0.6,1.5-1.3,1.5c-0.8,0-1.3-0.6-1.3-1.6s0.5-1.6,1.3-1.6
			s1.3,0.5,1.3,1.4V68.8z M74.7,68.7c0-1.3-0.9-2.2-2.1-2.2s-2.1,0.9-2.1,2.2c0,1.3,0.9,2.2,2.1,2.2C73.8,70.9,74.7,70,74.7,68.7
			 M71.3,68.7c0-0.9,0.5-1.6,1.3-1.6c0.9,0,1.3,0.7,1.3,1.6s-0.5,1.6-1.3,1.6C71.7,70.3,71.3,69.6,71.3,68.7 M70.3,70.8l-2.9-3.4
			l2.6-2.7h-1l-2.9,3v-3h-0.8v6h0.8v-2.2l0.7-0.7l2.5,2.9L70.3,70.8L70.3,70.8z"/>
	</g>
</g>
</svg>
