<?xml version="1.0" encoding="utf-8"?>
<!-- Generator: Adobe Illustrator 24.2.3, SVG Export Plug-In . SVG Version: 6.00 Build 0)  -->
<svg version="1.1" id="Layer_1" xmlns="http://www.w3.org/2000/svg" xmlns:xlink="http://www.w3.org/1999/xlink" x="0px" y="0px"
	 viewBox="0 0 150 100" style="enable-background:new 0 0 150 100;" xml:space="preserve">
<style type="text/css">
	.st0{fill:#FFFFFF;}
</style>
<g>
	<path class="st0" d="M25.2,64.7c0,0.1,0,0.2,0.1,0.3c0.2-0.2,0.4-0.3,0.6-0.4c0.1-0.4,0.4-0.6,0.8-0.6h0.1
		c-0.3,0.1-0.6,0.3-0.7,0.6c-0.2,0.1-0.3,0.3-0.3,0.5c0,0.1,0,0.2,0.1,0.3c0.2-0.2,0.4-0.3,0.7-0.4c0.1-0.4,0.4-0.7,0.8-0.7
		c-0.3,0.1-0.6,0.5-0.6,0.9c0,0.1,0,0.3,0.1,0.4c0.1-0.2,0.3-0.4,0.5-0.4c0.1,0,0.1,0,0.2,0s0.1,0,0.2,0c0.4,0,0.7-0.3,0.7-0.7
		c0-0.1,0-0.1,0-0.2c0.2,0.1,0.3,0.2,0.3,0.4c0,0.1,0,0.2-0.1,0.2c0,0,0.1,0,0.2,0c0.4,0,0.8-0.3,0.8-0.8c0.2-0.1,0.4-0.3,0.6-0.5
		l0.1,0.6v0.1c0,0,0,0.1-0.1,0.1l0.5-0.5c0,0,0-0.1,0.1-0.1v-0.1L30.8,63v-0.1c0,0,0-0.1,0.1-0.1l0.4-0.4c0,0,0,0.1-0.1,0.1v0.1
		l0.1,0.7v0.1c0,0,0,0.1-0.1,0.1l0.4-0.4c0,0,0-0.1,0.1-0.1v-0.1l-0.1-0.7v-0.1c0,0,0-0.1,0.1-0.1l0.4-0.4c0,0,0,0.1-0.1,0.1v0.1
		l0.1,0.7v0.1c0,0,0,0.1-0.1,0.1l0.4-0.4c0,0,0-0.1,0.1-0.1v-0.1l-0.1-0.3c-0.1-0.4,0.3-0.8,0.6-0.9c0-0.1,0.1-0.2,0.1-0.2
		c0-0.4-0.5-0.7-1-0.7c-0.3,0-0.5,0.1-0.7,0.2c0.1,0.2,0.1,0.4-0.6,0.5c-0.6,0.1-1.1,0.2-1.5,0.5c-0.6,0.5-0.5,1.2-0.9,1.4
		c0.2,0,0.3,0,0.5,0c0.1,0,0.3-0.1,0.4-0.1c-0.1,0.1-0.2,0.2-0.4,0.3c-0.1,0.2-0.3,0.5-0.6,0.6c-0.2,0.1-0.4,0.1-0.5,0l-0.7-0.2
		c-0.1,0-0.2,0-0.3,0c-0.5,0-0.9,0.4-1,0.9C25.4,64.2,25.2,64.4,25.2,64.7 M32.1,37c0.4-0.4,0.9-0.7,1.4-1c0-0.1,0-0.1,0-0.2l0,0
		c-2.1,0.4-4.1,1.4-5.8,1.4c-0.5,0-0.9-0.2-0.9-0.5c0-0.1,0-0.1,0-0.2c0-0.1,0.1-0.2,0.3-0.2c0.1,0,0.3,0.1,0.3,0.3
		c0,0.1,0,0.1-0.1,0.2c0.1,0,0.1,0,0.2,0s0.3,0,0.4,0c0.2-0.1,0.3-0.2,0.3-0.4S28,36,27.8,36l0,0c0.1,0,0.1,0,0.2,0
		c0.3,0,0.5,0.2,0.5,0.5l0,0c0.8,0,1.6-0.7,1.8-1c-0.2,0.1-0.5,0.1-0.8,0.1s-0.6,0-0.9-0.1c-0.4-0.1-0.7-0.2-1-0.2
		c-0.9,0-1.7,0.6-1.7,1.4c0,0.6,0.5,1.2,1.2,1.3C28.6,38.3,30.5,37.3,32.1,37 M23,39.2c0-0.2,0.1-0.5,0.1-0.7l-0.2,0.2
		c0-0.1-0.1-0.2-0.1-0.2s0-0.1-0.1-0.1c0,0,0,0-0.1,0h-0.1h-0.1c0,0,0,0-0.1,0c0,0,0,0-0.1,0.1c0,0-0.1,0.1-0.1,0.2L22,38.5
		c0,0.2,0,0.4,0.1,0.7c0.2,0,0.3,0,0.5,0C22.6,39.2,22.8,39.2,23,39.2 M23,39.8c0-0.3-0.3-0.4-0.5-0.4c-0.3,0-0.6,0.1-0.5,0.4
		c0,0.3,0.3,0.2,0.5,0.2S23,40.1,23,39.8 M23.8,37.9c-0.1,0-0.1,0-0.1,0.1c0,0.3-0.2,0.4-0.4,0.5c0,0.3,0,0.5-0.1,0.8
		c0.2,0.5,0.1,0.8-0.1,0.9c-0.2,0.1-0.4,0-0.6,0s-0.4,0.1-0.6,0s-0.4-0.4-0.1-0.9c-0.1-0.3-0.1-0.5-0.1-0.8
		c-0.2-0.1-0.3-0.2-0.4-0.5c0-0.1,0-0.1-0.1-0.1c-0.8-0.2-0.9-1.2-0.5-1.5c0,0.4-0.1,1,0.8,1.1c0,0.5,0.2,0.6,0.4,0.6
		c0.2,0,0.3-0.1,0.3-0.1c0.2-0.1,0.1-0.2,0-0.3s-0.2-0.3-0.1-0.4l0,0h0.3h0.3l0,0c0,0.2,0,0.3-0.1,0.4c0,0-0.2,0.2,0,0.3
		c0,0,0.2,0.1,0.3,0.1c0.2,0,0.4-0.1,0.4-0.6c0.9-0.1,0.8-0.7,0.8-1.1C24.7,36.8,24.6,37.7,23.8,37.9 M24.1,36.3
		c0,0.2-0.2,0.5-0.3,0.5h-0.2c0,0.1,0.1,0.1,0.1,0.2c0,0.2-0.1,0.3-0.3,0.3c-0.2,0-0.3-0.1-0.3-0.3c0-0.1,0-0.1,0.1-0.2H23
		c-0.1,0-0.1,0-0.1,0.1c0-0.1,0-0.2,0-0.3s0.1-0.1,0.2-0.1h0.8C23.9,36.4,24,36.4,24.1,36.3 M24,35.9h-0.3c-0.1,0-0.2-0.1-0.3-0.1
		l-0.3-0.4c-0.1-0.1-0.1-0.1-0.2-0.1h0.3c0.1,0,0.2,0,0.2,0.1l0.3,0.4C23.9,35.8,23.9,35.9,24,35.9 M22.5,35.2l0.4,0.6
		c0.1,0.1,0.1,0.1,0.2,0.2h-0.4c-0.1,0-0.2-0.1-0.3-0.2l-0.3-0.5c-0.1-0.2-0.2-0.2-0.3-0.3h0.3C22.4,35,22.5,35.1,22.5,35.2
		 M21.6,35.3l0.3,0.4c0.1,0.1,0.1,0.1,0.2,0.2h-0.3c-0.1,0-0.2-0.1-0.3-0.1l-0.3-0.4c-0.1-0.1-0.1-0.1-0.2-0.1h0.3
		C21.5,35.2,21.6,35.2,21.6,35.3 M21.4,36.7h-0.2c-0.2,0-0.3-0.2-0.3-0.5c0.1,0.1,0.2,0.2,0.4,0.2h0.8c0.1,0,0.1,0.1,0.2,0.1
		c0,0.1,0,0.2,0,0.3c0-0.1-0.1-0.1-0.1-0.1H22c0,0.1,0.1,0.1,0.1,0.2c0,0.2-0.1,0.3-0.3,0.3c-0.2,0-0.3-0.1-0.3-0.3
		C21.4,36.8,21.4,36.8,21.4,36.7 M20.5,40.5l0.1-0.2v-0.1v-0.1l0.3,0.5v0.1v0.1l0,0c-0.2,0.3-0.3,0.9-0.1,1.2
		c-0.4-0.1-0.5-0.5-0.5-0.8c-0.7-0.7-0.9-1.4-0.4-2l0.3-0.3c0,0,0-0.1,0.1-0.1v-0.1l0.1,0.5v0.1c0,0,0,0.1-0.1,0.1l-0.1,0.1
		c-0.3,0.3-0.2,0.7,0.2,1.1C20.4,40.6,20.4,40.5,20.5,40.5 M38.2,42.4c0-0.1,0-0.1,0-0.2c0-0.3-0.3-0.6-0.6-0.6H37h-0.1
		c0,0-0.1,0-0.1-0.1L36.6,41l0.1,0.1h0.1h0.8h0.1c0,0,0.1,0,0.1,0.1l-0.4-0.5l-0.1-0.1h-0.1h-0.8h-0.1c0,0-0.1,0-0.1-0.1L35.9,40
		l0.1,0.1h0.1h0.8H37c0,0,0.1,0,0.1,0.1l-0.4-0.5l-0.1-0.1h-0.1h-0.6h-0.1c0,0-0.1,0-0.1-0.1l-0.4-0.6c0.8-0.1,1.5-0.6,1.7-1.2
		c0.2-0.8-0.6-1.6-1.8-1.8c-0.2,0-0.3-0.2-0.3-0.4s0.1-0.3,0.3-0.4C35.1,35,34.9,35,34.8,35c-0.5,0-0.9,0.4-0.9,0.8
		c0,0.1,0,0.2,0,0.2c-0.6,0.3-1.1,0.7-1.5,1.2c0.4-0.1,0.9-0.2,1.4-0.2c0,0,0,0,0-0.1c0-0.4,0.3-0.6,0.6-0.6l0,0
		c-0.2,0.1-0.4,0.3-0.4,0.5s0.1,0.3,0.3,0.3c0.1,0,0.1,0,0.2-0.1v-0.1c0-0.3,0.2-0.5,0.5-0.5c0,0,0,0,0.1,0
		c-0.2,0.1-0.3,0.3-0.3,0.5c0,0.3,0.2,0.5,0.5,0.5h0.1v-0.1c0-0.2,0.2-0.4,0.4-0.4s0.4,0.2,0.4,0.4c0,0.4-0.5,0.5-0.8,0.4
		c-1-0.3-2-0.4-2.9-0.3c-1.2,0.2-3.1,1-5.1,0.9c-0.5,0-1-0.1-1.5-0.2c0.1,0.1,0.1,0.1,0.1,0.2c0.2,0.3,0.3,0.6,0.1,1
		c0-0.5-0.4-0.8-0.7-1.1C25,38.3,25,38.2,25,38l0.1-0.5v0.1c0,0,0,0.1,0.1,0.1l0.2,0.2c0.1-0.5,0-1-0.4-1.5c0.1-0.4,0.2-0.8,0.1-1.2
		c0,0.3-0.2,0.4-0.3,0.5c-0.2,0.2-0.3,0.4-0.2,0.6c-0.2-0.1-0.5-0.5-0.3-0.7S25,35.5,25,35c-0.3-0.1-0.7,0-0.8,0
		c-0.2-0.2-0.4-0.3-0.8-0.3c-0.2-0.2-0.6-0.3-1-0.3s-0.7,0.1-1,0.3c-0.3,0-0.6,0.1-0.8,0.3c-0.1,0-0.4-0.1-0.8,0
		c0.1,0.4,0.6,0.3,0.7,0.6c0.2,0.2-0.1,0.6-0.3,0.7c0.1-0.2,0.1-0.4-0.2-0.6c-0.1-0.1-0.3-0.2-0.3-0.5c-0.1,0.4-0.1,0.8,0.1,1.2
		c-0.3,0.5-0.4,1-0.4,1.5l0.2-0.2c0,0,0-0.1,0.1-0.1v-0.1L20,38c0,0.1,0,0.2-0.2,0.3c-0.3,0.2-0.7,0.6-0.7,1.1
		c-0.2-0.4-0.1-0.7,0.1-1c-0.6-0.3-1.1-0.9-1.1-1c-0.2-0.2-0.2-0.5,0-0.7c0.3-0.5,0.4-0.9,0-1.3c0,0,0,0,0-0.1
		c0-0.3-0.2-0.6-0.5-0.6c0.1,0.1,0.1,0.2,0.1,0.3s0,0.2-0.1,0.3c0.1,0.1,0.1,0.2,0.1,0.3s-0.1,0.3-0.2,0.3v-0.1
		c0-0.3-0.2-0.6-0.5-0.6c0-0.2-0.2-0.4-0.5-0.4c-0.1,0-0.3,0.1-0.3,0.1c0.2,0,0.3,0.2,0.4,0.3c-0.1,0.1-0.2,0.2-0.2,0.3l0,0
		c0.3,0,0.6,0.3,0.6,0.6v0.1c0-0.1-0.1-0.3-0.2-0.3c-0.2-0.2-0.4-0.2-0.7-0.1c-0.1-0.1-0.2-0.2-0.4-0.2s-0.3,0.1-0.4,0.2
		c0.2,0,0.3,0.1,0.4,0.2c-0.2,0.3-0.3,0.8,0,1c0.2,0.2,0.4,0.2,0.6,0.1l0,0c0.1,0,0.2,0.1,0.2,0.2c0,0.1-0.1,0.2-0.2,0.2h-0.1
		c-0.1,0-0.1-0.1-0.2-0.1c-0.2,0-0.3,0.1-0.3,0.3l0,0h-0.1c-0.1,0-0.2,0-0.2-0.1v0.1c0,0.2,0.2,0.4,0.4,0.4c0.1,0.3,0.4,0.4,0.7,0.4
		c0.2,0,0.3,0,0.4-0.1c0.1,0,0.1-0.1,0.2-0.1c0.2,0,0.3,0.1,0.3,0.3c0,0.1-0.1,0.3-0.2,0.3L17,39.1h-0.1c0,0-0.1,0-0.1-0.1l0.5,0.5
		c0,0,0.1,0,0.1,0.1h0.1l0.4-0.1H18c0,0,0.1,0,0.1,0.1l0.4,0.4c0,0-0.1,0-0.1-0.1h-0.1L17.9,40h-0.1c0,0-0.1,0-0.1-0.1l0.5,0.5
		c0,0,0.1,0,0.1,0.1h0.1l0.5-0.1H19c0,0,0.1,0,0.1,0.1l0.4,0.4c0,0-0.1,0-0.1-0.1h-0.1l-0.4,0.1h-0.1c0,0-0.1,0-0.1-0.1l0.5,0.5
		c0,0,0.1,0,0.1,0.1h0.1l0.5-0.1c-0.5,0.3-1.1,0.6-1.7,1c-0.4,0.2-0.7,0.3-1.2,0.1c-0.2-0.1-0.5-0.1-0.7-0.1s-0.4,0.2-0.5,0.3
		c0.1,0,0.2-0.1,0.3-0.1c0.2,0,0.4,0.1,0.5,0.2c-0.2-0.1-0.5-0.1-0.7,0c-0.4,0.2-0.7,0.6-0.6,1c-0.2,0.1-0.3,0.2-0.3,0.4
		c0,0.1,0.1,0.2,0.1,0.3c0-0.2,0.2-0.3,0.4-0.4c0.1,0.1,0.2,0.1,0.3,0.1c0-0.1,0.1-0.1,0.1-0.2v-0.1c0-0.4,0.3-0.7,0.7-0.7h0.1
		c-0.3,0.1-0.6,0.4-0.6,0.7v0.1c-0.2,0.1-0.3,0.2-0.3,0.4c0,0.1,0,0.2,0.1,0.3c0.1-0.2,0.4-0.4,0.7-0.4c0.1,0,0.2,0,0.3,0
		c0.1,0,0.1,0,0.2,0C17,44.1,17,44,17,43.9c0-0.3,0.3-0.6,0.6-0.6h0.1c-0.3,0.1-0.5,0.4-0.4,0.6c0,0.2,0.2,0.3,0.4,0.3
		c0,0.1,0,0.2-0.1,0.3c0.3,0,0.5-0.2,0.6-0.4c0.3-0.1,0.5-0.4,0.4-0.6c0-0.1-0.1-0.2-0.2-0.2l0,0c0-0.2,0.1-0.3,0.3-0.3
		c0.2,0,0.3,0.1,0.3,0.3c0,0.1,0,0.2-0.1,0.2h0.6h0.1c0,0,0.1,0,0.1-0.1l0.4-0.6c0,0,0,0,0.1-0.1c0,0,0,0,0.1,0H21h-0.1
		c0,0,0,0-0.1,0.1l-0.4,0.6l-0.1,0.1h-0.1H21h0.1c0,0,0.1,0,0.1-0.1l0.5-0.7c-0.3-0.2-0.4-0.5-0.4-0.9c0-0.3,0.1-0.6,0.2-0.7V41
		v-0.1c0,0,0-0.1-0.1-0.1l0.4,0.4l0.1,0.1v0.1v0.1c0,0.2-0.2,0.5,0.2,0.8c0,0,0.1,0,0.1,0.1l0.3,0.2v-1h0.4v1.1v0.1
		c0,0,0,0.1,0.1,0.1l0.4,0.2h0.1h0.1L24,43h-0.1h-0.1L23,42.5c0.4-0.3,0.2-0.7,0.2-0.8v-0.1v-0.1c0,0,0-0.1,0.1-0.1l0.4-0.4
		c0,0,0,0.1-0.1,0.1v0.1v0.1c0,0.3,0.3,0.8,0.1,1l0.7,0.4h0.1h0.1l0.7-0.3h-0.1h-0.1L24.3,42c0.2-0.3,0-0.9-0.1-1.2l0,0v-0.1v-0.1
		l0.3-0.5v0.1v0.1l0.1,0.2c0.1,0.1,0.1,0.1,0.1,0.3c0.4-0.4,0.5-0.8,0.2-1.1l-0.1-0.1c0,0,0-0.1-0.1-0.1v-0.1l0.1-0.5V39
		c0,0,0,0.1,0.1,0.1l0.3,0.3c0.5,0.6,0.2,1.3-0.4,1.9c0,0.1,0.1,0.3,0,0.4l0.8,0.5h0.1h0.1l0.6-0.3h-0.1c-0.2,0-0.3-0.1-0.3-0.3
		c0-0.1,0.1-0.2,0.2-0.3c2.3-0.7,4.3-2.5,5.7-2.5c0.7,0,1.2,0.4,1.2,0.9c0,0.1,0,0.2,0,0.2c-0.3,0.8,0.1,1.6,1.3,1.9
		c0.2,0,0.3,0.2,0.3,0.4v0.1h0.1c0.3,0,0.6-0.2,0.7-0.4c0.2,0,0.4,0,0.6,0c0,0.1,0,0.1,0.1,0.2c0,0.2,0,0.4-0.2,0.5
		c-0.3,0.1-0.6,0-0.8,0c-0.5,0-0.8,0.4-0.8,0.8v0.1c-0.1,0.1-0.2,0.2-0.2,0.4c0,0.1,0,0.2,0.1,0.3c0.1-0.2,0.3-0.3,0.5-0.4
		c0-0.4,0.4-0.7,0.8-0.7c0.1,0,0.1,0,0.2,0c-0.4,0.1-0.7,0.4-0.7,0.8V44C35,44.1,35,44.1,35,44.2c0,0.1,0,0.2,0.1,0.3
		c0.1-0.2,0.3-0.3,0.5-0.4c0.2-0.1,0.3-0.1,0.5,0c0-0.1,0-0.1,0-0.2c0-0.4,0.3-0.7,0.7-0.7h0.1c-0.3,0-0.5,0.3-0.5,0.5
		s0.1,0.3,0.2,0.4l0,0c0,0.1,0.1,0.3,0.2,0.4c0-0.2,0.3-0.4,0.5-0.4s0.4,0,0.5-0.1c0.2-0.1,0.4-0.3,0.4-0.5s-0.1-0.3-0.2-0.4
		c0.1-0.3,0.1-0.7,0-1.1c0,0,0,0,0.1,0C38,42.2,38.1,42.3,38.2,42.4 M26.7,47.1c0-0.1,0-0.1,0-0.2c0-0.1,0.1-0.2,0.3-0.2
		c0.1,0,0.3,0.1,0.3,0.3c0,0.1,0,0.1-0.1,0.2c0.1,0,0.1,0,0.2,0s0.3,0,0.4,0c0.2-0.1,0.3-0.2,0.3-0.4s-0.2-0.4-0.4-0.4l0,0
		c0.1,0,0.1,0,0.2,0c0.3,0,0.5,0.2,0.5,0.5l0,0c0.8,0,1.6-0.7,1.8-1C30,46,29.7,46,29.4,46s-0.6,0-0.9-0.1c-0.4-0.1-0.7-0.2-1-0.2
		c-0.9,0-1.7,0.6-1.7,1.4c0,0.6,0.5,1.2,1.2,1.3c1.6,0.3,3.5-0.6,5.1-1c0.4-0.4,0.9-0.7,1.4-1c0-0.1,0-0.1,0-0.2l0,0
		c-2.1,0.4-4.1,1.4-5.8,1.4C27.2,47.6,26.8,47.4,26.7,47.1 M26.7,43.2L26.7,43.2c-0.2,0.1-0.5,0.3-0.6,0.6c-0.2,0.1-0.3,0.3-0.3,0.5
		c0,0.1,0,0.2,0.1,0.3c0.2-0.2,0.4-0.3,0.7-0.4c0.1-0.4,0.4-0.7,0.8-0.7c-0.3,0.1-0.6,0.5-0.6,0.9c0,0.1,0,0.3,0.1,0.4
		c0.1-0.2,0.3-0.4,0.5-0.4c0.1,0,0.1,0,0.2,0s0.1,0,0.2,0c0.4,0,0.7-0.3,0.7-0.7c0-0.1,0-0.1,0-0.2c0.2,0.1,0.3,0.2,0.3,0.4
		c0,0.1,0,0.2-0.1,0.2c0,0,0.1,0,0.2,0c0.4,0,0.8-0.3,0.8-0.8c0.2-0.1,0.4-0.3,0.6-0.5l0.1,0.6v0.1c0,0,0,0.1-0.1,0.1l0.5-0.5
		c0,0,0-0.1,0.1-0.1v-0.1l-0.1-0.7v-0.1c0,0,0-0.1,0.1-0.1l0.4-0.4c0,0,0,0.1-0.1,0.1v0.1l0.1,0.7v0.1c0,0,0,0.1-0.1,0.1l0.4-0.4
		c0,0,0-0.1,0.1-0.1v-0.1l-0.1-0.7v-0.1c0,0,0-0.1,0.1-0.1l0.4-0.4c0,0,0,0.1-0.1,0.1V41l0.1,0.7v0.1c0,0,0,0.1-0.1,0.1l0.4-0.4
		c0,0,0-0.1,0.1-0.1v-0.1L32.2,41c-0.1-0.4,0.3-0.8,0.6-0.9c0-0.1,0.1-0.2,0.1-0.2c0-0.4-0.5-0.7-1-0.7c-0.3,0-0.5,0.1-0.7,0.2
		c0.1,0.2,0.1,0.4-0.6,0.5c-0.6,0.1-1.1,0.2-1.5,0.5c-0.6,0.5-0.5,1.2-0.9,1.4c0.2,0,0.3,0,0.5,0c0.1,0,0.3-0.1,0.4-0.1
		c-0.1,0.1-0.2,0.2-0.4,0.3c-0.1,0.2-0.3,0.5-0.6,0.6c-0.2,0.1-0.4,0.1-0.5,0l-0.7-0.2c-0.1,0-0.2,0-0.3,0c-0.5,0-0.9,0.4-1,0.9
		c-0.2,0-0.4,0.2-0.4,0.5c0,0.1,0,0.2,0.1,0.3c0.2-0.2,0.4-0.3,0.6-0.4C26,43.5,26.3,43.2,26.7,43.2 M23,49.6c0-0.2,0.1-0.5,0.1-0.7
		l-0.2,0.2c0-0.1-0.1-0.2-0.1-0.2s0-0.1-0.1-0.1c0,0,0,0-0.1,0h-0.1h-0.1c0,0,0,0-0.1,0c0,0,0,0-0.1,0.1c0,0-0.1,0.1-0.1,0.2
		L22,48.9c0,0.2,0,0.4,0.1,0.7c0.2,0,0.3,0,0.5,0C22.6,49.5,22.8,49.5,23,49.6 M23,50.2c0-0.3-0.3-0.4-0.5-0.4
		c-0.3,0-0.6,0.1-0.5,0.4c0,0.3,0.3,0.2,0.5,0.2S23,50.5,23,50.2 M23.8,48.3c-0.1,0-0.1,0-0.1,0.1c0,0.3-0.2,0.4-0.4,0.5
		c0,0.3,0,0.5-0.1,0.8c0.2,0.5,0.1,0.8-0.1,0.9c-0.2,0.1-0.4,0-0.6,0s-0.4,0.1-0.6,0s-0.4-0.4-0.1-0.9c-0.1-0.3-0.1-0.5-0.1-0.8
		c-0.2-0.1-0.3-0.2-0.4-0.5c0-0.1,0-0.1-0.1-0.1c-0.8-0.2-0.9-1.2-0.5-1.5c0,0.4-0.1,1,0.8,1.1c0,0.5,0.2,0.6,0.4,0.6
		c0.2,0,0.3-0.1,0.3-0.1c0.2-0.1,0.1-0.2,0-0.3s-0.2-0.3-0.1-0.4l0,0h0.3h0.3l0,0c0,0.1,0,0.3-0.1,0.4c0,0-0.2,0.2,0,0.3
		c0,0,0.2,0.1,0.3,0.1c0.2,0,0.4-0.1,0.4-0.6c0.9-0.1,0.8-0.7,0.8-1.1C24.7,47.1,24.6,48.1,23.8,48.3 M24.1,46.6
		c0,0.2-0.2,0.5-0.3,0.5h-0.2c0,0.1,0.1,0.1,0.1,0.2c0,0.2-0.1,0.3-0.3,0.3c-0.2,0-0.3-0.1-0.3-0.3c0-0.1,0-0.1,0.1-0.2H23
		c-0.1,0-0.1,0-0.1,0.1c0-0.1,0-0.2,0-0.3s0.1-0.1,0.2-0.1h0.8C23.9,46.8,24,46.7,24.1,46.6 M24,46.3h-0.3c-0.1,0-0.2-0.1-0.3-0.1
		l-0.3-0.4c-0.1-0.1-0.1-0.1-0.2-0.1h0.3c0.1,0,0.2,0,0.2,0.1l0.3,0.4C23.9,46.2,23.9,46.3,24,46.3 M22.5,45.6l0.4,0.6
		c0.1,0.1,0.1,0.1,0.2,0.2h-0.4c-0.1,0-0.2-0.1-0.3-0.2l-0.3-0.5c-0.1-0.2-0.2-0.2-0.3-0.3h0.3C22.4,45.4,22.5,45.5,22.5,45.6
		 M21.6,45.7l0.3,0.4c0.1,0.1,0.1,0.1,0.2,0.2h-0.3c-0.1,0-0.2-0.1-0.3-0.1l-0.3-0.4c-0.1-0.1-0.1-0.1-0.2-0.1h0.3
		C21.5,45.6,21.6,45.6,21.6,45.7 M21.4,47.1h-0.2c-0.2,0-0.3-0.2-0.3-0.5c0.1,0.1,0.2,0.2,0.4,0.2h0.8c0.1,0,0.1,0.1,0.2,0.1
		c0,0.1,0,0.2,0,0.3c0-0.1-0.1-0.1-0.1-0.1H22c0,0.1,0.1,0.1,0.1,0.2c0,0.2-0.1,0.3-0.3,0.3c-0.2,0-0.3-0.1-0.3-0.3
		C21.4,47.2,21.4,47.2,21.4,47.1 M20.5,50.8l0.1-0.2v-0.1v-0.1l0.3,0.5V51v0.1l0,0c-0.2,0.3-0.3,0.9-0.1,1.2
		c-0.4-0.1-0.5-0.5-0.5-0.8c-0.7-0.7-0.9-1.4-0.4-2l0.3-0.3c0,0,0-0.1,0.1-0.1V49l0.1,0.5v0.1c0,0,0,0.1-0.1,0.1L20.1,50
		c-0.3,0.3-0.2,0.7,0.2,1.1C20.4,51,20.4,50.9,20.5,50.8 M38.2,52.8c0-0.1,0-0.1,0-0.2c0-0.3-0.3-0.6-0.6-0.6H37h-0.1
		c0,0-0.1,0-0.1-0.1l-0.3-0.4l0.1,0.1h0.1h0.8h0.1c0,0,0.1,0,0.1,0.1l-0.4-0.5l-0.1-0.1h-0.1h-0.8h-0.1c0,0-0.1,0-0.1-0.1l-0.3-0.5
		l0.1,0.1H36h0.8h0.1c0,0,0.1,0,0.1,0.1l-0.4-0.5l-0.1-0.1h-0.1h-0.6h-0.1c0,0-0.1,0-0.1-0.1l-0.4-0.6c0.8-0.1,1.5-0.6,1.7-1.2
		c0.2-0.8-0.6-1.6-1.8-1.8c-0.2,0-0.3-0.2-0.3-0.4s0.1-0.3,0.3-0.4c-0.1-0.1-0.3-0.1-0.4-0.1c-0.5,0-0.9,0.4-0.9,0.8
		c0,0.1,0,0.2,0,0.2c-0.6,0.3-1.1,0.7-1.5,1.2c0.4-0.1,0.9-0.2,1.4-0.2c0,0,0,0,0-0.1c0-0.4,0.3-0.6,0.6-0.6l0,0
		c-0.2,0.1-0.4,0.3-0.4,0.5s0.1,0.3,0.3,0.3c0.1,0,0.1,0,0.2-0.1v-0.1c0-0.3,0.2-0.5,0.5-0.5c0,0,0,0,0.1,0
		c-0.2,0.1-0.3,0.3-0.3,0.5c0,0.3,0.2,0.5,0.5,0.5h0.1v-0.1c0-0.2,0.2-0.4,0.4-0.4s0.4,0.2,0.4,0.4c0,0.4-0.5,0.5-0.8,0.4
		c-1-0.3-2-0.4-2.9-0.3c-1.2,0.2-3.1,1-5.1,0.9c-0.5,0-1-0.1-1.5-0.2c0.1,0.1,0.1,0.1,0.1,0.2c0.2,0.3,0.3,0.6,0.1,1
		c0-0.5-0.4-0.8-0.7-1.1C25,48.6,25,48.5,25,48.4l0.1-0.5V48c0,0,0,0.1,0.1,0.1l0.2,0.2c0.1-0.5,0-1-0.4-1.5
		c0.1-0.4,0.2-0.8,0.1-1.2c0,0.3-0.2,0.4-0.3,0.5c-0.2,0.2-0.3,0.4-0.2,0.6c-0.2-0.1-0.5-0.5-0.3-0.7s0.7-0.1,0.7-0.6
		c-0.3-0.1-0.7,0-0.8,0c-0.2-0.2-0.4-0.3-0.8-0.3c-0.2-0.2-0.6-0.3-1-0.3s-0.7,0.1-1,0.3c-0.3,0-0.6,0.1-0.8,0.3
		c-0.1,0-0.4-0.1-0.8,0c0.1,0.4,0.6,0.3,0.7,0.6c0.2,0.2-0.1,0.6-0.3,0.7c0.1-0.2,0.1-0.4-0.2-0.6c0.1,0,0-0.1,0-0.4
		c-0.1,0.4-0.1,0.8,0.1,1.2c-0.3,0.5-0.4,1-0.4,1.5l0.2-0.2c0,0,0-0.1,0.1-0.1V48l0.1,0.5c0,0.1,0,0.2-0.2,0.3
		c-0.3,0.2-0.7,0.6-0.7,1.1c-0.2-0.4-0.1-0.7,0.1-1c-0.6-0.3-1.1-0.9-1.1-1c-0.2-0.2-0.2-0.5,0-0.7c0.3-0.5,0.4-0.9,0-1.3
		c0,0,0,0,0-0.1c0-0.3-0.2-0.6-0.5-0.6c0.1,0.1,0.1,0.2,0.1,0.3s0,0.2-0.1,0.3c0.1,0.1,0.1,0.2,0.1,0.3s-0.1,0.3-0.2,0.3v-0.1
		c0-0.3-0.2-0.6-0.5-0.6c0-0.2-0.2-0.4-0.5-0.4c-0.1,0-0.3,0.1-0.3,0.1c0.2,0,0.3,0.2,0.4,0.3c-0.1,0.1-0.2,0.2-0.2,0.3l0,0
		c0.3,0,0.6,0.3,0.6,0.6v0.1c0-0.1-0.1-0.3-0.2-0.3c-0.2-0.2-0.4-0.2-0.7-0.1c-0.1-0.1-0.2-0.2-0.4-0.2s-0.3,0.1-0.4,0.2
		c0.2,0,0.3,0.1,0.4,0.2c-0.2,0.3-0.3,0.8,0,1c0.2,0.2,0.4,0.2,0.6,0.1l0,0c0.1,0,0.2,0.1,0.2,0.2c0,0.1-0.1,0.2-0.2,0.2h-0.1
		c-0.1,0-0.1-0.1-0.2-0.1c-0.2,0-0.3,0.1-0.3,0.3l0,0h-0.1c-0.1,0-0.2,0-0.2-0.1v0.1c0,0.2,0.2,0.4,0.4,0.4c0.1,0.3,0.4,0.4,0.7,0.4
		c0.2,0,0.3,0,0.4-0.1c0.1,0,0.1-0.1,0.2-0.1c0.2,0,0.3,0.1,0.3,0.3c0,0.1-0.1,0.3-0.2,0.3L17,49.5h-0.1c0,0-0.1,0-0.1-0.1l0.5,0.5
		c0,0,0.1,0,0.1,0.1h0.1l0.4-0.1H18c0,0,0.1,0,0.1,0.1l0.4,0.4c0,0-0.1,0-0.1-0.1h-0.1l-0.4,0.1h-0.1c0,0-0.1,0-0.1-0.1l0.5,0.5
		c0,0,0.1,0,0.1,0.1h0.1l0.5-0.1H19c0,0,0.1,0,0.1,0.1l0.4,0.4c0,0-0.1,0-0.1-0.1h-0.1l-0.4,0.1h-0.1c0,0-0.1,0-0.1-0.1l0.5,0.5
		c0,0,0.1,0,0.1,0.1h0.1l0.5-0.1c-0.5,0.3-1.1,0.6-1.7,1c-0.4,0.2-0.7,0.3-1.2,0.1c-0.2-0.1-0.5-0.1-0.7-0.1s-0.4,0.2-0.5,0.3
		c0.1,0,0.2-0.1,0.3-0.1c0.2,0,0.4,0.1,0.5,0.2c-0.2-0.1-0.5-0.1-0.7,0c-0.4,0.2-0.7,0.6-0.6,1c-0.2,0.1-0.3,0.2-0.3,0.4
		c0,0.1,0.1,0.2,0.1,0.3c0-0.2,0.2-0.3,0.4-0.4c0.1,0.1,0.2,0.1,0.3,0.1c0-0.1,0.1-0.1,0.1-0.2v-0.1c0-0.4,0.3-0.7,0.7-0.7h0.1
		c-0.3,0.1-0.6,0.4-0.6,0.7v0.1c-0.2,0.1-0.3,0.2-0.3,0.4c0,0.1,0,0.2,0.1,0.3c0.1-0.2,0.4-0.4,0.7-0.4c0.1,0,0.2,0,0.3,0
		c0.1,0,0.1,0,0.2,0C17,54.5,17,54.4,17,54.3c0-0.3,0.3-0.6,0.6-0.6h0.1c-0.3,0.1-0.5,0.4-0.4,0.6c0,0.2,0.2,0.3,0.4,0.3
		c0,0.1,0,0.2-0.1,0.3c0.3,0,0.5-0.2,0.6-0.4c0.3-0.1,0.5-0.4,0.4-0.6c0-0.1-0.1-0.2-0.2-0.2l0,0c0-0.2,0.1-0.3,0.3-0.3
		c0.2,0,0.3,0.1,0.3,0.3c0,0.1,0,0.2-0.1,0.2h0.6h0.1c0,0,0.1,0,0.1-0.1l0.4-0.6c0,0,0,0,0.1-0.1c0,0,0,0,0.1,0H21h-0.1
		c0,0,0,0-0.1,0.1l-0.4,0.6l-0.1,0.1h-0.1H21h0.1c0,0,0.1,0,0.1-0.1l0.5-0.7c-0.3-0.2-0.4-0.5-0.4-0.9c0-0.3,0.1-0.6,0.2-0.7v-0.1
		v-0.1c0,0,0-0.1-0.1-0.1l0.4,0.4l0.1,0.1v0.1v0.1c0,0.2-0.2,0.5,0.2,0.8c0,0,0.1,0,0.1,0.1l0.3,0.2v-1h0.4v1.1v0.1
		c0,0,0,0.1,0.1,0.1l0.4,0.2h0.1h0.1l0.7-0.3h-0.1h-0.1l-0.8-0.5c0.4-0.3,0.2-0.7,0.2-0.8v-0.1v-0.1c0,0,0-0.1,0.1-0.1l0.4-0.4
		c0,0,0,0.1-0.1,0.1v0.1v0.1c0,0.3,0.3,0.8,0.1,1l0.7,0.4h0.1h0.1l0.7-0.3h-0.1h-0.1l-0.8-0.5c0.2-0.3,0-0.9-0.1-1.2l0,0v-0.1v-0.1
		l0.3-0.5v0.1v0.1l0.1,0.2c0.1,0.1,0.1,0.1,0.1,0.3c0.4-0.4,0.5-0.8,0.2-1.1l-0.1-0.1c0,0,0-0.1-0.1-0.1v-0.1l0.1-0.5v0.1
		c0,0,0,0.1,0.1,0.1l0.3,0.3c0.5,0.6,0.2,1.3-0.4,1.9c0,0.1,0.1,0.3,0,0.4l0.8,0.5H26h0.1l0.6-0.3h-0.1c-0.2,0-0.3-0.1-0.3-0.3
		c0-0.1,0.1-0.2,0.2-0.3c2.3-0.7,4.3-2.5,5.7-2.5c0.7,0,1.2,0.4,1.2,0.9c0,0.1,0,0.2,0,0.2c-0.3,0.8,0.1,1.6,1.3,1.9
		c0.2,0,0.3,0.2,0.3,0.4v0.1h0.1c0.3,0,0.6-0.2,0.7-0.4c0.2,0,0.4,0,0.6,0c0,0.1,0,0.1,0.1,0.2c0,0.2,0,0.4-0.2,0.5
		c-0.3,0.1-0.6,0-0.8,0c-0.5,0-0.8,0.4-0.8,0.8v0.1c-0.1,0.1-0.2,0.2-0.2,0.4c0,0.1,0,0.2,0.1,0.3c0.1-0.2,0.3-0.3,0.5-0.4
		c0-0.4,0.4-0.7,0.8-0.7c0.1,0,0.1,0,0.2,0c-0.4,0.1-0.7,0.4-0.7,0.8v0.1c-0.1,0.1-0.1,0.1-0.1,0.2c0,0.1,0,0.2,0.1,0.3
		c0.1-0.2,0.3-0.3,0.5-0.4c0.2-0.1,0.3-0.1,0.5,0c0-0.1,0-0.1,0-0.2c0-0.4,0.3-0.7,0.7-0.7h0.1c-0.3,0-0.5,0.3-0.5,0.5
		s0.1,0.3,0.2,0.4l0,0c0,0.1,0.1,0.3,0.2,0.4c0-0.2,0.3-0.4,0.5-0.4s0.4,0,0.5-0.1c0.2-0.1,0.4-0.3,0.4-0.5s-0.1-0.3-0.2-0.4
		c0.1-0.3,0.1-0.7,0-1.1c0,0,0,0,0.1,0C38,52.6,38.1,52.6,38.2,52.8 M26.7,57.5c0-0.1,0-0.1,0-0.2c0-0.1,0.1-0.2,0.3-0.2
		c0.1,0,0.3,0.1,0.3,0.3c0,0.1,0,0.1-0.1,0.2c0.1,0,0.1,0,0.2,0s0.3,0,0.4,0c0.2-0.1,0.3-0.2,0.3-0.4s-0.2-0.4-0.4-0.4l0,0
		c0.1,0,0.1,0,0.2,0c0.3,0,0.5,0.2,0.5,0.5l0,0c0.8,0,1.6-0.7,1.8-1c-0.2,0.1-0.5,0.1-0.8,0.1s-0.6,0-0.9-0.1
		c-0.4-0.1-0.7-0.2-1-0.2c-0.9,0-1.7,0.6-1.7,1.4c0,0.6,0.5,1.2,1.2,1.3c1.6,0.3,3.5-0.6,5.1-1c0.4-0.4,0.9-0.7,1.4-1
		c0-0.1,0-0.1,0-0.2l0,0C31.4,57,29.4,58,27.7,58C27.2,58,26.8,57.8,26.7,57.5 M26.7,53.6L26.7,53.6c-0.2,0.1-0.5,0.3-0.6,0.6
		c-0.2,0.1-0.3,0.3-0.3,0.5c0,0.1,0,0.2,0.1,0.3c0.2-0.2,0.4-0.3,0.7-0.4c0.1-0.4,0.4-0.7,0.8-0.7c-0.3,0.1-0.6,0.5-0.6,0.9
		c0,0.1,0,0.3,0.1,0.4c0.1-0.2,0.3-0.4,0.5-0.4c0.1,0,0.1,0,0.2,0s0.1,0,0.2,0c0.4,0,0.7-0.3,0.7-0.7c0-0.1,0-0.1,0-0.2
		c0.2,0.1,0.3,0.2,0.3,0.4c0,0.1,0,0.2-0.1,0.2c0,0,0.1,0,0.2,0c0.4,0,0.8-0.3,0.8-0.7c0.2-0.1,0.4-0.3,0.6-0.5l0.1,0.6V54
		c0,0,0,0.1-0.1,0.1l0.5-0.5c0,0,0-0.1,0.1-0.1v-0.1l-0.1-0.7v-0.1c0,0,0-0.1,0.1-0.1l0.4-0.4c0,0,0,0.1-0.1,0.1v0.1l0.1,0.7v0.1
		c0,0,0,0.1-0.1,0.1l0.4-0.4c0,0,0-0.1,0.1-0.1v-0.1l-0.1-0.7v-0.1c0,0,0-0.1,0.1-0.1l0.4-0.4c0,0,0,0.1-0.1,0.1v0.1l0.1,0.7v0.1
		c0,0,0,0.1-0.1,0.1l0.4-0.4c0,0,0-0.1,0.1-0.1v-0.1l-0.1-0.3c-0.1-0.4,0.3-0.8,0.6-0.9c0-0.1,0.1-0.2,0.1-0.2c0-0.4-0.5-0.7-1-0.7
		c-0.3,0-0.5,0.1-0.7,0.2c0.1,0.2,0.1,0.4-0.6,0.5c-0.6,0.1-1.1,0.2-1.5,0.5c-0.6,0.5-0.5,1.2-0.9,1.4c0.2,0,0.3,0,0.5,0
		c0.1,0,0.3-0.1,0.4-0.1c-0.1,0.1-0.2,0.2-0.4,0.3c-0.1,0.2-0.3,0.5-0.6,0.6c-0.2,0.1-0.4,0.1-0.5,0l-0.7-0.2c-0.1,0-0.2,0-0.3,0
		c-0.5,0-0.9,0.4-1,0.9c-0.2,0-0.4,0.2-0.4,0.5c0,0.1,0,0.2,0.1,0.3c0.2-0.2,0.4-0.3,0.6-0.4C26,53.8,26.3,53.6,26.7,53.6 M23,60
		c0-0.2,0.1-0.5,0.1-0.7l-0.2,0.2c0-0.1-0.1-0.2-0.1-0.2s0-0.1-0.1-0.1c0,0,0,0-0.1,0h-0.1h-0.1c0,0,0,0-0.1,0c0,0,0,0-0.1,0.1
		c0,0-0.1,0.1-0.1,0.2L22,59.3c0,0.2,0,0.4,0.1,0.7c0.2,0,0.3,0,0.5,0C22.6,59.9,22.8,59.9,23,60 M23,60.6c0-0.3-0.3-0.4-0.5-0.4
		c-0.3,0-0.6,0.1-0.5,0.4c0,0.3,0.3,0.2,0.5,0.2C22.7,60.7,23,60.9,23,60.6 M23.8,58.7c-0.1,0-0.1,0-0.1,0.1c0,0.3-0.2,0.4-0.4,0.5
		c0,0.3,0,0.5-0.1,0.8c0.2,0.5,0.1,0.8-0.1,0.9c-0.2,0.1-0.4,0-0.6,0s-0.4,0.1-0.6,0s-0.4-0.4-0.1-0.9c-0.1-0.3-0.1-0.5-0.1-0.8
		c-0.2-0.1-0.3-0.2-0.4-0.5c0-0.1,0-0.1-0.1-0.1c-0.8-0.2-0.9-1.2-0.5-1.5c0,0.4-0.1,1,0.8,1.1c0,0.5,0.2,0.6,0.4,0.6
		c0.2,0,0.3-0.1,0.3-0.1c0.2-0.1,0.1-0.2,0-0.3s-0.2-0.3-0.1-0.4l0,0h0.3h0.3l0,0c0,0.2,0,0.3-0.1,0.4c0,0-0.2,0.2,0,0.3
		c0,0,0.2,0.1,0.3,0.1c0.2,0,0.4-0.1,0.4-0.6c0.9-0.1,0.8-0.7,0.8-1.1C24.7,57.5,24.6,58.5,23.8,58.7 M24.1,57
		c0,0.2-0.2,0.5-0.3,0.5h-0.2c0,0.1,0.1,0.1,0.1,0.2c0,0.2-0.1,0.3-0.3,0.3c-0.2,0-0.3-0.1-0.3-0.3c0-0.1,0-0.1,0.1-0.2H23
		c-0.1,0-0.1,0-0.1,0.1c0-0.1,0-0.2,0-0.3s0.1-0.1,0.2-0.1h0.8C23.9,57.2,24,57.1,24.1,57 M24,56.6h-0.3c-0.1,0-0.2-0.1-0.3-0.1
		l-0.3-0.4C23,56,23,56,22.9,55.9h0.3c0.1,0,0.2,0,0.2,0.1l0.3,0.4C23.9,56.6,23.9,56.6,24,56.6 M22.5,56l0.4,0.6
		c0.1,0.1,0.1,0.1,0.2,0.2h-0.4c-0.1,0-0.2-0.1-0.3-0.2l-0.3-0.5c-0.1-0.2-0.2-0.2-0.3-0.3h0.3C22.4,55.8,22.5,55.9,22.5,56
		 M21.6,56.1l0.3,0.4c0.1,0.1,0.1,0.1,0.2,0.2h-0.3c-0.1,0-0.2-0.1-0.3-0.1l-0.3-0.4c-0.1-0.1-0.1-0.1-0.2-0.1h0.3
		C21.5,55.9,21.6,56,21.6,56.1 M21.4,57.5h-0.2c-0.2,0-0.3-0.2-0.3-0.5c0.1,0.1,0.2,0.2,0.4,0.2h0.8c0.1,0,0.1,0.1,0.2,0.1
		c0,0.1,0,0.2,0,0.3c0-0.1-0.1-0.1-0.1-0.1H22c0,0.1,0.1,0.1,0.1,0.2c0,0.2-0.1,0.3-0.3,0.3c-0.2,0-0.3-0.1-0.3-0.3
		C21.4,57.6,21.4,57.5,21.4,57.5 M20.5,61.2l0.1-0.2v-0.1v-0.1l0.3,0.5v0.1v0.1l0,0c-0.2,0.3-0.3,0.9-0.1,1.2
		c-0.4-0.1-0.5-0.5-0.5-0.8c-0.7-0.7-0.9-1.4-0.4-2l0.3-0.3c0,0,0-0.1,0.1-0.1v-0.1l0.1,0.5V60c0,0,0,0.1-0.1,0.1l-0.1,0.1
		c-0.3,0.3-0.2,0.7,0.2,1.1C20.4,61.4,20.4,61.3,20.5,61.2 M38.2,63.1c0-0.1,0-0.1,0-0.2c0-0.3-0.3-0.6-0.6-0.6H37h-0.1
		c0,0-0.1,0-0.1-0.1l-0.3-0.4l0.1,0.1h0.1h0.8h0.1c0,0,0.1,0,0.1,0.1l-0.4-0.5l-0.1-0.1h-0.1h-0.8h-0.1c0,0-0.1,0-0.1-0.1l-0.3-0.5
		l0.1,0.1H36h0.8h0.1c0,0,0.1,0,0.1,0.1l-0.4-0.5l-0.1-0.1h-0.1h-0.6h-0.1c0,0-0.1,0-0.1-0.1l-0.4-0.6c0.8-0.1,1.5-0.6,1.7-1.2
		c0.2-0.8-0.6-1.6-1.8-1.8c-0.2,0-0.3-0.2-0.3-0.4s0.1-0.3,0.3-0.4c-0.1-0.1-0.3-0.1-0.4-0.1c-0.5,0-0.9,0.4-0.9,0.8
		c0,0.1,0,0.2,0,0.2c-0.6,0.2-1.1,0.7-1.5,1.2c0.4-0.1,0.9-0.2,1.4-0.2c0,0,0,0,0-0.1c0-0.4,0.3-0.6,0.6-0.6l0,0
		c-0.2,0.1-0.4,0.3-0.4,0.5s0.1,0.3,0.3,0.3c0.1,0,0.1,0,0.2-0.1v-0.1c0-0.3,0.2-0.5,0.5-0.5c0,0,0,0,0.1,0
		c-0.2,0.1-0.3,0.3-0.3,0.5c0,0.3,0.2,0.5,0.5,0.5h0.1v-0.1c0-0.2,0.2-0.4,0.4-0.4s0.4,0.2,0.4,0.4c0,0.4-0.5,0.5-0.8,0.4
		c-1-0.3-2-0.4-2.9-0.3c-1.2,0.2-3.1,1-5.1,0.9c-0.5,0-1-0.1-1.5-0.2c0.1,0.1,0.1,0.1,0.1,0.2c0.2,0.3,0.3,0.6,0.1,1
		c0-0.5-0.4-0.8-0.7-1.1C25,59,25,58.9,25,58.8l0.1-0.5v0.1c0,0,0,0.1,0.1,0.1l0.2,0.2c0.1-0.5,0-1-0.4-1.5c0.1-0.4,0.2-0.8,0.1-1.2
		c0,0.3-0.2,0.4-0.3,0.5c-0.2,0.2-0.3,0.4-0.2,0.6c-0.2-0.1-0.5-0.5-0.3-0.7s0.7-0.1,0.7-0.6c-0.3-0.1-0.7,0-0.8,0
		c-0.2-0.2-0.4-0.3-0.8-0.3c-0.2-0.2-0.6-0.3-1-0.3s-0.7,0.1-1,0.3c-0.3,0-0.6,0.1-0.8,0.3c-0.1,0-0.4-0.1-0.8,0
		c0.1,0.4,0.6,0.3,0.7,0.6c0.2,0.2-0.1,0.6-0.3,0.7c0.1-0.2,0.1-0.4-0.2-0.6c0.1-0.1,0-0.2,0-0.5c-0.1,0.4-0.1,0.8,0.1,1.2
		c-0.3,0.5-0.4,1-0.4,1.5l0.2-0.2c0,0,0-0.1,0.1-0.1v-0.1l0.1,0.5c0,0.1,0,0.2-0.2,0.3c-0.3,0.2-0.7,0.6-0.7,1.1
		c-0.2-0.4-0.1-0.7,0.1-1c-0.6-0.3-1.1-0.9-1.1-1c-0.2-0.2-0.2-0.5,0-0.7c0.3-0.5,0.4-0.9,0-1.3c0,0,0,0,0-0.1
		c0-0.3-0.2-0.6-0.5-0.6c0.1,0.1,0.1,0.2,0.1,0.3s0,0.2-0.1,0.3c0.1,0.1,0.1,0.2,0.1,0.3s-0.1,0.3-0.2,0.3v-0.1
		c0-0.3-0.2-0.6-0.5-0.6c0-0.2-0.2-0.4-0.5-0.4c-0.1,0-0.3,0.1-0.3,0.1c0.2,0,0.3,0.2,0.4,0.3c-0.1,0.1-0.2,0.2-0.2,0.3l0,0
		c0.3,0,0.6,0.3,0.6,0.6V57c0-0.1-0.1-0.3-0.2-0.3c-0.2-0.2-0.4-0.2-0.7-0.1c-0.1-0.1-0.2-0.2-0.4-0.2s-0.3,0.1-0.4,0.2
		c0.2,0,0.3,0.1,0.4,0.2c-0.2,0.3-0.3,0.8,0,1c0.2,0.2,0.4,0.2,0.6,0.1l0,0c0.1,0,0.2,0.1,0.2,0.2c0,0.1-0.1,0.2-0.2,0.2h-0.1
		c-0.1,0-0.1-0.1-0.2-0.1c-0.2,0-0.3,0.2-0.3,0.3l0,0h-0.1c-0.1,0-0.2,0-0.2-0.1v0.1c0,0.2,0.2,0.4,0.4,0.4c0.1,0.3,0.4,0.4,0.7,0.4
		c0.2,0,0.3,0,0.4-0.1c0.1,0,0.1-0.1,0.2-0.1c0.2,0,0.3,0.1,0.3,0.3c0,0.1-0.1,0.3-0.2,0.3L17,59.9h-0.1c0,0-0.1,0-0.1-0.1l0.5,0.5
		c0,0,0.1,0,0.1,0.1h0.1l0.4-0.1H18c0,0,0.1,0,0.1,0.1l0.4,0.4c0,0-0.1,0-0.1-0.1h-0.1l-0.4,0.1h-0.1c0,0-0.1,0-0.1-0.1l0.5,0.5
		c0,0,0.1,0,0.1,0.1h0.1l0.5-0.1H19c0,0,0.1,0,0.1,0.1l0.4,0.4c0,0-0.1,0-0.1-0.1h-0.1l-0.4,0.1h-0.1c0,0-0.1,0-0.1-0.1l0.5,0.5
		c0,0,0.1,0,0.1,0.1h0.1l0.5-0.1c-0.5,0.3-1.1,0.6-1.7,1c-0.4,0.2-0.7,0.3-1.2,0.1c-0.2-0.1-0.5-0.1-0.7-0.1s-0.4,0.2-0.5,0.3
		c0.1,0,0.2-0.1,0.3-0.1c0.2,0,0.4,0.1,0.5,0.2c-0.2-0.1-0.5-0.1-0.7,0c-0.4,0.2-0.7,0.6-0.6,1c-0.2,0.1-0.3,0.2-0.3,0.4
		c0,0.1,0.1,0.2,0.1,0.3c0-0.2,0.2-0.3,0.4-0.4c0.1,0.1,0.2,0.1,0.3,0.1c0-0.1,0.1-0.1,0.1-0.2v-0.1c0-0.4,0.3-0.7,0.7-0.7h0.1
		c-0.3,0.1-0.6,0.4-0.6,0.7v0.1c0,0.1-0.1,0.3-0.1,0.5c0,0.1,0,0.2,0.1,0.3c0.1-0.2,0.4-0.4,0.7-0.4c0.1,0,0.2,0,0.3,0
		c0.1,0,0.1,0,0.2,0c-0.1-0.1-0.1-0.2-0.1-0.3c0-0.3,0.3-0.6,0.6-0.6h0.1c-0.3,0.1-0.5,0.4-0.4,0.6c0,0.2,0.2,0.3,0.4,0.3
		c0,0.1,0,0.2-0.1,0.3c0.3,0,0.5-0.2,0.6-0.4c0.3-0.1,0.5-0.4,0.4-0.6c0-0.1-0.1-0.2-0.2-0.2l0,0c0-0.2,0.1-0.3,0.3-0.3
		c0.2,0,0.3,0.1,0.3,0.3c0,0.1,0,0.2-0.1,0.2h0.6h0.1c0,0,0.1,0,0.1-0.1l0.4-0.6c0,0,0,0,0.1-0.1c0,0,0,0,0.1,0H21h-0.1
		c0,0,0,0-0.1,0.1l-0.4,0.6l-0.1,0.1h-0.1H21h0.1c0,0,0.1,0,0.1-0.1l0.5-0.7c-0.3-0.2-0.4-0.5-0.4-0.9c0-0.3,0.1-0.6,0.2-0.7v-0.1
		v-0.1c0,0,0-0.1-0.1-0.1l0.4,0.4l0.1,0.1v0.1v0.1c0,0.2-0.2,0.5,0.2,0.8c0,0,0.1,0,0.1,0.1l0.3,0.2v-1h0.4v1.1v0.1
		c0,0,0,0.1,0.1,0.1l0.4,0.2h0.1h0.1l0.7-0.3h-0.1h-0.1l-0.8-0.5c0.4-0.3,0.2-0.7,0.2-0.8v-0.1v-0.1c0,0,0-0.1,0.1-0.1l0.4-0.4
		c0,0,0,0.1-0.1,0.1v0.1V62c0,0.3,0.3,0.8,0.1,1l0.7,0.4h0.1h0.1l0.7-0.3h-0.1h-0.1l-0.8-0.5c0.2-0.3,0-0.9-0.1-1.2l0,0v-0.1v-0.1
		l0.3-0.5v0.1v0.1l0.1,0.2c0.1,0.1,0.1,0.1,0.1,0.3c0.4-0.4,0.5-0.8,0.2-1.1l-0.1-0.1c0,0,0-0.1-0.1-0.1V60l0.1-0.5v0.1
		c0,0,0,0.1,0.1,0.1l0.3,0.3c0.5,0.6,0.2,1.3-0.4,1.9c0,0.1,0.1,0.3,0,0.4l0.8,0.5H26h0.1l0.6-0.3h-0.1c-0.2,0-0.3-0.1-0.3-0.3
		c0-0.1,0.1-0.2,0.2-0.3c2.3-0.7,4.3-2.5,5.7-2.5c0.7,0,1.2,0.4,1.2,0.9c0,0.1,0,0.2,0,0.2c-0.3,0.8,0.1,1.6,1.3,1.9
		c0.2,0,0.3,0.2,0.3,0.4v0.1h0.1c0.3,0,0.6-0.2,0.7-0.4c0.2,0,0.4,0,0.6,0c0,0.1,0,0.1,0.1,0.2c0,0.2,0,0.4-0.2,0.5
		c-0.3,0.1-0.6,0-0.8,0c-0.5,0-0.8,0.4-0.8,0.8v0.1c-0.1,0.1-0.2,0.3-0.2,0.4s0,0.2,0.1,0.3c0.1-0.2,0.3-0.3,0.5-0.4
		c0-0.4,0.4-0.7,0.8-0.7c0.1,0,0.1,0,0.2,0c-0.4,0.1-0.7,0.4-0.7,0.8v0.1c-0.1,0.1-0.1,0.1-0.1,0.2s0,0.2,0.1,0.3
		c0.1-0.2,0.3-0.3,0.5-0.4s0.3-0.1,0.5,0c0-0.1,0-0.1,0-0.2c0-0.4,0.3-0.7,0.7-0.7h0.1c-0.3,0-0.5,0.3-0.5,0.5s0.1,0.3,0.2,0.4l0,0
		c0,0.1,0.1,0.3,0.2,0.4c0-0.2,0.3-0.4,0.5-0.4s0.4,0,0.5-0.1c0.2-0.1,0.4-0.3,0.4-0.5c0-0.2-0.1-0.3-0.2-0.4c0.1-0.3,0.1-0.7,0-1.1
		c0,0,0,0,0.1,0C38,62.9,38.1,63,38.2,63.1 M46.4,26.7h-0.8v46.5h0.8V26.7z"/>
	<path class="st0" d="M131.6,48.1h-1.1v5h0.9v-3.3l0,0l1.1,3.3h0.6l1.1-3.3l0,0V53h0.9v-5H134l-1.2,3.9l0,0L131.6,48.1z M128.4,48.1
		v3.2c0,0.4-0.1,0.6-0.3,0.8s-0.4,0.3-0.7,0.3c-0.3,0-0.5-0.1-0.7-0.3s-0.3-0.5-0.3-0.8v-3.2h-0.9v3.2c0,0.6,0.2,1,0.5,1.3
		s0.8,0.5,1.3,0.5s1-0.2,1.3-0.5s0.5-0.7,0.5-1.3v-3.2H128.4z M124.4,48.1h-0.9v5h0.9V48.1z M119.7,48.8h0.8c0.2,0,0.4,0.1,0.6,0.2
		c0.1,0.2,0.2,0.4,0.2,0.6c0,0.3-0.1,0.5-0.2,0.6s-0.3,0.2-0.6,0.2h-0.8V48.8z M120.6,51.1c0.2,0,0.4,0.1,0.5,0.2
		c0.1,0.1,0.2,0.3,0.2,0.6v0.4c0,0.1,0,0.3,0,0.4c0,0.1,0,0.2,0.1,0.3h0.9l0,0c0-0.1-0.1-0.2-0.1-0.3s0-0.3,0-0.4v-0.5
		c0-0.3-0.1-0.5-0.2-0.8c-0.1-0.2-0.3-0.3-0.6-0.4c0.2-0.1,0.4-0.3,0.5-0.5s0.2-0.4,0.2-0.7c0-0.5-0.1-0.8-0.4-1.1s-0.7-0.4-1.2-0.4
		h-1.7v5h0.9v-2h0.9V51.1z M117.3,50.2h-1.8v-1.4h2.1v-0.7h-3v5h3v-0.7h-2.1v-1.6h1.8V50.2z M113.2,50.2h-1.8v-1.4h2.1v-0.7h-3v5h3
		v-0.7h-2.1v-1.6h1.8V50.2z M109.7,48.1h-3.4v0.7h1.3v4.3h0.9v-4.3h1.3v-0.7H109.7z M104.8,52.3c-0.1,0.1-0.4,0.2-0.6,0.2
		c-0.3,0-0.5-0.1-0.6-0.2c-0.2-0.1-0.3-0.4-0.3-0.7h-0.8l0,0c0,0.5,0.1,0.9,0.5,1.1c0.3,0.2,0.7,0.4,1.3,0.4c0.5,0,0.9-0.1,1.3-0.4
		c0.3-0.2,0.5-0.6,0.5-1s-0.1-0.7-0.4-1c-0.2-0.2-0.6-0.4-1.1-0.6c-0.4-0.1-0.6-0.2-0.8-0.4c-0.1-0.1-0.2-0.3-0.2-0.5
		s0.1-0.4,0.2-0.5s0.3-0.2,0.6-0.2c0.3,0,0.5,0.1,0.6,0.2c0.1,0.2,0.2,0.4,0.2,0.6h0.8l0,0c0-0.5-0.1-0.8-0.4-1.1s-0.7-0.4-1.2-0.4
		s-0.9,0.1-1.2,0.4c-0.3,0.3-0.4,0.6-0.4,1s0.1,0.7,0.4,1c0.2,0.2,0.6,0.4,1.2,0.5c0.4,0.1,0.6,0.2,0.7,0.4c0.1,0.1,0.2,0.3,0.2,0.5
		C105,52,104.9,52.2,104.8,52.3 M101.3,48.1h-0.9v5h0.9V48.1z M99,48.1h-0.9v3.4l0,0l-1.9-3.4h-0.9v5h0.9v-3.4l0,0l1.9,3.4H99V48.1z
		 M94,48.1h-0.9v5H94V48.1z M88.5,48.1h-1.1v5h0.9v-3.3l0,0l1.1,3.3H90l1.1-3.3l0,0V53H92v-5h-1.1l-1.3,4l0,0L88.5,48.1z M86.1,48.1
		h-0.9v5h0.9V48.1z M81.6,48.8h0.8c0.2,0,0.4,0.1,0.6,0.2c0.1,0.2,0.2,0.4,0.2,0.6c0,0.3-0.1,0.5-0.2,0.6s-0.3,0.2-0.6,0.2h-0.8
		V48.8z M82.5,51.1c0.2,0,0.4,0.1,0.5,0.2c0.1,0.1,0.2,0.3,0.2,0.6v0.4c0,0.1,0,0.3,0,0.4c0,0.1,0,0.2,0.1,0.3h0.9l0,0
		c0-0.1-0.1-0.2-0.1-0.3s0-0.3,0-0.4v-0.5c0-0.3-0.1-0.5-0.2-0.8c-0.1-0.2-0.3-0.3-0.6-0.4c0.2-0.1,0.4-0.3,0.5-0.5s0.2-0.4,0.2-0.7
		c0-0.5-0.1-0.8-0.4-1.1s-0.7-0.4-1.2-0.4h-1.7v5h0.9v-2h0.9V51.1z M78.6,48.1v3.2c0,0.4-0.1,0.6-0.3,0.8c-0.2,0.2-0.4,0.3-0.7,0.3
		c-0.3,0-0.5-0.1-0.7-0.3s-0.3-0.5-0.3-0.8v-3.2h-0.9v3.2c0,0.6,0.2,1,0.5,1.3s0.8,0.5,1.3,0.5s1-0.2,1.3-0.5s0.5-0.7,0.5-1.3v-3.2
		H78.6z M73.8,48.1v3.2c0,0.4-0.1,0.6-0.3,0.8c-0.2,0.2-0.4,0.3-0.7,0.3c-0.3,0-0.5-0.1-0.7-0.3s-0.3-0.5-0.3-0.8v-3.2H71v3.2
		c0,0.6,0.2,1,0.5,1.3s0.8,0.5,1.3,0.5s1-0.2,1.3-0.5s0.5-0.7,0.5-1.3v-3.2H73.8z M70.2,48.1h-3.4v0.7H68v4.3h0.9v-4.3h1.3
		C70.2,48.8,70.2,48.1,70.2,48.1z M64.4,48.1h-0.9v5h2.7v-0.7h-1.8C64.4,52.4,64.4,48.1,64.4,48.1z M61.5,48.1v3.2
		c0,0.4-0.1,0.6-0.3,0.8s-0.4,0.3-0.7,0.3s-0.5-0.1-0.7-0.3s-0.3-0.5-0.3-0.8v-3.2h-0.9v3.2c0,0.6,0.2,1,0.5,1.3s0.8,0.5,1.3,0.5
		s1-0.2,1.3-0.5s0.5-0.7,0.5-1.3v-3.2H61.5z M56.9,53.1H58l-2.1-3.3l1.9-2.9h-1l-1.6,2.7h-0.5v-2.7h-0.9v6.2h0.9v-2.8h0.6L56.9,53.1
		z"/>
</g>
</svg>
