<?xml version="1.0" encoding="utf-8"?>
<!-- Generator: Adobe Illustrator 24.2.3, SVG Export Plug-In . SVG Version: 6.00 Build 0)  -->
<svg version="1.1" id="Layer_1" xmlns="http://www.w3.org/2000/svg" xmlns:xlink="http://www.w3.org/1999/xlink" x="0px" y="0px"
	 viewBox="0 0 160 90" style="enable-background:new 0 0 160 90;" xml:space="preserve">
<style type="text/css">
	.st0{fill:#FFFFFF;}
</style>
<g>
	<g>
		<path class="st0" d="M80,51.5c-25.6,0-45.9-23.1-46.7-24.1s-0.8-2.4,0-3.3s19.7-22.5,44-24c1.4-0.1,2.6,1,2.7,2.4s-1,2.6-2.4,2.7
			c-18.4,1.1-34,15.5-38.9,20.5c2,2.1,6,5.9,11.2,9.6c7.1,5.1,18,11.1,30.1,11.1s23-6,30.1-11.1c7.8-5.6,12.7-11.2,12.8-11.3
			c0.9-1.1,2.5-1.2,3.6-0.3c1.1,0.9,1.2,2.5,0.3,3.6C125.9,28.4,105.6,51.5,80,51.5z"/>
	</g>
	<g>
		<path class="st0" d="M76.9,41.5c-0.4,0-0.9-0.1-1.3-0.3c-0.8-0.5-1.3-1.3-1.3-2.2V12.5c0-0.9,0.5-1.8,1.3-2.2
			c0.8-0.5,1.8-0.5,2.6,0l22.9,13.2c0.8,0.5,1.3,1.3,1.3,2.2c0,0.9-0.5,1.8-1.3,2.2L78.2,41.2C77.8,41.4,77.4,41.5,76.9,41.5z
			 M79.5,16.9v17.6l15.3-8.8L79.5,16.9z"/>
	</g>
	<g>
		<g>
			<path class="st0" d="M44.2,65.2h-4.7c-0.3,0-0.5,0.2-0.5,0.5V79c0,0.3,0.2,0.5,0.5,0.5h4.7c4,0,7.2-3.2,7.2-7.2
				C51.4,68.4,48.1,65.2,44.2,65.2z M41.8,67.9h2.1c2.5,0,4.3,1.8,4.3,4.4s-1.8,4.4-4.3,4.4h-2.1V67.9z"/>
		</g>
		<g>
			<path class="st0" d="M64.2,69.7c0-2.5-2-4.5-4.5-4.5H54c-0.3,0-0.5,0.2-0.5,0.5V79c0,0.3,0.2,0.5,0.5,0.5h1.8
				c0.3,0,0.5-0.3,0.5-0.5v-5h1.9l2.6,5.2c0,0.1,0.2,0.3,0.5,0.3h2.1c0.2,0,0.4-0.1,0.5-0.3c0.1-0.2,0.1-0.4,0-0.6l-2.6-4.9
				C63.1,73,64.2,71.4,64.2,69.7z M59.5,71.6h-3.1V68h3.1c1,0,1.8,0.8,1.8,1.8C61.3,70.7,60.5,71.6,59.5,71.6z"/>
		</g>
		<g>
			<path class="st0" d="M69.2,65.2h-1.9c-0.3,0-0.5,0.3-0.5,0.5V79c0,0.3,0.3,0.5,0.5,0.5h1.9c0.3,0,0.5-0.3,0.5-0.5V65.7
				C69.8,65.5,69.5,65.2,69.2,65.2z"/>
		</g>
		<g>
			<path class="st0" d="M84.9,65.2h-2c-0.2,0-0.4,0.2-0.5,0.3l-3.8,8.4l-3.8-8.4c-0.1-0.2-0.2-0.3-0.5-0.3h-2
				c-0.2,0-0.4,0.1-0.5,0.2c-0.1,0.2-0.1,0.3,0,0.5L78,79.4c0.1,0.3,0.3,0.3,0.5,0.3h0.2c0.2,0,0.4-0.1,0.5-0.3L85.4,66
				c0.1-0.2,0.1-0.4,0-0.5C85.2,65.3,85.1,65.2,84.9,65.2z"/>
		</g>
		<g>
			<path class="st0" d="M95.8,65.2h-8.1c-0.3,0-0.5,0.2-0.5,0.5V79c0,0.3,0.2,0.5,0.5,0.5h8.1c0.3,0,0.5-0.2,0.5-0.5v-1.6
				c0-0.3-0.2-0.5-0.5-0.5h-5.7v-3.2h4.8c0.3,0,0.5-0.2,0.5-0.5v-1.7c0-0.3-0.3-0.5-0.5-0.5h-4.8v-2.9h5.7c0.3,0,0.5-0.2,0.5-0.5V66
				C96.4,65.4,96.1,65.2,95.8,65.2z"/>
		</g>
		<g>
			<path class="st0" d="M104.9,65.2H103c-0.3,0-0.5,0.3-0.5,0.5V79c0,0.3,0.3,0.5,0.5,0.5h1.9c0.3,0,0.5-0.3,0.5-0.5V65.7
				C105.4,65.5,105.2,65.2,104.9,65.2z"/>
		</g>
		<g>
			<path class="st0" d="M120.3,65.2h-1.8c-0.3,0-0.5,0.2-0.5,0.5v7.9l-8.1-8.6h-0.6c-0.3,0-0.5,0.2-0.5,0.5V79
				c0,0.3,0.3,0.5,0.5,0.5h1.8c0.3,0,0.5-0.2,0.5-0.5v-8.2l8.1,8.9h0.6c0.3,0,0.5-0.2,0.5-0.5V65.7
				C120.9,65.5,120.6,65.2,120.3,65.2z"/>
		</g>
	</g>
	<g>
		<path class="st0" d="M40.5,86.7c0.5,0,0.8,0.2,1.1,0.4v0.1l-0.1,0.1h-0.1c-0.2-0.2-0.6-0.3-0.9-0.3c-0.7,0-1.3,0.6-1.3,1.3
			c0,0.7,0.6,1.3,1.3,1.3c0.4,0,0.6-0.2,0.9-0.3h0.1l0.1,0.1v0.1c-0.3,0.3-0.7,0.4-1.1,0.4c-0.9,0-1.7-0.7-1.7-1.7
			C38.8,87.4,39.6,86.7,40.5,86.7z"/>
		<path class="st0" d="M45.8,86.8C45.8,86.8,45.8,86.7,45.8,86.8l0.3-0.1c0,0,0.1,0,0.1,0.1v3.1c0,0,0,0.1-0.1,0.1h-0.2
			c0,0-0.1,0-0.1-0.1V86.8z"/>
		<path class="st0" d="M50.6,86.8C50.6,86.7,50.6,86.7,50.6,86.8l0.2-0.1l2.1,2.6l0,0v-2.5c0,0,0-0.1,0.1-0.1h0.2c0,0,0.1,0,0.1,0.1
			v3.1c0,0,0,0.1-0.1,0.1H53l-2.1-2.6l0,0v2.5c0,0,0,0.1-0.1,0.1h-0.2c0,0-0.1,0-0.1-0.1L50.6,86.8L50.6,86.8z"/>
		<path class="st0" d="M57.6,86.8C57.6,86.8,57.7,86.7,57.6,86.8l1.9-0.1c0.1,0,0.1,0,0.1,0.1v0.1c0,0,0,0.1-0.1,0.1H58v1.1h1.3
			c0,0,0.1,0,0.1,0.1v0.1c0,0.1,0,0.1-0.1,0.1H58v1.2h1.6c0.1,0,0.1,0,0.1,0.1v0.1c0,0,0,0.1-0.1,0.1h-1.8c-0.1,0-0.1,0-0.1-0.1v-3
			H57.6z"/>
		<path class="st0" d="M64,86.7L64,86.7l0.2-0.1c0,0,0.1,0,0.1,0.1l0.9,2.5l0,0l0.9-2.5c0,0,0-0.1,0.1-0.1h0.1c0,0,0.1,0,0.1,0.1
			l0.6,3.1c0,0.1,0,0.1-0.1,0.1h-0.2c0,0-0.1,0-0.1-0.1l-0.4-2.4l0,0l-0.9,2.4l-0.1,0.1h-0.1c0,0-0.1,0-0.1-0.1l-0.9-2.4l0,0
			l-0.4,2.4c0,0,0,0.1-0.1,0.1h-0.2c-0.1,0-0.1,0-0.1-0.1L64,86.7z"/>
		<path class="st0" d="M70.6,89.8l1.4-3.1c0,0,0-0.1,0.1-0.1l0,0c0,0,0.1,0,0.1,0.1l1.4,3.1c0,0.1,0,0.1-0.1,0.1h-0.2
			c0,0-0.1,0-0.1-0.1L73,89.1h-1.6L71,89.9c0,0,0,0.1-0.1,0.1h-0.2C70.6,90,70.6,89.9,70.6,89.8z M72.8,88.9c-0.2-0.5-0.4-1-0.7-1.5
			l0,0l-0.7,1.5H72.8z"/>
		<path class="st0" d="M82.1,86.8C82.1,86.8,82.1,86.7,82.1,86.8l1.3-0.1c0.6,0,1,0.4,1,1c0,0.4-0.3,0.8-0.7,0.9l0.6,1.2
			c0,0.1,0,0.1-0.1,0.1H84h-0.1l-0.6-1.2h-0.9v1.2c0,0,0,0.1-0.1,0.1h-0.2C82,90,82,90,82,89.9L82.1,86.8L82.1,86.8z M83.4,88.4
			c0.4,0,0.7-0.3,0.7-0.7c0-0.4-0.3-0.7-0.7-0.7h-0.9v1.3L83.4,88.4L83.4,88.4z"/>
		<path class="st0" d="M88.6,86.8C88.6,86.8,88.7,86.7,88.6,86.8l1.9-0.1c0.1,0,0.1,0,0.1,0.1v0.1c0,0,0,0.1-0.1,0.1H89v1.1h1.3
			c0,0,0.1,0,0.1,0.1v0.1c0,0.1,0,0.1-0.1,0.1H89v1.2h1.6c0.1,0,0.1,0,0.1,0.1v0.1c0,0,0,0.1-0.1,0.1h-1.8c-0.1,0-0.1,0-0.1-0.1
			L88.6,86.8L88.6,86.8z"/>
		<path class="st0" d="M94.8,86.8C94.8,86.7,94.9,86.7,94.8,86.8l0.2-0.1l2.1,2.6l0,0v-2.5c0,0,0-0.1,0.1-0.1h0.2c0,0,0.1,0,0.1,0.1
			v3.1c0,0,0,0.1-0.1,0.1h-0.1l-2.1-2.6l0,0v2.5c0,0,0,0.1-0.1,0.1h-0.2c0,0-0.1,0-0.1-0.1V86.8z"/>
		<path class="st0" d="M102.2,87h-0.8c-0.1,0-0.1,0-0.1-0.1v-0.1c0,0,0-0.1,0.1-0.1h2c0.1,0,0.1,0,0.1,0.1v0.1c0,0,0,0.1-0.1,0.1
			h-0.8v2.8c0,0,0,0.1-0.1,0.1h-0.2c0,0-0.1,0-0.1-0.1V87z"/>
		<path class="st0" d="M106.6,89.8l1.4-3.1c0,0,0-0.1,0.1-0.1l0,0c0,0,0.1,0,0.1,0.1l1.4,3.1c0,0.1,0,0.1-0.1,0.1h-0.2
			c0,0-0.1,0-0.1-0.1l-0.3-0.8h-1.6l-0.3,0.8c0,0,0,0.1-0.1,0.1h-0.2C106.6,90,106.5,89.9,106.6,89.8z M108.7,88.9
			c-0.2-0.5-0.4-1-0.7-1.5l0,0l-0.7,1.5H108.7z"/>
		<path class="st0" d="M113.5,86.8C113.5,86.8,113.6,86.7,113.5,86.8l0.3-0.1c0,0,0.1,0,0.1,0.1v2.8h1.3c0.1,0,0.1,0,0.1,0.1v0.1
			c0,0,0,0.1-0.1,0.1h-1.6c-0.1,0-0.1,0-0.1-0.1C113.5,89.8,113.5,86.8,113.5,86.8z"/>
		<path class="st0" d="M119.1,89.5C119.1,89.4,119.1,89.4,119.1,89.5c0.1-0.1,0.2-0.2,0.2-0.1c0,0,0.4,0.4,0.8,0.4s0.6-0.2,0.6-0.5
			s-0.3-0.5-0.8-0.7s-0.8-0.4-0.8-1c0-0.3,0.2-0.8,1-0.8c0.5,0,0.8,0.2,0.8,0.2s0.1,0.1,0,0.2c0,0,0,0.1-0.1,0.1
			c0,0.1-0.1,0.1-0.2,0c0,0-0.3-0.2-0.6-0.2c-0.5,0-0.6,0.3-0.6,0.5c0,0.3,0.2,0.5,0.6,0.7c0.6,0.3,1,0.5,1,1s-0.5,0.8-1,0.8
			s-0.9-0.3-1-0.4C119,89.6,119,89.6,119.1,89.5z"/>
	</g>
</g>
</svg>
