<?xml version="1.0" encoding="utf-8"?>
<!-- Generator: Adobe Illustrator 24.2.3, SVG Export Plug-In . SVG Version: 6.00 Build 0)  -->
<svg version="1.1" id="Layer_1" xmlns="http://www.w3.org/2000/svg" xmlns:xlink="http://www.w3.org/1999/xlink" x="0px" y="0px"
	 viewBox="0 0 160 90" style="enable-background:new 0 0 160 90;" xml:space="preserve">
<style type="text/css">
	.st0{fill:#FFFFFF;}
</style>
<g>
	<g>
		<path class="st0" d="M107.8,41.8c-0.2-0.1-0.6-0.1-1.1-0.1H106v2.7h0.7c0.9,0,1.2-0.1,1.5-0.3c0.2-0.2,0.4-0.6,0.4-1
			C108.5,42.4,108.3,42,107.8,41.8z"/>
		<path class="st0" d="M108.6,15.1c0-1-0.1-1.7-0.3-2.3c-0.2-0.5-0.7-1.3-1.7-1.3c-0.7,0-1.3,0.3-1.5,0.9c-0.3,0.6-0.5,1.5-0.5,2.7
			c0,1.7,0.3,2.8,0.9,3.2c0.3,0.2,0.7,0.3,1.2,0.3C108,18.7,108.6,17.6,108.6,15.1z"/>
		<path class="st0" d="M98.8,27.3c-0.1,0.2-0.3,1.3-0.5,1.9c-0.2,0.7-0.3,1.2-0.5,1.8h1.9c-0.1-0.2-0.4-1.3-0.5-2L98.8,27.3z"/>
		<path class="st0" d="M107.8,26.9c-0.2-0.1-0.6-0.1-1.1-0.1H106v2.7h0.7c0.9,0,1.2-0.1,1.5-0.3c0.2-0.2,0.4-0.6,0.4-1
			C108.5,27.5,108.3,27,107.8,26.9z"/>
		<path class="st0" d="M98.8,42.2c-0.1,0.2-0.3,1.3-0.5,1.9c-0.2,0.7-0.3,1.2-0.5,1.8h1.9c-0.1-0.2-0.4-1.3-0.5-2L98.8,42.2z"/>
		<path class="st0" d="M95.6,18.3c0.3,0.2,0.7,0.3,1.2,0.3c1.4,0,2-1.1,2-3.6c0-1-0.1-1.7-0.3-2.3c-0.2-0.5-0.7-1.3-1.7-1.3
			c-0.7,0-1.3,0.3-1.5,0.9c-0.3,0.6-0.5,1.5-0.5,2.7C94.7,16.9,95,17.9,95.6,18.3z"/>
		<path class="st0" d="M80.6,0v75.8v4.2c0,1.4,1.3,0.5,2.7-0.1c1.1-0.4,1.4-0.5,1.8-0.5c0.6,0,1.8,0.7,2.5,0.7c1.7,0,1.7-1,4-1
			c2.6,0,5.3,2.7,9.1,2.7c2.4,0,4.1-1.2,6.6-1.2c3.9,0,4.2,1.8,5.3,1.8c1.1,0,1.9-2.1,4.8-2.1c2.7,0,3.3,2.8,5.5,2.8
			c1.8,0,2.6-1.4,4-1.4c1.2,0,2.3,1.6,3.9,1.6c2.1,0,3.6-2.8,6.8-2.8c5,0,6.9,1.8,8.7,1.8c1.3,0,1.9-0.4,3.6-1
			c1.6-0.7,4.4-0.9,6.3-0.4c1.8,0.4,3.3-0.2,3.3-1.3v-0.3h0V0H80.6z M113.2,10.2l1.6,5.1c0.1,0.4,0.3,1,0.5,1.7
			c0.1-0.6,0.4-1.4,0.6-2l1.7-4.9h2.1l-3.4,10h-1.8l-3.4-10H113.2z M115.8,30.9l-1.1-0.3c-1-0.3-1.6-0.7-1.9-1.3
			c-0.3-0.4-0.4-1-0.4-1.5c0-1.8,1.5-3.1,3.5-3.1c1.2,0,2.4,0.4,3.3,1l-0.9,1.4c-0.9-0.5-1.6-0.8-2.3-0.8c-0.8,0-1.4,0.5-1.4,1.1
			c0,0.5,0.3,0.8,1.1,1l1.2,0.3c1.6,0.4,2.5,1.5,2.5,2.9c0,2-1.6,3.3-4.1,3.3c-1.1,0-2.4-0.3-3.4-0.9l0.7-1.5
			c0.9,0.5,1.7,0.8,2.7,0.8c1.1,0,1.7-0.5,1.7-1.4C117.1,31.6,116.7,31.2,115.8,30.9z M108.8,31.2c0.5,0.6,2,3.2,2.4,3.8h-2.3
			c-0.4-0.7-0.5-0.9-0.9-1.6c-1-1.8-1.3-2.3-1.6-2.4c-0.1,0-0.2-0.1-0.3-0.1V35H104v-9.9h3.7c1.7,0,2.9,1.2,2.9,2.9
			c0,1.5-1,2.7-2.2,2.7C108.6,30.9,108.7,31,108.8,31.2z M101.4,23.7c0,0.6-0.5,1.1-1.1,1.1c-0.6,0-1.1-0.5-1.1-1.1s0.5-1.1,1.1-1.1
			C100.9,22.6,101.4,23.1,101.4,23.7z M94.7,10.5c0.6-0.3,1.3-0.5,2-0.5c2.6,0,4.3,1.9,4.3,5c0,2.2-0.8,3.9-2.2,4.7
			c-0.6,0.3-1.2,0.5-2,0.5c-1.5,0-2.5-0.4-3.2-1.4c-0.8-1-1.1-2.2-1.1-3.7C92.5,13,93.3,11.3,94.7,10.5z M98.4,23.7
			c0,0.6-0.5,1.1-1.1,1.1c-0.6,0-1.1-0.5-1.1-1.1s0.5-1.1,1.1-1.1C97.9,22.6,98.4,23.1,98.4,23.7z M86.7,10.2h2v8.2h3.5l-0.4,1.6
			h-5.2V10.2z M88.8,25.1l1.6,5.1c0.1,0.4,0.3,1,0.5,1.7c0.1-0.6,0.4-1.4,0.6-2l1.7-4.9h2.1l-3.4,10h-1.8l-3.4-10H88.8z M89.9,50
			l-3.4-10h2.2l1.6,5.1c0.1,0.4,0.3,1,0.5,1.7c0.1-0.6,0.4-1.4,0.6-2l1.7-4.9h2.1l-3.4,10H89.9z M100.9,50l-0.7-2.3h-2.9L96.6,50
			h-2.1l3.2-9.9h2.1L103,50H100.9z M96.2,38.7c0-0.6,0.5-1.1,1.1-1.1c0.6,0,1.1,0.5,1.1,1.1c0,0.6-0.5,1.1-1.1,1.1
			C96.7,39.8,96.2,39.3,96.2,38.7z M99.3,38.7c0-0.6,0.5-1.1,1.1-1.1c0.6,0,1.1,0.5,1.1,1.1c0,0.6-0.5,1.1-1.1,1.1
			C99.8,39.8,99.3,39.3,99.3,38.7z M100.9,35l-0.7-2.3h-2.9L96.6,35h-2.1l3.2-9.9h2.1L103,35H100.9z M103.5,18.8
			c-0.8-1-1.1-2.2-1.1-3.7c0-2.1,0.8-3.8,2.2-4.6c0.6-0.3,1.3-0.5,2-0.5c2.6,0,4.3,1.9,4.3,5c0,2.2-0.8,3.9-2.2,4.7
			c-0.6,0.3-1.2,0.5-2,0.5C105.2,20.2,104.2,19.8,103.5,18.8z M108.9,50c-0.4-0.7-0.5-0.9-0.9-1.6c-1-1.8-1.3-2.3-1.6-2.4
			c-0.1,0-0.2-0.1-0.3-0.1V50H104v-9.9h3.7c1.7,0,2.9,1.2,2.9,2.9c0,1.5-1,2.7-2.2,2.7c0.2,0.2,0.3,0.2,0.4,0.4
			c0.5,0.6,2,3.2,2.4,3.8H108.9z M116.4,50h-1.8l-3.4-10h2.2l1.6,5.1c0.1,0.4,0.3,1,0.5,1.7c0.1-0.6,0.4-1.4,0.6-2l1.7-4.9h2.1
			L116.4,50z M120.4,17.1v-6.9h2v6.5c0,0.6,0.1,1,0.2,1.2c0.2,0.4,0.7,0.7,1.4,0.7c0.9,0,1.4-0.4,1.5-1.2c0-0.2,0-0.4,0-0.9v-6.3h2
			v6.7c0,0.9,0,1.1-0.2,1.5c-0.3,0.8-1.2,1.9-3.4,1.9c-1.5,0-2.6-0.5-3.2-1.3C120.5,18.4,120.4,18,120.4,17.1z M126,35l-3-5.2V35h-2
			v-9.9h2v4.5l2.8-4.5h2.4l-3.2,4.6l3.5,5.3H126z M135.2,35h-5.8v-9.9h5.6l-0.3,1.6h-3.4V29h2.8v1.6h-2.8v2.6h3.7V35z M132.4,20.3
			c-1.1,0-2.4-0.3-3.4-0.9l0.7-1.5c0.9,0.5,1.7,0.8,2.7,0.8c1.1,0,1.7-0.5,1.7-1.4c0-0.6-0.4-1-1.3-1.3l-1.1-0.3
			c-1-0.3-1.6-0.7-1.9-1.3c-0.3-0.4-0.4-1-0.4-1.5c0-1.8,1.5-3.1,3.5-3.1c1.2,0,2.4,0.4,3.3,1l-0.9,1.4c-0.9-0.5-1.6-0.8-2.3-0.8
			c-0.8,0-1.4,0.5-1.4,1.1c0,0.5,0.3,0.8,1.1,1L134,14c1.6,0.4,2.5,1.5,2.5,2.9C136.5,18.9,134.9,20.3,132.4,20.3z M143.7,20.1H138
			v-9.9h5.6l-0.3,1.6H140v2.3h2.8v1.6H140v2.6h3.7V20.1z"/>
	</g>
	<g>
		<path class="st0" d="M13.4,47.5c-0.3,0-0.5,0.2-0.5,0.7v0h0.9v0c0-0.2,0-0.3-0.1-0.5C13.6,47.5,13.5,47.5,13.4,47.5z"/>
		<path class="st0" d="M15.8,49.1c0,0.2,0.1,0.4,0.3,0.4c0.1,0,0.3-0.1,0.4-0.2l0-0.7h0C16,48.6,15.8,48.7,15.8,49.1z"/>
		<path class="st0" d="M26,47.5c-0.3,0-0.5,0.2-0.5,0.7v0h0.9v0c0-0.2,0-0.3-0.1-0.5C26.3,47.5,26.2,47.5,26,47.5z"/>
		<path class="st0" d="M26,42c0-0.2,0-0.3-0.1-0.5c-0.1-0.1-0.2-0.2-0.3-0.2c-0.3,0-0.5,0.2-0.5,0.7v0L26,42L26,42z"/>
		<path class="st0" d="M35,48.5c0,0.7,0.1,0.9,0.6,0.9c0.1,0,0.3-0.1,0.4-0.2v-1.4c-0.1-0.1-0.3-0.2-0.4-0.2
			C35.1,47.5,35,47.8,35,48.5z"/>
		<path class="st0" d="M36,41.4c-0.3,0-0.5,0.2-0.5,0.7v0h0.9v0c0-0.2,0-0.3-0.1-0.5C36.2,41.4,36.1,41.4,36,41.4z"/>
		<path class="st0" d="M42.2,41.4c-0.2,0-0.3,0.1-0.4,0.3c-0.1,0.2-0.1,0.4-0.1,0.7c0,0.3,0,0.6,0.1,0.8c0.1,0.2,0.2,0.2,0.4,0.2
			c0.3,0,0.5-0.3,0.5-1c0-0.4-0.1-0.7-0.2-0.8C42.4,41.5,42.3,41.4,42.2,41.4z"/>
		<path class="st0" d="M18.4,12.5c0.1-0.1,0.2-0.3,0.2-0.6c0-0.4-0.1-0.6-0.4-0.7c-0.1-0.1-0.4-0.1-0.7-0.1h-0.4v1.6h0.4
			C18,12.7,18.2,12.7,18.4,12.5z"/>
		<path class="st0" d="M10.7,43.2l0-0.7h0c-0.6,0-0.7,0.1-0.7,0.5c0,0.2,0.1,0.4,0.3,0.4C10.5,43.4,10.6,43.4,10.7,43.2z"/>
		<path class="st0" d="M18.8,20.5c-0.4,0-0.7,0.2-0.9,0.5c-0.2,0.4-0.3,0.9-0.3,1.6c0,1,0.2,1.6,0.5,1.9c0.2,0.1,0.4,0.2,0.7,0.2
			c0.8,0,1.2-0.6,1.2-2.1c0-0.6-0.1-1-0.2-1.4C19.8,20.9,19.4,20.5,18.8,20.5z"/>
		<path class="st0" d="M13,12.5l-0.2-1c0,0.1-0.2,0.7-0.3,1.1c-0.1,0.4-0.2,0.7-0.3,1.1h1.1C13.3,13.6,13.1,12.9,13,12.5z"/>
		<path class="st0" d="M13,20.5c-0.4,0-0.7,0.2-0.9,0.5c-0.2,0.4-0.3,0.9-0.3,1.6c0,1,0.2,1.6,0.5,1.9c0.2,0.1,0.4,0.2,0.7,0.2
			c0.8,0,1.2-0.6,1.2-2.1c0-0.6-0.1-1-0.2-1.4C13.9,20.9,13.6,20.5,13,20.5z"/>
		<path class="st0" d="M42.7,22l-0.2-1c0,0.1-0.2,0.7-0.3,1.1c-0.1,0.4-0.2,0.7-0.3,1.1H43C43,23,42.8,22.4,42.7,22z"/>
		<path class="st0" d="M60.2,20.6h-0.5v4h0.6c0.8,0,1.1-0.6,1.1-1.8c0-0.7-0.1-1.3-0.3-1.6C60.9,20.8,60.7,20.6,60.2,20.6z"/>
		<path class="st0" d="M50,20.9c0,0.1-0.2,0.7-0.3,1.1c-0.1,0.4-0.2,0.7-0.3,1.1h1.1c0-0.1-0.2-0.8-0.3-1.2L50,20.9z"/>
		<path class="st0" d="M50.7,47.5c-0.3,0-0.5,0.2-0.5,0.7v0h0.9v0c0-0.2,0-0.3-0.1-0.5C51,47.5,50.9,47.5,50.7,47.5z"/>
		<path class="st0" d="M79.4,77.1V0H0.5v78.9h0V81c0,0.9,1.1,0.3,2-1c0.5-0.7,1.2-1,1.9-1.1H5c1.1,0.1,2,0.9,2,2.2
			c0,0.5-0.5,1.4-0.5,2.2c0,0.9,0.5,1.8,1.3,1.8c0.8,0,1.3-0.8,1.3-1.7c0-0.8-0.5-1.7-0.5-2.3c0-0.6,0.3-1.3,1.1-1.3
			c1,0,1.7,0.7,2.1,1.4c0.5,1,0.5,1.7,0.5,3c0,1.3-0.6,2.5-0.6,3.7c0,1.2,0.7,2.1,1.7,2.1c1,0,1.6-0.9,1.6-2c0-1.1-0.7-2.5-0.7-3.8
			c0-1.3,0.2-3.4,1.4-3.4c1.2,0,1.3,1.6,2,1.6c0.7,0,0.7-0.9,1.4-0.9c0.6,0,1.3,0.4,1.9,1.9c0.7,1.5,1.2,3.6,2.4,3.6
			c1.3,0,2.2-3.3,4-4.7c1.6-1.1,3.8-1,4.9,0.7c0.8,1.2,1.2,1.1,1.8-0.6c0.6-1.7,2.5-1.1,4.2,1.2c1,1.3,1.4,2,2.8,2
			c1.4,0,2.8-2.1,4.3-2.7c1.8-0.8,4,0.3,5.1,1.2c1.2,1,2.7,0.2,3.3-1.7c0.7-1.9,2.2-2,3.4-0.3c1.2,1.7,2.4,1.8,3,0.4
			c0.6-1.4,1.7-2.4,3-2.1c1.2,0.3,1.9,0.7,2.8,0.7c1,0,1.9-0.4,3.6-1c1.6-0.7,3-0.3,3.1,0.7c0.1,1.1,1,1.6,1.5,0.7
			c2.7-4.5,5,0.2,5-1.5L79.4,77.1L79.4,77.1z M45.5,25.6c0.1-0.2,0.1-0.4,0.1-1.1v-4.9h1.2v4.7c0,0.8,0,0.9-0.1,1.1
			c-0.2,0.7-0.8,1.2-1.4,1.4l-0.5-0.6C45.2,26.1,45.4,25.8,45.5,25.6z M41.9,19.6h1.3l1.8,5.9h-1.3l-0.4-1.4h-1.7l-0.4,1.4H40
			L41.9,19.6z M40.7,40.9l-0.2,0.5H40v2.5h-0.8v-2.5h-0.3v-0.5h0.3c0-0.1,0-0.3,0-0.4c0-0.6,0.4-0.9,1-0.9c0.3,0,0.5,0.1,0.7,0.2
			l-0.3,0.5c-0.2-0.1-0.2-0.1-0.3-0.1c-0.2,0-0.3,0.1-0.3,0.3v0.4H40.7z M34,19.7h1.5l0.8,2.9c0.1,0.4,0.2,0.6,0.2,0.9
			c0.1-0.3,0.1-0.6,0.2-1l0.8-2.9H39l0.5,5.9h-1.2l-0.2-3.1c0-0.4,0-0.7,0-1C38,21.8,38,22,37.9,22.3L37,25.5h-1l-0.8-3.1
			c-0.1-0.3-0.2-0.7-0.2-1c0,0.3,0,0.7,0,1.1l-0.2,3.1h-1.2L34,19.7z M33.8,32.6l-0.7-0.2c-0.6-0.2-0.9-0.4-1.2-0.7
			c-0.2-0.3-0.2-0.6-0.2-0.9c0-1.1,0.9-1.8,2.1-1.8c0.7,0,1.4,0.2,2,0.6l-0.6,0.8c-0.5-0.3-0.9-0.4-1.4-0.4c-0.5,0-0.8,0.3-0.8,0.7
			c0,0.3,0.2,0.5,0.7,0.6l0.7,0.2c1,0.3,1.5,0.9,1.5,1.7c0,1.2-1,2-2.4,2c-0.7,0-1.4-0.2-2-0.5l0.4-0.9c0.5,0.3,1,0.5,1.6,0.5
			c0.7,0,1-0.3,1-0.8C34.5,33,34.3,32.7,33.8,32.6z M29.4,19.7h3.3l-0.2,1h-2V22h1.7v1h-1.7v1.6h2.2v1h-3.4V19.7z M25,10.2h1.2V14
			c0,0.4,0,0.6,0.1,0.7c0.1,0.3,0.4,0.4,0.8,0.4c0.5,0,0.8-0.3,0.9-0.7c0-0.1,0-0.2,0-0.5v-3.8h1.2v4c0,0.6,0,0.7-0.1,0.9
			c-0.2,0.5-0.7,1.1-2,1.1c-0.9,0-1.6-0.3-1.9-0.8c-0.2-0.3-0.3-0.5-0.3-1.1V10.2z M21.3,29.1h1.2v2.7l1.7-2.7h1.5l-1.9,2.7l2.1,3.1
			h-1.6l-1.8-3.1V35h-1.2V29.1z M20.1,25.4c-0.4,0.2-0.7,0.3-1.2,0.3c-0.9,0-1.5-0.2-1.9-0.8c-0.4-0.6-0.7-1.3-0.7-2.2
			c0-1.3,0.5-2.3,1.3-2.7c0.3-0.2,0.8-0.3,1.2-0.3c1.6,0,2.5,1.1,2.5,3C21.4,23.9,20.9,24.9,20.1,25.4z M25.7,25.5h-1l-0.8-3.1
			c-0.1-0.3-0.2-0.7-0.2-1c0,0.3,0,0.7,0,1.1l-0.2,3.1h-1.2l0.5-5.9h1.5l0.8,2.9c0.1,0.4,0.2,0.6,0.2,0.9c0.1-0.3,0.1-0.6,0.2-1
			l0.8-2.9h1.5l0.5,5.9h-1.2l-0.2-3.1c0-0.4,0-0.7,0-1c-0.1,0.3-0.1,0.5-0.2,0.9L25.7,25.5z M20.3,10.2h4.2l-0.2,1h-1.4V16h-1.2
			v-4.9h-1.4V10.2z M15.9,10.2h2.2c1,0,1.7,0.7,1.7,1.7c0,0.9-0.6,1.6-1.3,1.6c0.1,0.1,0.2,0.1,0.2,0.2c0.3,0.4,1.2,1.9,1.4,2.3
			h-1.4c-0.2-0.4-0.3-0.5-0.5-1c-0.6-1.1-0.8-1.3-1-1.4c-0.1,0-0.1,0-0.2-0.1V16h-1.2V10.2z M12.3,41l0.7-0.2
			c0.1,0.1,0.1,0.3,0.1,0.4c0.2-0.2,0.4-0.4,0.7-0.4c0.1,0,0.2,0,0.3,0.1l-0.2,0.7c-0.1,0-0.1-0.1-0.2-0.1c-0.2,0-0.3,0.1-0.5,0.3
			v2.1h-0.8v-2C12.4,41.5,12.4,41.2,12.3,41z M12.1,35v-5.9h3.3l-0.2,1h-2v1.4h1.7v1h-1.7V34h2.2v1H12.1z M14.2,25.4
			c-0.4,0.2-0.7,0.3-1.2,0.3c-0.9,0-1.5-0.2-1.9-0.8c-0.4-0.6-0.7-1.3-0.7-2.2c0-1.3,0.5-2.3,1.3-2.7c0.3-0.2,0.8-0.3,1.2-0.3
			c1.6,0,2.5,1.1,2.5,3C15.5,23.9,15.1,24.9,14.2,25.4z M10.3,24.6l-0.2,1H7v-5.9h1.2v4.9H10.3z M8.2,29.1v2.7l1.7-2.7h1.5l-1.9,2.7
			l2.1,3.1H10l-1.8-3.1V35H7v-5.9H8.2z M13.5,10.2l1.8,5.9h-1.3l-0.4-1.4h-1.7L11.5,16h-1.2l1.9-5.9H13.5z M6.5,10.2h4.2l-0.2,1H9.2
			V16H8v-4.9H6.5V10.2z M6.5,39.8h3l-0.1,0.7h-1v3.4H7.5v-3.4h-1V39.8z M8.5,50c-0.6,0-1-0.2-1.3-0.6c-0.3-0.4-0.5-0.9-0.5-1.5
			c0-0.5,0.1-0.9,0.3-1.3c0.3-0.6,0.9-1,1.6-1c0.4,0,0.8,0.1,1,0.3l-0.4,0.6c-0.2-0.2-0.4-0.2-0.7-0.2c-0.3,0-0.6,0.1-0.7,0.4
			c-0.2,0.2-0.2,0.6-0.2,1.1c0,0.6,0,0.9,0.2,1.1c0.2,0.3,0.4,0.5,0.8,0.5c0.2,0,0.5-0.1,0.7-0.3l0.4,0.5C9.3,49.9,9,50,8.5,50z
			 M9.1,43.1c0-0.7,0.5-1,1.5-1c0.1,0,0.1,0,0.2,0v-0.1c0-0.3-0.1-0.5-0.4-0.5c-0.3,0-0.6,0.1-0.9,0.3l-0.3-0.6
			c0.2-0.1,0.3-0.2,0.5-0.2c0.3-0.1,0.6-0.2,0.8-0.2c0.5,0,0.9,0.2,1,0.5c0,0.1,0.1,0.2,0.1,0.5l0,1c0,0.3,0,0.5,0.3,0.7l-0.4,0.5
			c-0.2-0.1-0.3-0.2-0.4-0.4c-0.1,0.1-0.1,0.1-0.2,0.2C10.6,44,10.4,44,10.2,44C9.5,44,9.1,43.7,9.1,43.1z M11.7,47.6
			c-0.1,0-0.1-0.1-0.2-0.1c-0.2,0-0.3,0.1-0.5,0.3V50h-0.8v-2c0-0.4,0-0.7-0.1-0.9l0.7-0.2c0.1,0.1,0.1,0.3,0.1,0.4
			c0.2-0.2,0.4-0.4,0.7-0.4c0.1,0,0.2,0,0.3,0.1L11.7,47.6z M14.6,48.7h-1.8v0c0,0.5,0.2,0.7,0.6,0.7c0.3,0,0.5-0.1,0.8-0.3l0.3,0.5
			c-0.3,0.3-0.7,0.4-1.1,0.4c-0.9,0-1.4-0.6-1.4-1.6c0-0.5,0.1-0.9,0.4-1.2c0.2-0.3,0.6-0.4,1-0.4c0.3,0,0.7,0.1,0.9,0.3
			c0.3,0.3,0.4,0.7,0.4,1.3V48.7z M14.7,43.5c0-0.1-0.1-0.2-0.1-0.5v-1.6h-0.3v-0.5h0.3c0-0.3,0-0.5,0-0.7l0.8-0.2
			c0,0.3,0,0.6,0,0.9h0.7l-0.2,0.5h-0.5v1.5c0,0.4,0.1,0.5,0.3,0.5c0.1,0,0.1,0,0.3-0.1l0.1,0.5c-0.2,0.1-0.4,0.1-0.6,0.1
			C15.1,44,14.8,43.8,14.7,43.5z M17.2,50.1c-0.2-0.1-0.3-0.2-0.4-0.4c-0.1,0.1-0.1,0.1-0.2,0.2c-0.1,0.1-0.4,0.2-0.6,0.2
			c-0.7,0-1-0.3-1-0.9c0-0.7,0.5-1,1.5-1c0.1,0,0.1,0,0.2,0V48c0-0.3-0.1-0.5-0.4-0.5c-0.3,0-0.6,0.1-0.9,0.3L15,47.3
			c0.2-0.1,0.3-0.2,0.5-0.2c0.3-0.1,0.6-0.2,0.8-0.2c0.5,0,0.9,0.2,1,0.5c0,0.1,0.1,0.2,0.1,0.5l0,1c0,0.3,0,0.5,0.3,0.7L17.2,50.1z
			 M17.6,44c-0.4,0-0.8-0.2-0.9-0.5c0-0.1-0.1-0.3-0.1-0.6v-1.9l0.8-0.1v1.9c0,0.3,0,0.4,0.1,0.5c0,0.1,0.2,0.1,0.3,0.1
			c0.2,0,0.4-0.1,0.5-0.3V41l0.8-0.2v2.3c0,0.2,0.1,0.4,0.2,0.6L18.6,44c-0.1-0.1-0.2-0.2-0.2-0.3C18.2,43.9,17.9,44,17.6,44z
			 M19.2,50c-0.4,0-0.7-0.2-0.8-0.4c0-0.1-0.1-0.2-0.1-0.5v-1.6H18v-0.5h0.3c0-0.3,0-0.5,0-0.7l0.8-0.2c0,0.3,0,0.6,0,0.9h0.7
			l-0.2,0.5h-0.5V49c0,0.4,0.1,0.5,0.3,0.5c0.1,0,0.1,0,0.3-0.1l0.1,0.5C19.6,50,19.4,50,19.2,50z M17.9,35.1c-0.7,0-1.4-0.2-2-0.5
			l0.4-0.9c0.5,0.3,1,0.5,1.6,0.5c0.7,0,1-0.3,1-0.8c0-0.4-0.2-0.6-0.8-0.8l-0.7-0.2c-0.6-0.2-0.9-0.4-1.2-0.7
			c-0.2-0.3-0.2-0.6-0.2-0.9c0-1.1,0.9-1.8,2.1-1.8c0.7,0,1.4,0.2,2,0.6l-0.6,0.8c-0.5-0.3-0.9-0.4-1.4-0.4c-0.5,0-0.8,0.3-0.8,0.7
			c0,0.3,0.2,0.5,0.7,0.6l0.7,0.2c1,0.3,1.5,0.9,1.5,1.7C20.4,34.4,19.4,35.1,17.9,35.1z M21.2,50h-0.8v-3l0.8-0.1V50z M20.8,46.6
			c-0.3,0-0.5-0.2-0.5-0.5c0-0.3,0.2-0.5,0.5-0.5c0.3,0,0.5,0.2,0.5,0.5C21.2,46.4,21,46.6,20.8,46.6z M21.1,41.9
			c0-0.5,0.1-0.9,0.3-1.3c0.3-0.6,0.9-1,1.6-1c0.4,0,0.8,0.1,1,0.3l-0.4,0.6c-0.2-0.2-0.4-0.2-0.7-0.2c-0.3,0-0.6,0.1-0.7,0.4
			c-0.2,0.2-0.2,0.6-0.2,1.1c0,0.6,0,0.9,0.2,1.1c0.2,0.3,0.4,0.5,0.8,0.5c0.2,0,0.5-0.1,0.7-0.3l0.4,0.5c-0.3,0.3-0.7,0.4-1.1,0.4
			c-0.6,0-1-0.2-1.3-0.6C21.2,43,21.1,42.5,21.1,41.9z M23.3,50h-0.7l-1.1-3l0.8-0.1l0.4,1.4c0.1,0.2,0.2,0.5,0.2,0.7
			c0-0.2,0.1-0.5,0.2-0.8l0.4-1.3h0.8L23.3,50z M24.2,42.4c0-0.5,0.1-0.9,0.4-1.2c0.2-0.3,0.6-0.4,1-0.4c0.3,0,0.7,0.1,0.9,0.3
			c0.3,0.3,0.4,0.7,0.4,1.3v0.2H25v0c0,0.5,0.2,0.7,0.6,0.7c0.3,0,0.5-0.1,0.8-0.3l0.3,0.5C26.4,43.8,26,44,25.6,44
			C24.7,44,24.2,43.4,24.2,42.4z M27.3,48.7h-1.8v0c0,0.5,0.2,0.7,0.6,0.7c0.3,0,0.5-0.1,0.8-0.3l0.3,0.5c-0.3,0.3-0.7,0.4-1.1,0.4
			c-0.9,0-1.4-0.6-1.4-1.6c0-0.5,0.1-0.9,0.4-1.2c0.2-0.3,0.6-0.4,1-0.4c0.3,0,0.7,0.1,0.9,0.3c0.3,0.3,0.4,0.7,0.4,1.3V48.7z
			 M28.7,41.5c-0.2,0-0.4,0.1-0.6,0.3v2.1h-0.8v-2.2c0-0.3,0-0.5-0.1-0.7l0.7-0.2c0.1,0.1,0.1,0.3,0.1,0.4c0.1-0.1,0.2-0.2,0.3-0.2
			c0.2-0.1,0.4-0.1,0.5-0.1c0.3,0,0.6,0.2,0.7,0.4c0,0.1,0.1,0.2,0.1,0.4v2.2H29v-2C29,41.6,28.9,41.5,28.7,41.5z M30.1,50h-0.9
			v-4.1h0.9V50z M28.5,35.1c-0.9,0-1.6-0.3-1.9-0.8c-0.2-0.3-0.3-0.5-0.3-1.1v-4.1h1.2V33c0,0.4,0,0.6,0.1,0.7
			c0.1,0.3,0.4,0.4,0.8,0.4c0.5,0,0.8-0.3,0.9-0.7c0-0.1,0-0.2,0-0.5v-3.8h1.2v4c0,0.6,0,0.7-0.1,0.9C30.3,34.5,29.7,35.1,28.5,35.1
			z M30.7,43.5c0-0.1-0.1-0.2-0.1-0.5v-1.6h-0.3v-0.5h0.3c0-0.3,0-0.5,0-0.7l0.8-0.2c0,0.3,0,0.6,0,0.9h0.7L32,41.4h-0.5v1.5
			c0,0.4,0.1,0.5,0.3,0.5c0.1,0,0.1,0,0.3-0.1l0.1,0.5C32,43.9,31.8,44,31.6,44C31.1,44,30.8,43.8,30.7,43.5z M33.4,50h-0.8v-2
			c0-0.3-0.1-0.4-0.3-0.4c-0.2,0-0.4,0.1-0.6,0.3V50H31v-2.2c0-0.3,0-0.5-0.1-0.7l0.7-0.2c0.1,0.1,0.1,0.3,0.1,0.4
			c0.1-0.1,0.2-0.2,0.3-0.2c0.2-0.1,0.4-0.1,0.5-0.1c0.3,0,0.6,0.2,0.7,0.4c0,0.1,0.1,0.2,0.1,0.4V50z M33.6,41.8v2.1h-0.8v-2
			c0-0.4,0-0.7-0.1-0.9l0.7-0.2c0.1,0.1,0.1,0.3,0.1,0.4c0.2-0.2,0.4-0.4,0.7-0.4c0.1,0,0.2,0,0.3,0.1l-0.2,0.7
			c-0.1,0-0.1-0.1-0.2-0.1C33.9,41.5,33.7,41.6,33.6,41.8z M36.1,50c0,0,0-0.1,0-0.2C35.8,50,35.6,50,35.3,50
			c-0.8,0-1.3-0.6-1.3-1.5c0-0.9,0.5-1.6,1.3-1.6c0.2,0,0.4,0.1,0.5,0.2c0-0.1,0-0.3,0-0.5v-1l0.8,0.1v3.2c0,0.7,0.1,1,0.1,1.1H36.1
			z M37.2,42.6h-1.8v0c0,0.5,0.2,0.7,0.6,0.7c0.3,0,0.5-0.1,0.8-0.3l0.3,0.5C36.8,43.8,36.5,44,36,44c-0.9,0-1.4-0.6-1.4-1.6
			c0-0.5,0.1-0.9,0.4-1.2c0.2-0.3,0.6-0.4,1-0.4c0.3,0,0.7,0.1,0.9,0.3c0.3,0.3,0.4,0.7,0.4,1.3V42.6z M39.5,50.1
			c-0.1-0.1-0.2-0.2-0.2-0.3c-0.2,0.2-0.5,0.3-0.8,0.3c-0.4,0-0.8-0.2-0.9-0.5c0-0.1-0.1-0.3-0.1-0.6V47l0.8-0.1v1.9
			c0,0.3,0,0.4,0.1,0.5c0,0.1,0.2,0.1,0.3,0.1c0.2,0,0.4-0.1,0.5-0.3V47l0.8-0.2v2.3c0,0.2,0.1,0.4,0.2,0.6L39.5,50.1z M41.7,50.1
			c-0.4,0-0.8-0.1-1.2-0.3l0.3-0.6c0.2,0.1,0.7,0.3,1,0.3c0.2,0,0.4-0.1,0.4-0.3c0-0.2-0.1-0.3-0.5-0.4l-0.4-0.1
			c-0.2,0-0.5-0.2-0.6-0.3c-0.1-0.1-0.2-0.3-0.2-0.5c0-0.6,0.5-1,1.2-1c0.5,0,0.8,0.1,1.1,0.3l-0.3,0.5c-0.3-0.2-0.5-0.2-0.7-0.2
			c-0.2,0-0.4,0.1-0.4,0.3c0,0.2,0.1,0.2,0.4,0.3l0.4,0.1c0.4,0.1,0.5,0.2,0.6,0.3C43,48.6,43,48.8,43,49
			C43,49.6,42.5,50.1,41.7,50.1z M42.1,44c-0.8,0-1.4-0.6-1.4-1.6s0.5-1.6,1.4-1.6c0.4,0,0.8,0.1,1,0.5c0.2,0.3,0.3,0.6,0.3,1.1
			c0,0.5-0.1,0.9-0.4,1.2C42.9,43.8,42.6,44,42.1,44z M44.5,50c-0.4,0-0.7-0.2-0.8-0.4c0-0.1-0.1-0.2-0.1-0.5v-1.6h-0.3v-0.5h0.3
			c0-0.3,0-0.5,0-0.7l0.8-0.2c0,0.3,0,0.6,0,0.9h0.7L45,47.5h-0.5V49c0,0.4,0.1,0.5,0.3,0.5c0.1,0,0.1,0,0.3-0.1l0.1,0.5
			C44.9,50,44.7,50,44.5,50z M45,41.8v2.1h-0.8v-2c0-0.4,0-0.7-0.1-0.9l0.7-0.2c0.1,0.1,0.1,0.3,0.1,0.4c0.2-0.2,0.4-0.4,0.7-0.4
			c0.1,0,0.2,0,0.3,0.1l-0.2,0.7c-0.1,0-0.1-0.1-0.2-0.1C45.3,41.5,45.1,41.6,45,41.8z M47.2,47.6c-0.1,0-0.1-0.1-0.2-0.1
			c-0.2,0-0.3,0.1-0.5,0.3V50h-0.8v-2c0-0.4,0-0.7-0.1-0.9l0.7-0.2c0.1,0.1,0.1,0.3,0.1,0.4c0.2-0.2,0.4-0.4,0.7-0.4
			c0.1,0,0.2,0,0.3,0.1L47.2,47.6z M48.6,50h-0.8v-3l0.8-0.1V50z M48.2,46.6c-0.3,0-0.5-0.2-0.5-0.5c0-0.3,0.2-0.5,0.5-0.5
			c0.3,0,0.5,0.2,0.5,0.5C48.7,46.4,48.5,46.6,48.2,46.6z M48.7,25.5h-1.2l1.9-5.9h1.3l1.8,5.9h-1.3l-0.4-1.4h-1.7L48.7,25.5z
			 M52,48.7h-1.8v0c0,0.5,0.2,0.7,0.6,0.7c0.3,0,0.5-0.1,0.8-0.3l0.3,0.5c-0.3,0.3-0.7,0.4-1.1,0.4c-0.9,0-1.4-0.6-1.4-1.6
			c0-0.5,0.1-0.9,0.4-1.2c0.2-0.3,0.6-0.4,1-0.4c0.3,0,0.7,0.1,0.9,0.3c0.3,0.3,0.4,0.7,0.4,1.3V48.7z M53.5,50.1
			c-0.4,0-0.8-0.1-1.2-0.3l0.3-0.6c0.2,0.1,0.7,0.3,1,0.3c0.2,0,0.4-0.1,0.4-0.3c0-0.2-0.1-0.3-0.5-0.4l-0.4-0.1
			c-0.2,0-0.5-0.2-0.6-0.3c-0.1-0.1-0.2-0.3-0.2-0.5c0-0.6,0.5-1,1.2-1c0.5,0,0.8,0.1,1.1,0.3l-0.3,0.5c-0.3-0.2-0.5-0.2-0.7-0.2
			c-0.2,0-0.4,0.1-0.4,0.3c0,0.2,0.1,0.2,0.4,0.3l0.4,0.1c0.4,0.1,0.5,0.2,0.6,0.3c0.1,0.1,0.2,0.3,0.2,0.5
			C54.8,49.6,54.3,50.1,53.5,50.1z M57.2,25.5H56l-1-2.2c-0.3-0.7-0.7-1.6-0.8-1.9c0,0.5,0.1,1.2,0.1,1.7l0,2.5h-1.1v-5.9h1.3
			l1.1,2.3c0.3,0.6,0.5,1.2,0.6,1.7c0-0.5-0.1-1.2-0.1-1.6l0-2.4h1.1V25.5z M62.2,24.7c-0.4,0.5-0.9,0.8-1.4,0.8c-0.2,0-0.5,0-0.8,0
			h-1.4v-5.9h1.2c0.3,0,0.8,0,1,0c0.5,0,0.9,0.2,1.3,0.6c0.5,0.5,0.8,1.3,0.8,2.3C62.8,23.4,62.6,24.1,62.2,24.7z M68,23.6
			c0,0.6,0,0.7-0.1,0.9c-0.2,0.5-0.7,1.1-2,1.1c-0.9,0-1.6-0.3-1.9-0.8c-0.2-0.3-0.3-0.5-0.3-1.1v-4.1H65v3.9c0,0.4,0,0.6,0.1,0.7
			c0.1,0.3,0.4,0.4,0.8,0.4c0.5,0,0.8-0.3,0.9-0.7c0-0.1,0-0.2,0-0.5v-3.8H68V23.6z M70.9,25.7c-0.7,0-1.4-0.2-2-0.5l0.4-0.9
			c0.5,0.3,1,0.5,1.6,0.5c0.7,0,1-0.3,1-0.8c0-0.4-0.2-0.6-0.8-0.8l-0.7-0.2c-0.6-0.2-0.9-0.4-1.2-0.7c-0.2-0.3-0.2-0.6-0.2-0.9
			c0-1.1,0.9-1.8,2.1-1.8c0.7,0,1.4,0.2,2,0.6l-0.6,0.8c-0.5-0.3-0.9-0.4-1.4-0.4c-0.5,0-0.8,0.3-0.8,0.7c0,0.3,0.2,0.5,0.7,0.6
			l0.7,0.2c1,0.3,1.5,0.9,1.5,1.7C73.3,24.9,72.3,25.7,70.9,25.7z M76,23.7h-2v-1h2V23.7z"/>
	</g>
</g>
</svg>
