<?xml version="1.0" encoding="utf-8"?>
<!-- Generator: Adobe Illustrator 24.2.3, SVG Export Plug-In . SVG Version: 6.00 Build 0)  -->
<svg version="1.1" id="Layer_1" xmlns="http://www.w3.org/2000/svg" xmlns:xlink="http://www.w3.org/1999/xlink" x="0px" y="0px"
	 viewBox="0 0 150 100" style="enable-background:new 0 0 150 100;" xml:space="preserve">
<style type="text/css">
	.st0{fill:#FFFFFF;}
</style>
<g>
	<path class="st0" d="M15,52.2c0.2-1,0.8-1.8,1.4-2.6c1.7-2.5,3.5-5,5.2-7.5c0.5-0.8,1.2-1.4,2-1.9c0.7-0.4,1.4-0.8,2.2-1.2
		c-0.6,0.9-0.4,2-0.6,3c-0.3,2-0.5,3.9-0.7,5.9c-0.1,1-0.1,1.9,0,2.9c0.1,1.4,0.8,2.3,2.1,2.7c0.2,0.1,0.4,0.1,0.8,0.3
		c-1.1,0.2-2.1,0.4-3.1,0.5c-1.6,0.3-3.1,0.5-4.7,0.7c-0.2,0-0.4,0-0.6-0.1c-0.8-0.3-1.7-0.7-2.5-0.9c-0.6-0.2-1.1-0.5-1.3-1.2v-0.6
		H15z"/>
	<path class="st0" d="M77.9,61.4c-0.5-0.1-1-0.2-1.5-0.3c-0.4-0.1-0.7-0.3-1-0.4c-1.7-1-1.8-3.2-0.2-4.4c0.9-0.7,2.1-1,3.2-1.3
		c2.1-0.5,4.2-0.6,6.4-0.8c0.4,0,0.5-0.1,0.5-0.5c0.1-1.4-0.6-2.2-1.9-2.7c-1.4-0.5-2.8-0.5-4.2-0.4c-1.2,0.1-2.3,0.4-3.5,0.8
		c-0.1,0-0.2,0.1-0.4,0.1c0-0.4,0-0.7,0-1c0-0.1,0.1-0.2,0.2-0.2c2.7-0.7,5.3-1.1,8-0.3c0.4,0.1,0.9,0.3,1.2,0.6
		c1,0.6,1.6,1.6,1.6,2.8c0,1.9,0,3.8,0,5.7c0,0.2-0.1,0.3-0.3,0.4c-1.8,1-3.8,1.6-5.9,1.8c-0.1,0-0.2,0-0.3,0.1
		C79.8,61.4,77.9,61.4,77.9,61.4z M85.1,55.1c-0.1,0-0.2,0-0.2,0c-2.2,0.1-4.4,0.3-6.5,0.8c-0.9,0.2-1.8,0.5-2.5,1
		c-1,0.8-1,2.1,0.1,2.9c0.3,0.2,0.7,0.4,1.1,0.5c1.6,0.4,3.2,0.3,4.8-0.1c1-0.2,2.1-0.5,3-1.1c0.1-0.1,0.3-0.2,0.3-0.4
		C85.1,57.5,85.1,56.3,85.1,55.1"/>
	<path class="st0" d="M32.7,60.7c0.2-0.1,0.4-0.2,0.6-0.4c0.9-0.6,1.5-1.3,1.7-2.4c0.3-2.1,0.7-4.2,1-6.4c0.2-1.1-0.2-2-1.2-2.5
		c-1.2-0.6-2.5-1.1-3.8-1.7c-1.7-0.7-3.4-1.4-5.1-2.1c-0.2-0.1-0.3-0.2-0.3-0.5c0.2-1.6,0.4-3.1,0.6-4.7c0.1-0.7,0.7-1.3,1.3-1.4
		c0.6-0.1,1.2-0.1,1.8,0.1c3.1,1.3,6.3,2.5,9.4,3.7c0.4,0.1,0.7,0.3,1.1,0.4c1.1,0.4,1.9,1.2,2.4,2.3c0.1,0.2,0.2,0.5,0.2,0.8
		c-0.1,1.3-0.1,2.6-0.2,3.9c-0.1,0.5-0.3,1.1-0.6,1.6c-1.6,2.3-3.3,4.6-5,6.8C35.2,59.9,34.7,60.2,32.7,60.7"/>
	<path class="st0" d="M20.1,55.6c5-0.8,9.9-1.5,14.9-2.3c-0.1,0.6-0.2,1.1-0.3,1.7c-0.2,1-0.4,2-0.6,3.1c-0.1,0.3-0.2,0.6-0.4,0.8
		c-0.8,1.2-2,1.5-3.4,1.3c-0.3,0-0.5-0.1-0.8-0.2c-3-1.4-6-2.7-9-4.1C20.4,55.7,20.3,55.7,20.1,55.6"/>
	<path class="st0" d="M121.5,54.1c0.2-1.7-0.4-2.7-2-3.2c-2.3-0.7-4.7-0.5-6.9,0.3c-0.3,0.1-0.7,0.2-1,0.4c0-0.4,0-0.7,0-1
		c0-0.1,0.1-0.2,0.2-0.2c2.6-0.7,5.1-1,7.8-0.4c0.5,0.1,1,0.3,1.4,0.6c1.1,0.6,1.7,1.6,1.7,2.8c0,1.9,0,3.8,0,5.7
		c0,0.1-0.1,0.3-0.2,0.4c-2.6,1.5-5.4,2.1-8.3,1.8c-0.7-0.1-1.5-0.2-2.1-0.6c-1.8-1-1.9-3.3-0.3-4.5c0.9-0.7,2-1,3.1-1.3
		c2.1-0.5,4.2-0.6,6.3-0.8C121.1,54.1,121.3,54.1,121.5,54.1 M121.5,55c-0.1,0-0.1,0-0.2,0c-2.2,0.1-4.4,0.3-6.6,0.8
		c-0.9,0.2-1.7,0.5-2.5,1c-1.1,0.8-1.1,2.2,0.1,3c0.3,0.2,0.7,0.3,1.1,0.4c1.5,0.4,2.9,0.3,4.4,0c1.2-0.2,2.3-0.6,3.4-1.2
		c0.2-0.1,0.3-0.3,0.3-0.5c0-0.5,0-1,0-1.4C121.5,57.1,121.5,55,121.5,55z"/>
	<path class="st0" d="M58.1,50c-1.9,1.7-3.7,3.4-5.6,5.2c0.8,0.2,1.5,0.3,2.2,0.5c1.1,0.3,2.1,0.8,3,1.6c1.2,1,1.8,2.3,2,3.9h-1
		c-0.1-0.4-0.2-0.8-0.3-1.2c-0.5-1.4-1.6-2.3-2.9-3c-1.3-0.6-2.6-0.9-4-1c-0.8,0-1.6,0-2.4,0v5.1h-1V49.8h1v5.3c0.7,0,1.4,0,2,0
		c0.1,0,0.2-0.1,0.3-0.2c1.7-1.6,3.3-3.1,5-4.7c0.3-0.3,0.5-0.4,0.9-0.3C57.5,49.9,57.8,49.9,58.1,50C58.1,49.9,58.1,50,58.1,50"/>
	<path class="st0" d="M72.9,49.9c-0.4,0.9-0.8,1.6-1.2,2.4c-1.4,2.8-2.9,5.7-4.3,8.5c-0.1,0.2-0.2,0.3-0.5,0.3
		c-0.4,0-0.9,0.1-1.2-0.1c-0.3-0.2-0.4-0.6-0.6-1c-1.6-3.2-3.2-6.5-4.9-9.8c-0.1-0.1-0.1-0.3-0.2-0.5c0.4,0,0.7,0,1,0
		c0.1,0,0.2,0.2,0.3,0.3c1.3,2.7,2.7,5.4,4,8.1c0.3,0.7,0.7,1.4,1.1,2.2c0.5-0.9,0.9-1.8,1.3-2.6c1.2-2.5,2.5-4.9,3.7-7.4
		c0.2-0.4,0.4-0.5,0.8-0.5C72.5,49.9,72.6,49.9,72.9,49.9"/>
	<path class="st0" d="M100.7,46h1v3.7h4.2v1h-4.2c0,0.2,0,0.3,0,0.4c0,2,0,4,0,6c0,0.4,0,0.8,0.1,1.2c0.1,0.8,0.5,1.3,1.2,1.5
		c0.6,0.2,1.3,0.3,2,0.3c1,0,1.9,0,2.9,0V61c0,0,0,0-0.1,0c-1.5,0-3,0-4.4-0.1c-1.9-0.2-2.7-1.2-2.8-3.2c0-1.2,0-2.3,0-3.5
		c0-2.6,0-5.2,0-7.9V46H100.7z"/>
	<path class="st0" d="M125.2,49.9h1c0,0.2,0,0.3,0,0.5c0,2.4,0,4.9,0,7.3c0,1.6,0.7,2.3,2.3,2.4c1.5,0.1,3,0.1,4.5,0.1
		c0.6,0,1.3,0,2,0v1c-0.1,0-0.2,0-0.3,0c-1.8,0-3.6,0-5.5,0c-0.5,0-1-0.1-1.5-0.2c-1.7-0.3-2.5-1.3-2.5-3.2c0-2.6,0-5.1,0-7.7
		C125.1,50.1,125.2,50,125.2,49.9"/>
	<path class="st0" d="M90.8,61.2c-0.3,0-0.5,0-0.7,0c-0.1,0-0.2,0-0.3,0c0-0.1,0-0.3,0-0.4c0-2.5,0-5,0-7.6c0-0.3,0.1-0.4,0.3-0.6
		c1.4-1.5,3.1-2.5,5.1-2.8c0.9-0.1,1.8,0,2.7-0.1c0.2,0,0.3,0.1,0.3,0.3s0,0.4,0,0.7c-0.4-0.1-0.7-0.2-1-0.2
		c-2.6-0.2-4.6,0.8-6.2,2.7c-0.1,0.1-0.1,0.3-0.1,0.5c0,2.3,0,4.7,0,7v0.5H90.8z"/>
</g>
</svg>
