<?xml version="1.0" encoding="utf-8"?>
<!-- Generator: Adobe Illustrator 24.2.3, SVG Export Plug-In . SVG Version: 6.00 Build 0)  -->
<svg version="1.1" id="Layer_1" xmlns="http://www.w3.org/2000/svg" xmlns:xlink="http://www.w3.org/1999/xlink" x="0px" y="0px"
	 viewBox="0 0 160 90" style="enable-background:new 0 0 160 90;" xml:space="preserve">
<style type="text/css">
	.st0{fill:#FFFFFF;}
</style>
<g>
	<g>
		<path class="st0" d="M8.7,46.4c0,0.1,0,0.1,0.1,0.1c0.6,0.1,1.4,0.1,2.4,0.1c0.9,0,1.7,0,2.3-0.1c0,0,0,0,0.1,0v-0.1l0,0l-2.4-5.6
			L8.7,46.4z"/>
		<path class="st0" d="M0,32.5v25.1h24.4V32.5H0z M22.1,54.5c-0.2,0-0.7,0-1.7-0.1s-1.7-0.1-2.2-0.1c-0.4,0-0.9,0-1.4,0
			s-1.1,0.1-1.7,0.1c-0.6,0-1,0.1-1.2,0.1c-0.1-0.1-0.1-0.3-0.1-0.6s0-0.5,0.1-0.5c0.3,0,0.6,0,0.9-0.1c0.3-0.1,0.6-0.2,0.8-0.4
			c0.2-0.1,0.3-0.3,0.3-0.5c0-0.1-0.1-0.5-0.4-1.2c-0.3-0.7-0.6-1.4-0.9-2.1l-0.4-1C14.1,48,14,48,14,48c-0.4,0-1.3,0-2.7,0
			c-1.3,0-2.3,0-3,0c-0.1,0-0.2,0-0.2,0.1c-0.5,1.1-0.8,1.9-1,2.4c-0.4,1-0.6,1.7-0.6,1.9s0.1,0.3,0.3,0.5C7,53,7.2,53.1,7.5,53.2
			c0.3,0.1,0.5,0.1,0.7,0.1c0.2,0,0.4,0,0.4,0c0.1,0.1,0.1,0.3,0.1,0.6s0,0.4-0.1,0.5c-1.3-0.2-2.4-0.2-3.1-0.2s-1.8,0.1-3.1,0.2
			c-0.1-0.1-0.1-0.2-0.1-0.4s0-0.4,0.1-0.6c0.2,0,0.6-0.1,1.1-0.3s0.8-0.4,0.9-0.6c0.3-0.5,0.7-1.2,1-2l6.1-14
			c0.1-0.2,0.3-0.4,0.5-0.7s0.4-0.4,0.6-0.4c0.1,0,0.2,0,0.4,0.1c0.1,0,0.2,0.1,0.2,0.1L19,50.2c0.1,0.3,0.3,0.7,0.4,1.1
			c0.2,0.4,0.3,0.7,0.4,0.9c0.1,0.3,0.3,0.5,0.5,0.7s0.5,0.3,0.7,0.4c0.3,0.1,0.5,0.1,0.6,0.1c0.2,0,0.3,0,0.4,0
			c0.1,0.1,0.1,0.3,0.1,0.6S22.1,54.4,22.1,54.5z"/>
	</g>
	<path class="st0" d="M27.1,32.5v25.1h24.4V32.5H27.1z M47.8,40.8c-0.2,0-0.4,0.1-0.5,0.1c-0.2,0-0.3,0-0.3-0.1
		c-0.1-1-0.5-1.8-1.1-2.5s-1.2-1.1-2-1.1h-2.7v13.4c0,1.4,0.1,2.3,0.2,2.7c0.1,0.3,0.7,0.4,1.8,0.5c0.1,0.1,0.1,0.3,0.1,0.5
		c0,0.3,0,0.4-0.1,0.5c-1.3-0.1-2.7-0.2-4.1-0.2c-1.4,0-2.7,0.1-4,0.2C35,54.7,35,54.5,35,54.3c0-0.3,0-0.4,0.1-0.5
		c1.1-0.1,1.7-0.3,1.8-0.5c0.2-0.4,0.2-1.3,0.2-2.7V37.1h-2.7c-0.7,0-1.4,0.4-2,1.1c-0.6,0.7-1,1.6-1.1,2.5c0,0.1-0.1,0.1-0.3,0.1
		c-0.1,0-0.3,0-0.5-0.1c-0.2,0-0.3-0.1-0.3-0.1l0.8-5.3c0.1-0.1,0.2-0.1,0.3-0.1c0.1,0,0.3,0,0.5,0.1c0.2,0.1,0.5,0.2,0.9,0.3
		c0.4,0.1,0.9,0.1,1.5,0.1h9.5c0.6,0,1.1,0,1.5-0.1s0.7-0.2,0.9-0.3s0.4-0.1,0.5-0.1s0.2,0,0.3,0.1l0.8,5.3
		C48.1,40.7,48,40.7,47.8,40.8z"/>
	<path class="st0" d="M54.2,32.5v25.1h24.4V32.5H54.2z M74.1,52.9c0.1,0.3,0.7,0.4,1.8,0.5C76,53.6,76,53.7,76,54s0,0.4-0.1,0.5
		c-1.3-0.1-2.7-0.2-4.1-0.2s-2.7,0.1-4,0.2c-0.1-0.1-0.1-0.3-0.1-0.5c0-0.3,0-0.4,0.1-0.5c1.1-0.1,1.7-0.3,1.8-0.5
		c0.2-0.4,0.2-1.3,0.2-2.7v-4.7l-0.1-0.1c-1.4,0-2.5-0.1-3.3-0.1c-2.2,0-3.4,0-3.5,0.1v0.1v4.7c0,1.4,0.1,2.3,0.2,2.7
		c0.1,0.3,0.7,0.4,1.8,0.5C65,53.6,65,53.8,65,54c0,0.3,0,0.4-0.1,0.5c-1.3-0.1-2.7-0.2-4.1-0.2c-1.4,0-2.7,0.1-4,0.2
		c-0.1-0.1-0.1-0.3-0.1-0.5c0-0.3,0-0.4,0.1-0.5c1.1-0.1,1.7-0.3,1.8-0.5c0.2-0.4,0.2-1.3,0.2-2.7V39.7c0-1.4-0.1-2.3-0.2-2.7
		c-0.1-0.3-0.7-0.4-1.8-0.5c-0.1-0.1-0.1-0.3-0.1-0.5c0-0.3,0-0.4,0.1-0.5c1.3,0.1,2.7,0.2,4.1,0.2c1.4,0,2.7-0.1,4-0.2
		C65,35.6,65,35.8,65,36c0,0.3,0,0.4-0.1,0.5c-1.1,0.1-1.7,0.3-1.8,0.5c-0.2,0.4-0.2,1.3-0.2,2.7v4.1l0.1,0.1
		c2.2,0.1,3.4,0.1,3.5,0.1c0.2,0,1.3,0,3.3-0.1l0.1-0.1v-4c0-1.4-0.1-2.3-0.2-2.7c-0.1-0.3-0.7-0.4-1.8-0.5
		c-0.1-0.1-0.1-0.3-0.1-0.5c0-0.3,0-0.4,0.1-0.5c1.3,0.1,2.7,0.2,4.1,0.2s2.7-0.1,4-0.2c0,0,0,0.2,0,0.4c0,0.3,0,0.4-0.1,0.5
		c-1.1,0.1-1.7,0.3-1.8,0.5c-0.2,0.4-0.2,1.3-0.2,2.7v10.5C73.9,51.7,74,52.6,74.1,52.9z"/>
	<path class="st0" d="M81.3,32.5v25.1h24.4V32.5H81.3z M101,50.5c-0.2,0.5-0.3,0.9-0.4,1.1c-0.1,0.2-0.2,0.6-0.3,1
		c-0.1,0.4-0.2,0.8-0.3,1.1c-0.1,0.3-0.1,0.6-0.2,0.8c-8.5,0-13.2,0-13.9,0c-0.1-0.1-0.1-0.3-0.1-0.5c0-0.3,0-0.4,0.1-0.5
		c1.1-0.1,1.7-0.2,1.8-0.5c0.2-0.4,0.2-1.3,0.2-2.7V39.8c0-1.4-0.1-2.3-0.2-2.7c-0.1-0.2-0.7-0.4-1.8-0.5c-0.1-0.1-0.1-0.3-0.1-0.5
		c0-0.3,0-0.4,0.1-0.5c0.9,0.1,2.2,0.1,4.1,0.1c0.5,0,2,0,4.7-0.1s4.2-0.1,4.6-0.1c0.1,0.4,0.1,0.9,0.2,1.4s0.2,1,0.3,1.6
		c0.1,0.6,0.2,1,0.3,1.3c-0.1,0.1-0.3,0.1-0.7,0.1c-0.2,0-0.4-0.1-0.5-0.2c-0.2-0.4-0.3-0.8-0.5-1.1S98,38,97.8,37.7
		c-0.2-0.3-0.5-0.5-0.9-0.6c-0.3-0.1-0.7-0.2-1.1-0.2h-2.4c-0.8,0-1.3,0.1-1.4,0.3s-0.1,0.8-0.1,1.7V44c0,0.1,0.1,0.2,0.4,0.2
		c0.3,0.1,0.5,0.1,0.8,0.1h1.5c0.8,0,1.4-0.1,1.7-0.4c0.3-0.2,0.6-0.8,0.8-1.6c0-0.2,0.1-0.2,0.3-0.2c0.3,0,0.4,0,0.5,0.1v5.5
		c-0.1,0.1-0.2,0.1-0.5,0.1c-0.2,0-0.4-0.1-0.4-0.2c-0.2-1-0.6-1.6-1-1.7c-0.3-0.1-1-0.2-2.2-0.2c-1.4,0-2.1,0.1-2.1,0.4v4.4
		c0,1.1,0.1,1.9,0.2,2.3c0.1,0.2,0.3,0.3,0.7,0.4c0.4,0.1,0.8,0.1,1.2,0.1h1.9c1.1,0,2-0.3,2.7-0.9c0.6-0.6,1.1-1.5,1.5-2.7
		c0-0.1,0.2-0.2,0.4-0.2c0.2,0,0.3,0,0.5,0.1c0.2,0,0.3,0.1,0.3,0.1C101.3,49.7,101.2,50,101,50.5z"/>
	<path class="st0" d="M108.4,32.5v25.1h24.4V32.5H108.4z M130.7,36.6c-0.2,0-0.4,0-0.7,0s-0.6,0.1-1,0.2c-0.4,0.1-0.6,0.3-0.7,0.4
		c-0.1,0.2-0.1,0.7-0.2,1.5c-0.1,0.8-0.1,1.5-0.1,2v9.7c0,0.7,0,2,0.1,4c-0.1,0.1-0.3,0.1-0.7,0.1c-0.3,0-0.6-0.2-0.9-0.7L115,39.6
		v10.3c0,0.5,0,1,0.1,1.6s0.1,1,0.2,1.2s0.4,0.4,1,0.5s1,0.2,1.3,0.2c0.1,0.1,0.1,0.3,0.1,0.5s0,0.4-0.1,0.5c-0.2,0-0.8,0-1.6-0.1
		c-0.8-0.1-1.5-0.1-2-0.1s-1.1,0-1.8,0.1c-0.7,0.1-1.3,0.1-1.6,0.1c0-0.1-0.1-0.2-0.1-0.4s0-0.3,0-0.5c0-0.1,0-0.2,0.1-0.2
		c0.3,0,0.7-0.1,1.3-0.2c0.6-0.1,0.9-0.3,1-0.5s0.2-0.6,0.2-1.2c0.1-0.6,0.1-1.1,0.1-1.7v-10c0-1.2-0.2-2.1-0.5-2.6
		c-0.1-0.2-0.4-0.3-0.8-0.4c-0.5-0.1-0.8-0.2-1-0.2c-0.1,0-0.1-0.2-0.1-0.5s0-0.5,0.1-0.6c0.2,0,0.5,0,0.9,0.1
		c0.4,0,0.8,0.1,1.2,0.1c0.4,0,0.8,0,1.2,0c1,0,2-0.1,3.1-0.2c0.3,0.5,0.7,1.3,1.5,2.2c0.7,1,1.4,1.9,2.1,2.8c0.7,0.9,1.7,2,2.9,3.5
		c1.2,1.5,2.1,2.6,2.7,3.3c0-0.1,0.1-0.5,0.1-1.2v-5.3c0-0.6,0-1.4-0.1-2.2s-0.1-1.3-0.2-1.5s-0.4-0.4-1-0.5c-0.5-0.1-1-0.1-1.4-0.1
		c0,0,0-0.1-0.1-0.2c0-0.1,0-0.3,0-0.5s0-0.3,0.1-0.4c0.3,0,0.9,0.1,1.6,0.1c0.7,0.1,1.4,0.1,1.8,0.1c0.5,0,1.2,0,2-0.1
		s1.4-0.1,1.6-0.1c0,0.1,0.1,0.3,0.1,0.5C130.8,36.2,130.8,36.4,130.7,36.6z"/>
	<g>
		<path class="st0" d="M144.2,46.4c0,0.1,0,0.1,0.1,0.1c0.6,0.1,1.4,0.1,2.4,0.1c0.9,0,1.7,0,2.3-0.1c0,0,0,0,0.1,0v-0.1l0,0
			l-2.4-5.6L144.2,46.4z"/>
		<path class="st0" d="M135.6,32.5v25.1H160V32.5H135.6z M157.6,54.5c-0.2,0-0.7,0-1.7-0.1c-0.9-0.1-1.7-0.1-2.2-0.1
			c-0.4,0-0.9,0-1.4,0s-1.1,0.1-1.7,0.1c-0.6,0-1,0.1-1.2,0.1c-0.1-0.1-0.1-0.3-0.1-0.6s0-0.5,0.1-0.5c0.3,0,0.6,0,0.9-0.1
			c0.3-0.1,0.6-0.2,0.8-0.4c0.2-0.1,0.3-0.3,0.3-0.5c0-0.1-0.1-0.5-0.4-1.2c-0.3-0.7-0.6-1.4-0.9-2.1l-0.4-1
			c-0.1-0.1-0.1-0.1-0.2-0.1c-0.4,0-1.3,0-2.7,0c-1.3,0-2.3,0-3,0c-0.1,0-0.2,0-0.2,0.1c-0.5,1.1-0.8,1.9-1,2.4
			c-0.4,1-0.6,1.7-0.6,1.9s0.1,0.3,0.3,0.5c0.2,0.1,0.4,0.2,0.7,0.3s0.5,0.1,0.7,0.1s0.4,0,0.4,0c0.1,0.1,0.1,0.3,0.1,0.6
			s0,0.4-0.1,0.5c-1.3-0.2-2.4-0.2-3.1-0.2c-0.7,0-1.8,0.1-3.1,0.2c-0.1-0.1-0.1-0.2-0.1-0.4s0-0.4,0.1-0.6c0.2,0,0.6-0.1,1.1-0.3
			s0.8-0.4,0.9-0.6c0.3-0.5,0.7-1.2,1-2l6.1-14c0.1-0.2,0.3-0.4,0.5-0.7s0.4-0.4,0.6-0.4c0.1,0,0.2,0,0.4,0.1c0.1,0,0.2,0.1,0.2,0.1
			l5.8,14.5c0.1,0.3,0.3,0.7,0.4,1.1c0.2,0.4,0.3,0.7,0.4,0.9c0.1,0.3,0.3,0.5,0.5,0.7s0.5,0.3,0.7,0.4c0.3,0.1,0.5,0.1,0.6,0.1
			c0.2,0,0.3,0,0.4,0c0.1,0.1,0.1,0.3,0.1,0.6C157.7,54.3,157.7,54.4,157.6,54.5z"/>
	</g>
</g>
</svg>
