<?xml version="1.0" encoding="utf-8"?>
<!-- Generator: Adobe Illustrator 24.2.3, SVG Export Plug-In . SVG Version: 6.00 Build 0)  -->
<svg version="1.1" id="Layer_1" xmlns="http://www.w3.org/2000/svg" xmlns:xlink="http://www.w3.org/1999/xlink" x="0px" y="0px"
	 viewBox="0 0 150 100" style="enable-background:new 0 0 150 100;" xml:space="preserve">
<style type="text/css">
	.st0{fill:#FFFFFF;}
</style>
<g>
	<g>
		<g>
			<path class="st0" d="M56.9,56.7V56h0.2c0.4,0,0.7-0.1,1-0.2c0.2-0.1,0.4-0.2,0.6-0.4c0.2-0.2,0.3-0.5,0.4-0.8
				c0.1-0.4,0.1-0.9,0.1-1.7v-8.3c0-0.8,0-1.4-0.1-1.8c-0.1-0.3-0.3-0.6-0.5-0.8c-0.3-0.3-0.8-0.4-1.5-0.5h-0.2v-0.7h6.4
				c1.4,0,2.3,0,2.7,0c1.6,0.1,3,0.6,4.2,1.4c1.1,0.8,1.9,1.8,2.5,3s0.9,2.6,0.9,4.1c0,1.1-0.2,2.1-0.5,3s-0.8,1.8-1.4,2.4
				c-0.9,0.9-2,1.5-3.3,1.7c-0.9,0.2-1.9,0.3-2.9,0.3H56.9z M62.2,52.6c0,0.7,0,1.3,0.1,1.6s0.2,0.6,0.4,0.9
				c0.4,0.5,1.2,0.8,2.2,0.8c0.9,0,1.7-0.1,2.3-0.4c0.6-0.3,1.2-0.8,1.7-1.4c0.5-0.6,0.9-1.4,1.1-2.2c0.3-0.8,0.4-1.7,0.4-2.7
				s-0.2-2-0.5-3c-0.3-0.9-0.8-1.8-1.4-2.5c-0.8-1-1.8-1.6-2.9-1.9c-0.6-0.2-1.4-0.3-2.4-0.3H62v11.1H62.2z"/>
			<path class="st0" d="M25,56.7V56h0.2c0.7,0,1.2-0.2,1.6-0.6c0.2-0.2,0.3-0.5,0.4-0.8c0.1-0.4,0.1-0.9,0.1-1.7v-8.3
				c0-0.8,0-1.4-0.1-1.7s-0.2-0.6-0.5-0.8c-0.2-0.2-0.4-0.3-0.6-0.4c-0.2-0.1-0.6-0.1-0.9-0.1H25v-0.7h7.7v0.7h-0.2
				c-0.4,0-0.7,0.1-1,0.2c-0.2,0.1-0.4,0.2-0.6,0.4s-0.4,0.5-0.5,0.8c-0.1,0.4-0.1,0.9-0.1,1.7v6.5c0,1,0,1.7,0.1,2.2
				c0,0.5,0.1,0.8,0.3,1.1c0.2,0.5,0.6,0.9,1.1,1.1c0.5,0.2,1.2,0.4,2,0.4c0.9,0,1.6-0.1,2.2-0.3c0.6-0.2,1.1-0.6,1.4-1
				c0.2-0.3,0.5-0.7,0.6-1.1c0.2-0.4,0.3-1,0.5-1.7v-0.2l0.7,0.1L39,56.7H25z"/>
			<path class="st0" d="M43.4,56.7V56h0.2c0.4,0,0.7-0.1,1-0.2c0.2-0.1,0.5-0.2,0.6-0.4c0.2-0.2,0.3-0.5,0.4-0.8
				c0.1-0.4,0.1-0.9,0.1-1.7v-2.2c0-0.3-0.1-0.6-0.2-1c-0.1-0.4-0.4-1-0.9-1.6l-2.9-4.4l-0.5-0.8c-0.4-0.5-0.7-0.9-1.1-1.1
				c-0.2-0.1-0.3-0.2-0.5-0.2s-0.4-0.1-0.8-0.1h-0.2v-0.7h7.8v0.7h-0.2c-0.8,0-1,0.1-1.1,0.2c-0.3,0.1-0.5,0.4-0.5,0.8
				c0,0.1,0,0.3,0.1,0.5s0.2,0.5,0.4,0.8l2.9,4.5l2.4-3.8l0.3-0.5c0.3-0.4,0.4-0.8,0.4-1.2s-0.1-0.7-0.4-1c-0.3-0.2-0.7-0.3-1.2-0.3
				h-0.2v-0.7h5.6v0.7h-0.2c-0.4,0-0.7,0.1-0.8,0.2c-0.2,0.1-0.4,0.2-0.6,0.4c-0.5,0.5-1.1,1.2-1.7,2.1L49,48.1
				c-0.4,0.6-0.5,0.8-0.5,1c0,0.1-0.1,0.4-0.1,1v2.8c0,0.8,0,1.4,0.1,1.7s0.2,0.6,0.4,0.8c0.4,0.4,0.9,0.6,1.6,0.6h0.2v0.7H43.4z"/>
			<path class="st0" d="M76.4,56.7V56h0.2c0.4,0,0.7-0.1,1-0.2c0.2-0.1,0.4-0.2,0.6-0.4s0.4-0.5,0.4-0.8c0.1-0.4,0.1-0.9,0.1-1.7
				v-8.3c0-0.8,0-1.3-0.1-1.7c-0.1-0.3-0.2-0.6-0.4-0.8c-0.2-0.2-0.4-0.3-0.6-0.4c-0.3-0.1-0.6-0.1-1-0.2h-0.2v-0.7h7.7v0.7h-0.2
				c-0.4,0-0.7,0.1-1,0.2c-0.2,0.1-0.5,0.2-0.6,0.4c-0.3,0.3-0.4,0.6-0.5,1.1c0,0.4-0.1,0.8-0.1,1.4v8.3c0,0.6,0,1.1,0.1,1.4
				c0.1,0.3,0.1,0.6,0.3,0.8c0.2,0.3,0.4,0.5,0.7,0.6c0.3,0.1,0.7,0.2,1.2,0.2h0.2v0.7h-7.8V56.7z"/>
			<g>
				<path class="st0" d="M44.3,78.4v-0.7h0.2c0.4,0,0.7-0.1,1-0.2c0.2-0.1,0.5-0.2,0.6-0.4c0.2-0.2,0.3-0.5,0.4-0.8
					c0.1-0.4,0.1-0.9,0.1-1.7v-4H39v4c0,0.7,0,1.3,0.1,1.7c0.1,0.3,0.2,0.6,0.4,0.8c0.2,0.2,0.4,0.3,0.6,0.4c0.2,0.1,0.6,0.2,1,0.2
					h0.2v0.7h-7.7v-0.7h0.2c0.4,0,0.7-0.1,1-0.2c0.2-0.1,0.4-0.2,0.6-0.4c0.2-0.2,0.4-0.5,0.4-0.8c0.1-0.4,0.1-0.9,0.1-1.7v-8.3
					c0-0.4,0-0.8,0-1.1c-0.2-1.1-1.1-2-2.3-2c-1.3,0-2.3,1-2.3,2.3v0.2h-0.7v-0.2c0-1.7,1.3-3,3-3l0,0h0.1h7.5v0.7H41
					c-0.4,0-0.7,0.1-1,0.2c-0.2,0.1-0.5,0.2-0.6,0.4c-0.2,0.2-0.3,0.5-0.4,0.8c-0.1,0.4-0.1,0.9-0.1,1.7v3.4h7.6v-3.4
					c0-0.8,0-1.3-0.1-1.7c-0.1-0.3-0.2-0.6-0.4-0.8s-0.4-0.3-0.6-0.4c-0.2-0.1-0.6-0.1-1-0.2h-0.2v-0.7H52v0.7h-0.2
					c-0.4,0-0.7,0.1-1,0.2c-0.2,0.1-0.5,0.2-0.6,0.4c-0.2,0.2-0.3,0.5-0.4,0.8c-0.1,0.4-0.1,0.9-0.1,1.7v8.3c0,0.7,0,1.3,0.1,1.7
					c0.1,0.3,0.2,0.6,0.4,0.8c0.2,0.2,0.4,0.3,0.6,0.4c0.2,0.1,0.6,0.2,1,0.2H52v0.7C52,78.4,44.3,78.4,44.3,78.4z"/>
				<path class="st0" d="M61.8,78.8c-1.2,0-2.4-0.3-3.5-0.8s-2.1-1.2-2.9-2.1c-0.6-0.7-1.1-1.5-1.5-2.5c-0.3-0.9-0.5-1.9-0.5-2.9
					c0-1.3,0.3-2.5,0.8-3.6c0.6-1.1,1.4-2.1,2.4-2.9c0.8-0.6,1.7-1.1,2.6-1.4c0.9-0.3,1.9-0.5,2.8-0.5c1.2,0,2.4,0.3,3.5,0.8
					c1.1,0.5,2.1,1.3,2.9,2.2c1.4,1.5,2,3.3,2,5.3c0,1-0.2,2-0.5,2.9c-0.4,0.9-0.9,1.8-1.6,2.5c-0.8,0.9-1.8,1.7-3,2.2
					C64.2,78.5,63,78.8,61.8,78.8z M61.9,62.9c-0.8,0-1.4,0.1-2,0.4c-0.6,0.3-1.1,0.7-1.5,1.3c-0.6,0.7-1,1.6-1.3,2.7
					s-0.5,2.2-0.5,3.4c0,2.1,0.6,4,1.7,5.4c0.5,0.6,1.1,1.1,1.6,1.4c0.6,0.3,1.2,0.4,2,0.4s1.4-0.1,2-0.4s1.1-0.8,1.6-1.4
					c1.2-1.5,1.7-3.3,1.7-5.5c0-1.2-0.2-2.3-0.5-3.4s-0.8-2-1.3-2.7c-0.5-0.6-1-1-1.5-1.3C63.3,63.1,62.6,62.9,61.9,62.9z"/>
				<path class="st0" d="M75.4,78.4v-0.7h0.2c0.4,0,0.7-0.1,1-0.2c0.2-0.1,0.4-0.2,0.6-0.4c0.2-0.2,0.3-0.5,0.4-0.8
					c0.1-0.4,0.1-0.9,0.1-1.7V63.3c-0.4,0-0.8,0-1.3,0c-1.1,0.1-2,0.2-2.5,0.4s-1,0.6-1.3,1.1S72,66,71.8,66.9v0.2L71.1,67l0.2-4.6
					H87l0.2,4.6l-0.7,0.1v-0.2c-0.2-1-0.5-1.8-0.9-2.3s-1-0.9-1.8-1.1c-0.6-0.2-1.8-0.3-3.3-0.3v11.3c0,0.7,0,1.3,0.1,1.7
					c0.1,0.3,0.2,0.6,0.4,0.8c0.2,0.2,0.4,0.3,0.6,0.4s0.6,0.1,1,0.2h0.2v0.7h-7.4V78.4z"/>
				<path class="st0" d="M89.2,78.4v-0.7h0.2c0.4,0,0.7-0.1,1-0.2c0.2-0.1,0.4-0.2,0.6-0.4c0.2-0.2,0.3-0.5,0.4-0.8
					c0.1-0.4,0.1-0.9,0.1-1.7v-8.3c0-0.7,0-1.3-0.1-1.7c-0.1-0.3-0.2-0.6-0.4-0.8c-0.2-0.2-0.4-0.3-0.6-0.4c-0.2-0.1-0.6-0.1-1-0.2
					h-0.2v-0.7h12.6l0.2,4.2h-0.7v-0.2c-0.1-0.6-0.2-1.1-0.5-1.5c-0.2-0.4-0.5-0.7-0.9-1c-0.3-0.2-0.7-0.4-1.2-0.5s-1.1-0.2-1.9-0.2
					h-2.4v6.4H95c0.7,0,1.2,0,1.5-0.1s0.6-0.2,0.7-0.4c0.2-0.2,0.3-0.4,0.4-0.7c0.1-0.3,0.2-0.7,0.2-1.3V67h0.7v6.5h-0.7v-0.2
					c-0.1-0.6-0.2-1-0.3-1.4c-0.1-0.3-0.3-0.6-0.5-0.8c-0.2-0.2-0.5-0.4-0.8-0.5s-0.8-0.2-1.3-0.2h-0.4v2.4c0,1,0,1.8,0.1,2.2
					c0.1,0.4,0.1,0.8,0.3,1.1c0.2,0.5,0.6,0.9,1.1,1.1s1.2,0.4,2,0.4c0.9,0,1.6-0.1,2.2-0.3c0.6-0.2,1-0.6,1.4-1
					c0.3-0.3,0.5-0.7,0.6-1.1c0.2-0.4,0.3-0.9,0.5-1.6v-0.2h0.7l-0.2,4.9L89.2,78.4L89.2,78.4z"/>
				<path class="st0" d="M105.9,78.4v-0.7h0.2c0.7,0,1.2-0.2,1.6-0.6c0.2-0.2,0.3-0.5,0.4-0.8c0.1-0.4,0.1-0.9,0.1-1.7v-8.3
					c0-0.8,0-1.4-0.1-1.7c-0.1-0.3-0.2-0.6-0.5-0.8c-0.2-0.2-0.4-0.3-0.6-0.4c-0.2-0.1-0.6-0.1-0.9-0.1h-0.2v-0.7h7.7v0.7h-0.2
					c-0.4,0-0.7,0.1-1,0.2c-0.2,0.1-0.4,0.2-0.6,0.4c-0.2,0.2-0.4,0.5-0.5,0.8c-0.1,0.4-0.1,0.9-0.1,1.7v6.5c0,1,0,1.7,0.1,2.2
					c0,0.5,0.1,0.8,0.3,1.1c0.2,0.5,0.6,0.9,1.1,1.1s1.2,0.4,2,0.4c0.9,0,1.6-0.1,2.2-0.3c0.6-0.2,1.1-0.6,1.4-1
					c0.2-0.3,0.5-0.7,0.6-1.1c0.2-0.4,0.3-1,0.5-1.7v-0.2l0.7,0.1l-0.2,5.1h-14V78.4z"/>
			</g>
			<path class="st0" d="M103,56.7L103,56.7h-7.8V56h0.2c0.8-0.1,1.1-0.2,1.3-0.3c0.4-0.3,0.6-0.6,0.6-1c0-0.3-0.1-0.7-0.3-1.2
				l-1.2-3h-4.7l-0.5,1.4l-0.3,0.7c-0.3,0.8-0.5,1.4-0.5,1.9c0,0.2,0.1,0.5,0.2,0.7s0.3,0.4,0.4,0.5c0.3,0.2,0.6,0.3,1,0.3h0.2v0.7
				h-5.5V56h0.2c0.4,0,0.7-0.1,1-0.3s0.5-0.4,0.8-0.8c0.2-0.3,0.5-0.7,0.7-1.2s0.5-1.2,0.9-2.2l4.2-10.8h0.9l5,12
				c0.3,0.6,0.5,1.1,0.7,1.5c0.6,1.1,1.6,1.6,2.6,1.6c1.3,0,2.3-1,2.3-2.3v-0.2h0.7v0.2C106.1,55.3,104.8,56.7,103,56.7
				C103.1,56.7,103.1,56.7,103,56.7z M95.5,49.6l-2.1-5.1l-1.9,5.1H95.5z"/>
		</g>
		<path class="st0" d="M124.6,21.2c-0.7,1.7-1.5,3.1-3.1,4c-2,1.1-4.3,1.5-6.4,2.4c-3,1.2-5.7,3.5-5.5,6.7c-1-1.7-2.9-3-4.8-3.8
			c-2.1-0.9-4.4-1.2-6.4-2.4c-1.6-0.9-2.4-2.3-3.1-4c-1.4,4.1,1.7,7,5.2,8.4c2.1,0.9,4.4,1.3,6.4,2.4c1.6,0.9,2.4,2.3,3.1,4
			c0,0,0.5-1,0.5-2.3c0-2.1,1.1-3.7,2.7-4.6c2-1.1,4.2-1.5,6.3-2.3C122.9,28.2,126.1,25.3,124.6,21.2z"/>
	</g>
</g>
</svg>
