<?xml version="1.0" encoding="utf-8"?>
<!-- Generator: Adobe Illustrator 24.2.3, SVG Export Plug-In . SVG Version: 6.00 Build 0)  -->
<svg version="1.1" id="Layer_1" xmlns="http://www.w3.org/2000/svg" xmlns:xlink="http://www.w3.org/1999/xlink" x="0px" y="0px"
	 viewBox="0 0 150 100" style="enable-background:new 0 0 150 100;" xml:space="preserve">
<style type="text/css">
	.st0{fill:#FFFFFF;}
</style>
<g>
	<polygon class="st0" points="71.7,69.8 70.5,69.8 67.3,69.8 66.1,69.8 66,69.8 65.9,71.6 66.5,71.6 67,70.8 68.2,70.8 68.2,76.9 
		69.6,76.9 69.6,70.8 70.8,70.8 71.3,71.6 71.9,71.6 71.8,69.8 	"/>
	<polygon class="st0" points="123.1,69.8 121.9,69.8 118.7,69.8 117.5,69.8 117.4,69.8 117.3,71.6 117.9,71.6 118.4,70.8 
		119.6,70.8 119.6,76.9 121,76.9 121,70.8 122.2,70.8 122.7,71.6 123.3,71.6 123.2,69.8 	"/>
	<polygon class="st0" points="98.2,70.3 98.5,70.7 96.1,73.3 96.1,70.8 96.7,70.3 96.7,69.8 94.2,69.8 94.2,70.3 94.8,70.8 
		94.8,76.9 96.1,76.9 96.1,74.8 97.3,73.6 98.4,74.4 99.1,76.9 100.5,76.9 99.6,73.7 98.1,72.7 99.8,70.8 100.7,70.3 100.7,69.8 
		98.2,69.8 	"/>
	<polygon class="st0" points="50.8,70.3 51.1,70.7 48.8,73.3 48.8,70.8 49.3,70.3 49.3,69.8 46.8,69.8 46.8,70.3 47.4,70.8 
		47.4,76.9 48.8,76.9 48.8,74.8 49.9,73.6 51,74.4 51.7,76.9 53.1,76.9 52.2,73.7 50.7,72.7 52.4,70.8 53.3,70.3 53.3,69.8 
		50.8,69.8 	"/>
	<polygon class="st0" points="114.7,70.3 115.2,70.8 115.2,76.9 116.6,76.9 116.6,69.8 114.7,69.8 	"/>
	<polygon class="st0" points="39.1,69.8 37.9,69.8 34.7,69.8 33.5,69.8 33.4,69.8 33.3,71.6 33.9,71.6 34.4,70.8 35.6,70.8 
		35.6,76.9 37,76.9 37,70.8 38.2,70.8 38.7,71.6 39.3,71.6 39.2,69.8 	"/>
	<polygon class="st0" points="19.3,70.8 19.8,71.6 20.3,71.6 20.2,69.8 15,69.8 15,70.3 15.6,70.8 15.6,76.9 20.2,76.9 20.3,75.1 
		19.8,75.1 19.3,75.9 16.9,75.9 16.9,73.8 19.2,73.8 19.2,72.8 16.9,72.8 16.9,70.8 	"/>
	<polygon class="st0" points="25.5,70.8 26.2,71.6 26.8,71.6 26.6,69.8 21.4,69.8 21.4,70.3 22,70.8 22,76.9 26.6,76.9 26.8,75.1 
		26.2,75.1 25.5,75.9 23.3,75.9 23.3,73.8 25.6,73.8 25.6,72.8 23.3,72.8 23.3,70.8 	"/>
	<polygon class="st0" points="39.8,70.3 40.4,70.8 40.4,76.9 41.7,76.9 41.7,69.8 39.8,69.8 	"/>
	<path class="st0" d="M31,72.8l-0.8-0.2c-0.4-0.1-0.8-0.4-0.8-1c0-0.4,0.3-0.9,1.1-0.9c0.3,0,0.8,0.1,1.1,0.1l0.5,0.8h0.6L32.5,70
		c-0.5-0.2-1.3-0.3-2-0.3c-1.8,0-2.5,1.1-2.5,2c0,0.8,0.4,1.7,1.7,2l0.9,0.2c0.8,0.2,0.9,0.6,0.9,1.1s-0.3,1-1.1,1
		c-0.5,0-1.3-0.1-1.6-0.3l-0.4-0.6h-0.6l0.1,1.6l0,0c0.8,0.2,1.7,0.3,2.4,0.3c1.8,0,2.5-0.9,2.5-2.1C32.9,73.5,32.1,73.1,31,72.8"/>
	<path class="st0" d="M58.1,70.3l0.6,0.5v3.5c0,0.9-0.2,1.8-1.3,1.8h-0.3c-1,0-1.3-0.8-1.3-1.8v-3.5l0.6-0.5v-0.5h-2.5v0.5l0.6,0.5
		v3.7c0,1.4,0.6,2.5,2.7,2.5h0.3c2.1,0,2.6-1.1,2.6-2.5v-3.7l0.6-0.5v-0.5h-2.5L58.1,70.3L58.1,70.3z"/>
	<path class="st0" d="M76.5,70.3l0.6,0.5v3.5c0,0.9-0.2,1.8-1.3,1.8h-0.3c-1,0-1.3-0.8-1.3-1.8v-3.5l0.6-0.5v-0.5h-2.5v0.5l0.6,0.5
		v3.7c0,1.4,0.6,2.5,2.7,2.5h0.3c2.1,0,2.6-1.1,2.6-2.5v-3.7l0.5-0.5v-0.5h-2.5L76.5,70.3L76.5,70.3z"/>
	<path class="st0" d="M84.1,70.3l0.6,0.5v3.5c0,0.9-0.2,1.8-1.3,1.8h-0.3c-1,0-1.3-0.8-1.3-1.8v-3.5l0.6-0.5v-0.5h-2.5v0.5l0.6,0.5
		v3.7c0,1.4,0.6,2.5,2.7,2.5h0.3c2.1,0,2.6-1.1,2.6-2.5v-3.7l0.6-0.5v-0.5h-2.5L84.1,70.3L84.1,70.3z"/>
	<path class="st0" d="M102.2,69.8v0.4l0.6,0.5l-1.5,6.1h1.4l0.5-2.3h2.5l0.5,2.3h1.4l-1.7-7H102.2z M103.5,73.6l0.7-2.8h0.7l0.7,2.8
		H103.5z"/>
	<path class="st0" d="M127.7,69.8H124v0.4l0.6,0.5l-1.5,6.1h1.3l0.5-2.3h2.5l0.5,2.3h1.3L127.7,69.8L127.7,69.8z M125.2,73.6
		l0.7-2.8h0.7l0.7,2.8H125.2z"/>
	<path class="st0" d="M93.1,72.1c0-1.4-0.9-2.3-2.7-2.3l0,0h-3.1v0.4l0.6,0.5v6.1h1.4v-2.5h1.4l1.2,2.5h1.5L92,74
		C92.6,73.8,93.1,73.1,93.1,72.1 M90.3,73.4h-1.1v-2.6h1.1l0,0c1,0,1.4,0.6,1.4,1.3C91.8,72.8,91.3,73.4,90.3,73.4"/>
	<path class="st0" d="M111.4,69.8L111.4,69.8h-3v0.4l0.6,0.5v6.1h1.4v-2.2h1.1c1.8,0,2.7-0.9,2.7-2.4
		C114.1,70.7,113.3,69.8,111.4,69.8 M111.4,73.8h-1v-3h1c1,0,1.4,0.6,1.4,1.5C112.8,73.1,112.4,73.8,111.4,73.8"/>
	<polygon class="st0" points="65.7,75.9 63.5,75.9 63.5,70.8 64.1,70.3 64.1,69.8 61.6,69.8 61.6,70.3 62.2,70.8 62.2,76.9 
		66.8,76.9 66.8,76.9 66.9,75.1 66.4,75.1 	"/>
	<polygon class="st0" points="133.8,75.9 131.6,75.9 131.6,70.8 132.2,70.3 132.2,69.8 129.7,69.8 129.7,70.3 130.2,70.8 
		130.2,76.9 134.9,76.9 134.9,76.9 135,75.1 134.4,75.1 	"/>
	<path class="st0" d="M35.5,60.9c0-1-0.6-1.9-0.6-2.4c0-0.8,0.6-1.5,0.7-1.7c0.3-0.4,0.5-1.1,0.6-1.3c0.5-1,1-1.4,1-2.2
		c0.1-0.7-0.2-1.1-0.5-1.5c-0.2-0.3-0.9-1.7-2.1-3.2c-1.3-1.6-2.3-1.9-2.3-2.1c-0.1-0.3,0.6-0.8,0.6-1.2c0.1-0.7-0.4-1.6-1.3-1.7
		c-0.9-0.1-1.2,0.1-1.3,0.2c-0.2,0.2-0.4,0.5-0.6,0.7c-0.1,0.1,0,0.4-0.1,0.6c0,0.1-0.1,0.2-0.1,0.4s0.2,0.9,0.3,1.2
		c-0.4-0.1-1-0.2-1.4-0.3c-0.5-0.1-1.5-0.1-1.7-0.2c-0.4,0-1.2-0.1-1.8-0.1c2.5-0.9,4.4-3.3,4.4-6.1c0-3.6-2.9-6.4-6.4-6.4
		c-3.6,0-6.4,2.9-6.4,6.4s2.8,6.4,6.3,6.4l0,0c-0.1,0.1-0.3,0.4-0.2,0.5c0.1,0.1,0.3-0.2,0.4-0.2s0.2-0.1,0.3-0.1
		c0.1,0,0.3,0,0.4,0.1s-0.2,0.1-0.4,0.2c-0.1,0-0.2,0.1-0.2,0.2c0,0.1,0.2,0.1,0.5,0c0.1,0,0.5,0.1,0.8,0.1c0.3-0.1,0.6-0.3,0.7-0.3
		s0.2,0,0.6,0.1s1.5,0.4,2.2,0.6c0.8,0.2,1.6,0.3,2.3,0.4c0.2,0.5,0.5,1.1,1,1.6c0,0.1,0,0.2-0.1,0.2s-0.1-0.2-0.2-0.2
		s-0.1,0.1-0.1,0.2c0,0.1,0.2,0.2,0.1,0.2s-0.4,0.1-0.5,0.1c-0.2,0-0.5-0.1-0.5,0.1c0,0.1,0.2,0.2,0.4,0.2c0.2,0,0.7,0,1,0.1
		c0.2,0,0.6,0.2,0.8,0.3c0.2,0.1,0.5,0.1,0.7,0.2c0.3,0.4,0.4,0.7,0.4,0.7c0.1,0.2,0.2,0.1,0.2,0.3c0.1,0.8,0.6,1.2,0.5,1.3
		s-0.4,0.1-0.8,0.3c-0.5,0.2-3.3,2-3.3,2.8c-0.1,0.8,0.4,1.5,0.5,1.7c0.2,0.2,0.6,1.6,0.8,2c0.5,1,0.5,2,0.7,2.5s0.1,1.3,0.3,1.9
		c0.1,0.2,0.1,0.5,0.1,0.5c-0.1,0.1-0.3,0-0.3,0.2s0.2,0.2,0.4,0.2s1.1-0.1,1.6,0c0.6,0.1,1,0.3,1.3,0.2c0.4-0.2,0-0.8,0-1.7
		C35.1,62.9,35.5,61.5,35.5,60.9 M23.8,45.9v-1.4h1.6v-1.9h1.9V41h1.4C28.4,43.4,26.4,45.5,23.8,45.9 M23.8,34.1
		c2.6,0.4,4.6,2.4,5,5h-1.4v-1.6h-1.9v-1.9h-1.6v-1.5H23.8z M22,34.1v1.4h-1.6v1.9h-1.9V39H17C17.4,36.5,19.4,34.5,22,34.1 M22,45.9
		c-2.6-0.4-4.6-2.4-5-5h1.4v1.6h1.9v1.9H22V45.9z M20.8,44v-1.9h-1.9v-1.6H17v-0.9h1.9V38h1.9v-2h1.6v-2h0.9v2H25v1.9h1.9v1.6h1.9
		v0.9h-1.9V42H25v2h-1.6v1.9h-0.9V44H20.8z M34,63.2c0,0.4-0.2,0.9-0.6,1c-0.3,0.1-1,0.4-1.1,0.4c0.1-0.2,0.2-0.6,0.2-1.1
		c0-0.3,0.3-0.7,0.4-1c0.1-0.3,0.4-0.4,0.4-0.7s-0.6-0.4-0.7-0.7c-0.1-0.2-0.3-2.3-0.4-2.8c-0.1-0.5-0.3-0.9-0.4-1.1
		c-0.1-0.2-0.2-0.3,0-0.5c0.2-0.2,1.2-0.3,1.8-0.5c0,0.1-0.4,1.3-0.4,1.7s0.1,0.8,0.4,1.6C33.7,60,34.1,62.1,34,63.2"/>
	<path class="st0" d="M42.3,63c-0.1-0.3-0.4-2.1-0.7-2.8c-0.2-0.4-0.8-1.2-0.8-1.4s0.1-0.9,0.2-1c0.5-0.5,1-1.8,1.1-2.1
		c0.1-0.2,0.3-0.3,0.5-0.3s1.5,3,2.4,4c0.7,0.8,0.7,1,0.9,1.2c0.2,0.3,0.6,0.3,0.9,0.5c0.6,0.5,0.8,1.1,1.1,1.5
		c0.3,0.3,1.7,1.6,1.6,1.8c0,0.1-0.1,0.2-0.2,0.2c-0.1,0-0.3,0.1-0.3,0.3c0,0.2,0.3,0.3,0.8,0.3c0.6,0,1.3,0,1.4-0.1
		c0.1-0.2,0-0.4-0.2-0.5s-0.3-0.2-0.4-0.4c-0.1-0.1-0.1-0.2-0.3-0.3c-0.3-0.2-1.2-2.3-1.6-2.9c-0.5-0.6-1.4-1.3-1.5-1.3
		c-0.2-0.1-0.4-0.5-0.6-0.7c-0.3-0.3-0.7-2-0.8-2.2c-0.1-0.3-0.8-2.1-0.8-2.6c0-0.6-0.2-1.1-0.3-1.5c-0.2-0.5-0.1-0.9-0.1-1.4
		c0.1-0.7,0.3-1.6,0.2-2.4c0-0.8-0.3-2.6-0.2-3.5c0-0.5,0.2-1,0.2-1.5c0.1-0.5,0.1-1.7,0.2-2c0.2-0.5,0.2-1.2,0.2-1.5
		c0-0.4,0.2-1.4,0.2-1.7l0,0c0.1-0.4,0.3-0.6,0.5-0.8c0.2-0.1,0.2-0.2,0.2-0.3s-0.2,0.1-0.3,0.2c-0.1,0-0.1,0-0.1-0.1
		s0.2-0.4,0.3-0.6c0-0.1-0.1-0.1-0.1,0s-0.1,0.1-0.1,0.2c-0.1,0.1-0.1,0.2-0.2,0.2c0,0,0-0.2,0-0.3c0-0.2,0-0.3,0-0.4
		c-0.1,0-0.1,0.1-0.1,0.3c0,0.1-0.1,0.2-0.1,0.3c-0.1,0.1-0.1,0.1-0.1,0c0-0.2-0.1-0.5-0.1-0.6l0,0c0.4-0.4,0.9-0.7,1.5-1L46.2,23
		h-6.8l-0.7,12.9c2.1,1,3,2.5,3.3,5.2c0,0.2,0,0.5-0.1,0.5c0,0.1-0.1,0.1-0.2,0c-0.1-0.1-0.2-0.4-0.2-0.4c-0.1,0-0.1,0.1,0,0.3
		c0.1,0.1,0.1,0.4,0.2,0.6c-0.3-0.2-0.6-0.3-0.9-0.2c-0.3,0-1.4,0.3-1.5,1.2c-0.1,0.6,0.4,1,0.4,1.2s-0.9,0.6-0.7,1.3
		c0.3,0.8,0.8,1.5,1.1,1.9c0.3,0.3,1.2,2.6,1.1,3.4c0,0.2-0.4,0.5-0.6,1c-0.1,0.3-0.1,0.6-0.2,0.7c0,0.1-0.7,0.7-1.2,3.1
		c-0.2,0.9-0.2,2.6-0.1,2.8c0.1,0.4,0.2,0.3,0.2,0.6c0,0.2,0.2,0.8,0.4,1.4c0.4,0.8,1.7,2.6,1.9,3.3c0.1,0.3-0.1,1.1-0.1,1.3
		c-0.2,0.3-0.3,0.3-0.3,0.5s0.6,0.1,0.9,0.1c0.3,0,0.5-0.3,0.5-0.5s0-0.6,0.1-0.8c0.1-0.2,0.4-0.3,0.3-0.5
		C43.1,63.5,42.5,63.3,42.3,63 M42.2,41.5c0,0-0.1-0.2-0.1-0.3l0,0h0.2C42.3,41.3,42.3,41.5,42.2,41.5 M42.6,41.2H43
		c-0.1,0.1-0.3,0.3-0.4,0.4c0,0.1-0.1,0.1-0.1-0.1C42.5,41.5,42.6,41.3,42.6,41.2 M41.9,34.9c0-0.5,0.4-1,1-1c0.5,0,1,0.4,1,1
		c0,0.5-0.4,1-1,1C42.3,35.9,41.9,35.5,41.9,34.9 M44.7,40.7c-0.1,0.6-0.1,0.8-0.1,0.8c-0.1,0.3-0.5,1.4-0.6,2.1
		c-0.1,0.7-0.4,1.3-0.6,1.4c-0.1,0-0.6,0.2-0.6,0.2c-0.1,0-0.3-0.3-0.3-0.4c0-0.1,0-0.7,0.1-0.9c0.2-0.3,0.1-0.6-0.2-1
		c0.2-0.1,0.2-0.1,0.3-0.2c0.1,0,0.2-0.1,0.3-0.1c0.3,0,0.2-0.1,0.4-0.1c0.1,0,0.1-0.1,0-0.2c-0.3-0.1-0.3,0-0.6,0
		c-0.1,0,0-0.2,0-0.3s0.1-0.3,0.2-0.4c0-0.1,0.2-0.2,0.2-0.4h0.5c0.1-1.5,0.4-2.5,1-3.4c0,0.1,0.1,0.2,0.1,0.3
		c0.1,0.1,0.1,0.2,0.2,0.2c0.1,0.1,0.1,0.3,0.1,0.5C45,39.5,44.7,40.5,44.7,40.7 M45.2,37.7c0,0.1-0.1,0.3-0.2,0.3
		c-0.2,0-0.2-0.2-0.3-0.3c0.2-0.2,0.3-0.4,0.5-0.6c0,0.1,0,0.2,0,0.2C45.3,37.4,45.2,37.6,45.2,37.7 M39.8,23.4h6l0.1,1.9
		c-0.9,0.5-2,0.7-3.1,0.7s-2.2-0.3-3.1-0.7L39.8,23.4z M39.7,25.8c1,0.4,2,0.7,3.1,0.7s2.2-0.2,3.1-0.7l0.1,1c-1,0.5-2,0.8-3.2,0.8
		c-1.1,0-2.2-0.3-3.2-0.8L39.7,25.8z M39.6,27.2c1,0.5,2.1,0.7,3.2,0.7c1.2,0,2.2-0.3,3.2-0.7l0.1,1c-1,0.5-2.1,0.8-3.3,0.8
		s-2.3-0.3-3.3-0.8L39.6,27.2z M39.5,28.7c1,0.5,2.1,0.8,3.3,0.8s2.3-0.3,3.3-0.8l0.1,1c-1,0.5-2.1,0.8-3.3,0.8s-2.3-0.3-3.3-0.8
		L39.5,28.7z M39.1,35.7l0.3-5.6c1,0.5,2.2,0.8,3.4,0.8s2.4-0.3,3.4-0.8l0.3,5.6c-2,1.1-2.9,2.5-3.2,5.1H43v-4.5
		c0.7-0.1,1.2-0.7,1.2-1.4c0-0.8-0.6-1.4-1.4-1.4c-0.8,0-1.4,0.6-1.4,1.4c0,0.7,0.5,1.3,1.2,1.4v4.5h-0.3
		C42,38.2,41.1,36.7,39.1,35.7"/>
	<path class="st0" d="M107.2,55.3c0.2,0,0.4,0.2,0.5,0.3c0.1,0.3,0.6,1.7,1.1,2.1c0.1,0.1,0.2,0.8,0.2,1s-0.6,1-0.8,1.4
		c-0.4,0.7-0.6,2.6-0.7,2.8s-0.7,0.5-0.7,0.9c0,0.2,0.2,0.3,0.3,0.5c0.1,0.1,0.1,0.6,0.1,0.8c0,0.2,0.3,0.4,0.5,0.5
		c0.3,0,0.9,0.1,0.9-0.1s-0.1-0.2-0.3-0.5c-0.1-0.1-0.2-0.9-0.1-1.3c0.1-0.6,1.5-2.5,1.9-3.3c0.3-0.6,0.4-1.2,0.4-1.4
		c0.1-0.3,0.2-0.3,0.2-0.6c0-0.2,0.1-1.9-0.1-2.8c-0.6-2.4-1.2-2.9-1.2-3.1c0-0.2,0-0.4-0.2-0.7c-0.2-0.4-0.5-0.8-0.6-1
		c0-0.8,0.9-3.1,1.1-3.4c0.3-0.4,1.4-2.2,0.9-2.7c-0.4-0.5-0.4-0.4-0.4-0.6c0-0.2,0.4-0.5,0.4-1.1c-0.1-0.9-1.3-1.2-1.6-1.2
		c-0.3,0-0.7,0.1-0.9,0.2c0-0.2,0.1-0.4,0.1-0.5l7.8-4.9L97.2,32l6.8,7c0.1,0.4,0.2,1.1,0.2,1.4c0,0.4,0,1,0.2,1.5
		c0.1,0.3,0.1,1.5,0.2,2s0.2,1.1,0.2,1.5c0.1,0.9-0.2,2.6-0.2,3.5c0,0.7,0.1,1.7,0.2,2.4c0.1,0.4,0.1,0.8-0.1,1.4
		c-0.1,0.4-0.3,0.9-0.3,1.5c0,0.5-0.7,2.3-0.8,2.6c-0.1,0.2-0.5,1.9-0.8,2.2c-0.2,0.2-0.4,0.6-0.6,0.7c-0.1,0.1-1,0.8-1.5,1.3
		c-0.4,0.6-1.4,2.7-1.6,2.9C99,64,99,64.1,98.9,64.2s-0.2,0.2-0.4,0.4c-0.2,0.1-0.3,0.3-0.2,0.5c0.1,0.1,0.8,0,1.4,0.1
		c0.6,0,0.8-0.1,0.8-0.3c0-0.1-0.2-0.2-0.3-0.3c-0.1,0-0.1-0.1-0.2-0.3c0-0.1,1.4-1.5,1.6-1.8c0.4-0.4,0.6-1,1.1-1.5
		c0.3-0.3,0.7-0.3,0.9-0.5c0.2-0.2,0.2-0.4,0.9-1.2C105.7,58.3,107,55.3,107.2,55.3 M108.9,45.6c0-0.1,0.5-0.3,0.5-0.3
		s0.2,0.2,0.1,0.3c-0.1,0.2-0.2,0.4-0.4,0.4c-0.2,0-0.3-0.1-0.3-0.1C108.8,45.8,108.8,45.6,108.9,45.6 M115,37.1l-7.2,4.5
		c0-0.2,0-0.4-0.1-0.6c0-0.1-0.1-0.1-0.1,0s0,0.2,0,0.3s0,0.3-0.1,0.3s-0.1-0.2-0.1-0.3c-0.1-0.2-0.2-0.3-0.3-0.3
		c-0.1,0-0.1,0.1,0,0.4c0,0.1,0.1,0.3,0.1,0.4c0,0,0,0,0,0.1l-2.5-2.5c0-0.1,0-0.1,0-0.2c0-0.2,0-0.4,0.1-0.5s0.1-0.1,0.2-0.2
		c0.1-0.1,0.1-0.2,0.2-0.4c0.1-0.1,0-0.1-0.1-0.1c-0.2,0.1-0.2,0.3-0.4,0.3c-0.1,0-0.1-0.2-0.2-0.3c0-0.1,0-0.3,0-0.4
		c0-0.1,0-0.3,0-0.4c0-0.1-0.1-0.1-0.1,0s-0.1,0.4-0.1,0.6c0,0.1-0.1,0.1-0.1,0s-0.1-0.2-0.1-0.3c-0.1-0.2-0.1-0.3-0.1-0.3
		s-0.1,0.1,0,0.4c0,0.1,0.1,0.3,0,0.3c0,0-0.1-0.1-0.2-0.2c-0.1-0.1-0.1-0.2-0.1-0.2c0-0.1-0.1-0.1-0.1,0c0.1,0.2,0.2,0.5,0.3,0.6
		c0,0.1,0,0.1-0.1,0.1s-0.2-0.2-0.3-0.2l-5-5L115,37.1z M106.5,45c-0.2-0.1-0.6-0.8-0.6-1.4c-0.1-0.7-0.5-1.8-0.6-2.1
		c0,0,0-0.2-0.1-0.8c0-0.1-0.2-0.5-0.3-0.9l2.1,2c0,0,0,0.1,0.1,0.1c0,0.1,0.1,0.3,0,0.3c-0.2,0.1-0.3,0-0.6,0c-0.1,0-0.1,0.1,0,0.2
		c0.2,0,0.1,0.1,0.4,0.1c0.1,0,0.2,0.1,0.3,0.1c0.2,0.1,0.2,0.1,0.3,0.2c-0.3,0.4-0.4,0.7-0.2,1c0.1,0.2,0.2,0.7,0.1,0.9
		c0,0.1-0.2,0.4-0.3,0.4S106.6,45,106.5,45"/>
	<path class="st0" d="M123.6,62.8c0.3,0.5,0.2,0.5,0.3,0.6c0.1,0.1,0.2,0.1,0.3,0.4c0.3,0.6,0.4,0.6,0.5,1c0.1,0.2,0.2,0.3,0.4,0.6
		c0.1,0.1,0.2,0.2,0.3,0.1c0.1,0,0.1-0.1,0.2-0.2c0.1,0,0.2,0,0.2-0.1c0.2-0.2,0.2-0.4,0.2-0.6s-0.1-0.4-0.3-0.6
		c-0.1-0.2-0.6-0.7-0.8-1c-0.1-0.2-0.2-0.4-0.3-0.4c-0.1-0.1-0.2-0.1-0.2-0.2c-0.4-0.8-0.7-2-1.5-3c-0.6-0.8-1.1-1-1.3-1.1
		c-0.3-0.2-1.2-2.2-1.7-3.6c-0.2-0.5-0.2-0.9-0.5-1.4c-0.6-1.1-1.1-1-1.8-1.4c-0.3-0.2-0.6-0.8-1.3-2c0.3,0,1.2-0.1,1.5,0
		c0.7,0.7,1.5,1.3,2.3,1.7c0.1,0.1,0.3,0.3,0.4,0.4c0.1,0.2,0.4,0.4,0.5,0.6c0.2,0.3,0.4,0.6,0.5,0.7c0.1,0.3,0.2,0,0.2-0.1
		c-0.1-0.1-0.2-0.3-0.1-0.4c0.1,0,0.5,0,0.6,0c0.2,0,0.4,0.1,0.5,0.1s0.3,0,0.3-0.1s0-0.1,0.1-0.1s0.2-0.1,0.1-0.2
		c0.1-0.1,0-0.2-0.1-0.2l-0.1-0.1l0,0c4.2,0,10.5-3.3,10.5-10.5c0-5.3-4.3-7.1-5.8-7.1c-2.1,0-3,1.8-3.7,3.3
		c-0.4,0.9-0.8,1.8-1.4,1.8c-0.7,0-0.9-0.6-1-1.6c-0.1-0.7-0.3-1.5-1-1.5c-1.3,0-4.7,4-4.7,8.3c0,0.1,0,0.1,0,0.2
		c-0.2,0-0.4,0.2-0.8,0.3l0,0c0-0.4-0.1-1-0.4-1.4c-0.4-0.4-1-0.5-1.3-0.5c-0.9,0-1.4,1-1.5,1.2c0,0.4-0.2,0.4-0.2,0.8
		c0,0.3-0.1,0.7-0.1,0.9s0,0.5,0.2,0.5c0.2,0.1,0.2,0,0.2,0.3c0,0.2,0.1,0.4,0.1,0.6c-0.2,0.8-0.1,0.9,0.1,1.9c0.2,0.9,1,2,1.7,2.6
		c0.3,0.3,0.9,1.2,1.2,1.4c0.1,0.1,0.1,0.5,0,0.5c-0.3,0.6-1,1.6-1.3,2.1c-0.4,0.8-0.6,1.6-0.7,1.8s-0.2,0.4-0.2,0.7
		c0,0.5,0.4,0.8,0.7,1.1c0.4,0.6,0.5,0.8,0.8,1.2c1,1.1,0.9,1,1.6,2c0.1,0.1,0.1,0.6,0.1,0.6c-0.2,0.2-0.6,1.1-0.9,1.1
		c-0.1,0-0.6,0.1-0.6,0.3c0,0.1,0.1,0.1,0.2,0.1s0.7,0,0.9,0c0.4,0,0.3-0.2,0.6-0.4c0.2-0.1,0.5-0.4,1.2-0.5
		c0.3-0.1,0.5-0.3,0.4-0.6c0-0.2-0.4-0.7-0.7-0.9c-0.5-0.6-0.7-1.8-1.1-2.4c-0.4-0.6-1.4-1.5-1.4-1.6c0.6-1.1,1.3-1.3,1.7-1.9
		c0.3-0.4,0.5-1,0.9-1.3c1.1,1.1,1.3,2,2.1,2.9c0.2,0.2,0.3,0.4,0.6,0.6c0.4,0.2,1,0.8,1.8,1.6c0.3,0.2,0.4,0.8,1,1.3
		C123.4,62.4,123.4,62.5,123.6,62.8 M120.7,37c0.3,0,0.4,0.5,0.6,1.2c0.2,0.9,0.4,2,1.5,2c0.9,0,1.3-0.9,1.8-2c0.7-1.4,1.4-3,3.3-3
		c1.2,0,5.4,1.6,5.4,6.6c0,6.9-6,10.1-10.1,10.1c-0.5,0-1.1-0.1-1.6-0.2c-0.1-0.1-0.2-0.1-0.3-0.2c-0.4-0.4-0.9-1.1-1.8-2
		c-0.3-0.3-0.3-0.4-0.4-0.5c-0.2-0.1-0.4-0.1-0.8-0.2c-0.3-0.1-0.6-0.2-0.9-0.2c-0.4-0.7-0.7-1.5-0.8-2.4c0.3,0,0.5,0.2,0.5,0.1
		c0-0.1-0.1-0.1,0-0.1s0.2-0.1,0.6,0c0.1,0,0.3-0.1,0.2-0.1c-0.1-0.1-0.3-0.1-0.5-0.2c-0.3,0-0.2-0.2-0.4-0.3
		c-0.1-0.1-0.3-0.2-0.5-0.2c0-0.1,0-0.2,0-0.2C116.4,40.6,119.6,37,120.7,37 M115.2,47.7c-0.2-0.2-0.3-0.3-0.9-0.9c0,0,0,0,0-0.1
		c0.2-0.2,0.4-0.3,0.8-0.4c0.3-0.1,0.5-0.6,0.6-0.6s0.2,0,0.3,0.2c0,0,0,0,0.1,0c0.1,0.9,0.4,1.7,0.7,2.4c-0.5-0.1-1-0.1-1.1-0.1
		C115.4,48.2,115.5,48,115.2,47.7"/>
	<path class="st0" d="M90.2,63.5c0-0.2-0.3-0.5-0.4-0.6s-0.3-0.2-0.3-0.4c-0.1-0.2-0.4-1.1-0.6-1.5c0.2,0.4,0.9,1.2,1.1,1.6
		c0.2,0.5,0.4,0.7,0.5,0.8c0,0.1,0.4,1,0.4,1.1c0,0.1,0,0.5,0,0.5s-0.5,0.2-0.4,0.3c0.1,0.1,0.1,0.1,0.3,0.1c0.2,0,0.7,0,0.8-0.1
		c0.1-0.1,0.3-0.2,0.2-0.6c0-0.2-0.1-0.6-0.1-0.7c0-0.4,0.3-0.8,0.3-1.1c0.1-0.2,0.1-0.5-0.1-0.6s-0.4-0.2-0.5-0.2s-0.2-0.1-0.3-0.2
		c0,0,0-0.1-0.1-0.1l12.3-8.3l-0.2-0.2c-0.1-0.1-0.1-0.5-0.2-0.8c0-0.6,0-1.3-0.7-1.7c0.2-0.2,0.5-0.5,0.7-0.7l0.2-0.2l-0.3-0.1
		c-0.2-0.1-0.6-0.4-0.6-0.6v-0.1c0-0.2,0.1-0.6-0.1-0.9c0,0,0.1,0,0.1-0.1c0.5-0.3,1.4-0.9,1.3-1.8V46l-0.2,0.1
		c-0.5,0.2-2.1,0.4-2.8,0.5c0-0.2,0.1-0.4,0.2-0.7c0.2-0.5,0.5-1.1,0.1-1.6l-0.1-0.1h-0.1c-0.3,0-0.9-0.1-1.2-0.2v-5.2l-12,8.2
		c-0.3-0.3-0.6-0.5-0.7-0.6s-0.2-0.1-0.1-0.1c0-0.1,0.1-0.2,0.3-0.2c0.2,0,0.4-0.2,0.6-0.5s0.3-1,0.2-1.3c-0.1-0.5-0.6-1.2-1.6-1.3
		c-0.2,0-0.6,0.1-0.8,0.3c-0.3,0.2-0.3,0.5-0.4,0.6S84.6,44,84.4,44c-0.1,0-0.1,0-0.1,0.1s0.1,0.2,0.1,0.3c0,0-0.2,0.1-0.1,0.1
		c0,0,0.1,0.2,0,0.2h-0.2c0,0.1,0,0.1,0,0.2c-0.1,0-0.2,0.1-0.2,0.3s0.4,0.3,0.4,0.4c0.1,0.1,0.2,0.4,0.2,0.5s0,0.4,0.1,0.6
		c0,0.1,0.3,0.4,0.4,0.6c-0.3,0.3-0.5,0.3-1.1,0.8c-0.2,0.1-0.2,0.5-0.6,0.7c-0.2,0.1-0.3,0.2-0.5,0.4c-0.1-0.3-0.2-0.5-0.3-0.7
		c0.1-0.1,0.1-0.2,0.2-0.2s0.2-0.3,0.2-0.4c0-0.1,0-0.4,0-0.4s0-0.1-0.1,0s-0.1,0.3-0.1,0.3l-0.1,0.1c0,0-0.2-0.3-0.1-0.4
		c0-0.1-0.1-0.7-0.1-0.8s-0.1-0.1-0.1,0c0,0,0-0.2-0.1-0.2s-0.1,0.2-0.1,0.2s0-0.1-0.1-0.1s-0.1,0.1-0.1,0.2
		c-0.1-0.1-0.2-0.3-0.2-0.4c-0.2-0.5-0.5-0.9-0.7-1.3c0.2,0.1,0.4,0.1,0.6,0c0.6-0.1,1-0.8,1-1.6c0-1.1-0.7-2.3-2-2.5
		c-0.4-0.1-1.1,0-1.6,0.5c-0.3,0.3-0.7,0.8-0.8,1.7h-0.3V41h-0.4v2.2h-0.9V41H76v2.2h-0.9V41h-0.4v2.2h-0.9V41h-0.4v2.2H73
		c-0.1-0.9-0.4-1.4-0.8-1.7C71.7,41,71,40.9,70.6,41c-1.3,0.2-2,1.4-2,2.5c0,0.9,0.4,1.5,1,1.6c0.2,0,0.5,0,0.6,0
		c-0.2,0.4-0.4,0.9-0.7,1.3c-0.9,1.7-2.1,3.9-2.1,7c0,4.8,2.5,7.1,4,8.1c0.3,0.2,0.6,0.3,1,0.5v1.7h-2.3v1.9h10.6v-1.9h-2.3V62
		c0.4-0.1,0.7-0.3,1-0.4l0,0c1.5-0.9,4.1-3.2,4.1-8.1c0-0.6,0-1.1-0.1-1.6c0.2,0,0.3-0.1,0.5-0.2c0.5-0.2,0.9-0.9,1-1.1
		c0.1-0.1,0.3-0.4,0.5-0.6c0.2,0.3,0.5,0.6,0.8,0.8c0.4,0.3,1.9,1.1,2.2,1.1c0,0,0,0.2,0,0.3s-0.2,0.3-0.2,0.6s0,1.1,0,1.1
		c0,0.1-1,1.2-1.6,2.5c-0.5,0.9-0.7,2-0.7,2.3s0.3,0.8,0.4,0.9c0.2,0.1,0.4,0.5,0.5,0.6c0.1,0.2,1.3,2.5,1.6,2.9
		c0.1,0.1,0.1,0.6,0.1,0.8c0,0.1-0.2,0.4-0.3,0.6c-0.1,0.2-0.2,0.4-0.4,0.7c-0.1,0.1-0.5,0.1-0.7,0.2c-0.1,0-0.1,0.2,0,0.3
		c0.1,0.1,0.8,0,1.1,0c0.2,0,0.6-0.4,0.8-0.5c0.1-0.2,0.4-0.4,0.6-0.5C89.9,64,90.3,63.7,90.2,63.5 M79.1,41.4
		c0.4-0.4,1-0.5,1.3-0.4c1.1,0.2,1.7,1.2,1.7,2.1c0,0.5-0.2,1.1-0.7,1.2c-0.2,0-0.4,0-0.6-0.1c-0.4-0.3-0.5-1.2-0.5-1.4h-0.4l0,0
		l0,0c0,1.1,0.6,2.2,1.3,3.4c0.1,0.2,0.2,0.3,0.3,0.5c0,0.1,0,0.3,0,0.4c0,0.1,0,0.3,0,0.5c0,0.1,0,0.5,0.1,0.6s0.2,0.3,0.2,0.4
		c0.1,0.3,0.2,0.6,0.3,0.9c-0.1,0.1-0.3,0.1-0.5,0.1c-0.4-0.1-1-0.3-1.5-0.5c-0.2-0.5-0.3-1-0.5-1.5c-0.6-1.5-1.1-3-1.1-4.6
		C78.5,42.3,78.7,41.8,79.1,41.4 M78.1,43.2c0,1.6,0.6,3.1,1.1,4.6c0.1,0.4,0.3,0.8,0.4,1.1c-0.4-0.2-0.7-0.4-0.9-0.5
		c-0.1-0.1-0.1-0.4-0.2-0.5c0-0.1-0.2-0.4-0.3-0.5c0-0.1-0.1-0.1-0.1,0s0,0.2,0.1,0.3c0,0.1,0,0.2-0.1,0.3c-0.1,0-0.1,0-0.2,0h-0.1
		v-4.7L78.1,43.2L78.1,43.2z M80.3,52.6c0,2.7-1.6,4.4-2.5,5.1V49c0.1,0,0.2,0,0.3,0.1c0.2,0.1,0.3,0,0.6,0.2
		c0.1,0.1,0.6,0.4,1.3,0.7C80.1,50.8,80.3,51.7,80.3,52.6 M76.4,43.2h0.9v4.4l-0.1-0.1c-0.1-0.1-0.2,0-0.2,0l0.2,0.3
		c0,0,0,0,0.1,0.1v0.2c-0.1,0-0.1-0.1-0.2-0.1s-0.3-0.2-0.3-0.2c-0.1,0-0.1,0.1-0.1,0.1l0.3,0.2c0,0,0.2,0.1,0.3,0.2v0.2
		c-0.1,0-0.4,0-0.5-0.1c-0.1,0-0.1,0.1,0,0.1c0.1,0.1,0.4,0.1,0.6,0.2v0.2C77.2,49,77,49,77,49c-0.1,0,0,0.1,0.1,0.1
		c0,0,0.2,0,0.3-0.1v9c-0.1,0.1-0.1,0.1-0.2,0.1c-0.2,0-0.5-0.1-0.7-0.1V43.2H76.4z M75.1,43.2H76V58c-0.2,0-0.3,0-0.5,0
		s-0.3,0-0.5,0L75.1,43.2L75.1,43.2z M73.7,43.2h0.9V58c-0.3,0-0.5,0.1-0.7,0.1c0,0-0.1-0.1-0.2-0.1C73.7,58,73.7,43.2,73.7,43.2z
		 M73,43.2h0.3v14.5c-0.9-0.8-2.5-2.4-2.5-5.1c0-1.7,0.6-3.3,1.1-4.8C72.4,46.3,73,44.9,73,43.2 M70.9,60.2c-1.4-1.1-3-3.3-3-7.1
		c0-3,1.1-5,2-6.8c0.7-1.2,1.2-2.3,1.3-3.4l0,0l0,0h-0.4c0,0.3-0.1,1.1-0.5,1.4c-0.2,0.1-0.4,0.2-0.6,0.1c-0.5-0.1-0.7-0.7-0.7-1.2
		c0-0.9,0.6-2,1.7-2.1c0.4-0.1,0.9,0,1.3,0.4s0.6,0.9,0.6,1.6c0,1.6-0.5,3.1-1.1,4.6s-1.1,3.1-1.1,5c0,3.1,2,5,2.9,5.7l0,0l0,0
		C71.9,58.7,70.9,59.4,70.9,60.2 M80.4,64.7h-9.8v-1.1h9.8V64.7z M72.9,61.6h5.3v1.6h-5.3V61.6z M78.2,61.2h-5.4
		c-1-0.2-1.6-0.6-1.6-1c0-0.8,1.9-1.7,4.3-1.7s4.3,0.9,4.3,1.7C79.8,60.6,79.2,61,78.2,61.2 M80.2,60.2c0-0.8-1-1.5-2.5-1.9l0,0l0,0
		c0.9-0.7,2.9-2.5,2.9-5.7c0-0.8-0.1-1.6-0.3-2.4c0.3,0.1,0.6,0.3,0.9,0.3c0.3,0.1,0.5,0.1,0.6,0.1s0.3-0.1,0.6-0.2
		c0.1,0.1,0.1,0.2,0.2,0.3s0.2,0.3,0.3,0.4c0.1,0.6,0.2,1.3,0.2,2C83.2,56.9,81.6,59,80.2,60.2 M83.9,49.8c-0.1,0.2-0.3,0.5-0.3,0.5
		c0-0.1-0.1-0.2-0.1-0.3c0.2-0.1,0.4-0.2,0.6-0.3C84,49.7,83.9,49.7,83.9,49.8 M88.3,57.5c0,0,0.8-1.1,1.4-1.7
		c0.4-0.5,0.8-1.2,0.8-1.2c0.1-0.1,1.1-0.6,1.2-1.3s-0.3-1.8-0.7-2.2c-0.4-0.5-0.7-0.7-0.8-0.8c-1-0.7-1.9-2.5-2.2-2.9
		c0-0.1-0.1-0.1-0.2-0.2L99,39.4v4.7h0.1c0,0,0.8,0.3,1.3,0.3c0.1,0.3,0,0.7-0.2,1.1c-0.2,0.4-0.3,0.7-0.3,1.1v0.2h0.2
		c0.4,0,2-0.3,2.8-0.5c-0.1,0.6-0.7,0.9-1.1,1.2c-0.1,0.1-0.2,0.2-0.3,0.2l-0.2,0.2l0.2,0.2c0.2,0.1,0.2,0.5,0.1,0.7
		c0,0.1,0,0.1,0,0.1c0,0.4,0.3,0.7,0.6,0.9c-0.3,0.3-0.7,0.7-0.8,0.8l-0.1,0.2l0.2,0.1c0.7,0.3,0.7,0.9,0.7,1.5c0,0.3,0,0.7,0.1,0.9
		l-11.8,8c-0.2-0.6-0.7-1.7-1.4-2.8C89.2,58.2,88.6,57.6,88.3,57.5"/>
	<path class="st0" d="M23.9,41h1.6v-2.1h-1.6v-1.6h-2.1v1.6h-1.6V41h1.6v1.6h2.1V41z M23.9,39.4h1.2v1.2h-1.2V39.4z M21.8,40.6h-1.2
		v-1.2h1.2V40.6z M23.5,42.2h-1.2V41h1.2V42.2z M23.5,40.6h-1.2v-1.2h1.2V40.6z M23.5,38.9h-1.2v-1.2h1.2V38.9z"/>
	<path class="st0" d="M55.1,52.3L55.1,52.3L55.1,52.3L55.1,52.3c1.3,0,2.3-0.2,3.2-0.5c-0.1,0.1-0.4,0.2-0.7,0.3
		c-0.2,0.1-0.6,0.1-0.9,0.2c-0.3,0.1-0.3,0.2-0.2,0.2c0,0-0.1,0.1-0.2,0.2c0,0-0.1,0.2,0,0.2c-0.1,0.1,0,0.2,0.1,0.2s0.1,0,0.2,0.1
		c0,0.1,0.1,0.1,0.2,0c0.1,0,0.3-0.1,0.5-0.1c0.1,0,0.5,0,0.6,0s0,0.2-0.1,0.4c-0.1,0.1,0,0.4,0.2,0.1c0.1-0.1,0.3-0.5,0.5-0.7
		c0.1-0.2,0.4-0.4,0.5-0.6c0.2-0.3,0.5-0.6,0.8-0.8c0.2-0.2,0.8-0.5,1-0.6c0.3-0.2,0.6-0.5,0.9-0.8c0.2-0.1,1.2-0.2,1.5-0.3
		c-0.7,1.3-1,1.9-1.3,2c-0.6,0.4-1.1,0.3-1.8,1.4c-0.3,0.6-0.3,1-0.5,1.4c-0.6,1.3-1.5,3.4-1.7,3.6c-0.2,0.1-0.7,0.3-1.3,1.1
		c-0.8,1-1.1,2.2-1.5,3c-0.1,0.2-0.1,0.2-0.2,0.2c-0.1,0-0.1,0.2-0.3,0.4s-0.7,0.8-0.8,1c-0.1,0.2-0.2,0.4-0.3,0.6
		c0,0.2,0,0.4,0.2,0.6c0.1,0.1,0.2,0.1,0.2,0.1c0.1,0,0.1,0.1,0.2,0.2c0.1,0,0.2,0,0.3-0.1c0.2-0.3,0.3-0.3,0.4-0.6
		c0.1-0.3,0.1-0.4,0.5-1c0.2-0.3,0.2-0.2,0.3-0.4c0.1-0.1,0-0.2,0.3-0.6c0.2-0.3,0.2-0.4,0.6-0.8c0.6-0.6,0.7-1.1,1-1.3
		c0.8-0.8,1.4-1.3,1.8-1.6c0.4-0.2,0.4-0.5,0.6-0.6c0.8-0.9,1-1.8,2.1-2.9c0.4,0.3,0.6,0.9,0.9,1.3c0.4,0.5,1.1,0.8,1.7,1.9
		c0.1,0.1-1,1-1.4,1.6s-0.5,1.8-1.1,2.4c-0.2,0.3-0.6,0.7-0.7,0.9c0,0.3,0.2,0.6,0.4,0.6c0.6,0.1,1,0.4,1.2,0.5
		c0.3,0.2,0.2,0.4,0.6,0.4c0.2,0,0.7,0,0.9,0c0.1,0,0.1,0,0.2-0.1c0-0.1-0.4-0.2-0.6-0.3c-0.3-0.1-0.7-0.9-0.9-1.1
		c0,0,0-0.5,0.1-0.6c0.6-1.1,0.6-0.9,1.6-2c0.4-0.4,0.4-0.6,0.8-1.2c0.2-0.3,0.7-0.6,0.7-1.1c0-0.4-0.1-0.5-0.2-0.7s-0.3-1-0.7-1.8
		c-0.3-0.6-1-1.6-1.3-2.1c0-0.1,0-0.5,0-0.5c0.3-0.3,0.9-1.1,1.2-1.4c0.6-0.6,1.5-1.6,1.7-2.6s0.2-1.1,0.1-1.9
		c0-0.2,0.1-0.3,0.1-0.6s0-0.2,0.2-0.3s0.2-0.3,0.2-0.5s-0.1-0.6-0.1-0.9c0-0.3-0.1-0.4-0.2-0.8c0-0.2-0.5-1.1-1.5-1.2
		c-0.2,0-0.9,0.1-1.3,0.5s-0.5,1-0.4,1.4l0,0c-0.5-0.1-0.7-0.3-0.9-0.3c-0.1,0-0.2,0.1-0.4,0.1c0-1-0.2-2-0.7-2.9
		c-0.4-0.9-0.5-2-0.5-3.4v-0.1c-0.1-1.4-0.2-2.1-1.2-2.7c-1.4-0.8-3.2-1.2-5.4-1.2l0,0l0,0c-2.3,0-4.1,0.4-5.4,1.2
		c-1,0.6-1.2,1.3-1.2,2.7v0.1c-0.1,1.4-0.1,2.5-0.5,3.4c-1,2.2-0.8,4.8,0.4,6.8C49.2,50.5,51.2,52.3,55.1,52.3 M63.4,45.9
		c0.1-0.2,0.2-0.2,0.3-0.2s0.3,0.5,0.6,0.6s0.5,0.2,0.8,0.4v0.1c-0.6,0.6-0.7,0.7-0.9,0.9c-0.3,0.3-0.3,0.6-0.5,0.6
		c-0.1,0-0.8,0.1-1.4,0.3c-0.1,0-0.1,0-0.2,0.1c0.4-0.8,0.7-1.6,0.8-2.5c0.1,0,0.2,0,0.2,0C63.3,46.1,63.4,46,63.4,45.9 M48.8,38.8
		L48.8,38.8c0.1-1.4,0.2-2,1-2.5c1.3-0.8,3-1.2,5.2-1.2s3.9,0.4,5.2,1.2c0.9,0.5,1,1.1,1,2.4v0.1c0,0.2,0,0.3,0,0.4
		c-1.3-0.2-2.1-0.6-2.8-1.1c-0.9-0.5-1.7-1.1-3.5-1.1l0,0l0,0l0,0l0,0c-1.8,0-2.7,0.6-3.5,1.1c-0.7,0.5-1.5,0.9-2.8,1.1
		C48.8,39.1,48.8,39,48.8,38.8 M48.2,42.4c0.2-0.4,0.3-0.7,0.4-1.1c0.4,0.1,0.5,0.2,0.7,0.3l0.1,0.1h0.1c0.3-0.1,0.5-0.1,0.7-0.2
		c0,0,0,0,0.1,0l0,0c2.4-0.4,3.4,0.4,3.8,0.6l0.6,0.5L54.5,42c-0.6-1.5-1.9-2.5-3.5-2.5c-1.2,0-1.6,0.6-1.6,1.1
		c0,0.2,0.1,0.4,0.3,0.6c-0.1,0-0.1,0-0.2,0c-0.2-0.1-0.4-0.3-0.9-0.4c0.1-0.4,0.1-0.8,0.1-1.2c1.4-0.2,2.2-0.7,3-1.2s1.6-1,3.3-1
		s2.5,0.5,3.3,1s1.6,1,3,1.2c0,0.4,0.1,0.8,0.1,1.2c-0.5,0.1-0.7,0.3-0.9,0.4c-0.1,0-0.1,0-0.2,0c0.2-0.2,0.3-0.4,0.3-0.6
		c0-0.5-0.4-1.1-1.6-1.1c-1.6,0-2.9,1-3.5,2.5l-0.2,0.6l0.6-0.5c0.4-0.3,1.4-1.1,3.8-0.6l0,0l0,0c0.2,0,0.5,0.1,0.7,0.2h0.1l0.1-0.1
		c0.2-0.1,0.3-0.3,0.7-0.3c0.1,0.4,0.2,0.7,0.4,1.1c0.4,0.9,0.6,2,0.6,3c-0.1,0.1-0.1,0.2-0.4,0.3c-0.1,0-0.2,0-0.3,0.1
		c0-0.1,0-0.2,0-0.3c0-1.3-0.8-2.4-1.9-2.9c-1-0.4-2-0.2-2.8,0.5l0.1,0.2l0.4,0.1c0.4,0.1,0.8,0.3,0.8,0.8c0,0.2-0.1,0.4-0.3,0.5
		c-0.2,0.2-0.5,0.2-0.8,0.1c-0.7-0.2-1,0.1-1.2,0.3s-0.4,0.3-0.8,0.3c-0.4,0-0.6-0.2-0.8-0.3c-0.3-0.2-0.5-0.5-1.2-0.3
		c-0.3,0.1-0.6,0-0.8-0.1s-0.2-0.3-0.2-0.5c0-0.5,0.4-0.7,0.8-0.8l0.4-0.1L53,43c-0.8-0.7-1.8-0.9-2.8-0.5c-1.1,0.5-1.9,1.6-1.9,2.9
		c0,2.9,3.5,4.1,4.7,4.5c0.1,0,0.1,0,0.2,0.1c0,0.1,0.1,0.1,0.1,0.2c0.4,0.5,1,0.7,1.8,0.7l0,0l0,0c0.8,0,1.4-0.2,1.8-0.7
		C57,50,57,50,57,49.9c0,0,0.1,0,0.2-0.1c1.1-0.4,4.2-1.4,4.6-3.9h0.1c0.4,0,0.5,0,0.6,0c-0.1,1-0.4,2-1,2.8c0,0,0,0,0,0.1
		c-0.1,0-0.1,0.1-0.2,0.1c-0.4,0.1-0.6,0.2-0.8,0.3s-0.2,0.2-0.4,0.5c-0.5,0.5-0.9,1-1.2,1.4c-1,0.4-2.2,0.7-3.8,0.7
		c-3.7,0-5.6-1.7-6.4-3C47.5,47,47.3,44.4,48.2,42.4 M49.8,40.6c0-0.4,0.5-0.7,1.2-0.7c1.1,0,2.2,0.6,2.8,1.6
		c-0.5-0.2-1.2-0.5-2.2-0.5c-0.4,0-0.9,0-1.4,0.1C50,41,49.8,40.8,49.8,40.6 M60.3,40.6c0,0.2-0.1,0.4-0.4,0.5
		c-0.5-0.1-1-0.1-1.4-0.1c-1,0-1.7,0.2-2.2,0.5c0.6-1,1.6-1.6,2.8-1.6C59.9,39.9,60.3,40.2,60.3,40.6 M57.3,47.8c0-0.2,0-0.3,0-0.3
		c0.2-0.2,0.9-0.2,1.3-0.1c0.1,0,0.2,0,0.3,0c0.3,0,0.6-0.1,0.7-0.3c0.1-0.2,0.1-0.4,0-0.6c-0.1-0.2-0.4-0.4-0.8-0.4
		c-1.9,0-3.2,1-3.8,1.6c-0.6-0.6-1.9-1.6-3.8-1.6c-0.4,0-0.6,0.1-0.8,0.4c-0.1,0.2-0.1,0.4,0,0.6c0.1,0.2,0.4,0.3,0.7,0.3
		c0.1,0,0.2,0,0.3,0c0.5,0,1.2-0.1,1.3,0.1c0,0,0.1,0.1,0,0.3c-0.1,0.4-0.2,1,0,1.6c-1.2-0.4-4.2-1.6-4.2-4c0-1.1,0.7-2.1,1.6-2.5
		c0.7-0.3,1.5-0.2,2.1,0.2c-0.5,0.2-0.8,0.6-0.8,1.1c0,0.4,0.1,0.7,0.4,0.9c0.3,0.2,0.7,0.3,1.1,0.2c0.4-0.1,0.6,0,0.8,0.2
		s0.5,0.4,1.1,0.4l0,0l0,0l0,0l0,0c0.6,0,0.8-0.3,1.1-0.4c0.2-0.2,0.4-0.3,0.8-0.2c0.4,0.1,0.8,0.1,1.1-0.2c0.3-0.2,0.4-0.5,0.4-0.9
		c0-0.5-0.3-0.9-0.8-1.1c0.6-0.4,1.3-0.5,2.1-0.2c1,0.4,1.6,1.4,1.6,2.5c0,2.4-3,3.6-4.2,4C57.4,48.8,57.3,48.2,57.3,47.8
		 M56.9,47.9c0.1,0.5,0.2,1.4-0.3,2c-0.3,0.4-0.8,0.6-1.5,0.6s-1.2-0.2-1.5-0.6c-0.5-0.6-0.4-1.5-0.3-2c0.1-0.3,0-0.5-0.1-0.7
		c-0.3-0.4-1.1-0.3-1.7-0.3c-0.1,0-0.2,0-0.3,0c-0.2,0-0.3,0-0.3-0.1c0,0,0-0.1,0-0.2c0.1-0.1,0.2-0.2,0.4-0.2
		c2.1,0,3.4,1.4,3.8,1.8l0,0l0,0c0.4-0.4,1.7-1.8,3.8-1.8c0.2,0,0.4,0.1,0.4,0.2c0,0.1,0,0.1,0,0.2C59.2,46.9,59.1,47,59,47
		s-0.2,0-0.3,0c-0.6-0.1-1.4-0.1-1.7,0.3C56.8,47.4,56.8,47.6,56.9,47.9"/>
	<path class="st0" d="M90.4,46.4c-0.1-0.2-0.4-0.3-0.6-0.1l-1,0.7c-0.2,0.1-0.3,0.4-0.1,0.6l1.1,1.6c0.1,0.1,0.2,0.2,0.4,0.2
		c0.1,0,0.2,0,0.3-0.1l1-0.7c0.1-0.1,0.2-0.2,0.2-0.3s0-0.2-0.1-0.3L90.4,46.4z M91.2,48.3l-1,0.7l0,0c0,0,0,0-0.1,0L89,47.4v-0.1
		l1-0.7l0,0c0,0,0,0,0.1,0L91.2,48.3L91.2,48.3L91.2,48.3"/>
	<path class="st0" d="M92.4,47.8c0.1,0,0.2,0,0.3-0.1l1-0.7c0.2-0.1,0.3-0.4,0.1-0.6l-1.1-1.6c-0.1-0.2-0.4-0.3-0.6-0.1l-1,0.7
		c-0.2,0.1-0.3,0.4-0.1,0.6l1.1,1.6C92.2,47.7,92.3,47.8,92.4,47.8 M91.3,45.7l1-0.7l0,0c0,0,0,0,0.1,0l1.1,1.6v0.1l-1,0.7l0,0
		c0,0,0,0-0.1,0L91.3,45.7C91.3,45.8,91.3,45.8,91.3,45.7"/>
	<path class="st0" d="M94.4,46c0.1,0.1,0.2,0.2,0.4,0.2c0.1,0,0.2,0,0.3-0.1l1-0.7c0.2-0.1,0.3-0.4,0.1-0.6L95,43.3
		c-0.1-0.2-0.4-0.3-0.6-0.1l-1,0.7c-0.1,0.1-0.2,0.2-0.2,0.3s0,0.2,0.1,0.3L94.4,46z M93.6,44.2l1-0.7l0,0c0,0,0,0,0.1,0l1.1,1.6
		v0.1l-1,0.7h-0.1L93.6,44.2L93.6,44.2L93.6,44.2"/>
	<path class="st0" d="M96.7,44.5c0.1,0.1,0.2,0.2,0.4,0.2c0.1,0,0.2,0,0.3-0.1l1-0.7c0.1-0.1,0.2-0.2,0.2-0.3s0-0.2-0.1-0.3
		l-1.1-1.6c-0.1-0.2-0.4-0.3-0.6-0.1l-1,0.7c-0.1,0.1-0.2,0.2-0.2,0.3s0,0.2,0.1,0.3L96.7,44.5z M95.9,42.6l1-0.7l0,0c0,0,0,0,0.1,0
		l1.1,1.6c0,0,0,0,0,0.1l0,0l-1,0.7l0,0c0,0,0,0-0.1,0L95.9,42.6C95.9,42.7,95.9,42.6,95.9,42.6L95.9,42.6"/>
	<path class="st0" d="M90.9,60c0.1,0.1,0.2,0.2,0.4,0.2c0.1,0,0.2,0,0.3-0.1l1-0.7c0.1-0.1,0.2-0.2,0.2-0.3s0-0.2-0.1-0.3l-1.1-1.6
		c-0.1-0.2-0.4-0.3-0.6-0.1l-1,0.7c-0.2,0.1-0.3,0.4-0.1,0.6L90.9,60z M90.2,58.1l1-0.7l0,0c0,0,0,0,0.1,0l1.1,1.6c0,0,0,0,0,0.1
		l0,0l-1,0.7l0,0c0,0,0,0-0.1,0L90.2,58.1C90.2,58.2,90.2,58.2,90.2,58.1"/>
	<path class="st0" d="M93.9,55.7c-0.1-0.2-0.4-0.3-0.6-0.1l-1,0.7c-0.2,0.1-0.3,0.4-0.1,0.6l1.1,1.6c0.1,0.1,0.2,0.2,0.4,0.2
		c0.1,0,0.2,0,0.3-0.1l1-0.7c0.1-0.1,0.2-0.2,0.2-0.3s0-0.2-0.1-0.3L93.9,55.7z M94.7,57.6l-1,0.7l0,0c0,0,0,0-0.1,0l-1.1-1.6v-0.1
		l1-0.7l0,0c0,0,0,0,0.1,0L94.7,57.6C94.7,57.5,94.7,57.5,94.7,57.6C94.7,57.5,94.7,57.6,94.7,57.6"/>
	<path class="st0" d="M96.2,54.1c-0.1-0.2-0.4-0.3-0.6-0.1l-1,0.7c-0.2,0.1-0.3,0.4-0.1,0.6l1.1,1.6c0.1,0.1,0.2,0.2,0.4,0.2
		c0.1,0,0.2,0,0.3-0.1l1-0.7c0.2-0.1,0.3-0.4,0.1-0.6L96.2,54.1z M97,56l-1,0.7l0,0c0,0,0,0-0.1,0l-1.1-1.6V55l1-0.7l0,0
		c0,0,0,0,0.1,0L97,56C97,55.9,97,56,97,56"/>
	<path class="st0" d="M97.9,52.4l-1,0.7c-0.1,0.1-0.2,0.2-0.2,0.3s0,0.2,0.1,0.3l1.1,1.6c0.1,0.1,0.2,0.2,0.4,0.2
		c0.1,0,0.2,0,0.3-0.1l1-0.7c0.2-0.1,0.3-0.4,0.1-0.6l-1.1-1.6C98.4,52.3,98.1,52.3,97.9,52.4 M98.2,52.7L98.2,52.7l1.1,1.6v0.1
		l-1,0.7h-0.1l-1.1-1.6c0,0,0,0,0-0.1l0,0L98.2,52.7C98.1,52.7,98.2,52.7,98.2,52.7"/>
	<path class="st0" d="M100.2,53.7c0.1,0.1,0.2,0.2,0.4,0.2c0.1,0,0.2,0,0.3-0.1l1-0.7c0.1-0.1,0.2-0.2,0.2-0.3s0-0.2-0.1-0.3
		l-1.1-1.6c-0.1-0.2-0.4-0.3-0.6-0.1l-1,0.7c-0.1,0.1-0.2,0.2-0.2,0.3s0,0.2,0.1,0.3L100.2,53.7z M99.4,51.9
		C99.4,51.9,99.4,51.8,99.4,51.9l1-0.7l0,0c0,0,0,0,0.1,0l1.1,1.6c0,0,0,0,0,0.1l0,0l-1,0.7l0,0c0,0,0,0-0.1,0L99.4,51.9L99.4,51.9"
		/>
	<path class="st0" d="M110.4,37.6l-6.5-1.6l3.5,3.4L110.4,37.6z M109.4,37.7l-1.9,1.2l-2.3-2.2L109.4,37.7z"/>
	<path class="st0" d="M124.3,45.3c1.2,0,2.1-0.9,2.1-2.1s-0.9-2.1-2.1-2.1s-2.1,0.9-2.1,2.1S123.1,45.3,124.3,45.3 M124.3,41.6
		c0.9,0,1.7,0.7,1.7,1.7c0,0.9-0.7,1.7-1.7,1.7c-0.9,0-1.7-0.7-1.7-1.7C122.6,42.3,123.4,41.6,124.3,41.6"/>
	<path class="st0" d="M119.1,45c0.8,0,1.5-0.7,1.5-1.5s-0.7-1.5-1.5-1.5s-1.5,0.7-1.5,1.5S118.3,45,119.1,45 M119.1,42.4
		c0.6,0,1.1,0.5,1.1,1.1s-0.5,1.1-1.1,1.1s-1.1-0.5-1.1-1.1S118.5,42.4,119.1,42.4"/>
	<path class="st0" d="M119.4,45.6c-0.8,0-1.5,0.7-1.5,1.5s0.7,1.5,1.5,1.5s1.5-0.7,1.5-1.5C120.9,46.2,120.2,45.6,119.4,45.6
		 M119.4,48.1c-0.6,0-1.1-0.5-1.1-1.1s0.5-1.1,1.1-1.1s1.1,0.5,1.1,1.1C120.5,47.7,120,48.1,119.4,48.1"/>
	<path class="st0" d="M122.2,50.9c0.8,0,1.5-0.7,1.5-1.5s-0.7-1.5-1.5-1.5s-1.5,0.7-1.5,1.5S121.4,50.9,122.2,50.9 M122.2,48.3
		c0.6,0,1.1,0.5,1.1,1.1s-0.5,1.1-1.1,1.1s-1.1-0.5-1.1-1.1S121.6,48.3,122.2,48.3"/>
	<path class="st0" d="M124.4,49.1c0,0.8,0.7,1.5,1.5,1.5s1.5-0.7,1.5-1.5s-0.7-1.5-1.5-1.5S124.4,48.3,124.4,49.1 M127,49.1
		c0,0.6-0.5,1.1-1.1,1.1s-1.1-0.5-1.1-1.1s0.5-1.1,1.1-1.1S127,48.5,127,49.1"/>
	<path class="st0" d="M128.9,48.5c0.8,0,1.5-0.7,1.5-1.5s-0.7-1.5-1.5-1.5s-1.5,0.7-1.5,1.5C127.5,47.8,128.1,48.5,128.9,48.5
		 M128.9,45.9c0.6,0,1.1,0.5,1.1,1.1s-0.5,1.1-1.1,1.1s-1.1-0.5-1.1-1.1C127.9,46.4,128.3,45.9,128.9,45.9"/>
	<path class="st0" d="M130.6,42.4c-0.8,0-1.5,0.7-1.5,1.5s0.7,1.5,1.5,1.5s1.5-0.7,1.5-1.5C132.1,43,131.4,42.4,130.6,42.4
		 M130.6,44.9c-0.6,0-1.1-0.5-1.1-1.1s0.5-1.1,1.1-1.1s1.1,0.5,1.1,1.1C131.7,44.4,131.2,44.9,130.6,44.9"/>
	<path class="st0" d="M130.5,41.8c0.8,0,1.5-0.7,1.5-1.5s-0.7-1.5-1.5-1.5s-1.5,0.7-1.5,1.5C129.1,41.1,129.7,41.8,130.5,41.8
		 M130.5,39.2c0.6,0,1.1,0.5,1.1,1.1s-0.5,1.1-1.1,1.1s-1.1-0.5-1.1-1.1S129.9,39.2,130.5,39.2"/>
</g>
</svg>
