<?xml version="1.0" encoding="utf-8"?>
<!-- Generator: Adobe Illustrator 24.2.3, SVG Export Plug-In . SVG Version: 6.00 Build 0)  -->
<svg version="1.1" id="Layer_1" xmlns="http://www.w3.org/2000/svg" xmlns:xlink="http://www.w3.org/1999/xlink" x="0px" y="0px"
	 viewBox="0 0 200 150" style="enable-background:new 0 0 200 150;" xml:space="preserve">
<style type="text/css">
	.st0{fill:#FFFFFF;}
</style>
<g>
	<path class="st0" d="M160.5,100.6c-0.2-0.6-0.4-1.2-0.5-1.8c-0.2-0.6-0.4-1.2-0.4-1.8c0-0.5,0.1-0.9,0.4-1.2
		c0.2-0.2,0.3-0.4,0.5-0.6c0.6-0.8,0.8-1.8,0.9-2.9c0.1-0.4,0-0.8,0-1.3c0-0.1,0-0.2-0.1-0.2s-0.1,0.1-0.2,0.1
		c-0.2,0.2-0.4,0.5-0.6,0.7c-0.5,0.5-1,1.1-1.5,1.6c-0.4,0.4-0.8,0.8-1.2,1.2c-0.4,0.3-0.8,0.7-1,1.1c-0.4,0.6-0.7,1.3-1.1,1.9
		c-0.4,0.6-0.6,1.3-0.6,2c0,0.6,0,1.1,0.1,1.7c0,0.1,0.1,0.2,0.1,0.3c1.9,1,4.1,1.8,6.4,2.2c-0.2-0.5-0.3-0.9-0.5-1.4
		C160.9,101.8,160.7,101.2,160.5,100.6"/>
	<path class="st0" d="M175.7,99.1c-0.1-0.6-0.2-1.3-0.3-1.9c-0.1-1-0.3-1.9-0.4-2.9c-0.1-1-0.3-2-0.3-3.1c0-0.5-0.1-1-0.1-1.4
		s-0.2-0.5-0.5-0.4c-0.6,0.2-1.2,0.3-1.7,0.4c-0.3,0.1-0.6,0.1-0.8,0.1c-0.8,0.2-1.5,0.2-2.3,0.3c-0.6,0.1-1.3,0-1.9,0
		c-0.1,0-0.3,0-0.3,0.2c-0.2,0.7-0.6,1.2-1.1,1.7c-0.3,0.4-0.6,0.8-1,1.2c-0.5,0.6-0.9,1.3-1.4,2c-0.3,0.5-0.7,1-0.9,1.6
		c-0.1,0.3-0.1,0.6-0.2,0.8c-0.1,0.5-0.1,1,0,1.5c0.1,0.3,0.2,0.7,0.3,1c0.2,0.7,0.5,1.3,0.6,2c0,0.1,0.1,0.2,0.1,0.2
		c0.2,0.1,0.4,0.2,0.7,0.3c0.4,0.2,0.8,0.4,1,0.9c0.1,0.2,0.1,0.3,0,0.5l0,0c3.6,0.1,7.1-0.4,10.5-1.6c0-0.7,0-1.5-0.1-2.2
		C175.9,100,175.8,99.5,175.7,99.1"/>
	<path class="st0" d="M177.6,45.8c-15.4-0.6-30.5,12-33.9,28.1c-2.3,11.2,1.7,21.1,9.4,26.4c0-0.2-0.1-0.5-0.1-0.7
		c-0.1-0.8-0.1-1.5-0.1-2.3c0-0.2,0-0.4,0.1-0.6c0.1-0.4,0.4-0.7,0.6-1.1c0.3-0.4,0.5-0.9,0.8-1.3c0.4-0.6,0.7-1.3,1-1.9
		c0.2-0.4,0.3-0.9,0.4-1.4c0.1-0.5,0.2-1.1,0.2-1.7c-0.1-0.5-0.1-1.1-0.2-1.6c0,0-0.4-1.8-0.4-4.1c-0.3,0.6-0.6,1.6-0.9,2.8
		c-0.6,2.5-1.1,5.6-1.3,6.5c-0.4,1.7-0.4,1.7-0.8,1.8c-0.2,0-0.3-0.2-0.4-0.5c-0.3-1.2-2.6-4.3,0.2-11.1c2.7-6.8,6.9-9.3,12-10
		c5.1-0.6,10.7,0,11.8-2c1-1.7,2.3-4,2.9-5c0.1-0.1,0-0.4-0.1-0.6c-0.6-2.1,0.3-5.2,0.7-5.1c0.4,0.1,2.3,2.8,2.4,2.6
		c0.1-0.1,1.1-0.3,2.2-0.3c1,0,2.1,0.1,2.2,0.3c0.1,0.2,2.1-2.6,2.4-2.6c0.3-0.1,1.3,3,0.7,5.1c-0.1,0.2-0.1,0.4-0.1,0.6
		c0,0.4,0.1,0.7,0.2,1.1c0.2,0.5,0.8,3.6,0.5,6.7c-0.4,3.1-1.8,4.6-1.9,5c-0.1,0.3-0.1,2.6-1.1,4.6c0,0.1,0,0.2,0,0.3
		c-0.1,0.6-0.3,1.3-0.6,1.9c-0.1,0.3-0.2,0.6-0.3,0.9c-0.2,0.4-0.3,0.7-0.5,1.1c-0.4,0.7-0.8,1.3-1.3,1.9c-0.4,0.5-0.8,1-1,1.6
		c0,0.1-0.1,0.2-0.1,0.3c-0.3,0.3-0.3,0.6-0.4,0.9c-0.1,0.5-0.2,0.9-0.3,1.4s-0.2,1.1-0.3,1.6c-0.1,0.3-0.1,0.6-0.1,0.9
		c-0.2,0.7-0.2,1.3-0.3,2s-0.1,1.4-0.1,2.1c8.8-4.9,15.7-13.7,17.9-24.1C202.7,60,192.9,46.4,177.6,45.8"/>
	<path class="st0" d="M178.8,99.8c0-1.1,0-2.1,0-3.2c0-0.6,0.1-1.2,0.2-1.9c0-0.7,0.2-1.4,0.3-2.1c0-0.2,0.2-0.4,0.1-0.6
		c0-0.3,0.1-0.6,0.2-0.8c0.1-0.5,0.3-1.1,0.5-1.6c0.1-0.2,0.1-0.4,0.1-0.7c-0.1,0.2-0.2,0.3-0.3,0.5c-0.2,0.4-0.4,0.9-0.6,1.3
		c-0.2,0.5-0.3,1-0.4,1.5c-0.1,0.6-0.2,1.3-0.3,1.9c-0.1,0.5-0.1,1.1-0.2,1.6c0,1-0.1,2.1-0.2,3.1c-0.1,1-0.1,1.9,0,2.9
		c0.2-0.1,0.4-0.2,0.6-0.2c-0.1-0.2-0.1-0.5-0.1-0.7C178.7,100.5,178.8,100.1,178.8,99.8"/>
	<path class="st0" d="M11.8,53.6c6.1,0,8.4,4.2,8.4,8.6c0,4.3-3.1,8.6-8.6,8.6H6.2v9.8H0v-27H11.8z M6.2,65.1h4.6
		c2.3,0,3.2-1.4,3.2-3s-0.9-3-3.2-3H6.2V65.1z"/>
	<path class="st0" d="M33.8,80.7c-5.6,0-10.5-2.9-10.5-8.8V61.8c0-5.9,5.5-8.6,10.5-8.6c5.2,0,10.5,2.9,10.5,8.7V72
		C44.3,77.9,39.4,80.7,33.8,80.7 M30,45.8c1.7,0,3,1.3,3,3s-1.4,3-3,3c-1.7,0-3-1.4-3-3C27,47.1,28.3,45.8,30,45.8 M38.1,63.2
		c0-3.1-2.3-4.2-4.3-4.2s-4.3,1.1-4.3,4.2v7.6c0,3.1,2.3,4.2,4.3,4.2s4.3-1.1,4.3-4.2V63.2z M37.8,45.8c1.7,0,3,1.3,3,3s-1.3,3-3,3
		s-3-1.4-3-3C34.7,47.1,36.1,45.8,37.8,45.8"/>
	<polygon class="st0" points="54.1,64.4 64.8,64.4 64.8,69.9 54.1,69.9 54.1,80.5 47.8,80.5 47.8,53.6 66.6,53.6 66.6,59.1 
		54.1,59.1 	"/>
	<polygon class="st0" points="75.8,64.4 86.5,64.4 86.5,69.9 75.8,69.9 75.8,80.5 69.6,80.5 69.6,53.6 88.4,53.6 88.4,59.1 
		75.8,59.1 	"/>
	<path class="st0" d="M103.4,69.2c-1.8,1.5-5.5,3.7-6.1,6.1h11.3v5.2H91.3v-3.8c0-4.5,2.7-7.7,5.6-9.9c2.9-2.2,5.8-3.8,5.8-5.8
		c0-1.3-1-2.3-3.1-2.3c-1.6,0-3.5,0.5-5,1.9l-3-4.7c2.1-1.9,5.3-2.8,8.5-2.8c4.2,0,8.8,1.8,8.8,7.9
		C108.8,64.7,105.7,67.3,103.4,69.2"/>
	<polygon class="st0" points="129.1,76.7 129.1,80.5 123.2,80.5 123.2,76.7 112.1,76.7 112.1,72.1 120.7,53.4 126.8,53.4 
		118.6,71.6 123.2,71.6 123.2,64 129.1,64 129.1,71.6 131.2,71.6 131.2,76.7 	"/>
	<path class="st0" d="M2.7,86.7c1.4,0,1.9,1,1.9,2s-0.7,2-2,2H1.4V93H0v-6.2h2.7V86.7z M1.4,89.4h1.1c0.5,0,0.7-0.3,0.7-0.7
		C3.2,88.3,3,88,2.5,88H1.4V89.4z"/>
	<rect x="5.5" y="86.7" class="st0" width="1.4" height="6.2"/>
	<polygon class="st0" points="12.9,90 12.3,91.2 11.8,92.1 10.8,92.1 10.2,91.1 9.7,90 9.6,90 9.6,92.9 8.2,92.9 8.2,86.7 9.5,86.7 
		10.5,88.7 11.3,90.2 11.3,90.2 12.1,88.7 13.1,86.7 14.4,86.7 14.4,92.9 12.9,92.9 	"/>
	<polygon class="st0" points="15.5,86.7 19.8,86.7 19.8,88 16.9,88 16.9,89.2 19.4,89.2 19.4,90.4 16.9,90.4 16.9,91.7 19.8,91.7 
		19.8,92.9 15.5,92.9 	"/>
	<path class="st0" d="M23.1,92.9h-2.4v-6.2h2.4c1.3,0,2.3,0.6,2.3,2V91C25.4,92.3,24.2,92.9,23.1,92.9 M23.9,89c0-0.7-0.5-1-1-1
		h-0.7v3.7h0.7c0.5,0,1-0.3,1-1V89z"/>
	<path class="st0" d="M29.8,91.7h-2l-0.4,1.2h-1.5l2.2-6.2h1.5l2.2,6.2h-1.5L29.8,91.7z M28.1,90.5h1.3l-0.1-0.4l-0.5-1.7l0,0
		l-0.5,1.7L28.1,90.5z"/>
	<polygon class="st0" points="34.3,88 34.3,92.9 32.9,92.9 32.9,88 31.3,88 31.3,86.7 35.9,86.7 35.9,88 	"/>
	<polygon class="st0" points="36.5,86.7 40.8,86.7 40.8,88 37.9,88 37.9,89.2 40.4,89.2 40.4,90.4 37.9,90.4 37.9,91.7 40.8,91.7 
		40.8,92.9 36.5,92.9 	"/>
	<path class="st0" d="M46.5,93c-1.3,0-2.4-0.7-2.4-2v-2.3c0-1.4,1.3-2,2.4-2c1.2,0,2.4,0.7,2.4,2V91C49,92.3,47.8,93,46.5,93
		 M45.7,84.9c0.4,0,0.7,0.3,0.7,0.7c0,0.4-0.3,0.7-0.7,0.7S45,86,45,85.6C45,85.2,45.3,84.9,45.7,84.9 M47.5,88.9c0-0.7-0.5-1-1-1
		s-1,0.3-1,1v1.8c0,0.7,0.5,1,1,1s1-0.3,1-1V88.9z M47.5,84.9c0.4,0,0.7,0.3,0.7,0.7c0,0.4-0.3,0.7-0.7,0.7s-0.7-0.3-0.7-0.7
		C46.8,85.2,47.1,84.9,47.5,84.9"/>
	<path class="st0" d="M52.4,93c-1.3,0-2.4-0.7-2.4-2v-2.3c0-1.4,1.3-2,2.4-2c1.2,0,2.4,0.7,2.4,2V91C54.8,92.3,53.7,93,52.4,93
		 M51.5,84.9c0.4,0,0.7,0.3,0.7,0.7c0,0.4-0.3,0.7-0.7,0.7s-0.7-0.3-0.7-0.7C50.8,85.2,51.1,84.9,51.5,84.9 M53.4,88.9
		c0-0.7-0.5-1-1-1s-1,0.3-1,1v1.8c0,0.7,0.5,1,1,1s1-0.3,1-1V88.9z M53.3,84.9c0.4,0,0.7,0.3,0.7,0.7c0,0.4-0.3,0.7-0.7,0.7
		s-0.7-0.3-0.7-0.7C52.6,85.2,52.9,84.9,53.3,84.9"/>
	<path class="st0" d="M58.2,92.9h-2.4v-6.2h2.4c1.3,0,2.3,0.6,2.3,2V91C60.5,92.3,59.4,92.9,58.2,92.9 M59,89c0-0.7-0.5-1-1-1h-0.7
		v3.7H58c0.5,0,1-0.3,1-1V89z"/>
	<polygon class="st0" points="61.5,86.7 65.8,86.7 65.8,88 62.9,88 62.9,89.2 65.4,89.2 65.4,90.4 62.9,90.4 62.9,91.7 65.8,91.7 
		65.8,92.9 61.5,92.9 	"/>
	<polygon class="st0" points="70.6,89.2 73,89.2 73,90.5 70.6,90.5 70.6,92.9 69.1,92.9 69.1,86.7 73.5,86.7 73.5,88 70.6,88 	"/>
	<rect x="74.3" y="86.7" class="st0" width="1.4" height="6.2"/>
	<polygon class="st0" points="77,92.9 77,86.7 78.4,86.7 78.4,91.6 81.3,91.6 81.3,92.9 	"/>
	<polygon class="st0" points="86.6,90 86.1,91.2 85.5,92.1 84.5,92.1 84,91.1 83.4,90 83.4,90 83.4,92.9 81.9,92.9 81.9,86.7 
		83.2,86.7 84.3,88.7 85,90.2 85.1,90.2 85.8,88.7 86.8,86.7 88.1,86.7 88.1,92.9 86.7,92.9 86.7,90 	"/>
	<rect x="89.4" y="86.7" class="st0" width="1.4" height="6.2"/>
	<polygon class="st0" points="93.5,89.2 96,89.2 96,90.5 93.5,90.5 93.5,92.9 92.1,92.9 92.1,86.7 96.4,86.7 96.4,88 93.5,88 	"/>
	<polygon class="st0" points="97,86.7 101.4,86.7 101.4,88 98.5,88 98.5,89.2 101,89.2 101,90.4 98.5,90.4 98.5,91.7 101.4,91.7 
		101.4,92.9 97,92.9 	"/>
	<path class="st0" d="M104.6,93c-0.9,0-1.7-0.2-2.5-0.8l0.8-1.1c0.5,0.4,1.1,0.6,1.6,0.6c0.8,0,1-0.3,1-0.6c0-0.4-0.3-0.5-1.4-0.8
		s-1.8-0.7-1.8-1.8c0-1.1,0.9-1.8,2.3-1.8c0.7,0,1.4,0.1,2.2,0.6l-0.6,1.2c-0.6-0.4-1.1-0.4-1.5-0.4c-0.5,0-0.8,0.1-0.8,0.5
		c0,0.3,0.3,0.5,1.4,0.8c1.6,0.4,1.8,1.1,1.8,1.9C107.1,92.4,105.9,93,104.6,93"/>
	<polygon class="st0" points="110.5,88 110.5,92.9 109,92.9 109,88 107.5,88 107.5,86.7 112,86.7 112,88 	"/>
	<rect x="112.9" y="86.7" class="st0" width="1.4" height="6.2"/>
	<polygon class="st0" points="117.9,90.8 118.5,88.6 119,86.7 120.5,86.7 118.6,92.9 117.1,92.9 115.1,86.7 116.6,86.7 117.2,88.6 
		117.8,90.8 	"/>
	<path class="st0" d="M124.3,91.7h-2l-0.4,1.2h-1.5l2.2-6.2h1.5l2.2,6.2h-1.5L124.3,91.7z M122.7,90.5h1.3l-0.1-0.4l-0.5-1.7l0,0
		l-0.5,1.7L122.7,90.5z"/>
	<polygon class="st0" points="126.8,92.9 126.8,86.7 128.3,86.7 128.3,91.6 131.2,91.6 131.2,92.9 	"/>
	<polygon class="st0" points="23.3,98.7 23.3,103.8 22.1,103.8 22.1,98.7 20.4,98.7 20.4,97.5 25,97.5 25,98.7 	"/>
	<path class="st0" d="M28.5,102.5h-2.2l-0.4,1.3h-1.3l2.2-6.2H28l2.2,6.2h-1.3L28.5,102.5z M26.6,101.4h1.5l-0.2-0.8L27.4,99l0,0
		l-0.5,1.6L26.6,101.4z"/>
	<polygon class="st0" points="30.8,103.8 30.8,97.5 32.1,97.5 32.1,102.7 35.1,102.7 35.1,103.8 	"/>
	<polygon class="st0" points="35.8,103.8 35.8,97.5 37,97.5 37,102.7 40,102.7 40,103.8 	"/>
	<rect x="40.8" y="97.5" class="st0" width="1.2" height="6.2"/>
	<polygon class="st0" points="44.6,99.8 44.6,103.8 43.3,103.8 43.3,97.5 44.4,97.5 45.9,99.7 47.1,101.5 47.1,101.5 47.1,97.5 
		48.3,97.5 48.3,103.8 47.2,103.8 45.6,101.4 	"/>
	<polygon class="st0" points="50.6,99.8 50.6,103.8 49.4,103.8 49.4,97.5 50.5,97.5 52,99.7 53.2,101.5 53.2,101.5 53.2,97.5 
		54.4,97.5 54.4,103.8 53.3,103.8 51.7,101.4 50.7,99.8 	"/>
	<polygon class="st0" points="59.4,103.8 59.4,99 58.8,99.5 58.1,98.7 59.5,97.5 60.5,97.5 60.5,103.8 	"/>
	<path class="st0" d="M66.3,99.2c0,0.6-0.3,1.1-0.8,1.3c0.5,0.2,0.8,0.8,0.8,1.4c0,1.4-1.1,1.9-2,1.9c-0.7,0-1.4-0.2-1.9-0.6
		c0-0.1,0.5-0.8,0.6-0.9c0.3,0.3,0.8,0.5,1.2,0.5c0.6,0,0.9-0.3,0.9-0.8s-0.3-0.8-0.8-0.8h-0.7v-1h0.7c0.4,0,0.8-0.3,0.8-0.8
		s-0.5-0.7-0.8-0.7c-0.4,0-0.9,0.2-1.2,0.5l-0.6-0.9c0.5-0.4,1.2-0.6,1.9-0.6C65.4,97.5,66.3,98,66.3,99.2"/>
	<path class="st0" d="M67.5,103.1c0-0.4,0.3-0.7,0.7-0.7c0.4,0,0.7,0.3,0.7,0.7c0,0.4-0.3,0.7-0.7,0.7
		C67.8,103.8,67.5,103.5,67.5,103.1"/>
	<rect x="72.2" y="100.9" class="st0" width="2.9" height="1"/>
	<path class="st0" d="M81.1,101.1c-0.5,0.4-1.4,0.9-1.5,1.6h2.7v1h-3.9v-0.9c0-1,0.7-1.7,1.4-2.2c0.7-0.5,1.4-0.9,1.4-1.4
		c0-0.4-0.4-0.7-0.9-0.7c-0.4,0-0.9,0.2-1.2,0.5l-0.6-0.9c0.5-0.4,1.1-0.6,1.8-0.6c1,0,2,0.4,2,1.7C82.3,100,81.6,100.6,81.1,101.1"
		/>
	<path class="st0" d="M87.1,102.1c0,1.1-0.9,1.7-2,1.7c-0.7,0-1.4-0.2-1.8-0.6l0.6-0.9c0.4,0.3,0.8,0.5,1.2,0.5
		c0.3,0,0.9-0.2,0.9-0.8v-0.7c-0.5,0.3-0.8,0.4-1.2,0.4c-0.9,0-1.6-0.7-1.6-1.7v-0.6c0-1.2,0.9-1.8,1.9-1.8c1.1,0,1.9,0.6,1.9,1.8
		L87.1,102.1L87.1,102.1z M85.1,98.6c-0.4,0-0.8,0.2-0.8,0.8v0.4c0,0.5,0.3,0.6,0.6,0.6c0.3,0,0.6-0.1,1-0.3v-0.7
		C85.9,98.8,85.5,98.6,85.1,98.6"/>
	<path class="st0" d="M88.1,103.1c0-0.4,0.3-0.7,0.7-0.7c0.4,0,0.7,0.3,0.7,0.7c0,0.4-0.3,0.7-0.7,0.7
		C88.4,103.8,88.1,103.5,88.1,103.1"/>
	<polygon class="st0" points="94.2,99.8 94.2,103.8 93,103.8 93,97.5 94.1,97.5 95.5,99.7 96.7,101.5 96.7,101.5 96.7,97.5 98,97.5 
		98,103.8 96.8,103.8 95.3,101.4 	"/>
	<path class="st0" d="M101.4,103.8c-1.3,0-2.4-0.7-2.4-2v-2.3c0-1.3,1.2-2,2.4-2c1.2,0,2.4,0.7,2.4,2v2.2
		C103.8,103.1,102.7,103.8,101.4,103.8 M102.5,99.7c0-0.8-0.6-1.1-1.1-1.1c-0.6,0-1.2,0.3-1.2,1.1v1.8c0,0.8,0.6,1.1,1.2,1.1
		s1.1-0.3,1.1-1.1V99.7z"/>
	<polygon class="st0" points="107,101.9 107.7,99.7 108.3,97.5 109.6,97.5 107.6,103.8 106.3,103.8 104.3,97.5 105.7,97.5 
		106.3,99.8 	"/>
	<path class="st0" d="M115.2,101.1c-0.5,0.4-1.4,0.9-1.5,1.6h2.7v1h-3.9v-0.9c0-1,0.7-1.7,1.4-2.2c0.7-0.5,1.4-0.9,1.4-1.4
		c0-0.4-0.4-0.7-0.9-0.7c-0.4,0-0.9,0.2-1.2,0.5l-0.6-0.9c0.5-0.4,1.1-0.6,1.8-0.6c1,0,2,0.4,2,1.7
		C116.4,100,115.7,100.6,115.2,101.1"/>
	<path class="st0" d="M119.2,103.8c-0.9,0-2-0.5-2-1.7v-3c0-1.1,1.1-1.7,2-1.7s2,0.6,2,1.7v3C121.2,103.3,120.1,103.8,119.2,103.8
		 M120,99.4c0-0.6-0.4-0.8-0.8-0.8s-0.8,0.2-0.8,0.8v2.5c0,0.6,0.4,0.8,0.8,0.8s0.8-0.2,0.8-0.8V99.4z"/>
	<path class="st0" d="M124.8,101.1c-0.5,0.4-1.4,0.9-1.5,1.6h2.7v1h-3.9v-0.9c0-1,0.7-1.7,1.4-2.2c0.7-0.5,1.4-0.9,1.4-1.4
		c0-0.4-0.4-0.7-0.9-0.7c-0.4,0-0.9,0.2-1.2,0.5l-0.6-0.9c0.5-0.4,1.1-0.6,1.8-0.6c1,0,2,0.4,2,1.7C126,100,125.3,100.6,124.8,101.1
		"/>
	<path class="st0" d="M128.9,103.8c-0.9,0-2-0.5-2-1.7v-3c0-1.1,1.1-1.7,2-1.7c0.9,0,2,0.6,2,1.7v3
		C130.8,103.3,129.8,103.8,128.9,103.8 M129.7,99.4c0-0.6-0.4-0.8-0.8-0.8c-0.4,0-0.8,0.2-0.8,0.8v2.5c0,0.6,0.4,0.8,0.8,0.8
		c0.4,0,0.8-0.2,0.8-0.8V99.4z"/>
</g>
</svg>
