<?xml version="1.0" encoding="utf-8"?>
<!-- Generator: Adobe Illustrator 24.2.3, SVG Export Plug-In . SVG Version: 6.00 Build 0)  -->
<svg version="1.1" id="Layer_1" xmlns="http://www.w3.org/2000/svg" xmlns:xlink="http://www.w3.org/1999/xlink" x="0px" y="0px"
	 viewBox="0 0 160 90" style="enable-background:new 0 0 160 90;" xml:space="preserve">
<style type="text/css">
	.st0{fill:#FFFFFF;}
</style>
<g>
	<path class="st0" d="M9.5,51.1v3.6c0,0.3-0.1,0.4-0.3,0.5l-0.3,0.3L6,52.5c-0.7-0.7-1.5-0.4-1.6-0.3c-0.3,0.1-0.9,0.4-0.9,1.3v8.7
		c0,0.9,0.7,1.3,0.9,1.3c0.3,0.1,0.9,0.3,1.6-0.3l6.5-6.5c0.3-0.3,0.4-0.7,0.4-1.1v-6.4c0-2.8,2.3-5.1,5.1-5.1h25
		c2.8,0,5.1,2.3,5.1,5.1v17.2c0,2.8-2.3,5.1-5.1,5.1H18c-2.8,0-5.1-2.3-5.1-5.1v-0.1l3.5-3.5v3.7c0,0.8,0.7,1.5,1.5,1.5h25
		c0.8,0,1.5-0.7,1.5-1.5V49.3c0-0.8-0.7-1.5-1.5-1.5H18c-0.8,0-1.5,0.7-1.5,1.5V54v1.7c0,1.3-0.5,2.5-1.5,3.6l-6.5,6.5
		c-1.5,1.5-3.6,1.9-5.5,1.1S0,64.4,0,62.3v-8.7c0-0.1,0-0.3,0-0.4c0.1-1.9,1.3-3.5,3.1-4.1c1.9-0.8,4-0.4,5.5,1.1L9.5,51.1z"/>
	<path class="st0" d="M42,18.5c-4.3,0-7.2,2.1-9.3,4.8c0,0,1.1,1.5,2,3.1l0,0c2-2.7,4.1-4.4,7.3-4.4c4.1,0,7.6,3.5,7.6,7.6
		c0,4.1-3.5,7.6-7.6,7.6c-4.8,0-7.2-4-10.1-8.5c-2.9-4.8-6.3-10.3-13.1-10.3c-6.1,0-11.1,4.9-11.1,11.1s4.9,11.1,11.1,11.1
		c2.5,0,5.7-0.5,9.3-4.8l0,0c0,0-1.1-1.5-2-3.1c-2.4,3.1-4.5,4.4-7.3,4.4c-4.1,0-7.6-3.5-7.6-7.6c0-4.1,3.5-7.6,7.6-7.6
		c4.8,0,7.2,4,10.1,8.5c2.9,4.8,6.3,10.3,13.1,10.3c6.1,0,11.1-4.9,11.1-11.1C53.2,23.6,48.2,18.5,42,18.5"/>
	<polygon class="st0" points="67.8,28.9 62.6,28.9 62.6,25.9 76.5,25.9 76.5,28.9 71.3,28.9 71.3,41.9 67.8,41.9 	"/>
	<path class="st0" d="M87.3,30.9h3.3v1.5l0,0c0.8-1.1,1.9-1.6,3.2-1.6c0.3,0,0.4,0,0.7,0.1v3.2c-0.3,0-0.5-0.1-0.9-0.1
		c-1.2,0-2.1,0.4-2.9,1.3V42h-3.3C87.3,42,87.3,30.9,87.3,30.9z"/>
	<path class="st0" d="M103.7,41.5c-0.5,0.3-1.5,0.5-2.4,0.5c-1.1,0-2.1-0.4-2.8-1.1c-0.5-0.7-0.9-1.5-0.9-3.2v-4h-1.7v-2.8h1.6v-2.8
		l3.3-0.5v3.5h2.9v2.8h-2.9v3.6c0,1.1,0.3,1.9,1.2,1.9c0.5,0,1.2-0.3,1.6-0.4v2.5H103.7z"/>
	<path class="st0" d="M113,40.8c-0.8,0.7-1.9,1.3-3.3,1.3c-1.2,0-2.3-0.4-2.8-1.1c-0.7-0.7-1.1-1.7-1.1-3.3v-6.7h3.3v6.3
		c0,0.8,0.1,1.2,0.4,1.6c0.3,0.3,0.7,0.5,1.2,0.5c0.8,0,1.7-0.4,2.3-0.9v-7.3h3.3v10.9H113V40.8L113,40.8z"/>
	<polygon class="st0" points="63.7,48 73.9,48 73.9,51.1 67.3,51.1 67.3,54.5 73,54.5 73,57.5 67.3,57.5 67.3,64 63.7,64 	"/>
	<path class="st0" d="M75.8,53.2h3.3v10.9h-3.3V53.2z M77.5,47.7c1.1,0,2,0.8,2,1.9s-0.9,1.9-2,1.9c-1.1,0-2-0.8-2-1.9
		C75.5,48.7,76.5,47.7,77.5,47.7"/>
	<rect x="81.9" y="47.1" class="st0" width="3.3" height="16.9"/>
	<path class="st0" d="M102.2,57.7c0-0.8-0.1-1.2-0.4-1.5c-0.3-0.4-0.7-0.4-1.2-0.4c-0.8,0-1.6,0.4-2.1,0.9c0,0.1,0,0.3,0,0.5v6.8
		h-3.3v-6.3c0-0.7-0.1-1.2-0.4-1.5C94.5,56,94.1,56,93.5,56c-0.8,0-1.6,0.4-2.1,0.9v7.3h-3.3V53.3h3.3v0.9l0,0
		c0.8-0.7,2-1.2,3.3-1.2c1.2,0,2.5,0.4,3.2,1.6c1.2-1.1,2.4-1.6,3.9-1.6c1.2,0,2.1,0.4,2.8,1.1c0.7,0.7,0.9,1.6,0.9,3.2v6.8h-3.3
		V57.7z"/>
	<path class="st0" d="M108.2,53.2h3.3v10.9h-3.3V53.2z M110,47.7c1.1,0,2,0.8,2,1.9s-0.9,1.9-2,1.9s-2-0.8-2-1.9
		C108,48.7,108.9,47.7,110,47.7"/>
	<path class="st0" d="M115,56h-1.6v-2.8h1.6v-1.6c0-1.5,0.3-2.8,1.2-3.6c0.8-0.8,2-1.1,3.1-1.1c0.7,0,1.2,0.1,1.9,0.3v2.7
		c-0.4-0.1-1.1-0.1-1.5-0.1c-1.1,0-1.2,0.7-1.2,1.6v1.9h2.5V56h-2.5v8.1h-3.3V56H115z"/>
	<path class="st0" d="M128,61.3c1.5,0,2.7-1.2,2.7-2.8c0-1.6-1.2-2.8-2.7-2.8s-2.7,1.2-2.7,2.8S126.5,61.3,128,61.3 M128,52.9
		c3.5,0,6.1,2.5,6.1,5.7c0,3.2-2.5,5.7-6.1,5.7c-3.5,0-6.1-2.5-6.1-5.7C121.8,55.3,124.5,52.9,128,52.9"/>
	<path class="st0" d="M136.2,53.2h3.3v0.9l0,0c0.8-0.7,2-1.2,3.3-1.2c1.2,0,2.1,0.4,2.8,1.1c0.7,0.7,0.9,1.6,0.9,3.2V64h-3.3v-6.3
		c0-0.8-0.1-1.2-0.4-1.5s-0.7-0.4-1.2-0.4c-0.8,0-1.7,0.4-2.3,0.9v7.3h-3.3V53.2H136.2z"/>
	<path class="st0" d="M156.8,56.1c-0.5-0.3-1.1-0.4-1.7-0.4c-1.7,0-2.7,1.3-2.7,2.9c0,1.6,0.9,2.9,2.5,2.9c0.7,0,1.3-0.3,1.9-0.5
		L156.8,56.1L156.8,56.1z M156.8,63.5c-0.7,0.5-1.7,0.8-2.8,0.8c-2.8,0-5.1-2.1-5.1-5.5c0-3.5,2.5-5.9,5.7-5.9c0.8,0,1.5,0.1,2,0.4
		l0,0v-6.1h3.3v16.9h-3.3L156.8,63.5L156.8,63.5z"/>
	<path class="st0" d="M81.7,39.2c-0.4,0.3-0.9,0.4-1.5,0.4c-0.8,0-1.3-0.4-1.3-1.1c0-0.8,0.8-1.1,1.7-1.1c0.4,0,0.8,0,1.2,0.1v0.5
		v1.1H81.7z M83.8,31.7c-0.8-0.7-2.1-1.1-3.6-1.1c-1.6,0-2.9,0.4-3.9,0.8v2.9c0.8-0.4,2-0.8,3.2-0.8c0.8,0,1.3,0.1,1.7,0.5
		c0.3,0.3,0.4,0.7,0.4,1.2v0.4c-0.5-0.1-1.2-0.1-1.9-0.1c-1.1,0-2.3,0.1-3.1,0.8c-0.8,0.5-1.3,1.5-1.3,2.7c0,1.1,0.5,2,1.3,2.5
		c0.7,0.5,1.6,0.7,2.5,0.7c0.9,0,1.7-0.3,2.4-0.5V42H85v-7.1C85,33.3,84.6,32.4,83.8,31.7"/>
</g>
</svg>
