<?xml version="1.0" encoding="utf-8"?>
<!-- Generator: Adobe Illustrator 24.2.3, SVG Export Plug-In . SVG Version: 6.00 Build 0)  -->
<svg version="1.1" id="Layer_1" xmlns="http://www.w3.org/2000/svg" xmlns:xlink="http://www.w3.org/1999/xlink" x="0px" y="0px"
	 viewBox="0 0 160 90" style="enable-background:new 0 0 160 90;" xml:space="preserve">
<style type="text/css">
	.st0{fill:#FFFFFF;}
</style>
<g>
	<g>
		<path class="st0" d="M32.9,65.1c-1.8,2.4-4.5,3.9-7.2,3.9c-2.2,0-4-0.7-5.5-2.1c-1.4-1.4-2.2-3.3-2.2-5.7c0-2.5,0.8-4.5,2.3-6
			s3.4-2.3,5.7-2.3c4.5,0,6.7,2.3,6.7,6.9v0.8h-9.6c0.4,3.8,2.5,5.6,5.2,5.6c1.5,0,3.2-0.7,4.2-1.5L32.9,65.1z M28.5,59.2
			c0-3.5-0.8-5.3-2.4-5.3c-2.4,0-2.9,3.3-2.9,5.3v0.6L28.5,59.2z"/>
		<path class="st0" d="M40.3,64.6c0,1.7,0.5,2.9,1.5,3.6v0.5h-8v-0.5c1-0.6,1.5-1.8,1.5-3.6V50.5c0-1.1-0.5-2-1-2.3L34,48v-0.5
			l6.3-1.9V64.6z"/>
		<path class="st0" d="M49.4,64.6c0,1.7,0.5,2.9,1.5,3.6v0.5h-8v-0.5c1-0.6,1.5-1.8,1.5-3.6V50.5c0-1.1-0.5-2-1-2.3L43,48v-0.5
			l6.3-1.9v19H49.4z"/>
		<path class="st0" d="M58.5,64.6c0,1.7,0.5,2.9,1.5,3.6v0.5h-8v-0.5c1-0.6,1.5-1.8,1.5-3.6v-6.8c0-1.1-0.5-2-1-2.3l-0.3-0.2v-0.5
			l6.3-1.9V64.6z M53.7,46.3c1.1-1.2,3-1.2,4.1,0c1.2,1.1,1.2,3,0,4.1c-1.1,1.1-3,1.1-4.1,0C52.6,49.4,52.6,47.5,53.7,46.3z"/>
		<path class="st0" d="M67.5,64.6c0,1.7,0.5,2.9,1.3,3.6v0.5H61v-0.5c1-0.6,1.5-1.8,1.5-3.6v-7.2c0-1.1-0.5-2-1-2.3L61.2,55v-0.5
			l6.3-1.9V56c1.5-2,3.7-3,5.7-3c2.9,0,4,1.8,4,5.4v6.3c0,1.7,0.5,2.9,1.5,3.6v0.5h-7.8v-0.5c0.9-0.6,1.3-1.8,1.3-3.6v-6
			c0-1.7-1-2.5-2.4-2.5c-0.8,0-1.5,0.2-2.3,0.6C67.5,56.8,67.5,64.6,67.5,64.6z"/>
		<path class="st0" d="M90.4,65.5c3.2,0,4.9,0.9,4.9,3.4c0,1.9-0.9,3.6-2.7,5c-1.8,1.5-4.1,2.3-7,2.3c-3.9,0-6.4-1.4-6.4-3.6
			c0-1.6,1.3-2.8,3.3-3.2c-1.1-0.5-1.6-1.4-1.6-2.6c0-1.5,0.9-2.6,2.7-3.5c-2.3-0.7-3.9-2.4-3.9-4.9c0-1.6,0.7-2.9,2.1-3.9
			s3.1-1.5,5.1-1.5c1.3,0,2.5,0.2,3.5,0.6c0.5-1.9,1.8-3.1,3.1-3.1c1.1,0,1.9,0.9,1.9,1.9s-0.7,1.8-1.7,1.8c-0.7,0-1.2-0.4-1.5-1.1
			c-0.2,0-0.5,0.3-1,0.9c1.6,0.9,2.5,2.3,2.5,4.1s-0.7,3.2-2.2,4.2c-1.4,1-3.1,1.5-5.1,1.5c-0.6,0-1.2-0.1-1.9-0.2
			c-0.2,0.3-0.3,0.6-0.3,1c0,0.7,0.6,1,1.8,1h4.4V65.5z M85.4,70c-0.8,0-1.4-0.1-2-0.2c-0.4,0.5-0.6,1.1-0.6,1.9c0,2.1,1.7,3,4.2,3
			c1.5,0,2.7-0.3,3.7-0.9s1.5-1.4,1.5-2.4c0-1.1-0.8-1.3-2.1-1.3L85.4,70L85.4,70z M84.4,57.9c0,3.4,0.9,4.8,2.3,4.8
			c1.2,0,2.1-1.5,2.1-4.3c0-1.2-0.2-2.3-0.6-3.2s-0.9-1.4-1.6-1.4C85.2,53.8,84.4,55.4,84.4,57.9z"/>
		<path class="st0" d="M106.4,66.3c-1.2,1.5-3.1,2.6-5.1,2.6c-2.8,0-4-1.6-4-5v-9.5h-1.9v-0.8c2.3-0.8,4.7-3,5.9-5.4h1V53l3.4-0.3
			l-0.3,1.8h-3.1v8.9c0,2.1,0.6,3.1,1.9,3.1c0.5,0,1.1-0.2,1.9-0.5L106.4,66.3z"/>
		<path class="st0" d="M120.8,66.7c-1.6,1.5-3.7,2.2-6.2,2.2c-2.4,0-4.4-0.7-5.9-2.2c-1.5-1.4-2.2-3.3-2.2-5.6s0.8-4.3,2.3-5.9
			c1.5-1.6,3.6-2.4,6.3-2.4c2.5,0,4.5,0.8,5.9,2.3c1.5,1.5,2.2,3.5,2.2,5.9C123.3,63.4,122.5,65.3,120.8,66.7z M112.5,65.1
			c0.4,1.7,1.3,2.7,2.6,2.7c1.9,0,2.9-2.1,2.9-6.3c0-4.7-1.1-7.6-3.1-7.6c-1,0-1.8,0.6-2.2,1.8c-0.5,1.2-0.7,2.6-0.7,4.2
			C111.9,61.8,112.1,63.4,112.5,65.1z"/>
		<path class="st0" d="M130.7,64.6c0,1.7,0.5,2.9,1.3,3.6v0.5h-7.8v-0.5c1-0.6,1.5-1.8,1.5-3.6v-7.2c0-1.1-0.5-2-1-2.3l-0.3-0.2
			v-0.5l6.3-1.9V56c1.5-2,3.7-3,5.7-3c2.9,0,4,1.8,4,5.4v6.3c0,1.7,0.5,2.9,1.5,3.6v0.5h-7.8v-0.5c0.9-0.6,1.3-1.8,1.3-3.6v-6
			c0-1.7-1-2.5-2.4-2.5c-0.8,0-1.5,0.2-2.3,0.6V64.6z"/>
	</g>
	<g>
		<path class="st0" d="M39.4,83.4c0.4,0.5,0.6,1.1,0.6,1.9s-0.2,1.5-0.6,1.9c-0.4,0.5-1,0.7-1.7,0.7c-0.4,0-0.7-0.1-1-0.2
			c-0.3-0.2-0.5-0.4-0.7-0.7v3h-0.8v-7.3h0.7l0.1,0.9c0.1-0.3,0.4-0.5,0.7-0.7s0.7-0.3,1.1-0.3C38.4,82.6,39,82.9,39.4,83.4z
			 M38.8,86.7c0.3-0.4,0.4-0.8,0.4-1.4s-0.1-1.1-0.4-1.4c-0.3-0.4-0.7-0.5-1.2-0.5s-0.9,0.2-1.2,0.5S36,84.7,36,85.3v0.1
			c0,0.6,0.1,1,0.4,1.4c0.3,0.3,0.7,0.5,1.2,0.5C38.1,87.2,38.5,87.1,38.8,86.7z"/>
		<path class="st0" d="M44.6,82.7l-0.2,0.8c-0.2-0.1-0.4-0.1-0.6-0.1c-0.2,0-0.4,0.1-0.6,0.2c-0.2,0.1-0.4,0.3-0.5,0.6
			c-0.1,0.3-0.2,0.6-0.2,0.9v2.8h-0.8v-5.1h0.7l0.1,0.8c0.3-0.6,0.8-0.9,1.6-0.9C44.3,82.6,44.5,82.7,44.6,82.7z"/>
		<path class="st0" d="M45.8,81.6c-0.1-0.1-0.2-0.3-0.2-0.4s0.1-0.3,0.2-0.4c0.1-0.1,0.3-0.2,0.4-0.2c0.2,0,0.3,0.1,0.4,0.2
			c0.1,0.1,0.2,0.3,0.2,0.4s-0.1,0.3-0.2,0.4c-0.1,0.1-0.3,0.2-0.4,0.2C46,81.8,45.9,81.7,45.8,81.6z M46.6,87.9h-0.8v-5.1h0.8V87.9
			z"/>
		<path class="st0" d="M52.4,83.1c0.4,0.3,0.6,0.8,0.6,1.4v3.3h-0.8v-3c0-0.5-0.1-0.9-0.3-1.2c-0.2-0.2-0.5-0.4-0.9-0.4
			c-0.3,0-0.5,0.1-0.8,0.2c-0.2,0.1-0.4,0.3-0.6,0.6c-0.2,0.3-0.2,0.6-0.2,1v2.7h-0.8v-5.1h0.7l0.1,0.8c0.2-0.3,0.4-0.5,0.7-0.7
			c0.3-0.1,0.6-0.2,1-0.2C51.6,82.6,52,82.8,52.4,83.1z"/>
		<path class="st0" d="M57.9,87.5c-0.3,0.3-0.8,0.5-1.3,0.5c-0.4,0-0.8-0.1-1-0.3c-0.3-0.2-0.4-0.6-0.4-1v-3.1h-1v-0.7h1v-1.2
			l0.8-0.2V83h1.9v0.7H56v3c0,0.2,0.1,0.4,0.2,0.6c0.1,0.1,0.3,0.2,0.6,0.2s0.6-0.1,0.9-0.4L57.9,87.5z"/>
		<path class="st0" d="M67.3,87.2c0.2,0.1,0.4,0.1,0.6,0.1L67.8,88c-0.3,0-0.5-0.1-0.7-0.2s-0.5-0.3-0.8-0.6
			c-0.3,0.3-0.6,0.4-0.9,0.6C65,87.9,64.6,88,64.2,88s-0.8-0.1-1.1-0.2s-0.6-0.4-0.8-0.6c-0.2-0.3-0.3-0.6-0.3-0.9
			c0-0.4,0.1-0.8,0.4-1.1c0.2-0.3,0.7-0.6,1.2-1c-0.3-0.4-0.5-0.7-0.6-0.9c-0.1-0.2-0.2-0.5-0.2-0.7s0.1-0.5,0.2-0.7
			c0.1-0.2,0.3-0.4,0.5-0.6c0.2-0.1,0.5-0.2,0.9-0.2s0.8,0.1,1.1,0.3c0.3,0.2,0.5,0.6,0.5,1s-0.1,0.7-0.3,1
			c-0.2,0.3-0.5,0.6-1.1,0.9c0.1,0.2,0.3,0.4,0.7,0.8l0.4,0.5l0.4,0.5c0.3-0.5,0.4-1,0.4-1.6c0-0.1,0-0.2,0-0.3l0.7,0.1v0.2
			c0,0.4-0.1,0.8-0.2,1.1c-0.1,0.4-0.3,0.7-0.5,1C66.9,86.9,67.1,87.1,67.3,87.2z M65,87.1c0.3-0.1,0.5-0.3,0.7-0.5
			c-0.2-0.3-0.5-0.6-0.9-1.1L64,84.6c-0.5,0.3-0.8,0.5-1,0.8c-0.2,0.2-0.3,0.5-0.3,0.7c0,0.3,0.1,0.6,0.4,0.8
			c0.3,0.2,0.6,0.3,0.9,0.3C64.5,87.3,64.8,87.2,65,87.1z M63.9,81.9c-0.1,0.1-0.2,0.3-0.2,0.6c0,0.2,0,0.3,0.1,0.5s0.3,0.4,0.5,0.8
			c0.4-0.2,0.7-0.4,0.8-0.7c0.1-0.2,0.2-0.5,0.2-0.7c0-0.5-0.3-0.7-0.9-0.7C64.2,81.7,64,81.8,63.9,81.9z"/>
		<path class="st0" d="M76.6,83.4c0.4,0.5,0.6,1.1,0.6,1.9s-0.2,1.5-0.6,1.9c-0.4,0.5-1,0.7-1.7,0.7c-0.4,0-0.7-0.1-1-0.2
			c-0.3-0.2-0.5-0.4-0.7-0.7v3h-0.8v-7.3h0.7l0.1,0.9c0.1-0.3,0.4-0.5,0.7-0.7c0.3-0.2,0.7-0.3,1.1-0.3
			C75.6,82.6,76.2,82.9,76.6,83.4z M76,86.7c0.3-0.4,0.4-0.8,0.4-1.4s-0.1-1.1-0.4-1.4c-0.3-0.4-0.7-0.5-1.2-0.5s-0.9,0.2-1.2,0.5
			c-0.3,0.3-0.4,0.8-0.4,1.4v0.1c0,0.6,0.1,1,0.4,1.4c0.3,0.3,0.7,0.5,1.2,0.5C75.3,87.2,75.7,87.1,76,86.7z"/>
		<path class="st0" d="M81.8,82.7l-0.2,0.8c-0.2-0.1-0.4-0.1-0.6-0.1s-0.4,0.1-0.6,0.2s-0.4,0.3-0.5,0.6c-0.1,0.3-0.2,0.6-0.2,0.9
			v2.8h-0.8v-5.1h0.7l0.1,0.8c0.3-0.6,0.8-0.9,1.6-0.9C81.4,82.6,81.6,82.7,81.8,82.7z"/>
		<path class="st0" d="M86.8,83.4c0.4,0.5,0.7,1.1,0.7,2c0,0.8-0.2,1.5-0.7,2c-0.4,0.5-1,0.7-1.8,0.7s-1.4-0.2-1.8-0.7
			s-0.7-1.1-0.7-2c0-0.8,0.2-1.5,0.7-2c0.4-0.5,1-0.7,1.8-0.7S86.3,82.9,86.8,83.4z M83.7,83.9c-0.3,0.3-0.4,0.8-0.4,1.4
			s0.1,1.1,0.4,1.4s0.7,0.5,1.2,0.5s0.9-0.2,1.2-0.5c0.3-0.3,0.4-0.8,0.4-1.4s-0.1-1.1-0.4-1.4s-0.7-0.5-1.2-0.5S84,83.5,83.7,83.9z
			"/>
		<path class="st0" d="M93.5,80.4v7.5h-0.7V87c-0.1,0.3-0.4,0.5-0.7,0.7C91.8,87.9,91.4,88,91,88c-0.7,0-1.3-0.2-1.7-0.7
			c-0.4-0.5-0.6-1.1-0.6-1.9s0.2-1.5,0.6-1.9c0.4-0.5,1-0.7,1.7-0.7c0.4,0,0.7,0.1,1,0.2c0.3,0.2,0.5,0.4,0.7,0.7v-3.1h0.8V80.4z
			 M92.3,86.7c0.3-0.3,0.4-0.8,0.4-1.4v-0.1c0-0.6-0.1-1-0.4-1.4c-0.3-0.3-0.7-0.5-1.2-0.5s-0.9,0.2-1.2,0.5
			c-0.3,0.4-0.4,0.8-0.4,1.4s0.1,1.1,0.4,1.4c0.3,0.4,0.7,0.5,1.2,0.5C91.6,87.2,92,87.1,92.3,86.7z"/>
		<path class="st0" d="M99.9,82.7v5.1h-0.7L99.1,87c-0.3,0.6-0.9,0.9-1.8,0.9c-0.6,0-1-0.2-1.4-0.5s-0.5-0.8-0.5-1.4v-3.3h0.8v3.1
			c0,0.5,0.1,0.8,0.3,1.1c0.2,0.2,0.5,0.3,0.9,0.3c0.5,0,0.9-0.1,1.2-0.4c0.3-0.3,0.5-0.7,0.5-1.3v-2.8L99.9,82.7L99.9,82.7z"/>
		<path class="st0" d="M105.2,83c0.4,0.2,0.6,0.6,0.8,1l-0.8,0.4c-0.2-0.7-0.7-1-1.4-1c-0.5,0-0.9,0.2-1.2,0.5
			c-0.3,0.3-0.4,0.8-0.4,1.4s0.1,1.1,0.4,1.4s0.7,0.5,1.2,0.5c0.4,0,0.7-0.1,1-0.3c0.2-0.2,0.4-0.4,0.5-0.8l0.8,0.3
			c-0.2,0.5-0.4,0.8-0.8,1.1c-0.4,0.3-0.8,0.4-1.3,0.4c-0.8,0-1.4-0.2-1.8-0.7s-0.7-1.1-0.7-2c0-0.8,0.2-1.5,0.7-2
			c0.4-0.5,1-0.7,1.8-0.7C104.4,82.6,104.9,82.8,105.2,83z"/>
		<path class="st0" d="M110.6,87.5c-0.3,0.3-0.8,0.5-1.3,0.5c-0.4,0-0.8-0.1-1-0.3c-0.3-0.2-0.4-0.6-0.4-1v-3.1h-1v-0.7h1v-1.2
			l0.8-0.2V83h1.9v0.7h-1.9v3c0,0.2,0.1,0.4,0.2,0.6c0.1,0.1,0.3,0.2,0.6,0.2c0.3,0,0.6-0.1,0.9-0.4L110.6,87.5z"/>
		<path class="st0" d="M111.8,81.6c-0.1-0.1-0.2-0.3-0.2-0.4s0.1-0.3,0.2-0.4s0.3-0.2,0.4-0.2c0.2,0,0.3,0.1,0.4,0.2
			s0.2,0.3,0.2,0.4s-0.1,0.3-0.2,0.4s-0.3,0.2-0.4,0.2C112,81.8,111.9,81.7,111.8,81.6z M112.6,87.9h-0.8v-5.1h0.8V87.9z"/>
		<path class="st0" d="M118.5,83.4c0.4,0.5,0.7,1.1,0.7,2c0,0.8-0.2,1.5-0.7,2c-0.4,0.5-1,0.7-1.8,0.7s-1.4-0.2-1.8-0.7
			s-0.7-1.1-0.7-2c0-0.8,0.2-1.5,0.7-2c0.4-0.5,1-0.7,1.8-0.7C117.4,82.6,118,82.9,118.5,83.4z M115.5,83.9
			c-0.3,0.3-0.4,0.8-0.4,1.4s0.1,1.1,0.4,1.4s0.7,0.5,1.2,0.5s0.9-0.2,1.2-0.5c0.3-0.3,0.4-0.8,0.4-1.4s-0.1-1.1-0.4-1.4
			s-0.7-0.5-1.2-0.5S115.7,83.5,115.5,83.9z"/>
		<path class="st0" d="M124.6,83.1c0.4,0.3,0.6,0.8,0.6,1.4v3.3h-0.8v-3c0-0.5-0.1-0.9-0.3-1.2c-0.2-0.2-0.5-0.4-0.9-0.4
			c-0.3,0-0.5,0.1-0.8,0.2c-0.2,0.1-0.4,0.3-0.6,0.6c-0.2,0.3-0.2,0.6-0.2,1v2.7h-0.8v-5.1h0.7l0.1,0.8c0.2-0.3,0.4-0.5,0.7-0.7
			c0.3-0.1,0.6-0.2,1-0.2C123.8,82.6,124.3,82.8,124.6,83.1z"/>
	</g>
	<g>
		<path class="st0" d="M74.3,21.6c-1.2-1-1.2-2.2-1.2-2.4s0.2-0.7,0.8-0.8c0.6-0.1,0.9,0.4,0.9,0.4h0.6c0-0.7,0-1.4,0.1-2.1
			c0.1-0.8,0.2-1.6,0.4-2.4c0.2-0.8,0.3-1.5,0.4-2.3c0.1-0.7,0.2-1.4,0.3-2.1c0.1-0.6,0.1-1.1,0.2-1.7C76.9,7.8,77,7.4,77,7
			c0.1-0.5,0.1-1.1,0.1-1.6s0-1-0.1-1.5c0.1-0.4,0-0.7,0-1.1c0-0.2-0.1-0.4-0.2-0.6c-0.2-0.2-0.4-0.3-0.6-0.1
			c-0.1,0.1-0.2,0.2-0.3,0.3c-0.1,0.2-0.2,0.4-0.3,0.6c0,0.1,0,0.2-0.1,0.2c-0.5,0.9-0.9,1.9-1,3c-0.1,0.7-0.2,1.4-0.3,2.1
			c-0.2,1.2-0.4,2.4-0.7,3.6c-0.3,1.3-0.6,2.5-1.1,3.8c-0.1,0.2-0.1,0.4-0.2,0.6c0,0.1-0.1,0.2-0.2,0.3c-0.1,0.1-0.2,0.1-0.2,0
			s-0.1-0.1-0.1-0.2s0-0.2,0-0.4c0-0.4,0-0.9,0-1.3c0-0.5,0.1-1,0.1-1.5s0.1-0.9,0.1-1.4c0-0.6,0.1-1.2,0.1-1.8c0-0.7,0-1.5,0-2.2
			c0-1,0-1.9,0-2.7s0-1.6,0-2.5c0-0.1,0-0.2,0-0.2c-0.1-0.4-0.2-0.8-0.5-1.1c0-0.1-0.1-0.2-0.1-0.2c0-0.3-0.1-0.5-0.3-0.7
			c-0.2-0.3-0.5-0.3-0.8-0.1c-0.2,0-0.3,0.2-0.3,0.4c-0.1,0.3-0.2,0.5-0.3,0.8c-0.3,0.9-0.4,1.8-0.5,2.7c0,0.7,0,1.3,0,2
			c0,0.6-0.1,1.2-0.1,1.8c0,0.5-0.1,1-0.1,1.4c0,0.8-0.1,1.6-0.1,2.3c0,0.6,0,1.2,0,1.9c0,0.8-0.1,1.6-0.2,2.4
			c0,0.2-0.1,0.3-0.1,0.5c0,0.1-0.1,0.1-0.2,0s-0.1-0.2-0.1-0.3c-0.1-0.3-0.1-0.6-0.2-0.9c-0.1-0.9-0.3-1.9-0.4-2.8
			c-0.2-1.3-0.4-2.6-0.6-3.9c-0.2-1.2-0.4-2.3-0.5-3.4c-0.1-0.6-0.2-1.1-0.5-1.6c0-0.1,0-0.1-0.1-0.2c0-0.2-0.1-0.3-0.1-0.5
			c-0.1-0.2-0.2-0.4-0.4-0.6c-0.3-0.2-0.6-0.2-0.7,0.1c-0.1,0.1-0.1,0.3-0.2,0.4c-0.1,0.3-0.1,0.5-0.1,0.8c-0.2,0.7-0.2,1.3-0.2,2
			c0,0.5,0.1,0.9,0.1,1.4s0.1,1,0.1,1.4c0,0.3,0.1,0.6,0.1,1s0.1,0.8,0.1,1.2s0,0.7,0.1,1.1c0,0.4,0.1,0.9,0.1,1.3
			c0.1,0.5,0.1,1,0.2,1.5c0.1,0.4,0.1,0.8,0.2,1.2c0.1,0.5,0.1,1,0.2,1.5c0,0.4,0.1,0.8,0,1.2c0,0.1,0,0.1,0,0.2
			c-0.1,0.2-0.2,0.2-0.3,0.1c0-0.1-0.1-0.1-0.1-0.2c-0.1-0.2-0.2-0.3-0.2-0.5c-0.2-0.5-0.4-1-0.6-1.5c-0.4-1-0.8-2.1-1.2-3.1
			c-0.3-0.8-0.6-1.6-0.9-2.3c-0.2-0.6-0.5-1.1-0.9-1.6C61,9.2,60.8,9,60.7,8.8c0-0.1-0.1-0.2-0.2-0.3c-0.1-0.1-0.1-0.1-0.2-0.1
			c-0.2-0.1-0.4-0.1-0.5,0.1c-0.1,0.1-0.1,0.2-0.1,0.3S59.6,8.9,59.6,9c0,0.1,0,0.1,0,0.2c0,0.1,0.1,0.1,0.1,0.2
			c0,0.2,0.1,0.4,0.2,0.7c0,0.1,0.1,0.1,0.1,0.2c0,0.2,0,0.3,0,0.5c0.1,0.7,0.2,1.4,0.4,2.1c0.3,1,0.6,2.1,0.9,3.1
			c0.2,0.8,0.4,1.6,0.7,2.4c0.1,0.4,0.3,0.8,0.4,1.1c0.3,1,0.4,2,0.4,3c0,0.7,0.1,1.4,0.1,2.1c0.1,0.6,0.1,1.3,0.2,1.9
			c0.1,0.9,0.3,1.8,0.5,2.7c0.1,0.4,0.2,0.8,0.2,1.3c0.1,0.5,0,0.9,0,1.4c0,0.7-0.1,1.3-0.4,2c-0.4,1.1-0.7,2.3-1.1,3.4
			c-0.1,0.2-0.1,0.4-0.1,0.6c0,0.1,0,0.2,0.1,0.2c1.8,1.5,3.9,2.3,6.2,2.4c0.6,0,1.3,0,1.9-0.1s1.2-0.2,1.8-0.4
			c0.4-0.1,0.4-0.1,0.6-0.6c0.4-1.2,0.8-2.4,1.1-3.7c0.4-1.4,1.1-2.7,2-3.9c0.7-0.8,1.3-1.7,2-2.5c0.5-0.6,1-1.3,1.5-1.9
			C74.5,22.7,75.5,22.6,74.3,21.6z M72,25.9c-0.5,0.3-1.1,0.4-1.6,0.5c-0.8,0.1-1.6,0-2.4-0.3c0,0,0,0-0.1,0
			c1.1-0.5,1.7-1.3,1.6-2.5s-0.7-1.9-1.9-2.3c0,0,0-0.1,0.1-0.1c0.5-0.2,1-0.4,1.6-0.5c0.9-0.1,1.7,0.1,2.5,0.4
			c1.2,0.5,2.7,2.4,2.8,2.4C74.6,23.6,73.1,25.4,72,25.9z"/>
		<path class="st0" d="M100.3,8.5c-0.1-0.2-0.3-0.2-0.5-0.1c-0.1,0-0.1,0.1-0.2,0.1c-0.1,0.1-0.2,0.3-0.3,0.4
			c-0.1,0.1-0.1,0.2-0.2,0.3c-0.4,0.4-0.7,0.8-0.9,1.3c-0.2,0.5-0.4,0.9-0.6,1.4c-0.3,0.8-0.6,1.7-0.9,2.5c-0.4,1.2-0.9,2.4-1.3,3.6
			c-0.1,0.2-0.1,0.3-0.2,0.5c0,0.1-0.1,0.1-0.1,0.2c-0.1,0.1-0.2,0-0.2,0v-0.1c0-0.1,0-0.3,0-0.4c0-0.4,0-0.9,0.1-1.3
			c0-0.4,0.1-0.9,0.2-1.3c0.1-0.6,0.2-1.1,0.3-1.7c0.1-0.6,0.1-1.2,0.2-1.7s0.1-1.1,0.1-1.7c0-0.4,0.1-0.7,0.1-1.1
			c0-0.5,0.1-1,0.1-1.4c0-0.3,0.1-0.7,0.1-1c0-0.4,0.1-0.7,0.1-1.1s0-0.8,0-1.2S96.1,4,96,3.6c0-0.1,0-0.2-0.1-0.3
			c0-0.3-0.1-0.5-0.2-0.7c-0.2-0.3-0.5-0.3-0.8-0.1c-0.1,0.1-0.2,0.2-0.2,0.3c-0.1,0.2-0.2,0.4-0.2,0.6s-0.1,0.3-0.1,0.5
			c-0.1,0.3-0.2,0.5-0.3,0.8c-0.2,0.7-0.3,1.5-0.4,2.3c-0.1,0.7-0.2,1.4-0.3,2.1c-0.1,0.8-0.2,1.5-0.3,2.3c-0.1,0.7-0.2,1.5-0.3,2.2
			c-0.1,0.7-0.2,1.4-0.3,2.1c0,0.3-0.1,0.6-0.2,0.9c0,0.1-0.1,0.2-0.1,0.2c-0.1,0.1-0.2,0.1-0.2,0s-0.1-0.2-0.1-0.3
			c-0.2-0.8-0.2-1.6-0.2-2.5c0-0.7,0-1.3,0-2c0-0.5,0-0.9,0-1.4c0-0.6-0.1-1.2-0.1-1.8c0-0.7-0.1-1.3-0.1-2c0-0.8-0.1-1.6-0.1-2.5
			c0-0.5-0.1-1.1-0.2-1.6s-0.2-1-0.4-1.4c0-0.1-0.1-0.2-0.1-0.3c-0.1-0.3-0.2-0.6-0.4-0.8c-0.2-0.2-0.5-0.2-0.7,0
			c-0.1,0.1-0.2,0.3-0.2,0.5c0,0.3-0.2,0.6-0.3,0.9c0,0,0,0.1-0.1,0.1c-0.1,0.3-0.2,0.5-0.2,0.9c0,0.3,0,0.6,0,0.8
			c0,0.5,0,1.1,0,1.6c0,0.9-0.1,1.8-0.1,2.6c0,1.4,0,2.8,0.1,4.3c0.1,0.7,0.1,1.4,0.2,2.1c0,0.3,0,0.6,0,0.9c0,0.5,0,0.9,0,1.4
			c0,0.1,0,0.2,0,0.2c0,0.1,0,0.2-0.1,0.2s-0.1-0.1-0.2-0.1c0-0.1-0.1-0.1-0.1-0.2s-0.1-0.2-0.1-0.2c-0.2-0.7-0.5-1.4-0.7-2.1
			c-0.4-1.4-0.7-2.9-1-4.4c-0.2-1.1-0.4-2.2-0.5-3.3c-0.1-1-0.4-1.9-0.9-2.8c-0.1-0.2-0.2-0.3-0.2-0.5c-0.1-0.3-0.2-0.6-0.5-0.8
			c-0.3-0.2-0.6-0.2-0.8,0.1c-0.1,0.1-0.1,0.2-0.1,0.3c0,0.2,0,0.4-0.1,0.5c0,0.1,0,0.2,0,0.3c-0.1,0.4-0.1,0.8-0.1,1.2
			c0,0.6,0,1.2,0.1,1.8C83.8,7.2,83.9,8,84,8.7c0.1,0.8,0.2,1.6,0.3,2.4c0.2,1.1,0.4,2.1,0.6,3.2c0.2,1,0.4,2.1,0.5,3.2
			c0,0.5,0,1,0,1.5h0.5c0,0,0.8-0.7,1.2-0.4c0.5,0.2,1.1,1.1-0.3,2.9c-0.4,0.5-1.7,1.6-1.9,1.8c-0.1,0.1-0.2,0.2-0.3,0.3
			c-0.4,0.3-0.9,0.5-1.5,0.5s-1-0.2-1.4-0.6c-1.7-1-2.7-1.9-3.7-2.7c-0.7-0.6-1.5-1-2.4-1.3c-0.3-0.1-0.6-0.1-0.9,0
			c-0.1,0-0.1,0-0.1,0c-0.1-0.1-0.2-0.2-0.3-0.2c-0.1-0.1-0.2-0.1-0.2-0.1c-0.1,0-0.2,0-0.2,0.1s0,0.2,0,0.3c0.2,0.6,0.5,1.1,1,1.6
			c0.2,0.2,0.4,0.4,0.5,0.6s0.2,0.4,0.4,0.5c0.8,1.1,1.7,2.2,2.8,3.1c0.9,0.8,1.8,1.7,2.5,2.7c1,1.3,2,2.5,3,3.8
			c0.9,1,1.5,2.2,1.9,3.5c0.3,1,0.6,2,0.9,3c0.1,0.4,0.3,0.9,0.4,1.3c0,0.2,0.1,0.2,0.3,0.3c0.9,0.3,1.7,0.4,2.6,0.5
			c0.7,0,1.3,0,2-0.1s1.3-0.2,2-0.5c1.2-0.4,2.4-1,3.4-1.8c0.2-0.1,0.2-0.2,0.2-0.4s-0.1-0.4-0.1-0.6c-0.2-0.6-0.4-1.2-0.6-1.8
			c-0.2-0.7-0.4-1.3-0.6-2c-0.3-0.9-0.3-1.9-0.2-2.9c0-0.1,0-0.3,0-0.4c0.1-0.5,0.2-1.1,0.3-1.6c0.3-1.2,0.4-2.4,0.6-3.6
			c0.1-0.6,0.1-1.2,0.1-1.9c0-0.8,0.1-1.6,0.2-2.4c0.1-0.6,0.2-1.1,0.4-1.7c0.2-0.6,0.4-1.3,0.6-1.9c0.3-1.1,0.6-2.2,0.9-3.3
			s0.6-2.3,0.7-3.5c0-0.1,0-0.2,0.1-0.3c0.2-0.3,0.2-0.7,0.2-1C100.4,8.7,100.4,8.6,100.3,8.5z M92.3,25.7c-0.6,0.3-1.3,0.6-2,0.7
			c-0.8,0.1-1.6,0-2.4-0.3c0,0,0,0-0.1,0c0.1,0,0.1-0.1,0.2-0.1c0.7-0.3,1.1-0.9,1.4-1.6c0.4-1.3-0.3-2.6-1.6-3
			c-0.1,0-0.1,0-0.2-0.1l0.1-0.1c0.5-0.2,1-0.4,1.6-0.5c1.1-0.1,2,0.2,2.9,0.7c1,0.5,2.2,2.1,2.2,2.2C94.4,23.6,93.2,25.2,92.3,25.7
			z"/>
		<path class="st0" d="M82.4,23.1c0.3,0,0.6-0.1,0.9-0.2c0.2-0.1,1.3-1.2,1.6-1.6c0-0.1,0.1-0.1,0.2-0.2c0.5-0.4,0.9-1,1.1-1.6
			c0-0.1,0.1-0.2,0.1-0.3c0-0.2-0.1-0.3-0.3-0.2c-0.1,0-0.1,0.1-0.2,0.1c-0.1,0.1-0.2,0.2-0.3,0.3c0,0-0.1,0.1-0.2,0.1
			c-0.3-0.1-0.6-0.1-0.9,0c-1,0.2-1.8,0.7-2.6,1.4c-0.4,0.3-0.9,0.9-1.3,1.2c0.3,0.3,0.8,0.8,1.4,0.9C82.1,23.1,82.3,23.1,82.4,23.1
			z"/>
	</g>
</g>
</svg>
